<?xml version="1.0" encoding="UTF-8"?>
<svg width="24px" height="24px" viewBox="0 0 24 24" version="1.1" xmlns="http://www.w3.org/2000/svg" xmlns:xlink="http://www.w3.org/1999/xlink">
    <!-- Generator: Sketch 64 (93537) - https://sketch.com -->
    <title>account-menu-contact-deep-purple</title>
    <desc>Created with Sketch.</desc>
    <defs>
        <rect id="path-1" x="0" y="0" width="375" height="2537"></rect>
        <rect id="path-3" x="0" y="0" width="375" height="2537"></rect>
    </defs>
    <g id="Page-1" stroke="none" stroke-width="1" fill="none" fill-rule="evenodd">
        <g id="account-menu-contact-deep-purple" transform="translate(-30.000000, -746.000000)">
            <g id="Group-4-Clipped">
                <mask id="mask-2" fill="white">
                    <use xlink:href="#path-1"></use>
                </mask>
                <g id="path-1"></g>
            </g>
            <g id="contact-us-Clipped">
                <mask id="mask-4" fill="white">
                    <use xlink:href="#path-3"></use>
                </mask>
                <g id="path-1"></g>
                <g id="contact-us" mask="url(#mask-4)">
                    <g transform="translate(30.000000, 746.000000)" id="ic_contact-us">
                        <g>
                            <g id="Group" fill="#2D2866" fill-rule="nonzero">
                                <g id="call-answer">
                                    <path d="M23.4619399,18.9669952 L19.7555142,15.2601559 C19.0172629,14.5248694 17.7947044,14.5472093 17.0307346,15.3114549 L15.1634214,17.1783544 C15.0454474,17.1133342 14.9233364,17.0454181 14.7949508,16.973365 C13.6157621,16.3199916 12.0018414,15.4244645 10.3035255,13.7249075 C8.60017626,12.0217651 7.70382181,10.4053623 7.04844881,9.22541505 C6.97929161,9.10040808 6.91303034,8.97988288 6.84759646,8.86542531 L8.10083788,7.61404555 L8.71697814,6.99714684 C9.48212009,6.23179804 9.5032189,5.00958427 8.76669134,4.27216036 L5.06026569,0.564907301 C4.32373813,-0.171482355 3.10062801,-0.149142444 2.33548606,0.616206355 L1.29088837,1.66680272 L1.31943381,1.69514131 C0.969166075,2.14207743 0.676471872,2.65755019 0.458657741,3.21342785 C0.257874344,3.74255278 0.132867373,4.24747613 0.0757075393,4.75343375 C-0.413701991,8.81074769 1.44037271,12.5188281 6.4720929,17.5506173 C13.4274587,24.5055004 19.0325699,23.9800988 19.2743788,23.9544493 C19.8010215,23.8914976 20.305738,23.7656632 20.8186596,23.5664657 C21.3697107,23.3512027 21.8848387,23.0589222 22.331499,22.7094129 L22.3543216,22.7296843 L23.4125715,21.6934297 C24.1761275,20.9282188 24.1981227,19.7055913 23.4619399,18.9669952 Z" id="Path"></path>
                                </g>
                            </g>
                        </g>
                    </g>
                </g>
            </g>
        </g>
    </g>
</svg>