<svg width="22" height="22" viewBox="0 0 22 22" fill="none" xmlns="http://www.w3.org/2000/svg">
<path fill-rule="evenodd" clip-rule="evenodd" d="M10.9986 11.8929C13.5054 11.8939 15.54 9.8688 15.5443 7.36867C15.5486 4.85752 13.5123 2.81793 11.0008 2.81782C8.4968 2.81765 6.46102 4.84558 6.45584 7.34508C6.45062 9.85822 8.48219 11.892 10.9986 11.8929M15.9256 11.39C16.6521 11.8111 17.3252 12.2822 17.918 12.8588C19.7186 14.6101 20.7487 16.7301 20.9639 19.236C20.9875 19.5111 20.9997 19.788 21 20.0641C21.0004 20.5683 20.6204 20.9575 20.1223 20.9778C19.6464 20.9972 19.2474 20.6317 19.1919 20.1373C19.1169 19.4697 19.1021 18.7864 18.9424 18.1391C18.3348 15.6759 16.8591 13.8846 14.591 12.7455C14.5268 12.7133 14.4108 12.7248 14.3458 12.7622C12.114 14.0451 9.88602 14.0445 7.65359 12.763C7.58709 12.7248 7.46223 12.7308 7.39039 12.7672C5.14124 13.9046 3.66967 15.6818 3.06034 18.1289C2.90603 18.7486 2.88165 19.4023 2.81901 20.0425C2.77377 20.5056 2.53967 20.8424 2.14228 20.9446C1.54966 21.0971 1.00137 20.6736 1.00017 20.053C0.997103 18.4514 1.35988 16.9348 2.09289 15.5103C2.9719 13.8021 4.24671 12.4628 5.90028 11.482C5.9487 11.4533 5.99536 11.4216 6.06021 11.3803C4.75261 9.67328 4.311 7.77794 4.85951 5.69328C5.23718 4.25808 6.05078 3.09727 7.25364 2.22633C9.70057 0.454549 13.0178 0.618178 15.2318 2.61645C16.4926 3.75446 17.2078 5.17239 17.3416 6.86994C17.4746 8.5596 16.8025 10.4119 15.7573 11.7459" fill="#1E3A3A"/>
<path d="M15.5443 7.36867L16.0443 7.36952V7.36952L15.5443 7.36867ZM11.0008 2.81782L11.0008 3.31782H11.0008L11.0008 2.81782ZM6.45584 7.34508L6.95584 7.34612V7.34612L6.45584 7.34508ZM17.918 12.8588L18.2667 12.5004L18.2666 12.5003L17.918 12.8588ZM20.9639 19.236L20.4657 19.2788L20.4657 19.2788L20.9639 19.236ZM21 20.0641L21.5 20.0636V20.0636L21 20.0641ZM20.1223 20.9778L20.1427 21.4774L20.1427 21.4774L20.1223 20.9778ZM19.1919 20.1373L19.6888 20.0815L19.6888 20.0814L19.1919 20.1373ZM18.9424 18.1391L18.4569 18.2588L18.4569 18.2588L18.9424 18.1391ZM14.591 12.7455L14.8154 12.2986L14.8151 12.2985L14.591 12.7455ZM14.3458 12.7622L14.0966 12.3287L14.0966 12.3287L14.3458 12.7622ZM7.65359 12.763L7.90251 12.3293L7.90234 12.3292L7.65359 12.763ZM7.39039 12.7672L7.1648 12.3209L7.16474 12.321L7.39039 12.7672ZM3.06034 18.1289L3.54552 18.2498L3.54552 18.2498L3.06034 18.1289ZM2.81901 20.0425L2.32139 19.9938L2.32138 19.9939L2.81901 20.0425ZM2.14228 20.9446L2.26683 21.4289L2.26687 21.4289L2.14228 20.9446ZM1.00017 20.053L0.500173 20.054V20.054L1.00017 20.053ZM2.09289 15.5103L2.53748 15.7391L2.53748 15.7391L2.09289 15.5103ZM5.90028 11.482L5.64534 11.0519L5.64521 11.052L5.90028 11.482ZM6.06021 11.3803L6.32915 11.8018L6.78846 11.5087L6.45714 11.0762L6.06021 11.3803ZM4.85951 5.69328L4.37597 5.56604L4.37597 5.56605L4.85951 5.69328ZM7.25364 2.22633L7.54687 2.63132L7.54688 2.63131L7.25364 2.22633ZM15.2318 2.61645L15.5668 2.24529L15.5668 2.24528L15.2318 2.61645ZM17.3416 6.86994L17.84 6.83069V6.83067L17.3416 6.86994ZM10.9984 12.3929C13.7799 12.394 16.0396 10.1468 16.0443 7.36952L15.0443 7.36782C15.0405 9.59082 13.231 11.3938 10.9988 11.3929L10.9984 12.3929ZM16.0443 7.36952C16.049 4.58185 13.7888 2.31794 11.0008 2.31782L11.0008 3.31782C13.2359 3.31792 15.0481 5.13319 15.0443 7.36782L16.0443 7.36952ZM11.0008 2.31782C8.2219 2.31763 5.96159 4.56797 5.95584 7.34405L6.95584 7.34612C6.96044 5.12319 8.77169 3.31766 11.0008 3.31782L11.0008 2.31782ZM5.95584 7.34404C5.95004 10.1343 8.20616 12.3919 10.9984 12.3929L10.9988 11.3929C8.75822 11.3921 6.95119 9.58216 6.95584 7.34612L5.95584 7.34404ZM15.6749 11.8226C16.3779 12.2301 17.0146 12.6777 17.5694 13.2172L18.2666 12.5003C17.6358 11.8868 16.9263 11.3922 16.1764 10.9574L15.6749 11.8226ZM17.5694 13.2172C19.2863 14.8871 20.2611 16.896 20.4657 19.2788L21.4621 19.1932C21.2363 16.5641 20.1509 14.3331 18.2667 12.5004L17.5694 13.2172ZM20.4657 19.2788C20.4882 19.54 20.4997 19.8028 20.5 20.0646L21.5 20.0636C21.4997 19.7732 21.4869 19.4821 21.4621 19.1932L20.4657 19.2788ZM20.5 20.0645C20.5002 20.2974 20.3348 20.4687 20.1019 20.4782L20.1427 21.4774C20.906 21.4462 21.5007 20.8392 21.5 20.0636L20.5 20.0645ZM20.102 20.4782C19.913 20.4859 19.7179 20.3406 19.6888 20.0815L18.695 20.1931C18.777 20.9228 19.3798 21.5085 20.1427 21.4774L20.102 20.4782ZM19.6888 20.0814C19.6207 19.4761 19.5977 18.7078 19.4278 18.0193L18.4569 18.2588C18.6065 18.865 18.613 19.4634 18.695 20.1931L19.6888 20.0814ZM19.4278 18.0193C18.7839 15.4087 17.209 13.5008 14.8154 12.2986L14.3666 13.1923C16.5092 14.2684 17.8857 15.9432 18.4569 18.2588L19.4278 18.0193ZM14.8151 12.2985C14.6699 12.2257 14.5221 12.222 14.4298 12.2292C14.3318 12.2369 14.2097 12.2637 14.0966 12.3287L14.5949 13.1957C14.5673 13.2116 14.5461 13.2183 14.5362 13.2211C14.5251 13.2241 14.5159 13.2256 14.5076 13.2262C14.4997 13.2268 14.4861 13.2272 14.467 13.2246C14.4497 13.2222 14.4127 13.2154 14.3669 13.1924L14.8151 12.2985ZM14.0966 12.3287C12.0192 13.5229 9.98089 13.5224 7.90251 12.3293L7.40466 13.1966C9.79116 14.5666 12.2088 14.5673 14.595 13.1956L14.0966 12.3287ZM7.90234 12.3292C7.75795 12.2464 7.60619 12.2348 7.51082 12.2373C7.40918 12.24 7.28302 12.2612 7.1648 12.3209L7.61597 13.2134C7.58906 13.227 7.5693 13.2321 7.56091 13.2339C7.55136 13.236 7.54384 13.2368 7.53717 13.237C7.53084 13.2371 7.51866 13.237 7.50083 13.2336C7.48488 13.2305 7.44897 13.222 7.40484 13.1967L7.90234 12.3292ZM7.16474 12.321C4.79193 13.521 3.22119 15.4136 2.57515 18.0081L3.54552 18.2498C4.11814 15.9501 5.49056 14.2883 7.61603 13.2134L7.16474 12.321ZM2.57515 18.0081C2.40906 18.6751 2.37997 19.395 2.32139 19.9938L3.31664 20.0912C3.38332 19.4096 3.403 18.8221 3.54552 18.2498L2.57515 18.0081ZM2.32138 19.9939C2.2904 20.311 2.15619 20.4248 2.01769 20.4604L2.26687 21.4289C2.92315 21.26 3.25715 20.7001 3.31664 20.0911L2.32138 19.9939ZM2.01772 20.4604C1.74384 20.5308 1.50074 20.3492 1.50017 20.0521L0.500173 20.054C0.501989 20.998 1.35547 21.6633 2.26683 21.4289L2.01772 20.4604ZM1.50017 20.0521C1.49725 18.5297 1.84132 17.0919 2.53748 15.7391L1.6483 15.2815C0.878441 16.7776 0.496952 18.3731 0.500173 20.054L1.50017 20.0521ZM2.53748 15.7391C3.37262 14.1161 4.58097 12.8458 6.15535 11.9121L5.64521 11.052C3.91246 12.0797 2.57118 13.4881 1.64829 15.2815L2.53748 15.7391ZM6.15522 11.9121C6.21256 11.8781 6.28011 11.8331 6.32915 11.8018L5.79127 10.9588C5.71062 11.0102 5.68484 11.0285 5.64534 11.0519L6.15522 11.9121ZM6.45714 11.0762C5.23657 9.48284 4.83666 7.74507 5.34305 5.82051L4.37597 5.56605C3.78533 7.81081 4.26865 9.86372 5.66329 11.6843L6.45714 11.0762ZM5.34305 5.82052C5.69034 4.50079 6.43453 3.43672 7.54687 2.63132L6.96041 1.82135C5.66703 2.75783 4.78403 4.01537 4.37597 5.56604L5.34305 5.82052ZM7.54688 2.63131C9.80599 0.99553 12.861 1.15021 14.8968 2.98762L15.5668 2.24528C13.1746 0.0861419 9.59515 -0.0864313 6.9604 1.82135L7.54688 2.63131ZM14.8968 2.98761C16.0651 4.04216 16.7197 5.34236 16.8431 6.90921L17.84 6.83067C17.696 5.00241 16.92 3.46676 15.5668 2.24529L14.8968 2.98761ZM16.8431 6.90919C16.9647 8.45299 16.3457 10.1843 15.3637 11.4375L16.1508 12.0543C17.2594 10.6395 17.9845 8.6662 17.84 6.83069L16.8431 6.90919Z" fill="white"/>
</svg>
