<svg width="24" height="24" viewBox="0 0 24 24" fill="none" xmlns="http://www.w3.org/2000/svg">
<path fill-rule="evenodd" clip-rule="evenodd" d="M4.31977 17.6747C4.33138 17.6876 4.34134 17.7005 4.34798 17.7149C6.00075 20.3019 8.86488 21.8487 12.0095 21.8487C15.1043 21.8487 17.9402 20.3437 19.5946 17.8259C19.6145 17.7969 19.6361 17.768 19.6626 17.7439C19.8419 17.4609 20.0626 17.0686 20.2617 16.6441C20.4885 16.1353 20.665 15.6121 20.7901 15.0791L19.6394 11.1799C12.3994 11.1221 9.46725 9.37436 8.30068 8.15241C7.544 10.0352 5.23078 10.8552 4.40606 11.0931L3.2304 15.0777C3.35659 15.6145 3.53391 16.1345 3.76221 16.6409C3.93976 17.0252 4.12396 17.366 4.31977 17.6747ZM21.5179 8.27219C21.5179 9.4421 21.2333 11.5807 21.093 12.581L20.4973 10.5625C20.4359 10.3551 20.2401 10.212 20.0161 10.212C9.66638 10.212 8.53632 6.78576 8.52802 6.76003C8.46663 6.52047 8.23431 6.35808 7.98208 6.39345C7.72985 6.424 7.54068 6.6298 7.54068 6.8758C7.54068 9.32146 4.03743 10.1884 3.89422 10.2238L3.88998 10.2249C3.71408 10.2635 3.57138 10.3937 3.52325 10.5625L2.92769 12.5781C2.79147 11.6289 2.50272 9.47494 2.50272 8.27219C2.50272 3.97608 6.82215 3.91016 7.00635 3.90856C7.1391 3.90856 7.26687 3.8571 7.3598 3.76707C7.37805 3.74938 9.24655 1.96952 12.0095 1.96952C15.9588 1.96952 21.5179 3.92624 21.5179 8.27219ZM12.0095 22.8182C8.52802 22.8182 5.3569 21.1123 3.51827 18.2552C3.5089 18.2448 3.50061 18.2334 3.4934 18.2234L3.49338 18.2234L3.4884 18.2166C3.26273 17.8613 3.05198 17.4738 2.84621 17.0332C2.69784 16.7032 2.56886 16.3685 2.45939 16.0298C1.10014 16.0074 0 14.9293 0 13.6055C0 12.5279 0.72359 11.6033 1.74669 11.2914C1.62353 10.2906 1.50209 9.09158 1.50209 8.27219C1.50209 3.59181 5.79664 3.01943 6.79892 2.94868C7.33491 2.48563 9.27144 1 12.0095 1C16.3737 1 22.5185 3.25578 22.5185 8.27219C22.5185 9.07871 22.3961 10.2805 22.2717 11.2949C23.2835 11.6138 24 12.5373 24 13.6055C24 14.9221 22.9118 15.9957 21.5629 16.0293C21.454 16.3684 21.3255 16.7048 21.1777 17.0364C20.9537 17.5124 20.7097 17.9481 20.4475 18.3404C20.4276 18.3693 20.4061 18.3967 20.3812 18.4192C18.599 21.146 15.4494 22.8182 12.0095 22.8182ZM2.00158 13.1214C2.00158 13.7671 2.06644 14.4044 2.19544 15.03C1.51409 14.8924 1.00062 14.3059 1.00062 13.6055C1.00062 13.0325 1.36104 12.5177 1.87692 12.2836C1.94528 12.7744 1.99686 13.1021 2.00158 13.1214ZM21.8266 15.0254C22.497 14.8797 22.9994 14.2983 22.9994 13.6055C22.9994 13.0291 22.6531 12.5232 22.1425 12.2873C22.0786 12.753 22.0283 13.0861 22.0151 13.1737L22.0151 13.1737L22.0124 13.1921C22.0147 13.7974 21.9524 14.4124 21.8266 15.0254ZM7.50566 13.6066C7.50566 13.3397 7.73134 13.1211 8.0068 13.1211C8.28227 13.1211 8.50794 13.3397 8.50794 13.6066C8.50794 13.8719 8.28227 14.0906 8.0068 14.0906C7.73134 14.0906 7.50566 13.8719 7.50566 13.6066ZM6.50504 13.6066C6.50504 14.4073 7.17876 15.0601 8.0068 15.0601C8.83485 15.0601 9.50857 14.4073 9.50857 13.6066C9.50857 12.8043 8.83485 12.1516 8.0068 12.1516C7.17876 12.1516 6.50504 12.8043 6.50504 13.6066ZM16.0133 13.1211C15.7378 13.1211 15.5121 13.3397 15.5121 13.6066C15.5121 13.8719 15.7378 14.0906 16.0133 14.0906C16.2887 14.0906 16.5144 13.8719 16.5144 13.6066C16.5144 13.3397 16.2887 13.1211 16.0133 13.1211ZM16.0133 15.0601C15.1852 15.0601 14.5115 14.4073 14.5115 13.6066C14.5115 12.8043 15.1852 12.1516 16.0133 12.1516C16.8413 12.1516 17.515 12.8043 17.515 13.6066C17.515 14.4073 16.8413 15.0601 16.0133 15.0601ZM9.17901 17.8264C9.95893 18.5837 10.9844 18.9615 12.01 18.9615C13.0355 18.9615 14.061 18.5837 14.8409 17.8264C15.0351 17.6383 15.0351 17.3312 14.8409 17.1414C14.6451 16.9517 14.3281 16.9517 14.1323 17.1414C12.9625 18.2766 11.0575 18.2766 9.88592 17.1414C9.69177 16.9517 9.37316 16.9517 9.17901 17.1414C8.9832 17.3312 8.9832 17.6383 9.17901 17.8264Z" fill="black"/>
</svg>
