<svg width="24" height="25" viewBox="0 0 24 25" fill="none" xmlns="http://www.w3.org/2000/svg">
<path fill-rule="evenodd" clip-rule="evenodd" d="M4.31977 17.8469C4.33138 17.8599 4.34134 17.8729 4.34798 17.8875C6.00075 20.4967 8.86488 22.0566 12.0095 22.0566C15.1043 22.0566 17.9402 20.5388 19.5946 17.9994C19.6145 17.9702 19.6361 17.941 19.6626 17.9167C19.8419 17.6313 20.0626 17.2356 20.2617 16.8075C20.4885 16.2942 20.665 15.7666 20.7901 15.2291L19.6394 11.2964C12.3994 11.238 9.46725 9.47535 8.30068 8.24292C7.544 10.1418 5.23078 10.9689 4.40606 11.2089L3.2304 15.2276C3.35659 15.7691 3.53391 16.2935 3.76221 16.8042C3.93976 17.1918 4.12396 17.5356 4.31977 17.8469ZM21.5179 8.36373C21.5179 9.54368 21.2333 11.7006 21.093 12.7095L20.4973 10.6737C20.4359 10.4645 20.2401 10.3202 20.0161 10.3202C9.66638 10.3202 8.53632 6.86455 8.52802 6.83861C8.46663 6.59699 8.23431 6.4332 7.98208 6.46888C7.72985 6.49969 7.54068 6.70726 7.54068 6.95536C7.54068 9.42202 4.03738 10.2964 3.89421 10.3321L3.88998 10.3332C3.71408 10.3721 3.57138 10.5035 3.52325 10.6737L2.92769 12.7066C2.79147 11.7493 2.50272 9.5768 2.50272 8.36373C2.50272 4.03078 6.82215 3.9643 7.00635 3.96267C7.1391 3.96267 7.26687 3.91078 7.3598 3.81997C7.37805 3.80213 9.24655 2.00701 12.0095 2.00701C15.9588 2.00701 21.5179 3.98051 21.5179 8.36373ZM12.0095 23.0345C8.52802 23.0345 5.3569 21.3139 3.51827 18.4323C3.5089 18.4219 3.5006 18.4103 3.49339 18.4003L3.4884 18.3934C3.26273 18.035 3.05198 17.6442 2.84621 17.1999C2.69784 16.867 2.56886 16.5295 2.45939 16.1878C1.10014 16.1653 0 15.0779 0 13.7428C0 12.6559 0.72359 11.7234 1.74669 11.4088C1.62353 10.3994 1.50209 9.19015 1.50209 8.36373C1.50209 3.64322 5.79664 3.06592 6.79892 2.99457C7.33491 2.52755 9.27144 1.02917 12.0095 1.02917C16.3737 1.02917 22.5185 3.3043 22.5185 8.36373C22.5185 9.17717 22.3961 10.3893 22.2717 11.4124C23.2835 11.734 24 12.6654 24 13.7428C24 15.0706 22.9118 16.1534 21.5629 16.1874C21.454 16.5294 21.3255 16.8686 21.1777 17.2032C20.9537 17.6832 20.7097 18.1226 20.4475 18.5183C20.4276 18.5475 20.4061 18.575 20.3812 18.5977C18.599 21.348 15.4494 23.0345 12.0095 23.0345ZM2.00158 13.2545C2.00158 13.9058 2.06644 14.5485 2.19544 15.1795C1.51409 15.0407 1.00062 14.4492 1.00062 13.7428C1.00062 13.1648 1.36104 12.6456 1.87692 12.4095C1.94528 12.9046 1.99686 13.2351 2.00158 13.2545ZM21.8266 15.1749C22.497 15.0279 22.9994 14.4416 22.9994 13.7428C22.9994 13.1614 22.6531 12.6512 22.1425 12.4132C22.0785 12.883 22.0283 13.219 22.0151 13.3073L22.0124 13.3259C22.0147 13.9363 21.9524 14.5567 21.8266 15.1749ZM7.50566 13.7439C7.50566 13.4747 7.73134 13.2542 8.0068 13.2542C8.28227 13.2542 8.50794 13.4747 8.50794 13.7439C8.50794 14.0115 8.28227 14.232 8.0068 14.232C7.73134 14.232 7.50566 14.0115 7.50566 13.7439ZM6.50504 13.7439C6.50504 14.5515 7.17876 15.2099 8.0068 15.2099C8.83485 15.2099 9.50857 14.5515 9.50857 13.7439C9.50857 12.9347 8.83485 12.2764 8.0068 12.2764C7.17876 12.2764 6.50504 12.9347 6.50504 13.7439ZM16.0133 13.2542C15.7378 13.2542 15.5121 13.4747 15.5121 13.7439C15.5121 14.0115 15.7378 14.232 16.0133 14.232C16.2887 14.232 16.5144 14.0115 16.5144 13.7439C16.5144 13.4747 16.2887 13.2542 16.0133 13.2542ZM16.0133 15.2099C15.1852 15.2099 14.5115 14.5515 14.5115 13.7439C14.5115 12.9347 15.1852 12.2764 16.0133 12.2764C16.8413 12.2764 17.515 12.9347 17.515 13.7439C17.515 14.5515 16.8413 15.2099 16.0133 15.2099ZM9.17901 17.9999C9.95893 18.7636 10.9844 19.1447 12.01 19.1447C13.0355 19.1447 14.061 18.7636 14.8409 17.9999C15.0351 17.8101 15.0351 17.5004 14.8409 17.309C14.6451 17.1177 14.3281 17.1177 14.1323 17.309C12.9625 18.4539 11.0575 18.4539 9.88592 17.309C9.69177 17.1177 9.37316 17.1177 9.17901 17.309C8.9832 17.5004 8.9832 17.8101 9.17901 17.9999Z" fill="black"/>
</svg>
