<svg width="19" height="13" viewBox="0 0 19 13" fill="none" xmlns="http://www.w3.org/2000/svg">
<path d="M17.7766 6.54554L17.418 6.19715L17.7766 6.54554ZM12.8669 11.5999L12.5185 11.9585L12.8772 12.3069L13.2256 11.9483L12.8669 11.5999ZM18.115 6.19715L18.4737 6.54554L18.8121 6.19715L18.4737 5.84877L18.115 6.19715ZM17.7766 5.84877L17.418 6.19715L17.7766 5.84877ZM12.8669 0.794434L13.2256 0.446048L12.8772 0.0874015L12.5185 0.435786L12.8669 0.794434ZM12.1496 1.4912L11.8012 1.13256L11.4426 1.48094L11.791 1.83959L12.1496 1.4912ZM16.1336 5.5926V6.0926H17.3164L16.4923 5.24421L16.1336 5.5926ZM0.917969 5.5926V5.0926H0.417969V5.5926H0.917969ZM0.917969 6.5926H0.417969V7.0926H0.917969V6.5926ZM16.3368 6.5926L16.6954 6.94098L17.5195 6.0926H16.3368V6.5926ZM12.1496 10.9031L11.791 10.5547L11.4426 10.9134L11.8012 11.2617L12.1496 10.9031ZM17.418 6.19715L12.5083 11.2515L13.2256 11.9483L18.1353 6.89392L17.418 6.19715ZM17.7564 5.84877L17.418 6.19715L18.1353 6.89392L18.4737 6.54554L17.7564 5.84877ZM17.418 6.19715L17.7564 6.54554L18.4737 5.84877L18.1353 5.50038L17.418 6.19715ZM12.5083 1.14282L17.418 6.19715L18.1353 5.50038L13.2256 0.446048L12.5083 1.14282ZM12.498 1.84985L13.2153 1.15308L12.5185 0.435786L11.8012 1.13256L12.498 1.84985ZM16.4923 5.24421L12.5083 1.14282L11.791 1.83959L15.775 5.94098L16.4923 5.24421ZM1.41797 6.0926H16.1336V5.0926H1.41797V6.0926ZM0.917969 6.0926H1.41797V5.0926H0.917969V6.0926ZM1.41797 6.5926V5.5926H0.417969V6.5926H1.41797ZM1.41797 6.0926H0.917969V7.0926H1.41797V6.0926ZM16.3368 6.0926H1.41797V7.0926H16.3368V6.0926ZM12.5083 11.2515L16.6954 6.94098L15.9781 6.24421L11.791 10.5547L12.5083 11.2515ZM13.2153 11.2412L12.498 10.5445L11.8012 11.2617L12.5185 11.9585L13.2153 11.2412Z" fill="black"/>
</svg>
