<svg width="421" height="1034" viewBox="0 0 421 1034" fill="none" xmlns="http://www.w3.org/2000/svg">
<g filter="url(#filter0_d_201_4)">
<path fill-rule="evenodd" clip-rule="evenodd" d="M6 7H421V1034H408.901C407.898 1023.89 399.371 1016 389 1016C378.629 1016 370.102 1023.89 369.099 1034H358.901C357.898 1023.89 349.371 1016 339 1016C328.629 1016 320.102 1023.89 319.099 1034H308.901C307.898 1023.89 299.371 1016 289 1016C278.629 1016 270.102 1023.89 269.099 1034H258.901C257.898 1023.89 249.371 1016 239 1016C228.629 1016 220.102 1023.89 219.099 1034H208.901C207.898 1023.89 199.371 1016 189 1016C178.629 1016 170.102 1023.89 169.099 1034H158.901C157.898 1023.89 149.371 1016 139 1016C128.629 1016 120.102 1023.89 119.099 1034H108.901C107.898 1023.89 99.3707 1016 89 1016C78.6293 1016 70.1022 1023.89 69.0988 1034H58.9012C57.8978 1023.89 49.3707 1016 39 1016C28.6293 1016 20.1022 1023.89 19.0988 1034H6V7Z" fill="#F1F1F1"/>
</g>
<g clip-path="url(#clip0_201_4)">
<g filter="url(#filter1_d_201_4)">
<mask id="path-2-inside-1_201_4" fill="white">
<path fill-rule="evenodd" clip-rule="evenodd" d="M0 0H415V1027H402.901C401.898 1016.89 393.371 1009 383 1009C372.629 1009 364.102 1016.89 363.099 1027H352.901C351.898 1016.89 343.371 1009 333 1009C322.629 1009 314.102 1016.89 313.099 1027H302.901C301.898 1016.89 293.371 1009 283 1009C272.629 1009 264.102 1016.89 263.099 1027H252.901C251.898 1016.89 243.371 1009 233 1009C222.629 1009 214.102 1016.89 213.099 1027H202.901C201.898 1016.89 193.371 1009 183 1009C172.629 1009 164.102 1016.89 163.099 1027H152.901C151.898 1016.89 143.371 1009 133 1009C122.629 1009 114.102 1016.89 113.099 1027H102.901C101.898 1016.89 93.3707 1009 83 1009C72.6293 1009 64.1022 1016.89 63.0988 1027H52.9012C51.8978 1016.89 43.3707 1009 33 1009C22.6293 1009 14.1022 1016.89 13.0988 1027H0V0Z"/>
</mask>
<path fill-rule="evenodd" clip-rule="evenodd" d="M0 0H415V1027H402.901C401.898 1016.89 393.371 1009 383 1009C372.629 1009 364.102 1016.89 363.099 1027H352.901C351.898 1016.89 343.371 1009 333 1009C322.629 1009 314.102 1016.89 313.099 1027H302.901C301.898 1016.89 293.371 1009 283 1009C272.629 1009 264.102 1016.89 263.099 1027H252.901C251.898 1016.89 243.371 1009 233 1009C222.629 1009 214.102 1016.89 213.099 1027H202.901C201.898 1016.89 193.371 1009 183 1009C172.629 1009 164.102 1016.89 163.099 1027H152.901C151.898 1016.89 143.371 1009 133 1009C122.629 1009 114.102 1016.89 113.099 1027H102.901C101.898 1016.89 93.3707 1009 83 1009C72.6293 1009 64.1022 1016.89 63.0988 1027H52.9012C51.8978 1016.89 43.3707 1009 33 1009C22.6293 1009 14.1022 1016.89 13.0988 1027H0V0Z" fill="#FAF8F3"/>
<path d="M415 0H416V-1H415V0ZM0 0V-1H-1V0H0ZM415 1027V1028H416V1027H415ZM402.901 1027L401.906 1027.1L401.996 1028H402.901V1027ZM363.099 1027V1028H364.004L364.094 1027.1L363.099 1027ZM352.901 1027L351.906 1027.1L351.996 1028H352.901V1027ZM313.099 1027V1028H314.004L314.094 1027.1L313.099 1027ZM302.901 1027L301.906 1027.1L301.996 1028H302.901V1027ZM263.099 1027V1028H264.004L264.094 1027.1L263.099 1027ZM252.901 1027L251.906 1027.1L251.996 1028H252.901V1027ZM213.099 1027V1028H214.004L214.094 1027.1L213.099 1027ZM202.901 1027L201.906 1027.1L201.996 1028H202.901V1027ZM163.099 1027V1028H164.004L164.094 1027.1L163.099 1027ZM152.901 1027L151.906 1027.1L151.996 1028H152.901V1027ZM113.099 1027V1028H114.004L114.094 1027.1L113.099 1027ZM102.901 1027L101.906 1027.1L101.996 1028H102.901V1027ZM63.0988 1027V1028H64.0044L64.0939 1027.1L63.0988 1027ZM52.9012 1027L51.9061 1027.1L51.9956 1028H52.9012V1027ZM13.0988 1027V1028H14.0044L14.0939 1027.1L13.0988 1027ZM0 1027H-1V1028H0V1027ZM415 -1H0V1H415V-1ZM416 1027V0H414V1027H416ZM402.901 1028H415V1026H402.901V1028ZM383 1010C392.852 1010 400.953 1017.5 401.906 1027.1L403.896 1026.9C402.843 1016.29 393.89 1008 383 1008V1010ZM364.094 1027.1C365.047 1017.5 373.148 1010 383 1010V1008C372.11 1008 363.157 1016.29 362.104 1026.9L364.094 1027.1ZM352.901 1028H363.099V1026H352.901V1028ZM333 1010C342.852 1010 350.953 1017.5 351.906 1027.1L353.896 1026.9C352.843 1016.29 343.89 1008 333 1008V1010ZM314.094 1027.1C315.047 1017.5 323.148 1010 333 1010V1008C322.11 1008 313.157 1016.29 312.104 1026.9L314.094 1027.1ZM302.901 1028H313.099V1026H302.901V1028ZM283 1010C292.852 1010 300.953 1017.5 301.906 1027.1L303.896 1026.9C302.843 1016.29 293.89 1008 283 1008V1010ZM264.094 1027.1C265.047 1017.5 273.148 1010 283 1010V1008C272.11 1008 263.157 1016.29 262.104 1026.9L264.094 1027.1ZM252.901 1028H263.099V1026H252.901V1028ZM233 1010C242.852 1010 250.953 1017.5 251.906 1027.1L253.896 1026.9C252.843 1016.29 243.89 1008 233 1008V1010ZM214.094 1027.1C215.047 1017.5 223.148 1010 233 1010V1008C222.11 1008 213.157 1016.29 212.104 1026.9L214.094 1027.1ZM202.901 1028H213.099V1026H202.901V1028ZM183 1010C192.852 1010 200.953 1017.5 201.906 1027.1L203.896 1026.9C202.843 1016.29 193.89 1008 183 1008V1010ZM164.094 1027.1C165.047 1017.5 173.148 1010 183 1010V1008C172.11 1008 163.157 1016.29 162.104 1026.9L164.094 1027.1ZM152.901 1028H163.099V1026H152.901V1028ZM133 1010C142.852 1010 150.953 1017.5 151.906 1027.1L153.896 1026.9C152.843 1016.29 143.89 1008 133 1008V1010ZM114.094 1027.1C115.047 1017.5 123.148 1010 133 1010V1008C122.11 1008 113.157 1016.29 112.104 1026.9L114.094 1027.1ZM102.901 1028H113.099V1026H102.901V1028ZM83 1010C92.8516 1010 100.953 1017.5 101.906 1027.1L103.896 1026.9C102.843 1016.29 93.8898 1008 83 1008V1010ZM64.0939 1027.1C65.047 1017.5 73.1484 1010 83 1010V1008C72.1102 1008 63.1574 1016.29 62.1036 1026.9L64.0939 1027.1ZM52.9012 1028H63.0988V1026H52.9012V1028ZM33 1010C42.8516 1010 50.953 1017.5 51.9061 1027.1L53.8964 1026.9C52.8426 1016.29 43.8898 1008 33 1008V1010ZM14.0939 1027.1C15.047 1017.5 23.1484 1010 33 1010V1008C22.1102 1008 13.1574 1016.29 12.1036 1026.9L14.0939 1027.1ZM0 1028H13.0988V1026H0V1028ZM-1 0V1027H1V0H-1Z" fill="#E3E3E3" mask="url(#path-2-inside-1_201_4)"/>
</g>
</g>
<defs>
<filter id="filter0_d_201_4" x="6" y="7" width="415" height="1027" filterUnits="userSpaceOnUse" color-interpolation-filters="sRGB">
<feFlood flood-opacity="0" result="BackgroundImageFix"/>
<feColorMatrix in="SourceAlpha" type="matrix" values="0 0 0 0 0 0 0 0 0 0 0 0 0 0 0 0 0 0 127 0" result="hardAlpha"/>
<feOffset/>
<feComposite in2="hardAlpha" operator="out"/>
<feColorMatrix type="matrix" values="0 0 0 0 0 0 0 0 0 0 0 0 0 0 0 0 0 0 0.25 0"/>
<feBlend mode="normal" in2="BackgroundImageFix" result="effect1_dropShadow_201_4"/>
<feBlend mode="normal" in="SourceGraphic" in2="effect1_dropShadow_201_4" result="shape"/>
</filter>
<filter id="filter1_d_201_4" x="0" y="0" width="415" height="1027" filterUnits="userSpaceOnUse" color-interpolation-filters="sRGB">
<feFlood flood-opacity="0" result="BackgroundImageFix"/>
<feColorMatrix in="SourceAlpha" type="matrix" values="0 0 0 0 0 0 0 0 0 0 0 0 0 0 0 0 0 0 127 0" result="hardAlpha"/>
<feOffset/>
<feComposite in2="hardAlpha" operator="out"/>
<feColorMatrix type="matrix" values="0 0 0 0 0 0 0 0 0 0 0 0 0 0 0 0 0 0 0.25 0"/>
<feBlend mode="normal" in2="BackgroundImageFix" result="effect1_dropShadow_201_4"/>
<feBlend mode="normal" in="SourceGraphic" in2="effect1_dropShadow_201_4" result="shape"/>
</filter>
<clipPath id="clip0_201_4">
<rect width="415" height="1027" fill="white"/>
</clipPath>
</defs>
</svg>
