<?xml version="1.0" encoding="UTF-8"?>
<svg width="21px" height="22px" viewBox="0 0 21 22" version="1.1" xmlns="http://www.w3.org/2000/svg" xmlns:xlink="http://www.w3.org/1999/xlink">
    <title>ic_home copy 2</title>
    <g id="Page-1" stroke="none" stroke-width="1" fill="none" fill-rule="evenodd">
        <g id="iPhone-8-Copy-3" transform="translate(-19.000000, -112.000000)" fill="#2D2866">
            <g id="ic_bag" transform="translate(18.000000, 110.000000)">
                <g id="school-bag" transform="translate(1.000000, 2.000000)">
                    <path d="M18.581355,15.1695684 C22.1674382,7.99439498 21.3850744,2.42864016 18.7103094,0.602135381 C17.1027262,-0.495560499 15.0963202,-0.0712882264 13.4545744,1.70445129 L12.923475,1.70445129 C12.9242502,1.68602619 12.9248593,1.66754609 12.9248593,1.64890099 C12.9248593,0.870536819 12.2896109,0.239518438 11.506029,0.239518438 L9.49386462,0.239518438 C8.71028271,0.239518438 8.07503433,0.870536819 8.07503433,1.64890099 C8.07503433,1.66754609 8.07580949,1.68602619 8.07652929,1.70445129 L7.54542996,1.70445129 C5.90379487,-0.071398227 3.89733352,-0.4957255 2.28969498,0.602080381 C-0.384848573,2.42847516 -1.16737847,7.99367997 2.41792955,15.1680834 L2.29628389,17.5805613 C2.23864477,18.7266025 2.66199605,19.8605985 3.45809134,20.691928 C4.25440811,21.5232574 5.37335997,22 6.52841241,22 L14.5342142,22 L14.5394189,21.99945 C16.8446513,21.9632598 18.7090912,20.0893448 18.7090912,17.7908825 C18.7090912,17.6912219 18.7054923,17.5907914 18.6984604,17.4923409 L18.581355,15.1695684 Z M2.89509948,5.7028627 L2.59400293,11.6766097 C1.72039105,9.24334167 1.52305598,7.36832662 1.54603411,6.09869982 C1.58174711,4.11874422 2.18764993,2.53754075 3.16673973,1.86895717 C3.8771792,1.38379957 4.71491198,1.44044987 5.55696353,2.00304788 C4.06061666,2.59556606 2.98053383,4.01055864 2.89509948,5.7028627 Z M14.4802849,19.5290568 L13.8186255,19.5290568 C13.6167501,18.3137153 12.5545515,17.3866303 11.2739222,17.3866303 L9.72619289,17.3866303 C8.44556359,17.3866303 7.38336494,18.3136603 7.18148961,19.5290568 L6.52841241,19.5290568 C6.05157469,19.5290568 5.58940976,19.3321007 5.26068408,18.9888439 C4.93190304,18.645587 4.75704778,18.1773145 4.78091181,17.704147 L5.37967204,5.82644837 C5.42640346,4.90062841 6.19392836,4.17528452 7.12717264,4.17528452 L13.872278,4.17528452 C14.8054669,4.17528452 15.5731026,4.90051841 15.619834,5.82639336 L16.2147184,17.6298416 L16.2166009,17.6603118 C16.2198677,17.702937 16.2214734,17.7469372 16.2214734,17.7910475 C16.2214734,18.7466226 15.4411029,19.5244917 14.4802849,19.5290568 Z M18.1041297,5.7029177 C18.0189168,4.01072364 16.9389447,2.59584106 15.4429854,2.00321289 C16.285037,1.44044987 17.1228805,1.38368957 17.8333753,1.86895717 C18.8124651,2.53754075 19.4183126,4.11874422 19.454081,6.09869982 C19.4770591,7.36865663 19.2797794,9.24433167 18.4055031,11.6786447 L18.1041297,5.7029177 Z" id="Shape" fill-rule="nonzero"></path>
                    <path d="M12.3510782,6 L8.65076734,6 C7.41089134,6 6.39106023,6.92040063 6.32901814,8.09543178 L6.0008541,14.3202664 C5.99147961,14.4979633 6.05960092,14.6715088 6.18913935,14.8000371 C6.31793919,14.9277567 6.49599773,15 6.68229445,15 C6.68348757,15 6.68479432,15 6.68598743,15 L14.3213124,14.9609671 C14.5075523,14.9599966 14.6852131,14.8868369 14.8132744,14.7585242 C14.9413356,14.6301038 15.0086047,14.4576365 14.9991166,14.2811796 L14.6728842,8.09532396 C14.6107853,6.92040063 13.5908974,6 12.3510782,6 Z M13.0542788,10.1353333 L7.94552146,10.1353333 C7.60928968,10.1353333 7.336634,9.87671323 7.336634,9.55765683 C7.336634,9.23860042 7.60928968,8.97992644 7.94552146,8.97992644 L13.0542788,8.97992644 C13.3905673,8.97992644 13.663223,9.23860042 13.663223,9.55765683 C13.663223,9.87671323 13.3905673,10.1353333 13.0542788,10.1353333 Z" id="Shape" fill-rule="nonzero"></path>
                </g>
            </g>
        </g>
    </g>
</svg>