<?xml version="1.0" encoding="utf-8"?>
<svg viewBox="0 0 180 50" version="1.1" xmlns="http://www.w3.org/2000/svg" xmlns:xlink="http://www.w3.org/1999/xlink">
  <path fill="#F8D03F" d="M135,0 C138.333333,0 141.666667,0 145,0 C148.333333,0 151.666667,0 155,0 L155,-1.0658141e-14 C168.807119,-1.31944676e-14 180,11.1928813 180,25.0000001 L180,25.0000001 C180,38.8071318 168.807108,50.0000236 154.999976,50.0000236 C151.666651,50 148.333326,50 145.000001,50 C141.666675,50 138.33335,50 135.000024,50 L135.000024,50.0000241 C121.192892,50.0000241 110,38.8071321 110,25.0000001 L110,25.0000001 C110,11.1928813 121.192881,2.53632658e-15 135,0 Z"></path>
  <path fill="#F8D03F" d="M55.0000001,10 C58.3333334,10 61.6666667,10 65,10 C68.3333333,10 71.6666666,10 74.9999999,10 L74.9999999,10 C83.2842712,10 90,16.7157288 90,25.0000001 L90,25.0000001 C90,33.2842574 83.2842825,39.9999748 75.0000252,39.9999748 C71.6666836,40 68.333342,40 65.0000004,40 C61.6666587,40 58.3333169,40 54.9999752,40 L54.9999752,39.9999751 C46.7157177,39.9999752 40,33.2842576 40,25.0000001 L40,25.0000001 C40,16.7157288 46.7157288,10 55.0000001,10 Z"></path>
  <path fill="#F8D03F" d="M10,15 C10,15 10,15 10,15 C10,15 10,15 10,15 L10,15 C15.5228475,15 20,19.4771525 20,25 L20,25 C20,30.5228385 15.5228548,34.9999837 10.0000163,34.9999837 C10.0000109,35 10.0000055,35 10.0000002,35 C10.0000002,35 10.0000002,35 10.0000002,35 L10.0000002,35 C4.47716157,35 1.6290645e-05,30.5228547 1.6290645e-05,25.0000161 C1.6290645e-05,25.0000108 1.62906493e-05,25.0000054 1.6290658e-05,25 L0,25 C-6.76353754e-16,19.4771525 4.47715252,15 10,15 Z"></path>
</svg>