<svg width="32" height="22" viewBox="0 0 32 22" fill="none" xmlns="http://www.w3.org/2000/svg">
<path fill-rule="evenodd" clip-rule="evenodd" d="M30.1952 4.79228H2.30089C2.10293 3.57297 2.68637 2.58296 3.74735 2.33266C3.9282 2.29001 4.12098 2.28428 4.30827 2.2842C12.2668 2.2819 20.2255 2.2811 28.184 2.28325C29.5865 2.28365 30.421 3.32083 30.1952 4.79228ZM2.26784 10.2539V9.92108H30.2293V10.2528L30.2294 12.4844V12.4844V12.4844C30.2296 14.3108 30.2298 16.1371 30.2289 17.9635C30.2282 19.2814 29.4546 20.0598 28.1426 20.06C26.0429 20.0602 23.9431 20.0597 21.8434 20.0591C16.0141 20.0575 10.1847 20.056 4.3555 20.0715C3.18799 20.0746 2.2462 19.2481 2.2598 17.9645C2.27914 16.1431 2.27515 14.3214 2.27115 12.4998V12.4997V12.4997V12.4997C2.26951 11.7511 2.26786 11.0025 2.26784 10.2539ZM31.3274 19.0089C31.3806 18.8565 31.4339 18.7042 31.4939 18.5563V3.78638C31.4776 3.72612 31.462 3.6656 31.4465 3.6051C31.413 3.4746 31.3794 3.34414 31.338 3.21623C30.8907 1.83477 29.6845 1.00286 28.124 1.00254C23.6695 1.00172 19.2151 1.00185 14.7607 1.00197L9.90127 1.00206C9.33338 1.00206 8.76549 1.00155 8.1976 1.00103C6.89957 0.999853 5.60154 0.998673 4.30351 1.00365C2.37084 1.01113 1.00274 2.38241 1.00179 4.30768L1.00175 4.3919C0.999614 8.93935 0.997478 13.4868 1.00807 18.0343C1.00895 18.4052 1.05947 18.7916 1.17158 19.144C1.60933 20.5205 2.81822 21.3397 4.36286 21.34C8.33869 21.341 12.3145 21.3408 16.2904 21.3407L20.9777 21.3405L23.0608 21.3403C24.7584 21.34 26.456 21.3397 28.1536 21.3412C29.302 21.3422 30.266 20.9357 30.9038 19.9666C31.0931 19.679 31.2103 19.344 31.3274 19.0089ZM25.1449 16.2473V16.2453C25.0772 16.2453 25.0096 16.2462 24.9419 16.247C24.7911 16.2489 24.6404 16.2507 24.4901 16.2433C24.1356 16.2257 23.8872 15.9925 23.875 15.6429C23.8599 15.2067 23.8603 14.7693 23.8741 14.3331C23.8856 13.9693 24.1362 13.7314 24.5091 13.7217C24.9256 13.7109 25.3428 13.7111 25.7594 13.7212C26.1477 13.7306 26.3913 13.9603 26.4084 14.3523C26.4267 14.7683 26.426 15.1862 26.4092 15.6023C26.393 16.0073 26.1462 16.233 25.7403 16.2463C25.6042 16.2507 25.4679 16.2495 25.3315 16.2484C25.2693 16.2478 25.2071 16.2473 25.1449 16.2473ZM22.6245 14.6704C22.6289 14.7764 22.6333 14.8824 22.6333 14.9876L22.6067 14.9877C22.6067 15.0597 22.606 15.1318 22.6054 15.2038C22.6039 15.36 22.6025 15.5162 22.6078 15.6721C22.64 16.6203 23.3066 17.3955 24.2479 17.4882C24.8458 17.5471 25.4594 17.5452 26.0572 17.4843C26.9613 17.3922 27.645 16.6097 27.6754 15.706C27.6917 15.2204 27.6927 14.7333 27.6746 14.2479C27.6415 13.3568 26.9621 12.5735 26.076 12.4838C25.4588 12.4214 24.8259 12.4254 24.2077 12.4827C23.418 12.5559 22.7702 13.1943 22.6422 13.9788C22.6054 14.2043 22.615 14.4374 22.6245 14.6704ZM9.24831 16.2483L9.96057 16.2483C10.9131 16.2483 11.8657 16.2483 12.8182 16.2485C12.8389 16.2485 12.8597 16.2483 12.8804 16.2481C12.9491 16.2474 13.0179 16.2467 13.0857 16.2536C13.4595 16.2917 13.6989 16.5446 13.6967 16.8933C13.6946 17.2408 13.4527 17.4878 13.076 17.5249C13.0288 17.5294 12.981 17.5291 12.9334 17.5288H12.9333L12.8976 17.5287L12.0282 17.5287C9.88845 17.5289 7.74874 17.5291 5.60909 17.527C5.49149 17.5268 5.3696 17.5164 5.2571 17.4847C4.98825 17.4085 4.81266 17.1594 4.81473 16.8833C4.81679 16.6061 4.99398 16.362 5.26672 16.29C5.38917 16.2577 5.52101 16.2503 5.64863 16.25C6.57549 16.2478 7.50234 16.248 8.4292 16.2482H8.43029L9.24831 16.2483ZM10.3526 13.7175C10.0013 13.7177 9.6499 13.7178 9.29853 13.7178C9.15455 13.7178 9.01056 13.7178 8.86657 13.7177C8.43548 13.7177 8.00438 13.7176 7.57328 13.7177L7.32456 13.7179C6.70349 13.7181 6.08242 13.7184 5.46135 13.7196C5.18638 13.7201 4.98628 13.8454 4.87234 14.0955C4.76239 14.3366 4.78196 14.5945 4.98135 14.7502C5.14541 14.8785 5.38505 14.9718 5.59215 14.9735C7.1058 14.9863 8.61965 14.9851 10.1335 14.9839C10.563 14.9836 10.9926 14.9832 11.4222 14.9832C11.5821 14.9832 11.7421 14.9837 11.9021 14.9842C12.2776 14.9854 12.6531 14.9866 13.0285 14.9812C13.4587 14.975 13.7292 14.6836 13.695 14.2829C13.6652 13.9322 13.4083 13.7204 12.987 13.7193C12.1089 13.7166 11.2308 13.7171 10.3526 13.7175Z" fill="black"/>
<path d="M2.30089 4.79228L2.25153 4.80029L2.25835 4.84228H2.30089V4.79228ZM30.1952 4.79228V4.84228H30.2381L30.2446 4.79986L30.1952 4.79228ZM3.74735 2.33266L3.73587 2.28399L3.73587 2.28399L3.74735 2.33266ZM4.30827 2.2842L4.30826 2.2342L4.30825 2.2342L4.30827 2.2842ZM28.184 2.28325L28.1841 2.23325L28.1841 2.23325L28.184 2.28325ZM2.26784 9.92108V9.87108H2.21784V9.92108H2.26784ZM2.26784 10.2539L2.21784 10.2539L2.21784 10.2539L2.26784 10.2539ZM30.2293 9.92108H30.2793V9.87108H30.2293V9.92108ZM30.2293 10.2528L30.1793 10.2528L30.1793 10.2528L30.2293 10.2528ZM30.2294 12.4844L30.2794 12.4844L30.2794 12.4844L30.2294 12.4844ZM30.2294 12.4844L30.1794 12.4844L30.1794 12.4844L30.2294 12.4844ZM30.2289 17.9635L30.1789 17.9635L30.1789 17.9635L30.2289 17.9635ZM28.1426 20.06L28.1426 20.11L28.1426 20.11L28.1426 20.06ZM21.8434 20.0591L21.8434 20.0091L21.8434 20.0091L21.8434 20.0591ZM4.3555 20.0715L4.35563 20.1215L4.35563 20.1215L4.3555 20.0715ZM2.2598 17.9645L2.20981 17.964L2.20981 17.964L2.2598 17.9645ZM2.27115 12.4998H2.22115L2.22115 12.4999L2.27115 12.4998ZM2.27115 12.4997L2.32115 12.4997L2.32115 12.4996L2.27115 12.4997ZM31.4939 18.5563L31.5402 18.5751L31.5439 18.566V18.5563H31.4939ZM31.3274 19.0089L31.3746 19.0254L31.3746 19.0254L31.3274 19.0089ZM31.4939 3.78638H31.5457L31.5421 3.7733L31.4939 3.78638ZM31.4465 3.6051L31.398 3.61754L31.398 3.61754L31.4465 3.6051ZM31.338 3.21623L31.2905 3.23163L31.2905 3.23164L31.338 3.21623ZM28.124 1.00254L28.124 0.952541L28.124 0.952541L28.124 1.00254ZM14.7607 1.00197L14.7607 1.05197L14.7607 1.05197L14.7607 1.00197ZM9.90127 1.00206L9.90127 1.05206L9.90127 1.05206L9.90127 1.00206ZM8.1976 1.00103L8.19765 0.951032L8.1976 1.00103ZM4.30351 1.00365L4.30332 0.953655L4.30332 0.953655L4.30351 1.00365ZM1.00179 4.30768L0.951789 4.30766L0.951789 4.30766L1.00179 4.30768ZM1.00175 4.3919L1.05175 4.39192L1.05175 4.39192L1.00175 4.3919ZM1.00807 18.0343L0.958074 18.0344L0.958074 18.0344L1.00807 18.0343ZM1.17158 19.144L1.21923 19.1289L1.21922 19.1289L1.17158 19.144ZM4.36286 21.34L4.36285 21.39L4.36285 21.39L4.36286 21.34ZM16.2904 21.3407L16.2904 21.2907L16.2904 21.2907L16.2904 21.3407ZM20.9777 21.3405L20.9777 21.3905L20.9777 21.3905L20.9777 21.3405ZM23.0608 21.3403L23.0609 21.3903L23.0609 21.3903L23.0608 21.3403ZM28.1536 21.3412L28.1536 21.2912L28.1536 21.2912L28.1536 21.3412ZM30.9038 19.9666L30.8621 19.9391L30.8621 19.9391L30.9038 19.9666ZM25.1449 16.2453H25.1949V16.1953H25.1449V16.2453ZM25.1449 16.2473H25.0949V16.2973H25.1449V16.2473ZM24.9419 16.247L24.9412 16.197L24.9412 16.197L24.9419 16.247ZM24.4901 16.2433L24.4876 16.2933L24.4876 16.2933L24.4901 16.2433ZM23.875 15.6429L23.825 15.6446L23.825 15.6446L23.875 15.6429ZM23.8741 14.3331L23.9241 14.3347L23.9241 14.3347L23.8741 14.3331ZM24.5091 13.7217L24.5078 13.6717L24.5078 13.6717L24.5091 13.7217ZM25.7594 13.7212L25.7606 13.6712L25.7606 13.6712L25.7594 13.7212ZM26.4084 14.3523L26.3585 14.3545L26.3585 14.3545L26.4084 14.3523ZM26.4092 15.6023L26.3593 15.6003L26.3593 15.6003L26.4092 15.6023ZM25.7403 16.2463L25.7419 16.2962L25.7419 16.2962L25.7403 16.2463ZM25.3315 16.2484L25.332 16.1984L25.332 16.1984L25.3315 16.2484ZM22.6333 14.9876L22.6334 15.0376L22.6833 15.0375V14.9876H22.6333ZM22.6245 14.6704L22.5746 14.6725L22.5746 14.6725L22.6245 14.6704ZM22.6067 14.9877L22.6065 14.9377L22.5567 14.9379V14.9877H22.6067ZM22.6054 15.2038L22.5554 15.2033L22.5554 15.2033L22.6054 15.2038ZM22.6078 15.6721L22.5578 15.6738L22.5578 15.6738L22.6078 15.6721ZM24.2479 17.4882L24.243 17.538L24.243 17.538L24.2479 17.4882ZM26.0572 17.4843L26.0623 17.5341L26.0623 17.5341L26.0572 17.4843ZM27.6754 15.706L27.7253 15.7077L27.7253 15.7077L27.6754 15.706ZM27.6746 14.2479L27.7246 14.2461L27.7246 14.2461L27.6746 14.2479ZM26.076 12.4838L26.0709 12.5336L26.0709 12.5336L26.076 12.4838ZM24.2077 12.4827L24.2031 12.4329L24.2031 12.4329L24.2077 12.4827ZM22.6422 13.9788L22.6915 13.9868L22.6915 13.9868L22.6422 13.9788ZM9.96057 16.2483L9.96057 16.2983L9.96057 16.2983L9.96057 16.2483ZM9.24831 16.2483L9.24831 16.2983L9.24831 16.2983L9.24831 16.2483ZM12.8182 16.2485L12.8182 16.2985H12.8182V16.2485ZM12.8804 16.2481L12.8799 16.1981L12.8799 16.1981L12.8804 16.2481ZM13.0857 16.2536L13.0908 16.2039L13.0908 16.2039L13.0857 16.2536ZM13.6967 16.8933L13.6467 16.893L13.6467 16.893L13.6967 16.8933ZM13.076 17.5249L13.0809 17.5746L13.0809 17.5746L13.076 17.5249ZM12.9334 17.5288L12.9337 17.4788H12.9334V17.5288ZM12.9333 17.5288L12.9331 17.5788H12.9333V17.5288ZM12.8976 17.5287L12.8979 17.4787L12.8976 17.4787L12.8976 17.5287ZM12.0282 17.5287L12.0282 17.4787L12.0282 17.4787L12.0282 17.5287ZM5.60909 17.527L5.60902 17.577L5.60904 17.577L5.60909 17.527ZM5.2571 17.4847L5.24347 17.5328L5.24352 17.5328L5.2571 17.4847ZM4.81473 16.8833L4.86472 16.8837L4.86472 16.8837L4.81473 16.8833ZM5.26672 16.29L5.27947 16.3384L5.27948 16.3384L5.26672 16.29ZM5.64863 16.25L5.64851 16.2L5.6485 16.2L5.64863 16.25ZM8.4292 16.2482L8.42919 16.2982H8.4292V16.2482ZM8.43029 16.2482L8.4303 16.1982H8.43029V16.2482ZM9.29853 13.7178L9.29853 13.7678L9.29853 13.7678L9.29853 13.7178ZM10.3526 13.7175L10.3526 13.7675L10.3526 13.7675L10.3526 13.7175ZM8.86657 13.7177L8.86656 13.7677L8.86656 13.7677L8.86657 13.7177ZM7.57328 13.7177L7.57326 13.6677L7.57326 13.6677L7.57328 13.7177ZM7.32456 13.7179L7.32458 13.7679L7.32458 13.7679L7.32456 13.7179ZM5.46135 13.7196L5.46126 13.6696L5.46125 13.6696L5.46135 13.7196ZM4.87234 14.0955L4.91784 14.1163L4.91785 14.1162L4.87234 14.0955ZM4.98135 14.7502L5.01214 14.7108L5.01213 14.7108L4.98135 14.7502ZM5.59215 14.9735L5.59258 14.9235L5.59256 14.9235L5.59215 14.9735ZM10.1335 14.9839L10.1335 15.0339L10.1335 15.0339L10.1335 14.9839ZM11.4222 14.9832L11.4222 14.9332L11.4222 14.9332L11.4222 14.9832ZM11.9021 14.9842L11.9022 14.9342L11.9022 14.9342L11.9021 14.9842ZM13.0285 14.9812L13.0292 15.0312L13.0292 15.0312L13.0285 14.9812ZM13.695 14.2829L13.6452 14.2871L13.6452 14.2871L13.695 14.2829ZM12.987 13.7193L12.9869 13.7693L12.9869 13.7693L12.987 13.7193ZM2.30089 4.84228H30.1952V4.74228H2.30089V4.84228ZM3.73587 2.28399C2.64444 2.54148 2.05024 3.56038 2.25153 4.80029L2.35024 4.78427C2.15563 3.58556 2.72831 2.62444 3.75883 2.38132L3.73587 2.28399ZM4.30825 2.2342C4.12064 2.23428 3.92281 2.23991 3.73587 2.28399L3.75883 2.38132C3.93358 2.34011 4.12132 2.33428 4.30829 2.3342L4.30825 2.2342ZM28.1841 2.23325C20.2255 2.2311 12.2668 2.2319 4.30826 2.2342L4.30829 2.3342C12.2668 2.3319 20.2255 2.3311 28.184 2.33325L28.1841 2.23325ZM30.2446 4.79986C30.3591 4.05337 30.2054 3.41124 29.8392 2.95483C29.4726 2.498 28.8981 2.23345 28.1841 2.23325L28.184 2.33325C28.8725 2.33344 29.4164 2.58769 29.7612 3.01741C30.1064 3.44755 30.257 4.05975 30.1457 4.7847L30.2446 4.79986ZM2.21784 9.92108V10.2539H2.31784V9.92108H2.21784ZM30.2293 9.87108H2.26784V9.97108H30.2293V9.87108ZM30.2793 10.2528V9.92108H30.1793V10.2528H30.2793ZM30.2794 12.4844L30.2793 10.2528L30.1793 10.2528L30.1794 12.4844L30.2794 12.4844ZM30.2794 12.4844V12.4844H30.1794V12.4844H30.2794ZM30.2794 12.4844V12.4844H30.1794V12.4844H30.2794ZM30.2789 17.9635C30.2798 16.1372 30.2796 14.3108 30.2794 12.4844L30.1794 12.4844C30.1796 14.3108 30.1798 16.1371 30.1789 17.9635L30.2789 17.9635ZM28.1426 20.11C28.8085 20.1099 29.3439 19.9121 29.713 19.5412C30.0819 19.1702 30.2785 18.6322 30.2789 17.9635L30.1789 17.9635C30.1786 18.6127 29.988 19.1228 29.6421 19.4706C29.2961 19.8184 28.7887 20.0099 28.1426 20.01L28.1426 20.11ZM21.8434 20.1091C23.9431 20.1097 26.0429 20.1102 28.1426 20.11L28.1426 20.01C26.0429 20.0102 23.9432 20.0097 21.8434 20.0091L21.8434 20.1091ZM4.35563 20.1215C10.1848 20.106 16.014 20.1075 21.8434 20.1091L21.8434 20.0091C16.0141 20.0075 10.1847 20.006 4.35537 20.0215L4.35563 20.1215ZM2.20981 17.964C2.19588 19.2774 3.1623 20.1246 4.35563 20.1215L4.35537 20.0215C3.21368 20.0245 2.29651 19.2187 2.3098 17.9651L2.20981 17.964ZM2.22115 12.4999C2.22515 14.3216 2.22914 16.1429 2.20981 17.964L2.3098 17.9651C2.32915 16.1433 2.32515 14.3213 2.32115 12.4997L2.22115 12.4999ZM2.22115 12.4997V12.4998H2.32115V12.4997H2.22115ZM2.22115 12.4997V12.4997H2.32115V12.4997H2.22115ZM2.22115 12.4997V12.4997H2.32115V12.4997H2.22115ZM2.21784 10.2539C2.21786 11.0026 2.21951 11.7512 2.22115 12.4998L2.32115 12.4996C2.31951 11.751 2.31786 11.0024 2.31784 10.2539L2.21784 10.2539ZM31.4476 18.5375C31.387 18.6867 31.3333 18.8402 31.2802 18.9924L31.3746 19.0254C31.4279 18.8728 31.4807 18.7216 31.5402 18.5751L31.4476 18.5375ZM31.4439 3.78638V18.5563H31.5439V3.78638H31.4439ZM31.398 3.61754C31.4136 3.67799 31.4292 3.73882 31.4456 3.79946L31.5421 3.7733C31.5259 3.71341 31.5105 3.65322 31.4949 3.59266L31.398 3.61754ZM31.2905 3.23164C31.3313 3.35783 31.3645 3.48679 31.398 3.61754L31.4949 3.59266C31.4614 3.46242 31.4276 3.33045 31.3856 3.20083L31.2905 3.23164ZM28.124 1.05254C29.665 1.05286 30.8505 1.87277 31.2905 3.23163L31.3856 3.20083C30.931 1.79678 29.7041 0.952863 28.124 0.952541L28.124 1.05254ZM14.7607 1.05197C19.2151 1.05185 23.6695 1.05172 28.124 1.05254L28.124 0.952541C23.6695 0.951724 19.2151 0.951849 14.7607 0.951973L14.7607 1.05197ZM9.90127 1.05206L14.7607 1.05197L14.7607 0.951973L9.90127 0.952064L9.90127 1.05206ZM8.19756 1.05103C8.76544 1.05155 9.33335 1.05206 9.90127 1.05206V0.952064C9.33341 0.952064 8.76554 0.951548 8.19765 0.951032L8.19756 1.05103ZM4.3037 1.05365C5.60159 1.04867 6.89951 1.04985 8.19756 1.05103L8.19765 0.951032C6.89964 0.949853 5.60149 0.948673 4.30332 0.953655L4.3037 1.05365ZM1.05179 4.30771C1.05273 2.41007 2.39845 1.06103 4.3037 1.05365L4.30332 0.953655C2.34322 0.96124 0.952757 2.35475 0.951789 4.30766L1.05179 4.30771ZM1.05175 4.39192L1.05179 4.30771L0.951789 4.30766L0.951749 4.39187L1.05175 4.39192ZM1.05807 18.0342C1.04748 13.4868 1.04961 8.93939 1.05175 4.39192L0.951749 4.39187C0.949614 8.93932 0.947478 13.4868 0.958074 18.0344L1.05807 18.0342ZM1.21922 19.1289C1.10892 18.7821 1.05894 18.4009 1.05807 18.0342L0.958074 18.0344C0.958959 18.4095 1.01002 18.8011 1.12393 19.1592L1.21922 19.1289ZM4.36288 21.29C2.83741 21.2897 1.64963 20.4823 1.21923 19.1289L1.12393 19.1592C1.56904 20.5588 2.79903 21.3896 4.36285 21.39L4.36288 21.29ZM16.2904 21.2907C12.3145 21.2908 8.33869 21.291 4.36288 21.29L4.36285 21.39C8.33868 21.391 12.3145 21.3908 16.2904 21.3907L16.2904 21.2907ZM20.9777 21.2905L16.2904 21.2907L16.2904 21.3907L20.9777 21.3905L20.9777 21.2905ZM23.0608 21.2903L20.9777 21.2905L20.9777 21.3905L23.0609 21.3903L23.0608 21.2903ZM28.1536 21.2912C26.456 21.2897 24.7584 21.29 23.0608 21.2903L23.0609 21.3903C24.7584 21.39 26.456 21.3897 28.1535 21.3912L28.1536 21.2912ZM30.8621 19.9391C30.2353 20.8913 29.2889 21.2922 28.1536 21.2912L28.1535 21.3912C29.3151 21.3922 30.2966 20.9801 30.9456 19.9941L30.8621 19.9391ZM31.2802 18.9924C31.1627 19.3286 31.0474 19.6576 30.8621 19.9391L30.9456 19.9941C31.1389 19.7005 31.2579 19.3593 31.3746 19.0254L31.2802 18.9924ZM25.0949 16.2453V16.2473H25.1949V16.2453H25.0949ZM24.9425 16.297C25.0102 16.2962 25.0776 16.2953 25.1449 16.2953V16.1953C25.0769 16.1953 25.0089 16.1962 24.9412 16.197L24.9425 16.297ZM24.4876 16.2933C24.6397 16.3008 24.792 16.2989 24.9425 16.297L24.9412 16.197C24.7902 16.1989 24.641 16.2007 24.4926 16.1934L24.4876 16.2933ZM23.825 15.6446C23.8315 15.8313 23.9015 15.9897 24.0195 16.1036C24.1372 16.2173 24.3 16.284 24.4876 16.2933L24.4926 16.1934C24.3258 16.1851 24.187 16.1264 24.0889 16.0316C23.991 15.9371 23.9306 15.804 23.925 15.6411L23.825 15.6446ZM23.8241 14.3315C23.8103 14.7687 23.8099 15.2072 23.825 15.6446L23.925 15.6411C23.9099 15.2062 23.9104 14.7698 23.9241 14.3347L23.8241 14.3315ZM24.5078 13.6717C24.3109 13.6769 24.1425 13.7425 24.0215 13.8585C23.9002 13.9747 23.8302 14.1381 23.8241 14.3315L23.9241 14.3347C23.9294 14.1643 23.9905 14.0268 24.0907 13.9307C24.191 13.8345 24.3344 13.7763 24.5104 13.7717L24.5078 13.6717ZM25.7606 13.6712C25.3433 13.6611 24.9252 13.6609 24.5078 13.6717L24.5104 13.7717C24.926 13.7609 25.3424 13.7612 25.7582 13.7712L25.7606 13.6712ZM26.4584 14.3501C26.4494 14.144 26.3804 13.9755 26.2578 13.8573C26.1353 13.7392 25.9644 13.6762 25.7606 13.6712L25.7581 13.7712C25.9427 13.7757 26.0877 13.8322 26.1884 13.9293C26.289 14.0263 26.3504 14.1686 26.3585 14.3545L26.4584 14.3501ZM26.4592 15.6043C26.476 15.1869 26.4767 14.7676 26.4584 14.3501L26.3585 14.3545C26.3766 14.769 26.376 15.1854 26.3593 15.6003L26.4592 15.6043ZM25.7419 16.2962C25.9536 16.2893 26.1297 16.2267 26.2553 16.1074C26.3812 15.9878 26.4507 15.8167 26.4592 15.6043L26.3593 15.6003C26.3516 15.7928 26.2895 15.9371 26.1865 16.0349C26.0831 16.1331 25.9329 16.1899 25.7386 16.1963L25.7419 16.2962ZM25.3311 16.2984C25.4673 16.2995 25.6046 16.3007 25.7419 16.2962L25.7386 16.1963C25.6038 16.2007 25.4685 16.1995 25.332 16.1984L25.3311 16.2984ZM25.1449 16.2973C25.2069 16.2973 25.2689 16.2978 25.3311 16.2984L25.332 16.1984C25.2698 16.1978 25.2074 16.1973 25.1449 16.1973V16.2973ZM22.6833 14.9876C22.6833 14.8812 22.6789 14.7742 22.6745 14.6684L22.5746 14.6725C22.579 14.7786 22.5833 14.8836 22.5833 14.9876H22.6833ZM22.6068 15.0377L22.6334 15.0376L22.6331 14.9376L22.6065 14.9377L22.6068 15.0377ZM22.6554 15.2042C22.656 15.1323 22.6567 15.06 22.6567 14.9877H22.5567C22.5567 15.0595 22.556 15.1313 22.5554 15.2033L22.6554 15.2042ZM22.6578 15.6704C22.6525 15.5157 22.6539 15.3606 22.6554 15.2042L22.5554 15.2033C22.5539 15.3593 22.5525 15.5166 22.5578 15.6738L22.6578 15.6704ZM24.2528 17.4385C23.3387 17.3485 22.6892 16.5959 22.6578 15.6704L22.5578 15.6738C22.5908 16.6447 23.2745 17.4426 24.243 17.538L24.2528 17.4385ZM26.0521 17.4346C25.4576 17.4951 24.8474 17.497 24.2528 17.4385L24.243 17.538C24.8443 17.5972 25.4612 17.5953 26.0623 17.5341L26.0521 17.4346ZM27.6254 15.7043C27.5958 16.5847 26.9297 17.3452 26.0521 17.4346L26.0623 17.5341C26.993 17.4392 27.6941 16.6346 27.7253 15.7077L27.6254 15.7043ZM27.6247 14.2498C27.6427 14.7339 27.6417 15.2198 27.6254 15.7043L27.7253 15.7077C27.7417 15.2211 27.7427 14.7328 27.7246 14.2461L27.6247 14.2498ZM26.0709 12.5336C26.9302 12.6205 27.5923 13.3815 27.6247 14.2498L27.7246 14.2461C27.6906 13.3322 26.9941 12.5265 26.081 12.4341L26.0709 12.5336ZM24.2124 12.5324C24.8277 12.4754 25.4573 12.4715 26.0709 12.5336L26.081 12.4341C25.4603 12.3713 24.8242 12.3753 24.2031 12.4329L24.2124 12.5324ZM22.6915 13.9868C22.8161 13.2234 23.4467 12.6034 24.2124 12.5324L24.2031 12.4329C23.3893 12.5083 22.7243 13.1651 22.5928 13.9707L22.6915 13.9868ZM22.6745 14.6684C22.6649 14.4343 22.6557 14.2064 22.6915 13.9868L22.5928 13.9707C22.5551 14.2021 22.565 14.4404 22.5746 14.6725L22.6745 14.6684ZM9.96057 16.1983L9.24831 16.1983L9.24831 16.2983L9.96057 16.2983L9.96057 16.1983ZM12.8183 16.1985C11.8657 16.1983 10.9131 16.1983 9.96057 16.1983L9.96057 16.2983C10.9131 16.2983 11.8657 16.2983 12.8182 16.2985L12.8183 16.1985ZM12.8799 16.1981C12.8591 16.1983 12.8386 16.1985 12.8182 16.1985V16.2985C12.8392 16.2985 12.8602 16.2983 12.8809 16.2981L12.8799 16.1981ZM13.0908 16.2039C13.0197 16.1966 12.9481 16.1974 12.8799 16.1981L12.8809 16.2981C12.9501 16.2974 13.016 16.2968 13.0807 16.3033L13.0908 16.2039ZM13.7467 16.8936C13.7479 16.7072 13.6843 16.5441 13.5684 16.4225C13.4528 16.3011 13.2878 16.2239 13.0908 16.2039L13.0807 16.3033C13.2575 16.3214 13.3991 16.3897 13.496 16.4914C13.5927 16.593 13.6477 16.7306 13.6467 16.893L13.7467 16.8936ZM13.0809 17.5746C13.279 17.5551 13.4452 17.48 13.5625 17.3605C13.68 17.2408 13.7456 17.0794 13.7467 16.8936L13.6467 16.893C13.6457 17.0547 13.5892 17.1906 13.4911 17.2905C13.3928 17.3906 13.2497 17.4575 13.0711 17.4751L13.0809 17.5746ZM12.933 17.5788C12.9802 17.5791 13.0306 17.5795 13.0809 17.5746L13.0712 17.4751C13.027 17.4794 12.9818 17.4791 12.9337 17.4788L12.933 17.5788ZM12.9333 17.5788H12.9334V17.4788H12.9333V17.5788ZM12.8974 17.5787L12.9331 17.5788L12.9335 17.4788L12.8979 17.4787L12.8974 17.5787ZM12.0282 17.5787L12.8977 17.5787L12.8976 17.4787L12.0282 17.4787L12.0282 17.5787ZM5.60904 17.577C7.74872 17.5791 9.88846 17.5789 12.0282 17.5787L12.0282 17.4787C9.88844 17.4789 7.74875 17.4791 5.60914 17.477L5.60904 17.577ZM5.24352 17.5328C5.36201 17.5662 5.48888 17.5768 5.60902 17.577L5.60915 17.477C5.49411 17.4769 5.37719 17.4666 5.27068 17.4366L5.24352 17.5328ZM4.76473 16.883C4.7625 17.1803 4.95175 17.4502 5.24347 17.5328L5.27072 17.4366C5.02475 17.3669 4.86281 17.1386 4.86472 16.8837L4.76473 16.883ZM5.25397 16.2417C4.95814 16.3197 4.76695 16.5845 4.76473 16.883L4.86472 16.8837C4.86663 16.6277 5.02983 16.4042 5.27947 16.3384L5.25397 16.2417ZM5.6485 16.2C5.51957 16.2003 5.38265 16.2077 5.25397 16.2417L5.27948 16.3384C5.39569 16.3077 5.52245 16.3003 5.64875 16.3L5.6485 16.2ZM8.42921 16.1982C7.50236 16.198 6.57544 16.1978 5.64851 16.2L5.64875 16.3C6.57553 16.2978 7.50232 16.298 8.42919 16.2982L8.42921 16.1982ZM8.43029 16.1982H8.4292V16.2982H8.43029V16.1982ZM9.24832 16.1983L8.4303 16.1982L8.43029 16.2982L9.24831 16.2983L9.24832 16.1983ZM9.29853 13.7678C9.64991 13.7678 10.0013 13.7677 10.3526 13.7675L10.3526 13.6675C10.0012 13.6677 9.64988 13.6678 9.29854 13.6678L9.29853 13.7678ZM8.86656 13.7677C9.01055 13.7678 9.15454 13.7678 9.29853 13.7678L9.29854 13.6678C9.15456 13.6678 9.01057 13.6678 8.86658 13.6677L8.86656 13.7677ZM7.5733 13.7677C8.00438 13.7676 8.43546 13.7677 8.86656 13.7677L8.86658 13.6677C8.43549 13.6677 8.00438 13.6676 7.57326 13.6677L7.5733 13.7677ZM7.32458 13.7679L7.5733 13.7677L7.57326 13.6677L7.32453 13.6679L7.32458 13.7679ZM5.46145 13.7696C6.08247 13.7684 6.7035 13.7681 7.32458 13.7679L7.32453 13.6679C6.70347 13.6681 6.08237 13.6684 5.46126 13.6696L5.46145 13.7696ZM4.91785 14.1162C4.97145 13.9986 5.04404 13.9128 5.13327 13.8562C5.22255 13.7994 5.33167 13.7698 5.46145 13.7696L5.46125 13.6696C5.31606 13.6699 5.18764 13.7032 5.07965 13.7717C4.9716 13.8404 4.88718 13.9423 4.82684 14.0748L4.91785 14.1162ZM5.01213 14.7108C4.83721 14.5742 4.81374 14.3445 4.91784 14.1163L4.82685 14.0748C4.71103 14.3287 4.72671 14.6147 4.95056 14.7896L5.01213 14.7108ZM5.59256 14.9235C5.39788 14.9219 5.16869 14.8332 5.01214 14.7108L4.95055 14.7896C5.12212 14.9238 5.37222 15.0217 5.59175 15.0235L5.59256 14.9235ZM10.1334 14.9339C8.61957 14.9351 7.10596 14.9363 5.59258 14.9235L5.59173 15.0235C7.10565 15.0363 8.61972 15.0351 10.1335 15.0339L10.1334 14.9339ZM11.4222 14.9332C10.9926 14.9332 10.563 14.9336 10.1334 14.9339L10.1335 15.0339C10.5631 15.0336 10.9926 15.0332 11.4222 15.0332L11.4222 14.9332ZM11.9022 14.9342C11.7423 14.9337 11.5822 14.9332 11.4222 14.9332V15.0332C11.582 15.0332 11.7419 15.0337 11.9019 15.0342L11.9022 14.9342ZM13.0277 14.9312C12.6529 14.9366 12.2778 14.9354 11.9022 14.9342L11.9019 15.0342C12.2774 15.0354 12.6533 15.0366 13.0292 15.0312L13.0277 14.9312ZM13.6452 14.2871C13.6612 14.4749 13.6058 14.6334 13.4996 14.7456C13.3931 14.858 13.2316 14.9283 13.0277 14.9312L13.0292 15.0312C13.2555 15.0279 13.4444 14.9494 13.5722 14.8144C13.7002 14.6792 13.763 14.4916 13.7449 14.2786L13.6452 14.2871ZM12.9869 13.7693C13.1895 13.7698 13.347 13.821 13.4565 13.909C13.5652 13.9964 13.6313 14.1238 13.6452 14.2871L13.7449 14.2786C13.7289 14.0914 13.6517 13.9375 13.5191 13.8311C13.3874 13.7252 13.2058 13.6699 12.9872 13.6693L12.9869 13.7693ZM10.3526 13.7675C11.2308 13.7671 12.1088 13.7666 12.9869 13.7693L12.9872 13.6693C12.1089 13.6666 11.2307 13.6671 10.3526 13.6675L10.3526 13.7675Z" fill="white"/>
</svg>
