<svg width="20" height="18" viewBox="0 0 20 18" fill="none" xmlns="http://www.w3.org/2000/svg">
<path fill-rule="evenodd" clip-rule="evenodd" d="M14.5452 15.644H14.5491C14.7814 15.644 14.9999 15.7342 15.1646 15.8988C15.3292 16.0644 15.4184 16.284 15.4174 16.5182C15.4135 16.9915 15.0264 17.3796 14.555 17.3826H14.5501C14.3208 17.3826 14.1051 17.2934 13.9415 17.1307C13.7749 16.9641 13.6837 16.7426 13.6847 16.5054C13.6877 16.0321 14.0738 15.645 14.5452 15.644M14.5501 18H14.5511C14.948 18 15.3233 17.8412 15.6085 17.5531C15.8908 17.2679 16.0436 16.8945 16.0387 16.5035C16.0299 15.6734 15.3743 15.0276 14.5442 15.0276H14.5324C13.72 15.0334 13.0614 15.7028 13.0663 16.5201C13.0712 17.3365 13.7376 18 14.5501 18" fill="white"/>
<path fill-rule="evenodd" clip-rule="evenodd" d="M8.02102 15.644C8.49241 15.646 8.8805 16.0321 8.8854 16.5045C8.88736 16.7338 8.79328 16.9592 8.62766 17.1258C8.46203 17.2914 8.24544 17.3826 8.0171 17.3826H8.01122C7.77895 17.3806 7.56236 17.2885 7.39968 17.1229C7.23601 16.9553 7.14781 16.7328 7.15075 16.4966C7.15663 16.0242 7.5408 15.6479 8.02102 15.644M8.01122 18H8.01612C8.41107 18 8.78446 17.8442 9.06867 17.559C9.35288 17.2748 9.5087 16.9014 9.50576 16.5084C9.50184 15.693 8.83542 15.0295 8.022 15.0276H8.01808C7.6192 15.0276 7.24483 15.1814 6.9665 15.4607C6.68621 15.741 6.53235 16.1154 6.53333 16.5152C6.53431 17.3316 7.19779 17.998 8.01122 18" fill="white"/>
<path fill-rule="evenodd" clip-rule="evenodd" d="M17.2642 10.462L5.24611 10.4659C5.0158 10.4659 4.9031 10.3748 4.85605 10.1513C4.55715 8.70382 4.2553 7.25729 3.95247 5.81076L3.58593 4.05847C3.57809 4.02319 3.57613 3.98889 3.57319 3.9487L3.55751 3.73996H18.6686L17.2642 10.462ZM19.0459 5.19726C19.1018 4.93168 19.1635 4.66707 19.2263 4.40246L19.3096 4.04279L19.3066 3.7233C19.1851 3.37539 19.0087 3.18722 18.7362 3.1147C18.5902 3.0755 18.4265 3.0706 18.3011 3.0706C13.4401 3.06864 8.58409 3.06668 3.72706 3.07354C3.47323 3.07354 3.34681 2.96867 3.30369 2.72073C3.27232 2.54334 3.2341 2.36693 3.1949 2.19053C3.15472 2.00432 3.11454 1.8191 3.08122 1.63093C3.01752 1.26244 2.82249 1.02331 2.46576 0.879247C2.25897 0.794964 2.05415 0.708721 1.84932 0.621498L0.62428 0.0932616V0.0942416C0.277349 -0.0527631 0.190126 -0.0429628 0 0.232426V0.416672C0.062722 0.536236 0.166605 0.618558 0.338111 0.689121C0.63016 0.809664 0.920249 0.934128 1.21132 1.05859C1.51709 1.18992 1.82188 1.32026 2.12961 1.44766C2.30699 1.52117 2.40402 1.63583 2.44126 1.81812C3.05966 4.79349 3.68198 7.76887 4.30234 10.7442L4.69827 12.6367C4.81881 13.212 5.08538 13.4266 5.68516 13.4266H16.881C16.9575 13.4266 17.0329 13.4246 17.1074 13.4138C17.2682 13.3893 17.3867 13.258 17.3887 13.1012C17.3916 12.9493 17.2848 12.816 17.1329 12.7856C17.0447 12.767 16.9457 12.766 16.8585 12.766L5.40487 12.7651L5.06382 11.1186H17.0055C17.5631 11.1186 17.8571 10.8981 17.961 10.4032L19.0459 5.19726Z" fill="white"/>
</svg>
