<svg width="21" height="20" viewBox="0 0 21 20" fill="none" xmlns="http://www.w3.org/2000/svg">
<path fill-rule="evenodd" clip-rule="evenodd" d="M18.335 1.5625H16.5247V0.625C16.5247 0.279844 16.2428 0 15.895 0C15.5472 0 15.2653 0.279844 15.2653 0.625V1.5625H6.44966V0.625C6.44966 0.279844 6.16776 0 5.81997 0C5.47219 0 5.19028 0.279844 5.19028 0.625V1.5625H3.37993C1.94767 1.5625 0.782471 2.71902 0.782471 4.14062V17.4219C0.782471 18.8435 1.94767 20 3.37993 20H18.335C19.7673 20 20.9325 18.8435 20.9325 17.4219V4.14062C20.9325 2.71902 19.7673 1.5625 18.335 1.5625ZM3.37993 2.8125H5.19028V3.4375C5.19028 3.78266 5.47219 4.0625 5.81997 4.0625C6.16776 4.0625 6.44966 3.78266 6.44966 3.4375V2.8125H15.2653V3.4375C15.2653 3.78266 15.5472 4.0625 15.895 4.0625C16.2428 4.0625 16.5247 3.78266 16.5247 3.4375V2.8125H18.335C19.0728 2.8125 19.6731 3.40828 19.6731 4.14062V5.625H2.04185V4.14062C2.04185 3.40828 2.6421 2.8125 3.37993 2.8125ZM3.37993 18.75H18.335C19.0728 18.75 19.6731 18.1542 19.6731 17.4219V6.875H2.04185V17.4219C2.04185 18.1542 2.6421 18.75 3.37993 18.75Z" fill="black"/>
</svg>
