<svg width="20" height="20" viewBox="0 0 20 20" fill="none" xmlns="http://www.w3.org/2000/svg">
<circle cx="10" cy="10" r="10" fill="#1E3A3A"/>
<path fill-rule="evenodd" clip-rule="evenodd" d="M4.82715 10.441C5.11615 10.1524 5.40545 9.86418 5.69364 9.5748C5.72449 9.54384 5.74884 9.50641 5.77706 9.47091C6.65078 10.3451 7.50977 11.2046 8.37429 12.0696C10.3269 10.1111 12.2677 8.16434 14.219 6.20703C14.5483 6.55166 14.8627 6.88069 15.172 7.20442C12.9253 9.45639 10.6587 11.7283 8.38515 14.0072C8.3543 13.9779 8.32554 13.9517 8.29807 13.9242C7.16882 12.7935 6.03971 11.6626 4.91024 10.5321C4.88459 10.5065 4.85494 10.4848 4.82715 10.4613C4.82715 10.4545 4.82715 10.4478 4.82715 10.441Z" fill="white"/>
</svg>
