<svg width="21" height="22" viewBox="0 0 21 22" fill="none" xmlns="http://www.w3.org/2000/svg">
<path fill-rule="evenodd" clip-rule="evenodd" d="M12.2551 1.9334V8.74995C12.2267 8.73266 12.2004 8.71707 12.1758 8.70243L12.1758 8.70241C12.1266 8.6732 12.0839 8.64779 12.0426 8.62037C11.918 8.53766 11.7932 8.45516 11.6685 8.37265L11.6684 8.37263L11.6684 8.37262C11.3083 8.13446 10.9482 7.89628 10.5914 7.65321C10.1923 7.38122 9.80583 7.38179 9.40677 7.65587C9.0521 7.89943 8.69297 8.1365 8.33386 8.37354L8.33384 8.37356L8.33382 8.37357L8.33327 8.37393L8.33313 8.37403C8.20138 8.461 8.06963 8.54796 7.93811 8.63525C7.90033 8.66036 7.86096 8.68312 7.81596 8.70915L7.81593 8.70916L7.81591 8.70917L7.81587 8.70919C7.79313 8.72235 7.76894 8.73633 7.74278 8.75188V1.9334H12.2551ZM6.57097 1.9146H6.81587V2.19374L6.81574 3.47773V3.47774V3.47774C6.81549 5.18983 6.81523 6.90188 6.81905 8.6139C6.81939 8.78095 6.8354 8.95879 6.89377 9.1129C7.09467 9.64307 7.72506 9.84408 8.22065 9.53127C8.77206 9.18325 9.31172 8.81633 9.85075 8.44923C9.96227 8.37331 10.0393 8.37201 10.1502 8.4477C10.4093 8.62446 10.6706 8.79791 10.9319 8.97136C11.1845 9.13901 11.4371 9.30666 11.6876 9.47732C12.0077 9.69525 12.3417 9.75272 12.6901 9.57442C13.0506 9.38988 13.1846 9.06861 13.1844 8.67732C13.1837 7.00331 13.1838 5.32934 13.1839 3.65534V3.65533V3.65533L13.184 2.19334V1.9146H13.4293L14.771 1.91451H14.7713C15.8644 1.91441 16.9574 1.9143 18.0504 1.91483C18.737 1.91517 19.0831 2.26069 19.0832 2.94701C19.0837 8.30421 19.0837 13.6615 19.0832 19.0188C19.0831 19.7036 18.7357 20.05 18.049 20.0501C12.6825 20.0505 7.316 20.0505 1.94943 20.05C1.26232 20.0499 0.916629 19.7043 0.916572 19.0178C0.916232 13.6605 0.916232 8.3033 0.916572 2.94604C0.916629 2.25949 1.26198 1.91517 1.94978 1.91483C3.04288 1.9143 4.13595 1.91441 5.22902 1.91451H5.22932L6.57097 1.9146ZM0.000405284 8.71767L0.000566979 10.9835L0.000283488 13.3074C-6.61483e-05 15.2182 -0.000415783 17.1289 0.00136193 19.0397C0.002384 20.1878 0.776832 20.9632 1.92559 20.9636C7.30573 20.9655 12.6859 20.9654 18.066 20.9638C19.2181 20.9634 19.9976 20.1926 19.9982 19.0477C20.0006 13.6699 20.0007 8.29194 19.9981 2.91408C19.9976 1.77787 19.2203 1.00189 18.0847 1.00143C12.6975 0.999163 7.31021 0.999107 1.92303 1.00484C1.69284 1.00507 1.45265 1.03919 1.23438 1.11034C0.45857 1.36308 0.00170262 2.04719 0.0011348 2.92725C-7.93838e-06 4.85741 0.000198673 6.78755 0.000405284 8.71767ZM16.3382 17.3207H14.5629V15.5337H16.3382V17.3207ZM13.6306 16.1464C13.631 16.2342 13.6314 16.3219 13.6314 16.4097C13.6314 16.4986 13.631 16.5876 13.6307 16.6765L13.6307 16.6772C13.6299 16.8783 13.6291 17.0793 13.6322 17.2803C13.6408 17.8497 14.0102 18.2319 14.5753 18.2407C15.1637 18.2499 15.7524 18.2511 16.3408 18.2402C16.8871 18.23 17.2605 17.8563 17.2703 17.3109C17.2808 16.7236 17.2798 16.1358 17.2707 15.5485C17.262 14.9925 16.8851 14.6175 16.3288 14.6095C15.7476 14.6013 15.1659 14.6022 14.5846 14.6092C14.0179 14.6161 13.6428 14.9944 13.6324 15.5604C13.6288 15.7556 13.6297 15.951 13.6306 16.1464V16.1464V16.1464ZM4.7852 15.9685L4.78361 15.9685C4.26183 15.9694 3.74005 15.9702 3.21831 15.9659C2.84996 15.9628 2.62863 15.6412 2.77393 15.3309C2.86967 15.1266 3.0462 15.0624 3.26384 15.0631C3.97286 15.0656 4.68191 15.0652 5.39097 15.0648L6.16035 15.0646L6.59884 15.0643C6.9496 15.064 7.30038 15.0637 7.65115 15.0651C7.98026 15.0664 8.17667 15.2386 8.17605 15.5192C8.17531 15.8007 7.98463 15.9663 7.6482 15.9673C7.10989 15.969 6.57157 15.9686 6.03328 15.9682L5.45455 15.9679C5.23143 15.9679 5.00832 15.9682 4.7852 15.9685ZM4.14161 18.2438C4.27258 18.2433 4.40355 18.2428 4.5345 18.2428V18.2417C4.6691 18.2417 4.8037 18.2424 4.93829 18.243C5.25735 18.2446 5.5764 18.2462 5.89528 18.2389C6.17317 18.2324 6.36254 18.0364 6.36424 17.7881C6.36589 17.5398 6.17647 17.336 5.89994 17.3334C4.99989 17.3251 4.09973 17.3276 3.19962 17.3322C2.99089 17.3332 2.83167 17.4334 2.75922 17.6382C2.64912 17.9495 2.87085 18.2345 3.23755 18.241C3.53884 18.2463 3.84024 18.2451 4.14161 18.2438Z" fill="black"/>
<path d="M12.2551 8.74995L12.2162 8.81406L12.3301 8.88323V8.74995H12.2551ZM12.2551 1.9334H12.3301V1.8584H12.2551V1.9334ZM12.1758 8.70243L12.2141 8.63796L12.214 8.63786L12.1758 8.70243ZM12.1758 8.70241L12.1374 8.76687L12.1376 8.76698L12.1758 8.70241ZM12.0426 8.62037L12.0011 8.68286L12.0011 8.68287L12.0426 8.62037ZM11.6685 8.37265L11.7098 8.31008L11.709 8.30956L11.6685 8.37265ZM11.6684 8.37262L11.627 8.43518L11.6279 8.43571L11.6684 8.37262ZM10.5914 7.65321L10.5492 7.71518L10.5492 7.71519L10.5914 7.65321ZM9.40677 7.65587L9.44923 7.7177L9.44923 7.7177L9.40677 7.65587ZM8.33386 8.37354L8.37442 8.43664L8.37518 8.43614L8.33386 8.37354ZM8.33382 8.37357L8.29326 8.31048L8.29252 8.31097L8.33382 8.37357ZM8.33327 8.37393L8.37445 8.43662L8.37457 8.43654L8.33327 8.37393ZM8.33313 8.37403L8.29195 8.31134L8.29181 8.31143L8.33313 8.37403ZM7.93811 8.63525L7.89663 8.57276L7.89659 8.57279L7.93811 8.63525ZM7.81596 8.70915L7.85238 8.77472L7.8535 8.77407L7.81596 8.70915ZM7.81593 8.70916L7.7795 8.64358L7.77814 8.64438L7.81593 8.70916ZM7.81591 8.70917L7.77812 8.64439L7.77798 8.64447L7.81591 8.70917ZM7.81587 8.70919L7.85341 8.77412L7.8538 8.7739L7.81587 8.70919ZM7.74278 8.75188H7.66778V8.8837L7.78109 8.81635L7.74278 8.75188ZM7.74278 1.9334V1.8584H7.66778V1.9334H7.74278ZM6.81587 1.9146H6.89087V1.8396H6.81587V1.9146ZM6.57097 1.9146L6.57096 1.9896H6.57097V1.9146ZM6.81587 2.19374L6.89087 2.19375V2.19374H6.81587ZM6.81574 3.47773L6.74074 3.47772V3.47773H6.81574ZM6.81574 3.47774L6.89074 3.47775V3.47774H6.81574ZM6.81905 8.6139L6.89405 8.61375V8.61373L6.81905 8.6139ZM6.89377 9.1129L6.82364 9.13946L6.82364 9.13947L6.89377 9.1129ZM8.22065 9.53127L8.18062 9.46784L8.18062 9.46784L8.22065 9.53127ZM9.85075 8.44923L9.80854 8.38723L9.80853 8.38724L9.85075 8.44923ZM10.1502 8.4477L10.1925 8.38575L10.1925 8.38574L10.1502 8.4477ZM10.9319 8.97136L10.8904 9.03385L10.9319 8.97136ZM11.6876 9.47732L11.6454 9.53931L11.6454 9.53932L11.6876 9.47732ZM12.6901 9.57442L12.7243 9.64119L12.7243 9.64118L12.6901 9.57442ZM13.1844 8.67732L13.1094 8.67736V8.67737L13.1844 8.67732ZM13.1839 3.65534L13.2589 3.65535V3.65534H13.1839ZM13.1839 3.65533L13.1089 3.65532V3.65533H13.1839ZM13.184 2.19334L13.259 2.19335V2.19334H13.184ZM13.184 1.9146V1.8396H13.109V1.9146H13.184ZM13.4293 1.9146V1.9896H13.4293L13.4293 1.9146ZM14.771 1.91451V1.83951H14.771L14.771 1.91451ZM14.7713 1.91451V1.98951H14.7713L14.7713 1.91451ZM18.0504 1.91483L18.0505 1.83983H18.0505L18.0504 1.91483ZM19.0832 2.94701L19.0082 2.94702V2.94702L19.0832 2.94701ZM19.0832 19.0188L19.0082 19.0188L19.0832 19.0188ZM18.049 20.0501L18.049 20.1251H18.049L18.049 20.0501ZM1.94943 20.05L1.94944 19.975H1.94944L1.94943 20.05ZM0.916572 19.0178L0.841572 19.0178L0.916572 19.0178ZM0.916572 2.94604L0.841572 2.94604V2.94604L0.916572 2.94604ZM1.94978 1.91483L1.94974 1.83983H1.94974L1.94978 1.91483ZM5.22902 1.91451L5.22901 1.98951H5.22902V1.91451ZM5.22932 1.91451L5.22933 1.83951H5.22932V1.91451ZM0.000566979 10.9835L0.075567 10.9835V10.9835L0.000566979 10.9835ZM0.000405284 8.71767L0.0754053 8.71767V8.71766L0.000405284 8.71767ZM0.000283488 13.3074L0.0752835 13.3074V13.3074L0.000283488 13.3074ZM0.00136193 19.0397L0.0763619 19.0397L0.0763619 19.0397L0.00136193 19.0397ZM1.92559 20.9636L1.92561 20.8886H1.92561L1.92559 20.9636ZM18.066 20.9638L18.066 21.0388L18.066 20.9638ZM19.9982 19.0477L20.0732 19.0477V19.0477L19.9982 19.0477ZM19.9981 2.91408L19.9231 2.91411V2.91411L19.9981 2.91408ZM18.0847 1.00143L18.0847 1.07643H18.0847L18.0847 1.00143ZM1.92303 1.00484L1.92311 1.07984L1.92311 1.07984L1.92303 1.00484ZM1.23438 1.11034L1.25761 1.18165L1.25762 1.18165L1.23438 1.11034ZM0.0011348 2.92725L-0.0738652 2.9272V2.9272L0.0011348 2.92725ZM14.5629 17.3207H14.4879V17.3957H14.5629V17.3207ZM16.3382 17.3207V17.3957H16.4132V17.3207H16.3382ZM14.5629 15.5337V15.4587H14.4879V15.5337H14.5629ZM16.3382 15.5337H16.4132V15.4587H16.3382V15.5337ZM13.6314 16.4097L13.7064 16.4097V16.4097H13.6314ZM13.6306 16.1464H13.5556L13.5556 16.1468L13.6306 16.1464ZM13.6307 16.6765L13.5557 16.6762V16.6762L13.6307 16.6765ZM13.6307 16.6772L13.7057 16.6775L13.7057 16.6775L13.6307 16.6772ZM13.6322 17.2803L13.7071 17.2791L13.6322 17.2803ZM14.5753 18.2407L14.5741 18.3157H14.5741L14.5753 18.2407ZM16.3408 18.2402L16.3422 18.3152H16.3422L16.3408 18.2402ZM17.2703 17.3109L17.3453 17.3122V17.3122L17.2703 17.3109ZM17.2707 15.5485L17.3457 15.5474V15.5474L17.2707 15.5485ZM16.3288 14.6095L16.3299 14.5346H16.3299L16.3288 14.6095ZM14.5846 14.6092L14.5837 14.5342L14.5846 14.6092ZM13.6324 15.5604L13.7074 15.5617V15.5617L13.6324 15.5604ZM13.6306 16.1464H13.7056L13.7056 16.146L13.6306 16.1464ZM4.78361 15.9685L4.78373 16.0435H4.78375L4.78361 15.9685ZM4.7852 15.9685L4.78509 15.8935H4.78507L4.7852 15.9685ZM3.21831 15.9659L3.21768 16.0409L3.21769 16.0409L3.21831 15.9659ZM2.77393 15.3309L2.70602 15.2991L2.70601 15.2991L2.77393 15.3309ZM3.26384 15.0631L3.26411 14.9881H3.26408L3.26384 15.0631ZM5.39097 15.0648L5.39094 14.9898H5.39093L5.39097 15.0648ZM6.16035 15.0646L6.16037 15.1396H6.16039L6.16035 15.0646ZM6.59884 15.0643L6.59888 15.1393H6.5989L6.59884 15.0643ZM7.65115 15.0651L7.65085 15.1401H7.65087L7.65115 15.0651ZM8.17605 15.5192L8.25105 15.5194V15.5193L8.17605 15.5192ZM7.6482 15.9673L7.64797 15.8923H7.64797L7.6482 15.9673ZM6.03328 15.9682L6.03334 15.8932H6.03333L6.03328 15.9682ZM5.45455 15.9679L5.45459 15.8929H5.45456L5.45455 15.9679ZM4.5345 18.2428V18.3178H4.6095V18.2428H4.5345ZM4.14161 18.2438L4.14131 18.1688H4.1413L4.14161 18.2438ZM4.5345 18.2417V18.1667H4.4595V18.2417H4.5345ZM4.93829 18.243L4.93792 18.318H4.93792L4.93829 18.243ZM5.89528 18.2389L5.89702 18.3138H5.89703L5.89528 18.2389ZM6.36424 17.7881L6.43924 17.7886L6.43924 17.7886L6.36424 17.7881ZM5.89994 17.3334L5.89924 17.4084H5.89925L5.89994 17.3334ZM3.19962 17.3322L3.19999 17.4072H3.2L3.19962 17.3322ZM2.75922 17.6382L2.68851 17.6131L2.68851 17.6132L2.75922 17.6382ZM3.23755 18.241L3.23621 18.316L3.23623 18.316L3.23755 18.241ZM12.3301 8.74995V1.9334H12.1801V8.74995H12.3301ZM12.1375 8.76689C12.1621 8.78155 12.1881 8.79698 12.2162 8.81406L12.294 8.68584C12.2652 8.66835 12.2387 8.65259 12.2141 8.63796L12.1375 8.76689ZM12.1376 8.76698L12.1377 8.767L12.214 8.63786L12.2139 8.63784L12.1376 8.76698ZM12.0011 8.68287C12.0443 8.7115 12.0886 8.73785 12.1374 8.76687L12.2141 8.63795C12.1647 8.60854 12.1236 8.58409 12.084 8.55787L12.0011 8.68287ZM11.6271 8.4352C11.7519 8.51772 11.8766 8.60019 12.0011 8.68286L12.0841 8.55788C11.9594 8.47514 11.8346 8.39259 11.7098 8.31009L11.6271 8.4352ZM11.6279 8.43572L11.6279 8.43573L11.709 8.30956L11.709 8.30955L11.6279 8.43572ZM11.6279 8.43571L11.6279 8.43572L11.709 8.30955L11.709 8.30953L11.6279 8.43571ZM10.5492 7.71519C10.9064 7.9586 11.267 8.19706 11.6271 8.43518L11.7098 8.31006C11.3496 8.07186 10.9899 7.83396 10.6336 7.59122L10.5492 7.71519ZM9.44923 7.7177C9.63934 7.58713 9.82125 7.52513 9.99925 7.52476C10.1772 7.5244 10.3591 7.58564 10.5492 7.71518L10.6337 7.59123C10.4247 7.44878 10.2137 7.37432 9.99894 7.37476C9.78414 7.37521 9.57327 7.45053 9.36431 7.59405L9.44923 7.7177ZM8.37518 8.43614C8.73419 8.19915 9.0939 7.96171 9.44923 7.7177L9.36431 7.59405C9.01031 7.83715 8.65175 8.07384 8.29254 8.31095L8.37518 8.43614ZM8.3744 8.43665L8.37442 8.43663L8.2933 8.31046L8.29328 8.31047L8.3744 8.43665ZM8.37438 8.43666L8.3744 8.43665L8.29328 8.31047L8.29326 8.31048L8.37438 8.43666ZM8.37457 8.43654L8.37512 8.43618L8.29252 8.31097L8.29197 8.31133L8.37457 8.43654ZM8.3743 8.43671L8.37445 8.43662L8.2921 8.31124L8.29195 8.31134L8.3743 8.43671ZM7.97958 8.69774C8.11101 8.61051 8.24268 8.5236 8.37445 8.43662L8.29181 8.31143C8.16007 8.39839 8.02825 8.48541 7.89663 8.57276L7.97958 8.69774ZM7.8535 8.77407C7.89809 8.74829 7.93955 8.72435 7.97962 8.69771L7.89659 8.57279C7.86111 8.59637 7.82384 8.61795 7.77841 8.64422L7.8535 8.77407ZM7.85235 8.77472L7.85238 8.77471L7.77953 8.64358L7.77951 8.6436L7.85235 8.77472ZM7.8537 8.77395L7.85372 8.77394L7.77814 8.64438L7.77812 8.64439L7.8537 8.77395ZM7.8538 8.7739L7.85384 8.77387L7.77798 8.64447L7.77794 8.64449L7.8538 8.7739ZM7.78109 8.81635C7.80681 8.80107 7.83063 8.78729 7.85341 8.77412L7.77833 8.64427C7.75562 8.6574 7.73106 8.6716 7.70446 8.68741L7.78109 8.81635ZM7.66778 1.9334V8.75188H7.81778V1.9334H7.66778ZM12.2551 1.8584H7.74278V2.0084H12.2551V1.8584ZM6.81587 1.8396H6.57097V1.9896H6.81587V1.8396ZM6.89087 2.19374V1.9146H6.74087V2.19374H6.89087ZM6.89074 3.47774L6.89087 2.19375L6.74087 2.19373L6.74074 3.47772L6.89074 3.47774ZM6.89074 3.47774V3.47773H6.74074V3.47774H6.89074ZM6.89074 3.47774V3.47774H6.74074V3.47774H6.89074ZM6.89405 8.61373C6.89023 6.90182 6.89049 5.18986 6.89074 3.47775L6.74074 3.47773C6.74049 5.18981 6.74023 6.90195 6.74405 8.61407L6.89405 8.61373ZM6.96391 9.08633C6.91026 8.94468 6.89438 8.77739 6.89405 8.61375L6.74405 8.61405C6.7444 8.78451 6.76055 8.9729 6.82364 9.13946L6.96391 9.08633ZM8.18062 9.46784C7.72295 9.75672 7.14709 9.56975 6.96391 9.08632L6.82364 9.13947C7.04225 9.71639 7.72717 9.93143 8.26068 9.59469L8.18062 9.46784ZM9.80853 8.38724C9.26937 8.75443 8.73076 9.12063 8.18062 9.46784L8.26068 9.59469C8.81337 9.24587 9.35407 8.87822 9.89296 8.51122L9.80853 8.38724ZM10.1925 8.38574C10.1309 8.34371 10.0688 8.3161 10.0001 8.31661C9.93178 8.31713 9.8699 8.34546 9.80854 8.38723L9.89295 8.51123C9.94312 8.47708 9.97549 8.4668 10.0013 8.46661C10.0267 8.46642 10.0586 8.47599 10.108 8.50965L10.1925 8.38574ZM10.9734 8.90887C10.712 8.73538 10.4511 8.56219 10.1925 8.38575L10.1079 8.50965C10.3675 8.68673 10.6292 8.86044 10.8904 9.03385L10.9734 8.90887ZM11.7299 9.41534C11.4789 9.24438 11.2259 9.07648 10.9734 8.90887L10.8904 9.03385C11.1431 9.20154 11.3953 9.36895 11.6454 9.53931L11.7299 9.41534ZM12.656 9.50765C12.3371 9.67079 12.0326 9.62142 11.7299 9.41533L11.6454 9.53932C11.9829 9.76908 12.3462 9.83464 12.7243 9.64119L12.656 9.50765ZM13.1094 8.67737C13.1095 8.86481 13.0774 9.03029 13.0058 9.16903C12.9348 9.30675 12.8229 9.42219 12.6559 9.50766L12.7243 9.64118C12.9178 9.54211 13.0531 9.40464 13.1392 9.23777C13.2247 9.07192 13.2595 8.88112 13.2594 8.67728L13.1094 8.67737ZM13.1089 3.65534C13.1088 5.32933 13.1087 7.00332 13.1094 8.67736L13.2594 8.67729C13.2587 7.0033 13.2588 5.32935 13.2589 3.65535L13.1089 3.65534ZM13.1089 3.65533V3.65534H13.2589V3.65533H13.1089ZM13.1089 3.65533V3.65533H13.2589V3.65533H13.1089ZM13.109 2.19334L13.1089 3.65532L13.2589 3.65533L13.259 2.19335L13.109 2.19334ZM13.109 1.9146V2.19334H13.259V1.9146H13.109ZM13.4293 1.8396H13.184V1.9896H13.4293V1.8396ZM14.771 1.83951L13.4293 1.8396L13.4293 1.9896L14.771 1.98951L14.771 1.83951ZM14.7713 1.83951H14.771V1.98951H14.7713V1.83951ZM18.0505 1.83983C16.9574 1.8393 15.8643 1.83941 14.7713 1.83951L14.7713 1.98951C15.8644 1.98941 16.9574 1.9893 18.0504 1.98983L18.0505 1.83983ZM19.1582 2.947C19.1582 2.59211 19.0686 2.31178 18.8773 2.12062C18.686 1.92948 18.4054 1.84 18.0505 1.83983L18.0504 1.98983C18.382 1.98999 18.6178 2.07345 18.7712 2.22673C18.9246 2.38 19.0082 2.61558 19.0082 2.94702L19.1582 2.947ZM19.1582 19.0188C19.1587 13.6615 19.1587 8.30421 19.1582 2.947L19.0082 2.94702C19.0087 8.30421 19.0087 13.6615 19.0082 19.0188L19.1582 19.0188ZM18.049 20.1251C18.4041 20.125 18.6849 20.0354 18.8766 19.8443C19.0682 19.6532 19.1582 19.373 19.1582 19.0188L19.0082 19.0188C19.0082 19.3494 18.9244 19.5848 18.7706 19.7381C18.6169 19.8914 18.3806 19.975 18.049 19.9751L18.049 20.1251ZM1.94943 20.125C7.316 20.1255 12.6825 20.1255 18.049 20.1251L18.049 19.9751C12.6825 19.9755 7.31601 19.9755 1.94944 19.975L1.94943 20.125ZM0.841572 19.0178C0.841602 19.3727 0.931048 19.6531 1.12233 19.8443C1.31362 20.0355 1.59419 20.125 1.94943 20.125L1.94944 19.975C1.61756 19.975 1.38173 19.8915 1.22838 19.7382C1.07503 19.585 0.9916 19.3493 0.991572 19.0178L0.841572 19.0178ZM0.841572 2.94604C0.841232 8.3033 0.841232 13.6605 0.841572 19.0178L0.991572 19.0178C0.991232 13.6605 0.991232 8.3033 0.991572 2.94605L0.841572 2.94604ZM1.94974 1.83983C1.59426 1.84 1.3136 1.92913 1.1223 2.12002C0.930955 2.31094 0.841602 2.59109 0.841572 2.94604L0.991572 2.94605C0.9916 2.61445 1.07495 2.37916 1.22825 2.2262C1.38158 2.0732 1.61749 1.98999 1.94981 1.98983L1.94974 1.83983ZM5.22902 1.83951C4.13596 1.83941 3.04287 1.8393 1.94974 1.83983L1.94981 1.98983C3.04289 1.9893 4.13594 1.98941 5.22901 1.98951L5.22902 1.83951ZM5.22932 1.83951H5.22902V1.98951H5.22932V1.83951ZM6.57097 1.8396L5.22933 1.83951L5.22932 1.98951L6.57096 1.9896L6.57097 1.8396ZM0.075567 10.9835L0.0754053 8.71767L-0.0745947 8.71768L-0.074433 10.9835L0.075567 10.9835ZM0.0752835 13.3074L0.075567 10.9835L-0.074433 10.9835L-0.0747165 13.3074L0.0752835 13.3074ZM0.0763619 19.0397C0.0745842 17.1289 0.0749338 15.2182 0.0752835 13.3074L-0.0747165 13.3074C-0.0750661 15.2182 -0.0754158 17.129 -0.073638 19.0398L0.0763619 19.0397ZM1.92561 20.8886C1.36851 20.8884 0.907647 20.7006 0.586114 20.379C0.264574 20.0574 0.0768576 19.5965 0.0763619 19.0397L-0.073638 19.0398C-0.0731117 19.6311 0.126907 20.1319 0.480035 20.4851C0.833171 20.8383 1.33391 21.0384 1.92556 21.0386L1.92561 20.8886ZM18.0659 20.8888C12.6859 20.8904 7.30573 20.8905 1.92561 20.8886L1.92556 21.0386C7.30572 21.0405 12.6859 21.0404 18.066 21.0388L18.0659 20.8888ZM19.9232 19.0476C19.9229 19.6026 19.7342 20.0616 19.4111 20.3817C19.088 20.7018 18.6249 20.8886 18.0659 20.8888L18.066 21.0388C18.6591 21.0386 19.1619 20.8398 19.5167 20.4882C19.8716 20.1366 20.0729 19.6376 20.0732 19.0477L19.9232 19.0476ZM19.9231 2.91411C19.9257 8.29196 19.9256 13.6699 19.9232 19.0477L20.0732 19.0477C20.0756 13.6699 20.0757 8.29193 20.0731 2.91404L19.9231 2.91411ZM18.0847 1.07643C18.635 1.07665 19.0934 1.26446 19.414 1.5849C19.7347 1.90533 19.9228 2.36353 19.9231 2.91411L20.0731 2.91404C20.0728 2.32841 19.872 1.83052 19.5201 1.4788C19.1681 1.12708 18.67 0.926669 18.0847 0.926435L18.0847 1.07643ZM1.92311 1.07984C7.31024 1.07411 12.6974 1.07416 18.0847 1.07643L18.0847 0.926435C12.6975 0.924163 7.31018 0.924107 1.92295 0.929842L1.92311 1.07984ZM1.25762 1.18165C1.46759 1.11321 1.69986 1.08006 1.92311 1.07984L1.92296 0.929842C1.68581 0.930076 1.43772 0.965179 1.21114 1.03904L1.25762 1.18165ZM0.0761348 2.9273C0.0766844 2.07539 0.516555 1.42307 1.25761 1.18165L1.21115 1.03903C0.400585 1.30309 -0.0732792 2.01898 -0.0738652 2.9272L0.0761348 2.9273ZM0.0754053 8.71766C0.0751987 6.78753 0.0749921 4.85743 0.0761348 2.92729L-0.0738652 2.9272C-0.0750079 4.8574 -0.0748013 6.78756 -0.0745947 8.71768L0.0754053 8.71766ZM14.5629 17.3957H16.3382V17.2457H14.5629V17.3957ZM14.4879 15.5337V17.3207H14.6379V15.5337H14.4879ZM16.3382 15.4587H14.5629V15.6087H16.3382V15.4587ZM16.4132 17.3207V15.5337H16.2632V17.3207H16.4132ZM13.7064 16.4097C13.7064 16.3217 13.706 16.2338 13.7056 16.1461L13.5556 16.1468C13.556 16.2345 13.5564 16.3221 13.5564 16.4097H13.7064ZM13.7057 16.6768C13.706 16.5879 13.7064 16.4988 13.7064 16.4097L13.5564 16.4097C13.5564 16.4984 13.556 16.5872 13.5557 16.6762L13.7057 16.6768ZM13.7057 16.6775L13.7057 16.6768L13.5557 16.6762L13.5557 16.6769L13.7057 16.6775ZM13.7071 17.2791C13.7041 17.079 13.7049 16.8787 13.7057 16.6775L13.5557 16.6769C13.5549 16.8778 13.5541 17.0796 13.5572 17.2814L13.7071 17.2791ZM14.5765 18.1658C14.3111 18.1616 14.0972 18.0702 13.9487 17.9183C13.8 17.7662 13.7112 17.5477 13.7071 17.2791L13.5572 17.2814C13.5618 17.5823 13.662 17.8396 13.8414 18.0232C14.021 18.2069 14.2744 18.311 14.5741 18.3157L14.5765 18.1658ZM16.3394 18.1652C15.7521 18.1761 15.1642 18.1749 14.5765 18.1658L14.5741 18.3157C15.1632 18.3249 15.7528 18.3261 16.3422 18.3152L16.3394 18.1652ZM17.1953 17.3095C17.1907 17.565 17.1013 17.7756 16.9537 17.9232C16.806 18.0709 16.5954 18.1605 16.3394 18.1652L16.3422 18.3152C16.6325 18.3098 16.8817 18.2074 17.0598 18.0293C17.2378 17.8512 17.34 17.6022 17.3453 17.3122L17.1953 17.3095ZM17.1957 15.5497C17.2048 16.1363 17.2058 16.7232 17.1953 17.3095L17.3453 17.3122C17.3558 16.724 17.3548 16.1354 17.3457 15.5474L17.1957 15.5497ZM16.3278 14.6845C16.5889 14.6883 16.8028 14.7778 16.9522 14.9266C17.1015 15.0755 17.1916 15.2888 17.1957 15.5497L17.3457 15.5474C17.3411 15.2522 17.2383 15 17.058 14.8204C16.8777 14.6407 16.625 14.5388 16.3299 14.5346L16.3278 14.6845ZM14.5855 14.6842C15.1663 14.6772 15.7473 14.6763 16.3278 14.6845L16.3299 14.5346C15.7478 14.5262 15.1656 14.5272 14.5837 14.5342L14.5855 14.6842ZM13.7074 15.5617C13.7123 15.2953 13.8026 15.0787 13.9529 14.9281C14.1032 14.7776 14.3191 14.6874 14.5855 14.6842L14.5837 14.5342C14.2834 14.5378 14.0283 14.6403 13.8468 14.8221C13.6653 15.0039 13.5629 15.2594 13.5574 15.559L13.7074 15.5617ZM13.7056 16.146C13.7047 15.9505 13.7038 15.756 13.7074 15.5617L13.5574 15.559C13.5538 15.7553 13.5547 15.9515 13.5556 16.1467L13.7056 16.146ZM13.7056 16.1464V16.1464H13.5556V16.1464H13.7056ZM13.7056 16.1464V16.1464H13.5556V16.1464H13.7056ZM4.78375 16.0435L4.78534 16.0435L4.78507 15.8935L4.78348 15.8935L4.78375 16.0435ZM3.21769 16.0409C3.73987 16.0452 4.262 16.0444 4.78373 16.0435L4.78349 15.8935C4.26165 15.8944 3.74024 15.8952 3.21892 15.8909L3.21769 16.0409ZM2.70601 15.2991C2.62215 15.4782 2.64325 15.6646 2.74194 15.8065C2.84022 15.9477 3.01131 16.0392 3.21768 16.0409L3.21893 15.8909C3.05696 15.8896 2.93321 15.8187 2.86506 15.7208C2.79733 15.6234 2.78041 15.4939 2.84185 15.3627L2.70601 15.2991ZM3.26408 14.9881C3.14855 14.9877 3.03718 15.0044 2.93972 15.053C2.84058 15.1024 2.76072 15.1824 2.70602 15.2991L2.84184 15.3627C2.88287 15.2752 2.93915 15.2209 3.00662 15.1873C3.07577 15.1528 3.1615 15.1378 3.26361 15.1381L3.26408 14.9881ZM5.39093 14.9898C4.68185 14.9902 3.97295 14.9906 3.26411 14.9881L3.26358 15.1381C3.97278 15.1406 4.68198 15.1402 5.39101 15.1398L5.39093 14.9898ZM6.16032 14.9896L5.39094 14.9898L5.391 15.1398L6.16037 15.1396L6.16032 14.9896ZM6.5988 14.9893L6.1603 14.9896L6.16039 15.1396L6.59888 15.1393L6.5988 14.9893ZM7.65145 14.9901C7.30046 14.9887 6.94951 14.989 6.59878 14.9893L6.5989 15.1393C6.94969 15.139 7.30029 15.1387 7.65085 15.1401L7.65145 14.9901ZM8.25105 15.5193C8.2514 15.3604 8.19525 15.2253 8.08642 15.1308C7.97896 15.0375 7.82832 14.9908 7.65144 14.9901L7.65087 15.1401C7.8031 15.1407 7.91521 15.1808 7.98808 15.244C8.05957 15.3061 8.10132 15.3974 8.10105 15.519L8.25105 15.5193ZM7.64843 16.0423C7.82796 16.0418 7.97918 15.9973 8.08672 15.9055C8.19593 15.8122 8.25063 15.6781 8.25105 15.5194L8.10105 15.519C8.10072 15.6418 8.05971 15.7313 7.98929 15.7914C7.91721 15.853 7.80487 15.8919 7.64797 15.8923L7.64843 16.0423ZM6.03323 16.0432C6.5715 16.0436 7.10995 16.044 7.64843 16.0423L7.64797 15.8923C7.10982 15.894 6.57165 15.8936 6.03334 15.8932L6.03323 16.0432ZM5.4545 16.0429L6.03324 16.0432L6.03333 15.8932L5.45459 15.8929L5.4545 16.0429ZM4.78532 16.0435C5.00845 16.0432 5.23149 16.0429 5.45453 16.0429L5.45456 15.8929C5.23137 15.8929 5.00819 15.8932 4.78509 15.8935L4.78532 16.0435ZM4.5345 18.1678C4.40337 18.1678 4.27225 18.1683 4.14131 18.1688L4.14192 18.3188C4.27292 18.3183 4.40373 18.3178 4.5345 18.3178V18.1678ZM4.4595 18.2417V18.2428H4.6095V18.2417H4.4595ZM4.93867 18.1681C4.8041 18.1674 4.66931 18.1667 4.5345 18.1667V18.3167C4.66888 18.3167 4.80329 18.3174 4.93792 18.318L4.93867 18.1681ZM5.89354 18.1639C5.5759 18.1712 5.25791 18.1696 4.93867 18.1681L4.93792 18.318C5.2568 18.3196 5.57691 18.3213 5.89702 18.3138L5.89354 18.1639ZM6.28925 17.7876C6.28784 17.993 6.13329 18.1583 5.89354 18.1639L5.89703 18.3138C6.21305 18.3065 6.43724 18.0798 6.43924 17.7886L6.28925 17.7876ZM5.89925 17.4084C6.13504 17.4106 6.29061 17.5812 6.28925 17.7876L6.43924 17.7886C6.44117 17.4983 6.21789 17.2613 5.90063 17.2584L5.89925 17.4084ZM3.2 17.4072C4.10003 17.4026 4.99975 17.4001 5.89924 17.4084L5.90063 17.2584C5.00002 17.2501 4.09942 17.2526 3.19924 17.2572L3.2 17.4072ZM2.82992 17.6632C2.86149 17.574 2.91029 17.5116 2.97038 17.4709C3.03081 17.4299 3.10758 17.4076 3.19999 17.4072L3.19925 17.2572C3.08293 17.2577 2.97572 17.2861 2.88625 17.3467C2.79644 17.4075 2.7294 17.4976 2.68851 17.6131L2.82992 17.6632ZM3.23888 18.166C3.0747 18.1631 2.95011 18.0983 2.87848 18.0075C2.80753 17.9175 2.78312 17.7955 2.82993 17.6632L2.68851 17.6132C2.62522 17.7921 2.65663 17.9684 2.76069 18.1003C2.86407 18.2314 3.0337 18.3124 3.23621 18.316L3.23888 18.166ZM4.1413 18.1688C3.83979 18.1701 3.53921 18.1713 3.23887 18.166L3.23623 18.316C3.53847 18.3213 3.84068 18.3201 4.14192 18.3188L4.1413 18.1688Z" fill="white"/>
</svg>
