<?xml version="1.0" encoding="UTF-8"?>
<svg width="80px" height="80px" viewBox="0 0 80 80" version="1.1" xmlns="http://www.w3.org/2000/svg" xmlns:xlink="http://www.w3.org/1999/xlink">
    <g stroke="none" stroke-width="1" fill="none" fill-rule="evenodd">
        <path d="M61.748072,24.1063179 L65.8752234,32.3530894 C71.9750395,44.5415906 67.039185,59.3672011 54.8506838,65.4670173 C51.4218203,67.1830147 47.6402761,68.0764453 43.8059896,68.0764453 L35.6798715,68.0764453 C22.050223,68.0764453 11.0012098,57.0274321 11.0012098,43.3977835 C11.0012098,39.5634971 11.8946404,35.7819529 13.6106378,32.3530894 L17.7377892,24.1063179 C23.8198906,11.9532139 38.6024453,7.03169385 50.7555493,13.1137952 C55.5113075,15.4938459 59.3680213,19.3505597 61.748072,24.1063179 Z" fill="#5E5896" opacity="0.377255394"></path>
        <path d="M60.651069,18.5588289 L70.03003,37.3193126 C75.3121019,47.8848989 71.0289671,60.7319642 60.4633808,66.0140361 C57.4963427,67.4973526 54.2249543,68.2702107 50.9077957,68.2715216 L32.1350366,68.2789401 C20.3226755,68.283608 10.7430806,58.7115814 10.7384127,46.8992203 C10.7370982,43.5729234 11.5116226,40.2921652 13.0004362,37.3176591 L22.3942343,18.5497569 C27.6813165,7.9866769 40.5304117,3.70963555 51.0934917,8.99671771 C55.2294321,11.0668579 58.5828906,14.4219072 60.651069,18.5588289 Z" stroke="#979797" opacity="0.300000012" transform="translate(41.515307, 37.504478) rotate(30.000000) translate(-41.515307, -37.504478) "></path>
        <path d="M61.8820981,21.3502223 L68.3297551,34.2590813 C74.0545863,45.7207702 69.4039443,59.6531974 57.9422554,65.3780286 C54.7261346,66.9844017 51.1806809,67.8213241 47.585703,67.8227454 L34.6801845,67.8278476 C21.8683158,67.8329129 11.478138,57.4509474 11.4730728,44.6390788 C11.4716476,41.034186 12.3103759,37.4785664 13.9227091,34.2543401 L20.3805706,21.3403788 C26.1108382,9.88140691 40.04547,5.2373745 51.5044419,10.9676421 C55.9963494,13.2139023 59.637969,16.8572498 61.8820981,21.3502223 Z" fill="#5E5896" transform="translate(41.126317, 38.170386) rotate(60.000000) translate(-41.126317, -38.170386) "></path>
    </g>
</svg>