<svg width="24" height="24" viewBox="0 0 24 24" fill="none" xmlns="http://www.w3.org/2000/svg">
<path fill-rule="evenodd" clip-rule="evenodd" d="M21.3813 2.08574C21.6517 1.54567 21.5709 1.25756 21.0404 0.999985H20.7396C20.5019 1.10429 20.3285 1.27507 20.2122 1.50635C20.0446 1.83953 20.0286 2.19257 20.0721 2.55365C20.0816 2.63249 20.092 2.71122 20.1031 2.79495L20.1032 2.79499L20.1198 2.92138C19.4851 2.81656 18.8818 2.75755 18.3952 3.24124C17.9046 3.72884 17.9752 4.34106 18.0696 4.96666C17.443 4.88107 16.8367 4.80472 16.3482 5.28709C15.8528 5.77629 15.9332 6.39012 16.0172 7.02123C15.3878 6.92605 14.7761 6.85631 14.2869 7.34844C13.805 7.8331 13.8824 8.43821 13.9592 9.0385L13.9626 9.06519C13.896 9.05783 13.832 9.04974 13.7696 9.04186L13.7695 9.04184L13.7692 9.04181L13.7691 9.0418L13.769 9.04179L13.769 9.04178L13.7688 9.04176C13.6362 9.02501 13.5112 9.00921 13.3857 9.00348C12.9562 8.98407 12.5589 9.07489 12.2431 9.39148C12.0131 9.62219 11.9908 9.97557 12.1821 10.235C12.3697 10.4893 12.7361 10.5817 13.0049 10.4011C13.2008 10.2695 13.3833 10.2833 13.5942 10.3141C13.6382 10.3206 13.6823 10.3272 13.7264 10.3339L13.7264 10.3339C14.0209 10.3783 14.3187 10.4232 14.6117 10.4078C15.0236 10.3862 15.299 10.0631 15.3233 9.65146C15.3333 9.4816 15.3178 9.30853 15.2966 9.13907C15.2834 9.03339 15.2642 8.92842 15.245 8.82348C15.223 8.70332 15.2011 8.58319 15.1881 8.46209C15.1656 8.25297 15.2218 8.20291 15.4334 8.23322C15.5735 8.25329 15.7128 8.27931 15.852 8.30534L15.852 8.30534L15.852 8.30534L15.8521 8.30535L15.8521 8.30535L15.8521 8.30535L15.8521 8.30535C15.9729 8.32794 16.0937 8.35052 16.2152 8.36921C17.0133 8.492 17.4912 8.01497 17.3706 7.21595C17.3517 7.09102 17.3284 6.96677 17.3051 6.84252C17.2849 6.73485 17.2647 6.62717 17.2473 6.51905C17.1954 6.19518 17.2355 6.15327 17.5688 6.1965C17.681 6.21104 17.7929 6.23086 17.9047 6.25068C18.0961 6.2846 18.2874 6.31849 18.4798 6.32577C19.1205 6.34994 19.4994 5.93083 19.4325 5.29266C19.4121 5.09854 19.3756 4.90602 19.3392 4.71359C19.3264 4.64585 19.3135 4.57813 19.3014 4.51035C19.2369 4.14961 19.2985 4.08699 19.6616 4.14583C19.745 4.15936 19.8283 4.17483 19.9116 4.19031C20.11 4.22716 20.3084 4.26403 20.5082 4.2747C21.142 4.30851 21.5099 3.9406 21.4788 3.30628C21.4711 3.1509 21.4432 2.99673 21.4151 2.84238L21.4151 2.84236C21.3946 2.72904 21.374 2.61563 21.3614 2.50158L21.359 2.47997C21.3442 2.34695 21.3271 2.19389 21.3813 2.08574ZM2.44122 19.3965L3.3299 20.6591L1.74765 21.2532L2.44122 19.3965ZM10.6026 13.2503L14.0083 16.6532C13.9154 16.6882 13.8215 16.724 13.7266 16.76L13.7261 16.7602L13.7228 16.7615L13.7227 16.7615L13.7225 16.7615C13.3875 16.8889 13.0411 17.0206 12.691 17.1416C12.6431 17.1581 12.5402 17.0868 12.4954 17.0303C11.7269 16.0647 11.1553 14.9923 10.7726 13.8194C10.7286 13.6845 10.6892 13.5482 10.6519 13.4192L10.6519 13.4191L10.6519 13.4191L10.6518 13.4187L10.6516 13.4183C10.635 13.3605 10.6187 13.3043 10.6026 13.2503ZM4.61313 13.6668C5.01789 15.7466 5.89813 17.5643 7.28365 19.1768L6.73646 19.3815C6.36596 19.52 6.00638 19.6544 5.64693 19.7892C5.57365 19.8167 5.50026 19.8439 5.42687 19.8711C5.20566 19.9532 4.98442 20.0352 4.76622 20.1247C4.66026 20.1682 4.60216 20.1458 4.53121 20.0623C3.96841 19.3992 3.49035 18.681 3.11635 17.8956C3.08375 17.8271 3.07175 17.7252 3.09729 17.6561C3.53581 16.4716 3.98026 15.2893 4.42468 14.107L4.42473 14.1069L4.54648 13.783C4.554 13.7629 4.56555 13.7444 4.58158 13.7187L4.5816 13.7187L4.58164 13.7187C4.59068 13.7042 4.60115 13.6874 4.61313 13.6668ZM6.2114 9.34305C6.26191 9.20866 6.3131 9.0725 6.36495 8.9338L7.5274 10.097C7.64542 10.2151 7.76312 10.3335 7.88081 10.452L7.88132 10.4525C8.19738 10.7705 8.51345 11.0886 8.83582 11.4001C8.96275 11.5228 9.02572 11.6529 9.04294 11.8256C9.21246 13.5241 9.74552 15.104 10.6156 16.5697C10.7644 16.8203 10.9269 17.0628 11.0922 17.3096L11.0922 17.3096C11.1696 17.425 11.2476 17.5414 11.3251 17.66L10.7382 17.881C10.2788 18.054 9.82052 18.2266 9.36211 18.3989C9.29604 18.4237 9.22952 18.4475 9.16302 18.4713C9.02757 18.5197 8.89216 18.5681 8.76057 18.6253C8.63709 18.679 8.5581 18.6655 8.46395 18.5625C7.1018 17.0725 6.23843 15.3347 5.87351 13.3509C5.71627 12.496 5.6572 11.6333 5.74056 10.7652C5.75261 10.6393 5.77948 10.5113 5.8223 10.3925C5.94726 10.0457 6.07695 9.70072 6.21137 9.34312L6.21138 9.34311L6.21138 9.3431L6.21139 9.34308L6.21139 9.34307L6.2114 9.34306L6.2114 9.34305ZM15.4093 17.5041C15.7137 17.3883 15.8787 17.1545 15.8712 16.7593C15.8544 16.7343 15.8353 16.7013 15.8135 16.6638C15.7557 16.5641 15.6789 16.4317 15.5745 16.327C13.0469 13.7913 10.515 11.2599 7.98309 8.72853L7.98225 8.7277L6.69147 7.43715L6.66142 7.40687C6.62101 7.36598 6.58053 7.32503 6.53659 7.28835C6.19595 7.00397 5.71553 7.10919 5.52701 7.5093C5.5011 7.56436 5.47975 7.62162 5.45842 7.67882L5.45842 7.67883L5.45841 7.67884L5.45841 7.67885L5.4584 7.67886L5.4584 7.67887L5.4584 7.67888L5.44739 7.70833C3.84574 11.9783 2.24426 16.2483 0.642952 20.5184C0.570184 20.7125 0.497915 20.9067 0.425647 21.101L0.425595 21.1011C0.303478 21.4294 0.181364 21.7577 0.0568493 22.085C-0.0445276 22.3517 -0.0153659 22.594 0.185206 22.7997C0.392438 23.0123 0.642206 23.0486 0.915797 22.9419C0.969126 22.9211 1.02246 22.9007 1.07601 22.8806L13.1013 18.3714C13.3048 18.2951 13.5083 18.219 13.7118 18.1428C14.278 17.931 14.8443 17.7192 15.4093 17.5041ZM19.7594 9.93313C19.8842 9.95155 20.0094 9.9682 20.1347 9.98485C20.4196 10.0227 20.7045 10.0606 20.9851 10.1194C21.4077 10.2078 21.6165 10.5518 21.5172 10.9277C21.4219 11.288 21.0811 11.4545 20.6681 11.3633C19.4126 11.0858 18.2487 11.3561 17.18 12.024C16.8333 12.2406 16.5178 12.5079 16.2029 12.7747L16.2029 12.7748L16.2029 12.7748L16.2027 12.7749C16.1025 12.8598 16.0024 12.9446 15.9014 13.0277C15.683 13.2074 15.4524 13.2773 15.1868 13.1732C14.9448 13.0785 14.8154 12.8897 14.7925 12.6323C14.7742 12.4277 14.8457 12.2533 14.9917 12.1095C16.1493 10.9694 17.4901 10.1879 19.1327 10.0018C19.2735 9.98583 19.4155 9.97945 19.5574 9.97308C19.6227 9.97014 19.6881 9.9672 19.7534 9.96333L19.7594 9.93313ZM11.1101 7.77528C12.2842 6.4998 13.0028 5.02995 13.0781 3.2589C13.0547 3.12163 13.0336 2.98382 13.0124 2.84601L13.0124 2.846L13.0124 2.84598L13.0124 2.84597L13.0124 2.84595C12.9633 2.52575 12.9141 2.20554 12.8376 1.89203C12.7545 1.55179 12.3803 1.38526 12.0485 1.48469C11.7315 1.57964 11.5442 1.91138 11.6141 2.24679C11.6217 2.28315 11.6296 2.31951 11.6375 2.35589C11.6689 2.50125 11.7004 2.64694 11.7151 2.79409C11.8335 3.97697 11.5073 5.04821 10.8507 6.01915C10.6269 6.35009 10.3612 6.65393 10.0967 6.95627L9.9863 7.08275C9.72511 7.3828 9.70485 7.76925 9.96317 8.02597C10.2325 8.2937 10.6227 8.27367 10.9168 7.97654C10.9823 7.91047 11.0471 7.84376 11.1101 7.77528ZM19.7137 14.3948C19.7179 14.7538 19.4457 15.0394 19.0905 15.0486C18.7348 15.0577 18.4303 14.7607 18.4303 14.4044C18.4304 14.0553 18.7198 13.7651 19.0703 13.7626C19.4263 13.7602 19.7095 14.0384 19.7137 14.3948ZM9.04194 5.02204C9.39217 5.02721 9.68843 4.73783 9.69314 4.386C9.69791 4.02963 9.41605 3.7441 9.05652 3.74105C8.69596 3.73801 8.41049 4.01516 8.40699 4.37153C8.40354 4.72612 8.68729 5.01682 9.04194 5.02204ZM16.0676 3.45757C16.072 3.81968 15.799 4.10114 15.4388 4.10579C15.0799 4.11038 14.7936 3.8338 14.7872 3.4764C14.781 3.1233 15.0646 2.8314 15.4196 2.82549C15.7769 2.81952 16.0633 3.09879 16.0676 3.45757ZM20.6276 8.02801C20.6296 7.67371 20.3441 7.38433 19.9904 7.38215C19.6385 7.38002 19.347 7.66843 19.3447 8.02101C19.3423 8.37405 19.6291 8.66342 19.9831 8.66543C20.338 8.66744 20.6256 8.383 20.6276 8.02801Z" fill="black"/>
</svg>
