<?xml version="1.0" encoding="UTF-8"?>
<svg width="164px" height="164px" viewBox="0 0 164 164" version="1.1" xmlns="http://www.w3.org/2000/svg" xmlns:xlink="http://www.w3.org/1999/xlink">
    <!-- Generator: Sketch 63.1 (92452) - https://sketch.com -->
    <title>call</title>
    <desc>Created with Sketch.</desc>
    <defs>
        <polygon id="path-1" points="0.02 0 24 0 24 106 0.02 106"></polygon>
        <polygon id="path-3" points="0.02 0 24 0 24 104 0.02 104"></polygon>
        <polygon id="path-5" points="0.02 0 24 0 24 106 0.02 106"></polygon>
    </defs>
    <g id="Symbols" stroke="none" stroke-width="1" fill="none" fill-rule="evenodd">
        <g id="Contact-Us/1">
            <g id="call">
                <g id="Group-4">
                    <mask id="mask-2" fill="white">
                        <use xlink:href="#path-1"></use>
                    </mask>
                    <g id="Clip-2"></g>
                    <polygon id="Fill-1" fill="#000000" mask="url(#mask-2)" points="18.6666667 106 18.6666667 100.421053 24 100.421053 24 94.8421053 18.6666667 94.8421053 18.6666667 89.2631579 13.3333333 89.2631579 13.3333333 94.8421053 8 94.8421053 8 100.421053 13.3333333 100.421053 13.3333333 106"></polygon>
                    <path d="M16,8.36842105 C16,3.74696053 12.418,0 8,0 C3.582,0 0,3.74696053 0,8.36842105 C0,12.9898816 3.582,16.7368421 8,16.7368421 C12.418,16.7368421 16,12.9898816 16,8.36842105 Z M5.33333333,8.36842105 C5.33333333,6.82793421 6.52733333,5.57894737 8,5.57894737 C9.47266667,5.57894737 10.6666667,6.82793421 10.6666667,8.36842105 C10.6666667,9.90890789 9.47266667,11.1578947 8,11.1578947 C6.52733333,11.1578947 5.33333333,9.90890789 5.33333333,8.36842105 Z" id="Fill-3" fill="#000000" mask="url(#mask-2)"></path>
                </g>
                <path d="M86,57 C86,58.65675 84.65675,60 83,60 C81.34325,60 80,58.65675 80,57 C80,55.34325 81.34325,54 83,54 C84.65675,54 86,55.34325 86,57 Z" id="Fill-5" fill="#000000"></path>
                <g id="Group-9" transform="translate(6.000000, 2.000000)" fill="#000000">
                    <path d="M14.1298701,161.64859 L132.820779,161.64859 C134.381423,161.64859 135.646753,160.389839 135.646753,158.83731 L135.646753,130.724512 C135.641101,130.385401 135.573631,130.049102 135.446816,129.734941 C135.403719,129.638655 135.355678,129.544126 135.301631,129.453462 C135.250764,129.331171 135.190005,129.211692 135.121122,129.09643 L107.387013,90.4673362 L107.387013,80.1214751 C107.387013,78.5689458 106.121683,77.3101952 104.561039,77.3101952 L87.6051948,77.3101952 C86.0445506,77.3101952 84.7792208,78.5689458 84.7792208,80.1214751 L84.7792208,88.5553145 L62.1714286,88.5553145 L62.1714286,80.1214751 C62.1714286,78.5689458 60.9060987,77.3101952 59.3454545,77.3101952 L42.3896104,77.3101952 C40.8289662,77.3101952 39.5636364,78.5689458 39.5636364,80.1214751 L39.5636364,90.4673362 L11.8295273,129.091158 C11.7606442,129.206421 11.6998857,129.3259 11.6490182,129.447839 C11.5949714,129.538503 11.5469299,129.633384 11.5038338,129.729319 C11.3770182,130.046291 11.3081351,130.38259 11.3038961,130.724512 L11.3038961,158.83731 C11.3038961,160.389839 12.569226,161.64859 14.1298701,161.64859 Z M16.9558442,156.02603 L129.994805,156.02603 L129.994805,133.535792 L16.9558442,133.535792 L16.9558442,156.02603 Z M44.6899532,92.9999479 C45.0318961,92.5237874 45.2155844,91.9527462 45.2155844,91.3665944 L45.2155844,82.9327549 L56.5194805,82.9327549 L56.5194805,91.3665944 C56.5194805,92.9191236 57.7848104,94.1778742 59.3454545,94.1778742 L87.6051948,94.1778742 C89.165839,94.1778742 90.4311688,92.9191236 90.4311688,91.3665944 L90.4311688,82.9327549 L101.735065,82.9327549 L101.735065,91.3665944 C101.735065,91.9527462 101.918753,92.5237874 102.260696,92.9999479 L127.330265,127.913232 L19.6203844,127.913232 L44.6899532,92.9999479 Z" id="Fill-6"></path>
                    <path d="M6.53082597,70.33541 C8.66161039,71.7108286 11.3024831,72.0583731 13.7201039,71.28 L32.1966753,65.375961 C36.1498597,64.1281041 38.6073974,60.2077744 37.9948675,56.1268503 L36.4713143,45.756039 C54.6744727,34.878846 75.1613714,28.3405119 96.3286234,26.6562039 L101.152914,35.983679 C103.040312,39.6583731 107.331906,41.4266681 111.278379,40.1566725 L129.754597,34.2529848 C132.173631,33.4812885 134.117901,31.6722299 135.051886,29.3209458 C135.986223,26.9707158 135.811013,24.3270586 134.576062,22.1195011 L123.913662,3.06675488 C123.488706,2.31157484 122.736644,1.79289371 121.875782,1.66111497 C77.7612675,-5.00899783 33.0532987,9.25332755 1.06539221,40.2005987 C0.442971429,40.8074837 0.135293506,41.6666811 0.234555844,42.5286898 L2.70728312,64.200846 C2.99023377,66.7144816 4.39368312,68.9670195 6.53082597,70.33541 Z M30.4703584,60.0320694 L11.993787,65.9361085 C11.1866182,66.1940434 10.3063273,66.0787809 9.59559481,65.6215965 C8.88344935,65.1647636 8.41575065,64.4138004 8.31931429,63.5777961 L8.05967792,61.2851974 L31.9328,53.6641692 L32.4146286,56.947744 C32.6131532,58.3108633 31.7893818,59.616 30.4703584,60.0320694 Z M129.794868,27.2701171 C129.482951,28.0523557 128.83439,28.6550239 128.028634,28.9115531 L109.552062,34.8141866 C108.236925,35.2344729 106.810161,34.6469154 106.17679,33.4264685 L104.652177,30.4739219 L128.508696,22.8609761 L129.638732,24.8773666 C130.047086,25.6118134 130.103958,26.4889328 129.794868,27.2701171 Z M119.651387,7.02819957 L125.704623,17.8519783 L102.018016,25.3921822 L100.489164,22.4392842 C99.9730701,21.4440911 98.9133299,20.8470456 97.7900052,20.9211931 C74.4343896,22.4656399 51.8142338,29.6832495 31.9137247,41.9439436 C30.9588987,42.535718 30.4466909,43.6338742 30.6109506,44.7415184 L31.0857143,48.0250933 L7.41252987,55.5818134 L5.99954286,43.2715705 C36.3112935,14.5230716 78.1862234,1.16281562 119.651387,7.0116833 L119.651387,7.02819957 Z" id="Fill-8"></path>
                </g>
                <path d="M80.0023287,123 C92.5232423,123 106,119.550042 106,112.000899 C106,104.451756 92.5286162,101 80.0023287,101 C67.4742499,101 54,104.451756 54,112.000899 C54,119.550042 67.4796238,123 80.0023287,123 Z M80.0023287,106.751728 C93.2999552,106.751728 100.267801,110.6514 100.267801,112.000899 C100.267801,113.34896 93.2999552,117.248272 80.0023287,117.248272 C66.7029109,117.248272 59.7321988,113.34896 59.7321988,112.000899 C59.7321988,110.6514 66.7029109,106.751728 80.0023287,106.751728 Z" id="Fill-10" fill="#000000"></path>
                <g id="Group-14" transform="translate(136.000000, 35.000000)" fill="#000000">
                    <path d="M4.13614634,10.2714505 L0.273512195,14.2474505 C11.736439,26.0784406 11.736439,45.226297 0.273512195,57.0558812 L4.13614634,61.0322327 C17.7280976,47.0041089 17.7280976,24.2992228 4.13614634,10.2714505 Z" id="Fill-11"></path>
                    <path d="M13.794439,0.332153465 L9.93317073,4.30850495 C26.7195122,21.6314505 26.7195122,49.6718812 9.93317073,66.9962327 L13.794439,70.9725842 C32.7152683,51.4528564 32.7152683,19.8518812 13.794439,0.332153465 Z" id="Fill-13"></path>
                </g>
                <path d="M129.221433,84 C138.259522,75.7107016 138.259522,62.2906645 129.221433,54 L125,57.8630801 C131.711301,64.0183273 131.711301,73.9830387 125,80.1382859 L129.221433,84 Z" id="Fill-15" fill="#000000"></path>
                <polygon id="Fill-16" fill="#6FB944" points="15 108 21 108 21 91 15 91"></polygon>
                <g id="Group-20">
                    <mask id="mask-4" fill="white">
                        <use xlink:href="#path-3"></use>
                    </mask>
                    <g id="Clip-18"></g>
                    <polygon id="Fill-17" fill="#6FB944" mask="url(#mask-4)" points="8 104 24 104 24 98.2222222 8 98.2222222"></polygon>
                    <path d="M8,17.3333333 C3.582,17.3333333 0,13.4528333 0,8.66666667 C0,3.8805 3.582,0 8,0 C12.418,0 16,3.8805 16,8.66666667 C16,13.4528333 12.418,17.3333333 8,17.3333333 Z M8,5.77777778 C6.52733333,5.77777778 5.33333333,7.07127778 5.33333333,8.66666667 C5.33333333,10.2620556 6.52733333,11.5555556 8,11.5555556 C9.47266667,11.5555556 10.6666667,10.2620556 10.6666667,8.66666667 C10.6666667,7.07127778 9.47266667,5.77777778 8,5.77777778 Z" id="Fill-19" fill="#EE3446" mask="url(#mask-4)"></path>
                </g>
                <path d="M86,57 C86,58.65675 84.65675,60 83,60 C81.34325,60 80,58.65675 80,57 C80,55.34325 81.34325,54 83,54 C84.65675,54 86,55.34325 86,57 Z" id="Fill-21" fill="#FECF2C"></path>
                <polygon id="Fill-22" fill="#0F71C7" points="21 160 140 160 140 132 21 132"></polygon>
                <polygon id="Fill-23" fill="#168DE2" points="111.666667 93.5555556 140 134 21 134 49.3333333 93.5555556 49.3333333 82 66.3333333 82 66.3333333 93.5555556 94.6666667 93.5555556 94.6666667 82 111.666667 82"></polygon>
                <path d="M40.9416829,58.5918272 C41.3337839,61.3337954 39.7146623,63.9622515 37.107768,64.8158898 L18.8070415,70.7280597 C17.2099558,71.2475272 15.4666631,71.0155526 14.0563588,70.0940194 C12.6464043,69.1742542 11.7201926,67.6614686 11.5330614,65.9764701 L11,61.2506947 L11.5603441,61.1941155 L39.9619552,52 L39.990637,52 L40.9416829,58.5918272 Z" id="Fill-24" fill="#0F71C7"></path>
                <g id="Group-28" transform="translate(11.000000, 4.000000)">
                    <path d="M126.056136,17.3430741 L128.298913,21.4381605 C129.108318,22.9372099 129.21909,24.7273333 128.60003,26.3191111 C127.981321,27.9105309 126.698332,29.1356914 125.101606,29.6587654 L106.761171,35.6739383 C104.14822,36.5296173 101.314076,35.3298765 100.059481,32.8376667 L97.0307853,26.8239259 L126.056136,17.3430741 Z" id="Fill-25" fill="#0F71C7"></path>
                    <path d="M117.699179,2.01961728 L126.056136,17.3430741 L97.0307853,26.8239259 L94.4220408,21.6676543 C71.6998125,23.1903333 49.6937446,30.4013086 30.3426929,42.6622222 L31.1846984,48.4185432 L31.1559538,48.4185432 L2.69217391,57.7271852 L2.13060326,57.7844691 L0.22469837,40.5140741 C31.2530543,9.49051852 74.7891522,-4.77604938 117.699179,2.01961728 Z" id="Fill-27" fill="#168DE2"></path>
                </g>
                <path d="M80.0023287,123 C67.4796238,123 54,119.550042 54,112.000899 C54,104.451756 67.4796238,101 80.0023287,101 C92.5232423,101 106,104.451756 106,112.000899 C106,119.550042 92.5286162,123 80.0023287,123 Z M80.0023287,106.751728 C66.7029109,106.751728 59.7321988,110.6514 59.7321988,112.000899 C59.7321988,113.34896 66.7029109,117.248272 80.0023287,117.248272 C93.2999552,117.248272 100.267801,113.34896 100.267801,112.000899 C100.267801,110.6514 93.2999552,106.751728 80.0023287,106.751728 Z" id="Fill-29" fill="#D8D8D3"></path>
                <g id="Group-33" transform="translate(136.000000, 35.000000)" fill="#FECF2C">
                    <path d="M4.13614634,61.0322327 L0.273512195,57.0558812 C11.736439,45.226297 11.736439,26.0784406 0.273512195,14.2474505 L4.13614634,10.2714505 C17.7280976,24.2992228 17.7280976,47.0041089 4.13614634,61.0322327 Z" id="Fill-30"></path>
                    <path d="M13.794439,70.9725842 L9.93317073,66.9962327 C26.7195122,49.6718812 26.7195122,21.6314505 9.93317073,4.30850495 L13.794439,0.332153465 C32.7152683,19.8518812 32.7152683,51.4528564 13.794439,70.9725842 Z" id="Fill-32"></path>
                </g>
                <path d="M129.221433,84 L125,80.1382859 C131.711301,73.9830387 131.711301,64.0183273 125,57.8630801 L129.221433,54 C138.259522,62.2906645 138.259522,75.7107016 129.221433,84 Z" id="Fill-34" fill="#FECF2C"></path>
                <g id="Group-38">
                    <mask id="mask-6" fill="white">
                        <use xlink:href="#path-5"></use>
                    </mask>
                    <g id="Clip-36"></g>
                    <polygon id="Fill-35" fill="#000000" mask="url(#mask-6)" points="18.6666667 106 18.6666667 100.421053 24 100.421053 24 94.8421053 18.6666667 94.8421053 18.6666667 89.2631579 13.3333333 89.2631579 13.3333333 94.8421053 8 94.8421053 8 100.421053 13.3333333 100.421053 13.3333333 106"></polygon>
                    <path d="M16,8.36842105 C16,3.74696053 12.418,0 8,0 C3.582,0 0,3.74696053 0,8.36842105 C0,12.9898816 3.582,16.7368421 8,16.7368421 C12.418,16.7368421 16,12.9898816 16,8.36842105 Z M5.33333333,8.36842105 C5.33333333,6.82793421 6.52733333,5.57894737 8,5.57894737 C9.47266667,5.57894737 10.6666667,6.82793421 10.6666667,8.36842105 C10.6666667,9.90890789 9.47266667,11.1578947 8,11.1578947 C6.52733333,11.1578947 5.33333333,9.90890789 5.33333333,8.36842105 Z" id="Fill-37" fill="#000000" mask="url(#mask-6)"></path>
                </g>
                <path d="M86,57 C86,58.65675 84.65675,60 83,60 C81.34325,60 80,58.65675 80,57 C80,55.34325 81.34325,54 83,54 C84.65675,54 86,55.34325 86,57 Z" id="Fill-39" fill="#000000"></path>
                <g id="Group-43" transform="translate(6.000000, 2.000000)" fill="#000000">
                    <path d="M14.1298701,161.64859 L132.820779,161.64859 C134.381423,161.64859 135.646753,160.389839 135.646753,158.83731 L135.646753,130.724512 C135.641101,130.385401 135.573631,130.049102 135.446816,129.734941 C135.403719,129.638655 135.355678,129.544126 135.301631,129.453462 C135.250764,129.331171 135.190005,129.211692 135.121122,129.09643 L107.387013,90.4673362 L107.387013,80.1214751 C107.387013,78.5689458 106.121683,77.3101952 104.561039,77.3101952 L87.6051948,77.3101952 C86.0445506,77.3101952 84.7792208,78.5689458 84.7792208,80.1214751 L84.7792208,88.5553145 L62.1714286,88.5553145 L62.1714286,80.1214751 C62.1714286,78.5689458 60.9060987,77.3101952 59.3454545,77.3101952 L42.3896104,77.3101952 C40.8289662,77.3101952 39.5636364,78.5689458 39.5636364,80.1214751 L39.5636364,90.4673362 L11.8295273,129.091158 C11.7606442,129.206421 11.6998857,129.3259 11.6490182,129.447839 C11.5949714,129.538503 11.5469299,129.633384 11.5038338,129.729319 C11.3770182,130.046291 11.3081351,130.38259 11.3038961,130.724512 L11.3038961,158.83731 C11.3038961,160.389839 12.569226,161.64859 14.1298701,161.64859 Z M16.9558442,156.02603 L129.994805,156.02603 L129.994805,133.535792 L16.9558442,133.535792 L16.9558442,156.02603 Z M44.6899532,92.9999479 C45.0318961,92.5237874 45.2155844,91.9527462 45.2155844,91.3665944 L45.2155844,82.9327549 L56.5194805,82.9327549 L56.5194805,91.3665944 C56.5194805,92.9191236 57.7848104,94.1778742 59.3454545,94.1778742 L87.6051948,94.1778742 C89.165839,94.1778742 90.4311688,92.9191236 90.4311688,91.3665944 L90.4311688,82.9327549 L101.735065,82.9327549 L101.735065,91.3665944 C101.735065,91.9527462 101.918753,92.5237874 102.260696,92.9999479 L127.330265,127.913232 L19.6203844,127.913232 L44.6899532,92.9999479 Z" id="Fill-40"></path>
                    <path d="M6.53082597,70.33541 C8.66161039,71.7108286 11.3024831,72.0583731 13.7201039,71.28 L32.1966753,65.375961 C36.1498597,64.1281041 38.6073974,60.2077744 37.9948675,56.1268503 L36.4713143,45.756039 C54.6744727,34.878846 75.1613714,28.3405119 96.3286234,26.6562039 L101.152914,35.983679 C103.040312,39.6583731 107.331906,41.4266681 111.278379,40.1566725 L129.754597,34.2529848 C132.173631,33.4812885 134.117901,31.6722299 135.051886,29.3209458 C135.986223,26.9707158 135.811013,24.3270586 134.576062,22.1195011 L123.913662,3.06675488 C123.488706,2.31157484 122.736644,1.79289371 121.875782,1.66111497 C77.7612675,-5.00899783 33.0532987,9.25332755 1.06539221,40.2005987 C0.442971429,40.8074837 0.135293506,41.6666811 0.234555844,42.5286898 L2.70728312,64.200846 C2.99023377,66.7144816 4.39368312,68.9670195 6.53082597,70.33541 Z M30.4703584,60.0320694 L11.993787,65.9361085 C11.1866182,66.1940434 10.3063273,66.0787809 9.59559481,65.6215965 C8.88344935,65.1647636 8.41575065,64.4138004 8.31931429,63.5777961 L8.05967792,61.2851974 L31.9328,53.6641692 L32.4146286,56.947744 C32.6131532,58.3108633 31.7893818,59.616 30.4703584,60.0320694 Z M129.794868,27.2701171 C129.482951,28.0523557 128.83439,28.6550239 128.028634,28.9115531 L109.552062,34.8141866 C108.236925,35.2344729 106.810161,34.6469154 106.17679,33.4264685 L104.652177,30.4739219 L128.508696,22.8609761 L129.638732,24.8773666 C130.047086,25.6118134 130.103958,26.4889328 129.794868,27.2701171 Z M119.651387,7.02819957 L125.704623,17.8519783 L102.018016,25.3921822 L100.489164,22.4392842 C99.9730701,21.4440911 98.9133299,20.8470456 97.7900052,20.9211931 C74.4343896,22.4656399 51.8142338,29.6832495 31.9137247,41.9439436 C30.9588987,42.535718 30.4466909,43.6338742 30.6109506,44.7415184 L31.0857143,48.0250933 L7.41252987,55.5818134 L5.99954286,43.2715705 C36.3112935,14.5230716 78.1862234,1.16281562 119.651387,7.0116833 L119.651387,7.02819957 Z" id="Fill-42"></path>
                </g>
                <path d="M80.0023287,123 C92.5232423,123 106,119.550042 106,112.000899 C106,104.451756 92.5286162,101 80.0023287,101 C67.4742499,101 54,104.451756 54,112.000899 C54,119.550042 67.4796238,123 80.0023287,123 Z M80.0023287,106.751728 C93.2999552,106.751728 100.267801,110.6514 100.267801,112.000899 C100.267801,113.34896 93.2999552,117.248272 80.0023287,117.248272 C66.7029109,117.248272 59.7321988,113.34896 59.7321988,112.000899 C59.7321988,110.6514 66.7029109,106.751728 80.0023287,106.751728 Z" id="Fill-44" fill="#000000"></path>
                <g id="Group-48" transform="translate(136.000000, 35.000000)" fill="#000000">
                    <path d="M4.13614634,10.2714505 L0.273512195,14.2474505 C11.736439,26.0784406 11.736439,45.226297 0.273512195,57.0558812 L4.13614634,61.0322327 C17.7280976,47.0041089 17.7280976,24.2992228 4.13614634,10.2714505 Z" id="Fill-45"></path>
                    <path d="M13.794439,0.332153465 L9.93317073,4.30850495 C26.7195122,21.6314505 26.7195122,49.6718812 9.93317073,66.9962327 L13.794439,70.9725842 C32.7152683,51.4528564 32.7152683,19.8518812 13.794439,0.332153465 Z" id="Fill-47"></path>
                </g>
                <path d="M129.221433,84 C138.259522,75.7107016 138.259522,62.2906645 129.221433,54 L125,57.8630801 C131.711301,64.0183273 131.711301,73.9830387 125,80.1382859 L129.221433,84 Z" id="Fill-49" fill="#000000"></path>
            </g>
        </g>
        <g id="Artboard" transform="translate(-226.000000, -1932.000000)"></g>
    </g>
</svg>