<?xml version="1.0" encoding="UTF-8"?>
<svg width="163px" height="154px" viewBox="0 0 163 154" version="1.1" xmlns="http://www.w3.org/2000/svg" xmlns:xlink="http://www.w3.org/1999/xlink">
    <!-- Generator: Sketch 63.1 (92452) - https://sketch.com -->
    <title>email</title>
    <desc>Created with Sketch.</desc>
    <defs>
        <polygon id="path-1" points="0.0269421488 0.00733333333 162.673551 0.00733333333 162.673551 154 0.0269421488 154"></polygon>
    </defs>
    <g id="Symbols" stroke="none" stroke-width="1" fill="none" fill-rule="evenodd">
        <g id="Contact-Us/2">
            <g id="email">
                <g id="Group-3">
                    <mask id="mask-2" fill="white">
                        <use xlink:href="#path-1"></use>
                    </mask>
                    <g id="Clip-2"></g>
                    <path d="M162.673551,66.088 L162.673551,151.25 C162.673551,152.768458 161.466992,154 159.979336,154 L2.69421488,154 C1.20700826,154 0,152.768458 0,151.25 L0,66.088 C0,65.1319167 0.476876033,64.28675 1.20700826,63.7963333 L21.9749146,49.742 L21.9749146,2.75733333 C21.9749146,1.238875 23.1814738,0.00733333333 24.6691295,0.00733333333 L138.001278,0.00733333333 C139.488934,0.00733333333 140.695493,1.238875 140.695493,2.75733333 L140.695493,49.7383333 L161.466992,63.7963333 C162.191287,64.28675 162.673551,65.1319167 162.673551,66.088 Z M157.285121,146.128125 L157.285121,70.6603333 L95.3253636,104.206667 L157.285121,146.128125 Z M140.695493,63.338 L151.037237,63.338 L140.695493,56.3374167 L140.695493,63.338 Z M11.6309256,148.5 L151.037237,148.5 L81.337,101.34025 L11.6309256,148.5 Z M140.695493,73.4176667 L149.148143,68.838 L140.695493,68.838 L140.695493,73.4176667 Z M135.307063,76.3322083 L135.307063,5.50733333 L27.3633444,5.50733333 L27.3633444,76.3322083 L72.4559697,100.749458 L79.8457521,95.7472083 C80.747416,95.1385417 81.9225427,95.1385417 82.8242066,95.7472083 L90.2121928,100.749458 L135.307063,76.3322083 Z M5.38842975,146.128125 L67.3450441,104.206667 L5.38842975,70.6603333 L5.38842975,146.128125 Z M21.9749146,73.414 L21.9749146,68.838 L13.5218154,68.838 L21.9749146,73.414 Z M21.9749146,63.338 L21.9749146,56.3410833 L11.6345179,63.338 L21.9749146,63.338 Z" id="Fill-1" fill="#000000" mask="url(#mask-2)"></path>
                </g>
                <polygon id="Fill-4" fill="#3DD0F2" points="157 72 157 148 96 105.782906"></polygon>
                <polygon id="Fill-5" fill="#3DD0F2" points="150 63 139 63 139 56"></polygon>
                <polygon id="Fill-6" fill="#3DD0F2" points="152 148 11 148 81.5029521 100"></polygon>
                <polygon id="Fill-7" fill="#3DD0F2" points="148 70 139 74 139 70"></polygon>
                <path d="M135,7 L135,77.6448237 L90.717143,102 L83.4621906,97.0104667 C82.5767628,96.4033474 81.4227963,96.4033474 80.5373684,97.0104667 L73.2806523,102 L29,77.6448237 L29,7 L135,7 Z M105.725321,50.2700516 L105.725321,48.2434252 C105.725321,34.681989 95.0821082,23.6473212 81.9982362,23.6473212 C68.9178918,23.6473212 58.2746786,34.681989 58.2746786,48.2434252 L58.2746786,49.055813 C58.2746786,62.6172492 68.9178918,73.651917 81.9982362,73.651917 L103.079621,73.651917 C104.538284,73.651917 105.725321,72.423049 105.725321,70.908908 C105.725321,69.3943099 104.538284,68.1658991 103.079621,68.1658991 L81.9982362,68.1658991 C71.8338949,68.1658991 63.5660801,59.5921675 63.5660801,49.055813 L63.5660801,48.2434252 C63.5660801,37.7070707 71.8338949,29.1333391 81.9982362,29.1333391 C92.1643413,29.1333391 100.43392,37.7070707 100.43392,48.2434252 L100.43392,50.2700516 C100.43392,52.5490349 98.6405757,54.4060519 96.4428803,54.4060519 C94.2416573,54.4060519 92.450077,52.5490349 92.450077,50.2700516 L92.450077,46.4252674 C92.450077,39.890963 87.3240318,34.5763832 81.0250593,34.5763832 C74.7207954,34.5763832 69.5947502,39.890963 69.5947502,46.4252674 C69.5947502,52.9577432 74.7207954,58.272323 81.0250593,58.272323 C83.9066683,58.272323 86.5386996,57.1600329 88.5520779,55.3277029 C90.1884438,58.0633972 93.1132659,59.8920698 96.4428803,59.8920698 C101.558343,59.8920698 105.725321,55.5777739 105.725321,50.2700516 Z" id="Fill-8" fill="#FFFFFF"></path>
                <path d="M105,46.5938434 L105,48.6202836 C105,53.9275181 100.960413,58.2414175 96.0013382,58.2414175 C92.7735155,58.2414175 89.9381098,56.4129129 88.3517703,53.6774701 C86.3999442,55.5096316 83.8483784,56.6218195 81.0548648,56.6218195 C74.9433324,56.6218195 69.9739987,51.3077282 69.9739987,44.7758528 C69.9739987,38.2421489 74.9433324,32.9280575 81.0548648,32.9280575 C87.1612675,32.9280575 92.1306012,38.2421489 92.1306012,44.7758528 L92.1306012,48.6202836 C92.1306012,50.8990574 93.8674101,52.7559038 96.0013382,52.7559038 C98.1318465,52.7559038 99.8703652,50.8990574 99.8703652,48.6202836 L99.8703652,46.5938434 C99.8703652,36.0584573 91.853601,27.4855137 81.9982901,27.4855137 C72.1446892,27.4855137 64.1296348,36.0584573 64.1296348,46.5938434 L64.1296348,47.4061566 C64.1296348,57.9415427 72.1446892,66.5144863 81.9982901,66.5144863 L102.435183,66.5144863 C103.849252,66.5144863 105,67.7427843 105,69.2572432 C105,70.7712449 103.849252,72 102.435183,72 L81.9982901,72 C69.3178329,72 59,60.9663464 59,47.4061566 L59,46.5938434 C59,33.0336536 69.3178329,22 81.9982901,22 C94.6821671,22 105,33.0336536 105,46.5938434 Z M87.0009665,44.7758528 C87.0009665,41.2655811 84.3344113,38.4135712 81.0548648,38.4135712 C77.7701886,38.4135712 75.1036335,41.2655811 75.1036335,44.7758528 C75.1036335,48.2829245 77.7701886,51.1363059 81.0548648,51.1363059 C84.3344113,51.1363059 87.0009665,48.2829245 87.0009665,44.7758528 Z" id="Fill-9" fill="#000000"></path>
                <path d="M80.5028025,39 C84.0863035,39 87,41.9141636 87,45.5009342 C87,49.0844352 84.0863035,52 80.5028025,52 C76.9136965,52 74,49.0844352 74,45.5009342 C74,41.9141636 76.9136965,39 80.5028025,39 Z" id="Fill-10" fill="#FFFFFF"></path>
                <polygon id="Fill-11" fill="#3DD0F2" points="65 105.782906 4 148 4 72"></polygon>
                <polygon id="Fill-12" fill="#3DD0F2" points="24 70 24 74 15 70"></polygon>
                <polygon id="Fill-13" fill="#3DD0F2" points="24 56 24 63 13 63"></polygon>
            </g>
        </g>
        <g id="Artboard" transform="translate(-450.000000, -1939.000000)"></g>
    </g>
</svg>