<svg width="16" height="16" viewBox="0 0 16 16" fill="none" xmlns="http://www.w3.org/2000/svg">
<path d="M11.2712 5.30905L9.92754 5.26221L9.63623 12.8239L10.9799 12.8705L11.2712 5.30905Z" fill="#515151"/>
<rect x="7.32764" y="5.28564" width="1.34453" height="7.56172" fill="#515151"/>
<path d="M6.36335 12.8239L6.07205 5.26221L4.72839 5.30908L5.01973 12.8708L6.36335 12.8239Z" fill="#515151"/>
<path fill-rule="evenodd" clip-rule="evenodd" d="M-0.00012207 3.41132V2.1333H15.9999V3.41132H14.5762L13.4647 15.4168C13.4345 15.7467 13.1436 16 12.7952 16H3.18193C2.83349 16 2.54282 15.7469 2.51235 15.417L1.40089 3.41132H-0.00012207ZM3.79753 14.7219H12.1794L13.2266 3.41132H2.75058L3.79753 14.7219Z" fill="#515151"/>
<path d="M10.2701 0H5.72958C5.09089 0 4.57129 0.494995 4.57129 1.10344V3.2H5.96124V1.32412H10.0385V3.2H11.4284V1.10344C11.4284 0.494995 10.9088 0 10.2701 0Z" fill="#515151"/>
</svg>
