<svg width="16" height="16" viewBox="0 0 16 16" fill="red" xmlns="http://www.w3.org/2000/svg">
  <path d="M11.2717 5.30923L9.92803 5.26239L9.63672 12.8241L10.9804 12.8707L11.2717 5.30923Z" />
  <rect x="7.32812" y="5.28581" width="1.34453" height="7.56172" />
  <path d="M6.36348 12.8239L6.07217 5.26216L4.72852 5.30904L5.01986 12.8707L6.36348 12.8239Z" />
  <path fill-rule="evenodd" clip-rule="evenodd" d="M0 3.41136V2.13334H16V3.41136H14.5764L13.4649 15.4168C13.4346 15.7467 13.1438 16 12.7953 16H3.18205C2.83361 16 2.54294 15.7469 2.51247 15.417L1.40102 3.41136H0ZM3.79765 14.722H12.1795L13.2267 3.41136H2.75071L3.79765 14.722Z" />
  <path d="M10.2701 0H5.72958C5.09089 0 4.57129 0.494995 4.57129 1.10344V3.2H5.96124V1.32412H10.0385V3.2H11.4284V1.10344C11.4284 0.494995 10.9088 0 10.2701 0Z" />
</svg>
