<svg width="16" height="17" viewBox="0 0 16 17" fill="none" xmlns="http://www.w3.org/2000/svg">
<path fill-rule="evenodd" clip-rule="evenodd" d="M9.22315 1.64125V5.67661C9.20125 5.66086 9.18144 5.64676 9.16306 5.63367C9.12735 5.60824 9.09703 5.58666 9.06726 5.56436C8.80007 5.36407 8.53294 5.16371 8.2658 4.96335C7.94739 4.72453 7.62897 4.48571 7.31047 4.24701C7.09172 4.0831 6.9963 4.08322 6.77555 4.24846C6.40652 4.5247 6.03764 4.80118 5.66878 5.07765C5.44806 5.24309 5.22734 5.40853 5.00659 5.57391C4.97888 5.59464 4.95091 5.615 4.91682 5.63981C4.90039 5.65176 4.88255 5.66475 4.86263 5.67931V1.64125H9.22315ZM12.8405 1.00973C12.8319 1.00642 12.8232 1.00311 12.8145 1H1.24215C1.20323 1.01878 1.1636 1.03648 1.12397 1.05418C1.03626 1.09335 0.948539 1.13253 0.868337 1.18348C0.657534 1.3175 0.559177 1.53487 0.480469 1.76172V13.334C0.720861 13.9687 0.947006 14.125 1.62489 14.125L2.40363 14.125C3.70152 14.1251 4.99943 14.1251 6.29731 14.1249C6.30977 14.1249 6.32226 14.1251 6.33476 14.1253C6.37614 14.1258 6.41763 14.1264 6.45818 14.1207C6.61857 14.0984 6.72859 13.9665 6.72585 13.8059C6.72307 13.6432 6.61047 13.5216 6.44487 13.5062C6.40137 13.5021 6.35743 13.5023 6.31356 13.5026C6.30367 13.5026 6.29377 13.5027 6.28389 13.5027C5.56279 13.5026 4.8417 13.5026 4.1206 13.5026C3.25494 13.5025 2.38928 13.5025 1.5236 13.5024C1.2144 13.5023 1.10325 13.3947 1.10325 13.0932C1.1029 9.40703 1.1029 5.72083 1.10321 2.03464C1.10321 1.73092 1.21315 1.62286 1.52055 1.6227C2.13224 1.62239 2.7439 1.62245 3.35558 1.6225C3.59344 1.62252 3.8313 1.62255 4.06917 1.62255H4.23046V1.82122C4.23046 2.1511 4.23051 2.48098 4.23056 2.81087C4.23073 3.9457 4.2309 5.08054 4.22905 6.21536C4.22878 6.37125 4.25003 6.51007 4.40177 6.58929C4.55563 6.66964 4.68044 6.60221 4.80432 6.50863C5.21039 6.20184 5.61782 5.89681 6.02525 5.59178C6.16869 5.48438 6.31213 5.37699 6.45551 5.26952C6.5886 5.16977 6.72175 5.07009 6.8562 4.96944C6.91826 4.92298 6.9806 4.87631 7.04334 4.82933C7.09074 4.86468 7.13744 4.89949 7.18364 4.93392C7.28939 5.01272 7.39254 5.08959 7.49544 5.16678C7.70548 5.32434 7.91545 5.48199 8.12542 5.63963C8.52038 5.93618 8.91535 6.23272 9.31075 6.52867C9.47908 6.65465 9.6502 6.66479 9.75509 6.53C9.8149 6.45313 9.85102 6.33669 9.85141 6.2379C9.8562 5.03852 9.85593 3.83912 9.85565 2.63974C9.85559 2.35977 9.85552 2.07981 9.85552 1.79985V1.62255H10.0382H12.5136C12.8929 1.62258 12.983 1.71131 12.983 2.08552C12.983 2.50677 12.983 2.92801 12.9829 3.34925C12.9829 4.52942 12.9828 5.70959 12.9837 6.88976C12.9838 7.11712 13.1046 7.24898 13.2996 7.24561C13.485 7.24244 13.605 7.10694 13.605 6.89148L13.6052 6.51001C13.606 4.98691 13.6067 3.46385 13.6043 1.94079C13.6036 1.49902 13.3221 1.14485 12.8965 1.029C12.8775 1.02383 12.859 1.01678 12.8405 1.00973ZM14.8572 11.9374C14.8585 10.0524 13.3174 8.50557 11.4326 8.50013C9.52995 8.49462 7.98024 10.0376 7.98063 11.937C7.98099 13.8299 9.52592 15.3763 11.4176 15.3772C13.3071 15.3781 14.8559 13.8292 14.8572 11.9374ZM7.3586 11.9364C7.35954 9.69227 9.17453 7.87798 11.4187 7.87782C13.6595 7.87767 15.4817 9.69924 15.4804 11.9381C15.4791 14.1773 13.6542 16.0016 11.417 16C9.17618 15.9984 7.3577 14.1776 7.3586 11.9364ZM10.7765 12.7316L12.1745 11.1343L12.3374 10.9476L12.3375 10.9475C12.4595 10.8076 12.5814 10.6678 12.7047 10.529C12.862 10.3519 13.0438 10.3264 13.188 10.4572C13.3261 10.5825 13.3234 10.77 13.1771 10.9373C12.4775 11.7379 11.7774 12.5381 11.0766 13.3375C10.8905 13.5498 10.7189 13.5547 10.5188 13.3553L10.5002 13.3368C10.1126 12.9504 9.72503 12.5639 9.33977 12.1751C9.22329 12.0575 9.20204 11.9124 9.27073 11.788C9.33675 11.6684 9.47022 11.5978 9.60478 11.6387C9.68392 11.6628 9.76059 11.7181 9.82094 11.7772C10.0557 12.0071 10.2875 12.2402 10.5249 12.4789L10.525 12.479C10.608 12.5625 10.6917 12.6466 10.7765 12.7316Z" fill="black"/>
<path d="M9.22315 5.67661L9.17938 5.7375L9.29815 5.82289V5.67661H9.22315ZM9.22315 1.64125H9.29815V1.56625H9.22315V1.64125ZM9.16306 5.63367L9.11956 5.69477L9.16306 5.63367ZM9.06726 5.56436L9.02228 5.62437L9.0223 5.62438L9.06726 5.56436ZM8.2658 4.96335L8.2208 5.02335H8.2208L8.2658 4.96335ZM7.31047 4.24701L7.35545 4.187L7.35544 4.187L7.31047 4.24701ZM6.77555 4.24846L6.8205 4.30851L6.8205 4.3085L6.77555 4.24846ZM5.66878 5.07765L5.6238 5.01764L5.66878 5.07765ZM5.00659 5.57391L5.05152 5.63396L5.05155 5.63393L5.00659 5.57391ZM4.91682 5.63981L4.96095 5.70045L4.96095 5.70045L4.91682 5.63981ZM4.86263 5.67931H4.78763V5.82703L4.90689 5.73986L4.86263 5.67931ZM4.86263 1.64125V1.56625H4.78763V1.64125H4.86263ZM12.8145 1L12.8397 0.929372L12.8275 0.925H12.8145V1ZM12.8405 1.00973L12.8138 1.07979L12.8138 1.07979L12.8405 1.00973ZM1.24215 1V0.925H1.22501L1.20956 0.932451L1.24215 1ZM1.12397 1.05418L1.09339 0.985699L1.09339 0.985699L1.12397 1.05418ZM0.868337 1.18348L0.828119 1.12018L0.8281 1.12019L0.868337 1.18348ZM0.480469 1.76172L0.409613 1.73714L0.405469 1.74908V1.76172H0.480469ZM0.480469 13.334H0.405469V13.3478L0.410331 13.3606L0.480469 13.334ZM1.62489 14.125L1.62489 14.05H1.62489V14.125ZM2.40363 14.125L2.40363 14.05H2.40363L2.40363 14.125ZM6.29731 14.1249V14.0499H6.29731L6.29731 14.1249ZM6.33476 14.1253L6.3358 14.0503H6.3358L6.33476 14.1253ZM6.45818 14.1207L6.44784 14.0465L6.44777 14.0465L6.45818 14.1207ZM6.72585 13.8059L6.80084 13.8046L6.80084 13.8046L6.72585 13.8059ZM6.44487 13.5062L6.4379 13.5809L6.43793 13.5809L6.44487 13.5062ZM6.31356 13.5026L6.31319 13.4276H6.31319L6.31356 13.5026ZM6.28389 13.5027L6.28388 13.5777H6.28389V13.5027ZM4.1206 13.5026L4.1206 13.4276H4.1206L4.1206 13.5026ZM1.5236 13.5024L1.52358 13.5774H1.52359L1.5236 13.5024ZM1.10325 13.0932H1.17825V13.0932L1.10325 13.0932ZM1.10321 2.03464L1.17821 2.03465V2.03464H1.10321ZM1.52055 1.6227L1.52051 1.5477H1.52051L1.52055 1.6227ZM3.35558 1.6225L3.35557 1.6975L3.35558 1.6225ZM4.23046 1.62255H4.30546V1.54755H4.23046V1.62255ZM4.23056 2.81087L4.15556 2.81088L4.23056 2.81087ZM4.22905 6.21536L4.30405 6.21549V6.21548L4.22905 6.21536ZM4.40177 6.58929L4.43649 6.52281L4.43648 6.52281L4.40177 6.58929ZM4.80432 6.50863L4.84952 6.56847L4.84953 6.56847L4.80432 6.50863ZM6.02525 5.59178L5.9803 5.53174L6.02525 5.59178ZM6.45551 5.26952L6.41053 5.20951L6.41053 5.20951L6.45551 5.26952ZM6.8562 4.96944L6.90115 5.02948L6.8562 4.96944ZM7.04334 4.82933L7.08819 4.76921L7.04326 4.73569L6.99839 4.76929L7.04334 4.82933ZM7.18364 4.93392L7.13883 4.99406H7.13883L7.18364 4.93392ZM7.49544 5.16678L7.54044 5.10679L7.54044 5.10679L7.49544 5.16678ZM8.12542 5.63963L8.08038 5.69961L8.12542 5.63963ZM9.31075 6.52867L9.26581 6.58871L9.26581 6.58871L9.31075 6.52867ZM9.75509 6.53L9.81428 6.57606L9.81429 6.57605L9.75509 6.53ZM9.85141 6.2379L9.77641 6.2376V6.2376L9.85141 6.2379ZM9.85565 2.63974L9.93065 2.63972V2.63972L9.85565 2.63974ZM9.85552 1.62255V1.54755H9.78052V1.62255H9.85552ZM12.5136 1.62255L12.5136 1.54755H12.5136V1.62255ZM12.983 2.08552H12.908V2.08553L12.983 2.08552ZM12.9829 3.34925L13.0579 3.34926L12.9829 3.34925ZM12.9837 6.88976L13.0587 6.88971V6.88971L12.9837 6.88976ZM13.2996 7.24561L13.2983 7.17063H13.2983L13.2996 7.24561ZM13.605 6.89148L13.53 6.89145V6.89146L13.605 6.89148ZM13.6052 6.51001L13.5302 6.50997V6.50997L13.6052 6.51001ZM13.6043 1.94079L13.5293 1.9409V1.94091L13.6043 1.94079ZM12.8965 1.029L12.9162 0.956634L12.9162 0.956633L12.8965 1.029ZM11.4326 8.50013L11.4324 8.57513H11.4324L11.4326 8.50013ZM14.8572 11.9374L14.9322 11.9375V11.9375L14.8572 11.9374ZM7.98063 11.937L8.05563 11.937V11.937L7.98063 11.937ZM11.4176 15.3772L11.4176 15.4522H11.4176L11.4176 15.3772ZM11.4187 7.87782L11.4187 7.95282L11.4187 7.87782ZM7.3586 11.9364L7.2836 11.9364V11.9364L7.3586 11.9364ZM15.4804 11.9381L15.4054 11.9381V11.9381L15.4804 11.9381ZM11.417 16L11.417 16.075H11.417L11.417 16ZM12.1745 11.1343L12.2309 11.1837L12.231 11.1836L12.1745 11.1343ZM10.7765 12.7316L10.7234 12.7845L10.7801 12.8414L10.8329 12.781L10.7765 12.7316ZM12.3374 10.9476L12.3939 10.9969L12.3941 10.9967L12.3374 10.9476ZM12.3375 10.9475L12.281 10.8982L12.2808 10.8984L12.3375 10.9475ZM12.7047 10.529L12.7607 10.5788L12.7608 10.5788L12.7047 10.529ZM13.188 10.4572L13.2384 10.4017L13.2384 10.4017L13.188 10.4572ZM13.1771 10.9373L13.1206 10.888L13.1206 10.888L13.1771 10.9373ZM11.0766 13.3375L11.0202 13.2881L11.0202 13.2881L11.0766 13.3375ZM10.5188 13.3553L10.4658 13.4084L10.4658 13.4084L10.5188 13.3553ZM10.5002 13.3368L10.5532 13.2837L10.5532 13.2837L10.5002 13.3368ZM9.33977 12.1751L9.28649 12.2279L9.28649 12.2279L9.33977 12.1751ZM9.27073 11.788L9.33638 11.8243L9.33639 11.8243L9.27073 11.788ZM9.60478 11.6387L9.6266 11.567L9.62659 11.567L9.60478 11.6387ZM9.82094 11.7772L9.76847 11.8308L9.82094 11.7772ZM10.5249 12.4789L10.4718 12.5318L10.4719 12.5319L10.5249 12.4789ZM10.525 12.479L10.5782 12.4261L10.5781 12.426L10.525 12.479ZM9.29815 5.67661V1.64125H9.14815V5.67661H9.29815ZM9.11956 5.69477C9.13795 5.70786 9.15763 5.72187 9.17938 5.7375L9.26693 5.61571C9.24487 5.59985 9.22493 5.58565 9.20656 5.57257L9.11956 5.69477ZM9.0223 5.62438C9.05292 5.64733 9.084 5.66945 9.11956 5.69477L9.20656 5.57257C9.17069 5.54703 9.14114 5.52599 9.11223 5.50433L9.0223 5.62438ZM8.2208 5.02335C8.48793 5.22371 8.75508 5.42407 9.02228 5.62437L9.11225 5.50435C8.84507 5.30407 8.57794 5.10371 8.3108 4.90335L8.2208 5.02335ZM7.26549 4.30703C7.58398 4.54571 7.90238 4.78453 8.2208 5.02335L8.3108 4.90335C7.99239 4.66453 7.67397 4.4257 7.35545 4.187L7.26549 4.30703ZM6.8205 4.3085C6.93013 4.22644 6.99177 4.19943 7.04395 4.1993C7.09594 4.19917 7.15696 4.22571 7.26549 4.30703L7.35544 4.187C7.24523 4.10441 7.14916 4.04904 7.04357 4.0493C6.93817 4.04957 6.84172 4.10524 6.73061 4.18842L6.8205 4.3085ZM5.71376 5.13767C6.08263 4.86119 6.45148 4.58472 6.8205 4.30851L6.73061 4.18842C6.36155 4.46467 5.99266 4.74117 5.6238 5.01764L5.71376 5.13767ZM5.05155 5.63393C5.27231 5.46854 5.49304 5.3031 5.71376 5.13767L5.6238 5.01764C5.40307 5.18308 5.18236 5.34851 4.96162 5.51388L5.05155 5.63393ZM4.96095 5.70045C4.99495 5.6757 5.02334 5.65504 5.05152 5.63396L4.96165 5.51386C4.93442 5.53424 4.90686 5.5543 4.87268 5.57917L4.96095 5.70045ZM4.90689 5.73986C4.92674 5.72535 4.94452 5.71241 4.96095 5.70045L4.87268 5.57917C4.85626 5.59112 4.83836 5.60415 4.81837 5.61876L4.90689 5.73986ZM4.78763 1.64125V5.67931H4.93763V1.64125H4.78763ZM9.22315 1.56625H4.86263V1.71625H9.22315V1.56625ZM12.7893 1.07063C12.7971 1.07342 12.805 1.07643 12.8138 1.07979L12.8673 0.939663C12.8588 0.936404 12.8494 0.932803 12.8397 0.929372L12.7893 1.07063ZM1.24215 1.075H12.8145V0.925H1.24215V1.075ZM1.15456 1.12266C1.19401 1.10504 1.23465 1.08689 1.27474 1.06755L1.20956 0.932451C1.1718 0.950672 1.13319 0.967923 1.09339 0.985699L1.15456 1.12266ZM0.908554 1.24679C0.983344 1.19928 1.06596 1.16223 1.15456 1.12266L1.09339 0.985699C1.00656 1.02448 0.913733 1.06579 0.828119 1.12018L0.908554 1.24679ZM0.551325 1.78631C0.62939 1.56131 0.720945 1.36606 0.908574 1.24678L0.8281 1.12019C0.594122 1.26894 0.488965 1.50844 0.409613 1.73714L0.551325 1.78631ZM0.555469 13.334V1.76172H0.405469V13.334H0.555469ZM1.62489 14.05C1.28893 14.05 1.08278 14.0106 0.931265 13.9059C0.779731 13.8011 0.669756 13.6221 0.550606 13.3075L0.410331 13.3606C0.531573 13.6807 0.654867 13.8972 0.845977 14.0292C1.03711 14.1614 1.28297 14.2 1.62489 14.2V14.05ZM2.40363 14.05L1.62489 14.05L1.62489 14.2L2.40363 14.2L2.40363 14.05ZM6.29731 14.0499C4.99943 14.0501 3.70152 14.0501 2.40363 14.05L2.40363 14.2C3.70152 14.2001 4.99943 14.2001 6.29732 14.1999L6.29731 14.0499ZM6.3358 14.0503C6.32338 14.0501 6.31037 14.0499 6.29731 14.0499V14.1999C6.30916 14.1999 6.32114 14.2001 6.33373 14.2003L6.3358 14.0503ZM6.44777 14.0465C6.41389 14.0512 6.3782 14.0509 6.3358 14.0503L6.33373 14.2003C6.37407 14.2008 6.42137 14.2016 6.46858 14.195L6.44777 14.0465ZM6.65086 13.8072C6.65297 13.9307 6.5699 14.0295 6.44784 14.0465L6.46851 14.195C6.66724 14.1674 6.80421 14.0023 6.80084 13.8046L6.65086 13.8072ZM6.43793 13.5809C6.56595 13.5927 6.64874 13.6832 6.65086 13.8072L6.80084 13.8046C6.7974 13.6031 6.65498 13.4504 6.45181 13.4315L6.43793 13.5809ZM6.31393 13.5776C6.35844 13.5773 6.39868 13.5772 6.4379 13.5809L6.45183 13.4315C6.40406 13.427 6.35643 13.4273 6.31319 13.4276L6.31393 13.5776ZM6.28389 13.5777C6.29399 13.5777 6.30407 13.5776 6.31394 13.5776L6.31319 13.4276C6.30326 13.4276 6.29355 13.4277 6.28389 13.4277V13.5777ZM4.1206 13.5776C4.8417 13.5776 5.56278 13.5776 6.28388 13.5777L6.2839 13.4277C5.56279 13.4276 4.8417 13.4276 4.1206 13.4276L4.1206 13.5776ZM1.52359 13.5774C2.38927 13.5775 3.25494 13.5775 4.1206 13.5776L4.1206 13.4276C3.25494 13.4275 2.38928 13.4275 1.52362 13.4274L1.52359 13.5774ZM1.02825 13.0932C1.02825 13.2498 1.05641 13.3783 1.14519 13.4646C1.23339 13.5503 1.36397 13.5773 1.52358 13.5774L1.52362 13.4274C1.37404 13.4273 1.29444 13.4005 1.24976 13.357C1.20567 13.3142 1.17825 13.2381 1.17825 13.0932H1.02825ZM1.02821 2.03463C1.0279 5.72083 1.0279 9.40703 1.02825 13.0932L1.17825 13.0932C1.1779 9.40703 1.1779 5.72084 1.17821 2.03465L1.02821 2.03463ZM1.52051 1.5477C1.36168 1.54778 1.23163 1.57496 1.14394 1.66144C1.05596 1.74821 1.02821 1.87723 1.02821 2.03464H1.17821C1.17821 1.88834 1.20543 1.81147 1.24927 1.76824C1.2934 1.72472 1.37202 1.69778 1.52059 1.6977L1.52051 1.5477ZM3.35558 1.5475C2.74391 1.54745 2.13222 1.54739 1.52051 1.5477L1.52059 1.6977C2.13225 1.69739 2.74389 1.69745 3.35557 1.6975L3.35558 1.5475ZM4.06917 1.54755C3.83131 1.54755 3.59345 1.54752 3.35558 1.5475L3.35557 1.6975C3.59343 1.69752 3.8313 1.69755 4.06917 1.69755V1.54755ZM4.23046 1.54755H4.06917V1.69755H4.23046V1.54755ZM4.30546 1.82122V1.62255H4.15546V1.82122H4.30546ZM4.30556 2.81086C4.30551 2.48097 4.30546 2.15109 4.30546 1.82122H4.15546C4.15546 2.1511 4.15551 2.48099 4.15556 2.81088L4.30556 2.81086ZM4.30405 6.21548C4.3059 5.08058 4.30573 3.94567 4.30556 2.81086L4.15556 2.81088C4.15573 3.94572 4.1559 5.08049 4.15405 6.21523L4.30405 6.21548ZM4.43648 6.52281C4.37745 6.49199 4.3465 6.45198 4.32855 6.40454C4.30936 6.3538 4.30392 6.29155 4.30405 6.21549L4.15405 6.21523C4.15391 6.29506 4.15896 6.38017 4.18826 6.45761C4.2188 6.53836 4.27435 6.60738 4.36706 6.65578L4.43648 6.52281ZM4.75911 6.44878C4.69858 6.49451 4.64573 6.52745 4.59401 6.54198C4.54602 6.55545 4.49606 6.55392 4.43649 6.52281L4.36705 6.65577C4.46133 6.70501 4.55071 6.70994 4.63456 6.68639C4.71469 6.66389 4.78618 6.61633 4.84952 6.56847L4.75911 6.44878ZM5.9803 5.53174C5.57289 5.83675 5.16533 6.14188 4.75911 6.44878L4.84953 6.56847C5.25545 6.2618 5.66275 5.95686 6.0702 5.65181L5.9803 5.53174ZM6.41053 5.20951C6.26717 5.31696 6.12374 5.42434 5.9803 5.53174L6.0702 5.65181C6.21363 5.54442 6.35709 5.43702 6.5005 5.32954L6.41053 5.20951ZM6.81126 4.9094C6.67681 5.01005 6.54364 5.10974 6.41053 5.20951L6.50049 5.32954C6.63357 5.2298 6.7667 5.13014 6.90115 5.02948L6.81126 4.9094ZM6.99839 4.76929C6.93565 4.81627 6.87332 4.86294 6.81126 4.9094L6.90115 5.02948C6.96321 4.98302 7.02555 4.93634 7.0883 4.88936L6.99839 4.76929ZM7.22846 4.87378C7.18225 4.83935 7.13557 4.80456 7.08819 4.76921L6.99849 4.88944C7.04591 4.92481 7.09262 4.95963 7.13883 4.99406L7.22846 4.87378ZM7.54044 5.10679C7.43743 5.02951 7.33419 4.95257 7.22846 4.87378L7.13883 4.99406C7.24459 5.07287 7.34764 5.14967 7.45043 5.22678L7.54044 5.10679ZM8.17045 5.57966C7.96048 5.42201 7.7505 5.26436 7.54044 5.10679L7.45043 5.22678C7.66045 5.38433 7.87041 5.54196 8.08038 5.69961L8.17045 5.57966ZM9.35569 6.46862C8.96034 6.17272 8.56542 5.87621 8.17045 5.57966L8.08038 5.69961C8.47534 5.99615 8.87035 6.29273 9.26581 6.58871L9.35569 6.46862ZM9.6959 6.48394C9.65784 6.53286 9.6112 6.55313 9.55811 6.55214C9.50177 6.55109 9.43183 6.52561 9.35569 6.46862L9.26581 6.58871C9.358 6.65771 9.45778 6.70029 9.55531 6.70211C9.65609 6.70399 9.74746 6.66193 9.81428 6.57606L9.6959 6.48394ZM9.77641 6.2376C9.77608 6.32188 9.74432 6.4217 9.6959 6.48394L9.81429 6.57605C9.88548 6.48455 9.92596 6.35149 9.92641 6.2382L9.77641 6.2376ZM9.78065 2.63975C9.78093 3.83917 9.78121 5.03841 9.77641 6.2376L9.92641 6.2382C9.9312 5.03864 9.93093 3.83908 9.93065 2.63972L9.78065 2.63975ZM9.78052 1.79985C9.78052 2.07982 9.78059 2.35979 9.78065 2.63975L9.93065 2.63972C9.93059 2.35975 9.93052 2.0798 9.93052 1.79985H9.78052ZM9.78052 1.62255V1.79985H9.93052V1.62255H9.78052ZM10.0382 1.54755H9.85552V1.69755H10.0382V1.54755ZM12.5136 1.54755H10.0382V1.69755H12.5136V1.54755ZM13.058 2.08552C13.058 1.89962 13.0376 1.75339 12.9432 1.66032C12.8492 1.56762 12.7018 1.54757 12.5136 1.54755L12.5136 1.69755C12.7047 1.69757 12.792 1.7219 12.8379 1.76712C12.8834 1.81197 12.908 1.89722 12.908 2.08552H13.058ZM13.0579 3.34926C13.058 2.92801 13.058 2.50677 13.058 2.08552L12.908 2.08553C12.908 2.50677 12.908 2.92801 12.9079 3.34925L13.0579 3.34926ZM13.0587 6.88971C13.0578 5.70957 13.0579 4.52943 13.0579 3.34926L12.9079 3.34925C12.9079 4.52942 12.9078 5.70961 12.9087 6.88981L13.0587 6.88971ZM13.2983 7.17063C13.2189 7.172 13.1622 7.14636 13.1244 7.10418C13.0856 7.06077 13.0587 6.9908 13.0587 6.88971L12.9087 6.88981C12.9088 7.01609 12.9424 7.12572 13.0127 7.20424C13.0841 7.28399 13.1853 7.3226 13.3009 7.3206L13.2983 7.17063ZM13.53 6.89146C13.53 6.98565 13.5039 7.05447 13.4652 7.09897C13.4274 7.14252 13.372 7.16937 13.2983 7.17063L13.3008 7.3206C13.4126 7.31869 13.5099 7.2762 13.5784 7.19735C13.6461 7.11944 13.68 7.01278 13.68 6.89151L13.53 6.89146ZM13.5302 6.50997L13.53 6.89145L13.68 6.89152L13.6802 6.51005L13.5302 6.50997ZM13.5293 1.94091C13.5317 3.46388 13.531 4.98686 13.5302 6.50997L13.6802 6.51005C13.681 4.98696 13.6817 3.46382 13.6793 1.94066L13.5293 1.94091ZM12.8768 1.10137C13.2711 1.20868 13.5286 1.53418 13.5293 1.9409L13.6793 1.94067C13.6785 1.46387 13.3732 1.08103 12.9162 0.956634L12.8768 1.10137ZM12.8138 1.07979C12.8316 1.08661 12.8536 1.09506 12.8768 1.10137L12.9162 0.956633C12.9014 0.952606 12.8864 0.946942 12.8673 0.939662L12.8138 1.07979ZM11.4324 8.57513C13.2759 8.58045 14.7834 10.0936 14.7822 11.9374L14.9322 11.9375C14.9335 10.0111 13.359 8.43069 11.4328 8.42513L11.4324 8.57513ZM8.05563 11.937C8.05525 10.0792 9.57113 8.56974 11.4324 8.57513L11.4328 8.42513C9.48878 8.4195 7.90523 9.99594 7.90563 11.937L8.05563 11.937ZM11.4177 15.3022C9.5674 15.3013 8.05598 13.7886 8.05563 11.937L7.90563 11.937C7.90599 13.8713 9.48444 15.4513 11.4176 15.4522L11.4177 15.3022ZM14.7822 11.9374C14.7809 13.7878 13.2656 15.3031 11.4177 15.3022L11.4176 15.4522C13.3486 15.4531 14.9309 13.8705 14.9322 11.9375L14.7822 11.9374ZM11.4187 7.80282C9.13312 7.80298 7.28455 9.65083 7.2836 11.9364L7.4336 11.9364C7.43452 9.73371 9.21594 7.95298 11.4187 7.95282L11.4187 7.80282ZM15.5554 11.9382C15.5567 9.65778 13.7009 7.80266 11.4187 7.80282L11.4187 7.95282C13.6181 7.95267 15.4067 9.74069 15.4054 11.9381L15.5554 11.9382ZM11.417 16.075C13.6956 16.0766 15.5541 14.2187 15.5554 11.9382L15.4054 11.9381C15.4041 14.1359 13.6127 15.9265 11.4171 15.925L11.417 16.075ZM7.2836 11.9364C7.28268 14.219 9.1347 16.0734 11.417 16.075L11.4171 15.925C9.21765 15.9234 7.43271 14.1362 7.4336 11.9364L7.2836 11.9364ZM12.118 11.0849L10.72 12.6822L10.8329 12.781L12.2309 11.1837L12.118 11.0849ZM12.2809 10.8983L12.118 11.085L12.231 11.1836L12.3939 10.9969L12.2809 10.8983ZM12.2808 10.8984L12.2808 10.8985L12.3941 10.9967L12.3942 10.9966L12.2808 10.8984ZM12.6486 10.4792C12.5251 10.6183 12.4029 10.7584 12.281 10.8982L12.394 10.9968C12.516 10.8569 12.6378 10.7173 12.7607 10.5788L12.6486 10.4792ZM13.2384 10.4017C13.1519 10.3231 13.0485 10.2876 12.9404 10.3034C12.8346 10.3189 12.735 10.3819 12.6486 10.4792L12.7608 10.5788C12.8317 10.499 12.9016 10.4607 12.9621 10.4518C13.0204 10.4433 13.08 10.4605 13.1376 10.5128L13.2384 10.4017ZM13.2335 10.9867C13.3154 10.8931 13.362 10.7881 13.3642 10.683C13.3664 10.5765 13.3224 10.4779 13.2384 10.4017L13.1376 10.5128C13.1917 10.5618 13.2154 10.6196 13.2142 10.68C13.2129 10.7418 13.1851 10.8142 13.1206 10.888L13.2335 10.9867ZM11.133 13.387C11.8338 12.5875 12.5339 11.7872 13.2336 10.9867L13.1206 10.888C12.421 11.6885 11.721 12.4887 11.0202 13.2881L11.133 13.387ZM10.4658 13.4084C10.572 13.5142 10.6839 13.5795 10.8053 13.5758C10.9268 13.572 11.0341 13.4997 11.133 13.387L11.0202 13.2881C10.933 13.3876 10.8615 13.424 10.8006 13.4258C10.7396 13.4277 10.6656 13.3958 10.5717 13.3021L10.4658 13.4084ZM10.4473 13.3899L10.4658 13.4084L10.5717 13.3021L10.5532 13.2837L10.4473 13.3899ZM9.28649 12.2279C9.67194 12.6169 10.0597 13.0035 10.4473 13.3899L10.5532 13.2837C10.1656 12.8972 9.77812 12.5109 9.39304 12.1223L9.28649 12.2279ZM9.20507 11.7518C9.11852 11.9085 9.14927 12.0894 9.28649 12.2279L9.39305 12.1223C9.29731 12.0257 9.28556 11.9163 9.33638 11.8243L9.20507 11.7518ZM9.62659 11.567C9.45173 11.5138 9.28474 11.6074 9.20506 11.7518L9.33639 11.8243C9.38877 11.7294 9.48871 11.6818 9.58297 11.7105L9.62659 11.567ZM9.87342 11.7236C9.80846 11.66 9.72165 11.5959 9.6266 11.567L9.58295 11.7105C9.64619 11.7297 9.71272 11.7762 9.76847 11.8308L9.87342 11.7236ZM10.5781 12.426C10.3407 12.1873 10.1086 11.954 9.87342 11.7236L9.76847 11.8308C10.0029 12.0603 10.2343 12.293 10.4718 12.5318L10.5781 12.426ZM10.5781 12.426L10.578 12.4259L10.4719 12.5319L10.472 12.532L10.5781 12.426ZM10.8296 12.6786C10.7449 12.5937 10.6612 12.5096 10.5782 12.4261L10.4718 12.5319C10.5548 12.6153 10.6386 12.6995 10.7234 12.7845L10.8296 12.6786Z" fill="black"/>
</svg>
