<svg width="20" height="12" viewBox="0 0 20 12" fill="none" xmlns="http://www.w3.org/2000/svg">
<path fill-rule="evenodd" clip-rule="evenodd" d="M3.73505 2.50444V2.5035C4.29436 2.5035 4.85372 2.50793 5.41298 2.50151C5.66939 2.49854 5.83271 2.32343 5.82895 2.08257C5.8254 1.85324 5.6601 1.67719 5.41715 1.67614C4.30506 1.6715 3.19291 1.67202 2.08081 1.67614C1.87366 1.67692 1.71232 1.82391 1.68049 2.01025C1.63317 2.28721 1.81454 2.50005 2.11567 2.50297C2.65541 2.50819 3.19526 2.50444 3.73505 2.50444ZM3.32957 5.00815V5.0093C4.00649 5.0093 4.68346 5.01123 5.36038 5.00847C5.65389 5.00727 5.82634 4.85229 5.8288 4.60016C5.83135 4.34135 5.65113 4.17871 5.35151 4.17845C4.01061 4.17715 2.66971 4.17788 1.3288 4.17788C1.30929 4.17788 1.28977 4.17751 1.27026 4.17835C1.01813 4.1892 0.838997 4.35847 0.83524 4.58931C0.831535 4.81796 1.01025 5.00429 1.25967 5.00627C1.94958 5.0117 2.63955 5.00815 3.32957 5.00815ZM2.92204 7.5137C3.74142 7.5137 4.56079 7.51641 5.38005 7.51234C5.69099 7.51083 5.87816 7.28917 5.82139 7.00798C5.78006 6.80338 5.6111 6.68337 5.35276 6.68295C4.49442 6.68165 3.63607 6.68243 2.77772 6.68243C2.01037 6.68243 1.24307 6.68394 0.475777 6.68144C0.291219 6.68086 0.142769 6.74056 0.0528637 6.90659C-0.104248 7.19676 0.105304 7.51057 0.464036 7.51244C1.28341 7.51672 2.10273 7.5138 2.92204 7.5137Z" fill="white"/>
<path fill-rule="evenodd" clip-rule="evenodd" d="M8.32501 9.62789C8.32741 8.91293 7.79716 8.36307 7.09906 8.35654C6.40658 8.35002 5.84587 8.89686 5.84394 9.58067C5.8419 10.2969 6.39547 10.8643 7.09107 10.8587C7.77102 10.8533 8.32276 10.303 8.32501 9.62789ZM16.2535 8.3567C15.5594 8.35555 15.0006 8.91345 15.0018 9.6065C15.0029 10.2943 15.5756 10.8647 16.2583 10.8581C16.9394 10.8515 17.4971 10.2918 17.5005 9.61151C17.5039 8.91815 16.9471 8.3578 16.2535 8.3567ZM14.2052 9.18098C14.4582 8.14683 15.2937 7.5474 16.2108 7.51599C17.1622 7.48338 17.8713 8.04279 18.305 9.1743H18.6158C18.7671 8.36458 18.9136 7.56493 19.0668 6.76659C19.1369 6.4017 19.2067 6.04349 19.1236 5.66623C18.8299 4.33457 17.6875 3.37687 16.3233 3.35036C15.6405 3.33711 14.9572 3.34671 14.2741 3.34608C14.0279 3.34582 13.7818 3.34603 13.5221 3.34603C13.0798 5.29654 12.6405 7.2337 12.199 9.18098H14.2052ZM20.0007 6.36914C19.9103 6.82096 19.8163 7.27205 19.7301 7.7246C19.6096 8.35806 19.4957 8.99271 19.3771 9.62653C19.3257 9.90095 19.1889 10.0137 18.9049 10.0177C18.704 10.0205 18.503 10.0182 18.3091 10.0182C17.8792 11.157 17.2109 11.694 16.2433 11.6909C15.2826 11.6877 14.5998 11.1353 14.1942 10.0185H14.011C12.449 10.0185 10.8871 10.0208 9.32513 10.0147C9.17329 10.0141 9.1162 10.0617 9.07305 10.2054C8.80438 11.1004 7.99482 11.6956 7.07187 11.6907C6.15675 11.6859 5.34234 11.0721 5.08854 10.18C5.04883 10.0406 4.98632 10.0132 4.85827 10.0159C4.50695 10.0233 4.15526 10.021 3.80383 10.0174C3.52248 10.0145 3.33526 9.84501 3.33594 9.60295C3.33662 9.35912 3.52467 9.18943 3.80508 9.1876C4.21417 9.18494 4.62325 9.18692 5.03531 9.18692C5.06845 9.08189 5.09438 8.98796 5.12746 8.89665C5.42932 8.06314 6.24791 7.49418 7.112 7.51593C8.02446 7.53895 8.80725 8.11887 9.06621 8.98609C9.11537 9.15092 9.18377 9.19272 9.34475 9.19052C9.99532 9.18165 10.6461 9.18687 11.3263 9.18687C11.9576 6.41417 12.589 3.64074 13.2264 0.841424H12.9461C9.94528 0.841424 6.9445 0.841633 3.94372 0.840589C3.84667 0.840537 3.74716 0.839337 3.65314 0.818726C3.46555 0.777661 3.33782 0.609592 3.33641 0.423051C3.335 0.236562 3.46153 0.0683362 3.64813 0.0230967C3.7229 0.00493835 3.80258 0.000920547 3.88001 0.000920547C7.12817 -0.000123039 10.3763 -0.000227397 13.6244 0.000346575C14.0636 0.000450933 14.2287 0.208333 14.1318 0.636151C13.9925 1.25087 13.8516 1.86518 13.7057 2.50464C13.803 2.50464 13.8796 2.50406 13.9562 2.50469C14.8412 2.51252 15.7286 2.48158 16.6106 2.53689C18.2886 2.64203 19.735 4.03897 19.961 5.71225C19.9695 5.77534 19.9873 5.83717 20.0007 5.89953V6.36914Z" fill="black"/>
<path fill-rule="evenodd" clip-rule="evenodd" d="M2.92204 7.51347C2.10273 7.51347 1.28336 7.51644 0.464036 7.51216C0.105304 7.51029 -0.104248 7.19648 0.0528637 6.90631C0.142716 6.74028 0.291219 6.68053 0.475724 6.68116C1.24307 6.68366 2.01037 6.68215 2.77767 6.68215C3.63607 6.68215 4.49441 6.68137 5.35271 6.68267C5.6111 6.68304 5.78001 6.8031 5.82133 7.00764C5.87811 7.28889 5.69099 7.51049 5.38005 7.51206C4.56074 7.51608 3.74142 7.51342 2.92204 7.51347Z" fill="black"/>
<path fill-rule="evenodd" clip-rule="evenodd" d="M3.33027 5.00773C2.6403 5.00773 1.95028 5.01127 1.26037 5.00585C1.011 5.00387 0.832239 4.81753 0.835996 4.58888C0.839753 4.35804 1.01883 4.18877 1.27096 4.17792C1.29048 4.17708 1.31004 4.17745 1.32956 4.17745C2.67046 4.17745 4.01137 4.17672 5.35222 4.17802C5.65183 4.17828 5.83211 4.34093 5.82955 4.59974C5.8271 4.85187 5.65459 5.00684 5.36114 5.00804C4.68416 5.01081 4.00724 5.00887 3.33027 5.00887V5.00773Z" fill="black"/>
<path fill-rule="evenodd" clip-rule="evenodd" d="M3.73586 2.50444C3.19606 2.50444 2.65622 2.50819 2.11647 2.50297C1.81535 2.50005 1.63397 2.28721 1.6813 2.01025C1.71313 1.82391 1.87447 1.67692 2.08162 1.67614C3.19371 1.67202 4.30586 1.6715 5.41796 1.67614C5.66091 1.67719 5.82621 1.85324 5.82976 2.08257C5.83352 2.32343 5.67019 2.49854 5.41379 2.50151C4.85453 2.50793 4.29517 2.5035 3.73586 2.5035V2.50444Z" fill="black"/>
</svg>
