<?xml version="1.0" encoding="UTF-8"?>
<svg width="21px" height="20px" viewBox="0 0 21 20" version="1.1" xmlns="http://www.w3.org/2000/svg" xmlns:xlink="http://www.w3.org/1999/xlink">
    <title>ic_home copy 3</title>
    <g id="Page-1" stroke="none" stroke-width="1" fill="none" fill-rule="evenodd">
        <g id="iPhone-8-Copy-3" transform="translate(-19.000000, -167.000000)" fill="#2D2866">
            <g id="ic_dinnerware" transform="translate(18.000000, 165.000000)">
                <g id="food" transform="translate(1.000000, 2.000000)">
                    <path d="M17.6097324,10.4060806 C17.5138255,10.2992137 17.4324947,10.1826129 17.3654585,10.0595 C17.3325037,13.3683306 14.5576111,16.0504919 11.150944,16.0504919 C7.72385627,16.0504919 4.93565501,13.33625 4.93565501,10.0000685 C4.93565501,6.6638871 7.72385627,3.94964516 11.150944,3.94964516 C14.099131,3.94964516 16.5744025,5.9583871 17.2086415,8.64363306 L17.7714785,4.5704879 L17.7841534,4.47890726 C16.1814799,2.65682258 13.8025378,1.5 11.150944,1.5 C9.08225586,1.5 7.17960918,2.20440323 5.68192627,3.37918548 L5.68192627,3.46713306 L5.68192627,3.54500403 L5.68192627,5.27022984 L5.68192627,5.33870968 C5.68192627,6.49107661 5.06838961,7.54315726 4.09756098,8.14432661 L4.09756098,14.8879798 L4.09756098,15.0041694 C5.68713707,17.121629 8.25655509,18.5 11.150944,18.5 C14.1923621,18.5 16.8751502,16.9780202 18.4390244,14.6756855 L18.4390244,14.5511331 L18.4390244,10.9390444 C18.1217288,10.8385524 17.8342193,10.6560081 17.6097324,10.4060806 Z" id="Path"></path>
                    <path d="M11.2682927,5 C8.44407122,5 6.14634146,7.24295366 6.14634146,10 C6.14634146,12.7570463 8.44400131,15 11.2682927,15 C14.0925841,15 16.3902439,12.7570463 16.3902439,10 C16.3902439,7.24295366 14.0925141,5 11.2682927,5 Z" id="Path"></path>
                    <path d="M20.9788598,0.785436903 C20.9788598,0.351642527 20.6503293,0 20.2450464,0 C19.8776001,0 19.5667817,0.290895007 19.5178354,0.680725573 L18.445588,9.21181111 C18.4173376,9.43638668 18.4811391,9.66300075 18.6204234,9.83355587 C18.7597711,10.004111 18.9610794,10.1018914 19.172799,10.1018914 L19.6033486,10.1018914 L19.6033486,19.2525473 C19.6033486,19.665345 19.916008,20 20.3016743,20 C20.6873405,20 21,19.665345 21,19.2525473 L20.9788598,0.785436903 Z" id="Path"></path>
                    <path d="M4.6097561,1.00810713 C4.6097561,0.727428752 4.37878668,0.5 4.09373862,0.5 C3.80869057,0.5 3.57772115,0.727428752 3.57772115,1.00810713 L3.57772115,3.81956551 L2.82089552,3.81956551 L2.82089552,1.00810713 C2.82089552,0.727428752 2.5899261,0.5 2.30487805,0.5 C2.01983,0.5 1.78886058,0.727428752 1.78886058,1.00810713 L1.78886058,3.81956551 L1.03203495,3.81956551 L1.03203495,1.00810713 C1.03203495,0.727428752 0.801065526,0.5 0.516017474,0.5 C0.230969421,0.5 0,0.727428752 0,1.00810713 L0,5.59231742 C0,6.58271984 0.64791154,7.42644867 1.54805242,7.73558105 L1.54805242,19.2547762 C1.54805242,19.666343 1.8869039,20 2.30487805,20 C2.7228522,20 3.06170368,19.666343 3.06170368,19.2547762 L3.06170368,7.73558105 C3.96184456,7.42644867 4.6097561,6.58271984 4.6097561,5.59231742 L4.6097561,1.00810713 Z" id="Path"></path>
                </g>
            </g>
        </g>
    </g>
</svg>