<svg width="16" height="16" viewBox="0 0 16 16" fill="none" xmlns="http://www.w3.org/2000/svg">
<path fill-rule="evenodd" clip-rule="evenodd" d="M9.13359 2.7073C9.14235 2.6999 9.15058 2.69296 9.15791 2.68652L10.8509 1.03854C11.3403 0.671604 12.0365 0.799966 12.4401 1.26353C12.8369 1.71939 12.846 2.39242 12.4605 2.8642C12.4158 2.919 12.3663 2.97018 12.3164 3.02053C12.1262 3.21254 11.9356 3.40409 11.7434 3.5972C11.6701 3.67092 11.5965 3.74486 11.5227 3.81914L10.7729 4.56729L10.3833 4.95779C8.20225 7.14399 6.0212 9.33019 3.83784 11.514C3.77311 11.5787 3.68616 11.6424 3.59988 11.6607C3.06625 11.774 2.53104 11.8801 1.99585 11.9861C1.86786 12.0114 1.73987 12.0368 1.6119 12.0622C1.60092 12.0644 1.58927 12.0631 1.57092 12.0611C1.55989 12.0599 1.54643 12.0584 1.52923 12.0572C1.55933 11.9069 1.58921 11.7574 1.61898 11.6084C1.72881 11.0586 1.83709 10.5167 1.94927 9.97555C1.9625 9.91165 2.00515 9.84538 2.05214 9.79823C4.38902 7.45318 6.72792 5.11005 9.06687 2.76706C9.08886 2.74504 9.11274 2.72489 9.13359 2.7073ZM12.5971 3.91674C13.0529 3.46233 13.4639 2.99773 13.5701 2.3355C13.6634 1.97585 13.4762 1.46287 13.4762 1.46287C13.402 1.25086 13.2433 0.835274 12.8347 0.49139C12.4431 0.161878 12.0312 0.0765785 11.8607 0.0434412C11.777 0.0271568 11.5275 -0.0196284 11.2483 0.00916649C10.679 0.0679969 10.2723 0.411571 9.67182 0.984728C9.21148 1.42414 8.92609 1.72161 8.70787 1.94906C8.61503 2.04583 8.53435 2.12992 8.45753 2.20688C8.07741 2.58776 7.69726 2.96861 7.31711 3.34946C5.34015 5.33005 3.36323 7.31059 1.39053 9.29543C1.28368 9.40296 1.19222 9.55676 1.16069 9.70342C1.01878 10.3649 0.887569 11.0286 0.756355 11.6923C0.70994 11.9271 0.663525 12.1619 0.616638 12.3966C0.524618 12.8572 0.746396 13.0798 1.20556 12.9872C1.42688 12.9426 1.64816 12.8978 1.86943 12.853C2.52531 12.7202 3.18116 12.5873 3.83815 12.4604C4.03046 12.4233 4.18239 12.3449 4.32115 12.2056L4.61546 11.9102C7.27297 9.24265 9.93047 6.5751 12.5971 3.91674ZM0.5 14.5136C0.223858 14.5136 0 14.7374 0 15.0136C0 15.2897 0.223858 15.5136 0.5 15.5136H15.5C15.7761 15.5136 16 15.2897 16 15.0136C16 14.7374 15.7761 14.5136 15.5 14.5136H0.5Z" fill="black"/>
</svg>
