<svg width="16" height="17" viewBox="0 0 16 17" fill="none" xmlns="http://www.w3.org/2000/svg">
<mask id="path-1-inside-1_110_1293" fill="white">
<path fill-rule="evenodd" clip-rule="evenodd" d="M7.9967 0.371768C3.77984 0.377694 0.374459 3.7951 0.376838 8.01851C0.379259 12.2393 3.79754 15.6595 8.00822 15.6541C12.2245 15.6488 15.6313 12.2299 15.6285 8.00691C15.6257 3.78496 12.2081 0.365883 7.9967 0.371768ZM7.50282 16.0259C7.21527 15.9861 6.92622 15.9548 6.64039 15.9051C4.82211 15.5886 3.29364 14.7363 2.05923 13.3681C0.892839 12.0753 0.226679 10.5504 0.0435491 8.81726C-0.384518 4.76588 2.38817 0.978499 6.37905 0.166394C6.70432 0.100204 7.03749 0.0730765 7.36689 0.0269603C7.41255 0.0205332 7.45754 0.00913978 7.50282 0H8.50248C8.54255 0.00876418 8.58224 0.0225365 8.62276 0.025583C9.81318 0.115687 10.9325 0.447223 11.9608 1.05458C14.109 2.3233 15.4217 4.18756 15.8797 6.64759C15.9329 6.93334 15.9605 7.22385 16 7.51215V8.51377C15.9912 8.55409 15.9773 8.59398 15.9742 8.63472C15.8794 9.87647 15.5248 11.0389 14.8762 12.1009C13.6102 14.1743 11.7827 15.4477 9.39543 15.9016C9.10053 15.9577 8.8003 15.9852 8.50248 16.0259H7.50282Z"/>
</mask>
<path fill-rule="evenodd" clip-rule="evenodd" d="M7.9967 0.371768C3.77984 0.377694 0.374459 3.7951 0.376838 8.01851C0.379259 12.2393 3.79754 15.6595 8.00822 15.6541C12.2245 15.6488 15.6313 12.2299 15.6285 8.00691C15.6257 3.78496 12.2081 0.365883 7.9967 0.371768ZM7.50282 16.0259C7.21527 15.9861 6.92622 15.9548 6.64039 15.9051C4.82211 15.5886 3.29364 14.7363 2.05923 13.3681C0.892839 12.0753 0.226679 10.5504 0.0435491 8.81726C-0.384518 4.76588 2.38817 0.978499 6.37905 0.166394C6.70432 0.100204 7.03749 0.0730765 7.36689 0.0269603C7.41255 0.0205332 7.45754 0.00913978 7.50282 0H8.50248C8.54255 0.00876418 8.58224 0.0225365 8.62276 0.025583C9.81318 0.115687 10.9325 0.447223 11.9608 1.05458C14.109 2.3233 15.4217 4.18756 15.8797 6.64759C15.9329 6.93334 15.9605 7.22385 16 7.51215V8.51377C15.9912 8.55409 15.9773 8.59398 15.9742 8.63472C15.8794 9.87647 15.5248 11.0389 14.8762 12.1009C13.6102 14.1743 11.7827 15.4477 9.39543 15.9016C9.10053 15.9577 8.8003 15.9852 8.50248 16.0259H7.50282Z" fill="black"/>
<path d="M0.376838 8.01851L-0.623162 8.01907V8.01908L0.376838 8.01851ZM8.00822 15.6541L8.00696 14.6541H8.00696L8.00822 15.6541ZM15.6285 8.00691L14.6285 8.00757V8.00758L15.6285 8.00691ZM7.50282 16.0259L7.36567 17.0165L7.43392 17.0259H7.50282V16.0259ZM6.64039 15.9051L6.81185 14.9199L6.81184 14.9199L6.64039 15.9051ZM2.05923 13.3681L1.31674 14.038L1.31675 14.038L2.05923 13.3681ZM0.0435491 8.81726L-0.950915 8.92234L-0.950915 8.92234L0.0435491 8.81726ZM6.37905 0.166394L6.17964 -0.813523L6.17964 -0.813523L6.37905 0.166394ZM7.36689 0.0269603L7.50554 1.0173L7.50629 1.0172L7.36689 0.0269603ZM7.50282 0V-1H7.40291L7.30497 -0.980232L7.50282 0ZM8.50248 0L8.71618 -0.9769L8.61058 -1H8.50248V0ZM8.62276 0.025583L8.69823 -0.971565L8.69773 -0.971603L8.62276 0.025583ZM11.9608 1.05458L11.4522 1.91561L11.4523 1.91562L11.9608 1.05458ZM15.8797 6.64759L14.8966 6.83061L14.8966 6.83065L15.8797 6.64759ZM16 7.51215H17V7.44393L16.9908 7.37633L16 7.51215ZM16 8.51377L16.9768 8.72813L17 8.62221V8.51377H16ZM15.9742 8.63472L14.9771 8.5581L14.9771 8.55858L15.9742 8.63472ZM14.8762 12.1009L14.0228 11.5798L14.0228 11.5798L14.8762 12.1009ZM9.39543 15.9016L9.20863 14.9192L9.20857 14.9192L9.39543 15.9016ZM8.50248 16.0259V17.0259H8.57055L8.63799 17.0167L8.50248 16.0259ZM7.9953 -0.628231C3.22502 -0.621527 -0.625851 3.24517 -0.623162 8.01907L1.37684 8.01795C1.37477 4.34503 4.33467 1.37692 7.99811 1.37177L7.9953 -0.628231ZM-0.623162 8.01908C-0.620425 12.7901 3.24399 16.6602 8.00949 16.6541L8.00696 14.6541C4.35108 14.6588 1.37894 11.6884 1.37684 8.01794L-0.623162 8.01908ZM8.00949 16.6541C12.7793 16.6481 16.6317 12.7797 16.6285 8.00624L14.6285 8.00758C14.6309 11.68 11.6696 14.6495 8.00696 14.6541L8.00949 16.6541ZM16.6285 8.00625C16.6253 3.23408 12.7616 -0.634891 7.99531 -0.628231L7.9981 1.37177C11.6546 1.36666 14.626 4.33583 14.6285 8.00757L16.6285 8.00625ZM7.63998 15.0354C7.31164 14.9899 7.07633 14.9659 6.81185 14.9199L6.46892 16.8903C6.77611 16.9437 7.11891 16.9823 7.36567 17.0165L7.63998 15.0354ZM6.81184 14.9199C5.21649 14.6422 3.88821 13.9025 2.8017 12.6983L1.31675 14.038C2.69907 15.5701 4.42774 16.535 6.46894 16.8903L6.81184 14.9199ZM2.80171 12.6983C1.78059 11.5664 1.19952 10.2407 1.03801 8.71218L-0.950915 8.92234C-0.746168 10.8601 0.00508998 12.5841 1.31674 14.038L2.80171 12.6983ZM1.03801 8.71219C0.664034 5.17271 3.09317 1.85553 6.57845 1.14631L6.17964 -0.813523C1.68318 0.101464 -1.43307 4.35904 -0.950915 8.92234L1.03801 8.71219ZM6.57845 1.14631C6.8674 1.08751 7.09532 1.07473 7.50554 1.0173L7.22825 -0.963382C6.97966 -0.928579 6.54125 -0.887106 6.17964 -0.813523L6.57845 1.14631ZM7.50629 1.0172C7.56312 1.0092 7.61202 0.999193 7.64239 0.992757C7.68755 0.983181 7.6811 0.984182 7.70068 0.980232L7.30497 -0.980232C7.28617 -0.976438 7.26902 -0.972736 7.25667 -0.970056C7.24221 -0.966914 7.23569 -0.965474 7.22761 -0.963762C7.21275 -0.96061 7.21633 -0.961704 7.2275 -0.963277L7.50629 1.0172ZM7.50282 1H8.50248V-1H7.50282V1ZM8.28878 0.9769C8.28037 0.97506 8.27604 0.973854 8.28318 0.975693C8.28483 0.976119 8.30664 0.981821 8.32355 0.98598C8.36067 0.995113 8.44427 1.01499 8.54779 1.02277L8.69773 -0.971603C8.73118 -0.969087 8.75757 -0.964894 8.77424 -0.961815C8.78271 -0.960249 8.78939 -0.958834 8.79379 -0.957859C8.79815 -0.956892 8.80092 -0.956215 8.80135 -0.956109C8.80165 -0.956033 8.80079 -0.956243 8.79727 -0.957151C8.7955 -0.95761 8.79368 -0.958081 8.79095 -0.958789C8.78847 -0.959432 8.78521 -0.960277 8.78178 -0.96116C8.77495 -0.962919 8.76551 -0.965327 8.75483 -0.967936C8.74405 -0.970571 8.73093 -0.973673 8.71618 -0.9769L8.28878 0.9769ZM8.54728 1.02273C9.59632 1.10213 10.5655 1.39189 11.4522 1.91561L12.4693 0.193556C11.2995 -0.497439 10.03 -0.870759 8.69823 -0.971565L8.54728 1.02273ZM11.4523 1.91562C13.3531 3.03828 14.4918 4.65607 14.8966 6.83061L16.8628 6.46456C16.3517 3.71906 14.8648 1.60832 12.4693 0.193538L11.4523 1.91562ZM14.8966 6.83065C14.9444 7.08719 14.9619 7.3024 15.0093 7.64797L16.9908 7.37633C16.9591 7.1453 16.9215 6.77949 16.8628 6.46452L14.8966 6.83065ZM15 7.51215V8.51377H17V7.51215H15ZM15.0233 8.29941C15.0251 8.29114 15.0263 8.28693 15.0244 8.29412C15.024 8.29581 15.0182 8.31765 15.0141 8.33452C15.0049 8.37159 14.9851 8.45494 14.9771 8.5581L16.9713 8.71133C16.9687 8.7445 16.9645 8.77063 16.9615 8.78708C16.9599 8.79544 16.9585 8.80203 16.9575 8.80634C16.9566 8.81061 16.9559 8.81329 16.9558 8.81366C16.9558 8.81389 16.956 8.81297 16.9569 8.8094C16.9574 8.8076 16.9579 8.80576 16.9586 8.80301C16.9592 8.8005 16.9601 8.79723 16.961 8.79378C16.9628 8.78692 16.9652 8.77746 16.9678 8.76677C16.9704 8.75598 16.9735 8.74287 16.9768 8.72813L15.0233 8.29941ZM14.9771 8.55858C14.8934 9.65403 14.5832 10.662 14.0228 11.5798L15.7297 12.6221C16.4663 11.4158 16.8653 10.0989 16.9713 8.71085L14.9771 8.55858ZM14.0228 11.5798C12.9026 13.4143 11.3162 14.5184 9.20863 14.9192L9.58223 16.884C12.2492 16.3769 14.3177 14.9344 15.7297 12.6221L14.0228 11.5798ZM9.20857 14.9192C8.94555 14.9692 8.72612 14.986 8.36697 15.0351L8.63799 17.0167C8.87447 16.9844 9.25551 16.9461 9.58228 16.884L9.20857 14.9192ZM8.50248 15.0259H7.50282V17.0259H8.50248V15.0259Z" fill="black" mask="url(#path-1-inside-1_110_1293)"/>
<path fill-rule="evenodd" clip-rule="evenodd" d="M8.77099 8.16852C9.05144 8.16852 9.31061 8.17123 9.5697 8.1676C9.75734 8.16497 9.86201 8.06915 9.87912 7.88598C9.91167 7.53838 9.94422 7.19065 9.96884 6.84242C9.98996 6.54377 9.89422 6.44774 9.59336 6.44724C9.3243 6.44678 9.0552 6.44711 8.77116 6.44711C8.77116 6.24211 8.76894 6.05548 8.77182 5.86889C8.7745 5.6949 8.82015 5.65087 9.00003 5.64878C9.21859 5.64623 9.43715 5.65032 9.65567 5.64736C9.8971 5.64406 9.99626 5.5439 9.99768 5.30218C9.9996 4.9633 9.99927 4.62441 9.99781 4.28553C9.99672 4.02757 9.8979 3.92866 9.63556 3.92725C9.24008 3.92503 8.84465 3.92641 8.44914 3.92683C8.14736 3.92712 7.8581 3.98405 7.59843 4.14393C7.10129 4.45001 6.82856 4.89393 6.81249 5.48268C6.80389 5.79886 6.81099 6.11545 6.81099 6.44715C6.64109 6.44715 6.49147 6.44586 6.34185 6.44745C6.11423 6.44991 6.00961 6.55366 6.00802 6.7847C6.00564 7.13397 6.00548 7.48333 6.0081 7.8326C6.00982 8.06035 6.11741 8.16543 6.34515 8.16827C6.49447 8.17015 6.64384 8.16865 6.80932 8.16865V8.36968C6.80932 9.49066 6.80898 10.6116 6.80957 11.7325C6.80973 12.006 6.90059 12.0981 7.17453 12.0995C7.57001 12.1014 7.96548 12.1004 8.36095 12.0999C8.68523 12.0994 8.7707 12.0152 8.77082 11.6944C8.7712 10.5892 8.77099 9.4839 8.77099 8.37857V8.16852ZM7.99682 0.372078C12.2082 0.366193 15.6258 3.78527 15.6286 8.00722C15.6314 12.2302 12.2246 15.6491 8.00838 15.6544C3.7977 15.6598 0.379375 12.2396 0.376954 8.01882C0.374576 3.79541 3.78 0.378004 7.99682 0.372078Z" fill="white"/>
<path d="M8.77099 8.16852V8.01852H8.62099V8.16852H8.77099ZM9.5697 8.1676L9.5676 8.01762L9.5697 8.1676ZM9.87912 7.88598L9.72977 7.872L9.72977 7.87203L9.87912 7.88598ZM9.96884 6.84242L9.81922 6.83184L9.96884 6.84242ZM9.59336 6.44724L9.59311 6.59724H9.59311L9.59336 6.44724ZM8.77116 6.44711H8.62116V6.59711H8.77116V6.44711ZM8.77182 5.86889L8.92181 5.8712V5.87119L8.77182 5.86889ZM9.00003 5.64878L9.00177 5.79877H9.00177L9.00003 5.64878ZM9.65567 5.64736L9.65771 5.79735L9.65772 5.79735L9.65567 5.64736ZM9.99768 5.30218L10.1477 5.30306V5.30303L9.99768 5.30218ZM9.99781 4.28553L9.84781 4.28616V4.28618L9.99781 4.28553ZM9.63556 3.92725L9.63472 4.07724L9.63474 4.07724L9.63556 3.92725ZM8.44914 3.92683L8.44928 4.07683H8.44929L8.44914 3.92683ZM7.59843 4.14393L7.67707 4.27166L7.67707 4.27166L7.59843 4.14393ZM6.81249 5.48268L6.66254 5.47859L6.66254 5.4786L6.81249 5.48268ZM6.81099 6.44715V6.59715H6.96099V6.44715H6.81099ZM6.34185 6.44745L6.34026 6.29745L6.34023 6.29746L6.34185 6.44745ZM6.00802 6.7847L5.85802 6.78367V6.78368L6.00802 6.7847ZM6.0081 7.8326L6.1581 7.83148V7.83147L6.0081 7.8326ZM6.34515 8.16827L6.34704 8.01828L6.34702 8.01828L6.34515 8.16827ZM6.80932 8.16865H6.95932V8.01865H6.80932V8.16865ZM6.80957 11.7325L6.65957 11.7325V11.7325L6.80957 11.7325ZM7.17453 12.0995L7.17378 12.2495H7.1738L7.17453 12.0995ZM8.36095 12.0999L8.36116 12.2499H8.36116L8.36095 12.0999ZM8.77082 11.6944L8.92082 11.6945V11.6945L8.77082 11.6944ZM15.6286 8.00722L15.4786 8.00732V8.00732L15.6286 8.00722ZM8.00838 15.6544L8.00819 15.5044L8.00838 15.6544ZM0.376954 8.01882L0.226954 8.01891V8.01891L0.376954 8.01882ZM8.77099 8.31852C9.04932 8.31852 9.31135 8.32124 9.5718 8.31759L9.5676 8.01762C9.30987 8.02123 9.05356 8.01852 8.77099 8.01852V8.31852ZM9.5718 8.31759C9.69007 8.31593 9.80271 8.28437 9.8894 8.20535C9.9764 8.12606 10.0175 8.01696 10.0285 7.89993L9.72977 7.87203C9.72359 7.93817 9.70383 7.96857 9.68731 7.98364C9.67048 7.99898 9.63697 8.01665 9.5676 8.01762L9.5718 8.31759ZM10.0285 7.89997C10.061 7.55264 10.0937 7.20322 10.1185 6.853L9.81922 6.83184C9.79473 7.17808 9.76235 7.52411 9.72977 7.872L10.0285 7.89997ZM10.1185 6.853C10.1295 6.6967 10.1161 6.53973 10.0101 6.42918C9.90537 6.32002 9.74934 6.2975 9.59361 6.29724L9.59311 6.59724C9.73825 6.59748 9.78051 6.62322 9.7936 6.63686C9.80536 6.64912 9.82928 6.68948 9.81922 6.83184L10.1185 6.853ZM9.59362 6.29724C9.32439 6.29678 9.05495 6.29711 8.77116 6.29711V6.59711C9.05545 6.59711 9.32421 6.59678 9.59311 6.59724L9.59362 6.29724ZM8.92116 6.44711C8.92116 6.23971 8.91895 6.0563 8.92181 5.8712L8.62184 5.86657C8.61894 6.05465 8.62116 6.24452 8.62116 6.44711H8.92116ZM8.92181 5.87119C8.9224 5.83246 8.92542 5.81089 8.92846 5.79924C8.931 5.7895 8.93145 5.79477 8.92361 5.80233C8.91609 5.80958 8.91189 5.80833 8.92402 5.80541C8.9376 5.80213 8.96123 5.79924 9.00177 5.79877L8.99829 5.49879C8.90921 5.49982 8.79614 5.50848 8.71534 5.5864C8.63287 5.66595 8.62319 5.77914 8.62184 5.86658L8.92181 5.87119ZM9.00177 5.79877C9.10975 5.79751 9.21787 5.79789 9.32741 5.79823C9.43655 5.79856 9.54702 5.79885 9.65771 5.79735L9.65364 5.49737C9.54581 5.49884 9.43774 5.49856 9.32832 5.49823C9.2193 5.49789 9.10887 5.4975 8.99828 5.49879L9.00177 5.79877ZM9.65772 5.79735C9.79442 5.79548 9.92748 5.76641 10.0232 5.66974C10.119 5.57313 10.1469 5.4398 10.1477 5.30306L9.84768 5.3013C9.84707 5.40628 9.8247 5.44389 9.81012 5.45861C9.79559 5.47328 9.75835 5.49594 9.65362 5.49737L9.65772 5.79735ZM10.1477 5.30303C10.1496 4.96349 10.1493 4.62409 10.1478 4.28489L9.84781 4.28618C9.84927 4.62474 9.8496 4.9631 9.84768 5.30133L10.1477 5.30303ZM10.1478 4.2849C10.1472 4.14267 10.1206 4.00318 10.0203 3.90367C9.9203 3.80455 9.78024 3.77803 9.63637 3.77725L9.63474 4.07724C9.75321 4.07788 9.79373 4.10152 9.80904 4.1167C9.82395 4.13149 9.84732 4.17043 9.84781 4.28616L10.1478 4.2849ZM9.63639 3.77725C9.24026 3.77503 8.844 3.77641 8.44898 3.77683L8.44929 4.07683C8.8453 4.07641 9.2399 4.07503 9.63472 4.07724L9.63639 3.77725ZM8.44899 3.77683C8.12851 3.77714 7.80971 3.83768 7.51978 4.0162L7.67707 4.27166C7.90648 4.13041 8.1662 4.0771 8.44928 4.07683L8.44899 3.77683ZM7.51978 4.0162C6.98205 4.34727 6.68007 4.83636 6.66254 5.47859L6.96243 5.48677C6.97704 4.9515 7.22053 4.55274 7.67707 4.27166L7.51978 4.0162ZM6.66254 5.4786C6.65388 5.79736 6.66099 6.12006 6.66099 6.44715H6.96099C6.96099 6.11085 6.95391 5.80036 6.96243 5.48675L6.66254 5.4786ZM6.81099 6.29715C6.64284 6.29715 6.49089 6.29586 6.34026 6.29745L6.34344 6.59744C6.49205 6.59586 6.63933 6.59715 6.81099 6.59715V6.29715ZM6.34023 6.29746C6.20692 6.2989 6.07778 6.33007 5.9838 6.4246C5.88989 6.51905 5.85895 6.64875 5.85802 6.78367L6.15802 6.78573C6.15868 6.68961 6.18084 6.65191 6.19655 6.63612C6.21218 6.62039 6.24917 6.59846 6.34348 6.59744L6.34023 6.29746ZM5.85802 6.78368C5.85564 7.13358 5.85547 7.48366 5.85811 7.83373L6.1581 7.83147C6.15548 7.483 6.15564 7.13436 6.15802 6.78572L5.85802 6.78368ZM5.85811 7.83373C5.85912 7.96856 5.89161 8.09748 5.98626 8.19131C6.08052 8.28474 6.20947 8.31659 6.34328 8.31826L6.34702 8.01828C6.25309 8.01711 6.21437 7.99501 6.19746 7.97825C6.18096 7.96189 6.1588 7.92439 6.1581 7.83148L5.85811 7.83373ZM6.34326 8.31826C6.49379 8.32015 6.64589 8.31865 6.80932 8.31865V8.01865C6.6418 8.01865 6.49516 8.02015 6.34704 8.01828L6.34326 8.31826ZM6.65932 8.16865V8.36968H6.95932V8.16865H6.65932ZM6.65932 8.36968C6.65932 9.4906 6.65898 10.6116 6.65957 11.7325L6.95957 11.7324C6.95898 10.6115 6.95932 9.49072 6.95932 8.36968H6.65932ZM6.65957 11.7325C6.65966 11.8777 6.68191 12.022 6.78294 12.1237C6.88407 12.2256 7.02829 12.2487 7.17378 12.2495L7.17529 11.9495C7.04684 11.9488 7.00865 11.9253 6.99583 11.9123C6.9829 11.8993 6.95965 11.8608 6.95957 11.7324L6.65957 11.7325ZM7.1738 12.2495C7.56987 12.2514 7.96593 12.2504 8.36116 12.2499L8.36075 11.9499C7.96503 11.9504 7.57015 11.9514 7.17526 11.9495L7.1738 12.2495ZM8.36116 12.2499C8.52358 12.2497 8.6839 12.2317 8.7929 12.1239C8.90253 12.0155 8.92076 11.8557 8.92082 11.6945L8.62082 11.6944C8.62076 11.8539 8.59619 11.8965 8.58199 11.9106C8.56715 11.9253 8.5226 11.9497 8.36074 11.9499L8.36116 12.2499ZM8.92082 11.6945C8.9212 10.5892 8.92099 9.48386 8.92099 8.37857H8.62099C8.62099 9.48394 8.6212 10.5892 8.62082 11.6944L8.92082 11.6945ZM8.92099 8.37857V8.16852H8.62099V8.37857H8.92099ZM7.99703 0.522078C12.1252 0.51631 15.4758 3.8679 15.4786 8.00732L15.7786 8.00712C15.7757 3.70263 12.2912 0.216077 7.99661 0.222078L7.99703 0.522078ZM15.4786 8.00732C15.4814 12.1477 12.1414 15.4992 8.00819 15.5044L8.00857 15.8044C12.3078 15.799 15.7815 12.3127 15.7786 8.00712L15.4786 8.00732ZM8.00819 15.5044C3.88073 15.5097 0.529328 12.1569 0.526954 8.01874L0.226954 8.01891C0.229422 12.3222 3.71466 15.8099 8.00857 15.8044L8.00819 15.5044ZM0.526954 8.01874C0.524622 3.8779 3.86322 0.527887 7.99703 0.522078L7.99661 0.222078C3.69678 0.228121 0.224529 3.71292 0.226954 8.01891L0.526954 8.01874Z" fill="black"/>
<path fill-rule="evenodd" clip-rule="evenodd" d="M7.1789 7.79621V11.72H8.40851V7.79074H9.51931C9.5466 7.46113 9.5726 7.14741 9.60015 6.81496H8.42433C8.41364 6.78829 8.40659 6.77886 8.40655 6.76938C8.40488 6.47745 8.40279 6.18548 8.40309 5.89355C8.40346 5.4775 8.59882 5.28302 9.01524 5.28214C9.21628 5.28173 9.41735 5.2821 9.61717 5.2821V4.29613C9.22387 4.29613 8.83992 4.29513 8.45596 4.29634C7.69799 4.29872 7.18474 4.80955 7.17714 5.5717C7.1736 5.92627 7.17644 6.28088 7.17639 6.6355V6.82268H6.38945V7.79621H7.1789ZM8.77068 8.16831V8.37836C8.77068 9.48365 8.77089 10.5889 8.77051 11.6942C8.77039 12.0149 8.68492 12.0992 8.3606 12.0997C7.96513 12.1002 7.56965 12.1012 7.17422 12.0993C6.90028 12.0979 6.80938 12.0058 6.80926 11.7322C6.80867 10.6113 6.80901 9.49041 6.80897 8.36947V8.1684C6.64353 8.1684 6.49412 8.16994 6.3448 8.16806C6.1171 8.16518 6.00951 8.06014 6.0078 7.83239C6.00512 7.48312 6.00533 7.13376 6.00771 6.78445C6.0093 6.55341 6.11393 6.44966 6.34154 6.44724C6.49116 6.44565 6.64078 6.44694 6.81064 6.44694C6.81064 6.11524 6.80354 5.7986 6.81218 5.48243C6.82825 4.89368 7.10094 4.44976 7.59808 4.14372C7.85779 3.98384 8.14701 3.92687 8.44883 3.92658C8.8443 3.9262 9.23977 3.92478 9.6352 3.92699C9.89759 3.92845 9.99641 4.02736 9.9975 4.28532C9.99892 4.62416 9.99929 4.96309 9.99733 5.30193C9.99595 5.54365 9.89679 5.64385 9.65536 5.64711C9.43684 5.65007 9.21824 5.64602 8.99972 5.64857C8.8198 5.65066 8.77419 5.69469 8.77147 5.86868C8.76864 6.05523 8.77085 6.2419 8.77085 6.4469C9.05485 6.4469 9.32395 6.44657 9.59305 6.44699C9.89391 6.44753 9.98965 6.54352 9.96853 6.84221C9.94391 7.19044 9.91136 7.53813 9.87876 7.88577C9.86165 8.06894 9.75698 8.16476 9.56935 8.16735C9.31026 8.17102 9.05109 8.16831 8.77068 8.16831Z" fill="black"/>
<path d="M7.1789 7.79621H7.3289V7.64621H7.1789V7.79621ZM7.1789 11.72H7.0289V11.87H7.1789V11.72ZM8.40851 11.72V11.87H8.55851V11.72H8.40851ZM8.40851 7.79074V7.64074H8.25851V7.79074H8.40851ZM9.51931 7.79074V7.94074H9.6574L9.6688 7.80312L9.51931 7.79074ZM9.60015 6.81496L9.74963 6.82734L9.76309 6.66496H9.60015V6.81496ZM8.42433 6.81496L8.28509 6.87074L8.32283 6.96496H8.42433V6.81496ZM8.40655 6.76938L8.55655 6.76872L8.55655 6.76852L8.40655 6.76938ZM8.40309 5.89355L8.55309 5.8937V5.89368L8.40309 5.89355ZM9.01524 5.28214L9.01493 5.13214H9.01493L9.01524 5.28214ZM9.61717 5.2821V5.4321H9.76717V5.2821H9.61717ZM9.61717 4.29613H9.76717V4.14613H9.61717V4.29613ZM8.45596 4.29634L8.45643 4.44634H8.45644L8.45596 4.29634ZM7.17714 5.5717L7.32714 5.5732V5.57319L7.17714 5.5717ZM7.17639 6.6355L7.02639 6.63548V6.6355H7.17639ZM7.17639 6.82268V6.97268H7.32639V6.82268H7.17639ZM6.38945 6.82268V6.67268H6.23945V6.82268H6.38945ZM6.38945 7.79621H6.23945V7.94621H6.38945V7.79621ZM8.77051 11.6942L8.92051 11.6943V11.6943L8.77051 11.6942ZM8.3606 12.0997L8.36079 12.2497H8.36081L8.3606 12.0997ZM7.17422 12.0993L7.17347 12.2493L7.1735 12.2493L7.17422 12.0993ZM6.80926 11.7322L6.95926 11.7322V11.7322L6.80926 11.7322ZM6.80897 8.36947H6.65897L6.65897 8.36948L6.80897 8.36947ZM6.80897 8.1684H6.95897V8.01839H6.80897V8.1684ZM6.3448 8.16806L6.3429 8.31805H6.34291L6.3448 8.16806ZM6.0078 7.83239L6.15779 7.83127L6.15779 7.83125L6.0078 7.83239ZM6.00771 6.78445L5.85772 6.78342L5.85772 6.78343L6.00771 6.78445ZM6.34154 6.44724L6.33995 6.29724H6.33995L6.34154 6.44724ZM6.81064 6.44694V6.59694H6.96064V6.44694H6.81064ZM6.81218 5.48243L6.96212 5.48652L6.96212 5.48652L6.81218 5.48243ZM7.59808 4.14372L7.67671 4.27146L7.67671 4.27145L7.59808 4.14372ZM8.44883 3.92658L8.44868 3.77658H8.44868L8.44883 3.92658ZM9.6352 3.92699L9.63437 4.07699L9.63437 4.07699L9.6352 3.92699ZM9.9975 4.28532L10.1475 4.28469V4.28469L9.9975 4.28532ZM9.99733 5.30193L9.84733 5.30106V5.30107L9.99733 5.30193ZM9.65536 5.64711L9.65334 5.49712L9.65333 5.49712L9.65536 5.64711ZM8.99972 5.64857L9.00146 5.79856L9.00147 5.79856L8.99972 5.64857ZM8.77147 5.86868L8.62149 5.86634L8.62149 5.86639L8.77147 5.86868ZM8.77085 6.4469H8.62085V6.5969H8.77085V6.4469ZM9.59305 6.44699L9.59332 6.29699H9.59329L9.59305 6.44699ZM9.96853 6.84221L10.1182 6.85279L10.1182 6.85279L9.96853 6.84221ZM9.87876 7.88577L9.72942 7.87177L9.72941 7.87182L9.87876 7.88577ZM9.56935 8.16735L9.56728 8.01737L9.56722 8.01737L9.56935 8.16735ZM7.0289 7.79621V11.72H7.3289V7.79621H7.0289ZM7.1789 11.87H8.40851V11.57H7.1789V11.87ZM8.55851 11.72V7.79074H8.25851V11.72H8.55851ZM8.40851 7.94074H9.51931V7.64074H8.40851V7.94074ZM9.6688 7.80312C9.69609 7.47351 9.72209 7.1598 9.74963 6.82734L9.45066 6.80257C9.42312 7.13502 9.39711 7.44874 9.36982 7.77836L9.6688 7.80312ZM9.60015 6.66496H8.42433V6.96496H9.60015V6.66496ZM8.56357 6.75917C8.55663 6.74185 8.54934 6.72662 8.54816 6.724C8.54777 6.72314 8.54794 6.72347 8.54834 6.72446C8.54875 6.72547 8.54973 6.72795 8.55084 6.73146C8.55317 6.73882 8.55647 6.7519 8.55655 6.76872L8.25655 6.77004C8.25665 6.7916 8.26084 6.80941 8.26484 6.82204C8.26848 6.83352 8.27277 6.84308 8.27473 6.84744C8.27976 6.85857 8.28134 6.86139 8.28509 6.87074L8.56357 6.75917ZM8.55655 6.76852C8.55488 6.47628 8.55279 6.18499 8.55309 5.8937L8.25309 5.8934C8.25279 6.18597 8.25488 6.47862 8.25655 6.77024L8.55655 6.76852ZM8.55309 5.89368C8.55326 5.70641 8.59742 5.59989 8.65911 5.53833C8.72088 5.47668 8.82786 5.43254 9.01556 5.43214L9.01493 5.13214C8.7862 5.13263 8.58729 5.18617 8.44719 5.32598C8.30699 5.4659 8.25329 5.66464 8.25309 5.89341L8.55309 5.89368ZM9.01555 5.43214C9.2164 5.43173 9.41696 5.4321 9.61717 5.4321V5.1321C9.41774 5.1321 9.21616 5.13173 9.01493 5.13214L9.01555 5.43214ZM9.76717 5.2821V4.29613H9.46717V5.2821H9.76717ZM9.61717 4.14613C9.22441 4.14613 8.83974 4.14513 8.45549 4.14634L8.45644 4.44634C8.84009 4.44513 9.22333 4.44613 9.61717 4.44613V4.14613ZM8.45549 4.14634C8.04208 4.14764 7.6847 4.28827 7.42927 4.54286C7.17388 4.79742 7.03129 5.15503 7.02715 5.5702L7.32714 5.57319C7.3306 5.22621 7.44843 4.94734 7.64105 4.75534C7.83364 4.56339 8.11187 4.44742 8.45643 4.44634L8.45549 4.14634ZM7.02715 5.57019C7.0236 5.92571 7.02644 6.28254 7.02639 6.63548L7.32639 6.63552C7.32644 6.27923 7.3236 5.92683 7.32714 5.5732L7.02715 5.57019ZM7.02639 6.6355V6.82268H7.32639V6.6355H7.02639ZM7.17639 6.67268H6.38945V6.97268H7.17639V6.67268ZM6.23945 6.82268V7.79621H6.53945V6.82268H6.23945ZM6.38945 7.94621H7.1789V7.64621H6.38945V7.94621ZM8.62068 8.16831V8.37836H8.92068V8.16831H8.62068ZM8.62068 8.37836C8.62068 9.48369 8.62089 10.5889 8.62051 11.6942L8.92051 11.6943C8.92089 10.589 8.92068 9.48361 8.92068 8.37836H8.62068ZM8.62051 11.6942C8.62045 11.8537 8.59588 11.8963 8.58167 11.9104C8.56683 11.925 8.52226 11.9494 8.36039 11.9497L8.36081 12.2497C8.52326 12.2494 8.68358 12.2315 8.79259 12.1237C8.90222 12.0153 8.92045 11.8554 8.92051 11.6943L8.62051 11.6942ZM8.36041 11.9497C7.96466 11.9502 7.5698 11.9512 7.17495 11.9493L7.1735 12.2493C7.56951 12.2512 7.9656 12.2502 8.36079 12.2497L8.36041 11.9497ZM7.17498 11.9493C7.04653 11.9486 7.00833 11.925 6.9955 11.9121C6.98257 11.8991 6.95932 11.8606 6.95926 11.7322L6.65926 11.7323C6.65932 11.8775 6.68158 12.0218 6.78262 12.1235C6.88376 12.2254 7.02798 12.2485 7.17347 12.2493L7.17498 11.9493ZM6.95926 11.7322C6.95867 10.6113 6.95901 9.49047 6.95897 8.36946L6.65897 8.36948C6.65901 9.49035 6.65867 10.6114 6.65926 11.7323L6.95926 11.7322ZM6.95897 8.36947V8.1684H6.65897V8.36947H6.95897ZM6.80897 8.01839C6.64142 8.01839 6.49481 8.01994 6.34668 8.01807L6.34291 8.31805C6.49343 8.31994 6.64564 8.3184 6.80897 8.3184V8.01839ZM6.3467 8.01807C6.25278 8.01689 6.21406 7.99478 6.19715 7.97802C6.18065 7.96167 6.15849 7.92417 6.15779 7.83127L5.8578 7.83352C5.85881 7.96836 5.8913 8.09726 5.98595 8.19108C6.08019 8.2845 6.20912 8.31636 6.3429 8.31805L6.3467 8.01807ZM6.15779 7.83125C6.15513 7.48279 6.15533 7.13417 6.15771 6.78547L5.85772 6.78343C5.85533 7.13336 5.85512 7.48345 5.8578 7.83354L6.15779 7.83125ZM6.15771 6.78548C6.15837 6.68936 6.18053 6.65166 6.19623 6.63587C6.21186 6.62016 6.24884 6.59823 6.34314 6.59723L6.33995 6.29724C6.20663 6.29866 6.07749 6.32982 5.9835 6.42435C5.88958 6.5188 5.85864 6.6485 5.85772 6.78342L6.15771 6.78548ZM6.34313 6.59723C6.49174 6.59565 6.63902 6.59694 6.81064 6.59694V6.29694C6.64253 6.29694 6.49058 6.29565 6.33995 6.29724L6.34313 6.59723ZM6.96064 6.44694C6.96064 6.11064 6.95356 5.80011 6.96212 5.48652L6.66224 5.47833C6.65353 5.7971 6.66064 6.11984 6.66064 6.44694H6.96064ZM6.96212 5.48652C6.97673 4.95124 7.22019 4.55249 7.67671 4.27146L7.51944 4.01598C6.98169 4.34702 6.67976 4.83612 6.66224 5.47833L6.96212 5.48652ZM7.67671 4.27145C7.90618 4.13019 8.16587 4.07685 8.44897 4.07658L8.44868 3.77658C8.12814 3.77689 7.8094 3.83748 7.51944 4.01598L7.67671 4.27145ZM8.44897 4.07658C8.84497 4.0762 9.23958 4.07478 9.63437 4.07699L9.63604 3.777C9.23996 3.77478 8.84363 3.7762 8.44868 3.77658L8.44897 4.07658ZM9.63437 4.07699C9.75287 4.07765 9.7934 4.1013 9.80872 4.11648C9.82364 4.13128 9.84701 4.17023 9.8475 4.28595L10.1475 4.28469C10.1469 4.14246 10.1203 4.00297 10.02 3.90346C9.91999 3.80434 9.77992 3.7778 9.63604 3.777L9.63437 4.07699ZM9.8475 4.28595C9.84892 4.6245 9.84929 4.96289 9.84733 5.30106L10.1473 5.30279C10.1493 4.96328 10.1489 4.62382 10.1475 4.28469L9.8475 4.28595ZM9.84733 5.30107C9.84674 5.40606 9.82437 5.44367 9.80979 5.45839C9.79527 5.47305 9.75806 5.49571 9.65334 5.49712L9.65738 5.7971C9.7941 5.79525 9.92718 5.76619 10.0229 5.6695C10.1186 5.57287 10.1465 5.43952 10.1473 5.30278L9.84733 5.30107ZM9.65333 5.49712C9.54549 5.49858 9.4374 5.49832 9.32798 5.498C9.21896 5.49767 9.10853 5.49729 8.99797 5.49858L9.00147 5.79856C9.10942 5.7973 9.21756 5.79767 9.3271 5.79799C9.43624 5.79832 9.54671 5.7986 9.6574 5.7971L9.65333 5.49712ZM8.99798 5.49858C8.90888 5.49961 8.79581 5.50826 8.71501 5.58619C8.63255 5.66573 8.62285 5.77891 8.62149 5.86634L8.92146 5.87101C8.92206 5.83228 8.92508 5.8107 8.92812 5.79904C8.93066 5.7893 8.93112 5.79456 8.92328 5.80212C8.91576 5.80938 8.91156 5.80812 8.92368 5.8052C8.93728 5.80192 8.96091 5.79903 9.00146 5.79856L8.99798 5.49858ZM8.62149 5.86639C8.61863 6.05441 8.62085 6.24431 8.62085 6.4469H8.92085C8.92085 6.2395 8.91864 6.05604 8.92146 5.87096L8.62149 5.86639ZM8.77085 6.5969C9.0551 6.5969 9.32387 6.59657 9.59282 6.59699L9.59329 6.29699C9.32403 6.29657 9.05459 6.2969 8.77085 6.2969V6.5969ZM9.59278 6.59699C9.73793 6.59725 9.7802 6.62299 9.79329 6.63663C9.80504 6.64889 9.82897 6.68925 9.81891 6.83163L10.1182 6.85279C10.1292 6.69648 10.1158 6.5395 10.0098 6.42895C9.90507 6.31979 9.74904 6.29727 9.59332 6.29699L9.59278 6.59699ZM9.81891 6.83163C9.79443 7.17787 9.76204 7.52386 9.72942 7.87177L10.0281 7.89977C10.0607 7.55239 10.0934 7.20301 10.1182 6.85279L9.81891 6.83163ZM9.72941 7.87182C9.72324 7.93797 9.70348 7.96836 9.68696 7.98342C9.67014 7.99875 9.63664 8.01641 9.56728 8.01737L9.57142 8.31734C9.68969 8.31571 9.80234 8.28416 9.88904 8.20514C9.97605 8.12585 10.0172 8.01675 10.0281 7.89972L9.72941 7.87182ZM9.56722 8.01737C9.30951 8.02102 9.05321 8.01831 8.77068 8.01831V8.31831C9.04897 8.31831 9.31101 8.32103 9.57147 8.31734L9.56722 8.01737Z" fill="black"/>
<path fill-rule="evenodd" clip-rule="evenodd" d="M7.17909 7.79637H6.38965V6.82283H7.17659V6.63565C7.17663 6.28104 7.17379 5.92642 7.17734 5.57185C7.18493 4.8097 7.69818 4.29888 8.45616 4.2965C8.84011 4.29529 9.22407 4.29629 9.61737 4.29629V5.28226C9.41755 5.28226 9.21647 5.28188 9.01544 5.2823C8.59901 5.28318 8.40366 5.47766 8.40328 5.8937C8.40299 6.18564 8.40508 6.47761 8.40674 6.76954C8.40679 6.77901 8.41384 6.78844 8.42452 6.81511H9.60034C9.5728 7.14757 9.5468 7.46128 9.5195 7.7909H8.40871V11.7202H7.17909V7.79637Z" fill="white"/>
</svg>
