<svg width="24" height="24" viewBox="0 0 24 24" fill="none" xmlns="http://www.w3.org/2000/svg">
<mask id="mask0_12_3171" style="mask-type:alpha" maskUnits="userSpaceOnUse" x="0" y="0" width="24" height="24">
<path fill-rule="evenodd" clip-rule="evenodd" d="M0 0H24V24H0V0Z" fill="white"/>
</mask>
<g mask="url(#mask0_12_3171)">
<path fill-rule="evenodd" clip-rule="evenodd" d="M24 12C24 18.6274 18.6274 24 12 24C5.37257 24 0 18.6274 0 12C0 5.37257 5.37257 0 12 0C18.6274 0 24 5.37257 24 12Z" fill="#3B5998"/>
</g>
<path fill-rule="evenodd" clip-rule="evenodd" d="M12.9265 17.9728H10.6905V17.6759C10.6905 16.0627 10.6907 14.4493 10.6903 12.836C10.6903 12.5282 10.6893 12.5275 10.3794 12.527C9.9507 12.5263 9.52195 12.5211 9.09345 12.5292C8.91082 12.5326 8.82776 12.485 8.8322 12.2807C8.84445 11.712 8.84157 11.1428 8.83345 10.574C8.83095 10.3992 8.89651 10.3402 9.06514 10.3425C9.51708 10.3485 9.96951 10.333 10.421 10.3488C10.6439 10.3565 10.699 10.2736 10.6945 10.0658C10.6843 9.5829 10.6884 9.0994 10.699 8.61646C10.7343 7.00046 11.7783 5.97634 13.3989 5.97559C13.8968 5.9754 14.3947 6.01002 14.8928 6.02309C15.0605 6.02746 15.1235 6.09784 15.1209 6.26759C15.113 6.77409 15.1141 7.28077 15.1203 7.78728C15.1221 7.9464 15.0676 8.01121 14.9038 8.0084C14.5376 8.00203 14.1711 8.00415 13.805 8.0119C13.2356 8.02396 12.9423 8.3129 12.9296 8.8814C12.9201 9.30209 12.933 9.72321 12.9235 10.1438C12.92 10.3003 12.9783 10.347 13.1264 10.3457C13.6641 10.3406 14.2019 10.3432 14.7396 10.3444C15.0467 10.3452 15.0395 10.3455 14.9994 10.6412C14.9263 11.1803 14.8558 11.72 14.799 12.261C14.7793 12.4492 14.7235 12.537 14.5159 12.5308C14.0643 12.5174 13.6118 12.5328 13.16 12.5243C12.9787 12.5208 12.9216 12.5805 12.9225 12.7663C12.9294 14.4029 12.9265 16.0396 12.9265 17.6763V17.9728Z" fill="white"/>
</svg>
