<svg width="60" height="64" viewBox="0 0 60 64" fill="none" xmlns="http://www.w3.org/2000/svg">
<path fill-rule="evenodd" clip-rule="evenodd" d="M46.0448 59.6491C50.0155 58.5835 52.5874 55.1964 52.5969 51.0202C52.609 45.7123 52.6066 40.3159 52.6043 35.0974C52.6032 32.9089 52.6023 30.7206 52.6023 28.5321V26.7436H51.5218C50.7913 26.7436 50.0706 26.7446 49.3572 26.7456L49.0269 26.746C47.2256 26.7488 45.524 26.7508 43.796 26.7413C37.1484 26.7039 31.9206 21.4553 31.8943 14.7922C31.888 13.2345 31.8895 11.6768 31.8913 10.1191L31.8913 10.1142C31.8919 9.4105 31.8926 8.70634 31.8926 8.00239V6.03022H30.812C29.478 6.03022 28.155 6.02892 26.8396 6.02762L26.6296 6.02741C23.6713 6.02446 20.8685 6.02165 18.0031 6.03432C12.89 6.05658 9.0306 9.94107 9.02585 15.0703C9.01504 26.4897 9.01483 38.211 9.0252 50.9035C9.02952 56.0645 12.9123 59.9631 18.0569 59.9715C21.5513 59.9773 25.0917 59.9801 28.6616 59.9801C33.5797 59.9801 38.5529 59.9747 43.5341 59.9637C44.4299 59.9616 45.2746 59.8559 46.0448 59.6491ZM34.9167 10.9892C34.9167 11.422 34.9136 11.8551 34.9104 12.288C34.9037 13.2377 34.8968 14.2197 34.9234 15.1939C35.0344 19.264 38.0517 22.8321 41.9414 23.4941C43.2568 23.718 44.5491 23.7389 45.9173 23.7607C46.5098 23.7703 47.1225 23.7802 47.733 23.8083L50.5261 23.9367L34.9167 8.3877V10.9892ZM34.9154 3.88365C41.3026 10.3139 47.9809 16.9937 54.7649 23.7381C55.37 24.3395 55.6273 24.9709 55.6254 25.8494C55.6156 30.4059 55.6163 35.0365 55.6169 39.5212V39.5238V39.5264L55.617 39.7696V39.7772C55.6176 43.4942 55.6183 47.2113 55.6133 50.9282C55.6044 57.7932 50.4337 62.9784 43.5856 62.9896C35.1075 63.0035 26.5096 63.0035 18.0312 62.9896C11.1852 62.9782 6.01486 57.7925 6.00449 50.9269C5.99854 46.996 5.99979 43.065 6.00104 39.1337L6.00125 38.4961L6.00276 32.9699L6.00211 27.4477L6.00201 26.5766C6.0016 22.8023 6.00118 19.0283 6.00319 15.254C6.00686 8.16491 11.1597 3.01664 18.255 3.01297C18.5742 3.01275 18.8932 3.01275 19.2124 3.01275C20.3843 3.01275 21.5565 3.01361 22.7284 3.01448C26.0087 3.0175 29.4006 3.02053 32.7384 3.00022L32.7667 3C33.6691 3 34.2933 3.25716 34.9154 3.88365ZM30.8489 36.6721L33.7989 36.6714C36.1581 36.6708 38.5173 36.6701 40.8766 36.6734C41.4641 36.6742 41.9631 36.8514 42.2812 37.1724C42.5421 37.4354 42.6726 37.7785 42.6694 38.1924C42.6624 39.0998 41.975 39.6867 40.9181 39.6874C34.1784 39.6921 27.4389 39.6921 20.6993 39.6874C19.6425 39.6865 18.9555 39.0994 18.9493 38.1915C18.9465 37.774 19.0765 37.4297 19.3359 37.1683C19.6516 36.8497 20.1502 36.6742 20.7399 36.6734C22.1277 36.6714 23.5149 36.671 24.9025 36.671C25.8931 36.671 26.8842 36.6712 27.8748 36.6714L30.8489 36.6721ZM41.107 50.0404C42.001 50.0359 42.6716 49.3863 42.6673 48.5297C42.6629 47.6948 42.0019 47.0396 41.1623 47.0377C34.1488 47.0217 27.068 47.0271 20.4608 47.0351C19.8321 47.0359 19.4191 47.2881 19.1211 47.8532C18.8711 48.3269 18.8767 48.8471 19.136 49.2798C19.42 49.7535 19.9579 50.0383 20.5751 50.0417C22.9883 50.0549 25.4435 50.0521 27.8185 50.0491C28.826 50.0478 29.8334 50.0465 30.8409 50.0465C31.478 50.0494 32.1158 50.049 32.7536 50.0487H32.7605C33.1205 50.0485 33.4804 50.0483 33.8403 50.0487L34.0904 50.0489C36.3948 50.051 38.7708 50.0532 41.107 50.0404ZM20.505 26.3214C21.3301 26.3109 22.1701 26.3057 23.0194 26.3057C23.8633 26.3057 24.7165 26.3106 25.5725 26.3212C26.4699 26.332 27.1427 26.9823 27.1371 27.8337C27.1317 28.6845 26.4572 29.3138 25.5336 29.3301C24.9685 29.3401 24.3877 29.3375 23.8256 29.3349L23.8088 29.3348C23.5547 29.3335 23.3008 29.3324 23.0466 29.3322H23.0464C22.8512 29.3303 22.6519 29.3321 22.4528 29.3339C22.3784 29.3345 22.3041 29.3352 22.23 29.3357C21.6556 29.3396 21.0613 29.343 20.4862 29.3283C19.6166 29.3061 18.956 28.6653 18.9493 27.8378C18.9421 26.9706 19.5965 26.3329 20.505 26.3214Z" fill="black"/>
<path d="M52.5969 51.0202L52.4969 51.02L52.4969 51.02L52.5969 51.0202ZM46.0448 59.6491L46.0189 59.5525L46.0189 59.5525L46.0448 59.6491ZM52.6043 35.0974L52.7043 35.0974L52.7043 35.0973L52.6043 35.0974ZM52.6023 26.7436H52.7023V26.6436H52.6023V26.7436ZM49.3572 26.7456L49.3574 26.8456L49.3574 26.8456L49.3572 26.7456ZM49.0269 26.746L49.0267 26.646L49.0267 26.646L49.0269 26.746ZM43.796 26.7413L43.7955 26.8413L43.7955 26.8413L43.796 26.7413ZM31.8943 14.7922L31.9943 14.7918L31.9943 14.7918L31.8943 14.7922ZM31.8913 10.1191L31.7913 10.119L31.7913 10.119L31.8913 10.1191ZM31.8913 10.1142L31.9913 10.1143L31.9913 10.1143L31.8913 10.1142ZM31.8926 6.03022H31.9926V5.93022H31.8926V6.03022ZM26.8396 6.02762L26.8395 6.12762L26.8395 6.12762L26.8396 6.02762ZM26.6296 6.02741L26.6295 6.12741L26.6295 6.12741L26.6296 6.02741ZM18.0031 6.03432L18.0035 6.13432L18.0035 6.13432L18.0031 6.03432ZM9.02585 15.0703L9.12585 15.0704L9.12585 15.0704L9.02585 15.0703ZM9.0252 50.9035L8.9252 50.9036L8.9252 50.9036L9.0252 50.9035ZM18.0569 59.9715L18.057 59.8715L18.057 59.8715L18.0569 59.9715ZM43.5341 59.9637L43.5343 60.0637L43.5344 60.0637L43.5341 59.9637ZM34.9104 12.288L34.8104 12.2872L34.8104 12.2873L34.9104 12.288ZM34.9234 15.1939L34.8234 15.1966L34.8234 15.1966L34.9234 15.1939ZM41.9414 23.4941L41.9582 23.3955L41.9581 23.3955L41.9414 23.4941ZM45.9173 23.7607L45.9189 23.6608L45.9189 23.6608L45.9173 23.7607ZM47.733 23.8083L47.7284 23.9082L47.7284 23.9082L47.733 23.8083ZM50.5261 23.9367L50.5215 24.0365L50.78 24.0484L50.5967 23.8658L50.5261 23.9367ZM34.9167 8.3877L34.9872 8.31685L34.8167 8.14694V8.3877H34.9167ZM54.7649 23.7381L54.6944 23.809L54.6944 23.809L54.7649 23.7381ZM34.9154 3.88365L34.8445 3.95412L34.8445 3.95413L34.9154 3.88365ZM55.6254 25.8494L55.5254 25.8492L55.5254 25.8492L55.6254 25.8494ZM55.6169 39.5212L55.7169 39.5212L55.7169 39.5212L55.6169 39.5212ZM55.6169 39.5264L55.5169 39.5264L55.5169 39.5264L55.6169 39.5264ZM55.617 39.7696L55.717 39.7696L55.717 39.7696L55.617 39.7696ZM55.617 39.7772L55.517 39.7772L55.517 39.7772L55.617 39.7772ZM55.6133 50.9282L55.5133 50.928L55.5133 50.928L55.6133 50.9282ZM43.5856 62.9896L43.5857 63.0896L43.5857 63.0896L43.5856 62.9896ZM18.0312 62.9896L18.031 63.0896L18.031 63.0896L18.0312 62.9896ZM6.00449 50.9269L6.10449 50.9267L6.10449 50.9267L6.00449 50.9269ZM6.00104 39.1337L6.10104 39.1337L6.10104 39.1337L6.00104 39.1337ZM6.00125 38.4961L6.10125 38.4961L6.10125 38.4961L6.00125 38.4961ZM6.00276 32.9699L6.10276 32.9699L6.10276 32.9698L6.00276 32.9699ZM6.00211 27.4477L5.90211 27.4477L5.90211 27.4477L6.00211 27.4477ZM6.00201 26.5766L6.10201 26.5765L6.10201 26.5765L6.00201 26.5766ZM6.00319 15.254L6.10319 15.2541L6.10319 15.2541L6.00319 15.254ZM18.255 3.01297L18.2551 3.11297L18.2551 3.11297L18.255 3.01297ZM22.7284 3.01448L22.7285 2.91448L22.7285 2.91448L22.7284 3.01448ZM32.7384 3.00022L32.739 3.10021L32.7391 3.10021L32.7384 3.00022ZM32.7667 3V2.9L32.7659 2.9L32.7667 3ZM33.7989 36.6714L33.7989 36.7714L33.7989 36.7714L33.7989 36.6714ZM30.8489 36.6721L30.8488 36.7721L30.8489 36.7721L30.8489 36.6721ZM40.8766 36.6734L40.8767 36.5734L40.8767 36.5734L40.8766 36.6734ZM42.2812 37.1724L42.2102 37.2428L42.2102 37.2428L42.2812 37.1724ZM42.6694 38.1924L42.5694 38.1916L42.5694 38.1916L42.6694 38.1924ZM40.9181 39.6874L40.918 39.5874L40.918 39.5874L40.9181 39.6874ZM20.6993 39.6874L20.6992 39.7874L20.6992 39.7874L20.6993 39.6874ZM18.9493 38.1915L18.8493 38.1922L18.8493 38.1922L18.9493 38.1915ZM19.3359 37.1683L19.4069 37.2387L19.4069 37.2386L19.3359 37.1683ZM20.7399 36.6734L20.7398 36.5734L20.7398 36.5734L20.7399 36.6734ZM27.8748 36.6714L27.8748 36.7714L27.8748 36.7714L27.8748 36.6714ZM42.6673 48.5297L42.7673 48.5292L42.7673 48.5291L42.6673 48.5297ZM41.107 50.0404L41.1065 49.9404L41.1064 49.9404L41.107 50.0404ZM41.1623 47.0377L41.1625 46.9377L41.1625 46.9377L41.1623 47.0377ZM20.4608 47.0351L20.4606 46.9351L20.4606 46.9351L20.4608 47.0351ZM19.1211 47.8532L19.2096 47.8999L19.2096 47.8999L19.1211 47.8532ZM19.136 49.2798L19.0503 49.3312L19.0503 49.3312L19.136 49.2798ZM20.5751 50.0417L20.5745 50.1417L20.5745 50.1417L20.5751 50.0417ZM27.8185 50.0491L27.8186 50.1491L27.8186 50.1491L27.8185 50.0491ZM30.8409 50.0465L30.8414 49.9465H30.8409V50.0465ZM32.7536 50.0487V49.9487L32.7536 49.9487L32.7536 50.0487ZM32.7605 50.0487L32.7605 50.1487L32.7605 50.1487L32.7605 50.0487ZM33.8403 50.0487L33.8401 50.1487L33.8402 50.1487L33.8403 50.0487ZM34.0904 50.0489L34.0905 49.9489L34.0905 49.9489L34.0904 50.0489ZM20.505 26.3214L20.5063 26.4214L20.5063 26.4214L20.505 26.3214ZM25.5725 26.3212L25.5712 26.4212L25.5713 26.4212L25.5725 26.3212ZM27.1371 27.8337L27.0371 27.8331L27.0371 27.8331L27.1371 27.8337ZM25.5336 29.3301L25.5318 29.2301L25.5318 29.2301L25.5336 29.3301ZM23.8256 29.3349L23.8261 29.2349L23.8261 29.2349L23.8256 29.3349ZM23.8088 29.3348L23.8083 29.4348L23.8084 29.4348L23.8088 29.3348ZM23.0466 29.3322L23.0467 29.2322H23.0466V29.3322ZM23.0464 29.3322L23.0454 29.4322H23.0464V29.3322ZM22.4528 29.3339L22.4519 29.2339L22.4519 29.2339L22.4528 29.3339ZM22.23 29.3357L22.2293 29.2357L22.2293 29.2357L22.23 29.3357ZM20.4862 29.3283L20.4837 29.4283L20.4837 29.4283L20.4862 29.3283ZM18.9493 27.8378L19.0493 27.837L19.0493 27.837L18.9493 27.8378ZM52.4969 51.02C52.4875 55.1521 49.945 58.4988 46.0189 59.5525L46.0707 59.7457C50.086 58.6681 52.6873 55.2408 52.6969 51.0204L52.4969 51.02ZM52.5043 35.0974C52.5066 40.316 52.509 45.7122 52.4969 51.02L52.6969 51.0204C52.709 45.7123 52.7066 40.3158 52.7043 35.0974L52.5043 35.0974ZM52.5023 28.5321C52.5023 30.7207 52.5032 32.9089 52.5043 35.0974L52.7043 35.0973C52.7032 32.9089 52.7023 30.7206 52.7023 28.5321H52.5023ZM52.5023 26.7436V28.5321H52.7023V26.7436H52.5023ZM51.5218 26.8436H52.6023V26.6436H51.5218V26.8436ZM49.3574 26.8456C50.0708 26.8446 50.7913 26.8436 51.5218 26.8436V26.6436C50.7912 26.6436 50.0705 26.6446 49.3571 26.6456L49.3574 26.8456ZM49.027 26.846L49.3574 26.8456L49.3571 26.6456L49.0267 26.646L49.027 26.846ZM43.7955 26.8413C45.5239 26.8508 47.2258 26.8488 49.027 26.846L49.0267 26.646C47.2254 26.6488 45.5242 26.6508 43.7966 26.6413L43.7955 26.8413ZM31.7943 14.7926C31.8209 21.5104 37.0928 26.8036 43.7955 26.8413L43.7966 26.6413C37.2041 26.6042 32.0204 21.4003 31.9943 14.7918L31.7943 14.7926ZM31.7913 10.119C31.7895 11.6767 31.788 13.2346 31.7943 14.7926L31.9943 14.7918C31.988 13.2344 31.9895 11.677 31.9913 10.1192L31.7913 10.119ZM31.7913 10.1141L31.7913 10.119L31.9913 10.1193L31.9913 10.1143L31.7913 10.1141ZM31.7926 8.00239C31.7926 8.70628 31.7919 9.4104 31.7913 10.1141L31.9913 10.1143C31.9919 9.4106 31.9926 8.70639 31.9926 8.00239H31.7926ZM31.7926 6.03022V8.00239H31.9926V6.03022H31.7926ZM30.812 6.13022H31.8926V5.93022H30.812V6.13022ZM26.8395 6.12762C28.1549 6.12892 29.478 6.13022 30.812 6.13022V5.93022C29.4781 5.93022 28.1551 5.92892 26.8397 5.92762L26.8395 6.12762ZM26.6295 6.12741L26.8395 6.12762L26.8397 5.92762L26.6297 5.92741L26.6295 6.12741ZM18.0035 6.13432C20.8687 6.12166 23.6712 6.12446 26.6295 6.12741L26.6297 5.92741C23.6715 5.92446 20.8684 5.92165 18.0026 5.93432L18.0035 6.13432ZM9.12585 15.0704C9.13055 9.99589 12.9458 6.15634 18.0035 6.13432L18.0026 5.93432C12.8343 5.95682 8.93065 9.88624 8.92585 15.0702L9.12585 15.0704ZM9.1252 50.9034C9.11483 38.211 9.11504 26.4898 9.12585 15.0704L8.92585 15.0702C8.91504 26.4897 8.91483 38.2111 8.9252 50.9036L9.1252 50.9034ZM18.057 59.8715C12.9679 59.8632 9.12948 56.0096 9.1252 50.9034L8.9252 50.9036C8.92957 56.1195 12.8567 60.063 18.0567 60.0715L18.057 59.8715ZM28.6616 59.8801C25.0918 59.8801 21.5514 59.8773 18.057 59.8715L18.0567 60.0715C21.5512 60.0773 25.0917 60.0801 28.6616 60.0801V59.8801ZM43.5339 59.8637C38.5528 59.8747 33.5796 59.8801 28.6616 59.8801V60.0801C33.5798 60.0801 38.553 60.0747 43.5343 60.0637L43.5339 59.8637ZM46.0189 59.5525C45.2581 59.7568 44.422 59.8616 43.5339 59.8637L43.5344 60.0637C44.4377 60.0615 45.2912 59.955 46.0708 59.7456L46.0189 59.5525ZM35.0104 12.2887C35.0136 11.8559 35.0167 11.4224 35.0167 10.9892H34.8167C34.8167 11.4216 34.8136 11.8543 34.8104 12.2872L35.0104 12.2887ZM35.0233 15.1912C34.9968 14.219 35.0037 13.2387 35.0104 12.2887L34.8104 12.2873C34.8037 13.2368 34.7968 14.2204 34.8234 15.1966L35.0233 15.1912ZM41.9581 23.3955C38.1177 22.7419 35.1332 19.2158 35.0233 15.1912L34.8234 15.1966C34.9357 19.3122 37.9857 22.9224 41.9246 23.5927L41.9581 23.3955ZM45.9189 23.6608C44.5495 23.6389 43.2648 23.6179 41.9582 23.3955L41.9246 23.5927C43.2488 23.818 44.5487 23.8389 45.9157 23.8607L45.9189 23.6608ZM47.7376 23.7084C47.1253 23.6802 46.5112 23.6703 45.9189 23.6608L45.9157 23.8607C46.5084 23.8702 47.1196 23.8802 47.7284 23.9082L47.7376 23.7084ZM50.5307 23.8368L47.7376 23.7084L47.7284 23.9082L50.5215 24.0365L50.5307 23.8368ZM34.8461 8.45854L50.4556 24.0075L50.5967 23.8658L34.9872 8.31685L34.8461 8.45854ZM35.0167 10.9892V8.3877H34.8167V10.9892H35.0167ZM54.8354 23.6672C48.0516 16.9229 41.3734 10.2432 34.9864 3.81318L34.8445 3.95413C41.2318 10.3845 47.9103 17.0644 54.6944 23.809L54.8354 23.6672ZM55.7254 25.8496C55.7274 24.9454 55.46 24.288 54.8354 23.6671L54.6944 23.809C55.2799 24.391 55.5273 24.9965 55.5254 25.8492L55.7254 25.8496ZM55.7169 39.5212C55.7163 35.0365 55.7156 30.4059 55.7254 25.8496L55.5254 25.8492C55.5156 30.4058 55.5163 35.0365 55.5169 39.5212L55.7169 39.5212ZM55.7169 39.5238V39.5212H55.5169V39.5238H55.7169ZM55.7169 39.5264V39.5238H55.5169V39.5264H55.7169ZM55.717 39.7696L55.7169 39.5264L55.5169 39.5264L55.517 39.7696L55.717 39.7696ZM55.717 39.7772V39.7696H55.517V39.7772H55.717ZM55.7133 50.9283C55.7183 47.2114 55.7176 43.4942 55.717 39.7772L55.517 39.7772C55.5176 43.4943 55.5183 47.2113 55.5133 50.928L55.7133 50.9283ZM43.5857 63.0896C50.4892 63.0783 55.7044 57.8482 55.7133 50.9283L55.5133 50.928C55.5045 57.7382 50.3782 62.8785 43.5854 62.8896L43.5857 63.0896ZM18.031 63.0896C26.5095 63.1035 35.1076 63.1035 43.5857 63.0896L43.5854 62.8896C35.1075 62.9035 26.5097 62.9035 18.0313 62.8896L18.031 63.0896ZM5.90449 50.927C5.91494 57.8475 11.1296 63.0781 18.031 63.0896L18.0313 62.8896C11.2407 62.8783 6.11478 57.7375 6.10449 50.9267L5.90449 50.927ZM5.90104 39.1337C5.89979 43.0649 5.89854 46.9961 5.90449 50.927L6.10449 50.9267C6.09854 46.996 6.09979 43.065 6.10104 39.1337L5.90104 39.1337ZM5.90125 38.4961L5.90104 39.1337L6.10104 39.1337L6.10125 38.4961L5.90125 38.4961ZM5.90276 32.9698L5.90125 38.4961L6.10125 38.4961L6.10276 32.9699L5.90276 32.9698ZM5.90211 27.4477L5.90276 32.9699L6.10276 32.9698L6.10211 27.4477L5.90211 27.4477ZM5.90201 26.5766L5.90211 27.4477L6.10211 27.4477L6.10201 26.5765L5.90201 26.5766ZM5.90319 15.254C5.90118 19.0283 5.9016 22.8023 5.90201 26.5766L6.10201 26.5765C6.1016 22.8023 6.10118 19.0283 6.10319 15.2541L5.90319 15.254ZM18.255 2.91297C11.1045 2.91667 5.90689 8.10958 5.90319 15.254L6.10319 15.2541C6.10684 8.22023 11.2148 3.11661 18.2551 3.11297L18.255 2.91297ZM19.2124 2.91275C18.8932 2.91275 18.5742 2.91275 18.255 2.91297L18.2551 3.11297C18.5743 3.11275 18.8932 3.11275 19.2124 3.11275V2.91275ZM22.7285 2.91448C21.5566 2.91361 20.3844 2.91275 19.2124 2.91275V3.11275C20.3843 3.11275 21.5564 3.11361 22.7283 3.11448L22.7285 2.91448ZM32.7378 2.90022C29.4004 2.92053 26.0088 2.9175 22.7285 2.91448L22.7283 3.11448C26.0085 3.1175 29.4008 3.12053 32.739 3.10021L32.7378 2.90022ZM32.7659 2.9L32.7376 2.90022L32.7391 3.10021L32.7675 3.1L32.7659 2.9ZM34.9864 3.81319C34.6681 3.49269 34.3457 3.26315 33.9842 3.11441C33.6228 2.96572 33.2276 2.9 32.7667 2.9V3.1C33.2082 3.1 33.5763 3.16286 33.9081 3.29937C34.2398 3.43584 34.5406 3.64812 34.8445 3.95412L34.9864 3.81319ZM33.7989 36.5714L30.8488 36.5721L30.8489 36.7721L33.7989 36.7714L33.7989 36.5714ZM40.8767 36.5734C38.5174 36.5701 36.1581 36.5708 33.7989 36.5714L33.7989 36.7714C36.1582 36.7708 38.5173 36.7701 40.8764 36.7734L40.8767 36.5734ZM42.3523 37.102C42.0103 36.7569 41.4826 36.5743 40.8767 36.5734L40.8764 36.7734C41.4457 36.7742 41.916 36.946 42.2102 37.2428L42.3523 37.102ZM42.7694 38.1932C42.7728 37.7561 42.6341 37.3862 42.3522 37.1019L42.2102 37.2428C42.45 37.4845 42.5724 37.801 42.5694 38.1916L42.7694 38.1932ZM40.9181 39.7874C41.4645 39.7871 41.9255 39.6351 42.2524 39.356C42.5809 39.0756 42.7657 38.6737 42.7694 38.1931L42.5694 38.1916C42.5661 38.6184 42.4038 38.9638 42.1226 39.2039C41.8398 39.4452 41.4286 39.5871 40.918 39.5874L40.9181 39.7874ZM20.6992 39.7874C27.4389 39.7921 34.1784 39.7921 40.9181 39.7874L40.918 39.5874C34.1784 39.5921 27.439 39.5921 20.6994 39.5874L20.6992 39.7874ZM18.8493 38.1922C18.8526 38.673 19.0371 39.075 19.3654 39.3556C19.6921 39.6349 20.1529 39.7869 20.6992 39.7874L20.6994 39.5874C20.1889 39.587 19.7778 39.445 19.4953 39.2036C19.2143 38.9634 19.0522 38.6179 19.0493 38.1908L18.8493 38.1922ZM19.2649 37.0978C18.9842 37.3808 18.8463 37.7519 18.8493 38.1922L19.0493 38.1908C19.0466 37.7961 19.1689 37.4787 19.4069 37.2387L19.2649 37.0978ZM20.7398 36.5734C20.1322 36.5743 19.6047 36.755 19.2649 37.0979L19.4069 37.2386C19.6985 36.9445 20.1682 36.7742 20.7401 36.7734L20.7398 36.5734ZM24.9025 36.571C23.5149 36.571 22.1277 36.5714 20.7398 36.5734L20.74 36.7734C22.1278 36.7714 23.5149 36.771 24.9025 36.771V36.571ZM27.8748 36.5714C26.8842 36.5712 25.8932 36.571 24.9025 36.571V36.771C25.8931 36.771 26.8842 36.7712 27.8748 36.7714L27.8748 36.5714ZM30.8489 36.5721L27.8748 36.5714L27.8748 36.7714L30.8488 36.7721L30.8489 36.5721ZM42.5673 48.5302C42.5713 49.3276 41.9493 49.9362 41.1065 49.9404L41.1075 50.1404C42.0527 50.1356 42.7719 49.445 42.7673 48.5292L42.5673 48.5302ZM41.1621 47.1377C41.9473 47.1395 42.5632 47.7508 42.5673 48.5302L42.7673 48.5291C42.7627 47.6388 42.0565 46.9397 41.1625 46.9377L41.1621 47.1377ZM20.4609 47.1351C27.0681 47.1271 34.1488 47.1217 41.1621 47.1377L41.1625 46.9377C34.1489 46.9217 27.0679 46.9271 20.4606 46.9351L20.4609 47.1351ZM19.2096 47.8999C19.3525 47.6289 19.5191 47.44 19.7191 47.3179C19.9189 47.1959 20.1602 47.1355 20.4609 47.1351L20.4606 46.9351C20.1327 46.9355 19.8532 47.0017 19.6148 47.1472C19.3766 47.2927 19.1878 47.5125 19.0327 47.8066L19.2096 47.8999ZM19.2218 49.2283C18.9817 48.8278 18.9746 48.345 19.2096 47.8999L19.0327 47.8066C18.7675 48.3089 18.7717 48.8664 19.0503 49.3312L19.2218 49.2283ZM20.5756 49.9417C19.9885 49.9385 19.4854 49.6681 19.2218 49.2283L19.0503 49.3312C19.3546 49.8388 19.9273 50.1381 20.5745 50.1417L20.5756 49.9417ZM27.8184 49.9491C25.4433 49.9521 22.9885 49.9549 20.5756 49.9417L20.5745 50.1417C22.9882 50.1549 25.4437 50.1521 27.8186 50.1491L27.8184 49.9491ZM30.8409 49.9465C29.8334 49.9465 28.8258 49.9478 27.8184 49.9491L27.8186 50.1491C28.8261 50.1478 29.8335 50.1465 30.8409 50.1465V49.9465ZM32.7536 49.9487C32.1157 49.949 31.4781 49.9494 30.8414 49.9465L30.8405 50.1465C31.4778 50.1494 32.1159 50.149 32.7537 50.1487L32.7536 49.9487ZM32.7605 49.9487H32.7536V50.1487H32.7605V49.9487ZM33.8404 49.9487C33.4804 49.9483 33.1204 49.9485 32.7604 49.9487L32.7605 50.1487C33.1205 50.1485 33.4804 50.1483 33.8401 50.1487L33.8404 49.9487ZM34.0905 49.9489L33.8403 49.9487L33.8402 50.1487L34.0903 50.1489L34.0905 49.9489ZM41.1064 49.9404C38.7706 49.9532 36.3949 49.951 34.0905 49.9489L34.0903 50.1489C36.3946 50.151 38.771 50.1532 41.1075 50.1404L41.1064 49.9404ZM23.0194 26.2057C22.1697 26.2057 21.3293 26.2109 20.5037 26.2214L20.5063 26.4214C21.3309 26.4108 22.1705 26.4057 23.0194 26.4057V26.2057ZM25.5737 26.2212C24.7173 26.2106 23.8637 26.2057 23.0194 26.2057V26.4057C23.8629 26.4057 24.7157 26.4106 25.5712 26.4212L25.5737 26.2212ZM27.2371 27.8344C27.2431 26.9231 26.5212 26.2326 25.5737 26.2212L25.5713 26.4212C26.4187 26.4314 27.0423 27.0415 27.0371 27.8331L27.2371 27.8344ZM25.5353 29.43C26.5056 29.413 27.2313 28.7468 27.2371 27.8344L27.0371 27.8331C27.032 28.6223 26.4088 29.2147 25.5318 29.2301L25.5353 29.43ZM23.8252 29.4349C24.387 29.4375 24.9689 29.4401 25.5353 29.43L25.5318 29.2301C24.968 29.2401 24.3883 29.2375 23.8261 29.2349L23.8252 29.4349ZM23.8084 29.4348L23.8252 29.4349L23.8261 29.2349L23.8093 29.2348L23.8084 29.4348ZM23.0465 29.4322C23.3005 29.4324 23.5542 29.4335 23.8083 29.4348L23.8093 29.2348C23.5552 29.2335 23.3011 29.2324 23.0467 29.2322L23.0465 29.4322ZM23.0464 29.4322H23.0466V29.2322H23.0464V29.4322ZM22.4537 29.4339C22.6529 29.4321 22.8513 29.4303 23.0454 29.4322L23.0474 29.2322C22.8511 29.2303 22.6508 29.2321 22.4519 29.2339L22.4537 29.4339ZM22.2306 29.4357C22.3048 29.4352 22.3793 29.4345 22.4537 29.4339L22.4519 29.2339C22.3775 29.2345 22.3033 29.2352 22.2293 29.2357L22.2306 29.4357ZM20.4837 29.4283C21.0606 29.443 21.6564 29.4396 22.2306 29.4357L22.2293 29.2357C21.6547 29.2396 21.062 29.243 20.4888 29.2284L20.4837 29.4283ZM18.8493 27.8387C18.8565 28.7244 19.5647 29.4048 20.4837 29.4283L20.4888 29.2284C19.6685 29.2074 19.0555 28.6062 19.0493 27.837L18.8493 27.8387ZM20.5038 26.2214C19.5446 26.2335 18.8417 26.9121 18.8493 27.8387L19.0493 27.837C19.0426 27.0292 19.6484 26.4322 20.5063 26.4214L20.5038 26.2214Z" fill="white"/>
</svg>
