<svg width="12" height="12" viewBox="0 0 12 12" fill="none" xmlns="http://www.w3.org/2000/svg">
<path fill-rule="evenodd" clip-rule="evenodd" d="M3.68681 1.42574H3.84637C6.43101 1.42574 9.01528 1.42574 11.5995 1.42574C11.6442 1.42574 11.6893 1.42803 11.7335 1.42383C11.8866 1.40971 11.9996 1.28717 11.9992 1.13945C11.9988 0.989047 11.8881 0.871476 11.732 0.859261C11.6786 0.855062 11.6247 0.856589 11.5713 0.856589C8.98703 0.856589 6.40239 0.855825 3.81812 0.859261C3.71773 0.859261 3.67268 0.832922 3.6368 0.736728C3.46922 0.286294 3.05047 0.0011467 2.5737 1.53127e-06C2.09807 -0.000761915 1.67169 0.284004 1.50793 0.731765C1.46823 0.840175 1.4167 0.860024 1.31592 0.858497C0.972371 0.853535 0.628439 0.854298 0.284888 0.858879C0.11922 0.861169 0.00241239 0.981794 0.00012205 1.13563C-0.00216829 1.29366 0.119601 1.42192 0.288705 1.42421C0.632256 1.42841 0.976189 1.42574 1.31974 1.42574C1.36784 1.42574 1.41593 1.42574 1.45945 1.42574C1.65718 2.04909 2.15075 2.2766 2.52293 2.27965C3.11498 2.28462 3.48869 1.97656 3.68681 1.42574M3.3131 9.99772H3.17682C2.24389 9.99772 1.31134 9.99772 0.37841 9.99772C0.33413 9.9981 0.288705 9.99504 0.244807 10.0019C0.100515 10.0237 -0.00407691 10.1496 0.00012205 10.292C0.00470273 10.4363 0.113494 10.5508 0.261984 10.5642C0.310463 10.5684 0.360087 10.5669 0.408948 10.5669C1.33272 10.5669 2.25649 10.5684 3.18026 10.565C3.27836 10.5646 3.32608 10.5863 3.36272 10.6863C3.52801 11.136 3.94943 11.4223 4.42468 11.4235C4.90336 11.4246 5.32249 11.1425 5.49045 10.6921C5.529 10.5886 5.58015 10.5646 5.68322 10.5646C7.65138 10.5676 9.61955 10.5669 11.5877 10.5669C11.6412 10.5669 11.6954 10.5684 11.748 10.563C11.8786 10.5489 11.9797 10.4485 11.9973 10.321C12.0149 10.1947 11.9442 10.0664 11.8198 10.0237C11.7587 10.0027 11.6889 9.99886 11.6232 9.99886C9.64169 9.99772 7.66016 9.99695 5.67864 10.0004C5.57366 10.0004 5.52671 9.9729 5.48892 9.87098C5.32516 9.42971 4.90183 9.14266 4.43422 9.14075C3.95974 9.13884 3.53755 9.42666 3.36387 9.8706C3.34784 9.91145 3.33104 9.95229 3.3131 9.99772M4.05479 5.42391C2.83633 5.42391 1.61748 5.42353 0.398641 5.42429C0.336802 5.42429 0.273054 5.42582 0.213124 5.43994C0.082956 5.47048 -0.000641397 5.58309 0.00012205 5.71287C0.000885497 5.84304 0.0852464 5.9545 0.215796 5.9839C0.280307 5.9984 0.348635 5.99917 0.415055 5.99917C2.86114 5.99993 5.3076 5.99993 7.75369 5.99878C7.83881 5.99878 7.89492 6.0026 7.93195 6.10567C8.09724 6.56221 8.52706 6.8569 9.00078 6.85613C9.47602 6.85537 9.89935 6.56144 10.0696 6.10414C10.0998 6.0236 10.136 5.99688 10.2215 5.99764C10.6899 6.00222 11.1587 6.00069 11.6274 5.99878C11.6893 5.9984 11.7549 5.99611 11.8118 5.97626C11.9332 5.93351 11.9988 5.83922 11.9977 5.7102C11.9969 5.58156 11.9313 5.48766 11.8087 5.44643C11.7511 5.42734 11.6858 5.42505 11.624 5.42467C11.1644 5.42314 10.7044 5.42085 10.2448 5.4262C10.1467 5.42696 10.1005 5.4033 10.0635 5.30405C9.89859 4.85781 9.46724 4.56618 8.99772 4.56732C8.53278 4.56885 8.10449 4.85667 7.93959 5.29527C7.90141 5.39642 7.85713 5.42658 7.75101 5.42658C6.51881 5.42238 5.28699 5.42391 4.05479 5.42391" fill="white"/>
<path fill-rule="evenodd" clip-rule="evenodd" d="M4.42353 10.8546C4.7354 10.8569 4.99459 10.6038 5.0007 10.2911C5.00642 9.97774 4.74036 9.70901 4.42582 9.71054C4.11434 9.71244 3.85744 9.97049 3.85705 10.2824C3.85667 10.5954 4.1109 10.8523 4.42353 10.8546V10.8546ZM3.3131 9.99759C3.33104 9.95217 3.34784 9.9117 3.36387 9.87048C3.53755 9.42692 3.96012 9.13871 4.43422 9.141C4.90183 9.14291 5.32516 9.42997 5.48892 9.87086C5.52671 9.97278 5.57366 10.0006 5.67864 10.0003C7.66016 9.99683 9.64169 9.99759 11.6232 9.99874C11.6893 9.99874 11.7587 10.0026 11.8198 10.0235C11.9442 10.0663 12.0149 10.1946 11.9973 10.3213C11.9797 10.4484 11.8786 10.5492 11.7484 10.5629C11.6954 10.5686 11.6412 10.5667 11.5877 10.5667C9.61955 10.5671 7.65138 10.5679 5.68322 10.5648C5.58015 10.5645 5.529 10.5885 5.49045 10.6919C5.32249 11.1428 4.90336 11.4245 4.42468 11.4233C3.94943 11.4226 3.52801 11.1359 3.36272 10.6862C3.32608 10.5862 3.27836 10.5645 3.18026 10.5648C2.25649 10.5687 1.33272 10.5671 0.408948 10.5667C0.360087 10.5667 0.310463 10.5683 0.261984 10.5641C0.113494 10.5507 0.00470273 10.4362 0.00012205 10.2919C-0.00407691 10.1499 0.100515 10.0235 0.244807 10.0018C0.288705 9.9953 0.33413 9.99797 0.378792 9.99797C1.31134 9.99759 2.24427 9.99759 3.17682 9.99759H3.3131Z" fill="black"/>
<path fill-rule="evenodd" clip-rule="evenodd" d="M9.00028 5.14353C8.68078 5.14315 8.43189 5.39165 8.43189 5.71115C8.43151 6.03027 8.68001 6.27954 8.99913 6.27992C9.31787 6.2803 9.5679 6.03066 9.5679 5.7123C9.56828 5.39318 9.3194 5.14391 9.00028 5.14353M4.05467 5.42372C5.28687 5.42372 6.51908 5.42219 7.7509 5.42639C7.8574 5.42677 7.9013 5.39661 7.93947 5.29508C8.10475 4.85686 8.53267 4.56866 8.99799 4.56751C9.46713 4.56598 9.89847 4.85762 10.0634 5.30386C10.1004 5.4031 10.1466 5.42715 10.2447 5.42601C10.7043 5.42104 11.1643 5.42295 11.6242 5.42486C11.6857 5.42486 11.751 5.42715 11.8086 5.44662C11.9311 5.48746 11.9968 5.58137 11.998 5.71001C11.9987 5.83941 11.9334 5.93332 11.8121 5.97607C11.7548 5.9963 11.6891 5.99859 11.6277 5.99859C11.1589 6.0005 10.6902 6.00203 10.2214 5.99783C10.1359 5.99668 10.0996 6.02379 10.0699 6.10395C9.89924 6.56125 9.47591 6.85556 9.00104 6.85594C8.52694 6.85671 8.0975 6.56202 7.93183 6.10547C7.89481 6.00279 7.83869 5.99859 7.75357 5.99859C5.30749 6.00012 2.8614 5.99974 0.414938 5.99897C0.348519 5.99897 0.28019 5.99821 0.215679 5.9837C0.0851295 5.95469 0.000768632 5.84285 5.18527e-06 5.71306C-0.000758261 5.58289 0.0828391 5.47067 0.213007 5.43975C0.272937 5.42562 0.336685 5.42448 0.398906 5.42448C1.61737 5.42372 2.83621 5.42372 4.05467 5.42372" fill="black"/>
<path fill-rule="evenodd" clip-rule="evenodd" d="M3.13919 1.1383C3.13842 0.82147 2.88458 0.568006 2.56927 0.568769C2.25397 0.569533 2.00203 0.824142 2.0028 1.14135C2.00356 1.4578 2.25893 1.71394 2.57233 1.71241C2.88725 1.71127 3.13995 1.45513 3.13919 1.1383V1.1383ZM3.68696 1.42574C3.48885 1.97656 3.11514 2.28462 2.52309 2.27965C2.15052 2.2766 1.65734 2.04909 1.45922 1.42574C1.41571 1.42574 1.36799 1.42574 1.31989 1.42574C0.976342 1.42574 0.63241 1.42841 0.288859 1.42421C0.119755 1.42192 -0.00201443 1.29366 0.000275914 1.13563C0.00256625 0.981794 0.119374 0.861169 0.285042 0.858879C0.628592 0.853917 0.972143 0.853535 1.31608 0.858497C1.41685 0.860024 1.46838 0.840175 1.50808 0.731765C1.67184 0.284004 2.09823 -0.000761915 2.57385 1.53127e-06C3.05063 0.0011467 3.46938 0.286294 3.63695 0.736728C3.67284 0.832922 3.7175 0.859261 3.81827 0.858879C6.40254 0.855825 8.98719 0.856589 11.5715 0.856589C11.6249 0.856589 11.6787 0.855062 11.7322 0.859261C11.8883 0.871476 11.999 0.989047 11.9994 1.13945C11.9997 1.28717 11.8868 1.40932 11.7337 1.42383C11.6894 1.42803 11.6444 1.42574 11.5997 1.42574C9.01544 1.42574 6.43117 1.42574 3.84652 1.42574H3.68696Z" fill="black"/>
</svg>
