<svg width="21" height="20" viewBox="0 0 21 20" fill="none" xmlns="http://www.w3.org/2000/svg">
<path fill-rule="evenodd" clip-rule="evenodd" d="M5.08865 15.0349C5.08353 14.2515 4.446 13.6191 3.66767 13.6242C2.88805 13.6293 2.25565 14.2694 2.25949 15.049C2.26333 15.8299 2.91109 16.4738 3.68047 16.461C4.46393 16.4495 5.09505 15.8107 5.08865 15.0349ZM15.9956 13.6242C15.2211 13.6204 14.5798 14.2553 14.5708 15.0324C14.5631 15.8094 15.2199 16.47 15.9944 16.4623C16.7688 16.4546 17.4089 15.8133 17.4102 15.0426C17.4102 14.2707 16.7701 13.628 15.9956 13.6242ZM16.9084 8.86327C16.5717 8.23215 16.2632 7.63303 15.9342 7.04544C15.7998 6.80861 15.5655 6.67291 15.289 6.66395C14.7436 6.64475 14.1983 6.64475 13.6517 6.63835C13.498 6.63579 13.3444 6.63835 13.1831 6.63835V8.86327H16.9084ZM13.1844 9.7645V14.0543C13.3675 14.0543 13.5377 14.0454 13.7041 14.0582C13.8475 14.0697 13.9218 14.0172 13.9935 13.893C14.8115 12.4669 16.7714 12.3159 17.7981 13.5973C17.9735 14.0812 18.3601 14.0979 18.7851 14.0582C19.036 14.0351 19.1064 13.9852 19.1064 13.7279C19.1077 12.7178 19.1051 11.7091 19.109 10.7003C19.1103 10.5275 19.0437 10.4212 18.885 10.3547C18.4843 10.1844 18.0887 10.0013 17.688 9.83363C17.5894 9.79267 17.4755 9.76834 17.3692 9.76834C16.0417 9.76322 14.7142 9.7645 13.3867 9.7645H13.1844ZM12.2601 14.0543V11.5222H0.896114V11.6835C0.896114 12.3607 0.896114 13.0366 0.894834 13.7138C0.894834 13.8661 0.905075 14.007 1.08814 14.0479C1.36593 14.1119 1.57716 14.053 1.66805 13.8981C2.11483 13.1301 2.78819 12.7306 3.67023 12.7281C4.55354 12.7268 5.22946 13.1275 5.67368 13.893C5.74665 14.0185 5.82218 14.0582 5.963 14.0582C7.99206 14.053 10.0224 14.0543 12.0515 14.0543H12.2601ZM12.2652 10.6069C12.2691 10.5531 12.2742 10.5096 12.2742 10.4648C12.2755 8.71989 12.278 6.97631 12.2729 5.23145C12.2716 4.60161 11.8825 4.23292 11.2296 4.23292C8.13159 4.23164 5.0336 4.23164 1.93433 4.2342C1.81143 4.2342 1.68469 4.24188 1.5682 4.27389C1.14319 4.39166 0.896114 4.75523 0.896114 5.25577C0.894834 6.98783 0.896114 8.71861 0.896114 10.4507C0.896114 10.5006 0.901234 10.5505 0.905075 10.6069H12.2652ZM0 4.9895C0.113934 4.69634 0.183063 4.37246 0.352045 4.11515C0.704089 3.57492 1.24176 3.33553 1.8844 3.33553C5.0144 3.33553 8.14567 3.32913 11.277 3.33809C12.3958 3.34193 13.1537 4.12155 13.169 5.23913C13.1703 5.39531 13.169 5.55021 13.169 5.72943C13.2535 5.73327 13.3291 5.73967 13.4033 5.73967C14.0485 5.74735 14.6924 5.72943 15.3351 5.764C15.9649 5.79856 16.4514 6.11604 16.7535 6.66779C17.1439 7.38084 17.4998 8.11053 17.8813 8.82871C17.93 8.92216 18.026 9.01049 18.122 9.05529C18.4984 9.23196 18.8837 9.38942 19.2639 9.55712C19.7568 9.77347 20.0025 10.1473 20 10.6888C19.9974 11.6988 20.0013 12.7076 19.9987 13.7164C19.9974 14.4486 19.5442 14.9108 18.812 14.9287C18.6507 14.9338 18.4894 14.93 18.3038 14.93C18.2986 15.7787 17.9773 16.4585 17.2873 16.9411C16.8265 17.2637 16.3067 17.3776 15.7498 17.3341C14.6079 17.2471 13.8718 16.4149 13.6517 14.9492H5.98732C5.98604 15.7275 5.70184 16.3804 5.08225 16.8656C4.64059 17.2112 4.13365 17.3674 3.57165 17.3431C2.93413 17.3162 2.4003 17.0653 1.97017 16.6006C1.54388 16.1397 1.34929 15.588 1.35825 14.953C1.27888 14.9492 1.21615 14.9453 1.15343 14.9428C0.581194 14.9172 0.209947 14.6317 0.0358446 14.0812C0.0281636 14.0582 0.0115215 14.0364 0 14.0146V4.9895Z" fill="#1E3A3A"/>
<path d="M3.66767 13.6242L3.66931 13.8742H3.66931L3.66767 13.6242ZM2.25949 15.049L2.50948 15.0478V15.0478L2.25949 15.049ZM3.68047 16.461L3.67679 16.2111L3.67631 16.2111L3.68047 16.461ZM14.5708 15.0324L14.3208 15.0295L14.3208 15.0299L14.5708 15.0324ZM17.4102 15.0426L17.6602 15.043V15.0426H17.4102ZM16.9084 8.86327V9.11327H17.3251L17.129 8.7456L16.9084 8.86327ZM15.9342 7.04544L16.1523 6.9233L16.1516 6.92204L15.9342 7.04544ZM15.289 6.66395L15.2802 6.9138L15.2809 6.91382L15.289 6.66395ZM13.6517 6.63835L13.6475 6.88832L13.6487 6.88833L13.6517 6.63835ZM13.1831 6.63835V6.38835H12.9331V6.63835H13.1831ZM13.1831 8.86327H12.9331V9.11327H13.1831V8.86327ZM13.1844 9.7645V9.5145H12.9344V9.7645H13.1844ZM13.1844 14.0543H12.9344V14.3043H13.1844V14.0543ZM13.7041 14.0582L13.7242 13.809L13.7233 13.8089L13.7041 14.0582ZM13.9935 13.893L14.21 14.018L14.2103 14.0174L13.9935 13.893ZM17.7981 13.5973L18.0331 13.5121L18.0191 13.4733L17.9932 13.441L17.7981 13.5973ZM18.7851 14.0582L18.7622 13.8092L18.7619 13.8093L18.7851 14.0582ZM19.1064 13.7279L18.8564 13.7276V13.7279H19.1064ZM19.109 10.7003L18.859 10.6985L18.859 10.6994L19.109 10.7003ZM18.885 10.3547L18.7872 10.5848L18.7883 10.5852L18.885 10.3547ZM17.688 9.83363L17.7845 9.60302L17.7839 9.60278L17.688 9.83363ZM17.3692 9.76834L17.3683 10.0183H17.3692V9.76834ZM12.2601 14.0543V14.3043H12.5101V14.0543H12.2601ZM12.2601 11.5222H12.5101V11.2722H12.2601V11.5222ZM0.896114 11.5222V11.2722H0.646114V11.5222H0.896114ZM0.894834 13.7138L0.644834 13.7133V13.7138H0.894834ZM1.08814 14.0479L1.14427 13.8043L1.14273 13.804L1.08814 14.0479ZM1.66805 13.8981L1.88367 14.0247L1.88415 14.0238L1.66805 13.8981ZM3.67023 12.7281L3.66986 12.4781L3.6695 12.4781L3.67023 12.7281ZM5.67368 13.893L5.45745 14.0185L5.45758 14.0187L5.67368 13.893ZM5.963 14.0582V14.3082L5.96363 14.3082L5.963 14.0582ZM12.2652 10.6069V10.8569H12.498L12.5146 10.6247L12.2652 10.6069ZM12.2742 10.4648L12.0242 10.4646V10.4648H12.2742ZM12.2729 5.23145L12.0229 5.23196L12.0229 5.23218L12.2729 5.23145ZM11.2296 4.23292L11.2295 4.48292H11.2296V4.23292ZM1.93433 4.2342V4.4842L1.93453 4.4842L1.93433 4.2342ZM1.5682 4.27389L1.50197 4.03282L1.50144 4.03297L1.5682 4.27389ZM0.896114 5.25577L1.14611 5.25596V5.25577H0.896114ZM0.905075 10.6069L0.655654 10.6239L0.67154 10.8569H0.905075V10.6069ZM0 4.9895L-0.23302 4.89894L-0.25 4.94262V4.9895H0ZM0.352045 4.11515L0.561013 4.25238L0.561497 4.25164L0.352045 4.11515ZM11.277 3.33809L11.2778 3.08809L11.2777 3.08809L11.277 3.33809ZM13.169 5.23913L13.419 5.23708L13.419 5.23569L13.169 5.23913ZM13.169 5.72943H12.919V5.96833L13.1577 5.97917L13.169 5.72943ZM13.4033 5.73967L13.4063 5.48967H13.4033V5.73967ZM15.3351 5.764L15.3488 5.51437L15.3485 5.51436L15.3351 5.764ZM16.7535 6.66779L16.5342 6.78786V6.78786L16.7535 6.66779ZM17.8813 8.82871L18.1031 8.71327L18.1021 8.71143L17.8813 8.82871ZM18.122 9.05529L18.2282 8.82898L18.2277 8.82875L18.122 9.05529ZM19.2639 9.55712L19.163 9.78586L19.1634 9.78603L19.2639 9.55712ZM20 10.6888L19.75 10.6876L19.75 10.6881L20 10.6888ZM19.9987 13.7164L19.7487 13.7157V13.7159L19.9987 13.7164ZM18.812 14.9287L18.8059 14.6787L18.8041 14.6788L18.812 14.9287ZM18.3038 14.93V14.68H18.0553L18.0538 14.9285L18.3038 14.93ZM17.2873 16.9411L17.144 16.7362L17.1439 16.7363L17.2873 16.9411ZM15.7498 17.3341L15.7693 17.0849L15.7688 17.0848L15.7498 17.3341ZM13.6517 14.9492L13.8989 14.912L13.8669 14.6992H13.6517V14.9492ZM5.98732 14.9492V14.6992H5.73773L5.73732 14.9488L5.98732 14.9492ZM5.08225 16.8656L5.23632 17.0624L5.23638 17.0624L5.08225 16.8656ZM3.57165 17.3431L3.58246 17.0933L3.58219 17.0933L3.57165 17.3431ZM1.97017 16.6006L1.78665 16.7703L1.7867 16.7704L1.97017 16.6006ZM1.35825 14.953L1.60823 14.9565L1.61164 14.715L1.37034 14.7033L1.35825 14.953ZM1.15343 14.9428L1.14225 15.1925L1.14323 15.1926L1.15343 14.9428ZM0.0358446 14.0812L0.274235 14.0058L0.273015 14.0022L0.0358446 14.0812ZM0 14.0146H-0.25V14.0767L-0.220947 14.1316L0 14.0146ZM5.33864 15.0333C5.33263 14.1131 4.58376 13.3682 3.66602 13.3742L3.66931 13.8742C4.30825 13.87 4.83442 14.3899 4.83865 15.0366L5.33864 15.0333ZM3.66602 13.3742C2.74841 13.3802 2.00497 14.1328 2.00949 15.0502L2.50948 15.0478C2.50632 14.406 3.02768 13.8784 3.66931 13.8742L3.66602 13.3742ZM2.00949 15.0502C2.014 15.9667 2.77243 16.7262 3.68463 16.711L3.67631 16.2111C3.04975 16.2215 2.51266 15.6931 2.50948 15.0478L2.00949 15.0502ZM3.68414 16.711C4.60256 16.6975 5.34619 15.9485 5.33864 15.0329L4.83865 15.037C4.8439 15.6729 4.32529 16.2015 3.67679 16.2111L3.68414 16.711ZM15.9969 13.3742C15.0837 13.3697 14.3314 14.1163 14.3208 15.0295L14.8208 15.0353C14.8282 14.3944 15.3586 13.871 15.9944 13.8742L15.9969 13.3742ZM14.3208 15.0299C14.3118 15.9458 15.0812 16.7214 15.9968 16.7123L15.9919 16.2123C15.3586 16.2186 14.8145 15.6731 14.8208 15.0348L14.3208 15.0299ZM15.9968 16.7123C16.9069 16.7033 17.6587 15.952 17.6602 15.043L17.1602 15.0422C17.1592 15.6746 16.6308 16.206 15.9919 16.2123L15.9968 16.7123ZM17.6602 15.0426C17.6602 14.1327 16.9085 13.3787 15.9969 13.3742L15.9944 13.8742C16.6317 13.8774 17.1602 14.4087 17.1602 15.0426H17.6602ZM17.129 8.7456C16.7946 8.1188 16.4829 7.51379 16.1523 6.9233L15.716 7.16758C16.0434 7.75227 16.3488 8.3455 16.6878 8.98094L17.129 8.7456ZM16.1516 6.92204C15.972 6.60556 15.656 6.42571 15.2971 6.41408L15.2809 6.91382C15.4749 6.92011 15.6275 7.01165 15.7168 7.16884L16.1516 6.92204ZM15.2978 6.41411C14.7485 6.39477 14.1973 6.39472 13.6546 6.38836L13.6487 6.88833C14.1993 6.89478 14.7387 6.89473 15.2802 6.9138L15.2978 6.41411ZM13.6558 6.38838C13.4998 6.38578 13.3386 6.38835 13.1831 6.38835V6.88835C13.3503 6.88835 13.4963 6.88579 13.6475 6.88831L13.6558 6.38838ZM12.9331 6.63835V8.86327H13.4331V6.63835H12.9331ZM13.1831 9.11327H16.9084V8.61327H13.1831V9.11327ZM12.9344 9.7645V14.0543H13.4344V9.7645H12.9344ZM13.1844 14.3043C13.3854 14.3043 13.5311 14.2956 13.685 14.3074L13.7233 13.8089C13.5444 13.7951 13.3495 13.8043 13.1844 13.8043V14.3043ZM13.6841 14.3074C13.7904 14.3159 13.9011 14.3026 14.0041 14.241C14.1022 14.1822 14.1649 14.0961 14.21 14.018L13.7769 13.768C13.7504 13.8141 13.74 13.8163 13.7473 13.812C13.7515 13.8094 13.7548 13.8088 13.7541 13.8089C13.7523 13.8092 13.7436 13.8105 13.7242 13.809L13.6841 14.3074ZM14.2103 14.0174C14.9407 12.7442 16.6865 12.6097 17.603 13.7536L17.9932 13.441C16.8563 12.022 14.6823 12.1897 13.7766 13.7686L14.2103 14.0174ZM17.5631 13.6825C17.6742 13.9892 17.8672 14.1738 18.1159 14.2602C18.3434 14.3393 18.5947 14.327 18.8083 14.3071L18.7619 13.8093C18.5505 13.829 18.396 13.8282 18.2801 13.7879C18.1854 13.755 18.0974 13.6893 18.0331 13.5121L17.5631 13.6825ZM18.808 14.3071C18.9249 14.2964 19.0937 14.277 19.214 14.1603C19.3434 14.0346 19.3564 13.8603 19.3564 13.7279H18.8564C18.8564 13.7837 18.8523 13.8112 18.8493 13.823C18.8472 13.8309 18.8495 13.8172 18.8657 13.8015C18.8803 13.7873 18.8898 13.7877 18.8726 13.7926C18.8535 13.798 18.8206 13.8039 18.7622 13.8092L18.808 14.3071ZM19.3564 13.7282C19.3577 12.7167 19.3551 11.7098 19.359 10.7013L18.859 10.6994C18.8551 11.7083 18.8577 12.719 18.8564 13.7276L19.3564 13.7282ZM19.359 10.7022C19.3599 10.5839 19.3376 10.4618 19.2673 10.3524C19.1963 10.2421 19.0936 10.171 18.9816 10.1241L18.7883 10.5852C18.8351 10.6048 18.845 10.6202 18.8467 10.6229C18.849 10.6264 18.8594 10.6439 18.859 10.6985L19.359 10.7022ZM18.9827 10.1246C18.6036 9.96348 18.1742 9.76609 17.7845 9.60302L17.5915 10.0642C18.0032 10.2366 18.3649 10.4053 18.7872 10.5847L18.9827 10.1246ZM17.7839 9.60278C17.6573 9.55014 17.5109 9.51834 17.3692 9.51834V10.0183C17.4401 10.0183 17.5216 10.0352 17.5921 10.0645L17.7839 9.60278ZM17.3702 9.51835C16.0421 9.51322 14.7138 9.5145 13.3867 9.5145V10.0145C14.7145 10.0145 16.0414 10.0132 17.3683 10.0183L17.3702 9.51835ZM13.3867 9.5145H13.1844V10.0145H13.3867V9.5145ZM12.5101 14.0543V11.5222H12.0101V14.0543H12.5101ZM12.2601 11.2722H0.896114V11.7722H12.2601V11.2722ZM0.646114 11.5222V11.6835H1.14611V11.5222H0.646114ZM0.646114 11.6835C0.646114 12.3607 0.646114 13.0364 0.644834 13.7133L1.14483 13.7143C1.14611 13.0368 1.14611 12.3606 1.14611 11.6835H0.646114ZM0.644834 13.7138C0.644834 13.7843 0.644534 13.9079 0.693051 14.0211C0.752845 14.1606 0.870609 14.2554 1.03354 14.2919L1.14273 13.804C1.1265 13.8003 1.12829 13.7978 1.13679 13.8046C1.14618 13.8121 1.15123 13.8209 1.15262 13.8242C1.15302 13.8251 1.15009 13.8184 1.14784 13.7976C1.14556 13.7766 1.14483 13.7506 1.14483 13.7138H0.644834ZM1.03201 14.2915C1.35035 14.3649 1.7096 14.3213 1.88367 14.0247L1.45243 13.7716C1.44472 13.7848 1.38151 13.859 1.14427 13.8043L1.03201 14.2915ZM1.88415 14.0238C2.28767 13.3301 2.88039 12.9804 3.67095 12.9781L3.6695 12.4781C2.696 12.4809 1.94198 12.93 1.45195 13.7725L1.88415 14.0238ZM3.67059 12.9781C4.46196 12.9769 5.05666 13.3278 5.45745 14.0185L5.88991 13.7676C5.40227 12.9272 4.64512 12.4767 3.66986 12.4781L3.67059 12.9781ZM5.45758 14.0187C5.50659 14.103 5.5718 14.1852 5.67051 14.2406C5.76846 14.2956 5.87098 14.3082 5.963 14.3082V13.8082C5.9142 13.8082 5.90855 13.8009 5.91528 13.8046C5.92278 13.8089 5.91374 13.8085 5.88978 13.7673L5.45758 14.0187ZM5.96363 14.3082C7.99228 14.303 10.0222 14.3043 12.0515 14.3043V13.8043C10.0226 13.8043 7.99183 13.803 5.96237 13.8082L5.96363 14.3082ZM12.0515 14.3043H12.2601V13.8043H12.0515V14.3043ZM12.5146 10.6247C12.5174 10.5858 12.5242 10.5214 12.5242 10.4648H12.0242C12.0242 10.4978 12.0208 10.5204 12.0159 10.589L12.5146 10.6247ZM12.5242 10.4649C12.5255 8.72035 12.528 6.97616 12.5229 5.23071L12.0229 5.23218C12.028 6.97646 12.0255 8.71944 12.0242 10.4646L12.5242 10.4649ZM12.5229 5.23094C12.5222 4.86372 12.407 4.54302 12.1682 4.31515C11.931 4.0887 11.6021 3.98292 11.2296 3.98292V4.48292C11.51 4.48292 11.7021 4.56149 11.823 4.67684C11.9424 4.79077 12.0224 4.96934 12.0229 5.23196L12.5229 5.23094ZM11.2297 3.98292C8.13163 3.98164 5.03353 3.98164 1.93412 3.9842L1.93453 4.4842C5.03367 4.48164 8.13156 4.48164 11.2295 4.48292L11.2297 3.98292ZM1.93433 3.9842C1.80374 3.9842 1.65069 3.99196 1.50197 4.03282L1.63443 4.51496C1.7187 4.4918 1.81912 4.4842 1.93433 4.4842V3.9842ZM1.50144 4.03297C0.948298 4.18625 0.646114 4.66489 0.646114 5.25577H1.14611C1.14611 4.84557 1.33807 4.59708 1.63496 4.51481L1.50144 4.03297ZM0.646114 5.25559C0.644834 6.98775 0.646114 8.71887 0.646114 10.4507H1.14611C1.14611 8.71835 1.14483 6.98791 1.14611 5.25596L0.646114 5.25559ZM0.646114 10.4507C0.646114 10.5119 0.652592 10.5789 0.655654 10.6239L1.1545 10.5898C1.14988 10.5221 1.14611 10.4892 1.14611 10.4507H0.646114ZM0.905075 10.8569H12.2652V10.3569H0.905075V10.8569ZM0.23302 5.08006C0.290896 4.93114 0.345119 4.75298 0.391234 4.62178C0.441827 4.47785 0.493376 4.35537 0.561012 4.25238L0.143077 3.97791C0.0417317 4.13224 -0.025774 4.30036 -0.0804747 4.45598C-0.139653 4.62434 -0.176961 4.75469 -0.23302 4.89894L0.23302 5.08006ZM0.561497 4.25164C0.859583 3.79421 1.31088 3.58553 1.8844 3.58553V3.08553C1.17263 3.08553 0.548595 3.35563 0.142593 3.97866L0.561497 4.25164ZM1.8844 3.58553C5.01509 3.58553 8.14543 3.57913 11.2762 3.58809L11.2777 3.08809C8.14592 3.07913 5.0137 3.08553 1.8844 3.08553V3.58553ZM11.2761 3.58809C11.7757 3.5898 12.179 3.76348 12.459 4.04671C12.7395 4.33048 12.9122 4.74043 12.9191 5.24257L13.419 5.23569C13.4106 4.62024 13.1966 4.0816 12.8146 3.6952C12.4321 3.30826 11.8971 3.09022 11.2778 3.08809L11.2761 3.58809ZM12.919 5.24118C12.9203 5.39615 12.919 5.54736 12.919 5.72943H13.419C13.419 5.55306 13.4203 5.39447 13.419 5.23708L12.919 5.24118ZM13.1577 5.97917C13.2286 5.9824 13.322 5.98967 13.4033 5.98967V5.48967C13.3361 5.48967 13.2784 5.48415 13.1804 5.47969L13.1577 5.97917ZM13.4003 5.98966C14.0595 5.9975 14.6853 5.97941 15.3216 6.01364L15.3485 5.51436C14.6996 5.47946 14.0375 5.49721 13.4063 5.48969L13.4003 5.98966ZM15.3214 6.01362C15.8619 6.04329 16.2722 6.30931 16.5342 6.78786L16.9728 6.54772C16.6306 5.92277 16.0679 5.55383 15.3488 5.51437L15.3214 6.01362ZM16.5342 6.78786C16.9261 7.50362 17.2712 8.21307 17.6605 8.94598L18.1021 8.71143C17.7284 8.008 17.3617 7.25806 16.9728 6.54772L16.5342 6.78786ZM17.6596 8.94414C17.7355 9.08998 17.8742 9.21555 18.0163 9.28184L18.2277 8.82875C18.1777 8.80543 18.1244 8.75433 18.1031 8.71327L17.6596 8.94414ZM18.0158 9.2816C18.3949 9.45955 18.792 9.62221 19.163 9.78586L19.3648 9.32838C18.9754 9.15662 18.6018 9.00436 18.2282 8.82898L18.0158 9.2816ZM19.1634 9.78603C19.3747 9.87877 19.5172 9.99789 19.6083 10.1376C19.6994 10.2772 19.7511 10.4558 19.75 10.6876L20.25 10.69C20.2514 10.3803 20.1815 10.1012 20.0271 9.86444C19.8728 9.62777 19.646 9.45182 19.3644 9.3282L19.1634 9.78603ZM19.75 10.6881C19.7487 11.1936 19.749 11.6987 19.7493 12.2032C19.7497 12.7078 19.75 13.2118 19.7487 13.7157L20.2487 13.717C20.25 13.2122 20.2497 12.7074 20.2493 12.2029C20.249 11.6983 20.2487 11.194 20.25 10.6894L19.75 10.6881ZM19.7487 13.7159C19.7481 14.0298 19.6518 14.2613 19.5008 14.4155C19.3498 14.5697 19.1201 14.6711 18.8059 14.6788L18.8181 15.1786C19.2362 15.1684 19.5991 15.0297 19.8581 14.7653C20.1171 14.5008 20.248 14.1351 20.2487 13.7168L19.7487 13.7159ZM18.8041 14.6788C18.6479 14.6838 18.4974 14.68 18.3038 14.68V15.18C18.4814 15.18 18.6535 15.1838 18.8199 15.1786L18.8041 14.6788ZM18.0538 14.9285C18.0491 15.7045 17.761 16.3047 17.144 16.7362L17.4306 17.146C18.1936 16.6123 18.5482 15.8529 18.5538 14.9315L18.0538 14.9285ZM17.1439 16.7363C16.7375 17.0208 16.2774 17.1246 15.7693 17.0849L15.7304 17.5833C16.336 17.6307 16.9154 17.5066 17.4307 17.1459L17.1439 16.7363ZM15.7688 17.0848C15.2592 17.046 14.8515 16.8439 14.5427 16.4934C14.2296 16.138 14.0043 15.6137 13.8989 14.912L13.4044 14.9863C13.5192 15.7504 13.772 16.375 14.1675 16.8239C14.5673 17.2777 15.0986 17.5352 15.7308 17.5834L15.7688 17.0848ZM13.6517 14.6992H5.98732V15.1992H13.6517V14.6992ZM5.73732 14.9488C5.73615 15.6581 5.48144 16.2354 4.92811 16.6687L5.23638 17.0624C5.92224 16.5253 6.23593 15.7969 6.23732 14.9496L5.73732 14.9488ZM4.92817 16.6687C4.5351 16.9763 4.08712 17.1151 3.58246 17.0933L3.56084 17.5928C4.18017 17.6196 4.74608 17.4461 5.23632 17.0624L4.92817 16.6687ZM3.58219 17.0933C3.01146 17.0692 2.53952 16.8476 2.15364 16.4308L1.7867 16.7704C2.26109 17.2829 2.85681 17.5631 3.56112 17.5928L3.58219 17.0933ZM2.1537 16.4308C1.77448 16.0209 1.6001 15.5327 1.60823 14.9565L1.10828 14.9495C1.09849 15.6432 1.31327 16.2586 1.78665 16.7703L2.1537 16.4308ZM1.37034 14.7033C1.29583 14.6997 1.22682 14.6955 1.16362 14.693L1.14323 15.1926C1.20549 15.1951 1.26194 15.1986 1.34617 15.2027L1.37034 14.7033ZM1.1646 14.693C0.918216 14.682 0.734998 14.6164 0.597912 14.5108C0.460723 14.4051 0.34943 14.2437 0.274207 14.0058L-0.202518 14.1566C-0.103639 14.4692 0.0577433 14.7258 0.292761 14.9069C0.527883 15.088 0.816404 15.1779 1.14225 15.1925L1.1646 14.693ZM0.273015 14.0022C0.260334 13.9641 0.242757 13.934 0.234283 13.9197C0.230724 13.9138 0.224255 13.9032 0.223338 13.9017C0.220796 13.8975 0.220486 13.8968 0.220947 13.8977L-0.220947 14.1316C-0.214725 14.1434 -0.208635 14.1536 -0.204576 14.1603C-0.202583 14.1636 -0.200405 14.1672 -0.199061 14.1694C-0.197494 14.1719 -0.196436 14.1737 -0.195558 14.1752C-0.193721 14.1782 -0.193889 14.1781 -0.194824 14.1763C-0.195796 14.1743 -0.198505 14.1687 -0.201326 14.1603L0.273015 14.0022ZM0.25 14.0146V4.9895H-0.25V14.0146H0.25Z" fill="#1E3A3A"/>
</svg>
