<svg width="79" height="90" viewBox="0 0 79 90" fill="none" xmlns="http://www.w3.org/2000/svg">
<path fill-rule="evenodd" clip-rule="evenodd" d="M75.4024 70.1964C75.169 70.89 75.1665 71.6082 75.1804 72.3291C75.2121 74.0501 75.0675 75.7478 74.7123 77.4389C74.5372 78.2689 74.1427 78.7079 73.3549 78.8365C70.4739 79.3054 67.5929 79.7717 64.7131 80.2509C57.1104 81.5186 49.4898 82.6837 41.9391 84.2619C41.674 84.3177 41.3961 84.3047 41.1234 84.3242C40.772 84.0112 40.6946 83.5774 40.6312 83.1396C40.5906 82.863 40.5817 82.5824 40.5842 82.3019C40.6743 72.3902 40.1707 62.485 40.3419 52.572C40.3774 50.5639 40.5145 50.3743 42.4605 49.9638C52.4495 47.8531 62.54 46.4101 72.6495 45.0891C74.1122 44.8982 75.5546 44.4475 77.0567 44.6423C77.5971 45.81 77.3485 47.0647 77.1962 48.2207C76.9768 49.882 76.9488 51.5562 76.8664 53.2071C76.7192 56.1854 76.5289 59.1494 76.1217 62.1018C76.0634 62.5356 76.1204 62.9798 76.0786 63.4175C75.9251 65.023 75.9898 66.64 75.7843 68.2455C75.698 68.9105 75.6549 69.5716 75.4024 70.1964Z" fill="#1E3A3A"/>
<path fill-rule="evenodd" clip-rule="evenodd" d="M66.8742 60H66.3953H63.7968H63.3996H61.2765H60.5578H60.2957H59.1275H58.5381H56.5679C56.3067 60 56.1035 60.0477 55.9445 60.1236C55.2934 60.4345 55.3931 61.2267 55.3941 61.2347L55.8106 63.9676L55.8901 64.4895L55.9713 65.0222L56.2457 66.8227L56.3683 67.6267L56.8644 70.8819C57.1145 72.0065 58.3093 71.9994 58.3093 71.9994H58.6002H60.3829L60.9453 71.9995L62.6908 71.9998H62.9428L64.1168 72C64.1741 71.9996 64.6146 71.9875 65.0465 71.7229C65.4017 71.5053 65.7512 71.1173 65.8776 70.4231L66.2902 68.1577L66.6135 66.3815L66.6243 66.3228L66.7048 65.8814L66.9533 64.5193L67.015 64.1807L67.2992 62.6226L67.3021 62.6066L67.5802 61.0826C67.5845 61.0587 67.5878 61.0359 67.5911 61.0131C67.729 60.0552 66.9533 60 66.9533 60H66.8742ZM59.143 60.8798C59.4538 60.7421 59.7974 60.6512 60.1736 60.6071C60.5501 60.5627 60.9109 60.5693 61.256 60.6274C61.6016 60.6851 61.8293 60.8057 61.9393 60.9893C62.0764 61.2236 62.1022 61.5178 62.0164 61.8712C61.9307 62.2248 61.818 62.5714 61.6791 62.9112C61.5398 63.2507 61.416 63.5497 61.3078 63.8085C61.1996 64.0669 61.1919 64.2146 61.2844 64.2522C61.3774 64.2929 61.5326 64.2086 61.7512 63.9995C61.9692 63.7907 62.2174 63.5459 62.4957 63.2655C62.774 62.985 63.0663 62.7149 63.3721 62.4549C63.6777 62.1947 63.9647 62.0363 64.2328 61.9786C64.3631 61.951 64.4862 62.0377 64.601 62.2384C64.7163 62.4388 64.8093 62.6885 64.8793 62.9874C64.9496 63.2864 64.9902 63.6002 65.0005 63.9282C65.0107 64.2562 64.9783 64.5306 64.9027 64.7517C64.8305 64.9519 64.6785 65.1202 64.4466 65.2563C64.2146 65.3918 63.9715 65.5178 63.7171 65.6336C63.4631 65.7488 63.2347 65.8653 63.0316 65.9825C62.8292 66.0997 62.7227 66.2386 62.712 66.398C62.7019 66.5613 62.8224 66.7046 63.073 66.8293C63.3241 66.9528 63.5987 67.0881 63.8975 67.2342C64.1966 67.3801 64.4646 67.5542 64.7014 67.7566C64.9388 67.9586 65.0383 68.2179 65.0005 68.5343C64.9659 68.7861 64.9112 69.0757 64.8353 69.4033C64.7599 69.7315 64.6593 70.0351 64.5342 70.3132C64.4088 70.5918 64.2549 70.8136 64.0727 70.9785C63.8909 71.1431 63.6777 71.192 63.4341 71.1234C63.1861 71.0519 62.9298 70.8518 62.6633 70.5219C62.3971 70.1924 62.1453 69.844 61.9084 69.4771C61.6712 69.1105 61.4604 68.7834 61.2769 68.4957C61.0932 68.2085 60.9631 68.0718 60.8877 68.0853C60.8087 68.1019 60.7813 68.2151 60.8052 68.4239C60.8292 68.6334 60.8652 68.8804 60.9133 69.1665C60.9616 69.4518 61.0002 69.7458 61.0296 70.0477C61.0585 70.3507 61.0409 70.6036 60.9751 70.8076C60.9306 70.9403 60.77 71.0479 60.4935 71.1316C60.2168 71.2145 59.9188 71.2658 59.5991 71.2871C59.2798 71.3072 58.9885 71.2918 58.7255 71.2409C58.4628 71.1896 58.3228 71.0898 58.3056 70.9403C58.2058 70.1282 58.126 69.3788 58.0658 68.6922C58.0057 68.0056 57.9791 67.3032 57.9861 66.5834C57.9926 65.8653 58.0435 65.094 58.1378 64.2694C58.2327 63.4458 58.3915 62.4881 58.6149 61.3971C58.6559 61.1898 58.8319 61.0174 59.143 60.8798Z" fill="white"/>
<path fill-rule="evenodd" clip-rule="evenodd" d="M77.7355 44.8904C73.3822 45.4997 69.0302 46.1103 64.6769 46.7157C56.9875 47.7845 49.329 49.0457 41.7155 50.5753C40.979 50.7238 40.7949 51.0775 40.782 51.79C40.6018 62.1607 41.2005 72.5223 41.1657 82.8904C41.1632 83.3254 41.2327 83.7604 41.2687 84.1967C40.0983 84.4549 38.9266 84.713 37.7549 84.9725C37.4588 85.0267 37.1627 85.0809 36.8665 85.1351C36.6245 85.1287 36.4712 84.997 36.3708 84.7879C36.2008 84.3722 36.2189 83.9321 36.2124 83.4958C36.2047 82.9407 36.2008 82.383 36.2111 81.828C36.385 72.3764 35.445 62.9455 35.7219 53.4914C35.7566 52.3064 35.5699 52.2057 34.3648 52.4948C25.6195 54.5937 16.8846 56.7352 8.25785 59.295C7.33723 59.5686 6.41661 60.0889 5.38784 59.7055C5.06337 58.2016 4.75564 56.6965 4.85607 55.1436C5.06465 54.7525 5.4535 54.6492 5.83205 54.5331C15.297 51.6158 24.9242 49.3271 34.5489 47.032C34.9352 46.939 35.3304 46.9055 35.718 46.8267C36.5008 46.5827 36.224 45.9128 36.2253 45.4158C36.2472 39.3398 36.2472 33.2638 36.2356 27.1865C36.2317 25.1612 36.4275 23.1539 36.6644 21.1466C36.7094 20.762 36.7815 20.367 36.6219 19.9513C33.4377 22.0902 30.3964 24.4086 27.1569 26.4262C25.1766 27.6602 23.1796 28.8698 21.2263 30.1438C19.9439 30.9803 18.713 31.2101 17.3675 30.3994C17.0288 29.4364 16.5769 28.4851 17.0237 27.4279C17.4009 26.6715 18.1336 26.3255 18.8083 25.9383C21.1967 24.5674 23.486 23.0339 25.8603 21.6552C25.9131 21.6243 26.011 21.5571 25.9981 21.5326C25.9311 21.4035 25.7805 21.459 25.6672 21.4177C24.8019 21.2202 23.9689 20.9414 23.1718 20.5567C22.8809 20.3076 22.5551 20.123 22.1856 20.0133C20.9199 19.2839 19.8074 18.3791 18.9911 17.1463C18.0756 15.4346 17.1846 13.7527 17.2503 11.6822C17.3623 8.17106 21.0847 5.19824 24.5599 5.77267C28.3337 6.39615 31.2256 8.1659 33.0025 11.5957C33.5278 12.609 34.2231 12.9549 35.3626 12.9007C37.0545 12.8194 38.7734 12.7045 40.446 13.1357C40.979 13.2725 41.2417 13.1047 41.458 12.6322C42.264 10.8676 43.0817 9.10821 43.9199 7.35912C44.9808 5.14274 46.0688 2.98444 48.0839 1.38509C50.5985 -0.611853 56.4596 -0.676395 59.1957 2.70046C62.3039 6.53943 61.7502 11.3607 58.9034 14.38C58.154 15.1752 57.1768 15.7561 56.3038 16.4351C55.4707 17.5284 54.2243 17.7414 52.9986 17.9337C52.3844 18.0292 51.7561 18.0783 51.1367 18.1403C51.0621 18.1351 50.9848 18.1299 50.9075 18.1261C50.9191 18.1764 50.9655 18.139 51.0002 18.1583C54.3904 19.1252 57.8939 19.586 61.23 20.7245C61.4554 20.8007 61.6768 20.8807 61.8777 21.0111C62.2292 21.3351 62.7108 21.4552 63.0661 21.7701C63.6352 22.2735 63.943 22.9086 63.334 23.4947C62.9773 23.8393 63.3327 24.1698 63.0648 24.5196C62.3464 25.4555 61.7168 25.742 60.397 25.4981C59.2008 25.2761 58.1115 24.6242 56.86 24.6422C52.0496 23.8987 47.4066 22.6466 43.1563 20.1669C42.0593 19.5266 41.8185 19.6725 41.6795 20.9556C41.4052 23.4818 41.1735 26.0093 41.1851 28.5574C41.2057 33.7608 41.1863 38.9668 41.1941 44.1714C41.1966 45.5604 41.2971 45.6572 42.613 45.3874C53.9604 43.0613 65.4507 41.6827 76.9102 40.0898C77.3415 40.0304 77.7767 39.9413 78.172 40.224C78.1797 41.045 78.1874 41.866 78.1939 42.687C77.9582 43.2046 78.1321 43.7532 78.078 44.285C78.0522 44.538 78.1488 44.8595 77.7355 44.8904Z" fill="#9CAC95"/>
<mask id="mask0_117_48137" style="mask-type:alpha" maskUnits="userSpaceOnUse" x="0" y="17" width="37" height="39">
<path fill-rule="evenodd" clip-rule="evenodd" d="M0 17.0271H36.2755V55.1352H0V17.0271Z" fill="white"/>
</mask>
<g mask="url(#mask0_117_48137)">
<path fill-rule="evenodd" clip-rule="evenodd" d="M35.1866 47.1604C32.0897 47.576 29.1145 48.5353 26.0923 49.281C18.9428 51.0442 11.8262 52.937 4.78933 55.1352C4.22719 53.4988 4.37279 51.7666 4.18161 50.0823C3.54984 44.5272 2.82311 38.9901 1.91281 33.4725C1.21013 29.212 0.727758 24.9126 0.149161 20.6313C0.139032 20.5523 0.14283 20.4721 0.133968 20.3931C-0.168625 17.8129 -0.166092 17.8544 2.42936 17.7521C5.96298 17.6123 9.49534 17.4012 13.0264 17.2213C14.9129 17.1566 16.7993 17.0918 18.6871 17.0271C19.824 17.8375 20.6799 18.9975 21.8966 19.7056C22.1738 19.9374 22.5701 19.9477 22.8221 20.2261C23.6957 20.5135 24.568 20.8022 25.4416 21.0909C25.5669 21.2592 25.848 21.3498 25.71 21.6489C23.4716 23.0677 21.2382 24.4957 18.9896 25.8965C18.2971 26.3289 17.54 26.659 16.9981 27.3102C16.8285 27.639 16.5575 27.9122 16.4613 28.285C16.4018 30.4496 17.8261 31.4931 19.6556 30.6218C25.377 27.3374 30.7768 23.5493 36.2741 19.492C36.2944 20.898 36.0905 22.1007 35.9968 23.2943C35.8728 24.8401 35.7411 26.3845 35.736 27.9329C35.7145 33.8687 35.7322 39.8057 35.7196 45.7428C35.7196 46.2658 35.912 46.9054 35.1866 47.1604Z" fill="#1E3A3A"/>
</g>
<path fill-rule="evenodd" clip-rule="evenodd" d="M77.4887 40.4081C67.2517 41.9444 56.9672 43.1503 46.7827 45.0431C44.9252 45.3878 43.0716 45.7585 41.2257 46.1657C40.5408 46.3166 40.3091 46.1475 40.3206 45.4229C40.4589 37.2237 39.9712 29.0114 40.8391 20.8291C41.0465 18.8739 41.0606 18.8414 42.7324 19.8366C46.9836 22.3667 51.6407 23.6168 56.4514 24.3934C57.8825 24.7082 59.1882 25.5109 60.7103 25.4783C61.8854 25.4523 62.7073 24.6913 63.0132 23.3033C63.2795 22.0961 62.3885 21.8529 61.6 21.5121C61.4579 21.4496 61.3286 21.356 61.1929 21.2792C57.5907 19.9471 53.7554 19.5205 50.1122 18.3458C49.9381 18.0726 50.1929 18.0271 50.3299 17.9191C52.1988 17.6629 54.0883 17.4807 55.7473 16.4349C63.0337 15.9184 70.3239 16.4934 77.6116 16.388C78.6882 16.3724 78.9954 16.6677 78.9993 17.7825C79.0287 25.0855 78.1698 32.3286 77.6795 39.5951C77.6615 39.8683 77.554 40.1376 77.4887 40.4081Z" fill="#1E3A3A"/>
<path fill-rule="evenodd" clip-rule="evenodd" d="M4.83673 59.6906C13.4546 57.2403 22.1243 54.9861 30.8419 52.9087C32.12 52.6037 33.4111 52.3461 34.6737 51.9847C35.5452 51.7361 35.7679 51.9745 35.7653 52.8472C35.7523 57.3851 35.6306 61.9307 35.8585 66.4583C36.1654 72.5686 36.0308 78.6841 36.2755 84.7919C36.1188 85.2814 35.6967 85.4044 35.2629 85.4852C31.6862 86.1516 28.1109 86.8244 24.5225 87.4228C23.9385 87.5202 23.348 87.46 22.764 87.5113C19.2197 87.8304 15.7972 88.739 12.3746 89.6399C12.0664 89.7206 11.7582 89.7988 11.4526 89.8859C10.5669 90.1422 10.1292 90.0269 10.0554 88.9081C9.91164 86.7116 9.48301 84.542 8.86661 82.4172C7.76073 76.4722 6.63542 70.5297 5.56449 64.577C5.27442 62.9585 4.86392 61.3501 4.83673 59.6906Z" fill="#1E3A3A"/>
<path fill-rule="evenodd" clip-rule="evenodd" d="M45.949 13.7837C46.8391 11.5126 47.9805 9.53083 48.9626 7.47703C50.0756 5.14663 52.0864 4.67549 54.4173 4.92432C55.6041 5.05063 56.2364 6.027 56.7404 6.91369C57.8507 8.86644 57.0099 11.1665 55.0236 12.3033C52.2354 13.9011 49.1933 13.7571 45.949 13.7837Z" fill="#DDEBEC"/>
<path fill-rule="evenodd" clip-rule="evenodd" d="M27.5451 16.9752C24.776 17.4005 22.4953 15.1283 21.8728 13.0816C21.4435 11.6716 22.3464 10.4008 23.7623 10.5529C25.102 10.6947 26.3999 11.0839 27.2634 12.2606C28.1123 13.4206 28.875 14.654 29.6352 15.881C30.0609 16.5666 29.7386 16.9262 29.041 16.9687C28.5121 17.001 27.9806 16.9752 27.5451 16.9752Z" fill="#DDEBEC"/>
</svg>
