
<svg width="82px" height="82px" viewBox="0 0 82 82" version="1.1" xmlns="http://www.w3.org/2000/svg" xmlns:xlink="http://www.w3.org/1999/xlink">
    <defs>
        <polygon id="path-1" points="0.009609375 0.1435 82 0.1435 82 32.0869844 0.009609375 32.0869844"></polygon>
    </defs>
    <g id="Symbols" stroke="none" stroke-width="1" fill="none" fill-rule="evenodd">
        <g id="giftbox-2">
            <g>
                <g id="Group-3">
                    <mask id="gift-mask" fill="white">
                        <use xlink:href="#path-1"></use>
                    </mask>
                    <g id="Clip-2"></g>
                    <path d="M15.289957,9.48477344 C15.6555938,7.96072656 16.755707,6.66185938 18.1782148,6.00425781 C20.1316406,5.10129687 22.295832,5.39117969 23.9364727,6.87630859 L32.9803359,15.0734258 C32.9800156,15.0996914 32.9782539,15.1257969 32.9782539,15.1522227 L32.9782539,16.0434922 L20.3991016,16.0434922 C17.0755391,16.0434922 14.4598672,12.9451094 15.289957,9.48477344 Z M57.9232305,6.98761719 C59.2930469,5.74592578 61.2101172,5.16632031 62.9820859,5.69499609 C65.5248867,6.45333594 67.0181836,8.61592578 66.8322422,11.2096563 C66.6330078,13.9888477 64.1225586,16.0436523 61.3363203,16.0436523 L49.0217461,16.0436523 L49.0217461,15.1523828 C49.0217461,15.120832 49.0198242,15.0896016 49.0193437,15.0580508 C51.0682227,13.2008789 55.5125586,9.17262891 57.9232305,6.98761719 Z M76.6522227,16.0434922 L70.6833594,16.0434922 C71.4706875,14.7974766 71.9900742,13.398832 72.1382188,11.9196289 C72.6116406,7.19229688 70.1220117,2.9545625 65.8834766,1.07576953 C61.9875156,-0.651195312 57.6093242,0.0547734375 54.4564883,2.91420313 L46.9196953,9.74486719 C45.4518633,8.13946094 43.3418047,7.13047656 41,7.13047656 C38.6540313,7.13047656 36.5406094,8.14266406 35.072457,9.75303516 L27.5258945,2.91324219 C24.3680938,0.0539726563 19.9916641,-0.649273437 16.0974648,1.07673047 C11.8600508,2.95568359 9.36994141,7.19485938 9.84464453,11.9220313 C9.99310938,13.4002734 10.5123359,14.7981172 11.2995039,16.0434922 L5.34777734,16.0434922 C2.39417578,16.0434922 0,18.4378281 0,21.3912695 L0,29.4130156 C0,30.8898164 1.19716797,32.0869844 2.67396875,32.0869844 L79.3260313,32.0869844 C80.802832,32.0869844 82,30.8898164 82,29.4130156 L82,21.3912695 C82,18.4378281 79.6058242,16.0434922 76.6522227,16.0434922 L76.6522227,16.0434922 Z" id="Fill-1" fill="#A29DC1" mask="url(#gift-mask)"></path>
                </g>
                <path d="M5.34777734,76.6522227 C5.34777734,79.6058242 7.74211328,82 10.6957148,82 L35.6522227,82 L35.6522227,37.4347617 L5.34777734,37.4347617 L5.34777734,76.6522227" id="Fill-4" fill="#A29DC1"></path>
                <path d="M46.3477773,82 L71.3042852,82 C74.2578867,82 76.6522227,79.6058242 76.6522227,76.6522227 L76.6522227,37.4347617 L46.3477773,37.4347617 L46.3477773,82" id="Fill-5" fill="#A29DC1"></path>
            </g>
        </g>
    </g>
</svg>