<svg width="24" height="24" viewBox="0 0 24 24" fill="none" xmlns="http://www.w3.org/2000/svg">
<mask id="mask0_12_3181" style="mask-type:alpha" maskUnits="userSpaceOnUse" x="0" y="0" width="24" height="24">
<path fill-rule="evenodd" clip-rule="evenodd" d="M0 0H24V24H0V0Z" fill="white"/>
</mask>
<g mask="url(#mask0_12_3181)">
<path fill-rule="evenodd" clip-rule="evenodd" d="M24 12C24 18.6274 18.6274 24 12 24C5.37256 24 0 18.6274 0 12C0 5.37256 5.37256 0 12 0C18.6274 0 24 5.37256 24 12Z" fill="#D84938"/>
</g>
<path fill-rule="evenodd" clip-rule="evenodd" d="M9.89789 11.0838C10.5447 11.0855 11.1583 10.7536 11.1814 9.95425C11.1888 9.69894 11.2035 9.43919 11.168 9.18813C11.0749 8.53125 10.8596 7.91569 10.4013 7.41813C10.0338 7.01919 9.56639 6.88669 9.04033 7.0205C8.51027 7.15538 8.20046 7.52382 8.10589 8.04557C7.93183 9.00582 8.23352 9.84338 8.85302 10.5709C9.12939 10.8956 9.48408 11.1005 9.89789 11.0838ZM9.91208 16.9431C10.3971 16.9379 10.929 16.8783 11.3971 16.5696C12.1838 16.0508 12.2768 14.9866 11.5754 14.3609C11.2509 14.0715 10.8901 13.8221 10.5398 13.5628C10.4765 13.5158 10.385 13.4894 10.3047 13.485C9.61152 13.4469 8.93958 13.5483 8.29471 13.8113C7.77658 14.0225 7.41271 14.3823 7.32058 14.9441C7.21883 15.5646 7.46808 16.0509 7.97552 16.4161C8.53896 16.8216 9.18108 16.9349 9.91208 16.9431ZM9.97952 13.0179C9.63389 12.5644 9.41727 12.1032 9.69871 11.5479C9.33539 11.5226 9.00996 11.5169 8.68946 11.4744C7.30227 11.2904 6.10864 9.62525 7.06258 8.00094C7.60971 7.06938 8.46296 6.569 9.51508 6.50657C10.7506 6.43332 11.992 6.4605 13.2309 6.44532C13.2506 6.44507 13.2703 6.45963 13.3385 6.486C13.0464 6.65069 12.8006 6.84013 12.5226 6.93169C12.2453 7.02313 11.9358 7.0165 11.6488 7.05188C11.7801 7.20138 11.929 7.35719 12.0624 7.52525C12.7533 8.39632 12.7302 9.88494 11.7249 10.7303C11.5118 10.9095 11.31 11.1096 11.1365 11.3269C10.9148 11.6046 10.9333 11.9168 11.1755 12.1718C11.3515 12.3571 11.5596 12.5116 11.7512 12.6823C11.9837 12.8896 12.2176 13.0955 12.4443 13.309C13.2151 14.0347 13.2453 15.3005 12.6306 16.1323C12.2654 16.6266 11.8061 17.0073 11.2308 17.2256C10.036 17.6789 8.81558 17.7476 7.59321 17.3641C7.26808 17.2621 6.95277 17.0737 6.68233 16.8619C5.59489 16.0104 5.88702 14.7658 6.62952 14.0816C7.25164 13.5084 8.03146 13.2593 8.85346 13.1388C9.21452 13.0858 9.57964 13.0599 9.97952 13.0179Z" fill="white"/>
<path fill-rule="evenodd" clip-rule="evenodd" d="M17.971 11.5811V12.4633H17.1829C16.9568 12.4633 16.7301 12.4738 16.5049 12.4601C16.3239 12.4491 16.2787 12.5222 16.2827 12.6908C16.2923 13.1036 16.2789 13.517 16.2887 13.9299C16.293 14.1143 16.2458 14.1909 16.0424 14.1899C15.3822 14.1868 15.3825 14.1946 15.382 13.5354C15.3818 13.2081 15.3803 12.8808 15.3787 12.5535C15.3786 12.5384 15.3715 12.5234 15.3603 12.4797C15.2877 12.4746 15.2058 12.4644 15.1239 12.4641C14.7107 12.4624 14.2974 12.4553 13.8846 12.4669C13.7057 12.4719 13.6607 12.4053 13.6583 12.2371C13.649 11.5811 13.644 11.5812 14.2966 11.5812H15.3822C15.3822 11.2661 15.3822 10.9738 15.3822 10.6816C15.3822 10.4711 15.388 10.2605 15.3804 10.0503C15.3752 9.91225 15.4212 9.86194 15.5657 9.85619C16.2859 9.8275 16.2857 9.8235 16.2857 10.55C16.2857 10.8228 16.293 11.0959 16.2832 11.3683C16.2773 11.5293 16.3303 11.5874 16.4959 11.5843C16.9784 11.5754 17.461 11.5811 17.971 11.5811Z" fill="white"/>
</svg>
