<?xml version="1.0" encoding="UTF-8"?>
<svg width="23px" height="21px" viewBox="0 0 23 21" version="1.1" xmlns="http://www.w3.org/2000/svg" xmlns:xlink="http://www.w3.org/1999/xlink">
    <title>ic_home</title>
    <g id="Page-1" stroke="none" stroke-width="1" fill="none" fill-rule="evenodd">
        <g id="iPhone-8-Copy-3" transform="translate(-18.000000, -30.000000)" fill="#2D2866">
            <g id="ic_home" transform="translate(18.000000, 28.000000)">
                <g id="home-icon-silhouette" transform="translate(0.000000, 2.000000)">
                    <path d="M22.6139394,9.73573686 L19.1281755,6.22938933 L19.1281755,2.1789695 C19.1281755,1.4465968 18.538177,0.853067623 17.8090358,0.853067623 C17.081566,0.853067623 16.4915675,1.4465968 16.4915675,2.1789695 L16.4915675,3.57725867 L13.8961406,0.966412128 C12.6129356,-0.323669706 10.3818703,-0.321381333 9.10159031,0.968747202 L0.385880743,9.73573686 C-0.128626914,10.2543101 -0.128626914,11.0933957 0.385880743,11.6111751 C0.900620537,12.1296083 1.73640531,12.1296083 2.25095939,11.6111751 L10.9658333,2.84395195 C11.2497364,2.55986681 11.7501301,2.55986681 12.0325476,2.84311132 L20.7489071,11.6111751 C21.0073681,11.8704151 21.3443376,11.9993579 21.6812143,11.9993579 C22.0187874,11.9993579 22.3563141,11.8702749 22.6139858,11.6111751 C23.1286791,11.0934424 23.1286791,10.2543569 22.6139394,9.73573686 Z" id="Path"></path>
                    <path d="M11.4409832,5.18656986 C11.1973155,4.93781005 10.8027739,4.93781005 10.559821,5.18656986 L3.18250509,12.7199627 C3.06603244,12.8388891 3,13.0012607 3,13.1707058 L3,18.6652812 C3,19.9546246 4.02345816,21 5.28566961,21 L8.93818394,21 L8.93818394,15.222073 L13.0618161,15.222073 L13.0618161,21 L16.7143751,21 C17.9765418,21 19,19.9546246 19,18.6653268 L19,13.1707058 C19,13.0012607 18.9345484,12.8388891 18.8174949,12.7199627 L11.4409832,5.18656986 Z" id="Path"></path>
                </g>
            </g>
        </g>
    </g>
</svg>