<svg width="16" height="16" viewBox="0 0 16 16" fill="none" xmlns="http://www.w3.org/2000/svg">
<path fill-rule="evenodd" clip-rule="evenodd" d="M0.559614 8.07418C0.559614 9.84784 0.558669 11.6206 0.560558 13.3942C0.560558 13.5406 0.559614 13.6898 0.586058 13.8334C0.777779 14.8959 1.624 15.5957 2.71955 15.5966C6.27631 15.5985 9.83307 15.5976 13.3908 15.5957C13.5249 15.5957 13.6618 15.5948 13.7931 15.5711C14.8537 15.3823 15.5564 14.5342 15.5564 13.4367C15.5592 9.86578 15.5592 6.2958 15.5564 2.72582C15.5554 1.46877 14.6478 0.568718 13.3879 0.567774C9.83779 0.56683 6.2867 0.567774 2.7356 0.568718C2.58921 0.568718 2.44094 0.572496 2.29833 0.598941C1.25283 0.801995 0.562447 1.63405 0.560558 2.70126C0.55678 4.49287 0.559614 6.28352 0.559614 8.07418Z" fill="white"/>
<path fill-rule="evenodd" clip-rule="evenodd" d="M14.9576 8.09024C14.9576 6.31752 14.9576 4.54387 14.9576 2.77021C14.9567 1.79555 14.3352 1.16938 13.3672 1.16938C9.8274 1.16844 6.28764 1.16844 2.74883 1.17033C2.62605 1.17033 2.50138 1.17127 2.38144 1.19488C1.63722 1.34127 1.16028 1.94099 1.16028 2.73621C1.15839 6.29486 1.15933 9.85351 1.16028 13.4122C1.16028 14.3679 1.79116 14.995 2.74977 14.995C6.28953 14.996 9.82835 14.996 13.3681 14.995C13.4909 14.995 13.6165 14.9931 13.7355 14.9695C14.4759 14.8231 14.9548 14.2282 14.9567 13.4462C14.9595 11.6612 14.9576 9.87617 14.9576 8.09024ZM0.559614 8.07418C0.559614 6.28352 0.55678 4.49192 0.560558 2.70126C0.562447 1.63405 1.25283 0.801995 2.29833 0.598941C2.44094 0.572496 2.58921 0.568718 2.7356 0.568718C6.2867 0.567774 9.83779 0.56683 13.3879 0.567774C14.6478 0.568718 15.5554 1.46877 15.5564 2.72582C15.5592 6.2958 15.5592 9.86578 15.5564 13.4367C15.5564 14.5342 14.8537 15.3823 13.7931 15.5711C13.6618 15.5948 13.5249 15.5957 13.3908 15.5957C9.83307 15.5976 6.27631 15.5985 2.71955 15.5966C1.624 15.5957 0.777779 14.8959 0.586058 13.8334C0.559614 13.6898 0.560558 13.5406 0.560558 13.3942C0.558669 11.6206 0.559614 9.84784 0.559614 8.07418Z" fill="black"/>
<path d="M14.9576 2.77021H15.0326V2.77014L14.9576 2.77021ZM13.3672 1.16938L13.3671 1.24438H13.3672V1.16938ZM2.74883 1.17033V1.24533H2.74887L2.74883 1.17033ZM2.38144 1.19488L2.39591 1.26847L2.39592 1.26847L2.38144 1.19488ZM1.16028 2.73621L1.23528 2.73625V2.73621H1.16028ZM1.16028 13.4122H1.23528V13.4121L1.16028 13.4122ZM2.74977 14.995L2.74979 14.92H2.74977V14.995ZM13.3681 14.995V14.92H13.3681L13.3681 14.995ZM13.7355 14.9695L13.7209 14.896L13.7209 14.896L13.7355 14.9695ZM14.9567 13.4462L15.0317 13.4463V13.4463L14.9567 13.4462ZM0.560558 2.70126L0.635558 2.70142L0.635558 2.7014L0.560558 2.70126ZM2.29833 0.598941L2.28465 0.525195L2.28403 0.525316L2.29833 0.598941ZM2.7356 0.568718V0.643718L2.73562 0.643718L2.7356 0.568718ZM13.3879 0.567774L13.388 0.492774L13.388 0.492774L13.3879 0.567774ZM15.5564 2.72582L15.4814 2.72588V2.72588L15.5564 2.72582ZM15.5564 13.4367L15.4814 13.4367V13.4367H15.5564ZM13.7931 15.5711L13.78 15.4973L13.7798 15.4973L13.7931 15.5711ZM13.3908 15.5957V15.5207H13.3907L13.3908 15.5957ZM2.71955 15.5966L2.71948 15.6716H2.71951L2.71955 15.5966ZM0.586058 13.8334L0.659867 13.8201L0.659817 13.8198L0.586058 13.8334ZM0.560558 13.3942H0.635558L0.635558 13.3941L0.560558 13.3942ZM15.0326 8.09024C15.0326 8.08678 15.0326 8.08331 15.0326 8.07985C15.0326 8.07639 15.0326 8.07293 15.0326 8.06946C15.0326 8.066 15.0326 8.06254 15.0326 8.05908C15.0326 8.05561 15.0326 8.05215 15.0326 8.04869C15.0326 8.04523 15.0326 8.04176 15.0326 8.0383C15.0326 8.03484 15.0326 8.03138 15.0326 8.02792C15.0326 8.02445 15.0326 8.02099 15.0326 8.01753C15.0326 8.01407 15.0326 8.0106 15.0326 8.00714C15.0326 8.00368 15.0326 8.00022 15.0326 7.99675C15.0326 7.99329 15.0326 7.98983 15.0326 7.98637C15.0326 7.9829 15.0326 7.97944 15.0326 7.97598C15.0326 7.97252 15.0326 7.96905 15.0326 7.96559C15.0326 7.96213 15.0326 7.95867 15.0326 7.9552C15.0326 7.95174 15.0326 7.94828 15.0326 7.94482C15.0326 7.94136 15.0326 7.93789 15.0326 7.93443C15.0326 7.93097 15.0326 7.92751 15.0326 7.92404C15.0326 7.92058 15.0326 7.91712 15.0326 7.91366C15.0326 7.91019 15.0326 7.90673 15.0326 7.90327C15.0326 7.89981 15.0326 7.89634 15.0326 7.89288C15.0326 7.88942 15.0326 7.88596 15.0326 7.88249C15.0326 7.87903 15.0326 7.87557 15.0326 7.87211C15.0326 7.86864 15.0326 7.86518 15.0326 7.86172C15.0326 7.85826 15.0326 7.85479 15.0326 7.85133C15.0326 7.84787 15.0326 7.84441 15.0326 7.84094C15.0326 7.83748 15.0326 7.83402 15.0326 7.83056C15.0326 7.82709 15.0326 7.82363 15.0326 7.82017C15.0326 7.81671 15.0326 7.81324 15.0326 7.80978C15.0326 7.80632 15.0326 7.80286 15.0326 7.79939C15.0326 7.79593 15.0326 7.79247 15.0326 7.78901C15.0326 7.78554 15.0326 7.78208 15.0326 7.77862C15.0326 7.77516 15.0326 7.77169 15.0326 7.76823C15.0326 7.76477 15.0326 7.76131 15.0326 7.75784C15.0326 7.75438 15.0326 7.75092 15.0326 7.74746C15.0326 7.74399 15.0326 7.74053 15.0326 7.73707C15.0326 7.73361 15.0326 7.73014 15.0326 7.72668C15.0326 7.72322 15.0326 7.71975 15.0326 7.71629C15.0326 7.71283 15.0326 7.70937 15.0326 7.7059C15.0326 7.70244 15.0326 7.69898 15.0326 7.69552C15.0326 7.69205 15.0326 7.68859 15.0326 7.68513C15.0326 7.68167 15.0326 7.6782 15.0326 7.67474C15.0326 7.67128 15.0326 7.66782 15.0326 7.66435C15.0326 7.66089 15.0326 7.65743 15.0326 7.65397C15.0326 7.6505 15.0326 7.64704 15.0326 7.64358C15.0326 7.64011 15.0326 7.63665 15.0326 7.63319C15.0326 7.62973 15.0326 7.62626 15.0326 7.6228C15.0326 7.61934 15.0326 7.61588 15.0326 7.61241C15.0326 7.60895 15.0326 7.60549 15.0326 7.60203C15.0326 7.59856 15.0326 7.5951 15.0326 7.59164C15.0326 7.58818 15.0326 7.58471 15.0326 7.58125C15.0326 7.57779 15.0326 7.57432 15.0326 7.57086C15.0326 7.5674 15.0326 7.56394 15.0326 7.56047C15.0326 7.55701 15.0326 7.55355 15.0326 7.55009C15.0326 7.54662 15.0326 7.54316 15.0326 7.5397C15.0326 7.53623 15.0326 7.53277 15.0326 7.52931C15.0326 7.52585 15.0326 7.52238 15.0326 7.51892C15.0326 7.51546 15.0326 7.512 15.0326 7.50853C15.0326 7.50507 15.0326 7.50161 15.0326 7.49815C15.0326 7.49468 15.0326 7.49122 15.0326 7.48776C15.0326 7.48429 15.0326 7.48083 15.0326 7.47737C15.0326 7.47391 15.0326 7.47044 15.0326 7.46698C15.0326 7.46352 15.0326 7.46006 15.0326 7.45659C15.0326 7.45313 15.0326 7.44967 15.0326 7.4462C15.0326 7.44274 15.0326 7.43928 15.0326 7.43582C15.0326 7.43235 15.0326 7.42889 15.0326 7.42543C15.0326 7.42197 15.0326 7.4185 15.0326 7.41504C15.0326 7.41158 15.0326 7.40811 15.0326 7.40465C15.0326 7.40119 15.0326 7.39773 15.0326 7.39426C15.0326 7.3908 15.0326 7.38734 15.0326 7.38387C15.0326 7.38041 15.0326 7.37695 15.0326 7.37349C15.0326 7.37002 15.0326 7.36656 15.0326 7.3631C15.0326 7.35963 15.0326 7.35617 15.0326 7.35271C15.0326 7.34925 15.0326 7.34578 15.0326 7.34232C15.0326 7.33886 15.0326 7.3354 15.0326 7.33193C15.0326 7.32847 15.0326 7.32501 15.0326 7.32154C15.0326 7.31808 15.0326 7.31462 15.0326 7.31116C15.0326 7.30769 15.0326 7.30423 15.0326 7.30077C15.0326 7.2973 15.0326 7.29384 15.0326 7.29038C15.0326 7.28692 15.0326 7.28345 15.0326 7.27999C15.0326 7.27653 15.0326 7.27306 15.0326 7.2696C15.0326 7.26614 15.0326 7.26268 15.0326 7.25921C15.0326 7.25575 15.0326 7.25229 15.0326 7.24882C15.0326 7.24536 15.0326 7.2419 15.0326 7.23844C15.0326 7.23497 15.0326 7.23151 15.0326 7.22805C15.0326 7.22458 15.0326 7.22112 15.0326 7.21766C15.0326 7.2142 15.0326 7.21073 15.0326 7.20727C15.0326 7.20381 15.0326 7.20034 15.0326 7.19688C15.0326 7.19342 15.0326 7.18995 15.0326 7.18649C15.0326 7.18303 15.0326 7.17957 15.0326 7.1761C15.0326 7.17264 15.0326 7.16918 15.0326 7.16571C15.0326 7.16225 15.0326 7.15879 15.0326 7.15533C15.0326 7.15186 15.0326 7.1484 15.0326 7.14494C15.0326 7.14147 15.0326 7.13801 15.0326 7.13455C15.0326 7.13109 15.0326 7.12762 15.0326 7.12416C15.0326 7.1207 15.0326 7.11723 15.0326 7.11377C15.0326 7.11031 15.0326 7.10684 15.0326 7.10338C15.0326 7.09992 15.0326 7.09646 15.0326 7.09299C15.0326 7.08953 15.0326 7.08607 15.0326 7.0826C15.0326 7.07914 15.0326 7.07568 15.0326 7.07222C15.0326 7.06875 15.0326 7.06529 15.0326 7.06183C15.0326 7.05836 15.0326 7.0549 15.0326 7.05144C15.0326 7.04797 15.0326 7.04451 15.0326 7.04105C15.0326 7.03759 15.0326 7.03412 15.0326 7.03066C15.0326 7.0272 15.0326 7.02373 15.0326 7.02027C15.0326 7.01681 15.0326 7.01334 15.0326 7.00988C15.0326 7.00642 15.0326 7.00296 15.0326 6.99949C15.0326 6.99603 15.0326 6.99257 15.0326 6.9891C15.0326 6.98564 15.0326 6.98218 15.0326 6.97871C15.0326 6.97525 15.0326 6.97179 15.0326 6.96833C15.0326 6.96486 15.0326 6.9614 15.0326 6.95794C15.0326 6.95447 15.0326 6.95101 15.0326 6.94755C15.0326 6.94408 15.0326 6.94062 15.0326 6.93716C15.0326 6.93369 15.0326 6.93023 15.0326 6.92677C15.0326 6.92331 15.0326 6.91984 15.0326 6.91638C15.0326 6.91292 15.0326 6.90945 15.0326 6.90599C15.0326 6.90253 15.0326 6.89906 15.0326 6.8956C15.0326 6.89214 15.0326 6.88868 15.0326 6.88521C15.0326 6.88175 15.0326 6.87829 15.0326 6.87482C15.0326 6.87136 15.0326 6.8679 15.0326 6.86443C15.0326 6.86097 15.0326 6.85751 15.0326 6.85404C15.0326 6.85058 15.0326 6.84712 15.0326 6.84366C15.0326 6.84019 15.0326 6.83673 15.0326 6.83327C15.0326 6.8298 15.0326 6.82634 15.0326 6.82288C15.0326 6.81941 15.0326 6.81595 15.0326 6.81249C15.0326 6.80902 15.0326 6.80556 15.0326 6.8021C15.0326 6.79863 15.0326 6.79517 15.0326 6.79171C15.0326 6.78825 15.0326 6.78478 15.0326 6.78132C15.0326 6.77786 15.0326 6.77439 15.0326 6.77093C15.0326 6.76747 15.0326 6.764 15.0326 6.76054C15.0326 6.75708 15.0326 6.75361 15.0326 6.75015C15.0326 6.74669 15.0326 6.74322 15.0326 6.73976C15.0326 6.7363 15.0326 6.73283 15.0326 6.72937C15.0326 6.72591 15.0326 6.72245 15.0326 6.71898C15.0326 6.71552 15.0326 6.71206 15.0326 6.70859C15.0326 6.70513 15.0326 6.70167 15.0326 6.6982C15.0326 6.69474 15.0326 6.69128 15.0326 6.68781C15.0326 6.68435 15.0326 6.68089 15.0326 6.67742C15.0326 6.67396 15.0326 6.6705 15.0326 6.66703C15.0326 6.66357 15.0326 6.66011 15.0326 6.65665C15.0326 6.65318 15.0326 6.64972 15.0326 6.64626C15.0326 6.64279 15.0326 6.63933 15.0326 6.63587C15.0326 6.6324 15.0326 6.62894 15.0326 6.62548C15.0326 6.62201 15.0326 6.61855 15.0326 6.61509C15.0326 6.61162 15.0326 6.60816 15.0326 6.6047C15.0326 6.60123 15.0326 6.59777 15.0326 6.59431C15.0326 6.59084 15.0326 6.58738 15.0326 6.58392C15.0326 6.58045 15.0326 6.57699 15.0326 6.57353C15.0326 6.57007 15.0326 6.5666 15.0326 6.56314C15.0326 6.55968 15.0326 6.55621 15.0326 6.55275C15.0326 6.54929 15.0326 6.54582 15.0326 6.54236C15.0326 6.5389 15.0326 6.53543 15.0326 6.53197C15.0326 6.52851 15.0326 6.52504 15.0326 6.52158C15.0326 6.51812 15.0326 6.51465 15.0326 6.51119C15.0326 6.50773 15.0326 6.50426 15.0326 6.5008C15.0326 6.49734 15.0326 6.49387 15.0326 6.49041C15.0326 6.48695 15.0326 6.48348 15.0326 6.48002C15.0326 6.47656 15.0326 6.47309 15.0326 6.46963C15.0326 6.46617 15.0326 6.4627 15.0326 6.45924C15.0326 6.45578 15.0326 6.45231 15.0326 6.44885C15.0326 6.44539 15.0326 6.44192 15.0326 6.43846C15.0326 6.435 15.0326 6.43153 15.0326 6.42807C15.0326 6.42461 15.0326 6.42114 15.0326 6.41768C15.0326 6.41422 15.0326 6.41075 15.0326 6.40729C15.0326 6.40383 15.0326 6.40036 15.0326 6.3969C15.0326 6.39344 15.0326 6.38997 15.0326 6.38651C15.0326 6.38305 15.0326 6.37958 15.0326 6.37612C15.0326 6.37266 15.0326 6.36919 15.0326 6.36573C15.0326 6.36227 15.0326 6.3588 15.0326 6.35534C15.0326 6.35188 15.0326 6.34841 15.0326 6.34495C15.0326 6.34149 15.0326 6.33802 15.0326 6.33456C15.0326 6.3311 15.0326 6.32763 15.0326 6.32417C15.0326 6.32071 15.0326 6.31724 15.0326 6.31378C15.0326 6.31032 15.0326 6.30685 15.0326 6.30339C15.0326 6.29993 15.0326 6.29646 15.0326 6.293C15.0326 6.28954 15.0326 6.28607 15.0326 6.28261C15.0326 6.27915 15.0326 6.27568 15.0326 6.27222C15.0326 6.26876 15.0326 6.26529 15.0326 6.26183C15.0326 6.25837 15.0326 6.2549 15.0326 6.25144C15.0326 6.24798 15.0326 6.24451 15.0326 6.24105C15.0326 6.23759 15.0326 6.23412 15.0326 6.23066C15.0326 6.2272 15.0326 6.22373 15.0326 6.22027C15.0326 6.21681 15.0326 6.21334 15.0326 6.20988C15.0326 6.20642 15.0326 6.20295 15.0326 6.19949C15.0326 6.19603 15.0326 6.19256 15.0326 6.1891C15.0326 6.18564 15.0326 6.18217 15.0326 6.17871C15.0326 6.17525 15.0326 6.17178 15.0326 6.16832C15.0326 6.16486 15.0326 6.16139 15.0326 6.15793C15.0326 6.15446 15.0326 6.151 15.0326 6.14754C15.0326 6.14407 15.0326 6.14061 15.0326 6.13715C15.0326 6.13368 15.0326 6.13022 15.0326 6.12676C15.0326 6.12329 15.0326 6.11983 15.0326 6.11637C15.0326 6.1129 15.0326 6.10944 15.0326 6.10598C15.0326 6.10251 15.0326 6.09905 15.0326 6.09559C15.0326 6.09212 15.0326 6.08866 15.0326 6.0852C15.0326 6.08173 15.0326 6.07827 15.0326 6.07481C15.0326 6.07134 15.0326 6.06788 15.0326 6.06441C15.0326 6.06095 15.0326 6.05749 15.0326 6.05402C15.0326 6.05056 15.0326 6.0471 15.0326 6.04363C15.0326 6.04017 15.0326 6.03671 15.0326 6.03324C15.0326 6.02978 15.0326 6.02632 15.0326 6.02285C15.0326 6.01939 15.0326 6.01593 15.0326 6.01246C15.0326 6.009 15.0326 6.00554 15.0326 6.00207C15.0326 5.99861 15.0326 5.99515 15.0326 5.99168C15.0326 5.98822 15.0326 5.98476 15.0326 5.98129C15.0326 5.97783 15.0326 5.97436 15.0326 5.9709C15.0326 5.96744 15.0326 5.96397 15.0326 5.96051C15.0326 5.95705 15.0326 5.95358 15.0326 5.95012C15.0326 5.94666 15.0326 5.94319 15.0326 5.93973C15.0326 5.93627 15.0326 5.9328 15.0326 5.92934C15.0326 5.92588 15.0326 5.92241 15.0326 5.91895C15.0326 5.91548 15.0326 5.91202 15.0326 5.90856C15.0326 5.90509 15.0326 5.90163 15.0326 5.89817C15.0326 5.8947 15.0326 5.89124 15.0326 5.88778C15.0326 5.88431 15.0326 5.88085 15.0326 5.87739C15.0326 5.87392 15.0326 5.87046 15.0326 5.86699C15.0326 5.86353 15.0326 5.86007 15.0326 5.8566C15.0326 5.85314 15.0326 5.84968 15.0326 5.84621C15.0326 5.84275 15.0326 5.83929 15.0326 5.83582C15.0326 5.83236 15.0326 5.8289 15.0326 5.82543C15.0326 5.82197 15.0326 5.81851 15.0326 5.81504C15.0326 5.81158 15.0326 5.80811 15.0326 5.80465C15.0326 5.80119 15.0326 5.79772 15.0326 5.79426C15.0326 5.7908 15.0326 5.78733 15.0326 5.78387C15.0326 5.78041 15.0326 5.77694 15.0326 5.77348C15.0326 5.77001 15.0326 5.76655 15.0326 5.76309C15.0326 5.75962 15.0326 5.75616 15.0326 5.7527C15.0326 5.74923 15.0326 5.74577 15.0326 5.74231C15.0326 5.73884 15.0326 5.73538 15.0326 5.73192C15.0326 5.72845 15.0326 5.72499 15.0326 5.72152C15.0326 5.71806 15.0326 5.7146 15.0326 5.71113C15.0326 5.70767 15.0326 5.70421 15.0326 5.70074C15.0326 5.69728 15.0326 5.69382 15.0326 5.69035C15.0326 5.68689 15.0326 5.68342 15.0326 5.67996C15.0326 5.6765 15.0326 5.67303 15.0326 5.66957C15.0326 5.66611 15.0326 5.66264 15.0326 5.65918C15.0326 5.65572 15.0326 5.65225 15.0326 5.64879C15.0326 5.64532 15.0326 5.64186 15.0326 5.6384C15.0326 5.63493 15.0326 5.63147 15.0326 5.62801C15.0326 5.62454 15.0326 5.62108 15.0326 5.61762C15.0326 5.61415 15.0326 5.61069 15.0326 5.60722C15.0326 5.60376 15.0326 5.6003 15.0326 5.59683C15.0326 5.59337 15.0326 5.58991 15.0326 5.58644C15.0326 5.58298 15.0326 5.57952 15.0326 5.57605C15.0326 5.57259 15.0326 5.56912 15.0326 5.56566C15.0326 5.5622 15.0326 5.55873 15.0326 5.55527C15.0326 5.55181 15.0326 5.54834 15.0326 5.54488C15.0326 5.54142 15.0326 5.53795 15.0326 5.53449C15.0326 5.53102 15.0326 5.52756 15.0326 5.5241C15.0326 5.52063 15.0326 5.51717 15.0326 5.51371C15.0326 5.51024 15.0326 5.50678 15.0326 5.50331C15.0326 5.49985 15.0326 5.49639 15.0326 5.49292C15.0326 5.48946 15.0326 5.486 15.0326 5.48253C15.0326 5.47907 15.0326 5.47561 15.0326 5.47214C15.0326 5.46868 15.0326 5.46521 15.0326 5.46175C15.0326 5.45829 15.0326 5.45482 15.0326 5.45136C15.0326 5.4479 15.0326 5.44443 15.0326 5.44097C15.0326 5.4375 15.0326 5.43404 15.0326 5.43058C15.0326 5.42711 15.0326 5.42365 15.0326 5.42019C15.0326 5.41672 15.0326 5.41326 15.0326 5.40979C15.0326 5.40633 15.0326 5.40287 15.0326 5.3994C15.0326 5.39594 15.0326 5.39248 15.0326 5.38901C15.0326 5.38555 15.0326 5.38208 15.0326 5.37862C15.0326 5.37516 15.0326 5.37169 15.0326 5.36823C15.0326 5.36477 15.0326 5.3613 15.0326 5.35784C15.0326 5.35437 15.0326 5.35091 15.0326 5.34745C15.0326 5.34398 15.0326 5.34052 15.0326 5.33706C15.0326 5.33359 15.0326 5.33013 15.0326 5.32666C15.0326 5.3232 15.0326 5.31974 15.0326 5.31627C15.0326 5.31281 15.0326 5.30935 15.0326 5.30588C15.0326 5.30242 15.0326 5.29895 15.0326 5.29549C15.0326 5.29203 15.0326 5.28856 15.0326 5.2851C15.0326 5.28164 15.0326 5.27817 15.0326 5.27471C15.0326 5.27124 15.0326 5.26778 15.0326 5.26432C15.0326 5.26085 15.0326 5.25739 15.0326 5.25393C15.0326 5.25046 15.0326 5.247 15.0326 5.24353C15.0326 5.24007 15.0326 5.23661 15.0326 5.23314C15.0326 5.22968 15.0326 5.22622 15.0326 5.22275C15.0326 5.21929 15.0326 5.21582 15.0326 5.21236C15.0326 5.2089 15.0326 5.20543 15.0326 5.20197C15.0326 5.19851 15.0326 5.19504 15.0326 5.19158C15.0326 5.18811 15.0326 5.18465 15.0326 5.18119C15.0326 5.17772 15.0326 5.17426 15.0326 5.17079C15.0326 5.16733 15.0326 5.16387 15.0326 5.1604C15.0326 5.15694 15.0326 5.15348 15.0326 5.15001C15.0326 5.14655 15.0326 5.14308 15.0326 5.13962C15.0326 5.13616 15.0326 5.13269 15.0326 5.12923C15.0326 5.12577 15.0326 5.1223 15.0326 5.11884C15.0326 5.11537 15.0326 5.11191 15.0326 5.10845C15.0326 5.10498 15.0326 5.10152 15.0326 5.09805C15.0326 5.09459 15.0326 5.09113 15.0326 5.08766C15.0326 5.0842 15.0326 5.08074 15.0326 5.07727C15.0326 5.07381 15.0326 5.07034 15.0326 5.06688C15.0326 5.06342 15.0326 5.05995 15.0326 5.05649C15.0326 5.05303 15.0326 5.04956 15.0326 5.0461C15.0326 5.04263 15.0326 5.03917 15.0326 5.03571C15.0326 5.03224 15.0326 5.02878 15.0326 5.02531C15.0326 5.02185 15.0326 5.01839 15.0326 5.01492C15.0326 5.01146 15.0326 5.008 15.0326 5.00453C15.0326 5.00107 15.0326 4.9976 15.0326 4.99414C15.0326 4.99068 15.0326 4.98721 15.0326 4.98375C15.0326 4.98028 15.0326 4.97682 15.0326 4.97336C15.0326 4.96989 15.0326 4.96643 15.0326 4.96297C15.0326 4.9595 15.0326 4.95604 15.0326 4.95257C15.0326 4.94911 15.0326 4.94565 15.0326 4.94218C15.0326 4.93872 15.0326 4.93525 15.0326 4.93179C15.0326 4.92833 15.0326 4.92486 15.0326 4.9214C15.0326 4.91793 15.0326 4.91447 15.0326 4.91101C15.0326 4.90754 15.0326 4.90408 15.0326 4.90062C15.0326 4.89715 15.0326 4.89369 15.0326 4.89022C15.0326 4.88676 15.0326 4.8833 15.0326 4.87983C15.0326 4.87637 15.0326 4.8729 15.0326 4.86944C15.0326 4.86598 15.0326 4.86251 15.0326 4.85905C15.0326 4.85558 15.0326 4.85212 15.0326 4.84866C15.0326 4.84519 15.0326 4.84173 15.0326 4.83827C15.0326 4.8348 15.0326 4.83134 15.0326 4.82787C15.0326 4.82441 15.0326 4.82095 15.0326 4.81748C15.0326 4.81402 15.0326 4.81055 15.0326 4.80709C15.0326 4.80363 15.0326 4.80016 15.0326 4.7967C15.0326 4.79323 15.0326 4.78977 15.0326 4.78631C15.0326 4.78284 15.0326 4.77938 15.0326 4.77592C15.0326 4.77245 15.0326 4.76899 15.0326 4.76552C15.0326 4.76206 15.0326 4.7586 15.0326 4.75513C15.0326 4.75167 15.0326 4.7482 15.0326 4.74474C15.0326 4.74128 15.0326 4.73781 15.0326 4.73435C15.0326 4.73088 15.0326 4.72742 15.0326 4.72396C15.0326 4.72049 15.0326 4.71703 15.0326 4.71356C15.0326 4.7101 15.0326 4.70664 15.0326 4.70317C15.0326 4.69971 15.0326 4.69624 15.0326 4.69278C15.0326 4.68932 15.0326 4.68585 15.0326 4.68239C15.0326 4.67893 15.0326 4.67546 15.0326 4.672C15.0326 4.66853 15.0326 4.66507 15.0326 4.66161C15.0326 4.65814 15.0326 4.65468 15.0326 4.65121C15.0326 4.64775 15.0326 4.64429 15.0326 4.64082C15.0326 4.63736 15.0326 4.63389 15.0326 4.63043C15.0326 4.62697 15.0326 4.6235 15.0326 4.62004C15.0326 4.61657 15.0326 4.61311 15.0326 4.60965C15.0326 4.60618 15.0326 4.60272 15.0326 4.59925C15.0326 4.59579 15.0326 4.59233 15.0326 4.58886C15.0326 4.5854 15.0326 4.58193 15.0326 4.57847C15.0326 4.57501 15.0326 4.57154 15.0326 4.56808C15.0326 4.56461 15.0326 4.56115 15.0326 4.55769C15.0326 4.55422 15.0326 4.55076 15.0326 4.54729C15.0326 4.54383 15.0326 4.54037 15.0326 4.5369C15.0326 4.53344 15.0326 4.52997 15.0326 4.52651C15.0326 4.52305 15.0326 4.51958 15.0326 4.51612C15.0326 4.51266 15.0326 4.50919 15.0326 4.50573C15.0326 4.50226 15.0326 4.4988 15.0326 4.49534C15.0326 4.49187 15.0326 4.48841 15.0326 4.48494C15.0326 4.48148 15.0326 4.47802 15.0326 4.47455C15.0326 4.47109 15.0326 4.46762 15.0326 4.46416C15.0326 4.4607 15.0326 4.45723 15.0326 4.45377C15.0326 4.4503 15.0326 4.44684 15.0326 4.44338C15.0326 4.43991 15.0326 4.43645 15.0326 4.43298C15.0326 4.42952 15.0326 4.42606 15.0326 4.42259C15.0326 4.41913 15.0326 4.41566 15.0326 4.4122C15.0326 4.40874 15.0326 4.40527 15.0326 4.40181C15.0326 4.39834 15.0326 4.39488 15.0326 4.39142C15.0326 4.38795 15.0326 4.38449 15.0326 4.38102C15.0326 4.37756 15.0326 4.3741 15.0326 4.37063C15.0326 4.36717 15.0326 4.3637 15.0326 4.36024C15.0326 4.35678 15.0326 4.35331 15.0326 4.34985C15.0326 4.34638 15.0326 4.34292 15.0326 4.33946C15.0326 4.33599 15.0326 4.33253 15.0326 4.32906C15.0326 4.3256 15.0326 4.32214 15.0326 4.31867C15.0326 4.31521 15.0326 4.31174 15.0326 4.30828C15.0326 4.30482 15.0326 4.30135 15.0326 4.29789C15.0326 4.29442 15.0326 4.29096 15.0326 4.28749C15.0326 4.28403 15.0326 4.28057 15.0326 4.2771C15.0326 4.27364 15.0326 4.27017 15.0326 4.26671C15.0326 4.26325 15.0326 4.25978 15.0326 4.25632C15.0326 4.25285 15.0326 4.24939 15.0326 4.24593C15.0326 4.24246 15.0326 4.239 15.0326 4.23553C15.0326 4.23207 15.0326 4.22861 15.0326 4.22514C15.0326 4.22168 15.0326 4.21821 15.0326 4.21475C15.0326 4.21129 15.0326 4.20782 15.0326 4.20436C15.0326 4.20089 15.0326 4.19743 15.0326 4.19397C15.0326 4.1905 15.0326 4.18704 15.0326 4.18357C15.0326 4.18011 15.0326 4.17665 15.0326 4.17318C15.0326 4.16972 15.0326 4.16625 15.0326 4.16279C15.0326 4.15933 15.0326 4.15586 15.0326 4.1524C15.0326 4.14893 15.0326 4.14547 15.0326 4.14201C15.0326 4.13854 15.0326 4.13508 15.0326 4.13161C15.0326 4.12815 15.0326 4.12469 15.0326 4.12122C15.0326 4.11776 15.0326 4.11429 15.0326 4.11083C15.0326 4.10736 15.0326 4.1039 15.0326 4.10044C15.0326 4.09697 15.0326 4.09351 15.0326 4.09004C15.0326 4.08658 15.0326 4.08312 15.0326 4.07965C15.0326 4.07619 15.0326 4.07272 15.0326 4.06926C15.0326 4.0658 15.0326 4.06233 15.0326 4.05887C15.0326 4.0554 15.0326 4.05194 15.0326 4.04848C15.0326 4.04501 15.0326 4.04155 15.0326 4.03808C15.0326 4.03462 15.0326 4.03116 15.0326 4.02769C15.0326 4.02423 15.0326 4.02076 15.0326 4.0173C15.0326 4.01383 15.0326 4.01037 15.0326 4.00691C15.0326 4.00344 15.0326 3.99998 15.0326 3.99651C15.0326 3.99305 15.0326 3.98959 15.0326 3.98612C15.0326 3.98266 15.0326 3.97919 15.0326 3.97573C15.0326 3.97227 15.0326 3.9688 15.0326 3.96534C15.0326 3.96187 15.0326 3.95841 15.0326 3.95495C15.0326 3.95148 15.0326 3.94802 15.0326 3.94455C15.0326 3.94109 15.0326 3.93763 15.0326 3.93416C15.0326 3.9307 15.0326 3.92723 15.0326 3.92377C15.0326 3.9203 15.0326 3.91684 15.0326 3.91338C15.0326 3.90991 15.0326 3.90645 15.0326 3.90298C15.0326 3.89952 15.0326 3.89606 15.0326 3.89259C15.0326 3.88913 15.0326 3.88566 15.0326 3.8822C15.0326 3.87874 15.0326 3.87527 15.0326 3.87181C15.0326 3.86834 15.0326 3.86488 15.0326 3.86142C15.0326 3.85795 15.0326 3.85449 15.0326 3.85102C15.0326 3.84756 15.0326 3.84409 15.0326 3.84063C15.0326 3.83717 15.0326 3.8337 15.0326 3.83024C15.0326 3.82677 15.0326 3.82331 15.0326 3.81985C15.0326 3.81638 15.0326 3.81292 15.0326 3.80945C15.0326 3.80599 15.0326 3.80253 15.0326 3.79906C15.0326 3.7956 15.0326 3.79213 15.0326 3.78867C15.0326 3.7852 15.0326 3.78174 15.0326 3.77828C15.0326 3.77481 15.0326 3.77135 15.0326 3.76788C15.0326 3.76442 15.0326 3.76096 15.0326 3.75749C15.0326 3.75403 15.0326 3.75056 15.0326 3.7471C15.0326 3.74364 15.0326 3.74017 15.0326 3.73671C15.0326 3.73324 15.0326 3.72978 15.0326 3.72631C15.0326 3.72285 15.0326 3.71939 15.0326 3.71592C15.0326 3.71246 15.0326 3.70899 15.0326 3.70553C15.0326 3.70207 15.0326 3.6986 15.0326 3.69514C15.0326 3.69167 15.0326 3.68821 15.0326 3.68475C15.0326 3.68128 15.0326 3.67782 15.0326 3.67435C15.0326 3.67089 15.0326 3.66742 15.0326 3.66396C15.0326 3.6605 15.0326 3.65703 15.0326 3.65357C15.0326 3.6501 15.0326 3.64664 15.0326 3.64318C15.0326 3.63971 15.0326 3.63625 15.0326 3.63278C15.0326 3.62932 15.0326 3.62586 15.0326 3.62239C15.0326 3.61893 15.0326 3.61546 15.0326 3.612C15.0326 3.60853 15.0326 3.60507 15.0326 3.60161C15.0326 3.59814 15.0326 3.59468 15.0326 3.59121C15.0326 3.58775 15.0326 3.58429 15.0326 3.58082C15.0326 3.57736 15.0326 3.57389 15.0326 3.57043C15.0326 3.56697 15.0326 3.5635 15.0326 3.56004C15.0326 3.55657 15.0326 3.55311 15.0326 3.54964C15.0326 3.54618 15.0326 3.54272 15.0326 3.53925C15.0326 3.53579 15.0326 3.53232 15.0326 3.52886C15.0326 3.5254 15.0326 3.52193 15.0326 3.51847C15.0326 3.515 15.0326 3.51154 15.0326 3.50807C15.0326 3.50461 15.0326 3.50115 15.0326 3.49768C15.0326 3.49422 15.0326 3.49075 15.0326 3.48729C15.0326 3.48383 15.0326 3.48036 15.0326 3.4769C15.0326 3.47343 15.0326 3.46997 15.0326 3.46651C15.0326 3.46304 15.0326 3.45958 15.0326 3.45611C15.0326 3.45265 15.0326 3.44918 15.0326 3.44572C15.0326 3.44226 15.0326 3.43879 15.0326 3.43533C15.0326 3.43186 15.0326 3.4284 15.0326 3.42494C15.0326 3.42147 15.0326 3.41801 15.0326 3.41454C15.0326 3.41108 15.0326 3.40761 15.0326 3.40415C15.0326 3.40069 15.0326 3.39722 15.0326 3.39376C15.0326 3.39029 15.0326 3.38683 15.0326 3.38337C15.0326 3.3799 15.0326 3.37644 15.0326 3.37297C15.0326 3.36951 15.0326 3.36604 15.0326 3.36258C15.0326 3.35912 15.0326 3.35565 15.0326 3.35219C15.0326 3.34872 15.0326 3.34526 15.0326 3.3418C15.0326 3.33833 15.0326 3.33487 15.0326 3.3314C15.0326 3.32794 15.0326 3.32447 15.0326 3.32101C15.0326 3.31755 15.0326 3.31408 15.0326 3.31062C15.0326 3.30715 15.0326 3.30369 15.0326 3.30023C15.0326 3.29676 15.0326 3.2933 15.0326 3.28983C15.0326 3.28637 15.0326 3.2829 15.0326 3.27944C15.0326 3.27598 15.0326 3.27251 15.0326 3.26905C15.0326 3.26558 15.0326 3.26212 15.0326 3.25866C15.0326 3.25519 15.0326 3.25173 15.0326 3.24826C15.0326 3.2448 15.0326 3.24133 15.0326 3.23787C15.0326 3.23441 15.0326 3.23094 15.0326 3.22748C15.0326 3.22401 15.0326 3.22055 15.0326 3.21709C15.0326 3.21362 15.0326 3.21016 15.0326 3.20669C15.0326 3.20323 15.0326 3.19976 15.0326 3.1963C15.0326 3.19284 15.0326 3.18937 15.0326 3.18591C15.0326 3.18244 15.0326 3.17898 15.0326 3.17552C15.0326 3.17205 15.0326 3.16859 15.0326 3.16512C15.0326 3.16166 15.0326 3.1582 15.0326 3.15473C15.0326 3.15127 15.0326 3.1478 15.0326 3.14434C15.0326 3.14087 15.0326 3.13741 15.0326 3.13395C15.0326 3.13048 15.0326 3.12702 15.0326 3.12355C15.0326 3.12009 15.0326 3.11663 15.0326 3.11316C15.0326 3.1097 15.0326 3.10623 15.0326 3.10277C15.0326 3.0993 15.0326 3.09584 15.0326 3.09238C15.0326 3.08891 15.0326 3.08545 15.0326 3.08198C15.0326 3.07852 15.0326 3.07506 15.0326 3.07159C15.0326 3.06813 15.0326 3.06466 15.0326 3.0612C15.0326 3.05773 15.0326 3.05427 15.0326 3.05081C15.0326 3.04734 15.0326 3.04388 15.0326 3.04041C15.0326 3.03695 15.0326 3.03348 15.0326 3.03002C15.0326 3.02656 15.0326 3.02309 15.0326 3.01963C15.0326 3.01616 15.0326 3.0127 15.0326 3.00924C15.0326 3.00577 15.0326 3.00231 15.0326 2.99884C15.0326 2.99538 15.0326 2.99191 15.0326 2.98845C15.0326 2.98499 15.0326 2.98152 15.0326 2.97806C15.0326 2.97459 15.0326 2.97113 15.0326 2.96767C15.0326 2.9642 15.0326 2.96074 15.0326 2.95727C15.0326 2.95381 15.0326 2.95034 15.0326 2.94688C15.0326 2.94342 15.0326 2.93995 15.0326 2.93649C15.0326 2.93302 15.0326 2.92956 15.0326 2.9261C15.0326 2.92263 15.0326 2.91917 15.0326 2.9157C15.0326 2.91224 15.0326 2.90877 15.0326 2.90531C15.0326 2.90185 15.0326 2.89838 15.0326 2.89492C15.0326 2.89145 15.0326 2.88799 15.0326 2.88453C15.0326 2.88106 15.0326 2.8776 15.0326 2.87413C15.0326 2.87067 15.0326 2.8672 15.0326 2.86374C15.0326 2.86028 15.0326 2.85681 15.0326 2.85335C15.0326 2.84988 15.0326 2.84642 15.0326 2.84296C15.0326 2.83949 15.0326 2.83603 15.0326 2.83256C15.0326 2.8291 15.0326 2.82563 15.0326 2.82217C15.0326 2.81871 15.0326 2.81524 15.0326 2.81178C15.0326 2.80831 15.0326 2.80485 15.0326 2.80139C15.0326 2.79792 15.0326 2.79446 15.0326 2.79099C15.0326 2.78753 15.0326 2.78406 15.0326 2.7806C15.0326 2.77714 15.0326 2.77367 15.0326 2.77021H14.8826C14.8826 2.77367 14.8826 2.77714 14.8826 2.7806C14.8826 2.78406 14.8826 2.78753 14.8826 2.79099C14.8826 2.79446 14.8826 2.79792 14.8826 2.80139C14.8826 2.80485 14.8826 2.80831 14.8826 2.81178C14.8826 2.81524 14.8826 2.81871 14.8826 2.82217C14.8826 2.82563 14.8826 2.8291 14.8826 2.83256C14.8826 2.83603 14.8826 2.83949 14.8826 2.84296C14.8826 2.84642 14.8826 2.84988 14.8826 2.85335C14.8826 2.85681 14.8826 2.86028 14.8826 2.86374C14.8826 2.8672 14.8826 2.87067 14.8826 2.87413C14.8826 2.8776 14.8826 2.88106 14.8826 2.88453C14.8826 2.88799 14.8826 2.89145 14.8826 2.89492C14.8826 2.89838 14.8826 2.90185 14.8826 2.90531C14.8826 2.90877 14.8826 2.91224 14.8826 2.9157C14.8826 2.91917 14.8826 2.92263 14.8826 2.9261C14.8826 2.92956 14.8826 2.93302 14.8826 2.93649C14.8826 2.93995 14.8826 2.94342 14.8826 2.94688C14.8826 2.95034 14.8826 2.95381 14.8826 2.95727C14.8826 2.96074 14.8826 2.9642 14.8826 2.96767C14.8826 2.97113 14.8826 2.97459 14.8826 2.97806C14.8826 2.98152 14.8826 2.98499 14.8826 2.98845C14.8826 2.99191 14.8826 2.99538 14.8826 2.99884C14.8826 3.00231 14.8826 3.00577 14.8826 3.00924C14.8826 3.0127 14.8826 3.01616 14.8826 3.01963C14.8826 3.02309 14.8826 3.02656 14.8826 3.03002C14.8826 3.03348 14.8826 3.03695 14.8826 3.04041C14.8826 3.04388 14.8826 3.04734 14.8826 3.05081C14.8826 3.05427 14.8826 3.05773 14.8826 3.0612C14.8826 3.06466 14.8826 3.06813 14.8826 3.07159C14.8826 3.07506 14.8826 3.07852 14.8826 3.08198C14.8826 3.08545 14.8826 3.08891 14.8826 3.09238C14.8826 3.09584 14.8826 3.0993 14.8826 3.10277C14.8826 3.10623 14.8826 3.1097 14.8826 3.11316C14.8826 3.11663 14.8826 3.12009 14.8826 3.12355C14.8826 3.12702 14.8826 3.13048 14.8826 3.13395C14.8826 3.13741 14.8826 3.14087 14.8826 3.14434C14.8826 3.1478 14.8826 3.15127 14.8826 3.15473C14.8826 3.1582 14.8826 3.16166 14.8826 3.16512C14.8826 3.16859 14.8826 3.17205 14.8826 3.17552C14.8826 3.17898 14.8826 3.18244 14.8826 3.18591C14.8826 3.18937 14.8826 3.19284 14.8826 3.1963C14.8826 3.19976 14.8826 3.20323 14.8826 3.20669C14.8826 3.21016 14.8826 3.21362 14.8826 3.21709C14.8826 3.22055 14.8826 3.22401 14.8826 3.22748C14.8826 3.23094 14.8826 3.23441 14.8826 3.23787C14.8826 3.24133 14.8826 3.2448 14.8826 3.24826C14.8826 3.25173 14.8826 3.25519 14.8826 3.25866C14.8826 3.26212 14.8826 3.26558 14.8826 3.26905C14.8826 3.27251 14.8826 3.27598 14.8826 3.27944C14.8826 3.2829 14.8826 3.28637 14.8826 3.28983C14.8826 3.2933 14.8826 3.29676 14.8826 3.30023C14.8826 3.30369 14.8826 3.30715 14.8826 3.31062C14.8826 3.31408 14.8826 3.31755 14.8826 3.32101C14.8826 3.32447 14.8826 3.32794 14.8826 3.3314C14.8826 3.33487 14.8826 3.33833 14.8826 3.3418C14.8826 3.34526 14.8826 3.34872 14.8826 3.35219C14.8826 3.35565 14.8826 3.35912 14.8826 3.36258C14.8826 3.36604 14.8826 3.36951 14.8826 3.37297C14.8826 3.37644 14.8826 3.3799 14.8826 3.38337C14.8826 3.38683 14.8826 3.39029 14.8826 3.39376C14.8826 3.39722 14.8826 3.40069 14.8826 3.40415C14.8826 3.40761 14.8826 3.41108 14.8826 3.41454C14.8826 3.41801 14.8826 3.42147 14.8826 3.42494C14.8826 3.4284 14.8826 3.43186 14.8826 3.43533C14.8826 3.43879 14.8826 3.44226 14.8826 3.44572C14.8826 3.44918 14.8826 3.45265 14.8826 3.45611C14.8826 3.45958 14.8826 3.46304 14.8826 3.46651C14.8826 3.46997 14.8826 3.47343 14.8826 3.4769C14.8826 3.48036 14.8826 3.48383 14.8826 3.48729C14.8826 3.49075 14.8826 3.49422 14.8826 3.49768C14.8826 3.50115 14.8826 3.50461 14.8826 3.50807C14.8826 3.51154 14.8826 3.515 14.8826 3.51847C14.8826 3.52193 14.8826 3.5254 14.8826 3.52886C14.8826 3.53232 14.8826 3.53579 14.8826 3.53925C14.8826 3.54272 14.8826 3.54618 14.8826 3.54964C14.8826 3.55311 14.8826 3.55657 14.8826 3.56004C14.8826 3.5635 14.8826 3.56697 14.8826 3.57043C14.8826 3.57389 14.8826 3.57736 14.8826 3.58082C14.8826 3.58429 14.8826 3.58775 14.8826 3.59121C14.8826 3.59468 14.8826 3.59814 14.8826 3.60161C14.8826 3.60507 14.8826 3.60853 14.8826 3.612C14.8826 3.61546 14.8826 3.61893 14.8826 3.62239C14.8826 3.62586 14.8826 3.62932 14.8826 3.63278C14.8826 3.63625 14.8826 3.63971 14.8826 3.64318C14.8826 3.64664 14.8826 3.6501 14.8826 3.65357C14.8826 3.65703 14.8826 3.6605 14.8826 3.66396C14.8826 3.66742 14.8826 3.67089 14.8826 3.67435C14.8826 3.67782 14.8826 3.68128 14.8826 3.68475C14.8826 3.68821 14.8826 3.69167 14.8826 3.69514C14.8826 3.6986 14.8826 3.70207 14.8826 3.70553C14.8826 3.70899 14.8826 3.71246 14.8826 3.71592C14.8826 3.71939 14.8826 3.72285 14.8826 3.72631C14.8826 3.72978 14.8826 3.73324 14.8826 3.73671C14.8826 3.74017 14.8826 3.74364 14.8826 3.7471C14.8826 3.75056 14.8826 3.75403 14.8826 3.75749C14.8826 3.76096 14.8826 3.76442 14.8826 3.76788C14.8826 3.77135 14.8826 3.77481 14.8826 3.77828C14.8826 3.78174 14.8826 3.7852 14.8826 3.78867C14.8826 3.79213 14.8826 3.7956 14.8826 3.79906C14.8826 3.80253 14.8826 3.80599 14.8826 3.80945C14.8826 3.81292 14.8826 3.81638 14.8826 3.81985C14.8826 3.82331 14.8826 3.82677 14.8826 3.83024C14.8826 3.8337 14.8826 3.83717 14.8826 3.84063C14.8826 3.84409 14.8826 3.84756 14.8826 3.85102C14.8826 3.85449 14.8826 3.85795 14.8826 3.86142C14.8826 3.86488 14.8826 3.86834 14.8826 3.87181C14.8826 3.87527 14.8826 3.87874 14.8826 3.8822C14.8826 3.88566 14.8826 3.88913 14.8826 3.89259C14.8826 3.89606 14.8826 3.89952 14.8826 3.90298C14.8826 3.90645 14.8826 3.90991 14.8826 3.91338C14.8826 3.91684 14.8826 3.9203 14.8826 3.92377C14.8826 3.92723 14.8826 3.9307 14.8826 3.93416C14.8826 3.93763 14.8826 3.94109 14.8826 3.94455C14.8826 3.94802 14.8826 3.95148 14.8826 3.95495C14.8826 3.95841 14.8826 3.96187 14.8826 3.96534C14.8826 3.9688 14.8826 3.97227 14.8826 3.97573C14.8826 3.97919 14.8826 3.98266 14.8826 3.98612C14.8826 3.98959 14.8826 3.99305 14.8826 3.99651C14.8826 3.99998 14.8826 4.00344 14.8826 4.00691C14.8826 4.01037 14.8826 4.01383 14.8826 4.0173C14.8826 4.02076 14.8826 4.02423 14.8826 4.02769C14.8826 4.03116 14.8826 4.03462 14.8826 4.03808C14.8826 4.04155 14.8826 4.04501 14.8826 4.04848C14.8826 4.05194 14.8826 4.0554 14.8826 4.05887C14.8826 4.06233 14.8826 4.0658 14.8826 4.06926C14.8826 4.07272 14.8826 4.07619 14.8826 4.07965C14.8826 4.08312 14.8826 4.08658 14.8826 4.09004C14.8826 4.09351 14.8826 4.09697 14.8826 4.10044C14.8826 4.1039 14.8826 4.10736 14.8826 4.11083C14.8826 4.11429 14.8826 4.11776 14.8826 4.12122C14.8826 4.12469 14.8826 4.12815 14.8826 4.13161C14.8826 4.13508 14.8826 4.13854 14.8826 4.14201C14.8826 4.14547 14.8826 4.14893 14.8826 4.1524C14.8826 4.15586 14.8826 4.15933 14.8826 4.16279C14.8826 4.16625 14.8826 4.16972 14.8826 4.17318C14.8826 4.17665 14.8826 4.18011 14.8826 4.18357C14.8826 4.18704 14.8826 4.1905 14.8826 4.19397C14.8826 4.19743 14.8826 4.20089 14.8826 4.20436C14.8826 4.20782 14.8826 4.21129 14.8826 4.21475C14.8826 4.21821 14.8826 4.22168 14.8826 4.22514C14.8826 4.22861 14.8826 4.23207 14.8826 4.23553C14.8826 4.239 14.8826 4.24246 14.8826 4.24593C14.8826 4.24939 14.8826 4.25285 14.8826 4.25632C14.8826 4.25978 14.8826 4.26325 14.8826 4.26671C14.8826 4.27017 14.8826 4.27364 14.8826 4.2771C14.8826 4.28057 14.8826 4.28403 14.8826 4.28749C14.8826 4.29096 14.8826 4.29442 14.8826 4.29789C14.8826 4.30135 14.8826 4.30482 14.8826 4.30828C14.8826 4.31174 14.8826 4.31521 14.8826 4.31867C14.8826 4.32214 14.8826 4.3256 14.8826 4.32906C14.8826 4.33253 14.8826 4.33599 14.8826 4.33946C14.8826 4.34292 14.8826 4.34638 14.8826 4.34985C14.8826 4.35331 14.8826 4.35678 14.8826 4.36024C14.8826 4.3637 14.8826 4.36717 14.8826 4.37063C14.8826 4.3741 14.8826 4.37756 14.8826 4.38102C14.8826 4.38449 14.8826 4.38795 14.8826 4.39142C14.8826 4.39488 14.8826 4.39834 14.8826 4.40181C14.8826 4.40527 14.8826 4.40874 14.8826 4.4122C14.8826 4.41566 14.8826 4.41913 14.8826 4.42259C14.8826 4.42606 14.8826 4.42952 14.8826 4.43298C14.8826 4.43645 14.8826 4.43991 14.8826 4.44338C14.8826 4.44684 14.8826 4.4503 14.8826 4.45377C14.8826 4.45723 14.8826 4.4607 14.8826 4.46416C14.8826 4.46762 14.8826 4.47109 14.8826 4.47455C14.8826 4.47802 14.8826 4.48148 14.8826 4.48494C14.8826 4.48841 14.8826 4.49187 14.8826 4.49534C14.8826 4.4988 14.8826 4.50226 14.8826 4.50573C14.8826 4.50919 14.8826 4.51266 14.8826 4.51612C14.8826 4.51958 14.8826 4.52305 14.8826 4.52651C14.8826 4.52997 14.8826 4.53344 14.8826 4.5369C14.8826 4.54037 14.8826 4.54383 14.8826 4.54729C14.8826 4.55076 14.8826 4.55422 14.8826 4.55769C14.8826 4.56115 14.8826 4.56461 14.8826 4.56808C14.8826 4.57154 14.8826 4.57501 14.8826 4.57847C14.8826 4.58193 14.8826 4.5854 14.8826 4.58886C14.8826 4.59233 14.8826 4.59579 14.8826 4.59925C14.8826 4.60272 14.8826 4.60618 14.8826 4.60965C14.8826 4.61311 14.8826 4.61657 14.8826 4.62004C14.8826 4.6235 14.8826 4.62697 14.8826 4.63043C14.8826 4.63389 14.8826 4.63736 14.8826 4.64082C14.8826 4.64429 14.8826 4.64775 14.8826 4.65121C14.8826 4.65468 14.8826 4.65814 14.8826 4.66161C14.8826 4.66507 14.8826 4.66853 14.8826 4.672C14.8826 4.67546 14.8826 4.67893 14.8826 4.68239C14.8826 4.68585 14.8826 4.68932 14.8826 4.69278C14.8826 4.69624 14.8826 4.69971 14.8826 4.70317C14.8826 4.70664 14.8826 4.7101 14.8826 4.71356C14.8826 4.71703 14.8826 4.72049 14.8826 4.72396C14.8826 4.72742 14.8826 4.73088 14.8826 4.73435C14.8826 4.73781 14.8826 4.74128 14.8826 4.74474C14.8826 4.7482 14.8826 4.75167 14.8826 4.75513C14.8826 4.7586 14.8826 4.76206 14.8826 4.76552C14.8826 4.76899 14.8826 4.77245 14.8826 4.77592C14.8826 4.77938 14.8826 4.78284 14.8826 4.78631C14.8826 4.78977 14.8826 4.79323 14.8826 4.7967C14.8826 4.80016 14.8826 4.80363 14.8826 4.80709C14.8826 4.81055 14.8826 4.81402 14.8826 4.81748C14.8826 4.82095 14.8826 4.82441 14.8826 4.82787C14.8826 4.83134 14.8826 4.8348 14.8826 4.83827C14.8826 4.84173 14.8826 4.84519 14.8826 4.84866C14.8826 4.85212 14.8826 4.85558 14.8826 4.85905C14.8826 4.86251 14.8826 4.86598 14.8826 4.86944C14.8826 4.8729 14.8826 4.87637 14.8826 4.87983C14.8826 4.8833 14.8826 4.88676 14.8826 4.89022C14.8826 4.89369 14.8826 4.89715 14.8826 4.90062C14.8826 4.90408 14.8826 4.90754 14.8826 4.91101C14.8826 4.91447 14.8826 4.91793 14.8826 4.9214C14.8826 4.92486 14.8826 4.92833 14.8826 4.93179C14.8826 4.93525 14.8826 4.93872 14.8826 4.94218C14.8826 4.94565 14.8826 4.94911 14.8826 4.95257C14.8826 4.95604 14.8826 4.9595 14.8826 4.96297C14.8826 4.96643 14.8826 4.96989 14.8826 4.97336C14.8826 4.97682 14.8826 4.98028 14.8826 4.98375C14.8826 4.98721 14.8826 4.99068 14.8826 4.99414C14.8826 4.9976 14.8826 5.00107 14.8826 5.00453C14.8826 5.008 14.8826 5.01146 14.8826 5.01492C14.8826 5.01839 14.8826 5.02185 14.8826 5.02531C14.8826 5.02878 14.8826 5.03224 14.8826 5.03571C14.8826 5.03917 14.8826 5.04263 14.8826 5.0461C14.8826 5.04956 14.8826 5.05303 14.8826 5.05649C14.8826 5.05995 14.8826 5.06342 14.8826 5.06688C14.8826 5.07034 14.8826 5.07381 14.8826 5.07727C14.8826 5.08074 14.8826 5.0842 14.8826 5.08766C14.8826 5.09113 14.8826 5.09459 14.8826 5.09805C14.8826 5.10152 14.8826 5.10498 14.8826 5.10845C14.8826 5.11191 14.8826 5.11537 14.8826 5.11884C14.8826 5.1223 14.8826 5.12577 14.8826 5.12923C14.8826 5.13269 14.8826 5.13616 14.8826 5.13962C14.8826 5.14308 14.8826 5.14655 14.8826 5.15001C14.8826 5.15348 14.8826 5.15694 14.8826 5.1604C14.8826 5.16387 14.8826 5.16733 14.8826 5.17079C14.8826 5.17426 14.8826 5.17772 14.8826 5.18119C14.8826 5.18465 14.8826 5.18811 14.8826 5.19158C14.8826 5.19504 14.8826 5.19851 14.8826 5.20197C14.8826 5.20543 14.8826 5.2089 14.8826 5.21236C14.8826 5.21582 14.8826 5.21929 14.8826 5.22275C14.8826 5.22622 14.8826 5.22968 14.8826 5.23314C14.8826 5.23661 14.8826 5.24007 14.8826 5.24353C14.8826 5.247 14.8826 5.25046 14.8826 5.25393C14.8826 5.25739 14.8826 5.26085 14.8826 5.26432C14.8826 5.26778 14.8826 5.27124 14.8826 5.27471C14.8826 5.27817 14.8826 5.28164 14.8826 5.2851C14.8826 5.28856 14.8826 5.29203 14.8826 5.29549C14.8826 5.29895 14.8826 5.30242 14.8826 5.30588C14.8826 5.30935 14.8826 5.31281 14.8826 5.31627C14.8826 5.31974 14.8826 5.3232 14.8826 5.32666C14.8826 5.33013 14.8826 5.33359 14.8826 5.33706C14.8826 5.34052 14.8826 5.34398 14.8826 5.34745C14.8826 5.35091 14.8826 5.35437 14.8826 5.35784C14.8826 5.3613 14.8826 5.36477 14.8826 5.36823C14.8826 5.37169 14.8826 5.37516 14.8826 5.37862C14.8826 5.38208 14.8826 5.38555 14.8826 5.38901C14.8826 5.39248 14.8826 5.39594 14.8826 5.3994C14.8826 5.40287 14.8826 5.40633 14.8826 5.40979C14.8826 5.41326 14.8826 5.41672 14.8826 5.42019C14.8826 5.42365 14.8826 5.42711 14.8826 5.43058C14.8826 5.43404 14.8826 5.4375 14.8826 5.44097C14.8826 5.44443 14.8826 5.4479 14.8826 5.45136C14.8826 5.45482 14.8826 5.45829 14.8826 5.46175C14.8826 5.46521 14.8826 5.46868 14.8826 5.47214C14.8826 5.47561 14.8826 5.47907 14.8826 5.48253C14.8826 5.486 14.8826 5.48946 14.8826 5.49292C14.8826 5.49639 14.8826 5.49985 14.8826 5.50331C14.8826 5.50678 14.8826 5.51024 14.8826 5.51371C14.8826 5.51717 14.8826 5.52063 14.8826 5.5241C14.8826 5.52756 14.8826 5.53102 14.8826 5.53449C14.8826 5.53795 14.8826 5.54142 14.8826 5.54488C14.8826 5.54834 14.8826 5.55181 14.8826 5.55527C14.8826 5.55873 14.8826 5.5622 14.8826 5.56566C14.8826 5.56912 14.8826 5.57259 14.8826 5.57605C14.8826 5.57952 14.8826 5.58298 14.8826 5.58644C14.8826 5.58991 14.8826 5.59337 14.8826 5.59683C14.8826 5.6003 14.8826 5.60376 14.8826 5.60722C14.8826 5.61069 14.8826 5.61415 14.8826 5.61762C14.8826 5.62108 14.8826 5.62454 14.8826 5.62801C14.8826 5.63147 14.8826 5.63493 14.8826 5.6384C14.8826 5.64186 14.8826 5.64532 14.8826 5.64879C14.8826 5.65225 14.8826 5.65572 14.8826 5.65918C14.8826 5.66264 14.8826 5.66611 14.8826 5.66957C14.8826 5.67303 14.8826 5.6765 14.8826 5.67996C14.8826 5.68342 14.8826 5.68689 14.8826 5.69035C14.8826 5.69382 14.8826 5.69728 14.8826 5.70074C14.8826 5.70421 14.8826 5.70767 14.8826 5.71113C14.8826 5.7146 14.8826 5.71806 14.8826 5.72152C14.8826 5.72499 14.8826 5.72845 14.8826 5.73192C14.8826 5.73538 14.8826 5.73884 14.8826 5.74231C14.8826 5.74577 14.8826 5.74923 14.8826 5.7527C14.8826 5.75616 14.8826 5.75962 14.8826 5.76309C14.8826 5.76655 14.8826 5.77001 14.8826 5.77348C14.8826 5.77694 14.8826 5.78041 14.8826 5.78387C14.8826 5.78733 14.8826 5.7908 14.8826 5.79426C14.8826 5.79772 14.8826 5.80119 14.8826 5.80465C14.8826 5.80811 14.8826 5.81158 14.8826 5.81504C14.8826 5.81851 14.8826 5.82197 14.8826 5.82543C14.8826 5.8289 14.8826 5.83236 14.8826 5.83582C14.8826 5.83929 14.8826 5.84275 14.8826 5.84621C14.8826 5.84968 14.8826 5.85314 14.8826 5.8566C14.8826 5.86007 14.8826 5.86353 14.8826 5.86699C14.8826 5.87046 14.8826 5.87392 14.8826 5.87739C14.8826 5.88085 14.8826 5.88431 14.8826 5.88778C14.8826 5.89124 14.8826 5.8947 14.8826 5.89817C14.8826 5.90163 14.8826 5.90509 14.8826 5.90856C14.8826 5.91202 14.8826 5.91548 14.8826 5.91895C14.8826 5.92241 14.8826 5.92588 14.8826 5.92934C14.8826 5.9328 14.8826 5.93627 14.8826 5.93973C14.8826 5.94319 14.8826 5.94666 14.8826 5.95012C14.8826 5.95358 14.8826 5.95705 14.8826 5.96051C14.8826 5.96397 14.8826 5.96744 14.8826 5.9709C14.8826 5.97436 14.8826 5.97783 14.8826 5.98129C14.8826 5.98476 14.8826 5.98822 14.8826 5.99168C14.8826 5.99515 14.8826 5.99861 14.8826 6.00207C14.8826 6.00554 14.8826 6.009 14.8826 6.01246C14.8826 6.01593 14.8826 6.01939 14.8826 6.02285C14.8826 6.02632 14.8826 6.02978 14.8826 6.03324C14.8826 6.03671 14.8826 6.04017 14.8826 6.04363C14.8826 6.0471 14.8826 6.05056 14.8826 6.05402C14.8826 6.05749 14.8826 6.06095 14.8826 6.06441C14.8826 6.06788 14.8826 6.07134 14.8826 6.07481C14.8826 6.07827 14.8826 6.08173 14.8826 6.0852C14.8826 6.08866 14.8826 6.09212 14.8826 6.09559C14.8826 6.09905 14.8826 6.10251 14.8826 6.10598C14.8826 6.10944 14.8826 6.1129 14.8826 6.11637C14.8826 6.11983 14.8826 6.12329 14.8826 6.12676C14.8826 6.13022 14.8826 6.13368 14.8826 6.13715C14.8826 6.14061 14.8826 6.14407 14.8826 6.14754C14.8826 6.151 14.8826 6.15446 14.8826 6.15793C14.8826 6.16139 14.8826 6.16486 14.8826 6.16832C14.8826 6.17178 14.8826 6.17525 14.8826 6.17871C14.8826 6.18217 14.8826 6.18564 14.8826 6.1891C14.8826 6.19256 14.8826 6.19603 14.8826 6.19949C14.8826 6.20295 14.8826 6.20642 14.8826 6.20988C14.8826 6.21334 14.8826 6.21681 14.8826 6.22027C14.8826 6.22373 14.8826 6.2272 14.8826 6.23066C14.8826 6.23412 14.8826 6.23759 14.8826 6.24105C14.8826 6.24451 14.8826 6.24798 14.8826 6.25144C14.8826 6.2549 14.8826 6.25837 14.8826 6.26183C14.8826 6.26529 14.8826 6.26876 14.8826 6.27222C14.8826 6.27568 14.8826 6.27915 14.8826 6.28261C14.8826 6.28607 14.8826 6.28954 14.8826 6.293C14.8826 6.29646 14.8826 6.29993 14.8826 6.30339C14.8826 6.30685 14.8826 6.31032 14.8826 6.31378C14.8826 6.31724 14.8826 6.32071 14.8826 6.32417C14.8826 6.32763 14.8826 6.3311 14.8826 6.33456C14.8826 6.33802 14.8826 6.34149 14.8826 6.34495C14.8826 6.34841 14.8826 6.35188 14.8826 6.35534C14.8826 6.3588 14.8826 6.36227 14.8826 6.36573C14.8826 6.36919 14.8826 6.37266 14.8826 6.37612C14.8826 6.37958 14.8826 6.38305 14.8826 6.38651C14.8826 6.38997 14.8826 6.39344 14.8826 6.3969C14.8826 6.40036 14.8826 6.40383 14.8826 6.40729C14.8826 6.41075 14.8826 6.41422 14.8826 6.41768C14.8826 6.42114 14.8826 6.42461 14.8826 6.42807C14.8826 6.43153 14.8826 6.435 14.8826 6.43846C14.8826 6.44192 14.8826 6.44539 14.8826 6.44885C14.8826 6.45231 14.8826 6.45578 14.8826 6.45924C14.8826 6.4627 14.8826 6.46617 14.8826 6.46963C14.8826 6.47309 14.8826 6.47656 14.8826 6.48002C14.8826 6.48348 14.8826 6.48695 14.8826 6.49041C14.8826 6.49387 14.8826 6.49734 14.8826 6.5008C14.8826 6.50426 14.8826 6.50773 14.8826 6.51119C14.8826 6.51465 14.8826 6.51812 14.8826 6.52158C14.8826 6.52504 14.8826 6.52851 14.8826 6.53197C14.8826 6.53543 14.8826 6.5389 14.8826 6.54236C14.8826 6.54582 14.8826 6.54929 14.8826 6.55275C14.8826 6.55621 14.8826 6.55968 14.8826 6.56314C14.8826 6.5666 14.8826 6.57007 14.8826 6.57353C14.8826 6.57699 14.8826 6.58045 14.8826 6.58392C14.8826 6.58738 14.8826 6.59084 14.8826 6.59431C14.8826 6.59777 14.8826 6.60123 14.8826 6.6047C14.8826 6.60816 14.8826 6.61162 14.8826 6.61509C14.8826 6.61855 14.8826 6.62201 14.8826 6.62548C14.8826 6.62894 14.8826 6.6324 14.8826 6.63587C14.8826 6.63933 14.8826 6.64279 14.8826 6.64626C14.8826 6.64972 14.8826 6.65318 14.8826 6.65665C14.8826 6.66011 14.8826 6.66357 14.8826 6.66703C14.8826 6.6705 14.8826 6.67396 14.8826 6.67742C14.8826 6.68089 14.8826 6.68435 14.8826 6.68781C14.8826 6.69128 14.8826 6.69474 14.8826 6.6982C14.8826 6.70167 14.8826 6.70513 14.8826 6.70859C14.8826 6.71206 14.8826 6.71552 14.8826 6.71898C14.8826 6.72245 14.8826 6.72591 14.8826 6.72937C14.8826 6.73283 14.8826 6.7363 14.8826 6.73976C14.8826 6.74322 14.8826 6.74669 14.8826 6.75015C14.8826 6.75361 14.8826 6.75708 14.8826 6.76054C14.8826 6.764 14.8826 6.76747 14.8826 6.77093C14.8826 6.77439 14.8826 6.77786 14.8826 6.78132C14.8826 6.78478 14.8826 6.78825 14.8826 6.79171C14.8826 6.79517 14.8826 6.79863 14.8826 6.8021C14.8826 6.80556 14.8826 6.80902 14.8826 6.81249C14.8826 6.81595 14.8826 6.81941 14.8826 6.82288C14.8826 6.82634 14.8826 6.8298 14.8826 6.83327C14.8826 6.83673 14.8826 6.84019 14.8826 6.84366C14.8826 6.84712 14.8826 6.85058 14.8826 6.85404C14.8826 6.85751 14.8826 6.86097 14.8826 6.86443C14.8826 6.8679 14.8826 6.87136 14.8826 6.87482C14.8826 6.87829 14.8826 6.88175 14.8826 6.88521C14.8826 6.88868 14.8826 6.89214 14.8826 6.8956C14.8826 6.89906 14.8826 6.90253 14.8826 6.90599C14.8826 6.90945 14.8826 6.91292 14.8826 6.91638C14.8826 6.91984 14.8826 6.92331 14.8826 6.92677C14.8826 6.93023 14.8826 6.93369 14.8826 6.93716C14.8826 6.94062 14.8826 6.94408 14.8826 6.94755C14.8826 6.95101 14.8826 6.95447 14.8826 6.95794C14.8826 6.9614 14.8826 6.96486 14.8826 6.96833C14.8826 6.97179 14.8826 6.97525 14.8826 6.97871C14.8826 6.98218 14.8826 6.98564 14.8826 6.9891C14.8826 6.99257 14.8826 6.99603 14.8826 6.99949C14.8826 7.00296 14.8826 7.00642 14.8826 7.00988C14.8826 7.01334 14.8826 7.01681 14.8826 7.02027C14.8826 7.02373 14.8826 7.0272 14.8826 7.03066C14.8826 7.03412 14.8826 7.03759 14.8826 7.04105C14.8826 7.04451 14.8826 7.04797 14.8826 7.05144C14.8826 7.0549 14.8826 7.05836 14.8826 7.06183C14.8826 7.06529 14.8826 7.06875 14.8826 7.07222C14.8826 7.07568 14.8826 7.07914 14.8826 7.0826C14.8826 7.08607 14.8826 7.08953 14.8826 7.09299C14.8826 7.09646 14.8826 7.09992 14.8826 7.10338C14.8826 7.10684 14.8826 7.11031 14.8826 7.11377C14.8826 7.11723 14.8826 7.1207 14.8826 7.12416C14.8826 7.12762 14.8826 7.13109 14.8826 7.13455C14.8826 7.13801 14.8826 7.14147 14.8826 7.14494C14.8826 7.1484 14.8826 7.15186 14.8826 7.15533C14.8826 7.15879 14.8826 7.16225 14.8826 7.16571C14.8826 7.16918 14.8826 7.17264 14.8826 7.1761C14.8826 7.17957 14.8826 7.18303 14.8826 7.18649C14.8826 7.18995 14.8826 7.19342 14.8826 7.19688C14.8826 7.20034 14.8826 7.20381 14.8826 7.20727C14.8826 7.21073 14.8826 7.2142 14.8826 7.21766C14.8826 7.22112 14.8826 7.22458 14.8826 7.22805C14.8826 7.23151 14.8826 7.23497 14.8826 7.23844C14.8826 7.2419 14.8826 7.24536 14.8826 7.24882C14.8826 7.25229 14.8826 7.25575 14.8826 7.25921C14.8826 7.26268 14.8826 7.26614 14.8826 7.2696C14.8826 7.27306 14.8826 7.27653 14.8826 7.27999C14.8826 7.28345 14.8826 7.28692 14.8826 7.29038C14.8826 7.29384 14.8826 7.2973 14.8826 7.30077C14.8826 7.30423 14.8826 7.30769 14.8826 7.31116C14.8826 7.31462 14.8826 7.31808 14.8826 7.32154C14.8826 7.32501 14.8826 7.32847 14.8826 7.33193C14.8826 7.3354 14.8826 7.33886 14.8826 7.34232C14.8826 7.34578 14.8826 7.34925 14.8826 7.35271C14.8826 7.35617 14.8826 7.35963 14.8826 7.3631C14.8826 7.36656 14.8826 7.37002 14.8826 7.37349C14.8826 7.37695 14.8826 7.38041 14.8826 7.38387C14.8826 7.38734 14.8826 7.3908 14.8826 7.39426C14.8826 7.39773 14.8826 7.40119 14.8826 7.40465C14.8826 7.40811 14.8826 7.41158 14.8826 7.41504C14.8826 7.4185 14.8826 7.42197 14.8826 7.42543C14.8826 7.42889 14.8826 7.43235 14.8826 7.43582C14.8826 7.43928 14.8826 7.44274 14.8826 7.4462C14.8826 7.44967 14.8826 7.45313 14.8826 7.45659C14.8826 7.46006 14.8826 7.46352 14.8826 7.46698C14.8826 7.47044 14.8826 7.47391 14.8826 7.47737C14.8826 7.48083 14.8826 7.48429 14.8826 7.48776C14.8826 7.49122 14.8826 7.49468 14.8826 7.49815C14.8826 7.50161 14.8826 7.50507 14.8826 7.50853C14.8826 7.512 14.8826 7.51546 14.8826 7.51892C14.8826 7.52238 14.8826 7.52585 14.8826 7.52931C14.8826 7.53277 14.8826 7.53623 14.8826 7.5397C14.8826 7.54316 14.8826 7.54662 14.8826 7.55009C14.8826 7.55355 14.8826 7.55701 14.8826 7.56047C14.8826 7.56394 14.8826 7.5674 14.8826 7.57086C14.8826 7.57432 14.8826 7.57779 14.8826 7.58125C14.8826 7.58471 14.8826 7.58818 14.8826 7.59164C14.8826 7.5951 14.8826 7.59856 14.8826 7.60203C14.8826 7.60549 14.8826 7.60895 14.8826 7.61241C14.8826 7.61588 14.8826 7.61934 14.8826 7.6228C14.8826 7.62626 14.8826 7.62973 14.8826 7.63319C14.8826 7.63665 14.8826 7.64011 14.8826 7.64358C14.8826 7.64704 14.8826 7.6505 14.8826 7.65397C14.8826 7.65743 14.8826 7.66089 14.8826 7.66435C14.8826 7.66782 14.8826 7.67128 14.8826 7.67474C14.8826 7.6782 14.8826 7.68167 14.8826 7.68513C14.8826 7.68859 14.8826 7.69205 14.8826 7.69552C14.8826 7.69898 14.8826 7.70244 14.8826 7.7059C14.8826 7.70937 14.8826 7.71283 14.8826 7.71629C14.8826 7.71975 14.8826 7.72322 14.8826 7.72668C14.8826 7.73014 14.8826 7.73361 14.8826 7.73707C14.8826 7.74053 14.8826 7.74399 14.8826 7.74746C14.8826 7.75092 14.8826 7.75438 14.8826 7.75784C14.8826 7.76131 14.8826 7.76477 14.8826 7.76823C14.8826 7.77169 14.8826 7.77516 14.8826 7.77862C14.8826 7.78208 14.8826 7.78554 14.8826 7.78901C14.8826 7.79247 14.8826 7.79593 14.8826 7.79939C14.8826 7.80286 14.8826 7.80632 14.8826 7.80978C14.8826 7.81324 14.8826 7.81671 14.8826 7.82017C14.8826 7.82363 14.8826 7.82709 14.8826 7.83056C14.8826 7.83402 14.8826 7.83748 14.8826 7.84094C14.8826 7.84441 14.8826 7.84787 14.8826 7.85133C14.8826 7.85479 14.8826 7.85826 14.8826 7.86172C14.8826 7.86518 14.8826 7.86864 14.8826 7.87211C14.8826 7.87557 14.8826 7.87903 14.8826 7.88249C14.8826 7.88596 14.8826 7.88942 14.8826 7.89288C14.8826 7.89634 14.8826 7.89981 14.8826 7.90327C14.8826 7.90673 14.8826 7.91019 14.8826 7.91366C14.8826 7.91712 14.8826 7.92058 14.8826 7.92404C14.8826 7.92751 14.8826 7.93097 14.8826 7.93443C14.8826 7.93789 14.8826 7.94136 14.8826 7.94482C14.8826 7.94828 14.8826 7.95174 14.8826 7.9552C14.8826 7.95867 14.8826 7.96213 14.8826 7.96559C14.8826 7.96905 14.8826 7.97252 14.8826 7.97598C14.8826 7.97944 14.8826 7.9829 14.8826 7.98637C14.8826 7.98983 14.8826 7.99329 14.8826 7.99675C14.8826 8.00022 14.8826 8.00368 14.8826 8.00714C14.8826 8.0106 14.8826 8.01407 14.8826 8.01753C14.8826 8.02099 14.8826 8.02445 14.8826 8.02792C14.8826 8.03138 14.8826 8.03484 14.8826 8.0383C14.8826 8.04176 14.8826 8.04523 14.8826 8.04869C14.8826 8.05215 14.8826 8.05561 14.8826 8.05908C14.8826 8.06254 14.8826 8.066 14.8826 8.06946C14.8826 8.07293 14.8826 8.07639 14.8826 8.07985C14.8826 8.08331 14.8826 8.08678 14.8826 8.09024H15.0326ZM15.0326 2.77014C15.0321 2.26665 14.871 1.84623 14.5783 1.55144C14.2854 1.2566 13.8677 1.09438 13.3672 1.09438V1.24438C13.8347 1.24438 14.2117 1.39524 14.4718 1.65715C14.732 1.91911 14.8821 2.29911 14.8826 2.77028L15.0326 2.77014ZM13.3672 1.09438C9.82741 1.09344 6.28763 1.09344 2.74879 1.09533L2.74887 1.24533C6.28766 1.24344 9.82739 1.24344 13.3671 1.24438L13.3672 1.09438ZM2.74883 1.09533C2.62681 1.09533 2.4951 1.09607 2.36695 1.12129L2.39592 1.26847C2.50766 1.24647 2.62529 1.24533 2.74883 1.24533V1.09533ZM2.36696 1.12129C1.58535 1.27504 1.08528 1.90747 1.08528 2.73621H1.23528C1.23528 1.97451 1.68909 1.4075 2.39591 1.26847L2.36696 1.12129ZM1.08528 2.73617C1.08339 6.29485 1.08433 9.85353 1.08528 13.4122L1.23528 13.4121C1.23433 9.85348 1.23339 6.29486 1.23528 2.73625L1.08528 2.73617ZM1.08528 13.4122C1.08528 13.9069 1.24891 14.3228 1.54264 14.6152C1.83633 14.9075 2.2538 15.07 2.74977 15.07V14.92C2.28713 14.92 1.90985 14.769 1.64845 14.5089C1.38709 14.2487 1.23528 13.8732 1.23528 13.4122H1.08528ZM2.74975 15.07C6.28952 15.071 9.82835 15.071 13.3681 15.07L13.3681 14.92C9.82834 14.921 6.28954 14.921 2.74979 14.92L2.74975 15.07ZM13.3681 15.07C13.4906 15.07 13.623 15.0683 13.7501 15.0431L13.7209 14.896C13.61 14.918 13.4912 14.92 13.3681 14.92V15.07ZM13.75 15.0431C14.5272 14.8895 15.0297 14.2624 15.0317 13.4463L14.8817 13.446C14.8798 14.1939 14.4247 14.7568 13.7209 14.896L13.75 15.0431ZM15.0317 13.4463C15.0345 11.6612 15.0326 9.87607 15.0326 8.09024H14.8826C14.8826 9.87628 14.8845 11.6611 14.8817 13.446L15.0317 13.4463ZM0.634614 8.07418C0.634614 6.28336 0.63178 4.49198 0.635558 2.70142L0.485558 2.70111C0.48178 4.49187 0.484614 6.28369 0.484614 8.07418H0.634614ZM0.635558 2.7014C0.637383 1.67016 1.30222 0.868805 2.31263 0.672565L2.28403 0.525316C1.20345 0.735185 0.487511 1.59794 0.485558 2.70113L0.635558 2.7014ZM2.312 0.672683C2.44739 0.647579 2.5898 0.643718 2.7356 0.643718V0.493718C2.58863 0.493718 2.43449 0.497413 2.28465 0.525198L2.312 0.672683ZM2.73562 0.643718C6.28672 0.642774 9.83779 0.64183 13.3879 0.642774L13.388 0.492774C9.83779 0.49183 6.28667 0.492774 2.73558 0.493718L2.73562 0.643718ZM13.3879 0.642774C14.6068 0.643688 15.4805 1.51062 15.4814 2.72588L15.6314 2.72576C15.6304 1.42692 14.6888 0.493749 13.388 0.492774L13.3879 0.642774ZM15.4814 2.72588C15.4842 6.29582 15.4842 9.86576 15.4814 13.4367L15.6314 13.4368C15.6342 9.8658 15.6342 6.29578 15.6314 2.72576L15.4814 2.72588ZM15.4814 13.4367C15.4814 14.4986 14.804 15.3149 13.78 15.4973L13.8063 15.645C14.9035 15.4496 15.6314 14.5697 15.6314 13.4367H15.4814ZM13.7798 15.4973C13.6561 15.5196 13.5256 15.5207 13.3908 15.5207V15.6707C13.5242 15.6707 13.6676 15.6699 13.8064 15.645L13.7798 15.4973ZM13.3907 15.5207C9.83304 15.5226 6.27631 15.5235 2.71959 15.5216L2.71951 15.6716C6.27631 15.6735 9.8331 15.6726 13.3908 15.6707L13.3907 15.5207ZM2.71961 15.5216C1.65956 15.5207 0.845015 14.8461 0.659866 13.8201L0.51225 13.8467C0.710544 14.9456 1.58843 15.6707 2.71948 15.6716L2.71961 15.5216ZM0.659817 13.8198C0.634853 13.6843 0.635558 13.5423 0.635558 13.3942H0.485558C0.485558 13.5389 0.484374 13.6954 0.512299 13.847L0.659817 13.8198ZM0.635558 13.3941C0.633669 11.6205 0.634614 9.84789 0.634614 8.07418H0.484614C0.484614 9.84779 0.483669 11.6206 0.485558 13.3943L0.635558 13.3941Z" fill="white"/>
<path fill-rule="evenodd" clip-rule="evenodd" d="M2.29076 3.36256C2.29171 3.94055 2.76771 4.41466 3.34287 4.41277C3.91709 4.40994 4.39403 3.92827 4.3912 3.355C4.38742 2.77795 3.91048 2.30384 3.33532 2.30573C2.75826 2.30762 2.28982 2.78172 2.29076 3.36256ZM8.05751 12.9713C10.4998 12.9732 12.4888 10.9823 12.5002 8.52392C12.5115 6.06743 10.5168 4.06333 8.0594 4.06239C5.60953 4.06239 3.6262 6.04476 3.61676 8.50409C3.60731 10.9596 5.60575 12.9694 8.05751 12.9713ZM14.9576 8.09042C14.9576 9.87541 14.9595 11.6613 14.9566 13.4463C14.9548 14.2283 14.4759 14.8233 13.7355 14.9697C13.6165 14.9924 13.4909 14.9943 13.3681 14.9943C9.82834 14.9962 6.28952 14.9962 2.74976 14.9952C1.79116 14.9952 1.16027 14.3681 1.16027 13.4123C1.15933 9.85369 1.15838 6.2941 1.16027 2.73545C1.16027 1.94117 1.63721 1.34145 2.38143 1.19507C2.50137 1.17145 2.62604 1.17051 2.74882 1.17051C6.28763 1.16862 9.8274 1.16862 13.3681 1.16957C14.3352 1.16957 14.9566 1.79573 14.9576 2.77039C14.9585 4.5431 14.9576 6.31676 14.9576 8.09042Z" fill="white"/>
<path fill-rule="evenodd" clip-rule="evenodd" d="M8.0556 12.3688C10.174 12.3717 11.8995 10.6396 11.8995 8.5127C11.8995 6.39054 10.1872 4.66883 8.07071 4.66222C5.94572 4.65655 4.22117 6.37732 4.2174 8.50609C4.21362 10.6339 5.93533 12.366 8.0556 12.3688ZM8.05749 12.9714C5.60572 12.9695 3.60729 10.9588 3.61673 8.5042C3.62618 6.04394 5.6095 4.06156 8.05938 4.0625C10.5168 4.06344 12.5115 6.06755 12.5001 8.52403C12.4888 10.9815 10.4998 12.9723 8.05749 12.9714Z" fill="black"/>
<path fill-rule="evenodd" clip-rule="evenodd" d="M3.78747 3.36155C3.78841 3.11883 3.58724 2.912 3.34547 2.90822C3.10369 2.90444 2.89591 3.10561 2.89025 3.34833C2.88364 3.59766 3.0933 3.81205 3.34075 3.8111C3.58252 3.80921 3.78652 3.60427 3.78747 3.36155ZM2.29053 3.36249C2.28958 2.78166 2.75803 2.30755 3.33508 2.30567C3.91024 2.30472 4.38719 2.77789 4.39096 3.35494C4.3938 3.92916 3.91685 4.41082 3.34263 4.41271C2.76747 4.41554 2.29242 3.94049 2.29053 3.36249Z" fill="black"/>
<path fill-rule="evenodd" clip-rule="evenodd" d="M10.7755 8.52208C10.7802 7.02514 9.57415 5.79832 8.08761 5.79076C6.56989 5.78321 5.35156 6.98453 5.34117 8.49847C5.33173 10.0077 6.55006 11.2392 8.0555 11.2421C9.55149 11.2449 10.7708 10.0266 10.7755 8.52208ZM8.0555 12.3697C5.93523 12.366 4.21351 10.6338 4.21729 8.50697C4.22107 6.3782 5.94562 4.65743 8.07061 4.6631C10.1871 4.66877 11.8994 6.39142 11.8994 8.51358C11.8994 10.6405 10.1739 12.3726 8.0555 12.3697Z" fill="white"/>
<path fill-rule="evenodd" clip-rule="evenodd" d="M3.7876 3.36085C3.78666 3.60357 3.58266 3.80852 3.34088 3.81041C3.09344 3.81135 2.88377 3.59696 2.89038 3.34763C2.89605 3.10491 3.10383 2.90374 3.3456 2.90752C3.58738 2.9113 3.78855 3.11813 3.7876 3.36085Z" fill="white"/>
<path fill-rule="evenodd" clip-rule="evenodd" d="M10.1755 8.52044C10.1783 7.35123 9.23386 6.39451 8.07314 6.39073C6.89542 6.3879 5.94437 7.33328 5.94154 8.50816C5.93965 9.68494 6.8907 10.6417 8.06086 10.6398C9.2263 10.6369 10.1726 9.68871 10.1755 8.52044ZM10.7752 8.52139C10.7705 10.0259 9.55119 11.2452 8.0552 11.2423C6.54976 11.2395 5.33143 10.007 5.34087 8.49778C5.35126 6.98384 6.56959 5.78346 8.08825 5.79007C9.57385 5.79762 10.7808 7.02445 10.7752 8.52139Z" fill="black"/>
<path fill-rule="evenodd" clip-rule="evenodd" d="M10.1753 8.52034C10.1725 9.68862 9.22617 10.6368 8.06073 10.6397C6.89057 10.6416 5.93952 9.68484 5.94141 8.50807C5.94424 7.33318 6.89529 6.3878 8.07301 6.39063C9.23373 6.39441 10.1782 7.35113 10.1753 8.52034Z" fill="white"/>
</svg>
