<svg width="24" height="25" viewBox="0 0 24 25" fill="none" xmlns="http://www.w3.org/2000/svg">
<path fill-rule="evenodd" clip-rule="evenodd" d="M8.20415 10.1195L8.18684 10.1667H7.97526C5.85336 10.1667 3.73147 10.1667 1.60957 10.1667C1.54889 10.1667 1.48803 10.164 1.42774 10.1686C1.18982 10.1867 1.03113 10.3462 1.03322 10.5619C1.03527 10.7776 1.19453 10.9324 1.43445 10.949C1.49483 10.9532 1.55565 10.9506 1.61628 10.9506C3.73822 10.9506 5.86017 10.9506 7.98212 10.9506H8.23079C8.15485 11.0324 8.11255 11.0808 8.06724 11.1263C7.34301 11.8525 6.61819 12.5781 5.8943 13.3045C5.8431 13.3559 5.79031 13.4082 5.75112 13.4685C5.65248 13.6205 5.67514 13.8077 5.79964 13.9372C5.92425 14.0667 6.1122 14.0983 6.26572 14.0062C6.32713 13.9694 6.38046 13.917 6.4317 13.8658C7.43232 12.8668 8.43215 11.867 9.4318 10.8671C9.63146 10.6674 9.62782 10.4458 9.42728 10.2459C8.65822 9.47875 7.89004 8.71086 7.12166 7.94306C6.87698 7.69857 6.63239 7.45394 6.38867 7.20852C6.27452 7.09355 6.14389 7.0284 5.97942 7.07347C5.68058 7.15539 5.59409 7.50377 5.82283 7.73936C6.19052 8.11823 6.56685 8.48863 6.94052 8.86162C7.36119 9.28147 7.78289 9.70024 8.20415 10.1195Z" fill="white"/>
<path d="M8.20415 10.1195L8.18684 10.1667H7.97526C5.85336 10.1667 3.73147 10.1667 1.60957 10.1667C1.54889 10.1667 1.48803 10.164 1.42774 10.1686C1.18982 10.1867 1.03113 10.3462 1.03322 10.5619C1.03527 10.7776 1.19453 10.9324 1.43445 10.949C1.49483 10.9532 1.55565 10.9506 1.61628 10.9506C3.73822 10.9506 5.86017 10.9506 7.98212 10.9506H8.23079C8.15485 11.0324 8.11255 11.0808 8.06724 11.1263C7.34301 11.8525 6.61819 12.5781 5.8943 13.3045C5.8431 13.3559 5.79031 13.4082 5.75112 13.4685C5.65248 13.6205 5.67514 13.8077 5.79964 13.9372C5.92425 14.0667 6.1122 14.0983 6.26572 14.0062C6.32713 13.9694 6.38046 13.917 6.4317 13.8658C7.43232 12.8668 8.43215 11.867 9.4318 10.8671C9.63147 10.6674 9.62782 10.4458 9.42728 10.2459C8.65822 9.47875 7.89004 8.71086 7.12166 7.94306C6.87697 7.69857 6.63239 7.45394 6.38867 7.20852C6.27452 7.09355 6.14389 7.0284 5.97942 7.07347C5.68058 7.15539 5.59409 7.50377 5.82283 7.73936C6.19052 8.11823 6.56685 8.48863 6.94052 8.86162C7.36119 9.28147 7.78289 9.70024 8.20415 10.1195" stroke="white" stroke-width="0.05"/>
<mask id="mask0_12_3094" style="mask-type:alpha" maskUnits="userSpaceOnUse" x="7" y="0" width="17" height="25">
<path fill-rule="evenodd" clip-rule="evenodd" d="M7.03125 0.0283203H23.0322V24.077H7.03125V0.0283203Z" fill="white"/>
</mask>
<g mask="url(#mask0_12_3094)">
<rect x="16.0312" y="11.0283" width="1" height="4" rx="0.5" fill="white"/>
<path fill-rule="evenodd" clip-rule="evenodd" d="M14.0316 13.0651C14.0316 16.023 14.0465 18.9811 14.0209 21.9388C14.0146 22.6653 14.6312 23.2798 15.4739 22.9867C17.3812 22.3229 19.3031 21.7011 21.2187 21.0612C21.7969 20.8681 22.0356 20.5381 22.0357 19.9258C22.0363 14.002 22.0366 8.07836 22.0354 2.15469C22.0352 1.30027 21.4089 0.852425 20.6007 1.12253C18.693 1.76026 16.7852 2.39793 14.8775 3.03622C14.2444 3.24809 14.0316 3.54519 14.0316 4.21479C14.0315 7.16489 14.0316 10.115 14.0316 13.0651ZM14.7348 24.077C14.4325 23.9407 14.1019 23.8454 13.8339 23.6595C13.3245 23.3061 13.0629 22.7869 13.0419 22.1615C13.0301 21.8107 13.0398 21.4592 13.0398 21.0709H12.7747C11.728 21.0709 10.6812 21.0722 9.63449 21.0705C8.12112 21.0681 7.0477 20.0049 7.03586 18.4948C7.0311 17.8843 7.03354 17.2738 7.03561 16.6633C7.03686 16.2885 7.23489 16.0546 7.53913 16.0602C7.84412 16.0659 8.03018 16.2982 8.03087 16.6783C8.03188 17.2889 8.02887 17.8994 8.03169 18.5098C8.03576 19.3888 8.64054 20.0483 9.5103 20.0654C10.6503 20.0879 11.7911 20.0708 12.9316 20.0701C12.9538 20.07 12.9761 20.06 13.0354 20.0459V19.7581C13.0354 14.5923 13.0354 9.42653 13.0354 4.26082C13.0355 3.08688 13.4941 2.4464 14.5993 2.0754C15.5529 1.75532 16.5065 1.43517 17.4601 1.11496C17.4957 1.103 17.531 1.08991 17.5677 1.04212C17.5146 1.03692 17.4615 1.02709 17.4083 1.02709C14.8149 1.02634 12.2214 1.02452 9.62798 1.02747C8.66127 1.02859 8.03325 1.66582 8.03131 2.6351C8.03006 3.2613 8.03388 3.88744 8.02906 4.51358C8.02712 4.76816 7.89447 4.94414 7.67747 5.01103C7.46698 5.07591 7.23495 5.00439 7.1246 4.81557C7.07218 4.72595 7.04049 4.61059 7.03949 4.50657C7.03304 3.82569 7.02384 3.14438 7.04143 2.46394C7.0725 1.25906 7.91076 0.294359 9.09766 0.0697792C9.13411 0.0628903 9.16799 0.0424113 9.20306 0.0283203H21.3446C21.4309 0.0573165 21.5169 0.0875026 21.6037 0.115184C22.2729 0.328866 22.7147 0.773077 22.9395 1.4373C22.9712 1.53099 23.0014 1.62524 23.0322 1.71924V20.3664C23.0203 20.3859 23.0017 20.4042 22.9973 20.4253C22.8315 21.2247 22.3476 21.7368 21.5838 21.9935C20.8608 22.2365 20.1364 22.4753 19.413 22.7169C18.0567 23.1699 16.7004 23.6236 15.3442 24.077H14.7348Z" fill="white"/>
<path d="M14.0209 21.9388L14.0459 21.939L14.0209 21.9388ZM15.4739 22.9867L15.4821 23.0103L15.4821 23.0103L15.4739 22.9867ZM21.2187 21.0612L21.2108 21.0375H21.2108L21.2187 21.0612ZM22.0357 19.9258L22.0107 19.9258L22.0357 19.9258ZM22.0354 2.15469L22.0604 2.15468V2.15468L22.0354 2.15469ZM20.6007 1.12253L20.5928 1.09882L20.5928 1.09882L20.6007 1.12253ZM14.8775 3.03622L14.8696 3.01251H14.8696L14.8775 3.03622ZM14.0316 4.21479L14.0566 4.21479V4.21479H14.0316ZM14.7348 24.077L14.7235 24.102H14.7348V24.077ZM13.8339 23.6595L13.8196 23.68L13.8196 23.68L13.8339 23.6595ZM13.0419 22.1615L13.0669 22.1606V22.1606L13.0419 22.1615ZM13.0398 21.0709H13.0648V21.0459H13.0398V21.0709ZM9.63449 21.0705L9.63453 21.0455H9.63453L9.63449 21.0705ZM7.03586 18.4948L7.01086 18.495L7.01086 18.495L7.03586 18.4948ZM7.03561 16.6633L7.06061 16.6634H7.06061L7.03561 16.6633ZM7.53913 16.0602L7.5396 16.0352H7.53959L7.53913 16.0602ZM8.03087 16.6783L8.05587 16.6783V16.6783L8.03087 16.6783ZM8.03169 18.5098L8.00669 18.51L8.03169 18.5098ZM9.5103 20.0654L9.5108 20.0404H9.5108L9.5103 20.0654ZM12.9316 20.0701L12.9316 20.0951H12.9317L12.9316 20.0701ZM13.0354 20.0459L13.0412 20.0702L13.0604 20.0656V20.0459H13.0354ZM13.0354 4.26082L13.0104 4.26082V4.26082L13.0354 4.26082ZM14.5993 2.0754L14.5913 2.0517L14.5913 2.0517L14.5993 2.0754ZM17.4601 1.11496L17.4681 1.13866L17.4681 1.13865L17.4601 1.11496ZM17.5677 1.04212L17.5875 1.05735L17.6149 1.02163L17.5701 1.01724L17.5677 1.04212ZM17.4083 1.02709L17.4083 1.05209H17.4083V1.02709ZM9.62798 1.02747L9.62795 1.00247H9.62795L9.62798 1.02747ZM8.03131 2.6351L8.00631 2.63505L8.03131 2.6351ZM8.02906 4.51358L8.00406 4.51339V4.51339L8.02906 4.51358ZM7.67747 5.01103L7.67011 4.98714H7.67011L7.67747 5.01103ZM7.1246 4.81557L7.14619 4.80296L7.14618 4.80295L7.1246 4.81557ZM7.03949 4.50657L7.01449 4.50681L7.01449 4.50681L7.03949 4.50657ZM7.04143 2.46394L7.06643 2.46458L7.06643 2.46458L7.04143 2.46394ZM9.09766 0.0697792L9.09301 0.0452141L9.09301 0.0452151L9.09766 0.0697792ZM9.20306 0.0283203V0.00137788L9.19374 0.00512271L9.20306 0.0283203ZM21.3446 0.0283203L21.353 0.00332031H21.3446V0.0283203ZM21.6037 0.115184L21.6113 0.0913683L21.6113 0.0913654L21.6037 0.115184ZM22.9395 1.4373L22.9632 1.42929L22.9632 1.42928L22.9395 1.4373ZM23.0322 1.71924H23.0585L23.056 1.71146L23.0322 1.71924ZM23.0322 20.3664L23.0572 20.3817V20.3664H23.0322ZM22.9973 20.4253L23.0218 20.4304L23.0218 20.4304L22.9973 20.4253ZM21.5838 21.9935L21.5758 21.9698H21.5758L21.5838 21.9935ZM19.413 22.7169L19.421 22.7406H19.421L19.413 22.7169ZM15.3442 24.077V24.1033L15.3521 24.1007L15.3442 24.077ZM14.0066 13.0651C14.0066 16.0232 14.0215 18.981 13.9959 21.9386L14.0459 21.939C14.0715 18.9812 14.0566 16.0228 14.0566 13.0651H14.0066ZM13.9959 21.9386C13.9927 22.3088 14.1482 22.6516 14.4134 22.8646C14.6792 23.0781 15.0532 23.1595 15.4821 23.0103L15.4657 22.963C15.0519 23.107 14.6962 23.0277 14.4447 22.8256C14.1925 22.623 14.0428 22.2953 14.0459 21.939L13.9959 21.9386ZM15.4821 23.0103C17.3893 22.3466 19.3107 21.7249 21.2267 21.0849L21.2108 21.0375C19.2954 21.6772 17.3732 22.2992 15.4657 22.963L15.4821 23.0103ZM21.2267 21.0849C21.5187 20.9874 21.7282 20.8542 21.8643 20.6653C22.0003 20.4764 22.0606 20.235 22.0607 19.9258L22.0107 19.9258C22.0106 20.2288 21.9515 20.4586 21.8237 20.6361C21.6959 20.8136 21.497 20.9419 21.2108 21.0375L21.2267 21.0849ZM22.0607 19.9258C22.0613 14.002 22.0616 8.07836 22.0604 2.15468L22.0104 2.15469C22.0116 8.07836 22.0113 14.002 22.0107 19.9258L22.0607 19.9258ZM22.0604 2.15468C22.0603 1.72137 21.9012 1.38733 21.6356 1.19661C21.3701 1.00589 21.0027 0.961844 20.5928 1.09882L20.6087 1.14625C21.007 1.01312 21.3568 1.05794 21.6065 1.23722C21.8561 1.41649 22.0103 1.73358 22.0104 2.15469L22.0604 2.15468ZM20.5928 1.09882C18.685 1.73655 16.7772 2.37422 14.8696 3.01251L14.8855 3.05993C16.7931 2.42164 18.7009 1.78397 20.6087 1.14624L20.5928 1.09882ZM14.8696 3.01251C14.5509 3.11915 14.3336 3.24862 14.1968 3.43928C14.0601 3.62992 14.0066 3.8778 14.0066 4.21479H14.0566C14.0566 3.88218 14.1096 3.6467 14.2375 3.46843C14.3654 3.29017 14.571 3.16515 14.8855 3.05993L14.8696 3.01251ZM14.0066 4.21479C14.0065 7.16489 14.0066 10.115 14.0066 13.0651H14.0566C14.0566 10.115 14.0565 7.16489 14.0566 4.21479L14.0066 4.21479ZM14.745 24.0542C14.5937 23.986 14.4334 23.9272 14.2811 23.8638C14.1277 23.7999 13.9799 23.7304 13.8481 23.6389L13.8196 23.68C13.9558 23.7745 14.1074 23.8456 14.2619 23.9099C14.4174 23.9747 14.5735 24.0317 14.7245 24.0998L14.745 24.0542ZM13.8481 23.6389C13.3457 23.2904 13.0876 22.7788 13.0669 22.1606L13.0169 22.1623C13.0381 22.7949 13.3032 23.3217 13.8196 23.68L13.8481 23.6389ZM13.0669 22.1606C13.0551 21.8104 13.0648 21.4601 13.0648 21.0709H13.0148C13.0148 21.4583 13.0051 21.811 13.0169 22.1623L13.0669 22.1606ZM13.0398 21.0459H12.7747V21.0959H13.0398V21.0459ZM12.7747 21.0459C11.7279 21.0459 10.6813 21.0472 9.63453 21.0455L9.63445 21.0955C10.6812 21.0972 11.728 21.0959 12.7747 21.0959V21.0459ZM9.63453 21.0455C8.88384 21.0443 8.24364 20.7802 7.7897 20.3303C7.33576 19.8805 7.06673 19.2436 7.06086 18.4946L7.01086 18.495C7.01683 19.2561 7.29042 19.9059 7.7545 20.3658C8.21858 20.8257 8.87177 21.0943 9.63445 21.0955L9.63453 21.0455ZM7.06086 18.4946C7.0561 17.8843 7.05854 17.2739 7.06061 16.6634L7.01061 16.6632C7.00854 17.2737 7.0061 17.8844 7.01086 18.495L7.06086 18.4946ZM7.06061 16.6634C7.06122 16.4801 7.10993 16.3341 7.19291 16.2351C7.27544 16.1367 7.39361 16.0825 7.53867 16.0852L7.53959 16.0352C7.3804 16.0323 7.24744 16.0922 7.15459 16.203C7.06218 16.3133 7.01125 16.4717 7.01061 16.6632L7.06061 16.6634ZM7.53866 16.0852C7.68434 16.0879 7.79986 16.1444 7.87956 16.2444C7.95976 16.345 8.00554 16.4921 8.00587 16.6784L8.05587 16.6783C8.05552 16.4844 8.00792 16.3252 7.91866 16.2133C7.82892 16.1007 7.69891 16.0382 7.5396 16.0352L7.53866 16.0852ZM8.00587 16.6784C8.00687 17.2886 8.00387 17.8995 8.00669 18.51L8.05669 18.5097C8.05387 17.8992 8.05688 17.2891 8.05587 16.6783L8.00587 16.6784ZM8.00669 18.51C8.01082 19.4014 8.62542 20.073 9.50981 20.0904L9.5108 20.0404C8.65567 20.0236 8.0607 19.3762 8.05669 18.5097L8.00669 18.51ZM9.50981 20.0904C10.6501 20.1129 11.7916 20.0958 12.9316 20.0951L12.9316 20.0451C11.7906 20.0458 10.6505 20.0629 9.5108 20.0404L9.50981 20.0904ZM12.9317 20.0951C12.9464 20.095 12.9604 20.0917 12.9761 20.0874C12.9924 20.083 13.012 20.0772 13.0412 20.0702L13.0296 20.0216C12.9995 20.0288 12.9783 20.035 12.9631 20.0391C12.9473 20.0434 12.939 20.045 12.9315 20.0451L12.9317 20.0951ZM13.0604 20.0459V19.7581H13.0104V20.0459H13.0604ZM13.0604 19.7581C13.0604 14.5923 13.0604 9.42653 13.0604 4.26082L13.0104 4.26082C13.0104 9.42653 13.0104 14.5923 13.0104 19.7581H13.0604ZM13.0604 4.26082C13.0605 3.67697 13.1745 3.22912 13.4233 2.88156C13.672 2.53402 14.0577 2.28359 14.6072 2.0991L14.5913 2.0517C14.0357 2.23821 13.6395 2.49352 13.3826 2.85246C13.1257 3.21138 13.0105 3.67074 13.0104 4.26082L13.0604 4.26082ZM14.6072 2.0991C15.5609 1.77902 16.5145 1.45887 17.4681 1.13866L17.4522 1.09126C16.4986 1.41147 15.545 1.73161 14.5913 2.0517L14.6072 2.0991ZM17.4681 1.13865C17.5055 1.12609 17.5463 1.11096 17.5875 1.05735L17.5478 1.02689C17.5156 1.06885 17.486 1.0799 17.4522 1.09126L17.4681 1.13865ZM17.5701 1.01724C17.52 1.01234 17.463 1.00209 17.4083 1.00209V1.05209C17.46 1.05209 17.5091 1.06151 17.5652 1.067L17.5701 1.01724ZM17.4084 1.00209C14.8149 1.00134 12.2214 0.999524 9.62795 1.00247L9.62801 1.05247C12.2214 1.04952 14.8148 1.05134 17.4083 1.05209L17.4084 1.00209ZM9.62795 1.00247C9.13898 1.00304 8.73356 1.1646 8.4501 1.45063C8.16667 1.73663 8.00729 2.14493 8.00631 2.63505L8.05631 2.63515C8.05727 2.15599 8.21288 1.76104 8.48562 1.48582C8.75833 1.21064 9.15027 1.05302 9.62801 1.05247L9.62795 1.00247ZM8.00631 2.63505C8.00506 3.26156 8.00888 3.8873 8.00406 4.51339L8.05406 4.51378C8.05888 3.88758 8.05506 3.26104 8.05631 2.63515L8.00631 2.63505ZM8.00406 4.51339C8.00312 4.63632 7.97068 4.73873 7.91361 4.8181C7.85658 4.89741 7.77394 4.95513 7.67011 4.98714L7.68483 5.03492C7.79801 5.00004 7.89018 4.93633 7.95421 4.84729C8.0182 4.7583 8.05305 4.64542 8.05406 4.51378L8.00406 4.51339ZM7.67011 4.98714C7.4689 5.04916 7.24977 4.98019 7.14619 4.80296L7.10302 4.82818C7.22013 5.02859 7.46507 5.10266 7.68483 5.03492L7.67011 4.98714ZM7.14618 4.80295C7.09598 4.71711 7.06545 4.60603 7.06449 4.50633L7.01449 4.50681C7.01554 4.61516 7.04839 4.73479 7.10302 4.82819L7.14618 4.80295ZM7.06449 4.50633C7.05804 3.82528 7.04884 3.14448 7.06643 2.46458L7.01644 2.46329C6.99883 3.14427 7.00804 3.82611 7.01449 4.50681L7.06449 4.50633ZM7.06643 2.46458C7.09718 1.27175 7.9267 0.316786 9.1023 0.0943433L9.09301 0.0452151C7.89481 0.271931 7.04782 1.24637 7.01644 2.46329L7.06643 2.46458ZM9.1023 0.0943443C9.12341 0.0903548 9.1431 0.0825687 9.16103 0.0745937C9.18004 0.0661396 9.19523 0.0584077 9.21238 0.0515179L9.19374 0.00512271C9.17581 0.012324 9.15653 0.0218771 9.14072 0.0289074C9.12383 0.0364169 9.10835 0.0423147 9.09301 0.0452141L9.1023 0.0943443ZM9.20306 0.0533203H21.3446V0.00332031H9.20306V0.0533203ZM21.3367 0.0520184C21.4225 0.0808658 21.5091 0.111248 21.5961 0.139002L21.6113 0.0913654C21.5247 0.0637571 21.4393 0.0337672 21.3526 0.00462222L21.3367 0.0520184ZM21.5961 0.138999C22.2575 0.350205 22.6935 0.78842 22.9159 1.44531L22.9632 1.42928C22.7359 0.757735 22.2882 0.307527 21.6113 0.0913683L21.5961 0.138999ZM22.9159 1.44531C22.9475 1.53885 22.9776 1.63281 23.0085 1.72703L23.056 1.71146C23.0252 1.61767 22.995 1.52312 22.9632 1.42929L22.9159 1.44531ZM23.0072 1.71924V20.3664H23.0572V1.71924H23.0072ZM23.0109 20.3533C23.0052 20.3626 22.9997 20.369 22.9914 20.381C22.9843 20.3913 22.9761 20.4046 22.9729 20.4203L23.0218 20.4304C23.023 20.425 23.0263 20.4185 23.0325 20.4095C23.0375 20.4022 23.0473 20.3897 23.0536 20.3794L23.0109 20.3533ZM22.9729 20.4203C22.8089 21.2104 22.3317 21.7157 21.5758 21.9698L21.5918 22.0172C22.3635 21.7578 22.8541 21.239 23.0218 20.4304L22.9729 20.4203ZM21.5758 21.9698C20.8529 22.2128 20.1287 22.4515 19.4051 22.6932L19.421 22.7406C20.1442 22.4991 20.8688 22.2601 21.5918 22.0172L21.5758 21.9698ZM19.4051 22.6932C18.0487 23.1462 16.6925 23.5999 15.3362 24.0533L15.3521 24.1007C16.7083 23.6473 18.0646 23.1936 19.421 22.7406L19.4051 22.6932ZM15.3442 24.052H14.7348V24.102H15.3442V24.052Z" fill="white"/>
</g>
</svg>
