<?xml version="1.0" encoding="utf-8"?>
<!DOCTYPE svg PUBLIC "-//W3C//DTD SVG 1.1//EN" "http://www.w3.org/Graphics/SVG/1.1/DTD/svg11.dtd">
<svg version="1.1" xmlns="http://www.w3.org/2000/svg" xmlns:xlink="http://www.w3.org/1999/xlink" viewBox="0 0 738 240" xml:space="preserve">
	<path fill="#290088" d="M71.408,41.364c0.674-3.451,3.584-6.335,8.709-8.628c5.125-2.29,10.799-3.807,16.997-4.54
		c6.209-0.742,12.155-0.627,17.851,0.337c5.692,0.962,9.45,2.972,11.258,6.035c2.268,3.913,2.692,8.809,1.276,14.698
		c-1.416,5.893-3.269,11.672-5.559,17.344c-2.306,5.668-4.341,10.646-6.124,14.955c-1.791,4.31-1.919,6.774-0.384,7.392
		c1.533,0.682,4.098-0.716,7.694-4.204c3.594-3.48,7.686-7.566,12.28-12.237c4.588-4.681,9.402-9.183,14.445-13.515
		c5.045-4.331,9.777-6.982,14.198-7.946c2.151-0.454,4.18,0.99,6.074,4.332c1.903,3.346,3.428,7.515,4.591,12.494
		c1.164,4.99,1.83,10.214,1.998,15.681c0.17,5.472-0.366,10.046-1.615,13.732c-1.189,3.341-3.697,6.145-7.52,8.413
		c-3.825,2.262-7.836,4.361-12.028,6.288c-4.191,1.928-7.964,3.869-11.304,5.829c-3.348,1.948-5.103,4.257-5.27,6.915
		c-0.165,2.717,1.817,5.119,5.951,7.184c4.133,2.06,8.67,4.322,13.597,6.757c4.926,2.441,9.35,5.342,13.259,8.71
		c3.909,3.389,5.547,7.698,4.93,12.967c-0.564,4.197-1.475,9.021-2.722,14.488c-1.249,5.473-2.903,10.514-4.969,15.178
		c-2.069,4.645-4.603,8.336-7.612,11.078c-2.998,2.75-6.513,3.566-10.538,2.428c-4.079-1.189-8.311-4.525-12.701-10.033
		c-4.393-5.492-8.548-11.309-12.453-17.414c-3.912-6.125-7.376-11.566-10.413-16.361c-3.034-4.796-5.173-7.067-6.418-6.849
		c-1.303,0.282-1.755,2.171-1.354,5.658c0.388,3.486,0.983,7.605,1.783,12.375c0.794,4.756,1.429,9.652,1.906,14.691
		c0.485,5.047,0.187,9.27-0.885,12.664c-0.742,2.211-3.388,4.006-7.952,5.408c-4.559,1.375-9.476,2.236-14.746,2.592
		c-5.27,0.322-10.069,0.08-14.406-0.775c-4.338-0.836-6.642-2.514-6.926-5.014c-1.645-13.553-2.962-26.033-3.954-37.475
		c-0.99-11.454-1.428-23.165-1.316-35.146c0.117-11.986,0.951-24.853,2.507-38.589C65.098,75.519,67.722,59.549,71.408,41.364"/>
	<path fill="#FFFFFE" d="M71.395,43.257c0.676-3.456,3.579-6.331,8.709-8.624c5.125-2.295,10.791-3.812,16.995-4.547
		c6.21-0.74,12.158-0.63,17.851,0.338c5.697,0.963,9.452,2.974,11.267,6.035c2.261,3.907,2.687,8.811,1.271,14.703
		c-1.413,5.895-3.272,11.675-5.563,17.341c-2.296,5.659-4.337,10.645-6.122,14.959c-1.784,4.309-1.91,6.77-0.386,7.398
		c1.535,0.678,4.094-0.727,7.699-4.214c3.594-3.48,7.688-7.563,12.277-12.237c4.588-4.676,9.409-9.179,14.452-13.515
		c5.04-4.339,9.772-6.979,14.193-7.941c2.15-0.461,4.179,0.985,6.074,4.33c1.9,3.343,3.434,7.506,4.589,12.49
		c1.159,4.984,1.829,10.215,1.998,15.684c0.168,5.468-0.366,10.044-1.613,13.73c-1.19,3.339-3.698,6.145-7.522,8.413
		c-3.825,2.26-7.836,4.361-12.029,6.291c-4.19,1.922-7.956,3.863-11.305,5.817c-3.339,1.954-5.094,4.269-5.27,6.927
		c-0.168,2.724,1.819,5.112,5.953,7.191c4.14,2.059,8.669,4.316,13.595,6.75c4.934,2.434,9.352,5.336,13.259,8.71
		c3.914,3.369,5.556,7.692,4.932,12.967c-0.571,4.197-1.473,9.027-2.723,14.488c-1.246,5.473-2.903,10.533-4.968,15.17
		c-2.067,4.646-4.605,8.344-7.608,11.094c-3,2.742-6.515,3.559-10.533,2.414c-4.089-1.191-8.316-4.527-12.711-10.027
		c-4.39-5.492-8.541-11.303-12.448-17.42c-3.913-6.113-7.388-11.566-10.414-16.363c-3.03-4.789-5.175-7.065-6.418-6.841
		c-1.305,0.275-1.755,2.164-1.362,5.644c0.396,3.494,0.991,7.611,1.783,12.383c0.798,4.756,1.434,9.656,1.917,14.689
		c0.479,5.053,0.188,9.271-0.898,12.672c-0.733,2.211-3.381,4.006-7.941,5.402c-4.563,1.381-9.478,2.236-14.75,2.592
		c-5.265,0.336-10.069,0.078-14.406-0.77c-4.332-0.855-6.64-2.52-6.925-5.014c-1.646-13.539-2.962-26.033-3.953-37.48
		c-0.992-11.449-1.43-23.158-1.315-35.159c0.107-11.973,0.946-24.832,2.502-38.581C65.091,77.417,67.709,61.448,71.395,43.257"/>
	<path fill="none" stroke="#290088" stroke-width="0.234" d="M71.395,43.257c0.676-3.456,3.579-6.331,8.709-8.624
		c5.125-2.295,10.791-3.812,16.995-4.547c6.21-0.74,12.158-0.63,17.851,0.338c5.697,0.963,9.452,2.974,11.267,6.035
		c2.261,3.907,2.687,8.811,1.271,14.703c-1.413,5.895-3.272,11.675-5.563,17.341c-2.296,5.659-4.337,10.645-6.122,14.959
		c-1.784,4.309-1.91,6.77-0.386,7.398c1.535,0.678,4.094-0.727,7.699-4.214c3.594-3.48,7.688-7.563,12.277-12.237
		c4.588-4.676,9.409-9.179,14.452-13.515c5.04-4.339,9.772-6.979,14.193-7.941c2.15-0.461,4.179,0.985,6.074,4.33
		c1.9,3.343,3.434,7.506,4.589,12.49c1.159,4.984,1.829,10.215,1.998,15.684c0.168,5.468-0.366,10.044-1.613,13.73
		c-1.19,3.339-3.698,6.145-7.522,8.413c-3.825,2.26-7.836,4.361-12.029,6.291c-4.19,1.922-7.956,3.863-11.305,5.817
		c-3.339,1.954-5.094,4.269-5.27,6.927c-0.168,2.724,1.819,5.112,5.953,7.191c4.14,2.059,8.669,4.316,13.595,6.75
		c4.934,2.434,9.352,5.336,13.259,8.71c3.914,3.369,5.556,7.692,4.932,12.967c-0.571,4.197-1.473,9.027-2.723,14.488
		c-1.246,5.473-2.903,10.533-4.968,15.17c-2.067,4.646-4.605,8.344-7.608,11.094c-3,2.742-6.515,3.559-10.533,2.414
		c-4.089-1.191-8.316-4.527-12.711-10.027c-4.39-5.492-8.541-11.303-12.448-17.42c-3.913-6.113-7.388-11.566-10.414-16.363
		c-3.03-4.789-5.175-7.065-6.418-6.841c-1.305,0.275-1.755,2.164-1.362,5.644c0.396,3.494,0.991,7.611,1.783,12.383
		c0.798,4.756,1.434,9.656,1.917,14.689c0.479,5.053,0.188,9.271-0.898,12.672c-0.733,2.211-3.381,4.006-7.941,5.402
		c-4.563,1.381-9.478,2.236-14.75,2.592c-5.265,0.336-10.069,0.078-14.406-0.77c-4.332-0.855-6.64-2.52-6.925-5.014
		c-1.646-13.539-2.962-26.033-3.953-37.48c-0.992-11.449-1.43-23.158-1.315-35.159c0.107-11.973,0.946-24.832,2.502-38.581
		C65.091,77.417,67.709,61.448,71.395,43.257z"/>
	<path fill="#FF6B00" d="M115.823,81.588c-1.786,4.307-1.915,6.767-0.389,7.398c1.534,0.677,4.091-0.73,7.694-4.215
		c0.337-0.325,0.681-0.662,1.027-0.998c1.135-8.002,2.939-15.788,5.357-23.3c-1.576-0.559-3.142-1.137-4.691-1.75
		c-0.872,2.662-1.827,5.302-2.883,7.915C119.642,72.298,117.604,77.278,115.823,81.588"/>
	<path fill="#290088" d="M114.967,28.583c5.693,0.959,9.448,2.971,11.261,6.03c2.258,3.906,2.684,8.804,1.271,14.696
		c-0.761,3.173-1.661,6.309-2.678,9.414c1.549,0.612,3.115,1.191,4.691,1.75c4.732-14.701,11.805-28.35,20.786-40.508h-35.012
		c-1.609,2.732-3.303,5.407-5.085,8.018C111.809,28.12,113.399,28.316,114.967,28.583"/>
	<path fill="#FFD100" d="M67.938,59.839c1.036-5.871,2.198-12.006,3.5-18.433c0.672-3.453,3.576-6.326,8.702-8.618
		c0.592-0.265,1.194-0.518,1.801-0.763c-4.172-3.781-8.117-7.81-11.813-12.06h-32.49c-4.307,0-7.659,0.794-10.281,2.061
		C43.251,31.842,57.052,44.72,67.938,59.839"/>
	<path fill="#00AF41" d="M81.942,32.024c4.641-1.869,9.702-3.132,15.186-3.784c4.494-0.533,8.85-0.616,13.074-0.258
		c1.782-2.61,3.475-5.285,5.084-8.018h-11.852h-4.322H79.849h-9.72C73.824,24.215,77.77,28.244,81.942,32.024"/>
	<path fill="#CD25B0" d="M63.573,89.268c0.701-6.144,1.624-12.76,2.748-19.798C53.742,77.057,39.886,82.739,25.15,86.114
		l1.311,8.702l1.339,8.883c11.106-4.489,22.909-7.611,35.207-9.147C63.184,92.805,63.372,91.044,63.573,89.268"/>
	<path fill="#CF0A2C" d="M67.938,59.839C57.052,44.72,43.251,31.842,27.357,22.026c-10.736,5.184-9.094,18.392-9.077,18.525
		l6.869,45.563c14.736-3.375,28.592-9.057,41.171-16.644C66.819,66.344,67.355,63.141,67.938,59.839"/>
	<path fill="#290088" d="M115.31,159.695c-3.025-4.786-5.169-7.061-6.412-6.837c-1.304,0.276-1.756,2.164-1.361,5.642
		c0.394,3.49,0.989,7.605,1.782,12.373c0.017,0.1,0.031,0.199,0.048,0.299c4.817,4.586,9.307,9.51,13.441,14.73
		c1.388-2.578,2.858-5.107,4.399-7.586c-0.496-0.756-1.001-1.502-1.489-2.268C121.809,169.939,118.333,164.49,115.31,159.695"/>
	<path fill="#009BDE" d="M61.2,141.066c-0.11-4.377-0.168-8.78-0.125-13.236c0.091-10.419,0.741-21.512,1.932-33.278
		c-12.298,1.536-24.101,4.658-35.207,9.147l4.526,30.019C42.327,135.159,51.991,137.644,61.2,141.066"/>
	<path fill="#009BDE" d="M161.496,200.967c-0.035,0.033-0.07,0.07-0.105,0.104c-2.999,2.74-6.511,3.557-10.528,2.412
		c-4.083-1.189-8.311-4.525-12.704-10.021c-3.837-4.805-7.482-9.863-10.952-15.145c-1.541,2.479-3.011,5.008-4.399,7.586
		c8.159,10.309,14.905,21.783,19.959,34.131l19.357,0.002c0.947-0.006,8.21-0.207,15.333-4.619
		C171.776,211.006,166.438,206.176,161.496,200.967"/>
	<path fill="#00AF41" d="M185.556,68.295c-2.915,0.18-5.85,0.282-8.81,0.282c-0.645,0-1.285-0.016-1.928-0.024
		c1.069,4.789,1.703,9.796,1.866,15.031c0.164,5.467-0.367,10.038-1.613,13.723c-1.187,3.338-3.696,6.141-7.519,8.406
		c-3.821,2.264-7.832,4.361-12.021,6.29c-0.916,0.42-1.805,0.842-2.68,1.264c8.389,4.997,16.216,10.835,23.363,17.403
		c8.951-5.218,18.527-9.481,28.589-12.646l4.098-22.711l1.018-5.644C201,83.489,192.821,76.315,185.556,68.295"/>
	<path fill="#FFD100" d="M135.397,72.541c2.643-2.69,5.37-5.317,8.163-7.895c-4.783-1.152-9.47-2.547-14.048-4.172
		c-2.418,7.512-4.222,15.297-5.358,23.299C127.495,80.519,131.243,76.778,135.397,72.541"/>
	<path fill="#009BDE" d="M143.56,64.646c2.058-1.899,4.146-3.773,6.283-5.611c5.037-4.338,9.766-6.977,14.184-7.937
		c2.15-0.46,4.179,0.986,6.073,4.327c1.896,3.34,3.432,7.503,4.585,12.483c0.05,0.212,0.085,0.432,0.133,0.645
		c0.643,0.009,1.284,0.024,1.929,0.024c2.959,0,5.895-0.102,8.809-0.282c-12.574-13.878-22.419-30.27-28.708-48.33h-6.55
		c-8.981,12.159-16.053,25.807-20.786,40.509C134.091,62.099,138.778,63.494,143.56,64.646"/>
	<path fill="#CD25B0" d="M214.655,63.423c-9.345,2.598-19.081,4.255-29.099,4.872c7.266,8.019,15.444,15.193,24.364,21.373
		l4.687-25.978L214.655,63.423z"/>
	<path fill="#FF6B00" d="M219.419,36.856c2.273-15.972-10.518-16.891-10.518-16.891h-1.305h-7.895h-42.854
		c6.289,18.059,16.135,34.452,28.709,48.33c10.018-0.617,19.753-2.273,29.098-4.872l4.585-25.41
		C219.312,37.615,219.364,37.236,219.419,36.856"/>
	<path fill="#CF0A2C" d="M138.964,124.741c-0.167,2.723,1.818,5.109,5.948,7.187c4.14,2.057,8.666,4.313,13.592,6.746
		c1.097,0.542,2.159,1.114,3.205,1.702c4.62-3.521,9.463-6.765,14.505-9.705c-7.147-6.569-14.974-12.407-23.362-17.404
		c-3.128,1.507-6.006,3.024-8.62,4.549C140.895,119.769,139.137,122.083,138.964,124.741"/>
	<path fill="#290088" d="M197.965,155.977l5.334-29.615l0.176-0.979l1.328-7.359c-10.063,3.166-19.638,7.429-28.589,12.647
		C184.417,138.208,191.728,146.7,197.965,155.977"/>
	<path fill="#FFD100" d="M176.214,130.67c-5.042,2.94-9.885,6.184-14.505,9.706c3.654,2.052,7.006,4.38,10.043,7.003
		c3.912,3.366,5.553,7.687,4.932,12.96c-0.572,4.195-1.472,9.023-2.722,14.479c-1.246,5.473-2.903,10.529-4.965,15.164
		c-2.043,4.588-4.544,8.246-7.502,10.984c4.943,5.209,10.281,10.039,15.962,14.449c5.857-3.629,11.62-10.098,13.705-21.672
		l6.803-37.768C191.729,146.701,184.417,138.208,176.214,130.67"/>
	<path fill="#CD25B0" d="M109.366,171.172c0.773,4.662,1.396,9.459,1.866,14.385c0.481,5.051,0.19,9.266-0.893,12.666
		c-0.738,2.209-3.382,4.004-7.937,5.396c-4.565,1.381-9.477,2.236-14.744,2.592c-2.964,0.189-5.778,0.184-8.451-0.004
		c-2.426,4.77-5.12,9.381-8.054,13.82h29.397h9.275c2.858-12.043,7.258-23.494,12.982-34.125
		C118.674,180.682,114.183,175.758,109.366,171.172"/>
	<path fill="#00AF41" d="M73.26,205.441c-4.331-0.854-6.635-2.518-6.921-5.01c-1.647-13.533-2.963-26.02-3.953-37.463
		c-0.622-7.189-1.001-14.498-1.186-21.903c-9.21-3.422-18.873-5.907-28.874-7.348l2.02,13.402l8.182,54.275
		c4.124,18.748,23.827,18.633,23.827,18.633h4.799c2.933-4.439,5.627-9.051,8.054-13.82
		C77.137,206.062,75.152,205.812,73.26,205.441"/>
	<path fill="#CF0A2C" d="M109.825,220.027l28.784,0.004l4.157,0.002c-5.054-12.348-11.8-23.822-19.959-34.131
		C117.083,196.533,112.683,207.982,109.825,220.027"/>
	<path fill="#FFFFFE" d="M325.237,158.564c-0.304-7.162-1.162-14.117-2.571-20.853c-1.443-6.545-1.896-11.971-3.675-16.283
		l-4.192-12.311l-6.396-16.06c-1.016-2.282-3.083-3.681-6.218-4.187c-3.239-0.533-6.526-0.521-9.857,0.042
		c-3.437,0.624-6.415,1.626-8.916,3.001c-2.623,1.384-3.797,2.881-3.515,4.484c0.122,1.075,0.264,2.053,0.41,2.946l6.363,14.639
		l5.301,13.733c0.881,3.185,1.093,4.418,1.428,5.511c0.427,1.411,1.095,4.113,1.73,8.075c-0.321-1.994-2.582-2.047-3.546-2.789
		c-0.816-0.59-2.076-0.98-2.918-1.139c-0.904-0.199-2.136-0.286-3.679-0.259c-1.05,0.034-3.529,0.047-7.449,0.047
		c-6.257,0-11.167,1.795-14.716,5.411c-3.552,3.618-6.089,7.957-7.615,13.031c-1.573,5.18-2.318,10.498-2.237,15.943
		c0.023,5.578,0.528,10.262,1.52,14.043c1.276,5.049,4.608,8.938,10.021,11.672c5.472,2.783,11.517,4.625,18.145,5.492
		c6.545,0.842,13.085,0.961,19.624,0.33c6.464-0.668,11.289-1.973,14.504-3.875c3.47-5.471,5.82-11.803,7.061-18.951
		C325.06,173.078,325.524,165.83,325.237,158.564 M303.465,177.336c-0.763,2.055-1.667,3.088-2.706,3.088
		c-1.328-0.02-3.608,0.186-6.856,0.682c-3.293,0.564-5.976,0.205-8.032-1.061c-3.921-2.271-5.781-5.736-5.582-10.359
		c0.141-4.57,3.082-7.121,8.835-7.664c4.884-0.385,8.431,0.344,10.658,2.199c2.257,1.975,3.614,4.121,4.058,6.439
		C304.345,173.051,304.222,175.283,303.465,177.336"/>
	<path fill="none" stroke="#290088" stroke-width="0.234" d="M325.237,158.564c-0.304-7.162-1.162-14.117-2.571-20.853
		c-1.443-6.545-1.896-11.971-3.675-16.283l-4.192-12.311l-6.396-16.06c-1.016-2.282-3.083-3.681-6.218-4.187
		c-3.239-0.533-6.526-0.521-9.857,0.042c-3.437,0.624-6.415,1.626-8.916,3.001c-2.623,1.384-3.797,2.881-3.515,4.484
		c0.122,1.075,0.264,2.053,0.41,2.946l6.363,14.639l5.301,13.733c0.881,3.185,1.093,4.418,1.428,5.511
		c0.427,1.411,1.095,4.113,1.73,8.075c-0.321-1.994-2.582-2.047-3.546-2.789c-0.816-0.59-2.076-0.98-2.918-1.139
		c-0.904-0.199-2.136-0.286-3.679-0.259c-1.05,0.034-3.529,0.047-7.449,0.047c-6.257,0-11.167,1.795-14.716,5.411
		c-3.552,3.618-6.089,7.957-7.615,13.031c-1.573,5.18-2.318,10.498-2.237,15.943c0.023,5.578,0.528,10.262,1.52,14.043
		c1.276,5.049,4.608,8.938,10.021,11.672c5.472,2.783,11.517,4.625,18.145,5.492c6.545,0.842,13.085,0.961,19.624,0.33
		c6.464-0.668,11.289-1.973,14.504-3.875c3.47-5.471,5.82-11.803,7.061-18.951C325.06,173.078,325.524,165.83,325.237,158.564z
		 M303.465,177.336c-0.763,2.055-1.667,3.088-2.706,3.088c-1.328-0.02-3.608,0.186-6.856,0.682
		c-3.293,0.564-5.976,0.205-8.032-1.061c-3.921-2.271-5.781-5.736-5.582-10.359c0.141-4.57,3.082-7.121,8.835-7.664
		c4.884-0.385,8.431,0.344,10.658,2.199c2.257,1.975,3.614,4.121,4.058,6.439C304.345,173.051,304.222,175.283,303.465,177.336z"/>
	<path fill="#FFFFFF" d="M539.328,182.814c-5.422,0.604-9.823-2.451-13.195-9.127c-3.378-6.717-5.329-14.303-5.836-22.801
		c-0.5-8.5,0.623-16.553,3.382-24.132c2.763-7.584,7.621-11.999,14.573-13.233c2.418-0.424,4.481-0.182,6.16,0.722
		c1.68,0.906,3.087,1.953,4.243,3.158c1.159,1.199,2.087,2.305,2.792,3.319c0.702,1.013,1.282,1.424,1.726,1.232
		c0.716-0.351,1.435-2.074,2.146-5.16c0.715-3.095,2.348-5.104,4.864-6.019c8.884-3.268,16.224-2.418,21.977,2.541
		c5.772,4.968,9.463,12.639,11.105,23.032c0.401,2.656,0.609,5.757,0.633,9.301c0.026,3.544-0.209,7.067-0.652,10.544
		c-0.461,3.477-1.189,6.664-2.189,9.58c-1.007,2.908-2.299,5.027-3.882,6.365c-4.355,3.637-8.287,3.988-11.801,1.08
		c-3.521-2.922-5.436-6.354-5.753-10.287c-0.199-2.055-0.047-4.445,0.47-7.188c0.54-2.73,1.044-5.492,1.57-8.26
		c0.52-2.796,0.848-5.439,1-7.943c0.143-2.484-0.222-4.524-1.116-6.081c-1.527-2.61-2.676-2.961-3.428-1.086
		c-0.752,1.887-1.48,4.517-2.192,7.902c-0.716,3.379-1.577,6.744-2.597,10.115c-1.033,3.386-2.557,5.259-4.591,5.638
		c-2.055,0.391-4.144-0.988-6.293-4.147c-2.138-3.16-4.11-6.253-5.905-9.28c-1.818-3.061-3.335-5.134-4.555-6.254
		c-1.235-1.113-1.94,0.57-2.136,5.015c-0.106,1.702,0.443,3.676,1.643,5.882c1.209,2.206,2.537,4.512,3.981,6.909
		c1.44,2.391,2.759,4.762,3.931,7.135c1.177,2.391,1.703,4.576,1.577,6.576c-0.249,4.014-1.318,7.406-3.22,10.189
		C545.847,180.848,543.041,182.432,539.328,182.814"/>
	<path fill="none" stroke="#290088" stroke-width="0.234" d="M539.328,182.814c-5.422,0.604-9.823-2.451-13.195-9.127
		c-3.378-6.717-5.329-14.303-5.836-22.801c-0.5-8.5,0.623-16.553,3.382-24.132c2.763-7.584,7.621-11.999,14.573-13.233
		c2.418-0.424,4.481-0.182,6.16,0.722c1.68,0.906,3.087,1.953,4.243,3.158c1.159,1.199,2.087,2.305,2.792,3.319
		c0.702,1.013,1.282,1.424,1.726,1.232c0.716-0.351,1.435-2.074,2.146-5.16c0.715-3.095,2.348-5.104,4.864-6.019
		c8.884-3.268,16.224-2.418,21.977,2.541c5.772,4.968,9.463,12.639,11.105,23.032c0.401,2.656,0.609,5.757,0.633,9.301
		c0.026,3.544-0.209,7.067-0.652,10.544c-0.461,3.477-1.189,6.664-2.189,9.58c-1.007,2.908-2.299,5.027-3.882,6.365
		c-4.355,3.637-8.287,3.988-11.801,1.08c-3.521-2.922-5.436-6.354-5.753-10.287c-0.199-2.055-0.047-4.445,0.47-7.188
		c0.54-2.73,1.044-5.492,1.57-8.26c0.52-2.796,0.848-5.439,1-7.943c0.143-2.484-0.222-4.524-1.116-6.081
		c-1.527-2.61-2.676-2.961-3.428-1.086c-0.752,1.887-1.48,4.517-2.192,7.902c-0.716,3.379-1.577,6.744-2.597,10.115
		c-1.033,3.386-2.557,5.259-4.591,5.638c-2.055,0.391-4.144-0.988-6.293-4.147c-2.138-3.16-4.11-6.253-5.905-9.28
		c-1.818-3.061-3.335-5.134-4.555-6.254c-1.235-1.113-1.94,0.57-2.136,5.015c-0.106,1.702,0.443,3.676,1.643,5.882
		c1.209,2.206,2.537,4.512,3.981,6.909c1.44,2.391,2.759,4.762,3.931,7.135c1.177,2.391,1.703,4.576,1.577,6.576
		c-0.249,4.014-1.318,7.406-3.22,10.189C545.847,180.848,543.041,182.432,539.328,182.814z"/>
	<path fill="#FFFFFF" d="M617.686,178.535c-1.619,0.596-2.016,2.676-1.209,6.207c0.812,3.537,4.005,6.34,9.615,8.406
		c3.286,1.246,5.73,1.543,7.316,0.895c1.583-0.629,2.828-1.596,3.72-2.875c0.867-1.279,1.643-2.564,2.275-3.842
		c0.662-1.291,1.68-1.975,3.104-2.053c4.332-0.199,8.733-0.637,13.205-1.307c4.472-0.668,6.564,0.598,6.26,3.809
		c-0.188,1.645-0.871,3.77-2.09,6.359c-1.199,2.604-2.792,5.201-4.746,7.797c-1.971,2.584-4.223,4.896-6.764,6.949
		c-2.56,2.047-5.242,3.299-8.071,3.783c-5.988,1.006-11.791,0.867-17.425-0.398c-5.634-1.271-10.593-3.584-14.838-6.908
		c-4.276-3.332-7.585-7.611-9.91-12.846c-2.352-5.232-3.22-11.268-2.633-18.104c1.199-14.156,5.379-24.019,12.543-29.603
		c7.134-5.59,14.695-7.843,22.7-6.703c7.985,1.113,15.127,5.127,21.38,12.016c6.26,6.896,9.125,15.746,8.595,26.523
		c-0.046,1.08-1.914,1.855-5.577,2.326c-3.683,0.471-7.936,0.729-12.771,0.775c-4.839,0.045-9.628-0.047-14.345-0.305
		C623.273,179.191,619.825,178.887,617.686,178.535 M620.481,164.102c1.95,1.41,5.256,2.094,9.896,2.02
		c4.641-0.053,7.737-0.721,9.287-2.02c1.5-1.246,0.762-2.889-2.242-4.928c-3.008-2.047-5.601-3.221-7.761-3.525
		c-2.186-0.305-4.745,0.682-7.702,2.961C619.014,160.889,618.521,162.717,620.481,164.102"/>
	<path fill="none" stroke="#290088" stroke-width="0.234" d="M617.686,178.535c-1.619,0.596-2.016,2.676-1.209,6.207
		c0.812,3.537,4.005,6.34,9.615,8.406c3.286,1.246,5.73,1.543,7.316,0.895c1.583-0.629,2.828-1.596,3.72-2.875
		c0.867-1.279,1.643-2.564,2.275-3.842c0.662-1.291,1.68-1.975,3.104-2.053c4.332-0.199,8.733-0.637,13.205-1.307
		c4.472-0.668,6.564,0.598,6.26,3.809c-0.188,1.645-0.871,3.77-2.09,6.359c-1.199,2.604-2.792,5.201-4.746,7.797
		c-1.971,2.584-4.223,4.896-6.764,6.949c-2.56,2.047-5.242,3.299-8.071,3.783c-5.988,1.006-11.791,0.867-17.425-0.398
		c-5.634-1.271-10.593-3.584-14.838-6.908c-4.276-3.332-7.585-7.611-9.91-12.846c-2.352-5.232-3.22-11.268-2.633-18.104
		c1.199-14.156,5.379-24.019,12.543-29.603c7.134-5.59,14.695-7.843,22.7-6.703c7.985,1.113,15.127,5.127,21.38,12.016
		c6.26,6.896,9.125,15.746,8.595,26.523c-0.046,1.08-1.914,1.855-5.577,2.326c-3.683,0.471-7.936,0.729-12.771,0.775
		c-4.839,0.045-9.628-0.047-14.345-0.305C623.273,179.191,619.825,178.887,617.686,178.535z M620.481,164.102
		c1.95,1.41,5.256,2.094,9.896,2.02c4.641-0.053,7.737-0.721,9.287-2.02c1.5-1.246,0.762-2.889-2.242-4.928
		c-3.008-2.047-5.601-3.221-7.761-3.525c-2.186-0.305-4.745,0.682-7.702,2.961C619.014,160.889,618.521,162.717,620.481,164.102z"/>
	<path fill="#FFFFFF" d="M686.369,65.904c11.718-0.854,20.283,0.321,25.685,3.52c5.402,3.195,7.986,10.161,7.751,20.891
		c-0.295,10.731-3.101,22.468-8.417,35.214c-5.318,12.745-9.919,22.443-13.807,29.114c-1.948,3.333-3.959,5.067-6.046,5.26
		c-2.083,0.166-4.087-0.471-5.988-1.955c-1.917-1.449-3.666-3.351-5.236-5.664c-1.596-2.324-2.878-4.345-3.878-6.06
		c-2.229-3.724-4.061-9.924-5.491-18.595c-1.435-8.677-1.998-17.512-1.683-26.5c0.322-8.987,1.788-16.989,4.385-24.003
		C676.26,70.116,680.497,66.376,686.369,65.904 M695.269,171.998c2.795,1.729,4.693,4.291,5.68,7.697
		c0.987,3.391,0.421,6.432-1.686,9.135c-2.116,2.703-5.898,4.822-11.367,6.371c-5.484,1.537-9.301,1.775-11.473,0.717
		c-2.14-1.027-3.614-3.637-4.452-7.83c-0.845-4.199-0.652-8.182,0.554-11.938c1.209-3.781,3.626-6.445,7.223-8.035
		C683.352,166.547,688.515,167.838,695.269,171.998"/>
	<path fill="none" stroke="#290088" stroke-width="0.234" d="M686.369,65.904c11.718-0.854,20.283,0.321,25.685,3.52
		c5.402,3.195,7.986,10.161,7.751,20.891c-0.295,10.731-3.101,22.468-8.417,35.214c-5.318,12.745-9.919,22.443-13.807,29.114
		c-1.948,3.333-3.959,5.067-6.046,5.26c-2.083,0.166-4.087-0.471-5.988-1.955c-1.917-1.449-3.666-3.351-5.236-5.664
		c-1.596-2.324-2.878-4.345-3.878-6.06c-2.229-3.724-4.061-9.924-5.491-18.595c-1.435-8.677-1.998-17.512-1.683-26.5
		c0.322-8.987,1.788-16.989,4.385-24.003C676.26,70.116,680.497,66.376,686.369,65.904z M695.269,171.998
		c2.795,1.729,4.693,4.291,5.68,7.697c0.987,3.391,0.421,6.432-1.686,9.135c-2.116,2.703-5.898,4.822-11.367,6.371
		c-5.484,1.537-9.301,1.775-11.473,0.717c-2.14-1.027-3.614-3.637-4.452-7.83c-0.845-4.199-0.652-8.182,0.554-11.938
		c1.209-3.781,3.626-6.445,7.223-8.035C683.352,166.547,688.515,167.838,695.269,171.998z"/>
	<path fill="#FFFFFF" d="M380.32,77.407c1.359-2.032,3.908-3.201,7.636-3.482c3.737-0.28,7.707-0.451,11.922-0.51
		c4.215-0.053,8.188-0.345,11.921-0.886c3.737-0.54,6.277-2.107,7.635-4.713c2.713-5.084,2.481-10.221-0.722-15.393
		c-3.196-5.177-3.468-9.152-0.802-11.922c1.292-1.357,4.227-2.572,8.784-3.652c4.554-1.074,9.439-1.878,14.673-2.416
		c5.239-0.535,10.147-0.719,14.771-0.548c4.604,0.164,7.641,0.792,9.108,1.866c2.832,2.203,3.994,6.277,3.487,12.217
		c-0.517,5.94,0.626,11.142,3.395,15.615c1.358,2.261,4.028,2.613,8.005,1.054c3.995-1.554,8.328-3.46,12.984-5.728
		c4.673-2.26,9.24-4.097,13.702-5.511c4.475-1.414,7.899-0.881,10.272,1.613c4.744,5.091,7.536,13.174,8.358,24.263
		c0.824,11.084,0.556,19.606-0.822,25.541c-0.652,2.999-3.471,4.637-8.426,4.92c-4.955,0.281-10.399,0.421-16.345,0.421
		c-5.929,0-11.556,0.47-16.872,1.397c-5.315,0.944-8.674,3.529-10.096,7.769c-1.467,4.25-0.947,10.48,1.561,18.707
		c2.523,8.233,5.263,16.639,8.197,25.205c2.935,8.559,5.21,16.395,6.83,23.455c1.612,7.068,0.777,11.514-2.508,13.314
		c-6.61,3.736-16.541,5.803-29.775,6.201c-13.245,0.404-23.165-0.762-29.775-3.479c-3.342-1.357-4.684-5.75-4.034-13.148
		c0.643-7.42,1.712-15.541,3.176-24.396c1.471-8.85,2.574-17.323,3.312-25.417c0.742-8.081-0.48-13.513-3.653-16.282
		c-3.212-2.716-6.7-3.806-10.434-3.272c-3.732,0.536-7.409,1.487-11.032,2.848c-3.621,1.358-6.967,2.53-10.049,3.517
		c-3.089,0.994-5.558,0.557-7.426-1.318c-1.924-1.802-3.62-4.928-5.089-9.373c-1.474-4.441-2.577-9.163-3.312-14.169
		c-0.731-5.006-1.031-9.779-0.891-14.333C378.127,82.826,378.911,79.504,380.32,77.407"/>
	<path fill="none" stroke="#290088" stroke-width="0.234" d="M380.32,77.407c1.359-2.032,3.908-3.201,7.636-3.482
		c3.737-0.28,7.707-0.451,11.922-0.51c4.215-0.053,8.188-0.345,11.921-0.886c3.737-0.54,6.277-2.107,7.635-4.713
		c2.713-5.084,2.481-10.221-0.722-15.393c-3.196-5.177-3.468-9.152-0.802-11.922c1.292-1.357,4.227-2.572,8.784-3.652
		c4.554-1.074,9.439-1.878,14.673-2.416c5.239-0.535,10.147-0.719,14.771-0.548c4.604,0.164,7.641,0.792,9.108,1.866
		c2.832,2.203,3.994,6.277,3.487,12.217c-0.517,5.94,0.626,11.142,3.395,15.615c1.358,2.261,4.028,2.613,8.005,1.054
		c3.995-1.554,8.328-3.46,12.984-5.728c4.673-2.26,9.24-4.097,13.702-5.511c4.475-1.414,7.899-0.881,10.272,1.613
		c4.744,5.091,7.536,13.174,8.358,24.263c0.824,11.084,0.556,19.606-0.822,25.541c-0.652,2.999-3.471,4.637-8.426,4.92
		c-4.955,0.281-10.399,0.421-16.345,0.421c-5.929,0-11.556,0.47-16.872,1.397c-5.315,0.944-8.674,3.529-10.096,7.769
		c-1.467,4.25-0.947,10.48,1.561,18.707c2.523,8.233,5.263,16.639,8.197,25.205c2.935,8.559,5.21,16.395,6.83,23.455
		c1.612,7.068,0.777,11.514-2.508,13.314c-6.61,3.736-16.541,5.803-29.775,6.201c-13.245,0.404-23.165-0.762-29.775-3.479
		c-3.342-1.357-4.684-5.75-4.034-13.148c0.643-7.42,1.712-15.541,3.176-24.396c1.471-8.85,2.574-17.323,3.312-25.417
		c0.742-8.081-0.48-13.513-3.653-16.282c-3.212-2.716-6.7-3.806-10.434-3.272c-3.732,0.536-7.409,1.487-11.032,2.848
		c-3.621,1.358-6.967,2.53-10.049,3.517c-3.089,0.994-5.558,0.557-7.426-1.318c-1.924-1.802-3.62-4.928-5.089-9.373
		c-1.474-4.441-2.577-9.163-3.312-14.169c-0.731-5.006-1.031-9.779-0.891-14.333C378.127,82.826,378.911,79.504,380.32,77.407z"/>
	<path fill="#FFFFFE" d="M224.817,146.19c-0.176-1.153,0.494-2.186,2.012-3.127c1.52-0.94,3.282-1.643,5.273-2.159
		c1.995-0.504,3.928-0.762,5.781-0.776c1.856-0.013,3.024,0.332,3.495,1.034c1.871,2.796,3.273,6.624,4.226,11.519
		c0.943,4.895,1.573,10.188,1.873,15.905c0.309,5.711,0.362,11.52,0.169,17.449c-0.194,5.914-0.487,11.307-0.893,16.156
		c-0.157,1.668-1.378,3.006-3.673,4.014c-2.279,1.006-4.738,1.623-7.375,1.809c-2.636,0.191-5.007-0.072-7.102-0.803
		c-2.09-0.709-3.016-1.992-2.766-3.814c1.24-8.91,1.792-18.02,1.669-27.338C227.382,166.758,226.49,156.801,224.817,146.19"/>
	<path fill="none" stroke="#290088" stroke-width="0.234" d="M224.817,146.19c-0.176-1.153,0.494-2.186,2.012-3.127
		c1.52-0.94,3.282-1.643,5.273-2.159c1.995-0.504,3.928-0.762,5.781-0.776c1.856-0.013,3.024,0.332,3.495,1.034
		c1.871,2.796,3.273,6.624,4.226,11.519c0.943,4.895,1.573,10.188,1.873,15.905c0.309,5.711,0.362,11.52,0.169,17.449
		c-0.194,5.914-0.487,11.307-0.893,16.156c-0.157,1.668-1.378,3.006-3.673,4.014c-2.279,1.006-4.738,1.623-7.375,1.809
		c-2.636,0.191-5.007-0.072-7.102-0.803c-2.09-0.709-3.016-1.992-2.766-3.814c1.24-8.91,1.792-18.02,1.669-27.338
		C227.382,166.758,226.49,156.801,224.817,146.19z"/>
	<polygon fill="#FFFFFE" points="220.736,136.492 221.804,127.417 214.938,121.389 223.894,119.594 227.506,111.206 
		231.972,119.173 241.075,120.012 234.872,126.721 236.884,135.644 228.584,131.809 	"/>
	<polygon fill="none" stroke="#290088" stroke-width="0.234" points="220.736,136.492 221.804,127.417 214.938,121.389 
		223.894,119.594 227.506,111.206 231.972,119.173 241.075,120.012 234.872,126.721 236.884,135.644 228.584,131.809 	"/>
	<path fill="#FFFFFF" d="M494.503,151.363c-0.187-1.133,0.496-2.179,2.01-3.119c1.513-0.94,3.276-1.656,5.273-2.173
		c1.997-0.491,3.918-0.749,5.776-0.775c1.854,0,3.03,0.338,3.497,1.033c1.868,2.796,3.276,6.645,4.213,11.527
		c0.951,4.881,1.586,10.195,1.892,15.898c0.298,5.709,0.351,11.531,0.166,17.447c-0.199,5.93-0.494,11.32-0.895,16.15
		c-0.163,1.676-1.385,3.006-3.674,4.033c-2.288,1.02-4.753,1.609-7.386,1.809c-2.626,0.199-4.998-0.086-7.091-0.789
		c-2.087-0.729-3.014-2.006-2.77-3.828c1.232-8.922,1.796-18.037,1.666-27.332C497.062,171.938,496.172,161.982,494.503,151.363"/>
	<path fill="none" stroke="#290088" stroke-width="0.234" d="M494.503,151.363c-0.187-1.133,0.496-2.179,2.01-3.119
		c1.513-0.94,3.276-1.656,5.273-2.173c1.997-0.491,3.918-0.749,5.776-0.775c1.854,0,3.03,0.338,3.497,1.033
		c1.868,2.796,3.276,6.645,4.213,11.527c0.951,4.881,1.586,10.195,1.892,15.898c0.298,5.709,0.351,11.531,0.166,17.447
		c-0.199,5.93-0.494,11.32-0.895,16.15c-0.163,1.676-1.385,3.006-3.674,4.033c-2.288,1.02-4.753,1.609-7.386,1.809
		c-2.626,0.199-4.998-0.086-7.091-0.789c-2.087-0.729-3.014-2.006-2.77-3.828c1.232-8.922,1.796-18.037,1.666-27.332
		C497.062,171.938,496.172,161.982,494.503,151.363z"/>
	<polygon fill="#FFFFFF" points="504.628,142.288 498.335,135.658 489.293,137.075 493.661,129.046 489.515,120.899 
		498.497,122.561 504.966,116.109 506.153,125.164 514.299,129.318 506.056,133.253 	"/>
	<polygon fill="none" stroke="#290088" stroke-width="0.234" points="504.628,142.288 498.335,135.658 489.293,137.075 
		493.661,129.046 489.515,120.899 498.497,122.561 504.966,116.109 506.153,125.164 514.299,129.318 506.056,133.253 	"/>
	<path fill="#FFFFFF" d="M332.586,176.945c-0.961-0.701-1.665-2.225-2.117-4.551c-0.447-2.324-0.511-4.861-0.189-7.625
		c0.322-2.754,1.105-5.424,2.355-8c1.251-2.584,3.1-4.511,5.558-5.764c2.431-1.226,5.531-2.047,9.287-2.456
		c3.764-0.419,7.654-0.531,11.693-0.306c4.04,0.212,7.961,0.695,11.775,1.457c3.812,0.762,7.005,1.689,9.594,2.802
		c6.297,2.73,8.799,6.015,7.497,9.837c-1.299,3.842-3.953,7.684-7.926,11.545c-3.985,3.863-8.078,7.453-12.274,10.785
		c-4.196,3.365-6.023,5.895-5.496,7.656c0.662,2.201,1.89,2.75,3.688,1.684c1.788-1.094,3.838-2.551,6.133-4.432
		c2.295-1.861,4.668-3.518,7.128-4.947c2.459-1.426,4.678-1.406,6.669,0.105c1.955,1.51,3.337,3.49,4.143,5.947
		c0.806,2.465,1.039,4.977,0.724,7.559c-0.324,2.584-1.188,5.016-2.597,7.307c-1.407,2.266-3.335,3.969-5.77,5.094
		c-2.454,1.146-6.076,1.928-10.854,2.326c-4.791,0.396-9.694,0.543-14.729,0.43c-5.024-0.105-9.649-0.404-13.882-0.928
		c-4.227-0.516-6.992-1.125-8.301-1.828c-4.567-2.391-5.753-5.656-3.552-9.803c2.201-4.141,5.477-8.367,9.834-12.699
		c4.362-4.326,8.616-8.354,12.768-12.082c4.155-3.717,5.864-6.367,5.14-7.949c-0.428-0.928-1.86-0.834-4.291,0.232
		c-2.435,1.092-5.132,2.385-8.076,3.889c-2.949,1.523-5.77,2.861-8.471,4.033C335.346,177.443,333.526,177.674,332.586,176.945"/>
	<path fill="none" stroke="#290088" stroke-width="0.234" d="M332.586,176.945c-0.961-0.701-1.665-2.225-2.117-4.551
		c-0.447-2.324-0.511-4.861-0.189-7.625c0.322-2.754,1.105-5.424,2.355-8c1.251-2.584,3.1-4.511,5.558-5.764
		c2.431-1.226,5.531-2.047,9.287-2.456c3.764-0.419,7.654-0.531,11.693-0.306c4.04,0.212,7.961,0.695,11.775,1.457
		c3.812,0.762,7.005,1.689,9.594,2.802c6.297,2.73,8.799,6.015,7.497,9.837c-1.299,3.842-3.953,7.684-7.926,11.545
		c-3.985,3.863-8.078,7.453-12.274,10.785c-4.196,3.365-6.023,5.895-5.496,7.656c0.662,2.201,1.89,2.75,3.688,1.684
		c1.788-1.094,3.838-2.551,6.133-4.432c2.295-1.861,4.668-3.518,7.128-4.947c2.459-1.426,4.678-1.406,6.669,0.105
		c1.955,1.51,3.337,3.49,4.143,5.947c0.806,2.465,1.039,4.977,0.724,7.559c-0.324,2.584-1.188,5.016-2.597,7.307
		c-1.407,2.266-3.335,3.969-5.77,5.094c-2.454,1.146-6.076,1.928-10.854,2.326c-4.791,0.396-9.694,0.543-14.729,0.43
		c-5.024-0.105-9.649-0.404-13.882-0.928c-4.227-0.516-6.992-1.125-8.301-1.828c-4.567-2.391-5.753-5.656-3.552-9.803
		c2.201-4.141,5.477-8.367,9.834-12.699c4.362-4.326,8.616-8.354,12.768-12.082c4.155-3.717,5.864-6.367,5.14-7.949
		c-0.428-0.928-1.86-0.834-4.291,0.232c-2.435,1.092-5.132,2.385-8.076,3.889c-2.949,1.523-5.77,2.861-8.471,4.033
		C335.346,177.443,333.526,177.674,332.586,176.945z"/>
	<g class="logo-words">
		<path fill="#290088" d="M324.04,157.434c-0.31-7.16-1.169-14.102-2.582-20.84c-1.439-6.538-1.898-11.969-3.67-16.285L313.597,108
			l-6.398-16.056c-1.017-2.283-3.088-3.686-6.221-4.189c-3.243-0.536-6.524-0.519-9.852,0.04c-3.44,0.622-6.416,1.621-8.923,3.007
			c-2.625,1.382-3.792,2.872-3.518,4.484c0.132,1.068,0.267,2.053,0.413,2.94l6.363,14.647l5.307,13.726
			c0.873,3.193,1.093,4.418,1.419,5.517c0.431,1.398,1.105,4.088,1.74,8.082c-0.324-2.02-2.589-2.067-3.546-2.796
			c-0.815-0.609-2.077-0.98-2.924-1.146c-0.899-0.191-2.124-0.284-3.675-0.264c-1.051,0.026-3.533,0.053-7.448,0.053
			c-6.259,0-11.165,1.802-14.717,5.412c-3.551,3.603-6.093,7.942-7.615,13.016c-1.578,5.194-2.323,10.512-2.241,15.946
			c0.029,5.59,0.539,10.266,1.526,14.043c1.268,5.047,4.61,8.941,10.02,11.664c5.471,2.797,11.518,4.631,18.146,5.512
			c6.54,0.842,13.078,0.961,19.624,0.338c6.457-0.682,11.286-1.975,14.505-3.895c3.47-5.479,5.816-11.777,7.062-18.953
			C323.854,171.941,324.323,164.713,324.04,157.434 M302.261,176.213c-0.762,2.074-1.667,3.088-2.711,3.088
			c-1.32-0.027-3.603,0.205-6.851,0.682c-3.299,0.562-5.975,0.205-8.037-1.066c-3.913-2.271-5.781-5.73-5.581-10.354
			c0.139-4.57,3.089-7.115,8.841-7.65c4.883-0.404,8.428,0.338,10.654,2.205c2.259,1.967,3.61,4.107,4.062,6.432
			C303.147,171.928,303.019,174.16,302.261,176.213"/>
		<path fill="#290088" d="M538.115,181.711c-5.415,0.59-9.813-2.465-13.194-9.16c-3.382-6.691-5.32-14.283-5.824-22.789
			c-0.519-8.498,0.623-16.54,3.383-24.132c2.756-7.581,7.617-11.996,14.566-13.228c2.418-0.424,4.475-0.175,6.164,0.729
			c1.678,0.894,3.1,1.947,4.253,3.153c1.146,1.199,2.076,2.312,2.778,3.325c0.695,1.014,1.281,1.421,1.726,1.223
			c0.716-0.349,1.434-2.067,2.163-5.158c0.705-3.1,2.325-5.099,4.858-6.019c8.877-3.264,16.2-2.415,21.969,2.548
			c5.767,4.962,9.463,12.639,11.096,23.026c0.401,2.643,0.609,5.743,0.636,9.314c0.021,3.543-0.191,7.055-0.648,10.525
			c-0.461,3.479-1.186,6.684-2.196,9.586c-0.998,2.895-2.285,5.033-3.875,6.373c-4.355,3.629-8.288,3.994-11.811,1.059
			c-3.511-2.914-5.422-6.346-5.753-10.273c-0.189-2.055-0.023-4.451,0.493-7.174c0.517-2.749,1.036-5.505,1.55-8.287
			c0.517-2.782,0.871-5.425,1.011-7.929c0.138-2.498-0.239-4.518-1.104-6.088c-1.554-2.59-2.689-2.954-3.444-1.08
			c-0.759,1.889-1.49,4.518-2.192,7.896c-0.707,3.372-1.57,6.75-2.607,10.135c-1.023,3.379-2.56,5.26-4.577,5.617
			c-2.057,0.392-4.145-0.967-6.289-4.14c-2.14-3.146-4.114-6.247-5.922-9.301c-1.806-3.04-3.319-5.12-4.555-6.233
			c-1.219-1.113-1.925,0.55-2.133,5.014c-0.1,1.716,0.454,3.664,1.649,5.883c1.212,2.219,2.527,4.524,3.981,6.915
			c1.444,2.373,2.748,4.763,3.935,7.134c1.162,2.379,1.702,4.57,1.583,6.578c-0.258,4.008-1.335,7.393-3.239,10.195
			C544.644,179.73,541.825,181.314,538.115,181.711"/>
		<path fill="#290088" d="M616.483,177.412c-1.62,0.615-2.034,2.684-1.209,6.213c0.798,3.531,4.018,6.34,9.615,8.414
			c3.275,1.238,5.715,1.529,7.312,0.9c1.59-0.662,2.832-1.617,3.71-2.895c0.894-1.266,1.646-2.557,2.302-3.836
			c0.633-1.279,1.669-1.975,3.077-2.053c4.342-0.191,8.747-0.637,13.222-1.305c4.471-0.67,6.548,0.602,6.246,3.814
			c-0.169,1.643-0.874,3.756-2.083,6.359s-2.792,5.193-4.753,7.777c-1.947,2.604-4.203,4.908-6.763,6.947
			c-2.544,2.041-5.233,3.312-8.065,3.803c-5.988,1.014-11.798,0.875-17.425-0.396c-5.631-1.279-10.575-3.592-14.849-6.93
			c-4.275-3.332-7.574-7.604-9.909-12.83c-2.325-5.227-3.216-11.262-2.63-18.111c1.222-14.143,5.389-24,12.539-29.603
			c7.151-5.597,14.72-7.83,22.705-6.704c7.994,1.126,15.123,5.134,21.393,12.022c6.253,6.91,9.132,15.734,8.595,26.511
			c-0.05,1.1-1.914,1.881-5.591,2.338c-3.673,0.471-7.922,0.729-12.765,0.775c-4.836,0.059-9.625-0.047-14.358-0.291
			C622.07,178.074,618.63,177.764,616.483,177.412 M619.292,162.984c1.934,1.418,5.232,2.086,9.883,2.033
			c4.637-0.072,7.737-0.754,9.274-2.033c1.514-1.232,0.774-2.875-2.229-4.914c-3.007-2.047-5.591-3.233-7.776-3.524
			c-2.156-0.306-4.729,0.682-7.675,2.954C617.808,159.771,617.317,161.588,619.292,162.984"/>
		<path fill="#290088" d="M684.845,65.194c11.722-0.863,20.29,0.318,25.691,3.51c5.402,3.2,7.982,10.162,7.747,20.898
			c-0.294,10.725-3.1,22.459-8.416,35.208c-5.319,12.758-9.92,22.457-13.808,29.126c-1.948,3.332-3.959,5.068-6.045,5.246
			c-2.066,0.174-4.061-0.469-5.991-1.939c-1.911-1.451-3.66-3.353-5.247-5.677c-1.572-2.325-2.878-4.346-3.852-6.061
			c-2.229-3.71-4.074-9.91-5.505-18.588c-1.431-8.684-1.997-17.521-1.666-26.508c0.305-8.986,1.769-16.986,4.379-24.003
			C674.739,69.404,678.976,65.658,684.845,65.194 M693.747,171.285c2.796,1.729,4.697,4.299,5.681,7.689
			c0.987,3.393,0.423,6.445-1.686,9.148c-2.117,2.697-5.899,4.816-11.367,6.359c-5.485,1.551-9.301,1.789-11.486,0.723
			c-2.11-1.027-3.604-3.631-4.445-7.836c-0.834-4.201-0.648-8.182,0.573-11.951c1.209-3.756,3.617-6.432,7.209-8.008
			C681.83,165.826,687.008,167.105,693.747,171.285"/>
		<path fill="#290088" d="M379.115,76.294c1.355-2.037,3.905-3.194,7.631-3.481c3.74-0.281,7.713-0.45,11.931-0.51
			c4.216-0.058,8.188-0.344,11.919-0.886c3.728-0.541,6.281-2.115,7.639-4.709c2.716-5.09,2.478-10.225-0.729-15.404
			c-3.192-5.178-3.461-9.151-0.812-11.915c1.317-1.363,4.227-2.577,8.784-3.658c4.557-1.07,9.451-1.879,14.676-2.413
			c5.235-0.538,10.165-0.722,14.769-0.551c4.613,0.17,7.657,0.791,9.121,1.867c2.828,2.206,3.991,6.281,3.488,12.216
			c-0.518,5.94,0.609,11.148,3.381,15.608c1.361,2.265,4.038,2.618,8.028,1.068c3.984-1.562,8.317-3.469,12.986-5.728
			c4.651-2.261,9.229-4.106,13.689-5.513c4.472-1.415,7.89-0.886,10.265,1.609c4.766,5.089,7.547,13.176,8.359,24.26
			c0.821,11.09,0.56,19.602-0.798,25.543c-0.683,2.999-3.488,4.635-8.446,4.918c-4.951,0.29-10.387,0.429-16.328,0.429
			c-5.942,0-11.576,0.471-16.882,1.396c-5.322,0.934-8.692,3.522-10.099,7.766c-1.478,4.245-0.965,10.479,1.56,18.699
			c2.527,8.247,5.25,16.64,8.194,25.212c2.938,8.572,5.214,16.387,6.822,23.455c1.62,7.068,0.776,11.52-2.49,13.328
			c-6.621,3.729-16.551,5.803-29.785,6.182c-13.227,0.402-23.161-0.756-29.782-3.484c-3.336-1.332-4.674-5.73-4.037-13.137
			c0.655-7.406,1.712-15.547,3.192-24.396c1.454-8.85,2.57-17.315,3.309-25.417c0.729-8.076-0.48-13.514-3.66-16.283
			c-3.219-2.716-6.696-3.805-10.426-3.265c-3.736,0.539-7.409,1.48-11.026,2.841c-3.628,1.358-6.979,2.531-10.061,3.518
			c-3.083,0.987-5.554,0.549-7.426-1.312c-1.921-1.808-3.616-4.941-5.089-9.379c-1.469-4.439-2.571-9.159-3.311-14.171
			c-0.735-5.002-1.028-9.779-0.888-14.328C376.926,81.713,377.706,78.382,379.115,76.294"/>
		<path fill="#290088" d="M223.614,145.08c-0.182-1.153,0.492-2.193,2.013-3.12c1.52-0.941,3.275-1.669,5.271-2.16
			c1.992-0.516,3.923-0.775,5.784-0.775c1.853-0.026,3.016,0.325,3.491,1.02c1.873,2.796,3.276,6.638,4.221,11.533
			c0.946,4.883,1.574,10.174,1.878,15.885c0.307,5.717,0.363,11.525,0.173,17.467c-0.196,5.916-0.496,11.289-0.901,16.145
			c-0.158,1.662-1.378,3-3.668,4.008c-2.284,1.025-4.743,1.623-7.38,1.814c-2.641,0.199-4.999-0.061-7.09-0.789
			c-2.101-0.729-3.023-1.994-2.771-3.828c1.233-8.922,1.796-18.031,1.667-27.332C226.173,165.648,225.28,155.697,223.614,145.08"/>
		<polygon fill="#290088" points="219.527,135.362 220.6,126.287 213.728,120.266 222.692,118.484 226.302,110.088 230.768,118.056 
			239.875,118.894 233.67,125.612 235.683,134.514 227.382,130.699 		"/>
		<path fill="#290088" d="M493.29,150.247c-0.166-1.152,0.493-2.18,2.021-3.12c1.525-0.927,3.261-1.656,5.259-2.166
			c1.997-0.504,3.921-0.762,5.775-0.776c1.865-0.006,3.027,0.332,3.498,1.034c1.878,2.795,3.289,6.631,4.229,11.533
			c0.95,4.889,1.573,10.174,1.875,15.896c0.308,5.705,0.354,11.52,0.165,17.449c-0.188,5.908-0.48,11.301-0.891,16.15
			c-0.156,1.668-1.375,3.006-3.663,4.02c-2.291,1.008-4.743,1.617-7.399,1.809c-2.63,0.18-4.984-0.078-7.088-0.801
			c-2.09-0.715-3.008-1.994-2.772-3.816c1.246-8.916,1.809-18.031,1.68-27.344C495.86,170.814,494.959,160.857,493.29,150.247"/>
		<polygon fill="#290088" points="503.412,141.158 497.118,134.541 488.094,135.971 492.445,127.929 488.315,119.789 
			497.298,121.445 503.763,114.993 504.948,124.055 513.083,128.201 504.846,132.143 		"/>
		<path fill="#290088" d="M331.386,175.828c-0.964-0.707-1.669-2.219-2.12-4.543c-0.452-2.332-0.505-4.883-0.195-7.631
			c0.323-2.742,1.109-5.42,2.36-8.002c1.244-2.583,3.1-4.51,5.554-5.77c2.434-1.219,5.529-2.027,9.292-2.45
			c3.756-0.425,7.653-0.518,11.693-0.306c4.041,0.205,7.959,0.702,11.775,1.45c3.805,0.769,7.004,1.696,9.593,2.81
			c6.292,2.735,8.793,6.022,7.498,9.85c-1.304,3.828-3.946,7.678-7.931,11.525c-3.981,3.861-8.071,7.459-12.27,10.805
			c-4.196,3.332-6.029,5.895-5.5,7.645c0.669,2.191,1.895,2.756,3.691,1.676c1.792-1.08,3.842-2.557,6.132-4.412
			c2.3-1.881,4.672-3.523,7.131-4.955c2.453-1.432,4.679-1.41,6.66,0.094c1.963,1.51,3.349,3.496,4.146,5.961
			c0.805,2.443,1.045,4.98,0.729,7.564c-0.324,2.584-1.192,5.002-2.595,7.273c-1.414,2.285-3.334,3.988-5.77,5.121
			c-2.456,1.152-6.083,1.928-10.867,2.324c-4.772,0.391-9.688,0.531-14.717,0.432c-5.023-0.119-9.649-0.432-13.883-0.936
			c-4.231-0.502-6.997-1.119-8.3-1.82c-4.568-2.393-5.751-5.67-3.553-9.811c2.205-4.146,5.479-8.359,9.841-12.705
			c4.349-4.318,8.605-8.334,12.761-12.07c4.15-3.729,5.865-6.385,5.137-7.961c-0.429-0.908-1.856-0.842-4.286,0.238
			c-2.442,1.08-5.13,2.371-8.078,3.895c-2.941,1.518-5.763,2.869-8.475,4.041C334.136,176.332,332.318,176.557,331.386,175.828"/>
	</g>
</svg>
