<?xml version="1.0" encoding="UTF-8"?>
<svg width="57px" height="56px" viewBox="0 0 57 56" version="1.1" xmlns="http://www.w3.org/2000/svg" xmlns:xlink="http://www.w3.org/1999/xlink">
    <!-- Generator: Sketch 64 (93537) - https://sketch.com -->
    <title>logo-square-alt</title>
    <desc>Created with Sketch.</desc>
    <defs>
        <polygon id="path-1" points="0 0.117342105 40.9949821 0.117342105 40.9949821 41.9953395 0 41.9953395"></polygon>
        <polygon id="path-3" points="0.0550628571 0.0668405405 5.90780571 0.0668405405 5.90780571 7 0.0550628571 7"></polygon>
    </defs>
    <g id="Page-1" stroke="none" stroke-width="1" fill="none" fill-rule="evenodd">
        <g id="logo-square-alt" transform="translate(-159.000000, -11.000000)">
            <g id="Group-27" transform="translate(159.000000, 11.000000)">
                <g id="Group-3">
                    <g id="Fill-1-Clipped">
                        <mask id="mask-2" fill="white">
                            <use xlink:href="#path-1"></use>
                        </mask>
                        <g id="path-3"></g>
                        <path d="M38.8000367,0.117286842 L38.5347004,0.117286842 L36.9283598,0.117286842 L28.2102201,0.117286842 L26.8778096,0.117286842 L19.75491,0.117286842 L17.3437878,0.117286842 L16.4647048,0.117286842 L12.5457135,0.117286842 L10.5682245,0.117286842 L3.95827249,0.117286842 C3.08223319,0.117286842 2.40027249,0.283628947 1.86691441,0.548707895 C-0.317365066,1.63370789 0.0167222707,4.39833947 0.0201240175,4.42633947 L1.41752576,13.9634711 L1.68447336,15.7849447 L1.95679214,17.6439974 L2.87741223,23.9276026 L3.28848646,26.7329447 L4.95301485,38.0932079 C5.79199301,42.0178132 9.80050393,41.9933132 9.80050393,41.9933132 L10.7766262,41.9933132 L16.757255,41.9933132 L18.6439712,41.9934974 L24.4996306,41.9944184 L25.3455913,41.9946026 L29.2837397,41.9953395 C29.476207,41.99405 30.9538183,41.9518658 32.4029624,41.0282342 C33.594469,40.2687342 34.7669974,38.9147868 35.1913205,36.49205 L36.5752943,28.5864711 L37.6604515,22.3876026 L37.6962594,22.1829447 L37.9662507,20.6425763 L38.8000367,15.8888395 L39.0071852,14.7073132 L39.9605694,9.26978684 L39.9704166,9.21397105 L40.9032114,3.89507632 C40.9177135,3.81181316 40.9286349,3.73241842 40.9399144,3.65283947 C41.4023729,0.309786842 38.8000367,0.117286842 38.8000367,0.117286842" id="Fill-1" fill="#270089" fill-rule="nonzero" mask="url(#mask-2)"></path>
                    </g>
                </g>
                <path d="M12.9570628,3.06973408 C14.0189788,2.58145033 15.1930498,2.25898466 16.4787286,2.1027114 C17.7653193,1.94512806 18.9981121,1.96870942 20.177654,2.17457838 C21.3582901,2.37932443 22.136445,2.80697042 22.5124832,3.45789066 C22.980981,4.28866552 23.069246,5.33185973 22.7758195,6.58466597 C22.4831224,7.83822083 22.0979658,9.06744571 21.6232676,10.2723406 C21.1474753,11.4759255 20.7243866,12.5361507 20.3545488,13.4535776 C19.9848934,14.3698817 19.9586327,14.8931632 20.2744902,15.0267909 C20.5925362,15.1708991 21.1228559,14.872202 21.8700086,14.1306994 C22.6146081,13.3905069 23.4629738,12.5223013 24.413829,11.5283285 C25.3648666,10.5339814 26.3636841,9.57631637 27.4088224,8.6543977 C28.453049,7.73154327 29.4336298,7.17008245 30.3498356,6.96552356 C30.7951728,6.86764222 31.2157083,7.1751356 31.6083419,7.88650646 C32.0020696,8.59731585 32.3199332,9.48255241 32.5593795,10.5424033 C32.7995553,11.6024413 32.9383356,12.7148823 32.9733499,13.8778549 C33.0081817,15.0408274 32.8974857,16.013839 32.6390734,16.7978254 C32.3926972,17.5078862 31.8729547,18.1045319 31.0803929,18.5868268 C30.2876488,19.0674372 29.4567903,19.5141729 28.5876349,19.9247879 C27.7195737,20.3331571 26.9390481,20.7460179 26.2451463,21.1614989 C25.5532505,21.5769799 25.1896131,22.0695682 25.1531399,22.6347721 C25.1184904,23.2140125 25.53009,23.7219474 26.3866622,24.1640042 C27.2445108,24.6019437 28.1831476,25.0818055 29.2038489,25.5994724 C30.2263739,26.1171393 31.1416678,26.7341847 31.9511896,27.4517316 C32.762535,28.1681556 33.1024648,29.0874542 32.9733499,30.20944 C32.8551768,31.1021627 32.6680695,32.1290746 32.4091101,33.2903627 C32.1508801,34.454271 31.8074853,35.5304042 31.3796552,36.5167037 C30.9512779,37.5043133 30.4255174,38.2907328 29.8029205,38.8755878 C29.1814179,39.4589456 28.453049,39.632437 27.6203667,39.3889501 C26.7730953,39.1357313 25.8971924,38.4264191 24.9864576,37.2567091 C24.076817,36.0884963 23.2165976,34.8530953 22.4070758,33.5520034 C21.5962775,32.2522216 20.876115,31.0924307 20.248959,30.0722564 C19.6210736,29.0539537 19.1766482,28.5697873 18.9189653,28.6173243 C18.6486992,28.6760905 18.5553279,29.077535 18.6368454,29.8177275 C18.6916767,30.3130607 18.8148344,31.1907488 19.0063185,32.4507916 C19.2044893,33.8201322 19.3369477,34.8615796 19.4036936,35.5751339 C19.5029006,36.6495828 19.4425375,37.5464229 19.2176805,38.2697715 C19.0655874,38.7397143 18.5168487,39.1216948 17.5721939,39.4183332 C16.6262626,39.7121644 15.607932,39.8940777 14.5155609,39.9696878 C13.4244663,40.0409933 12.4291138,39.9865316 11.5302328,39.8059284 C10.632446,39.624015 10.1542829,39.2701076 10.0953788,38.7397143 C9.75417238,35.8605432 9.48153552,33.2035234 9.27600927,30.7692165 C9.07048302,28.3347223 8.97984722,25.8442693 9.00373714,23.2924299 C9.0258034,20.7460179 9.199598,18.0115166 9.52220309,15.0878029 C9.8462671,12.1676452 10.3888053,8.77211732 11.1523709,4.90365228 C11.2924278,4.16870006 11.8938702,3.55745638 12.9570628,3.06973408 Z" id="Fill-4" fill="#FFFFFF" fill-rule="nonzero"></path>
                <path d="M47.7506747,2.07538576 C50.9915241,1.83755678 53.3605176,2.16305533 54.8539694,3.04342691 C56.3476055,3.92563642 57.0609757,5.84554487 56.9959228,8.80609296 C56.9144685,11.763149 56.1388097,14.9990199 54.6691308,18.5142573 C53.1985304,22.0322515 51.9264058,24.7064491 50.8512826,26.5458559 C50.3127996,27.4646403 49.7571781,27.943239 49.1801794,27.9924957 C48.6087092,28.0399145 48.0575105,27.8627374 47.5236346,27.4572886 C46.9951031,27.0573536 46.5115372,26.5329903 46.0729371,25.8919181 C45.6380227,25.2506621 45.2771912,24.6935835 45.0079497,24.2206824 C44.3916981,23.197687 43.8815951,21.4880385 43.4861179,19.095229 C43.0904564,16.7005815 42.9338135,14.2638453 43.0254035,11.7855718 C43.1096221,9.30784962 43.5143136,7.10177446 44.2359767,5.16679493 C44.9567183,3.23622644 46.1278543,2.20330614 47.7506747,2.07538576" id="Fill-6" fill="#270089" fill-rule="nonzero"></path>
                <path d="M49.1190631,39.6134067 L48.1995671,38.2020897 C48.0459884,37.9664473 47.7873296,37.8219803 47.5078345,37.8158174 L45.8330189,37.7795647 C45.1290719,37.7643385 44.7479095,36.9414026 45.1876294,36.3867365 L46.2364548,35.0636948 C46.4106902,34.8440035 46.4669125,34.5518069 46.3869798,34.2822682 L45.9064852,32.6623169 C45.7047673,31.9822166 46.3625509,31.3635645 47.0206938,31.6142518 L48.5898903,32.2118773 C48.8510638,32.3115722 49.1442104,32.2751383 49.3735905,32.1147201 L50.7480744,31.1542053 C51.3271827,30.7496253 52.1146549,31.1908205 52.0805264,31.9008293 L51.9993362,33.5867604 C51.9856848,33.8691688 52.1107032,34.1399764 52.3336168,34.3110891 L53.6642725,35.3319647 C54.2245202,35.7619215 54.053518,36.6535563 53.3745387,36.8415264 L51.7607954,37.2879783 C51.4915388,37.3624775 51.2756306,37.5658551 51.1834834,37.8317685 L50.6311391,39.4254366 C50.3988851,40.09593 49.5057938,40.2068632 49.1190631,39.6134067" id="Fill-8" fill="#270089" fill-rule="nonzero"></path>
                <path d="M8,54.9302212 C8,55.2072065 7.89368717,55.4548226 7.68200735,55.6727177 C7.46976003,55.8911404 7.21476057,56 6.9168198,56 C6.6639012,56 6.41079343,55.8951852 6.15844233,55.6853799 L3.40982056,53.255823 L3.40982056,54.9553697 C3.40982056,55.2995349 3.29480597,55.5594615 3.06458761,55.7358527 C2.83418009,55.9118923 2.54777862,56 2.20500486,56 C1.8616636,56 1.57507297,55.9118923 1.34542212,55.7358527 C1.11520376,55.5594615 1,55.2995349 1,54.9553697 L1,48.0448062 C1,47.7008168 1.11520376,47.4405385 1.34542212,47.264499 C1.57507297,47.0881077 1.8616636,47 2.20500486,47 C2.54777862,47 2.83418009,47.0881077 3.06458761,47.264499 C3.29480597,47.4405385 3.40982056,47.7008168 3.40982056,48.0448062 L3.40982056,52.3117868 L5.914793,49.945365 C6.14028213,49.727294 6.40209167,49.6180827 6.70003243,49.6180827 C6.98927143,49.6180827 7.24351421,49.720963 7.46521998,49.9267235 C7.68597989,50.132484 7.79721111,50.3651516 7.79721111,50.625254 C7.79721111,50.8853564 7.67935899,51.1247069 7.44497892,51.3429537 L5.96908442,52.70238 L7.64795698,54.1998593 C7.88290455,54.4100164 8,54.6532359 8,54.9302212" id="Fill-10" fill="#270089" fill-rule="nonzero"></path>
                <path d="M9.85215284,55.7261705 C9.67864271,55.5439284 9.59181637,55.2704719 9.59181637,54.9054281 L9.59181637,50.3126282 C9.59181637,49.9475844 9.67864271,49.6739414 9.85215284,49.4915128 C10.0252352,49.3088976 10.2412318,49.2174967 10.5,49.2174967 C10.7581979,49.2174967 10.9741945,49.3088976 11.1477046,49.4915128 C11.3213573,49.6739414 11.4081836,49.9475844 11.4081836,50.3126282 L11.4081836,54.9054281 C11.4081836,55.2704719 11.3213573,55.5439284 11.1477046,55.7261705 C10.9741945,55.9087857 10.7581979,56 10.5,56 C10.2412318,56 10.0252352,55.9087857 9.85215284,55.7261705 M9.77045908,47.9694087 C9.58982036,47.7603059 9.5,47.4821862 9.5,47.1348629 C9.5,46.7877262 9.58982036,46.5118448 9.77045908,46.3072188 C9.95052752,46.1025928 10.1937553,46 10.5,46 C10.7991161,46 11.0407756,46.1025928 11.2244083,46.3072188 C11.4081836,46.5118448 11.5,46.7877262 11.5,47.1348629 C11.5,47.4821862 11.4096094,47.7603059 11.2295409,47.9694087 C11.0493299,48.1785115 10.8062447,48.2831561 10.5,48.2831561 C10.1937553,48.2831561 9.95052752,48.1785115 9.77045908,47.9694087" id="Fill-12" fill="#270089" fill-rule="nonzero"></path>
                <path d="M17.4265975,53.9317793 C17.6403585,53.6643641 17.7478683,53.2797906 17.7478683,52.7785842 C17.7478683,52.2854335 17.6403585,51.9075148 17.4265975,51.6441275 C17.211578,51.3810904 16.9030717,51.2493968 16.4996404,51.2493968 C16.1051983,51.2493968 15.8004674,51.3788138 15.586167,51.637823 C15.3716869,51.8968322 15.2641771,52.2687967 15.2641771,52.7533663 C15.2641771,53.2547478 15.3736645,53.6433492 15.5924594,53.9189952 C15.8114341,54.1948163 16.1134683,54.3326393 16.4996404,54.3326393 C16.9030717,54.3326393 17.211578,54.1991944 17.4265975,53.9317793 M19.6717177,47.2819505 C19.8905126,47.4700342 20,47.7104802 20,48.0027631 L20,54.9471513 C20,55.2646521 19.8969848,55.5154304 19.6907746,55.6991361 C19.4852835,55.8828417 19.2103965,55.9749572 18.8675519,55.9749572 C18.5502363,55.9749572 18.2906308,55.8933492 18.0889151,55.7304833 C17.8871995,55.5674424 17.7739367,55.3439835 17.7478683,55.0599315 C17.5679063,55.3523895 17.3038062,55.5819777 16.956467,55.7492217 C16.6091278,55.9164656 16.2247534,56 15.804962,56 C15.2641771,56 14.7820012,55.8642785 14.3569961,55.5924852 C13.9327101,55.3212173 13.5999332,54.9387453 13.3601038,54.4454195 C13.1195552,53.952444 13,53.388543 13,52.7533663 C13,52.1185399 13.1177573,51.5607682 13.3538114,51.0802265 C13.5896856,50.5995097 13.9199456,50.2298218 14.3442316,49.9708126 C14.7692367,49.7118034 15.2559071,49.5823864 15.804962,49.5823864 C16.2083933,49.5823864 16.579284,49.6617178 16.9183532,49.8202055 C17.2567033,49.9792186 17.5208034,50.1923451 17.7097545,50.4595851 L17.7097545,47.9652864 C17.7097545,47.6726533 17.8102527,47.438687 18.0119684,47.2633873 C18.2135042,47.0877374 18.4858743,47 18.8287189,47 C19.1717434,47 19.4529227,47.094217 19.6717177,47.2819505" id="Fill-14" fill="#270089" fill-rule="nonzero"></path>
                <path d="M27,55.1951157 C27,55.7316484 26.6669287,56 25.9999127,56 L22.06244,56 C21.7707624,56 21.5327046,55.9107199 21.3496638,55.7316484 C21.1662737,55.5529178 21.0747533,55.3373846 21.0747533,55.0853897 C21.0747533,54.8170382 21.1784997,54.5693029 21.3875644,54.3413318 L24.0123133,51.5975011 L22.0000873,51.5975011 C21.3330713,51.5975011 21,51.3291495 21,50.7926168 C21,50.2644328 21.3330713,50 22.0000873,50 L25.7873548,50 C26.0792071,50 26.3170902,50.0896209 26.4999563,50.2683516 C26.6835211,50.447423 26.7750415,50.6626154 26.7750415,50.9146103 C26.7750415,51.1747835 26.6712951,51.4186 26.462929,51.6462303 L23.8250808,54.4026693 L25.9999127,54.4026693 C26.6669287,54.4026693 27,54.6665909 27,55.1951157" id="Fill-16" fill="#270089" fill-rule="nonzero"></path>
                <path d="M33.5,55.1763725 C33.5,55.4659142 33.3726769,55.680646 33.1180308,55.8210875 C32.8633847,55.9613559 32.4994069,56.019195 32.0280743,55.9944315 L31.632068,55.9696681 C30.7827204,55.9120022 30.1389877,55.6868801 29.7002768,55.2943019 C29.2617635,54.9018967 29.0427046,54.3543306 29.0427046,53.6521228 L29.0427046,51.4578752 L28.632068,51.4578752 C27.8772242,51.4578752 27.5,51.1853043 27.5,50.6398162 C27.5,50.1031598 27.8772242,49.8343986 28.632068,49.8343986 L29.0427046,49.8343986 L29.0427046,49.0288079 C29.0427046,48.7148492 29.1553974,48.4647905 29.3819692,48.278805 C29.6087386,48.0928196 29.9151839,48 30.3020957,48 C30.6882167,48 30.9954527,48.0928196 31.2214314,48.278805 C31.4480032,48.4647905 31.561289,48.7148492 31.561289,49.0288079 L31.561289,49.8343986 L32.3392645,49.8343986 C33.0941083,49.8343986 33.4711348,50.1031598 33.4711348,50.6398162 C33.4711348,51.1853043 33.0941083,51.4578752 32.3392645,51.4578752 L31.561289,51.4578752 L31.561289,53.837762 C31.561289,53.9948279 31.6152629,54.1273036 31.7236062,54.2344964 C31.8319494,54.3420354 31.9713325,54.4000477 32.1413602,54.4080135 L32.5519968,54.432777 C33.1836694,54.4658526 33.5,54.7136601 33.5,55.1763725" id="Fill-18" fill="#270089" fill-rule="nonzero"></path>
                <path d="M34.8521779,55.7261705 C34.6786555,55.5439284 34.5918229,55.2704719 34.5918229,54.9054281 L34.5918229,50.3126282 C34.5918229,49.9475844 34.6786555,49.6739414 34.8521779,49.4915128 C35.0252727,49.3088976 35.2411421,49.2174967 35.4999287,49.2174967 C35.7582876,49.2174967 35.9742996,49.3088976 36.1478221,49.4915128 C36.3214871,49.6739414 36.4081771,49.9475844 36.4081771,50.3126282 L36.4081771,54.9054281 C36.4081771,55.2704719 36.3214871,55.5439284 36.1478221,55.7261705 C35.9742996,55.9087857 35.7582876,56 35.4999287,56 C35.2411421,56 35.0252727,55.9087857 34.8521779,55.7261705 M34.7704784,47.9694087 C34.5898268,47.7603059 34.5,47.4821862 34.5,47.1348629 C34.5,46.7877262 34.5898268,46.5118448 34.7704784,46.3072188 C34.9505596,46.1025928 35.1938048,46 35.4999287,46 C35.7992087,46 36.0408854,46.1025928 36.2245313,46.3072188 C36.4081771,46.5118448 36.5,46.7877262 36.5,47.1348629 C36.5,47.4821862 36.4097455,47.7603059 36.2296642,47.9694087 C36.0494404,48.1785115 35.8061952,48.2831561 35.4999287,48.2831561 C35.1938048,48.2831561 34.9505596,48.1785115 34.7704784,47.9694087" id="Fill-20" fill="#270089" fill-rule="nonzero"></path>
                <path d="M47.4479603,49.6658083 C47.8164543,50.1095526 48,50.8576281 48,51.909843 L48,54.8747226 C48,55.2500068 47.8934137,55.5311344 47.6805918,55.7184889 C47.467244,55.9062269 47.2016549,56 46.8834739,56 C46.5658188,56 46.300405,55.9062269 46.0868818,55.7184889 C45.873534,55.5311344 45.7667724,55.2500068 45.7667724,54.8747226 L45.7667724,51.8549982 C45.7667724,51.4891105 45.7085707,51.2325288 45.5912908,51.0860203 C45.4740108,50.9398954 45.3027365,50.8666411 45.076942,50.8666411 C44.7836544,50.8666411 44.5496205,50.9811248 44.3741388,51.2099006 C44.1984818,51.4386763 44.1104781,51.7541298 44.1104781,52.1568364 L44.1104781,54.8747226 C44.1104781,55.2500068 44.0056449,55.5311344 43.7965044,55.7184889 C43.5875392,55.9062269 43.320197,56 42.9937766,56 C42.6755956,56 42.4101818,55.9062269 42.1973599,55.7184889 C41.9840121,55.5311344 41.8772505,55.2500068 41.8772505,54.8747226 L41.8772505,51.8549982 C41.8772505,51.4891105 41.8183476,51.2325288 41.7017688,51.0860203 C41.5844889,50.9398954 41.4125134,50.8666411 41.1867188,50.8666411 C40.8939572,50.8666411 40.6620269,50.9811248 40.4907526,51.2099006 C40.3189524,51.4386763 40.2334029,51.7541298 40.2334029,52.1568364 L40.2334029,54.8747226 C40.2334029,55.2500068 40.1266413,55.5311344 39.9132935,55.7184889 C39.6997703,55.9062269 39.4343565,56 39.1167014,56 C38.7985204,56 38.5329313,55.9062269 38.3201094,55.7184889 C38.1067616,55.5311344 38,55.2500068 38,54.8747226 L38,50.1254691 C38,49.7685944 38.110443,49.4964797 38.3325561,49.3089335 C38.5539681,49.1211955 38.8195572,49.0272306 39.1291482,49.0272306 C39.4219098,49.0272306 39.6662868,49.1119908 39.8629806,49.2813193 C40.059499,49.4506479 40.1618779,49.6953401 40.1706432,50.0155878 C40.5806847,49.3386571 41.2079309,49 42.0527321,49 C42.9480217,49 43.5459916,49.3981043 43.8468173,50.194121 C44.0559578,49.8282333 44.3362726,49.5375175 44.6879372,49.3223571 C45.0390758,49.1075802 45.4361447,49 45.8796697,49 C46.5570535,49 47.0801676,49.2220639 47.4479603,49.6658083" id="Fill-22" fill="#270089" fill-rule="nonzero"></path>
                <g id="Group-26" transform="translate(49.000000, 49.000000)">
                    <g id="Fill-24-Clipped">
                        <mask id="mask-4" fill="white">
                            <use xlink:href="#path-3"></use>
                        </mask>
                        <g id="path-5"></g>
                        <path d="M2.45969143,1.99638108 C2.28809143,2.19957027 2.18540571,2.49546216 2.15266286,2.8833 L4.07934857,2.8833 C4.03032,2.08908378 3.71900571,1.69178649 3.14694857,1.69178649 C2.86066286,1.69178649 2.63129143,1.79319189 2.45969143,1.99638108 M5.70517714,4.99597568 C5.82346286,5.1583 5.88277714,5.37038108 5.88277714,5.63221892 C5.88277714,5.99338108 5.72334857,6.26865135 5.40414857,6.45802973 C5.12643429,6.61184054 4.79694857,6.74067838 4.41672,6.84397568 C4.03632,6.94784054 3.68694857,7.00005676 3.36774857,7.00005676 C2.69677714,7.00005676 2.11203429,6.86005676 1.61283429,6.58024595 C1.11414857,6.30043514 0.729634286,5.8985973 0.459634286,5.37473243 C0.189634286,4.85124595 0.0550628571,4.23732703 0.0550628571,3.53354324 C0.0550628571,2.86532703 0.183634286,2.26711081 0.441462857,1.73927297 C0.698605714,1.21105676 1.05894857,0.800327027 1.52112,0.506705405 C1.98277714,0.213462162 2.50460571,0.0668405405 3.08574857,0.0668405405 C3.64992,0.0668405405 4.14483429,0.202110811 4.57014857,0.47302973 C4.99546286,0.743759459 5.32477714,1.12762432 5.55774857,1.62405676 C5.79123429,2.12048919 5.90780571,2.7030027 5.90780571,3.37084054 C5.90780571,3.57857027 5.86460571,3.73862432 5.77854857,3.85138108 C5.69300571,3.96451622 5.56803429,4.02089459 5.40414857,4.02089459 L2.16552,4.02089459 C2.22243429,4.45394865 2.34929143,4.76573243 2.54574857,4.95511081 C2.74186286,5.14486757 3.03226286,5.23965135 3.41694857,5.23965135 C3.62129143,5.23965135 3.80952,5.21486757 3.98112,5.16492162 C4.15272,5.11535405 4.34506286,5.04554324 4.55797714,4.95511081 C4.68054857,4.90081351 4.80123429,4.85370541 4.91952,4.81284054 C5.03832,4.77235405 5.14700571,4.75192162 5.24472,4.75192162 C5.43277714,4.75192162 5.58620571,4.83327297 5.70517714,4.99597568" id="Fill-24" fill="#270089" fill-rule="nonzero" mask="url(#mask-4)"></path>
                    </g>
                </g>
            </g>
        </g>
    </g>
</svg>