<svg width="18" height="16" viewBox="0 0 18 16" fill="none" xmlns="http://www.w3.org/2000/svg">
<mask id="mask0_110_1282" style="mask-type:alpha" maskUnits="userSpaceOnUse" x="1" y="0" width="16" height="16">
<path fill-rule="evenodd" clip-rule="evenodd" d="M1 0H17V16H1V0Z" fill="white"/>
</mask>
<g mask="url(#mask0_110_1282)">
<rect x="1.3291" y="2.39746" width="15.3" height="11" fill="white"/>
</g>
<path fill-rule="evenodd" clip-rule="evenodd" d="M16.4646 12.9499V3.02357C14.8291 4.6846 13.1788 6.36111 11.5195 8.04621C13.1748 9.68764 14.8103 11.3095 16.4646 12.9499ZM1.54574 3.02254V12.9495C3.20035 11.3088 4.83558 9.68695 6.49085 8.04517C4.83023 6.3587 3.18063 4.68289 1.54574 3.02254ZM16.0138 13.2676C14.3782 11.6444 12.7727 10.0518 11.1619 8.4533C11.1165 8.49731 11.0784 8.53169 11.0423 8.56917C10.6118 9.01408 10.1827 9.46071 9.75127 9.90425C9.30111 10.3667 8.7049 10.3646 8.25441 9.90012C7.82697 9.45968 7.40154 9.01718 6.97477 8.57639C6.93533 8.53582 6.89356 8.49834 6.84744 8.45399C5.23227 10.0559 3.62511 11.6499 1.99424 13.2676H16.0138ZM1.9919 2.56285C2.03701 2.61304 2.06341 2.64296 2.09115 2.67184C3.84435 4.51028 5.59688 6.34907 7.35107 8.18649C7.77149 8.62659 8.19659 9.06222 8.61968 9.49991C8.87902 9.76741 9.13301 9.76878 9.39134 9.4975C9.89565 8.96973 10.3949 8.43748 10.8999 7.91039C12.5659 6.17097 14.2332 4.43327 15.9005 2.69488C15.9352 2.65843 15.9683 2.61992 16.0195 2.56285H1.9919ZM1 2.01444C1.06183 2.00997 1.12365 2.00069 1.18548 2.00069C6.39159 2 11.5977 2 16.8042 2H17V13.8174C16.9449 13.8204 16.89 13.8259 16.8352 13.8259C11.6084 13.8263 6.38123 13.8263 1.15406 13.8256C1.1026 13.8256 1.05147 13.8167 1 13.8122V2.01444Z" fill="black"/>
<path d="M16.4646 3.02357H16.5146V2.90153L16.429 2.98849L16.4646 3.02357ZM11.5195 8.04621L11.4839 8.01112L11.4489 8.04663L11.4843 8.08171L11.5195 8.04621ZM1.54574 12.9495H1.49574V13.0695L1.58095 12.985L1.54574 12.9495ZM6.49085 8.04517L6.52606 8.08067L6.56143 8.04559L6.52648 8.01009L6.49085 8.04517ZM16.0138 13.2676V13.3176H16.1351L16.049 13.2321L16.0138 13.2676ZM11.1619 8.4533L11.1971 8.41781L11.1623 8.38328L11.1271 8.41738L11.1619 8.4533ZM11.0423 8.56917L11.0782 8.60393L11.0783 8.60385L11.0423 8.56917ZM9.75127 9.90425L9.7871 9.93913L9.78711 9.93911L9.75127 9.90425ZM8.25441 9.90012L8.2903 9.86531L8.29029 9.8653L8.25441 9.90012ZM6.97477 8.57639L7.01069 8.54161L7.01062 8.54154L6.97477 8.57639ZM6.84744 8.45399L6.8821 8.41795L6.8469 8.3841L6.81223 8.41848L6.84744 8.45399ZM1.99424 13.2676L1.95902 13.2321L1.87283 13.3176H1.99424V13.2676ZM1.9919 2.56285V2.51285H1.87973L1.95471 2.59627L1.9919 2.56285ZM2.09115 2.67184L2.12734 2.63733L2.12721 2.6372L2.09115 2.67184ZM7.35107 8.18649L7.31491 8.22101L7.31492 8.22103L7.35107 8.18649ZM8.61968 9.49991L8.58373 9.53466L8.58379 9.53471L8.61968 9.49991ZM9.39134 9.4975L9.35519 9.46296L9.35513 9.46302L9.39134 9.4975ZM10.8999 7.91039L10.936 7.94498L10.936 7.94498L10.8999 7.91039ZM15.9005 2.69488L15.9366 2.72949L15.9367 2.72938L15.9005 2.69488ZM16.0195 2.56285L16.0567 2.59621L16.1314 2.51285H16.0195V2.56285ZM1 2.01444L0.996395 1.96457L0.95 1.96793V2.01444H1ZM1.18548 2.00069V2.05069H1.18549L1.18548 2.00069ZM17 2H17.05V1.95H17V2ZM17 13.8174L17.0028 13.8673L17.05 13.8646V13.8174H17ZM16.8352 13.8259V13.7759H16.8352L16.8352 13.8259ZM1.15406 13.8256L1.15407 13.7756H1.15406V13.8256ZM1 13.8122H0.95V13.858L0.995674 13.862L1 13.8122ZM16.5146 12.9499V3.02357H16.4146V12.9499H16.5146ZM16.429 2.98849C14.7934 4.64956 13.1432 6.32599 11.4839 8.01112L11.5551 8.08129C13.2144 6.39622 14.8647 4.71965 16.5002 3.05866L16.429 2.98849ZM11.4843 8.08171C13.1396 9.72314 14.7751 11.345 16.4294 12.9854L16.4998 12.9144C14.8455 11.274 13.21 9.65213 11.5547 8.0107L11.4843 8.08171ZM1.49574 3.02254V12.9495H1.59574V3.02254H1.49574ZM1.58095 12.985C3.23556 11.3443 4.87079 9.72245 6.52606 8.08067L6.45564 8.00968C4.80037 9.65145 3.16514 11.2733 1.51054 12.914L1.58095 12.985ZM6.52648 8.01009C4.86553 6.32328 3.2166 4.64815 1.58137 2.98746L1.51012 3.05762C3.14467 4.71762 4.79493 6.39412 6.45522 8.08026L6.52648 8.01009ZM16.049 13.2321C14.4134 11.6089 12.808 10.0162 11.1971 8.41781L11.1267 8.48879C12.7375 10.0873 14.343 11.6798 15.9786 13.3031L16.049 13.2321ZM11.1271 8.41738C11.0834 8.45973 11.0431 8.49626 11.0063 8.53448L11.0783 8.60385C11.1137 8.56712 11.1495 8.53489 11.1967 8.48922L11.1271 8.41738ZM11.0063 8.5344C10.5757 8.9795 10.1468 9.42589 9.71543 9.86939L9.78711 9.93911C10.2186 9.49553 10.6479 9.04866 11.0782 8.60393L11.0063 8.5344ZM9.71545 9.86937C9.49825 10.0925 9.24911 10.2005 9.00311 10.1998C8.75709 10.1991 8.50776 10.0895 8.2903 9.86531L8.21851 9.93493C8.45155 10.1752 8.72557 10.299 9.00282 10.2998C9.28009 10.3006 9.55414 10.1784 9.7871 9.93913L9.71545 9.86937ZM8.29029 9.8653C7.86279 9.4248 7.43771 8.98265 7.01069 8.54161L6.93885 8.61117C7.36537 9.0517 7.79115 9.49456 8.21853 9.93495L8.29029 9.8653ZM7.01062 8.54154C6.9705 8.50026 6.92649 8.46064 6.8821 8.41795L6.81278 8.49002C6.86063 8.53604 6.90016 8.57137 6.93891 8.61124L7.01062 8.54154ZM6.81223 8.41848C5.19706 10.0204 3.5899 11.6144 1.95902 13.2321L2.02945 13.3031C3.66033 11.6854 5.26748 10.0914 6.88265 8.48949L6.81223 8.41848ZM1.99424 13.3176H16.0138V13.2176H1.99424V13.3176ZM1.95471 2.59627C1.99936 2.64595 2.0266 2.67681 2.05509 2.70647L2.12721 2.6372C2.10022 2.6091 2.07466 2.58014 2.02908 2.52942L1.95471 2.59627ZM2.05497 2.70635C3.80815 4.54478 5.5607 6.38359 7.31491 8.22101L7.38724 8.15196C5.63305 6.31456 3.88055 4.47579 2.12734 2.63733L2.05497 2.70635ZM7.31492 8.22103C7.73547 8.66126 8.16087 9.0972 8.58373 9.53466L8.65563 9.46516C8.23232 9.02723 7.80752 8.59191 7.38723 8.15195L7.31492 8.22103ZM8.58379 9.53471C8.71846 9.67362 8.85893 9.7509 9.00594 9.75075C9.15305 9.7506 9.29331 9.67295 9.42755 9.53198L9.35513 9.46302C9.23104 9.59334 9.11514 9.65064 9.00584 9.65075C8.89644 9.65086 8.78025 9.5937 8.65558 9.46511L8.58379 9.53471ZM9.42749 9.53204C9.93286 9.00316 10.4304 8.47271 10.936 7.94498L10.8638 7.8758C10.3594 8.40226 9.85843 8.9363 9.35519 9.46296L9.42749 9.53204ZM10.936 7.94498C12.602 6.20557 14.2693 4.46789 15.9366 2.72949L15.8644 2.66027C14.1971 4.39865 12.5298 6.13637 10.8638 7.87581L10.936 7.94498ZM15.9367 2.72938C15.9721 2.69219 16.0065 2.65227 16.0567 2.59621L15.9822 2.52948C15.9302 2.58757 15.8984 2.62467 15.8643 2.66037L15.9367 2.72938ZM16.0195 2.51285H1.9919V2.61285H16.0195V2.51285ZM1.00361 2.06431C1.07098 2.05944 1.12566 2.05069 1.18548 2.05069V1.95069C1.12164 1.95069 1.05267 1.9605 0.996395 1.96457L1.00361 2.06431ZM1.18549 2.05069C6.3916 2.05 11.5977 2.05 16.8042 2.05V1.95C11.5977 1.95 6.39159 1.95 1.18547 1.95069L1.18549 2.05069ZM16.8042 2.05H17V1.95H16.8042V2.05ZM16.95 2V13.8174H17.05V2H16.95ZM16.9972 13.7674C16.939 13.7707 16.8883 13.7759 16.8352 13.7759V13.8759C16.8918 13.8759 16.9507 13.8702 17.0028 13.8673L16.9972 13.7674ZM16.8352 13.7759C11.6084 13.7763 6.38124 13.7763 1.15407 13.7756L1.15406 13.8756C6.38123 13.8763 11.6084 13.8763 16.8352 13.8759L16.8352 13.7759ZM1.15406 13.7756C1.10512 13.7756 1.06194 13.7674 1.00433 13.7624L0.995674 13.862C1.04099 13.8659 1.10008 13.8756 1.15406 13.8756V13.7756ZM1.05 13.8122V2.01444H0.95V13.8122H1.05Z" fill="white"/>
</svg>