<svg width="20" height="21" viewBox="0 0 20 21" fill="none" xmlns="http://www.w3.org/2000/svg">
<path fill-rule="evenodd" clip-rule="evenodd" d="M10.4618 19.0716C10.4389 19.102 10.4142 19.1346 10.3873 19.1711C10.3612 19.1363 10.3376 19.1058 10.3161 19.0781C10.2756 19.0258 10.2423 18.9828 10.2124 18.9375C9.81499 18.3357 9.41743 17.734 9.01988 17.1323C7.7671 15.2362 6.51433 13.3401 5.2663 11.4409C4.58395 10.4026 4.09193 9.28432 3.91937 8.04153C3.79248 7.12733 3.90514 6.23422 4.19043 5.36536C4.63671 4.00623 5.44989 2.90715 6.61338 2.07354C7.47483 1.4564 8.43178 1.0607 9.48485 0.933472C11.8625 0.646209 13.855 1.41256 15.4 3.23389C16.5156 4.54904 17.018 6.10366 16.8734 7.83282C16.7862 8.87691 16.4591 9.86565 15.9076 10.7541C15.2354 11.8371 14.5354 12.903 13.8355 13.9688C13.6674 14.2247 13.4993 14.4807 13.3317 14.7368C12.6527 15.7741 11.9689 16.8081 11.285 17.8421C11.0498 18.1977 10.8146 18.5534 10.5796 18.9091C10.5448 18.9618 10.5067 19.0123 10.4618 19.0716ZM9.42774 19.3332C9.63039 19.6414 9.86598 19.8939 10.2301 20H10.5428C10.9069 19.8941 11.1433 19.642 11.3455 19.3337C11.8543 18.5579 12.3658 17.7838 12.8772 17.0097C13.435 16.1655 13.9927 15.3214 14.547 14.475C14.725 14.2032 14.9049 13.9325 15.0848 13.6617C15.6399 12.8262 16.1952 11.9904 16.6956 11.1231C17.5476 9.64632 17.9515 8.04841 17.6949 6.32449C17.4527 4.69846 16.7628 3.28753 15.5874 2.14889C13.724 0.34363 11.4868 -0.322521 8.93238 0.144111C7.78081 0.354453 6.74591 0.849675 5.82708 1.57784C4.58586 2.56148 3.73333 3.81284 3.29236 5.33363C2.99516 6.35893 2.90925 7.40145 3.10577 8.46167C3.3396 9.7229 3.84537 10.868 4.54774 11.9328C5.01184 12.6363 5.47613 13.3398 5.94044 14.0432C7.10389 15.8059 8.26736 17.5685 9.42774 19.3332ZM7.34193 7.38937C7.33601 5.72079 8.71351 4.33968 10.3853 4.33825C12.0552 4.33682 13.4349 5.71793 13.4309 7.38712C13.4269 9.0621 12.0518 10.4304 10.3778 10.4254C8.71072 10.4204 7.34785 9.05747 7.34193 7.38937ZM6.4766 7.3761C6.47306 9.53533 8.2236 11.2893 10.3841 11.2915C12.5428 11.2938 14.2967 9.5403 14.2963 7.38059C14.2958 5.23313 12.5489 3.48082 10.3984 3.47081C8.24769 3.46067 6.48014 5.22081 6.4766 7.3761Z" fill="black"/>
</svg>
