<?xml version="1.0" encoding="UTF-8"?>
<svg width="330px" height="245px" viewBox="0 0 330 245" version="1.1" xmlns="http://www.w3.org/2000/svg" xmlns:xlink="http://www.w3.org/1999/xlink">
    <!-- Generator: Sketch 64 (93537) - https://sketch.com -->
    <title>illustration</title>
    <desc>Created with Sketch.</desc>
    <g id="Symbols" stroke="none" stroke-width="1" fill="none" fill-rule="evenodd">
        <g id="After-Purchase/Desktop/Popup" transform="translate(-148.000000, 0.000000)">
            <g id="Group-101">
                <g id="Group-100">
                    <g id="Group-2" transform="translate(82.000000, 0.000000)">
                        <g id="illustration" transform="translate(66.000000, 0.000000)">
                            <path d="M145.5,0 C170.23809,0 192.867609,9.02786456 210.273674,23.9687102 C217.671458,14.2630639 229.354321,8 242.5,8 C264.867532,8 283,26.1324676 283,48.5 C283,53.565322 282.070103,58.4134548 280.371708,62.8829997 C309.072129,71.4305309 330,98.0212824 330,129.5 C330,167.88379 298.88379,199 260.5,199 C240.061357,199 221.683335,190.17743 208.966545,176.1329 C191.743206,190.41463 169.624213,199 145.5,199 C140.029808,199 134.662717,198.558574 129.432405,197.709401 C117.352857,218.229566 95.034557,232 69.5,232 C31.1162099,232 0,200.88379 0,162.5 C0,132.352061 19.1958014,106.687541 46.0317972,97.0620477 C47.3232246,43.236522 91.3623969,0 145.5,0 Z" id="Combined-Shape" fill="#E8E8EF"></path>
                            <g id="smile" transform="translate(45.000000, 35.000000)">
                                <path d="M161,72 C161,107.898821 131.897763,137 96,137 C60.1011794,137 31,107.898821 31,72 C31,36.1011794 60.1011794,7 96,7 C131.897763,7 161,36.1011794 161,72 Z" id="Path" fill="#FFE176"></path>
                                <path d="M41.7635708,72 C41.7635708,37.9250915 67.8305429,9.97747051 101,7.22627098 C99.2246416,7.0793006 97.4303626,7 95.6182146,7 C59.9302501,7 31,36.1011794 31,72 C31,107.898821 59.9302501,137 95.6182146,137 C97.4303626,137 99.2246416,136.920699 101,136.773729 C67.8305429,134.022529 41.7635708,106.074909 41.7635708,72 Z" id="Path" fill="#FFC261"></path>
                                <path d="M65.9805417,77 L58.0194583,77 C56.9034973,77 56,76.1041667 56,75 C56,73.8958333 56.9034973,73 58.0194583,73 L65.9805417,73 C67.0965027,73 68,73.8958333 68,75 C68,76.1041667 67.0965027,77 65.9805417,77 Z" id="Path" fill="#FF8EB3"></path>
                                <path d="M133.980719,77 L126.019281,77 C124.90447,77 124,76.1041667 124,75 C124,73.8958333 124.90447,73 126.019281,73 L133.980719,73 C135.09553,73 136,73.8958333 136,75 C136,76.1041667 135.09553,77 133.980719,77 Z" id="Path" fill="#FF8EB3"></path>
                                <path d="M109.467567,98 C109.844136,97.6920762 110.204748,97.3721162 110.555786,97.0421263 C114.538476,93.2898696 117,88.1033099 117,82.3751252 C117,81.1685053 116.480889,80.0732197 115.63946,79.2828484 C114.802287,78.4904714 113.639605,78 112.359911,78 L108.294248,78 L94.999468,82.0320963 L81.7057515,78 L77.6400888,78 C75.0775088,78 73,79.9588766 73,82.3751252 C73,88.1033099 75.4625874,93.2898696 79.4452772,97.0421263 C79.7952518,97.3721162 80.1558637,97.6910732 80.5324323,98 L109.467567,98 Z" id="Path" fill="#4B3F4E"></path>
                                <path d="M110,98.173516 C106.126723,101.803653 101.052976,104 95.499467,104 C89.947024,104 84.8732767,101.803653 81,98.173516 C83.8327267,94.4908674 89.2646962,92 95.499467,92 C101.735304,92 107.167273,94.4908674 110,98.173516 Z" id="Path" fill="#F55D67"></path>
                                <path d="M108,77 L108,80.7728573 C108,83.6590374 105.825965,86 103.143268,86 L86.8577714,86 C84.1750751,86 82,83.6590374 82,80.7728573 L82,77 L108,77 Z" id="Path" fill="#ECEAEC"></path>
                                <g id="Group" transform="translate(119.000000, 2.000000)" fill="#FFFF7F">
                                    <path d="M26.6041559,22.532244 C25.8201525,26.1924465 23.1342533,28.8894925 19.3251793,29.6654262 C17.9970224,29.9358588 17.0492442,31.0955991 17.0492442,32.4602441 L17.0492442,32.6110622 C17.0492442,33.9517843 18.0044184,35.106324 19.3378586,35.3798771 C23.1384797,36.1589312 25.8190959,38.8528567 26.6030994,42.5068187 C26.885214,43.8215376 28.0189549,44.7878143 29.4189613,44.7878143 L29.6006979,44.7878143 C30.9573834,44.7878143 32.135502,43.8548216 32.4102203,42.5463433 C33.1984504,38.7987705 35.93718,36.1547707 39.6532724,35.3829973 C40.9888256,35.1052839 41.970415,33.9892291 41.970415,32.6453863 L41.970415,32.3978365 C41.970415,31.0539941 40.9888256,29.9379392 39.6532724,29.6602256 C35.93718,28.8884524 33.1984504,26.2444527 32.4102203,22.4958395 C32.135502,21.1884015 30.9573834,20.2554085 29.5658299,20.2554085 L29.3830367,20.2554085 C28.0200115,20.2554085 26.885214,21.2196051 26.6041559,22.532244 L26.6041559,22.532244 Z" id="Path"></path>
                                    <path d="M7.67923938,1.86910589 C7.08225531,4.65664287 5.03560451,6.71297166 2.1331006,7.30376308 C1.12086969,7.50970784 0.398149402,8.39381485 0.398149402,9.43394059 L0.398149402,9.54835429 C0.398149402,10.5697576 1.1272092,11.4497041 2.14261028,11.6577293 C5.0387744,12.2506008 7.08119877,14.3038092 7.67818257,17.0882257 C7.89373072,18.0898669 8.75697989,18.8262759 9.82415471,18.8262759 L9.96257051,18.8262759 C10.9969901,18.8262759 11.894051,18.1148299 12.1032594,17.1183893 C12.7034131,14.2632442 14.7912717,12.2474807 17.6219262,11.6598094 C18.6394404,11.447624 19.3875193,10.5978411 19.3875193,9.57435737 L19.3875193,9.38505462 C19.3875193,8.36157089 18.6394404,7.5107479 17.6219262,7.29960231 C14.7902152,6.71089127 12.7034131,4.69616778 12.1032594,1.83998237 C11.894051,0.843542041 10.9969901,0.133136095 9.93615536,0.133136095 L9.79668275,0.133136095 C8.7580367,0.133136095 7.89373072,0.868505059 7.67923938,1.86910589 L7.67923938,1.86910589 Z" id="Path"></path>
                                </g>
                                <path d="M69,66.8561459 L69,59.1438541 C69,57.960268 68.1052083,57 67,57 C65.8958333,57 65,57.960268 65,59.1438541 L65,66.8561459 C65,68.0397323 65.8958333,69 67,69 C68.1052083,69 69,68.0397323 69,66.8561459 Z" id="Path" fill="#000000"></path>
                                <path d="M125,57 C123.895833,57 123,57.960268 123,59.1438541 L123,66.8561459 C123,68.0397323 123.895833,69 125,69 C126.105208,69 127,68.0397323 127,66.8561459 L127,59.1438541 C127,57.960268 126.105208,57 125,57 Z" id="Path" fill="#000000"></path>
                                <path d="M80.2210471,99.0155103 C84.5588125,102.827725 90.2409131,105 95.999469,105 C102.317634,105 108.503064,102.409154 112.969316,97.8939549 C117.502467,93.3154341 120,87.2236185 120,80.7422101 C120,77.0662996 116.963033,74 113.329292,74 L78.6707076,74 C74.9923676,74 72,77.0244425 72,80.7422101 C72,87.6765335 75.0412141,94.4638209 80.2210471,99.0155103 L80.2210471,99.0155103 Z M84.638453,97.2832709 C84.6692477,97.2585859 84.6979181,97.2317545 84.7287127,97.2070695 C87.871867,94.6977911 92.0567219,93.7179061 95.999469,93.7179061 C99.9517731,93.7179061 104.118576,94.6902782 107.271287,97.2070695 C107.302082,97.2317545 107.330752,97.2585859 107.361547,97.2832709 C104.045307,99.6143885 100.085569,100.878687 95.999469,100.878687 C91.9144303,100.878687 87.9546932,99.6143885 84.638453,97.2832709 L84.638453,97.2832709 Z M107.231998,78.1213128 L107.231998,79.6775376 C107.231998,81.3045976 105.922704,82.6279253 104.312899,82.6279253 L87.6881621,82.6279253 C86.0772957,82.6279253 84.7680021,81.3045976 84.7680021,79.6775376 L84.7680021,78.1213128 L107.231998,78.1213128 Z M76.0776055,80.7422101 C76.0776055,79.2976042 77.2403599,78.1213128 78.6707076,78.1213128 L80.6903966,78.1213128 L80.6903966,79.6775376 C80.6903966,83.5766861 83.8293033,86.7492381 87.6881621,86.7492381 L104.312899,86.7492381 C108.170696,86.7492381 111.309603,83.5766861 111.309603,79.6775376 L111.309603,78.1213128 L113.330354,78.1213128 C114.74265,78.1213128 115.922395,79.3169227 115.922395,80.7422101 C115.922395,85.9271222 113.997212,90.8115219 110.489834,94.5614872 C110.469659,94.5432419 110.448422,94.5271429 110.428246,94.5099708 C106.502489,91.0465656 101.128332,89.5965933 96.0005308,89.5965933 C90.9014003,89.5965933 85.4762737,91.0658842 81.5728157,94.5099708 C81.5526403,94.5271429 81.5314028,94.5432419 81.511227,94.5614872 C78.0027873,90.8115219 76.0776055,85.9281954 76.0776055,80.7422101 L76.0776055,80.7422101 Z" id="Shape" fill="#000000" fill-rule="nonzero"></path>
                                <path d="M48.8027279,119.420021 C61.5664394,132.046619 78.5378154,139 96.5901569,139 C112.579709,139 128.093807,133.371073 140.276525,123.150846 C141.138953,122.427459 141.245557,121.149403 140.514253,120.297366 C139.782948,119.444275 138.490907,119.338825 137.629545,120.062212 C126.184527,129.663446 111.610678,134.950715 96.5901569,134.950715 C79.6315735,134.950715 63.6878613,128.41808 51.6970298,116.55705 C39.7051324,104.694966 33.1010071,88.9249003 33.1010071,72.1498948 C33.1010071,63.347973 34.8866262,54.8940368 38.4130905,46.9620787 C38.425883,46.9726236 38.4408074,46.982114 38.4536002,46.9937136 C41.1464201,49.2102753 45.5086607,47.7972436 46.2239744,44.3764417 C46.7815138,41.7138261 48.6406896,39.8652853 51.3249815,39.3053451 C53.5935172,38.8308197 55.0870408,36.7977413 55.0870408,34.5558716 C55.0870408,32.3582913 53.5402153,30.50026 51.3249815,30.0373339 C50.8409987,29.9371565 50.3612803,29.7874172 49.9092788,29.5881165 C52.6223536,26.6808567 55.6221937,24.0182409 58.8522984,21.6519401 C59.7605655,20.9865501 59.9513869,19.717985 59.2787149,18.81955 C58.6060431,17.9211149 57.3235954,17.7323592 56.4153283,18.3977495 C52.9794775,20.9148437 49.7909482,23.7535613 46.9041086,26.8474677 C46.5970887,26.2790915 46.3668238,25.6506088 46.2239744,24.9662376 C45.7602464,22.7486214 43.6558812,21.2744288 41.426789,21.2744288 C39.2040932,21.2744288 37.3267944,22.8034555 36.8598685,24.9936547 C36.2938006,27.6499431 34.4250304,29.490048 31.7322102,30.0404975 C29.5702786,30.483388 28,32.4067982 28,34.6149236 C28,36.8251582 29.4913917,38.8403101 31.7418048,39.3032362 C33.6819995,39.7028922 35.1915138,40.7763744 36.0944508,42.3391453 C31.4603699,51.534396 29.0084748,61.8157828 29.0084748,72.1498948 C29.0084748,90.0068187 36.0379507,106.793423 48.8027279,119.420021 Z M32.5754488,35.339366 C31.9443524,35.2096626 31.9155693,34.1393438 32.5626563,34.0064765 C36.8577363,33.128077 39.9620483,30.0710779 40.8660512,25.8288197 C40.9993063,25.204555 42.077074,25.1223037 42.2156595,25.7876941 C43.0034637,29.5522633 45.5214532,32.387817 49.0671061,33.6078752 C49.5297681,33.7671049 49.9998922,33.8999719 50.4785449,34.0001496 C51.1608113,34.1425071 51.1693396,35.1991174 50.4796109,35.3425296 C46.193059,36.2378011 43.1036718,39.3085087 42.2156595,43.5560396 C42.1367723,43.931442 41.790309,44.0189657 41.4587701,44.0189657 C40.7061452,44.0189657 40.7232018,42.9022488 40.5622295,42.4024154 C39.3885182,38.7485684 36.4771596,36.1428961 32.5754488,35.339366 Z" id="Shape" fill="#000000" fill-rule="nonzero"></path>
                                <path d="M160.09756,30.433114 C157.126873,29.7940505 155.071133,27.6873897 154.455566,24.6547829 C153.969206,22.258028 151.803168,20.7090755 149.470108,20.7090755 C147.16541,20.7090755 145.217867,22.3436646 144.733607,24.6847558 C144.677933,24.9534407 144.607552,25.2124914 144.528768,25.4661901 C141.757668,22.5245719 138.735509,19.835582 135.498008,17.4463203 C136.181854,16.6916477 137.09785,16.1649824 138.194525,15.9294817 C140.232408,15.4905942 141.550729,13.6536887 141.550729,11.5770007 C141.550729,9.55490603 140.170431,7.8453848 138.195576,7.42041314 C136.12723,6.97510271 134.69546,5.50857545 134.266874,3.39656238 C133.849844,1.34128349 132.009447,0 129.997826,0 C128.012466,0 126.33489,1.40551096 125.91891,3.41797153 C125.482971,5.52570278 124.043848,6.98473676 121.97025,7.42255419 C121.050051,7.61630697 120.251706,8.12156303 119.666602,8.81521966 C112.255643,6.00847929 104.467571,4.58369996 96.4862149,4.58369996 C85.124495,4.58369996 73.9024857,7.55743173 64.0324118,13.1826873 C63.0607411,13.7371843 62.7130405,14.9885493 63.2571762,15.9797933 C63.8002613,16.9699667 65.0292934,17.3242883 66.0020147,16.769791 C75.2712284,11.4870822 85.8125431,8.69425772 96.4862149,8.69425772 C104.173443,8.69425772 111.669489,10.0976279 118.786321,12.8669022 C118.94494,13.4567245 119.232764,14.0112214 119.617231,14.4790117 C120.209688,15.2005001 121.030093,15.6886288 121.922979,15.9134248 C123.950357,16.4251037 125.477719,17.8038533 125.917859,19.9287119 C126.33489,21.9422429 128.024021,23.3477541 130.024087,23.3488245 C131.50943,23.3488245 133.006329,22.5673902 133.77106,21.2517977 C136.806874,23.5511409 139.63785,26.1298736 142.22302,28.9516005 C141.687288,29.3894176 141.084327,29.74588 140.425691,30.0167058 C139.561167,30.3720977 138.59895,30.4652276 137.773293,30.9169607 C136.465477,31.6320267 135.52637,32.9390556 135.263756,34.4569645 C134.804707,37.1138408 136.443417,39.7846329 139.071655,40.3423414 C141.944649,40.9514318 144.121192,43.1394474 144.732556,46.089629 C145.204211,48.3686335 147.196923,50.06745 149.504773,50.06745 C151.344119,50.06745 153.16981,49.0580082 154.022779,47.3688261 C157.357973,55.2773679 159.046054,63.6911659 159.046054,72.4453692 C159.046054,88.4626286 153.191869,103.775527 142.561266,115.565549 C141.80809,116.400506 141.861663,117.701112 142.682068,118.46863 C143.477263,119.213669 144.782978,119.177273 145.531953,118.346598 C156.847452,105.796551 163.079801,89.4945499 163.079801,72.4453692 C163.079801,62.0694223 160.717328,51.7448573 156.248693,42.4939613 C157.228767,41.4245739 158.534483,40.6795354 160.096509,40.3434118 C162.479991,39.8306624 164,37.6843947 164,35.259808 C164.00105,32.9122939 162.395955,30.926595 160.09756,30.433114 Z M130.025138,19.2329145 C129.948455,19.2222098 129.887528,19.1879551 129.865469,19.0809094 C129.771978,18.6281057 129.644873,18.1710204 129.490456,17.7364144 C128.69106,15.4852417 127.135336,13.7275502 125.070142,12.6966993 C124.368438,12.3466598 123.61001,12.0758338 122.799059,11.9034902 C122.726577,11.8885037 122.670903,11.821065 122.670903,11.7450625 L122.673004,11.6155371 C122.676156,11.5288299 122.721325,11.4613912 122.787504,11.4474753 C126.449389,10.6756751 129.095485,7.99096705 129.865469,4.26577407 C129.882276,4.18870112 129.932698,4.11055777 129.997826,4.11055777 L130.136486,4.11055777 C130.229977,4.11055777 130.301407,4.1587283 130.316114,4.22937865 C131.073492,7.95992384 133.706982,10.656407 137.361515,11.4421228 C137.438198,11.4592502 137.515931,11.5106321 137.515931,11.5770007 L137.515931,11.7718238 C137.515931,11.8392627 137.438198,11.8906447 137.361515,11.907772 C134.253219,12.5757377 131.888645,14.6299462 130.783566,17.5223229 C130.58503,18.0425655 130.426411,18.5745829 130.316114,19.1205165 C130.302458,19.1879551 130.236279,19.2383336 130.162747,19.2383336 C130.114426,19.2383336 130.067156,19.2393371 130.025138,19.2329145 L130.025138,19.2329145 Z M159.952597,35.5145768 C159.903226,35.9095756 159.718345,36.2232199 159.264549,36.3217021 C154.85684,37.2701275 151.41555,40.7972858 150.504806,45.289997 C150.313623,46.2341408 148.865046,46.1313769 148.680166,45.2396857 C147.749463,40.739481 144.34704,37.2615638 139.894161,36.3174202 C139.412002,36.2146563 139.225021,35.7800503 139.225021,35.3251058 C139.225021,34.9311774 139.482383,34.5447422 139.881556,34.4612463 C144.309223,33.5256664 147.74316,30.0648766 148.681216,25.5314879 C148.865046,24.6397964 150.314674,24.5498782 150.504806,25.4865285 C151.447064,30.1248222 154.721331,33.4764252 159.264549,34.4537531 C159.776121,34.5650807 160.015624,35.0114618 159.952597,35.5145768 Z" id="Shape" fill="#000000" fill-rule="nonzero"></path>
                                <path d="M8.73815331,128.083372 C8.02177254,131.430496 5.5651576,133.896635 2.08257563,134.606 C0.867475598,134.85355 0,135.914479 0,137.161589 L0,137.299926 C0,138.525194 0.874871926,139.581962 2.09314158,139.831592 C5.56938403,140.543038 8.020716,143.007096 8.7370965,146.34798 C8.994909,147.550365 10.0314422,148.434472 11.3120516,148.434472 L11.4789959,148.434472 C12.7194545,148.434472 13.7961385,147.580529 14.0476115,146.385424 C14.7682184,142.95821 17.272381,140.539918 20.6704342,139.833672 C21.8918738,139.579882 22.789991,138.559518 22.789991,137.33113 L22.789991,137.103342 C22.789991,135.874954 21.8918738,134.85459 20.6704342,134.6008 C17.272381,133.894554 14.7682184,131.477302 14.0476115,128.050088 C13.7961385,126.853943 12.7194545,126 11.446241,126 L11.2792969,126 C10.0324988,126 8.994909,126.883067 8.73815331,128.083372 Z" id="Path" stroke="#000000" stroke-width="4" fill="#FFFF7F" stroke-linecap="round" stroke-linejoin="round"></path>
                                <path d="M33.4376294,146.526183 C32.9098526,148.978134 31.0999992,150.784715 28.5342887,151.304364 C27.6390923,151.485708 27,152.262895 27,153.176472 L27,153.277811 C27,154.175386 27.6445414,154.949526 28.5420729,155.132394 C31.103113,155.653567 32.9090743,157.458624 33.4368508,159.906003 C33.6267881,160.786816 34.3904296,161.434472 35.3338885,161.434472 L35.4568808,161.434472 C36.3707596,161.434472 37.1639813,160.808912 37.3492481,159.933433 C37.8801383,157.422812 39.7250213,155.651281 42.2284573,155.133918 C43.1283242,154.948003 43.789991,154.200531 43.789991,153.300669 L43.789991,153.133802 C43.789991,152.233941 43.1283242,151.486469 42.2284573,151.300554 C39.7250213,150.783191 37.8801383,149.012422 37.3492481,146.501801 C37.1639813,145.62556 36.3707596,145 35.4327494,145 L35.3097573,145 C34.391208,145 33.6267881,145.646894 33.4376294,146.526183 Z" id="Path-Copy" stroke="#000000" stroke-width="4" fill="#FFFF7F" stroke-linecap="round" stroke-linejoin="round"></path>
                            </g>
                            <g id="1-ballon" transform="translate(57.946515, 89.381544) rotate(-345.000000) translate(-57.946515, -89.381544) translate(24.446515, 36.881544)">
                                <path d="M33.6824779,65 C35.1341177,66.3333333 35.8599375,70.1666667 35.8599375,76.5 C35.8599375,86 22.9444977,95.5 29.4022176,105" id="Path-10" stroke="#000000" stroke-width="5" stroke-linecap="round"></path>
                                <g id="balloons">
                                    <path d="M33.5,57 C36.8773606,57 39.9444534,59.5424812 41.6316632,61.6969332 C42.3277807,62.5861206 42.0010437,63.8633373 40.9561323,64.361438 C38.8792496,65.3512462 36.1485989,66 33.5,66 C30.8514011,66 28.1207504,65.3512462 26.0438677,64.361438 C24.9989563,63.8633373 24.6722193,62.5861206 25.3683368,61.6969332 C27.0555466,59.5424812 30.1229335,57 33.5,57 Z" id="Path" stroke="#000000" stroke-width="4" fill="#B49CDC"></path>
                                    <path d="M48.2042363,-2 C42.463281,-2 37.2646211,0.348980549 33.5003243,4.15054524 C29.7358198,0.349309642 24.5368337,-2 18.7954763,-2 C13.0505242,-2 7.84847849,0.351899666 4.08331795,4.15743627 C0.325837271,7.95521064 -2,13.201301 -2,18.9970314 C-2,26.9791705 1.4256755,34.7951128 6.70980302,41.5552473 C12.6583065,49.1653369 20.9432479,55.4229467 29.0682175,59.0548777 C31.8871351,60.3149539 35.1125775,60.3149539 37.9314929,59.0548787 C46.0566451,55.4227763 54.3416622,49.1651659 60.2901943,41.5551129 C65.5743371,34.7950239 69,26.9791588 69,18.9970314 C69,13.2013191 66.6741051,7.9552396 62.9165666,4.15746482 C59.1513309,0.351910412 53.9491979,-2 48.2042363,-2 Z" id="Path" stroke="#000000" stroke-width="4" fill="#B49CDC"></path>
                                    <path d="M0,18.9970314 C0,8.50522299 8.41498411,0 18.7954763,0 C24.7494799,0 30.0559781,2.79876446 33.4998563,7.1652437 C36.9437345,2.79876446 42.2502327,0 48.2042363,0 C58.5847285,0 67,8.50522299 67,18.9970314 C67,35.247294 51.7880769,50.6699821 37.1153105,57.2289963 C34.8155598,58.2570012 32.1841528,58.2570012 29.8844021,57.2289963 C15.2119231,50.6702726 0,35.247294 0,18.9970314 Z" id="Path" fill="#B49CDC"></path>
                                    <path d="M37.0568149,57.22895 C38.3707317,56.6406948 39.6889527,55.9798155 41,55.2547365 C16.6215208,51.9587645 9.47030129,11.2192609 18.6226686,0 C8.32482066,0.0784340241 0,8.55076111 0,18.9946872 C0,35.2459265 15.1879484,50.6695416 29.8375897,57.22895 C32.133429,58.2570167 34.7609756,58.2570167 37.0568149,57.22895 L37.0568149,57.22895 Z" id="Path" fill="#908CD6"></path>
                                    <ellipse id="Oval" fill="#FFFFFF" cx="16" cy="30.5" rx="7" ry="5.5"></ellipse>
                                    <ellipse id="Oval" fill="#FFFFFF" cx="52" cy="30.5" rx="7" ry="5.5"></ellipse>
                                    <path d="M36.0386061,24.1390547 C36.8256257,23.2363125 38.195248,23.1423672 39.0982099,23.9291953 C40.0011717,24.7160234 40.0948508,26.0853125 39.3086986,26.9877656 C37.9370524,28.5608438 35.9550467,29.4632969 33.8709772,29.4632969 C31.7871968,29.4632969 29.8051911,28.5608438 28.4335449,26.9877656 C27.6468144,26.0853125 27.7404935,24.7160234 28.6434554,23.9291953 C29.5461281,23.1423672 30.9157504,23.2363125 31.7030591,24.1390547 C32.2503876,24.7671875 33.0405876,25.1276484 33.870688,25.1276484 C34.7007884,25.1276484 35.4909885,24.7671875 36.0386061,24.1390547 Z M48.2937908,20.8957734 C49.4913791,20.8957734 50.4622872,21.8664453 50.4622872,23.0637422 L50.4622872,23.0637422 L50.4622872,25.4574687 C50.4622872,26.6547656 49.4916682,27.6254375 48.2937908,27.6254375 C47.0959135,27.6254375 46.1252945,26.6547656 46.1252945,25.4574687 L46.1252945,25.4574687 L46.1252945,23.0637422 C46.1252945,21.8664453 47.0959135,20.8957734 48.2937908,20.8957734 Z M19.4478744,20.8957734 C20.6457518,20.8957734 21.6163707,21.8664453 21.6163707,23.0637422 L21.6163707,23.0637422 L21.6163707,25.4574687 C21.6163707,26.6547656 20.6457518,27.6254375 19.4478744,27.6254375 C18.249997,27.6254375 17.279378,26.6547656 17.279378,25.4574687 L17.279378,25.4574687 L17.279378,23.0637422 C17.279378,21.8664453 18.249997,20.8957734 19.4478744,20.8957734 Z" id="Combined-Shape" fill="#000000" fill-rule="nonzero"></path>
                                </g>
                            </g>
                            <g id="balloons-copy" transform="translate(189.500000, 180.000000) rotate(-15.000000) translate(-189.500000, -180.000000) translate(106.000000, 109.000000)">
                                <path d="M133.000064,59 C137.370809,59 141.340068,62.3899051 143.523275,65.2629348 C144.424094,66.44846 144.001538,68.1514229 142.6493,68.8155756 C139.961564,70.1351681 136.42785,71 133.000064,71 C129.572278,71 126.038564,70.1351681 123.350828,68.8155756 C121.99859,68.1517039 121.575745,66.44846 122.476852,65.2629348 C124.66006,62.3901862 128.629319,59 133.000064,59 Z" id="Path" fill="#A3DEFE"></path>
                                <path d="M135.723241,5.80646377 L145.026662,2.47989554 C150.407899,0.555943159 156.032794,4.66480645 155.875745,10.4053137 L155.604374,20.3298659 C155.552986,22.2091157 156.147405,24.0485976 157.287742,25.5385867 L163.309012,33.407401 C166.791805,37.9589359 164.643352,44.6074279 159.165113,46.2312345 L149.693962,49.0384981 C147.900601,49.5699943 146.344257,50.7070072 145.287352,52.2576641 L139.705184,60.4472338 C136.476441,65.1842554 129.523559,65.1842554 126.294816,60.4472338 L120.712648,52.2576641 C119.655743,50.7070072 118.099399,49.5699943 116.306038,49.0384981 L106.834887,46.2312345 C101.356648,44.6074279 99.2081951,37.9586456 102.690988,33.407401 L108.712258,25.5385867 C109.852306,24.0485976 110.446725,22.2091157 110.395626,20.3298659 L110.124255,10.4053137 C109.967206,4.66480645 115.592101,0.555652882 120.973338,2.47989554 L130.276759,5.80646377 C132.037786,6.43636369 133.961348,6.43636369 135.723241,5.80646377 L135.723241,5.80646377 Z" id="Path" fill="#A3DEFE"></path>
                                <path d="M123.681785,3.47079153 L120.917721,2.47979068 C115.551391,0.555844098 109.942078,4.66469501 110.098692,10.4054753 L110.369599,20.3299975 C110.420844,22.2092417 109.828072,24.0490083 108.690894,25.5387026 L102.686303,33.4074932 C99.2131587,37.9590144 101.355661,44.6074864 106.818723,46.231288 L116.263638,49.0385432 C118.052032,49.5700378 119.604064,50.7070473 120.658042,52.2576994 L126.224746,60.4472445 C129.444545,65.1842518 136.377879,65.1842518 139.597965,60.4472445 L143,55.4423129 C129.218261,49.3903572 117.773927,28.5767269 123.681785,3.47079153 Z" id="Path" fill="#7ACEFA"></path>
                                <path d="M125.911249,22.9110754 C124.190921,24.6313462 121.045546,24.2747395 118.885294,22.1145586 C116.725327,19.9546629 116.368709,16.8091063 118.088751,15.0888355 C119.809079,13.3685646 122.954454,13.7254566 125.114706,15.8853523 C127.274673,18.0455332 127.631291,21.1908045 125.911249,22.9110754 Z" id="Path" fill="#FFFFFF"></path>
                                <ellipse id="Oval" fill="#FFFFFF" transform="translate(143.590035, 40.648399) rotate(-45.000000) translate(-143.590035, -40.648399) " cx="143.590035" cy="40.6483992" rx="4.4593881" ry="5.60001298"></ellipse>
                                <path d="M98.0001018,88 C102.370832,88 106.340077,91.3898257 108.523277,94.2627881 C109.424092,95.4482856 109.001538,97.1512085 107.649304,97.8153457 C104.961578,99.1351883 101.427876,100 98.0001018,100 C94.5723273,100 91.0386255,99.1351883 88.3508993,97.8153457 C86.998666,97.1514896 86.5758225,95.4482856 87.4766379,94.2627881 C89.6601268,91.3898257 93.6293718,88 98.0001018,88 Z" id="Path" fill="#EEA849"></path>
                                <ellipse id="Oval" fill="#FFFFFF" cx="7" cy="26.5" rx="7" ry="5.5"></ellipse>
                                <ellipse id="Oval" fill="#FFFFFF" cx="43" cy="26.5" rx="7" ry="5.5"></ellipse>
                                <path d="M127,57.317814 C127,41.1261269 114.016164,28 98,28 C81.9838357,28 69,41.1261269 69,57.317814 C69,73.5095012 81.9838357,94 98,94 C114.016164,94 127,73.5097916 127,57.317814 Z" id="Path" fill="#F7EF87"></path>
                                <path d="M98.07534,94 C101.561052,94 104.902773,93.0308632 108,91.349357 C86.0069558,91.6460078 71.5837579,52.0403655 87.1018564,30 C76.4840282,34.378146 69,44.9169627 69,57.2246214 C69,73.4574442 82.0175668,94 98.07534,94 L98.07534,94 Z" id="Path" fill="#EFD176"></path>
                                <path d="M75,78 C80.3793958,87.058015 88.6823257,94 98,94 C107.317674,94 115.620604,87.057717 121,78 L75,78 Z" id="Path" fill="#EEA849"></path>
                                <path d="M97.9838036,94 C101.501665,94 104.874207,93.0080083 108,91.2868477 C99.8467819,91.398294 92.7273568,85.9952322 87.7545709,78 L75,78 C80.3756077,87.0578463 88.6726908,94 97.9838036,94 L97.9838036,94 Z" id="Path" fill="#E9901B"></path>
                                <path d="M125,46 C120.677681,35.4454714 110.218448,28 98,28 C85.7815525,28 75.3220306,35.4454714 71,46 L125,46 Z" id="Path" fill="#89D47F"></path>
                                <path d="M71,46 L80.9007532,46 C81.6820426,40.2376416 83.6381491,34.7122775 87,30 C79.7397744,32.9543771 73.9452593,38.749236 71,46 L71,46 Z" id="Path" fill="#5EC783"></path>
                                <path d="M87,65.5001472 C87,68.5377881 83.8660726,71 80,71 C76.1339274,71 73,68.5374936 73,65.5001472 C73,62.4628008 76.1339274,60 80,60 C83.8660726,60.0002945 87,62.4628008 87,65.5001472 Z" id="Path" fill="#EDA1AB"></path>
                                <path d="M110,65.5001472 C110,68.5377881 113.133927,71 117,71 C120.866073,71 124,68.5374936 124,65.5001472 C124,62.4628008 120.866073,60 117,60 C113.133927,60.0002945 110,62.4628008 110,65.5001472 Z" id="Path" fill="#EDA1AB"></path>
                                <path d="M104,61.7663141 C104,58.3234835 101.537522,58 98.5,58 C95.4624782,58 93,58.3234835 93,61.7663141 C93,65.2091447 95.4624782,68 98.5,68 C101.537522,67.9997054 104,65.2088501 104,61.7663141 Z" id="Path" fill="#4E5660"></path>
                                <path d="M144.106677,0.918421875 C148.162343,-0.523710937 152.597352,0.661445313 155.405121,3.9368125 C156.184623,4.84620313 156.079089,6.214625 155.169767,6.9939375 C154.260444,7.77353906 152.8914,7.66745313 152.112187,6.75864063 C150.481767,4.85689844 147.909352,4.16864063 145.559569,5.00374219 L145.559569,5.00374219 L136.241685,8.31639844 C134.014784,9.10814063 131.561781,9.10842969 129.333723,8.3166875 L129.333723,8.3166875 L120.015839,5.00374219 C118.130982,4.33398438 116.122376,4.62391406 114.504099,5.79895313 C112.885823,6.97428125 111.989222,8.79479688 112.044157,10.7939531 L112.044157,10.7939531 L112.315942,20.677 C112.380997,23.0392188 111.622891,25.3722422 110.181274,27.2456563 L110.181274,27.2456563 L109.682231,27.8937344 C114.279154,29.6677109 118.303883,32.4788438 121.520775,36.00425 C121.60578,36.0973281 121.689629,36.1912734 121.773477,36.2852188 C121.927874,36.4586563 122.081404,36.6326719 122.232042,36.8095781 C122.391933,36.9968906 122.549799,37.1856484 122.705353,37.3767188 L122.705353,37.3767188 L122.895313,37.6123047 C126.466393,42.0812109 128.841908,47.5442031 129.534381,53.5130547 C129.535249,53.5223047 129.536405,53.5318438 129.537562,53.5413828 C129.624012,54.2929453 129.684152,55.0526016 129.716246,55.8194844 C129.719426,55.896375 129.722318,55.9735547 129.72492,56.0507344 C129.737642,56.4152422 129.746316,56.7806172 129.746316,57.1480156 C129.746316,57.4471953 129.741111,57.7478203 129.732726,58.0493125 C129.730413,58.1241797 129.726944,58.1999141 129.724342,58.2750703 C129.715957,58.5135469 129.705548,58.7528906 129.692248,58.9928125 C129.6882,59.0633438 129.683863,59.133875 129.679526,59.2046953 C129.663334,59.4709219 129.643673,59.7374375 129.621121,60.0051094 L129.621121,60.0051094 L129.611001,60.1247813 C129.582956,60.4439063 129.55144,60.7636094 129.51472,61.0844688 C130.654193,61.8316953 132.034224,62.1687422 133.432759,62.0201641 C135.189531,61.8340078 136.709502,60.9249063 137.713371,59.4605156 L137.713371,59.4605156 L143.304044,51.3051953 C144.640416,49.3554688 146.625313,47.9139141 148.892982,47.2453125 L148.892982,47.2453125 L158.378274,44.4495 C160.296959,43.8840938 161.751587,42.4688438 162.369753,40.5671016 C162.987919,38.6653594 162.642983,36.665625 161.423132,35.0809844 L161.423132,35.0809844 L155.392977,27.2450781 C153.951072,25.3719531 153.192965,23.0392188 153.25802,20.6767109 L153.25802,20.6767109 L153.405478,15.3229844 C153.438439,14.1259766 154.450404,13.1847891 155.632668,13.2154297 C156.829967,13.2483828 157.773697,14.2453594 157.740736,15.4423672 L157.740736,15.4423672 L157.593278,20.7960938 C157.555691,22.1645156 157.994884,23.5161719 158.830188,24.6013125 L158.830188,24.6013125 L164.860632,32.4372188 C166.93516,35.1324375 167.545809,38.672875 166.495389,41.9077734 C165.444102,45.1423828 162.868507,47.6473984 159.605643,48.6091094 L159.605643,48.6091094 L150.119483,51.4046328 C148.805953,51.7919766 147.656071,52.6273672 146.881774,53.7567344 L146.881774,53.7567344 L142.089686,60.7468438 C143.181162,61.7230078 144.206138,62.8370547 145.071802,64.0063125 C145.881085,65.0995469 146.164435,66.4893594 145.848413,67.8187578 C145.531812,69.1524922 144.649957,70.2702969 143.429527,70.8854219 C140.905109,72.157875 137.889164,72.9912422 134.905313,73.2649844 C134.707546,77.53675 133.939898,81.5460469 133.193068,85.4402969 C131.511761,94.2064063 130.059446,101.777531 135.980309,109.157586 C136.729741,110.091547 136.579681,111.455922 135.645493,112.205172 C135.245333,112.526031 134.765951,112.682125 134.290038,112.682125 C133.654813,112.682125 133.025371,112.404336 132.597165,111.870438 C125.422623,102.928 127.128218,94.0370156 128.933852,84.6236953 C129.639047,80.9462422 130.363036,77.1618359 130.562827,73.2511094 C129.209685,73.1195859 127.839195,72.8744609 126.511786,72.5218047 C125.037787,76.1243906 123.098862,79.6055703 120.76903,82.7430547 C117.578449,87.0396797 113.951567,90.3511797 110.082969,92.5697344 C110.286519,92.8194844 110.483418,93.0715469 110.670776,93.3247656 C111.480348,94.4182891 111.763409,95.8081016 111.447387,97.1375 C111.130497,98.4706563 110.248931,99.5884609 109.028502,100.203586 C106.504083,101.476039 103.488138,102.309406 100.504576,102.583148 C100.306809,106.854914 99.5391617,110.864211 98.7923316,114.758461 C97.1110241,123.52457 95.6587098,131.095695 101.579572,138.475461 C102.329005,139.409422 102.178945,140.773797 101.244756,141.523047 C100.844597,141.843906 100.365503,142 99.8893016,142 C99.2540767,142 98.6246345,141.722211 98.1964288,141.188312 C91.0218864,132.245875 92.727481,123.354602 94.5331157,113.94157 C95.2380215,110.265273 95.961721,106.481734 96.161801,102.571875 C93.2129351,102.288305 90.2383364,101.460719 87.7436982,100.203297 C86.5235576,99.5881719 85.6417024,98.4706562 85.3248128,97.1372109 C85.0090798,95.8078125 85.2918517,94.418 86.1014237,93.3241875 C86.2916731,93.0669219 86.491753,92.8105234 86.6987721,92.5567266 C86.1627198,92.2482969 85.629848,91.9181875 85.0998675,91.5663984 C84.10207,90.9038672 83.8305743,89.5585703 84.4929776,88.5610156 C85.1556701,87.5634609 86.5018726,87.2926094 87.4990918,87.9542734 C88.6908974,88.7454375 89.8968705,89.4021875 91.1126741,89.9294375 C91.1297329,89.9366641 91.1467918,89.9436016 91.1638506,89.9514063 C93.5428357,90.9755547 95.9596971,91.4958672 98.3860999,91.4958672 C100.771446,91.4958672 103.151009,90.9920313 105.470433,90.0216484 C105.596206,89.9525625 105.727761,89.8967734 105.862497,89.8545703 C109.971942,88.0363672 113.881886,84.7436563 117.286714,80.1582578 C119.744632,76.8482031 121.721723,73.1288359 123.111006,69.3161016 C123.128643,69.2458594 123.150039,69.1759063 123.175193,69.1065313 C123.200348,69.0374453 123.228683,68.9703828 123.259909,68.9056328 C124.096949,66.5318516 124.702971,64.1265625 125.054268,61.7649219 C125.05687,61.7409297 125.05687,61.7172266 125.06034,61.6932344 C125.230639,60.5430547 125.338196,59.4116641 125.38359,58.3149609 C125.385325,58.2672656 125.38706,58.2195703 125.388795,58.171875 C125.401227,57.8273125 125.409034,57.4853516 125.409034,57.1483047 C125.409034,56.8025859 125.40036,56.4586016 125.387349,56.1154844 C125.385036,56.05825 125.383301,56.0010156 125.380699,55.9437813 C125.365375,55.5992188 125.344268,55.2555234 125.315933,54.9135625 C125.314198,54.8918828 125.311885,54.8704922 125.31015,54.8488125 C124.86691,49.6696797 122.940707,44.833375 119.911462,40.8350625 C119.86867,40.7786953 119.825589,40.7229063 119.78222,40.6668281 C119.611631,40.4454063 119.437573,40.2265859 119.260335,40.0103672 C119.172727,39.9042813 119.083675,39.7996406 118.994622,39.6947109 C118.894293,39.5764844 118.792807,39.459125 118.690743,39.3423438 C115.87748,36.1398203 112.321436,33.6050313 108.292948,32.0122969 C108.283406,32.0085391 108.274154,32.0050703 108.264613,32.0013125 C107.919966,31.8654531 107.571272,31.7379766 107.219976,31.6159922 C107.124273,31.58275 107.02857,31.5495078 106.932289,31.5174219 C106.76517,31.4616328 106.597473,31.4064219 106.428908,31.3538125 C106.187482,31.2786563 105.944611,31.2066797 105.700004,31.1381719 C103.372774,30.4831563 100.919482,30.1319453 98.3855217,30.1319453 C83.4850605,30.1319453 71.3622987,42.2514688 71.3622987,57.1485938 C71.3622987,57.9397578 71.3975729,58.7439297 71.4640734,59.5567734 C71.4649408,59.5671797 71.4663865,59.5775859 71.4669647,59.5879922 C72.0807938,66.9955078 75.3988823,75.1421563 80.4355764,81.3867734 C81.1870327,82.3187109 81.0410206,83.6836641 80.1085672,84.4352266 C79.1761138,85.1870781 77.8108285,85.0405234 77.0593722,84.1085859 C72.0325086,77.8761094 68.5522165,69.8913359 67.4222854,62.3138516 C67.4109826,62.3154594 67.3996833,62.3170459 67.3883871,62.3186128 C66.9141427,58.1941885 66.9554682,54.4829405 67.5122989,51.1846279 L67.6044391,51.1465 C70.1047328,38.3044413 80.4695501,28.2396298 93.4659553,26.1834491 L93.5346407,26.1941746 C95.6987184,25.8812643 97.4391203,25.7335456 98.7558465,25.7510183 L98.7368181,25.8006328 C100.968634,25.8249141 103.144937,26.0833359 105.242596,26.5527734 L105.242596,26.5527734 L106.744352,24.6016016 C107.579368,23.5161719 108.01885,22.1648047 107.980973,20.7963828 L107.980973,20.7963828 L107.708899,10.9130469 C107.615509,7.51338281 109.202849,4.29033594 111.954815,2.29117969 C114.707071,0.291734375 118.264561,-0.2210625 121.468731,0.918421875 L121.468731,0.918421875 L130.786616,4.23107813 C132.077015,4.68953125 133.498393,4.68982031 134.788792,4.23107813 L134.788792,4.23107813 Z M90.7833518,94.4691641 C90.3545678,94.9331094 89.9486253,95.4155547 89.5874984,95.9034922 C89.5380566,95.9702656 89.5236,96.0480234 89.5441284,96.1347422 C89.5588742,96.1971797 89.5970397,96.2821641 89.6962123,96.3318828 C92.1989462,97.5933516 95.4473537,98.3463594 98.3858108,98.3463594 C101.324268,98.3463594 104.572965,97.5933516 107.075409,96.3318828 C107.174293,96.2821641 107.212747,96.1971797 107.227493,96.1347422 C107.248022,96.0480234 107.233854,95.9702656 107.184123,95.9037813 C106.824153,95.4172891 106.419656,94.9365781 105.992607,94.4740781 C103.508956,95.3698828 100.958226,95.8320938 98.3858108,95.8320938 C95.8177329,95.8320938 93.2762552,95.3750859 90.7833518,94.4691641 Z M98.3855217,55.7203359 C100.329362,55.7203359 101.897618,55.8587969 103.232256,56.5354922 C104.504729,57.1806797 106.021231,58.5797422 106.021231,61.5833906 C106.021231,66.1514453 102.596163,69.8676328 98.3858108,69.8676328 C94.1754583,69.8676328 90.7503907,66.1514453 90.7498124,61.5833906 C90.7498124,58.5800313 92.2666033,57.1806797 93.5387878,56.5354922 C94.8737141,55.8590859 96.4416816,55.7203359 98.3855217,55.7203359 Z M139.304469,64.0696172 C137.772354,65.3215469 135.899352,66.1187813 133.890457,66.3318203 C133.520945,66.3711328 133.152011,66.3905 132.784813,66.3905 C131.379916,66.3905 130.0048,66.1043281 128.735796,65.5637813 C128.515477,66.5147969 128.260751,67.4669688 127.972486,68.4168281 C129.567342,68.8122656 131.22205,69.0279063 132.786837,69.0279063 C135.725872,69.0279063 138.974569,68.2748984 141.476724,67.0134297 C141.575319,66.9637109 141.613773,66.8787266 141.628808,66.8162891 C141.649337,66.7295703 141.634591,66.6521016 141.585438,66.5853281 C140.918409,65.6837422 140.136015,64.8249375 139.304469,64.0696172 Z M98.3858108,60.0562734 C95.2656767,60.0562734 95.0970208,60.428481 95.0879043,61.4094974 L95.0873833,61.5836797 C95.0873833,63.7608984 96.5671652,65.5319844 98.3858108,65.5319844 C100.204456,65.5319844 101.684238,63.7606094 101.684238,61.5836797 C101.684238,60.4722344 101.684238,60.0562734 98.3858108,60.0562734 Z M81.1416388,54.2793594 C82.3395162,54.2793594 83.3101352,55.2500313 83.3101352,56.4473281 L83.3101352,56.4473281 L83.3101352,59.3570313 C83.3101352,60.5543281 82.3395162,61.525 81.1416388,61.525 C79.9437615,61.525 78.9731425,60.5543281 78.9731425,59.3570313 L78.9731425,59.3570313 L78.9731425,56.4473281 C78.9731425,55.2500313 79.9437615,54.2793594 81.1416388,54.2793594 Z M115.629983,54.2793594 C116.82786,54.2793594 117.798479,55.2500313 117.798479,56.4473281 L117.798479,56.4473281 L117.798479,59.3570313 C117.798479,60.5543281 116.82786,61.525 115.629983,61.525 C114.432105,61.525 113.461486,60.5543281 113.461486,59.3570313 L113.461486,59.3570313 L113.461486,56.4473281 C113.461486,55.2500313 114.432105,54.2793594 115.629983,54.2793594 Z M144.381353,32.2513516 C145.228223,31.4046875 146.601315,31.4049766 147.448185,32.2516406 C148.295055,33.0983047 148.295055,34.4707734 147.447896,35.3174375 L147.447896,35.3174375 L146.047914,36.7167891 C145.624624,37.1399766 145.069489,37.3515703 144.514643,37.3515703 C143.959508,37.3515703 143.404662,37.1399766 142.981082,36.7165 C142.134212,35.8698359 142.134212,34.4973672 142.981372,33.6507031 L142.981372,33.6507031 Z M133.790738,22.424518 L133.945392,22.429875 C135.140089,22.5116797 136.042183,23.5465234 135.960359,24.7409297 C135.920458,25.3199219 136.132393,25.8864844 136.540937,26.2949297 C136.949482,26.703375 137.515893,26.9169922 138.095026,26.8750781 C139.291169,26.7941406 140.325108,27.6945703 140.406933,28.8892656 C140.489046,30.0839609 139.586952,31.1188047 138.391966,31.2008984 C138.246532,31.2110156 138.100809,31.2159297 137.955954,31.2159297 C136.279561,31.2159297 134.666489,30.5528203 133.474105,29.3610156 C132.17879,28.0660156 131.507713,26.2741172 131.633486,24.4443516 C131.71531,23.2496563 132.75243,22.3463359 133.945392,22.429875 Z M127.516523,15.3903359 C128.363393,14.5439609 129.736485,14.54425 130.583355,15.390625 C131.430225,16.2372891 131.430225,17.6100469 130.583066,18.4567109 L130.583066,18.4567109 L129.183085,19.8560625 C128.759794,20.27925 128.204659,20.4908438 127.649813,20.4908438 C127.094678,20.4908438 126.539832,20.2789609 126.116253,19.8557734 C125.269383,19.0091094 125.269383,17.6363516 126.116542,16.7896875 L126.116542,16.7896875 Z" id="Combined-Shape" fill="#000000" fill-rule="nonzero"></path>
                            </g>
                        </g>
                    </g>
                </g>
            </g>
        </g>
    </g>
</svg>