<svg width="20" height="21" viewBox="0 0 20 21" fill="none" xmlns="http://www.w3.org/2000/svg">
<path fill-rule="evenodd" clip-rule="evenodd" d="M4.47999 5.72919L5.40336 5.72923C6.14241 5.72928 6.88147 5.72934 7.6205 5.72908C8.04797 5.72898 8.1703 5.6084 8.1704 5.18559C8.17086 3.91285 8.17081 2.64016 8.17045 1.36737C8.17035 0.945993 8.04132 0.81594 7.62281 0.815889C5.53556 0.815582 3.44827 0.815531 1.36097 0.81594C0.95909 0.816042 0.815218 0.957918 0.815065 1.35545C0.814348 2.63458 0.814399 3.91367 0.815014 5.19285C0.815218 5.59862 0.947574 5.72883 1.35862 5.72903C2.09563 5.7294 2.83262 5.72932 3.56962 5.72925H3.56963L4.47999 5.72919ZM7.96946 0C8.02171 0.0235406 8.07539 0.0449668 8.12907 0.0663933C8.24695 0.113447 8.36483 0.160503 8.46766 0.22996C8.82051 0.46816 8.99023 0.820853 8.99177 1.243C8.99683 2.5984 9.00164 3.95395 8.99059 5.30934C8.98475 6.02471 8.46439 6.54799 7.75117 6.55086C5.58152 6.55966 3.41188 6.55961 1.24228 6.55091C0.512683 6.54794 0.0025539 6.00772 0.00132553 5.27265C-0.000584389 4.1556 -2.7786e-05 3.03856 0.000528817 1.92151L0.000813716 1.32131C0.00112081 0.650367 0.308365 0.235948 0.952539 0.0323469C0.963782 0.0288205 0.973429 0.0201969 0.983088 0.011562L0.983089 0.0115616C0.987589 0.00753875 0.992092 0.00351348 0.99676 0H7.96946ZM11.4462 6.64622L11.4463 5.73958L11.4462 4.45396C11.4462 3.42418 11.4461 2.39439 11.4464 1.36461C11.4465 0.944002 11.5749 0.815945 11.9966 0.815894C14.0777 0.815587 16.1588 0.815638 18.2399 0.815894C18.6658 0.815945 18.8019 0.952038 18.8019 1.37828C18.8022 4.28213 18.8022 4.83167 18.8019 7.73552C18.8018 8.15792 18.6731 8.28808 18.2549 8.28813C16.1611 8.28849 14.0672 8.28854 11.9733 8.28808C11.5745 8.28797 11.4466 8.15992 11.4465 7.76019C11.4461 6.86438 11.4461 6.85695 11.4462 6.64648V6.64638V6.64622ZM19.5783 8.19417L19.5783 8.19411L19.5783 8.19408C19.5906 8.15812 19.6028 8.12215 19.6162 8.08673V1.03644C19.5282 0.719775 19.3965 0.424149 19.1099 0.242249C18.9982 0.171326 18.8736 0.120764 18.749 0.070203C18.6929 0.047424 18.6367 0.0246453 18.5818 5.11818e-06H11.6474C10.8376 0.307659 10.6225 0.624832 10.6225 1.51181V4.50472C10.6225 5.1665 10.6223 5.53858 10.6221 5.82419V5.82422V5.82423C10.6218 6.3528 10.6216 6.58528 10.6236 7.80999C10.6247 8.56482 11.1296 9.10663 11.8651 9.1098C14.0351 9.11901 16.2052 9.11661 18.3753 9.11036C18.876 9.10898 19.2538 8.87206 19.4872 8.42345C19.5249 8.35088 19.5516 8.27255 19.5783 8.19417ZM8.1706 12.7523L8.17057 13.9142L8.17061 15.13C8.17066 16.1831 8.17072 17.2362 8.17042 18.2892C8.17032 18.7089 8.04062 18.838 7.61965 18.838C5.53855 18.8383 3.45745 18.8383 1.37629 18.838C0.950819 18.838 0.814932 18.7017 0.814881 18.275C0.814676 15.3712 0.814676 12.4673 0.814932 9.56331C0.814932 9.14009 0.942323 9.01147 1.36181 9.01142C3.44931 9.01106 5.53686 9.01111 7.62431 9.01137C8.05014 9.01142 8.17032 9.13175 8.17042 9.5584C8.17068 10.6197 8.17064 11.681 8.1706 12.7423V12.7523ZM0.860022 19.5793L0.860055 19.5793C0.918948 19.6034 0.977841 19.6274 1.03506 19.6539H7.96943C8.78199 19.3415 8.99429 19.0281 8.99429 18.1411L8.99431 15.6888L8.99424 9.58097C8.99419 8.67725 8.50075 8.18611 7.59345 8.18596L5.41677 8.18589L4.54772 8.18591C4.22148 8.18592 3.89524 8.18567 3.569 8.18542H3.56835H3.56834C2.80931 8.18483 2.05029 8.18424 1.29128 8.18703C0.558255 8.18964 0.00467282 8.70305 0.00344446 9.4004C-0.0017249 12.4137 -0.000291811 15.427 0.00283028 18.4403C0.00329091 18.8347 0.165435 19.1674 0.487778 19.3942C0.599835 19.473 0.729907 19.5262 0.859988 19.5793L0.860022 19.5793ZM11.0057 15.1567C11.0057 12.8887 12.851 11.0434 15.119 11.0434C17.3871 11.0434 19.2323 12.8887 19.2323 15.1567C19.2323 17.4248 17.3871 19.2699 15.119 19.2699C12.851 19.2699 11.0057 17.4248 11.0057 15.1567ZM10.238 15.1567C10.238 17.8481 12.4276 20.0377 15.119 20.0377C17.8104 20.0377 20 17.8481 20 15.1567C20 12.4653 17.8104 10.2757 15.119 10.2757C12.4276 10.2757 10.238 12.4653 10.238 15.1567Z" fill="black"/>
</svg>
