<svg width="20" height="20" viewBox="0 0 20 20" fill="none" xmlns="http://www.w3.org/2000/svg">
<path fill-rule="evenodd" clip-rule="evenodd" d="M18.2364 6.17853H0.812542C0.688893 5.4169 1.05333 4.7985 1.71606 4.64215C1.82902 4.61551 1.94944 4.61194 2.06643 4.61189C7.03765 4.61044 12.0089 4.60995 16.9802 4.61129C17.8562 4.61154 18.3774 5.25941 18.2364 6.17853ZM0.791172 9.58962V9.38173H18.257V9.58892L18.257 10.9838C18.2572 12.1243 18.2573 13.2648 18.2567 14.4053C18.2563 15.2285 17.7731 15.7148 16.9536 15.7149C15.6418 15.715 14.3301 15.7147 13.0184 15.7143C9.37732 15.7133 5.73624 15.7124 2.09521 15.722C1.36593 15.724 0.777654 15.2077 0.786152 14.406C0.798234 13.2682 0.795736 12.1304 0.793239 10.9925V10.9925V10.9925C0.792212 10.5248 0.791186 10.0572 0.791172 9.58962ZM18.9436 15.0585C18.9769 14.9634 19.0102 14.8682 19.0477 14.7758V5.54999C19.0375 5.51236 19.0277 5.47457 19.018 5.43678L19.018 5.4367L19.018 5.43663C18.9971 5.35516 18.9762 5.27371 18.9503 5.19385C18.6709 4.33094 17.9175 3.8113 16.9427 3.8111C14.1603 3.81059 11.3779 3.81066 8.59545 3.81074L5.56007 3.8108C5.20535 3.8108 4.85062 3.81048 4.4959 3.81015C3.6851 3.80942 2.8743 3.80868 2.0635 3.81179C0.856276 3.81646 0.00171371 4.67301 0.00111733 5.87561L0.00109263 5.92822C-0.000241299 8.76873 -0.00157523 11.6093 0.00504349 14.4498C0.00559018 14.6815 0.0371486 14.9228 0.107174 15.143C0.380614 16.0028 1.13573 16.5144 2.10057 16.5147C4.58446 16.5153 7.06834 16.5152 9.55224 16.5151H9.55225H9.55226L12.4788 16.515L13.7801 16.5148H13.7829C14.8423 16.5146 15.9017 16.5145 16.9612 16.5154C17.6785 16.516 18.2807 16.2621 18.6791 15.6568C18.7973 15.4772 18.8705 15.2679 18.9436 15.0586L18.9436 15.0585ZM15.0827 13.3337V13.3324C15.0405 13.3324 14.9982 13.3329 14.9559 13.3335C14.8617 13.3346 14.7676 13.3358 14.6737 13.3312C14.4523 13.3202 14.2971 13.1745 14.2895 12.9561C14.28 12.6837 14.2803 12.4104 14.2889 12.138C14.2961 11.9107 14.4526 11.7621 14.6856 11.7561C14.9457 11.7493 15.2064 11.7495 15.4665 11.7557C15.7091 11.7617 15.8613 11.9051 15.872 12.1499C15.8834 12.4098 15.883 12.6708 15.8725 12.9308C15.8623 13.1837 15.7082 13.3247 15.4546 13.333C15.3696 13.3358 15.2845 13.3351 15.1993 13.3343C15.1604 13.334 15.1216 13.3337 15.0827 13.3337ZM13.5084 12.3487C13.5111 12.4149 13.5138 12.4811 13.5138 12.5468L13.4972 12.5469C13.4972 12.5919 13.4968 12.6369 13.4964 12.6819V12.6819V12.6819C13.4955 12.7794 13.4946 12.877 13.4979 12.9744C13.5181 13.5666 13.9344 14.0509 14.5224 14.1088C14.8959 14.1456 15.2792 14.1444 15.6526 14.1064C16.2173 14.0488 16.6443 13.56 16.6633 12.9956C16.6735 12.6923 16.6742 12.388 16.6629 12.0848C16.6421 11.5282 16.2178 11.0389 15.6643 10.9829C15.2788 10.9439 14.8835 10.9464 14.4973 10.9821C14.004 11.0279 13.5994 11.4266 13.5194 11.9167C13.4964 12.0575 13.5024 12.2031 13.5084 12.3487ZM5.15236 13.3343L5.59834 13.3343L7.38228 13.3344L7.42113 13.3341C7.46401 13.3337 7.50697 13.3333 7.54936 13.3376C7.78285 13.3614 7.93239 13.5193 7.931 13.7372C7.92966 13.9542 7.77857 14.1085 7.5433 14.1317C7.51379 14.1345 7.48393 14.1343 7.45416 14.1341L7.43188 14.1341L6.88929 14.1341C5.55256 14.1342 4.21584 14.1343 2.87916 14.133C2.80571 14.1329 2.72957 14.1264 2.6593 14.1066C2.49137 14.059 2.38168 13.9034 2.38297 13.7309C2.38427 13.5578 2.49494 13.4053 2.66531 13.3603C2.7418 13.3402 2.82415 13.3355 2.90386 13.3353C3.48298 13.334 4.0621 13.3341 4.64122 13.3342L5.15236 13.3343ZM5.84132 11.7531C5.62192 11.7532 5.40251 11.7533 5.18311 11.7533C5.09319 11.7533 5.00328 11.7533 4.91337 11.7533C4.64406 11.7532 4.37476 11.7532 4.10545 11.7533C4.05361 11.7533 4.00178 11.7533 3.94994 11.7533C3.56205 11.7535 3.17415 11.7537 2.78626 11.7544C2.6145 11.7548 2.48951 11.833 2.41834 11.9892C2.34966 12.1398 2.36188 12.3009 2.48643 12.3982C2.5889 12.4783 2.7386 12.5366 2.86796 12.5377C3.81344 12.5456 4.75904 12.5449 5.70461 12.5442C5.97295 12.5439 6.24128 12.5437 6.50961 12.5437C6.60953 12.5437 6.70946 12.544 6.80938 12.5444C7.04394 12.5451 7.27849 12.5459 7.51296 12.5425C7.78168 12.5386 7.95066 12.3566 7.92934 12.1063C7.9107 11.8873 7.75022 11.755 7.48707 11.7542C6.93849 11.7526 6.38991 11.7529 5.84132 11.7531Z" fill="#1E3A3A"/>
<path d="M0.812542 6.17853L0.664481 6.20256L0.68493 6.32853H0.812542V6.17853ZM18.2364 6.17853V6.32853H18.3651L18.3846 6.20128L18.2364 6.17853ZM1.71606 4.64215L1.68163 4.49616L1.68162 4.49616L1.71606 4.64215ZM2.06643 4.61189L2.06639 4.46189H2.06637L2.06643 4.61189ZM16.9802 4.61129L16.9802 4.46129H16.9802L16.9802 4.61129ZM0.791172 9.38173V9.23173H0.641172V9.38173H0.791172ZM0.791172 9.58962H0.641172V9.58963L0.791172 9.58962ZM18.257 9.38173H18.407V9.23173H18.257V9.38173ZM18.257 9.58892H18.107V9.58893L18.257 9.58892ZM18.257 10.9838L18.107 10.9838V10.9838L18.257 10.9838ZM18.2567 14.4053L18.1067 14.4053V14.4053L18.2567 14.4053ZM16.9536 15.7149L16.9536 15.8649H16.9536L16.9536 15.7149ZM13.0184 15.7143L13.0184 15.5643L13.0184 15.7143ZM2.09521 15.722L2.0956 15.872L2.09521 15.722ZM0.786152 14.406L0.636161 14.4044V14.4044L0.786152 14.406ZM0.793239 10.9925H0.643238L0.643239 10.9928L0.793239 10.9925ZM0.793239 10.9925H0.943239L0.943238 10.9921L0.793239 10.9925ZM19.0477 14.7758L19.1866 14.8323L19.1977 14.8051V14.7758H19.0477ZM18.9436 15.0585L19.0846 15.1098L19.0852 15.108L18.9436 15.0585ZM19.0477 5.54999H19.1977V5.53003L19.1924 5.51076L19.0477 5.54999ZM19.018 5.43678L19.1634 5.39946L19.1624 5.39591L19.018 5.43678ZM19.018 5.4367L18.8716 5.47002L18.8737 5.47757L19.018 5.4367ZM19.018 5.43663L19.1643 5.40334L19.1633 5.39931L19.018 5.43663ZM18.9503 5.19385L18.8076 5.24006L18.8076 5.24007L18.9503 5.19385ZM16.9427 3.8111L16.9427 3.6611H16.9427L16.9427 3.8111ZM8.59545 3.81074L8.59545 3.96074H8.59545L8.59545 3.81074ZM5.56007 3.8108V3.9608H5.56008L5.56007 3.8108ZM4.4959 3.81015L4.49604 3.66015L4.4959 3.81015ZM2.0635 3.81179L2.06292 3.66179L2.06292 3.66179L2.0635 3.81179ZM0.00111733 5.87561L-0.148883 5.87554V5.87554L0.00111733 5.87561ZM0.00109263 5.92822L0.151093 5.92829L0.00109263 5.92822ZM0.00504349 14.4498L-0.144956 14.4501V14.4501L0.00504349 14.4498ZM0.107174 15.143L0.250119 15.0975L0.250115 15.0975L0.107174 15.143ZM2.10057 16.5147L2.10053 16.6647H2.10054L2.10057 16.5147ZM9.55224 16.5151V16.3651H9.55223L9.55224 16.5151ZM9.55226 16.5151V16.6651H9.55226L9.55226 16.5151ZM12.4788 16.515L12.4788 16.665H12.4788L12.4788 16.515ZM13.7801 16.5148V16.3648H13.7801L13.7801 16.5148ZM13.7829 16.5148V16.6648H13.7829L13.7829 16.5148ZM16.9612 16.5154L16.9613 16.3654H16.9613L16.9612 16.5154ZM18.6791 15.6568L18.5538 15.5743L18.5538 15.5743L18.6791 15.6568ZM18.9436 15.0586L18.8026 15.0073L18.802 15.0091L18.9436 15.0586ZM15.0827 13.3324H15.2327V13.1824H15.0827V13.3324ZM15.0827 13.3337H14.9327V13.4837H15.0827V13.3337ZM14.9559 13.3335L14.954 13.1835H14.954L14.9559 13.3335ZM14.6737 13.3312L14.6663 13.481L14.6663 13.481L14.6737 13.3312ZM14.2895 12.9561L14.1396 12.9613L14.1396 12.9613L14.2895 12.9561ZM14.2889 12.138L14.4389 12.1427V12.1427L14.2889 12.138ZM14.6856 11.7561L14.6817 11.6061L14.6817 11.6061L14.6856 11.7561ZM15.4665 11.7557L15.4702 11.6058L15.4701 11.6058L15.4665 11.7557ZM15.872 12.1499L15.7221 12.1565L15.7221 12.1565L15.872 12.1499ZM15.8725 12.9308L15.7226 12.9247L15.7226 12.9247L15.8725 12.9308ZM15.4546 13.333L15.4595 13.4829L15.4595 13.4829L15.4546 13.333ZM15.1993 13.3343L15.2006 13.1843H15.2006L15.1993 13.3343ZM13.5138 12.5468L13.5143 12.6968L13.6638 12.6964V12.5468H13.5138ZM13.5084 12.3487L13.3585 12.3549V12.3549L13.5084 12.3487ZM13.4972 12.5469L13.4968 12.3969L13.3472 12.3973V12.5469H13.4972ZM13.4964 12.6819L13.3464 12.6805V12.6819H13.4964ZM13.4964 12.6819L13.6464 12.6832V12.6819H13.4964ZM13.4979 12.9744L13.348 12.9795V12.9795L13.4979 12.9744ZM14.5224 14.1088L14.5077 14.2581L14.5224 14.1088ZM15.6526 14.1064L15.6677 14.2556L15.6678 14.2556L15.6526 14.1064ZM16.6633 12.9956L16.8132 13.0006V13.0006L16.6633 12.9956ZM16.6629 12.0848L16.8128 12.0792V12.0792L16.6629 12.0848ZM15.6643 10.9829L15.6492 11.1321L15.6492 11.1321L15.6643 10.9829ZM14.4973 10.9821L14.4835 10.8328L14.4835 10.8328L14.4973 10.9821ZM13.5194 11.9167L13.6674 11.9408L13.6674 11.9408L13.5194 11.9167ZM5.59834 13.3343L5.59835 13.1843H5.59834L5.59834 13.3343ZM5.15236 13.3343L5.15234 13.4843H5.15237L5.15236 13.3343ZM7.38228 13.3344L7.38227 13.4844L7.38329 13.4844L7.38228 13.3344ZM7.42113 13.3341L7.42215 13.4841L7.42265 13.4841L7.42113 13.3341ZM7.54936 13.3376L7.56458 13.1884L7.56454 13.1884L7.54936 13.3376ZM7.931 13.7372L7.781 13.7362L7.781 13.7362L7.931 13.7372ZM7.5433 14.1317L7.55779 14.281L7.55799 14.2809L7.5433 14.1317ZM7.45416 14.1341L7.45512 13.9841L7.4548 13.9841L7.45416 14.1341ZM7.43188 14.1341L7.43252 13.9841H7.43187L7.43188 14.1341ZM6.88929 14.1341L6.88927 13.9841H6.88927L6.88929 14.1341ZM2.87916 14.133L2.87896 14.283H2.87901L2.87916 14.133ZM2.6593 14.1066L2.61842 14.2509L2.61856 14.2509L2.6593 14.1066ZM2.38297 13.7309L2.53297 13.7321V13.7321L2.38297 13.7309ZM2.66531 13.3603L2.70356 13.5054L2.70357 13.5054L2.66531 13.3603ZM2.90386 13.3353L2.9035 13.1853H2.90349L2.90386 13.3353ZM4.64122 13.3342L4.64119 13.4842H4.6412L4.64122 13.3342ZM5.18311 11.7533L5.18309 11.9033H5.1831L5.18311 11.7533ZM5.84132 11.7531L5.8414 11.9031L5.84132 11.7531ZM4.91337 11.7533L4.91334 11.9033L4.91337 11.7533ZM4.10545 11.7533L4.10539 11.6033H4.10538L4.10545 11.7533ZM3.94994 11.7533L3.94988 11.6033H3.94988L3.94994 11.7533ZM2.78626 11.7544L2.78597 11.6044H2.78595L2.78626 11.7544ZM2.41834 11.9892L2.55481 12.0515L2.55485 12.0514L2.41834 11.9892ZM2.48643 12.3982L2.57881 12.28L2.57878 12.28L2.48643 12.3982ZM2.86796 12.5377L2.86923 12.3877H2.86917L2.86796 12.5377ZM5.70461 12.5442L5.7045 12.3942H5.7045L5.70461 12.5442ZM6.50961 12.5437V12.3937H6.5096L6.50961 12.5437ZM6.80938 12.5444L6.8089 12.6944H6.80891L6.80938 12.5444ZM7.51296 12.5425L7.51513 12.6925H7.51513L7.51296 12.5425ZM7.92934 12.1063L7.77988 12.119L7.77988 12.119L7.92934 12.1063ZM7.48707 11.7542L7.48663 11.9042H7.48665L7.48707 11.7542ZM0.812542 6.32853H18.2364V6.02853H0.812542V6.32853ZM1.68162 4.49616C0.927519 4.67407 0.530796 5.37913 0.664481 6.20256L0.960603 6.15449C0.846989 5.45467 1.17914 4.92294 1.7505 4.78814L1.68162 4.49616ZM2.06637 4.46189C1.94841 4.46194 1.81287 4.46521 1.68163 4.49616L1.75049 4.78815C1.84517 4.76582 1.95047 4.76193 2.06649 4.76189L2.06637 4.46189ZM16.9802 4.46129C12.0089 4.45995 7.03763 4.46044 2.06639 4.46189L2.06647 4.76189C7.03768 4.76044 12.0089 4.75995 16.9801 4.76129L16.9802 4.46129ZM18.3846 6.20128C18.4601 5.70939 18.3605 5.27275 18.1067 4.95645C17.8519 4.63891 17.4566 4.46142 16.9802 4.46129L16.9801 4.76129C17.3797 4.7614 17.6831 4.90797 17.8727 5.14421C18.0632 5.38169 18.1537 5.72854 18.0881 6.15577L18.3846 6.20128ZM0.641172 9.38173V9.58962H0.941172V9.38173H0.641172ZM18.257 9.23173H0.791172V9.53173H18.257V9.23173ZM18.407 9.58892V9.38173H18.107V9.58892H18.407ZM18.407 10.9838L18.407 9.58891L18.107 9.58893L18.107 10.9838L18.407 10.9838ZM18.4067 14.4054C18.4073 13.2649 18.4072 12.1243 18.407 10.9838L18.107 10.9838C18.1072 12.1244 18.1073 13.2648 18.1067 14.4053L18.4067 14.4054ZM16.9536 15.8649C17.393 15.8648 17.7607 15.7339 18.0187 15.4746C18.2765 15.2154 18.4065 14.8462 18.4067 14.4054L18.1067 14.4053C18.1065 14.7877 17.9947 15.0732 17.806 15.263C17.6173 15.4527 17.3336 15.5648 16.9535 15.5649L16.9536 15.8649ZM13.0184 15.8643C14.3301 15.8647 15.6418 15.865 16.9536 15.8649L16.9535 15.5649C15.6419 15.565 14.3302 15.5647 13.0184 15.5643L13.0184 15.8643ZM2.0956 15.872C5.73638 15.8624 9.37724 15.8633 13.0184 15.8643L13.0184 15.5643C9.3774 15.5633 5.73609 15.5624 2.09481 15.572L2.0956 15.872ZM0.636161 14.4044C0.626712 15.2958 1.28887 15.8742 2.0956 15.872L2.09481 15.572C1.443 15.5738 0.928595 15.1197 0.936144 14.4076L0.636161 14.4044ZM0.643239 10.9928C0.645737 12.1308 0.64823 13.2678 0.636161 14.4044L0.936144 14.4076C0.948237 13.2687 0.945736 12.1299 0.943238 10.9921L0.643239 10.9928ZM0.643239 10.9925V10.9925H0.943239V10.9925H0.643239ZM0.643239 10.9925V10.9925H0.943239V10.9925H0.643239ZM0.641172 9.58963C0.641186 10.0574 0.642213 10.5252 0.643239 10.9928L0.943238 10.9921C0.942212 10.5245 0.941186 10.057 0.941172 9.58962L0.641172 9.58963ZM18.9087 14.7194C18.8695 14.8158 18.8351 14.9145 18.802 15.0091L19.0852 15.108C19.1187 15.0123 19.1508 14.9206 19.1866 14.8323L18.9087 14.7194ZM18.8977 5.54999V14.7758H19.1977V5.54999H18.8977ZM18.8728 5.4741C18.8824 5.51173 18.8924 5.55047 18.9029 5.58923L19.1924 5.51076C19.1825 5.47424 19.1731 5.43741 19.1633 5.39947L18.8728 5.4741ZM18.8737 5.47757L18.8737 5.47765L19.1624 5.39591L19.1623 5.39583L18.8737 5.47757ZM18.8717 5.4699L18.8718 5.46998L19.1643 5.40343L19.1643 5.40335L18.8717 5.4699ZM18.8076 5.24007C18.8318 5.31478 18.8516 5.39172 18.8727 5.47394L19.1633 5.39931C19.1426 5.3186 19.1205 5.23264 19.093 5.14764L18.8076 5.24007ZM16.9426 3.9611C17.8588 3.96128 18.5501 4.44493 18.8076 5.24006L19.093 5.14765C18.7916 4.21695 17.9761 3.66131 16.9427 3.6611L16.9426 3.9611ZM8.59545 3.96074C11.3779 3.96066 14.1602 3.96059 16.9427 3.9611L16.9427 3.6611C14.1603 3.66059 11.3778 3.66066 8.59544 3.66074L8.59545 3.96074ZM5.56008 3.9608L8.59545 3.96074L8.59544 3.66074L5.56007 3.6608L5.56008 3.9608ZM4.49576 3.96015C4.85048 3.96048 5.20527 3.9608 5.56007 3.9608V3.6608C5.20543 3.6608 4.85077 3.66048 4.49604 3.66015L4.49576 3.96015ZM2.06407 3.96179C2.87446 3.95868 3.6849 3.95942 4.49576 3.96015L4.49604 3.66015C3.68529 3.65942 2.87414 3.65868 2.06292 3.66179L2.06407 3.96179ZM0.151117 5.87569C0.151673 4.75599 0.939133 3.96614 2.06408 3.96179L2.06292 3.66179C0.77342 3.66678 -0.148245 4.59004 -0.148883 5.87554L0.151117 5.87569ZM0.151093 5.92829L0.151117 5.87568L-0.148883 5.87554L-0.148907 5.92815L0.151093 5.92829ZM0.155043 14.4494C0.148425 11.6091 0.149759 8.76884 0.151093 5.92829L-0.148907 5.92815C-0.150241 8.76863 -0.151575 11.6094 -0.144956 14.4501L0.155043 14.4494ZM0.250115 15.0975C0.185501 14.8944 0.15556 14.6686 0.155043 14.4494L-0.144956 14.4501C-0.14438 14.6944 -0.111204 14.9513 -0.0357674 15.1884L0.250115 15.0975ZM2.10061 16.3647C1.19329 16.3645 0.501499 15.888 0.250119 15.0975L-0.0357721 15.1884C0.259728 16.1176 1.07817 16.6644 2.10053 16.6647L2.10061 16.3647ZM9.55223 16.3651C7.06833 16.3652 4.58447 16.3653 2.10061 16.3647L2.10054 16.6647C4.58444 16.6653 7.06835 16.6652 9.55225 16.6651L9.55223 16.3651ZM9.55225 16.3651H9.55224V16.6651H9.55225V16.3651ZM9.55226 16.3651H9.55225V16.6651H9.55226V16.3651ZM12.4788 16.365L9.55225 16.3651L9.55226 16.6651L12.4788 16.665L12.4788 16.365ZM13.7801 16.3648L12.4788 16.365L12.4788 16.665L13.7801 16.6648L13.7801 16.3648ZM13.7829 16.3648H13.7801V16.6648H13.7829V16.3648ZM16.9613 16.3654C15.9018 16.3645 14.8423 16.3646 13.7828 16.3648L13.7829 16.6648C14.8423 16.6646 15.9017 16.6645 16.961 16.6654L16.9613 16.3654ZM18.5538 15.5743C18.1887 16.129 17.6392 16.366 16.9613 16.3654L16.961 16.6654C17.7178 16.6661 18.3726 16.3953 18.8044 15.7393L18.5538 15.5743ZM18.802 15.0091C18.7277 15.2218 18.6601 15.4129 18.5538 15.5743L18.8044 15.7393C18.9346 15.5414 19.0133 15.3139 19.0852 15.1081L18.802 15.0091ZM18.8027 15.0073L18.8027 15.0073L19.0846 15.1098L19.0846 15.1098L18.8027 15.0073ZM14.9327 13.3324V13.3337H15.2327V13.3324H14.9327ZM14.9578 13.4835C15.0002 13.4829 15.0415 13.4824 15.0827 13.4824V13.1824C15.0394 13.1824 14.9962 13.183 14.954 13.1835L14.9578 13.4835ZM14.6663 13.481C14.7656 13.4859 14.8644 13.4846 14.9578 13.4835L14.954 13.1835C14.8591 13.1847 14.7696 13.1857 14.6811 13.1814L14.6663 13.481ZM14.1396 12.9613C14.1446 13.1063 14.1997 13.2351 14.2972 13.3293C14.3941 13.4229 14.5243 13.4739 14.6663 13.481L14.6811 13.1814C14.6017 13.1774 14.5435 13.1501 14.5056 13.1135C14.4683 13.0775 14.4419 13.0243 14.4394 12.9509L14.1396 12.9613ZM14.139 12.1332C14.1303 12.4087 14.13 12.6853 14.1396 12.9613L14.4394 12.9509C14.4301 12.682 14.4304 12.4121 14.4389 12.1427L14.139 12.1332ZM14.6817 11.6061C14.5339 11.61 14.3989 11.6598 14.2988 11.7558C14.1981 11.8523 14.1437 11.9851 14.139 12.1332L14.4389 12.1427C14.4413 12.0636 14.4688 12.0084 14.5064 11.9723C14.5445 11.9358 14.6043 11.9083 14.6895 11.906L14.6817 11.6061ZM15.4701 11.6058C15.2076 11.5995 14.9445 11.5993 14.6817 11.6061L14.6895 11.906C14.947 11.8993 15.2051 11.8995 15.4629 11.9057L15.4701 11.6058ZM16.0218 12.1434C16.0152 11.9908 15.9631 11.8544 15.8603 11.7553C15.7579 11.6565 15.6203 11.6094 15.4702 11.6058L15.4629 11.9057C15.5553 11.9079 15.6151 11.9356 15.6521 11.9712C15.6887 12.0065 15.7181 12.0643 15.7221 12.1565L16.0218 12.1434ZM16.0223 12.9368C16.033 12.673 16.0334 12.4078 16.0218 12.1434L15.7221 12.1565C15.7333 12.4119 15.7329 12.6687 15.7226 12.9247L16.0223 12.9368ZM15.4595 13.4829C15.6125 13.4779 15.7532 13.432 15.8581 13.3324C15.9639 13.2319 16.0161 13.0931 16.0223 12.9368L15.7226 12.9247C15.7187 13.0213 15.6887 13.0795 15.6515 13.1149C15.6134 13.1511 15.5503 13.1798 15.4497 13.1831L15.4595 13.4829ZM15.198 13.4843C15.2827 13.485 15.3709 13.4858 15.4595 13.4829L15.4497 13.1831C15.3683 13.1857 15.2863 13.1851 15.2006 13.1843L15.198 13.4843ZM15.0827 13.4837C15.1208 13.4837 15.159 13.484 15.198 13.4843L15.2006 13.1843C15.1618 13.184 15.1223 13.1837 15.0827 13.1837V13.4837ZM13.6638 12.5468C13.6638 12.4775 13.661 12.4082 13.6583 12.3425L13.3585 12.3549C13.3613 12.4216 13.3638 12.4847 13.3638 12.5468H13.6638ZM13.4977 12.6969L13.5143 12.6968L13.5134 12.3968L13.4968 12.3969L13.4977 12.6969ZM13.6464 12.6832C13.6468 12.6383 13.6472 12.5927 13.6472 12.5469H13.3472C13.3472 12.5911 13.3468 12.6354 13.3464 12.6805L13.6464 12.6832ZM13.6464 12.6819V12.6819H13.3464V12.6819H13.6464ZM13.6464 12.6819V12.6819H13.3464V12.6819H13.6464ZM13.6478 12.9693C13.6447 12.8757 13.6455 12.7813 13.6464 12.6832L13.3464 12.6805C13.3455 12.7775 13.3446 12.8783 13.348 12.9795L13.6478 12.9693ZM14.5371 13.9595C14.0307 13.9097 13.6657 13.4934 13.6478 12.9693L13.348 12.9795C13.3705 13.6399 13.8381 14.1921 14.5077 14.2581L14.5371 13.9595ZM15.6374 13.9571C15.2738 13.9942 14.9005 13.9953 14.5371 13.9595L14.5077 14.2581C14.8913 14.2959 15.2846 14.2946 15.6677 14.2556L15.6374 13.9571ZM16.5134 12.9905C16.4968 13.4852 16.1224 13.9077 15.6373 13.9571L15.6678 14.2556C16.3122 14.1899 16.7919 13.6349 16.8132 13.0006L16.5134 12.9905ZM16.513 12.0904C16.5241 12.3897 16.5235 12.6903 16.5134 12.9905L16.8132 13.0006C16.8235 12.6942 16.8242 12.3863 16.8128 12.0792L16.513 12.0904ZM15.6492 11.1321C16.122 11.18 16.4948 11.6021 16.513 12.0904L16.8128 12.0792C16.7895 11.4542 16.3136 10.8978 15.6794 10.8336L15.6492 11.1321ZM14.5112 11.1315C14.8888 11.0965 15.2743 11.0942 15.6492 11.1321L15.6794 10.8336C15.2832 10.7935 14.8782 10.7962 14.4835 10.8328L14.5112 11.1315ZM13.6674 11.9408C13.7371 11.514 14.09 11.1705 14.5112 11.1315L14.4835 10.8328C13.918 10.8852 13.4616 11.3392 13.3714 11.8925L13.6674 11.9408ZM13.6583 12.3425C13.6522 12.1941 13.6473 12.064 13.6674 11.9408L13.3714 11.8925C13.3455 12.051 13.3526 12.2121 13.3585 12.3549L13.6583 12.3425ZM5.59834 13.1843L5.15236 13.1843L5.15237 13.4843L5.59834 13.4843L5.59834 13.1843ZM7.38229 13.1844L5.59835 13.1843L5.59833 13.4843L7.38227 13.4844L7.38229 13.1844ZM7.42011 13.1841L7.38126 13.1844L7.38329 13.4844L7.42215 13.4841L7.42011 13.1841ZM7.56454 13.1884C7.51241 13.1831 7.46104 13.1837 7.41961 13.1841L7.42265 13.4841C7.46698 13.4837 7.50152 13.4835 7.53418 13.4868L7.56454 13.1884ZM8.08099 13.7381C8.08192 13.5932 8.03197 13.461 7.93686 13.3611C7.84235 13.2619 7.71161 13.2034 7.56458 13.1884L7.53415 13.4868C7.6206 13.4956 7.68138 13.5279 7.71966 13.5681C7.75734 13.6076 7.78147 13.6633 7.781 13.7362L8.08099 13.7381ZM7.55799 14.2809C7.70486 14.2665 7.83613 14.2098 7.93191 14.1122C8.02847 14.0139 8.0801 13.8828 8.08099 13.7381L7.781 13.7362C7.78055 13.8086 7.75597 13.8632 7.71784 13.902C7.67892 13.9417 7.61701 13.9737 7.52861 13.9824L7.55799 14.2809ZM7.4532 14.2841C7.48164 14.2843 7.51928 14.2847 7.55779 14.281L7.52882 13.9824C7.50831 13.9844 7.48623 13.9843 7.45512 13.9841L7.4532 14.2841ZM7.43124 14.284L7.45352 14.2841L7.4548 13.9841L7.43252 13.9841L7.43124 14.284ZM6.8893 14.2841L7.43189 14.2841L7.43187 13.9841L6.88927 13.9841L6.8893 14.2841ZM2.87901 14.283C4.21579 14.2843 5.55259 14.2842 6.8893 14.2841L6.88927 13.9841C5.55254 13.9842 4.2159 13.9843 2.87931 13.983L2.87901 14.283ZM2.61856 14.2509C2.70681 14.2758 2.79786 14.2829 2.87896 14.283L2.87936 13.983C2.81355 13.9829 2.75233 13.977 2.70003 13.9622L2.61856 14.2509ZM2.23298 13.7298C2.23121 13.9659 2.38187 14.1839 2.61842 14.2509L2.70017 13.9622C2.60086 13.9341 2.53215 13.8409 2.53297 13.7321L2.23298 13.7298ZM2.62706 13.2153C2.38741 13.2785 2.23475 13.493 2.23298 13.7298L2.53297 13.7321C2.53379 13.6226 2.60248 13.532 2.70356 13.5054L2.62706 13.2153ZM2.90349 13.1853C2.81982 13.1856 2.72223 13.1902 2.62705 13.2153L2.70357 13.5054C2.76136 13.4901 2.82847 13.4855 2.90424 13.4853L2.90349 13.1853ZM4.64126 13.1842C4.06217 13.1841 3.48285 13.184 2.9035 13.1853L2.90422 13.4853C3.48311 13.484 4.06204 13.4841 4.64119 13.4842L4.64126 13.1842ZM5.15239 13.1843L4.64124 13.1842L4.6412 13.4842L5.15234 13.4843L5.15239 13.1843ZM5.1831 11.9033C5.40255 11.9033 5.622 11.9032 5.8414 11.9031L5.84125 11.6031C5.62184 11.6032 5.40247 11.6033 5.18312 11.6033L5.1831 11.9033ZM4.91334 11.9033C5.00325 11.9033 5.09317 11.9033 5.18309 11.9033L5.18313 11.6033C5.09322 11.6033 5.00331 11.6033 4.9134 11.6033L4.91334 11.9033ZM4.10551 11.9033C4.37476 11.9032 4.64402 11.9032 4.91334 11.9033L4.9134 11.6033C4.6441 11.6032 4.37475 11.6032 4.10539 11.6033L4.10551 11.9033ZM3.95001 11.9033C4.00184 11.9033 4.05368 11.9033 4.10552 11.9033L4.10538 11.6033C4.05355 11.6033 4.00172 11.6033 3.94988 11.6033L3.95001 11.9033ZM2.78654 11.9044C3.17431 11.9037 3.56209 11.9035 3.95001 11.9033L3.94988 11.6033C3.562 11.6035 3.17399 11.6037 2.78597 11.6044L2.78654 11.9044ZM2.55485 12.0514C2.58033 11.9955 2.61162 11.9612 2.64499 11.94C2.67856 11.9187 2.72379 11.9045 2.78656 11.9044L2.78595 11.6044C2.67697 11.6046 2.57382 11.6298 2.48416 11.6867C2.3943 11.7438 2.32752 11.8268 2.28183 11.9271L2.55485 12.0514ZM2.57878 12.28C2.52764 12.2401 2.50371 12.1635 2.55481 12.0515L2.28186 11.927C2.1956 12.1161 2.19613 12.3618 2.39407 12.5164L2.57878 12.28ZM2.86917 12.3877C2.77709 12.3869 2.65876 12.3425 2.57881 12.28L2.39404 12.5164C2.51905 12.6141 2.7001 12.6863 2.86675 12.6877L2.86917 12.3877ZM5.7045 12.3942C4.7588 12.3949 3.8139 12.3956 2.86923 12.3877L2.8667 12.6877C3.81298 12.6956 4.75927 12.6949 5.70473 12.6942L5.7045 12.3942ZM6.5096 12.3937C6.24121 12.3937 5.97282 12.3939 5.7045 12.3942L5.70473 12.6942C5.97307 12.6939 6.24135 12.6937 6.50961 12.6937L6.5096 12.3937ZM6.80986 12.3944C6.70998 12.394 6.60981 12.3937 6.50961 12.3937V12.6937C6.60925 12.6937 6.70894 12.694 6.8089 12.6944L6.80986 12.3944ZM7.5108 12.3925C7.27787 12.3959 7.04464 12.3951 6.80986 12.3944L6.80891 12.6944C7.04324 12.6951 7.27911 12.6959 7.51513 12.6925L7.5108 12.3925ZM7.77988 12.119C7.78732 12.2064 7.76156 12.2708 7.72099 12.3137C7.67992 12.357 7.6114 12.3911 7.5108 12.3925L7.51513 12.6925C7.68325 12.69 7.83357 12.6311 7.93884 12.5199C8.04461 12.4082 8.09268 12.2565 8.0788 12.0936L7.77988 12.119ZM7.48665 11.9042C7.59421 11.9045 7.66399 11.9316 7.70594 11.9653C7.74558 11.9972 7.77361 12.0453 7.77988 12.119L8.0788 12.0936C8.06643 11.9482 8.0049 11.8207 7.89386 11.7315C7.78512 11.6441 7.64309 11.6047 7.4875 11.6042L7.48665 11.9042ZM5.8414 11.9031C6.39002 11.9029 6.93835 11.9026 7.48663 11.9042L7.48752 11.6042C6.93863 11.6026 6.38979 11.6029 5.84125 11.6031L5.8414 11.9031Z" fill="#1E3A3A"/>
</svg>
