<svg width="64" height="63" viewBox="0 0 64 63" fill="none" xmlns="http://www.w3.org/2000/svg">
<path fill-rule="evenodd" clip-rule="evenodd" d="M52.9533 33.2977C52.3888 33.2199 51.9861 33.5476 51.8803 34.1707C51.7458 34.9618 51.3425 35.3724 50.6992 35.3734C50.0556 35.3743 49.6394 34.9558 49.507 34.1745C49.3999 33.5426 49.0113 33.2213 48.4452 33.2964C47.9366 33.364 47.6188 33.8024 47.6529 34.3894C47.7459 35.9904 49.1062 37.2504 50.7274 37.2379C52.3212 37.2255 53.6679 35.9534 53.7397 34.3928C53.7676 33.7871 53.4668 33.3684 52.9533 33.2977Z" fill="black"/>
<path fill-rule="evenodd" clip-rule="evenodd" d="M62.1314 40.8242C62.1291 41.9682 61.7792 42.4585 60.7037 42.8065C59.4767 43.2038 58.2489 43.598 57.017 43.9798C56.2533 44.2164 55.6094 44.6104 55.198 45.3146C53.3852 48.4176 50.7651 50.6462 47.6336 52.3133C47.0315 52.6338 46.6982 53.0758 46.5779 53.7533C46.1912 55.9287 45.7581 58.096 45.365 60.27C45.2723 60.7832 45.0739 61.0274 44.5062 61.0094C43.2783 60.9709 42.0478 60.9793 40.8191 61.0064C40.3054 61.0177 40.0694 60.8403 39.9866 60.3206C39.8029 59.1683 39.5739 58.0228 39.3496 56.8772C39.1576 55.8957 38.518 55.3783 37.5861 55.5141C34.3539 55.9845 31.1172 56.0497 27.8664 55.7392C26.5867 55.617 26.1052 56.0395 25.8722 57.3294C25.6905 58.3346 25.4774 59.3341 25.3101 60.3415C25.2311 60.8171 25.0237 61.0172 24.5242 61.0065C23.2748 60.9796 22.0238 60.9786 20.7744 61.0067C20.2505 61.0184 20.0469 60.8158 19.9558 60.3071C19.6179 58.4195 19.1914 56.547 18.8914 54.654C18.7299 53.6339 18.2707 52.9896 17.3644 52.4801C13.5737 50.3485 10.929 47.2343 9.66628 43.0312C8.69833 39.8095 8.6362 36.531 9.3104 33.2484C10.2764 28.5454 12.9115 25.0279 16.9976 22.5659C17.1521 22.4728 17.2788 22.3731 17.379 22.2685L19.1895 21.034L19.1862 21.0297C19.8809 21.8401 20.6834 22.5768 21.5876 23.2156C21.7131 23.3043 21.8284 23.408 22.0056 23.5504C21.3997 23.7407 20.8596 23.8844 20.3395 24.0812C19.9038 24.2457 19.6241 24.6213 19.7731 25.0642C19.8749 25.3673 20.1837 25.6716 20.4778 25.815C20.6899 25.9184 21.0413 25.7935 21.3118 25.7096C23.6138 24.9955 25.9671 24.6026 28.376 24.5595C31.1688 24.5099 33.8936 24.9194 36.5527 25.7818C37.2157 25.9969 37.7175 25.7656 37.8785 25.23C38.0463 24.6717 37.7836 24.2387 37.1211 24.0115C36.6562 23.852 36.1844 23.7116 35.6949 23.5561C36.379 22.9855 37.0572 22.4953 37.6419 21.9111C38.2434 21.3101 38.7483 20.613 39.3096 19.9702C39.3892 19.8788 39.5606 19.7947 39.6696 19.8149C40.1713 19.9076 40.666 20.0385 41.0828 20.1367C41.0088 21.3533 40.8669 22.4748 40.8858 23.5935C40.9574 27.85 44.0627 30.8754 48.3215 30.8931C50.6301 30.9028 52.3429 29.9774 53.216 27.7431C53.2888 27.557 53.3802 27.3782 53.4622 27.1973C53.5447 27.2309 53.5921 27.2359 53.6153 27.2623C53.7256 27.3872 53.8323 27.5156 53.9346 27.6472C55.0207 29.0412 55.852 30.5728 56.3889 32.2592C56.746 33.3806 57.4783 34.1011 58.6039 34.4391C59.3608 34.6662 60.1125 34.9119 60.8607 35.1661C61.7606 35.472 62.125 35.9842 62.1301 36.9413C62.1367 38.2356 62.1339 39.5299 62.1314 40.8242ZM18.1509 10.797C19.0623 5.80054 23.4258 1.97881 28.4205 1.8948C32.5297 1.82566 35.6904 3.50322 37.9012 6.82361C38.6314 7.95656 39.867 10.3449 39.682 13.294C39.668 13.3802 39.6578 13.4659 39.6499 13.5444C39.216 17.8367 37.0435 20.8902 33.1479 22.7036C32.8118 22.8602 32.3802 22.9173 32.0095 22.8747C29.8877 22.6309 27.7722 22.6242 25.6516 22.8799C25.3355 22.918 24.9752 22.8944 24.6828 22.7789C20.0132 20.935 17.2344 15.822 18.1509 10.797ZM43.0146 20.7608C43.056 20.4492 43.3558 20.0455 43.6427 19.9124C46.1502 18.7482 48.6775 17.6216 51.4176 17.1001C52.3127 16.9297 52.4822 17.0364 52.6198 17.9446C52.7319 18.6839 52.7701 19.4344 52.8411 20.1801C52.7563 22.2398 52.4672 24.2539 51.8035 26.2041C50.999 28.5679 50.1968 29.4512 46.9661 28.8468C44.5074 28.3867 42.9518 26.56 42.7858 24.0498C42.7136 22.9614 42.8703 21.8498 43.0146 20.7608ZM5.01371 33.8384C4.33801 33.5812 3.67734 33.3548 3.03905 33.0769C2.68884 32.9244 2.45871 32.6472 2.71306 32.2327C2.95655 31.8357 3.20472 31.4375 3.7874 31.6598C4.51336 31.9369 5.10556 32.9227 5.01371 33.8384ZM60.6257 33.1128C60.1409 33.0004 59.6756 32.8055 59.195 32.6717C58.6435 32.5179 58.3147 32.1737 58.1388 31.6288C57.3706 29.249 56.0952 27.1693 54.4236 25.3175C54.2545 25.1303 54.1691 24.7585 54.2144 24.5025C54.6045 22.2924 54.8285 20.0782 54.4993 17.8414C54.1808 15.6763 53.2802 14.9948 51.139 15.2678C50.9536 15.2914 50.7686 15.3226 50.5855 15.361C47.9602 15.915 45.4886 16.9257 43.1088 18.1154C42.094 18.6228 41.3358 18.1772 40.4188 18.042C40.4188 18.042 41.4566 16.2356 41.5184 12.9979C41.5531 12.3468 41.5336 11.5762 41.4041 10.7222C41.4031 10.714 41.4025 10.7061 41.4016 10.6979L41.4005 10.6988C41.2066 9.43555 40.767 7.9898 39.8986 6.47089C39.5542 5.84713 39.1574 5.25911 38.7134 4.71217C38.7125 4.71117 38.712 4.71016 38.7112 4.70916L38.711 4.70933C35.9257 1.28023 31.3384 -0.564837 26.8911 0.15395C21.6844 0.995485 17.5905 4.83542 16.4189 9.97648C15.6556 13.3264 16.3096 16.757 18.1022 19.5679L18.0932 19.5557L15.365 21.3939V21.3942C10.9749 24.2569 8.27865 28.293 7.35795 33.5602C7.32639 33.741 7.24973 33.9141 7.19412 34.0909C7.02578 33.907 7.0024 33.7551 6.98453 33.6024C6.82654 32.2574 6.28812 31.1157 5.17236 30.3064C3.7555 29.2789 2.14958 29.6189 1.19883 31.1278C0.288152 32.5728 0.698816 33.9647 2.32844 34.8024C2.86019 35.0757 3.45038 35.2354 4.01569 35.4418C4.1837 35.5033 4.35805 35.5467 4.58401 35.615C3.66047 36.8804 2.4886 37.5649 0.985896 37.6934C0.356289 37.747 -0.0139593 38.1416 0.000403065 38.6862C0.0147654 39.2276 0.420419 39.6196 1.03917 39.6243C1.4313 39.6273 1.83495 39.5972 2.21505 39.5055C4.06729 39.0591 5.36258 37.8687 6.35058 36.3001C6.53946 36.0004 6.69711 35.7929 6.95096 36.0596C7.06603 37.9855 7.10611 39.9177 7.464 41.7888C8.51529 47.2836 11.6374 51.3315 16.4356 54.1178C16.7887 54.3225 16.9694 54.5541 17.0435 54.9733C17.3807 56.882 17.7673 58.7819 18.1296 60.6864C18.4093 62.1573 19.234 62.8606 20.7165 62.8658C22.0082 62.8705 23.2999 62.8716 24.5916 62.8653C26.0359 62.8584 26.8589 62.1522 27.1291 60.7118C27.3207 59.6899 27.5204 58.6695 27.7205 57.6282H37.5849C37.7766 58.6235 37.9774 59.7491 38.2132 60.8676C38.4933 62.1973 39.3219 62.8579 40.6862 62.8651C42.0195 62.8723 43.3531 62.874 44.6864 62.8646C46.0352 62.8549 46.8747 62.161 47.1324 60.834C47.538 58.7468 47.9435 56.6592 48.3133 54.5655C48.3878 54.1441 48.5771 53.9227 48.9332 53.7248C52.1228 51.9525 54.7889 49.6182 56.6952 46.4599C56.8701 46.1703 57.2206 45.9197 57.5444 45.8001C58.558 45.4253 59.5842 45.0683 60.6305 44.8034C62.28 44.3859 63.49 43.5227 64 41.8339V36.0723C63.4896 34.3823 62.2839 33.4972 60.6257 33.1128Z" fill="black"/>
<path fill-rule="evenodd" clip-rule="evenodd" d="M36.1433 33H36.0398H35.4128H32.0102H31.4902H28.7102H27.7691H27.426H25.8965H25.1247H22.5449C22.2029 33 21.9368 33.0624 21.7286 33.1619C20.8761 33.5689 21.0066 34.6063 21.0079 34.6167L21.5533 38.1951L21.6574 38.8784L21.7638 39.576L22.123 41.9336L22.2835 42.9862L22.9331 47.2486C23.2606 48.721 24.825 48.7118 24.825 48.7118H25.206H27.5402L28.2766 48.7119L30.5621 48.7123H30.8921L32.4292 48.7126C32.5044 48.7121 33.081 48.6962 33.6467 48.3498C34.1117 48.0648 34.5693 47.5568 34.7349 46.6478L35.2751 43.6816L35.6985 41.3558L35.7126 41.279L35.818 40.701L36.1433 38.9175L36.2242 38.4741L36.5963 36.434L36.6001 36.4131L36.9642 34.4175C36.9699 34.3862 36.9741 34.3564 36.9785 34.3266C37.159 33.0723 36.1433 33 36.1433 33ZM25.9167 34.152C26.3236 33.9717 26.7736 33.8526 27.2661 33.7949C27.7591 33.7367 28.2315 33.7454 28.6834 33.8215C29.1359 33.8971 29.434 34.055 29.5781 34.2954C29.7576 34.6022 29.7914 34.9874 29.679 35.4501C29.5668 35.9131 29.4193 36.3669 29.2374 36.8119C29.0551 37.2564 28.893 37.648 28.7513 37.9867C28.6096 38.3252 28.5995 38.5185 28.7206 38.5678C28.8424 38.621 29.0456 38.5107 29.3319 38.2368C29.6172 37.9635 29.9423 37.6429 30.3066 37.2758C30.671 36.9085 31.0538 36.5549 31.4542 36.2144C31.8544 35.8737 32.2301 35.6663 32.5811 35.5907C32.7518 35.5546 32.9129 35.6681 33.0633 35.9309C33.2143 36.1934 33.3361 36.5202 33.4277 36.9117C33.5198 37.3032 33.5729 37.714 33.5864 38.1435C33.5997 38.5729 33.5573 38.9322 33.4583 39.2218C33.3638 39.484 33.1647 39.7043 32.8611 39.8824C32.5573 40.0599 32.239 40.225 31.9059 40.3766C31.5733 40.5274 31.2742 40.6799 31.0083 40.8333C30.7433 40.9868 30.6039 41.1687 30.5899 41.3774C30.5766 41.5912 30.7344 41.7788 31.0625 41.9422C31.3913 42.1038 31.7509 42.281 32.1421 42.4723C32.5338 42.6634 32.8847 42.8913 33.1947 43.1563C33.5056 43.4209 33.6359 43.7603 33.5864 44.1747C33.5411 44.5044 33.4695 44.8836 33.3701 45.3125C33.2713 45.7423 33.1397 46.1397 32.9758 46.504C32.8116 46.8687 32.6101 47.1591 32.3716 47.3751C32.1334 47.5906 31.8544 47.6546 31.5353 47.5647C31.2106 47.4712 30.875 47.2092 30.526 46.7772C30.1775 46.3458 29.8479 45.8896 29.5377 45.4091C29.227 44.9291 28.9511 44.5008 28.7107 44.1241C28.4703 43.748 28.2999 43.5691 28.2012 43.5867C28.0977 43.6085 28.0618 43.7567 28.0931 44.0301C28.1245 44.3044 28.1717 44.6278 28.2347 45.0024C28.298 45.376 28.3485 45.7609 28.3869 46.1562C28.4249 46.553 28.4018 46.8842 28.3156 47.1513C28.2573 47.325 28.0471 47.466 27.6851 47.5755C27.3227 47.6841 26.9324 47.7512 26.5139 47.7791C26.0958 47.8054 25.7144 47.7853 25.37 47.7186C25.026 47.6515 24.8428 47.5208 24.8202 47.325C24.6895 46.2616 24.585 45.2804 24.5062 44.3814C24.4275 43.4823 24.3927 42.5627 24.4019 41.6202C24.4104 40.6799 24.477 39.67 24.6005 38.5902C24.7248 37.5119 24.9327 36.2579 25.2252 34.8293C25.2789 34.5579 25.5094 34.3321 25.9167 34.152Z" fill="black"/>
<path fill-rule="evenodd" clip-rule="evenodd" d="M27.9775 14.6357V18H26.0352V8.64355H30.1104C31.0498 8.64355 31.7988 8.88477 32.3574 9.36719C32.916 9.84961 33.1953 10.5965 33.1953 11.6079C33.1953 12.7124 32.916 13.4932 32.3574 13.9502C31.7988 14.4072 31.0011 14.6357 29.9644 14.6357H27.9775ZM27.9775 13.0234H29.7993C30.2606 13.0234 30.6192 12.9113 30.8752 12.687C31.1313 12.4627 31.2593 12.1073 31.2593 11.6206C31.2593 11.134 31.1313 10.7869 30.8752 10.5796C30.6192 10.3722 30.2606 10.2686 29.7993 10.2686H27.9775V13.0234Z" fill="black"/>
</svg>
