<svg width="25" height="24" viewBox="0 0 25 24" fill="none" xmlns="http://www.w3.org/2000/svg">
<path fill-rule="evenodd" clip-rule="evenodd" d="M11.9983 13.0716C15.0064 13.0728 17.448 10.6426 17.4531 7.64247C17.4583 4.62906 15.0147 2.18153 12.0009 2.1814C8.99605 2.18119 6.55309 4.61474 6.54689 7.61416C6.54061 10.63 8.97852 13.0705 11.9983 13.0716ZM17.9107 12.4681C18.7825 12.9735 19.5902 13.5388 20.3016 14.2307C22.4623 16.3323 23.6985 18.8762 23.9567 21.8834C23.9851 22.2135 23.9997 22.5458 24 22.8771C24.0005 23.4822 23.5445 23.9492 22.9468 23.9736C22.3757 23.9968 21.8969 23.5582 21.8303 22.9649C21.7402 22.1639 21.7225 21.3439 21.5309 20.567C20.8018 17.6113 19.0309 15.4617 16.3092 14.0947C16.2322 14.0561 16.093 14.0698 16.0149 14.1147C13.3367 15.6543 10.6631 15.6535 7.98419 14.1157C7.9044 14.0699 7.75455 14.0771 7.66834 14.1207C4.96935 15.4857 3.20344 17.6184 2.47224 20.5549C2.28707 21.2985 2.25781 22.0829 2.18265 22.8512C2.12836 23.4069 1.84743 23.8111 1.37056 23.9337C0.659409 24.1167 0.00145543 23.6085 2.31718e-05 22.8638C-0.00365978 20.9418 0.431679 19.1219 1.31129 17.4125C2.36612 15.3626 3.89591 13.7554 5.8802 12.5785C5.93831 12.5441 5.99431 12.5061 6.07212 12.4564C4.50298 10.408 3.97305 8.1336 4.63127 5.63198C5.08448 3.90973 6.0608 2.51675 7.50425 1.47161C10.4406 -0.654546 14.4213 -0.45819 17.0781 1.93975C18.591 3.30538 19.4494 5.00691 19.6098 7.04399C19.7695 9.07159 18.963 11.2944 17.7087 12.8952" fill="white"/>
<path d="M17.4531 7.64247L17.9531 7.64332V7.64332L17.4531 7.64247ZM12.0009 2.1814L12.0008 2.6814H12.0008L12.0009 2.1814ZM6.54689 7.61416L7.04688 7.61521V7.6152L6.54689 7.61416ZM20.3016 14.2307L20.6503 13.8722L20.6502 13.8722L20.3016 14.2307ZM23.9567 21.8834L23.4585 21.9261L23.4585 21.9262L23.9567 21.8834ZM24 22.8771L24.5 22.8766V22.8766L24 22.8771ZM22.9468 23.9736L22.9672 24.4732L22.9672 24.4732L22.9468 23.9736ZM21.8303 22.9649L22.3271 22.9091L22.3271 22.9091L21.8303 22.9649ZM21.5309 20.567L21.0454 20.6868L21.0454 20.6868L21.5309 20.567ZM16.3092 14.0947L16.5336 13.6479L16.5333 13.6477L16.3092 14.0947ZM16.0149 14.1147L15.7657 13.6812L15.7657 13.6812L16.0149 14.1147ZM7.98419 14.1157L8.23312 13.682L8.23294 13.6819L7.98419 14.1157ZM7.66834 14.1207L7.44276 13.6745L7.4427 13.6745L7.66834 14.1207ZM2.47224 20.5549L2.95742 20.6757L2.95743 20.6757L2.47224 20.5549ZM2.18265 22.8512L1.68503 22.8025L1.68502 22.8025L2.18265 22.8512ZM1.37056 23.9337L1.49511 24.418L1.49515 24.418L1.37056 23.9337ZM2.31718e-05 22.8638L-0.499976 22.8648L-0.499976 22.8648L2.31718e-05 22.8638ZM1.31129 17.4125L1.75588 17.6413L1.75588 17.6413L1.31129 17.4125ZM5.8802 12.5785L5.62526 12.1484L5.62514 12.1485L5.8802 12.5785ZM6.07212 12.4564L6.34106 12.8779L6.80037 12.5849L6.46905 12.1524L6.07212 12.4564ZM4.63127 5.63198L4.14773 5.50474L4.14773 5.50476L4.63127 5.63198ZM7.50425 1.47161L7.79748 1.8766L7.79749 1.87659L7.50425 1.47161ZM17.0781 1.93975L17.4131 1.56859L17.4131 1.56858L17.0781 1.93975ZM19.6098 7.04399L20.1083 7.00474L20.1083 7.00472L19.6098 7.04399ZM11.9981 13.5716C15.2809 13.5729 17.9475 10.9206 17.9531 7.64332L16.9531 7.64162C16.9485 10.3647 14.732 12.5727 11.9985 12.5716L11.9981 13.5716ZM17.9531 7.64332C17.9587 4.35339 15.2912 1.68155 12.0009 1.6814L12.0008 2.6814C14.7383 2.68152 16.9578 4.90473 16.9531 7.64162L17.9531 7.64332ZM12.0009 1.6814C8.72116 1.68117 6.05366 4.33713 6.04689 7.61313L7.04688 7.6152C7.05252 4.89235 9.27094 2.68121 12.0008 2.6814L12.0009 1.6814ZM6.04689 7.61312C6.04003 10.906 8.70249 13.5704 11.9981 13.5716L11.9985 12.5716C9.25455 12.5706 7.04119 10.3539 7.04688 7.61521L6.04689 7.61312ZM17.6599 12.9007C18.5083 13.3925 19.2796 13.9342 19.953 14.5891L20.6502 13.8722C19.9008 13.1434 19.0567 12.5545 18.1615 12.0355L17.6599 12.9007ZM19.953 14.5891C22.03 16.6093 23.2109 19.0422 23.4585 21.9261L24.4549 21.8406C24.1861 18.7103 22.8946 16.0553 20.6503 13.8722L19.953 14.5891ZM23.4585 21.9262C23.4857 22.2424 23.4997 22.5606 23.5 22.8776L24.5 22.8766C24.4996 22.5309 24.4844 22.1845 24.4549 21.8405L23.4585 21.9262ZM23.5 22.8775C23.5003 23.2113 23.2589 23.4604 22.9264 23.474L22.9672 24.4732C23.8301 24.4379 24.5008 23.7531 24.5 22.8766L23.5 22.8775ZM22.9265 23.474C22.6423 23.4856 22.3673 23.2671 22.3271 22.9091L21.3334 23.0207C21.4264 23.8493 22.1091 24.5081 22.9672 24.4732L22.9265 23.474ZM22.3271 22.9091C22.2441 22.1702 22.2181 21.2653 22.0163 20.4473L21.0454 20.6868C21.2269 21.4225 21.2364 22.1575 21.3334 23.0208L22.3271 22.9091ZM22.0163 20.4473C21.2508 17.3441 19.3808 15.0779 16.5336 13.6479L16.0848 14.5415C18.681 15.8455 20.3527 17.8785 21.0454 20.6868L22.0163 20.4473ZM16.5333 13.6477C16.3816 13.5717 16.2248 13.567 16.1235 13.5749C16.0165 13.5833 15.8853 13.6125 15.7657 13.6812L16.264 14.5482C16.2396 14.5622 16.2224 14.5674 16.2166 14.569C16.2097 14.5709 16.2051 14.5716 16.2013 14.5719C16.1979 14.5721 16.1888 14.5726 16.1739 14.5706C16.1607 14.5688 16.1276 14.563 16.0851 14.5416L16.5333 13.6477ZM15.7657 13.6812C13.2419 15.132 10.758 15.1314 8.23312 13.682L7.73527 14.5493C10.5683 16.1756 13.4315 16.1765 16.2641 14.5482L15.7657 13.6812ZM8.23294 13.6819C8.0819 13.5953 7.92057 13.5821 7.8155 13.5849C7.70416 13.5878 7.56816 13.6111 7.44276 13.6745L7.89393 14.5669C7.87062 14.5787 7.8551 14.5824 7.85128 14.5832C7.84631 14.5843 7.84367 14.5845 7.84185 14.5845C7.84038 14.5846 7.83301 14.5847 7.81962 14.5822C7.8081 14.58 7.77624 14.5728 7.73544 14.5494L8.23294 13.6819ZM7.4427 13.6745C4.62003 15.102 2.75497 17.3501 1.98706 20.4341L2.95743 20.6757C3.65192 17.8866 5.31867 15.8693 7.89399 14.5669L7.4427 13.6745ZM1.98706 20.4341C1.7901 21.225 1.75614 22.0756 1.68503 22.8025L2.68028 22.8998C2.75949 22.0902 2.78404 21.372 2.95742 20.6757L1.98706 20.4341ZM1.68502 22.8025C1.64499 23.2123 1.46395 23.3934 1.24597 23.4495L1.49515 24.418C2.23092 24.2287 2.61174 23.6014 2.68028 22.8998L1.68502 22.8025ZM1.24601 23.4495C0.853588 23.5504 0.500832 23.2841 0.500022 22.8629L-0.499976 22.8648C-0.497921 23.9329 0.465229 24.6829 1.49511 24.418L1.24601 23.4495ZM0.500022 22.8629C0.496491 21.0201 0.91312 19.2791 1.75588 17.6413L0.866701 17.1838C-0.0497622 18.9647 -0.503811 20.8635 -0.499976 22.8648L0.500022 22.8629ZM1.75588 17.6413C2.76684 15.6767 4.23017 14.1385 6.13527 13.0086L5.62514 12.1485C3.56165 13.3723 1.96539 15.0486 0.8667 17.1838L1.75588 17.6413ZM6.13514 13.0086C6.20217 12.9689 6.27905 12.9175 6.34106 12.8779L5.80318 12.0349C5.70956 12.0947 5.67445 12.1192 5.62526 12.1484L6.13514 13.0086ZM6.46905 12.1524C4.98694 10.2176 4.49871 8.10073 5.11481 5.75921L4.14773 5.50476C3.44738 8.16647 4.01902 10.5985 5.6752 12.7605L6.46905 12.1524ZM5.11481 5.75923C5.53763 4.15244 6.44455 2.8562 7.79748 1.8766L7.21101 1.06662C5.67706 2.1773 4.63133 3.66701 4.14773 5.50474L5.11481 5.75923ZM7.79749 1.87659C10.546 -0.113566 14.2645 0.0738456 16.7431 2.31093L17.4131 1.56858C14.5781 -0.990226 10.3352 -1.19553 7.21101 1.06663L7.79749 1.87659ZM16.7431 2.31092C18.1636 3.59308 18.9612 5.17688 19.1114 7.08326L20.1083 7.00472C19.9375 4.83693 19.0185 3.01768 17.4131 1.56859L16.7431 2.31092ZM19.1114 7.08324C19.2596 8.96499 18.5062 11.0668 17.3151 12.5868L18.1023 13.2036C19.4199 11.522 20.2795 9.1782 20.1083 7.00474L19.1114 7.08324Z" fill="#1E3A3A"/>
</svg>
