<svg width="22" height="21" viewBox="0 0 22 21" fill="none" xmlns="http://www.w3.org/2000/svg">
<path fill-rule="evenodd" clip-rule="evenodd" d="M11.0391 2.01869C6.39234 2.01869 2.61195 5.79908 2.61195 10.4458C2.61195 15.0925 6.39234 18.8728 11.0391 18.8728C15.6858 18.8728 19.4662 15.0925 19.4662 10.4458C19.4662 5.79908 15.6858 2.01869 11.0391 2.01869ZM11.0391 20.4457C5.52505 20.4457 1.03906 15.9598 1.03906 10.4458C1.03906 4.93179 5.52505 0.445801 11.0391 0.445801C16.5531 0.445801 21.0391 4.93179 21.0391 10.4458C21.0391 15.9598 16.5531 20.4457 11.0391 20.4457Z" fill="black"/>
<path d="M11.0391 1.61869C6.17142 1.61869 2.21195 5.57816 2.21195 10.4458H3.01195C3.01195 6.01999 6.61325 2.41869 11.0391 2.41869V1.61869ZM2.21195 10.4458C2.21195 15.3135 6.17143 19.2728 11.0391 19.2728V18.4728C6.61325 18.4728 3.01195 14.8716 3.01195 10.4458H2.21195ZM11.0391 19.2728C15.9067 19.2728 19.8662 15.3135 19.8662 10.4458H19.0662C19.0662 14.8716 15.4649 18.4728 11.0391 18.4728V19.2728ZM19.8662 10.4458C19.8662 5.57816 15.9067 1.61869 11.0391 1.61869V2.41869C15.4649 2.41869 19.0662 6.01999 19.0662 10.4458H19.8662ZM11.0391 20.0457C5.74596 20.0457 1.43906 15.7389 1.43906 10.4458H0.639062C0.639062 16.1808 5.30414 20.8457 11.0391 20.8457V20.0457ZM1.43906 10.4458C1.43906 5.1527 5.74596 0.845801 11.0391 0.845801V0.0458008C5.30413 0.0458008 0.639062 4.71087 0.639062 10.4458H1.43906ZM11.0391 0.845801C16.3322 0.845801 20.6391 5.1527 20.6391 10.4458H21.4391C21.4391 4.71087 16.774 0.0458008 11.0391 0.0458008V0.845801ZM20.6391 10.4458C20.6391 15.7389 16.3322 20.0457 11.0391 20.0457V20.8457C16.774 20.8457 21.4391 16.1808 21.4391 10.4458H20.6391Z" fill="white"/>
<path fill-rule="evenodd" clip-rule="evenodd" d="M9.98145 12.4385V15.8027H8.03906V6.44629H12.1143C13.0537 6.44629 13.8027 6.6875 14.3613 7.16992C14.9199 7.65234 15.1992 8.39925 15.1992 9.41064C15.1992 10.5151 14.9199 11.2959 14.3613 11.7529C13.8027 12.21 13.005 12.4385 11.9683 12.4385H9.98145ZM9.98145 10.8262H11.8032C12.2645 10.8262 12.6231 10.714 12.8792 10.4897C13.1352 10.2655 13.2632 9.90999 13.2632 9.42334C13.2632 8.93669 13.1352 8.58968 12.8792 8.38232C12.6231 8.17497 12.2645 8.07129 11.8032 8.07129H9.98145V10.8262Z" fill="black"/>
</svg>
