<?xml version="1.0" encoding="UTF-8"?>
<svg width="24px" height="19px" viewBox="0 0 24 19" version="1.1" xmlns="http://www.w3.org/2000/svg" xmlns:xlink="http://www.w3.org/1999/xlink">
    <title>ic_home copy 7</title>
    <g id="Page-1" stroke="none" stroke-width="1" fill="none" fill-rule="evenodd">
        <g id="iPhone-8-Copy-3" transform="translate(-18.000000, -386.000000)" fill="#2D2866">
            <g id="ic_character" transform="translate(18.000000, 384.000000)">
                <g id="cartoon-happy-eyes" transform="translate(0.000000, 2.000000)">
                    <path d="M23.0453145,3.79782125 C22.0923158,1.73351229 20.5546985,0.413384616 18.7158959,0.0805589055 C17.3061155,-0.174526493 15.8554106,0.179495599 14.5201521,1.10436237 C13.5547629,1.77305053 12.6976121,2.70793851 11.9999894,3.8428256 C11.3023667,2.70793851 10.4452159,1.77305053 9.4798267,1.10436237 C8.14456819,0.17937413 6.69368457,-0.174708697 5.28414243,0.0805589055 C3.44533985,0.413323882 1.90772251,1.73351229 0.954723816,3.79782125 C0.0376457511,5.78432916 -0.23012079,8.2414089 0.20080761,10.7164661 C0.63167644,13.1916447 1.71251206,15.404632 3.24411285,16.9480809 C4.57663115,18.2908019 6.11782268,19 7.66336282,19 C7.96383322,19 8.26454189,18.9732768 8.56382089,18.9190408 C9.89091834,18.6788961 11.0839836,17.9018574 11.9999894,16.6990082 C12.9159952,17.9018574 14.1090009,18.6788961 15.4360983,18.9190408 C15.7354965,18.9732768 16.0359669,19 16.336616,19 C17.882037,19 19.4232881,18.2906804 20.7559255,16.9480809 C22.2875263,15.4047535 23.3683023,13.1916447 23.7992307,10.7165268 C24.2300996,8.2414089 23.962333,5.78432916 23.0453145,3.79782125 Z M8.3348939,17.6033467 C6.927258,17.8584321 5.44605332,17.2880733 4.16547994,15.9976449 C2.82497928,14.6469677 1.87525693,12.6884584 1.49132916,10.4828807 C1.10740138,8.27748526 1.33793675,6.10543309 2.14058111,4.36678316 C2.90730484,2.70599501 4.10513567,1.65097394 5.51324813,1.39613148 C7.64412175,1.01070959 9.87864694,2.50957925 11.2718074,5.23091531 C10.8484443,6.18608866 10.5394555,7.21104609 10.3527635,8.28307284 C9.90170048,10.8740117 10.2268924,13.4709632 11.242916,15.4816435 C10.4922761,16.6490844 9.47041466,17.3978815 8.3348939,17.6033467 Z M22.5088283,10.4829415 C22.1249601,12.6883977 21.1751782,14.6469677 19.834618,15.9976449 C18.5542233,17.2879518 17.0734356,17.8581892 15.665204,17.6033467 C14.4309164,17.3800255 13.3307802,16.515286 12.5673923,15.1683136 C11.5550025,13.3821692 11.2181945,10.957704 11.6431659,8.51659745 C11.8285473,7.45173738 12.1470078,6.44062745 12.5894928,5.51144852 C13.9697861,2.61294957 16.2852072,0.997712384 18.4867306,1.39613148 C19.8949622,1.65097394 21.0927335,2.70599501 21.8594572,4.36684389 C22.6622207,6.10543309 22.8927561,8.27748526 22.5088283,10.4829415 Z" id="Shape" fill-rule="nonzero"></path>
                    <path d="M7.99996935,10 C6.34311432,10 5,11.3431418 5,13.0000307 C5,13.9318314 5.42481891,14.7642605 6.09128805,15.314636 C6.07878255,15.2430345 6.08135721,15.1715556 6.10189319,15.1024674 C6.20788336,14.7454406 6.74102189,14.5888123 7.29279606,14.7525517 C7.84457023,14.9162912 8.20594215,15.3384828 8.10001328,15.6955096 C8.0620677,15.8232644 7.96876692,15.9248429 7.84021782,15.9957701 C7.89312096,15.9985287 7.9463919,16 8.00003065,16 C9.65688568,16 11,14.6568582 11,12.9999693 C11,11.3431418 9.65682438,10 7.99996935,10 Z M9.79597863,11.6904215 C9.68998845,12.0474483 9.15678862,12.2041379 8.60495316,12.0403372 C8.05324029,11.8765977 7.69186837,11.4544061 7.79785854,11.0973793 C7.90384871,10.7403525 8.43698724,10.5836628 8.9887614,10.7474636 C9.54053557,10.9112031 9.9019075,11.3333946 9.79597863,11.6904215 Z" id="Shape" fill-rule="nonzero"></path>
                    <path d="M15.9999693,10 C14.3431143,10 13,11.343128 13,13 C13,14.6568107 14.3431143,16 15.9999693,16 C16.0536081,16 16.106879,15.9985288 16.1597209,15.9957702 C16.0311105,15.9248437 15.9379323,15.8232662 15.8999867,15.6955127 C15.7939965,15.3384895 16.1554298,14.9163023 16.7072039,14.7525645 C17.2589168,14.5888267 17.7921166,14.7454534 17.8981068,15.1024766 C17.9186428,15.171564 17.9212174,15.2430422 17.908712,15.314643 C18.5751811,14.7642732 19,13.9318525 19,13.0000613 C18.9999387,11.343128 17.6568244,10 15.9999693,10 Z M15.3949242,12.0403163 C14.8431501,12.2041154 14.3099502,12.0474274 14.2039601,11.6904042 C14.0979699,11.333381 14.4594031,10.9111938 15.011116,10.747456 C15.5629515,10.5836569 16.09609,10.7403449 16.2020802,11.0973681 C16.3080703,11.4544526 15.9466984,11.8765785 15.3949242,12.0403163 Z" id="Shape" fill-rule="nonzero"></path>
                </g>
            </g>
        </g>
    </g>
</svg>