<svg width="19" height="18" viewBox="0 0 19 18" fill="none" xmlns="http://www.w3.org/2000/svg">
<mask id="mask0_12_202" style="mask-type:alpha" maskUnits="userSpaceOnUse" x="0" y="0" width="19" height="19">
<path fill-rule="evenodd" clip-rule="evenodd" d="M0.480469 0H18.4805V18.0011H0.480469V0Z" fill="white"/>
</mask>
<g mask="url(#mask0_12_202)">
<path fill-rule="evenodd" clip-rule="evenodd" d="M8.95399 18.0011C8.60682 17.9546 8.25639 17.9251 7.913 17.859C5.0633 17.3108 2.93348 15.7589 1.53775 13.2196C0.752934 11.7918 0.400259 10.2436 0.495747 8.6195C0.683817 5.42038 2.15769 2.95888 4.8799 1.27295C6.40383 0.329079 8.08989 -0.0724623 9.87814 0.0106546C12.0002 0.109268 13.8631 0.871936 15.4604 2.27656C15.5 2.31138 15.5385 2.34739 15.5784 2.38182C15.5865 2.38882 15.5986 2.39124 15.626 2.40339C15.6306 2.34915 15.6382 2.30086 15.6383 2.25252C15.6394 1.89509 15.6371 1.53766 15.6399 1.18028C15.6412 1.01211 15.6969 0.86498 15.8602 0.791416C15.9976 0.729563 16.1521 0.730487 16.2492 0.848383C16.3245 0.939864 16.386 1.07361 16.3881 1.18979C16.4005 1.89853 16.3984 2.60771 16.3922 3.31662C16.3897 3.60436 16.2432 3.74836 15.954 3.75061C15.2452 3.75615 14.5362 3.75518 13.8274 3.75083C13.5889 3.74933 13.4527 3.64319 13.41 3.45279C13.3739 3.29153 13.4409 3.12225 13.591 3.05578C13.6784 3.01704 13.7822 3.00167 13.8792 2.99987C14.2246 2.99349 14.5704 2.99771 14.916 2.99701C14.9721 2.99688 15.0282 2.99186 15.0843 2.98913C15.0928 2.97297 15.1014 2.95681 15.11 2.94061C14.7306 2.6534 14.3664 2.34286 13.969 2.08334C12.8371 1.34435 11.5936 0.90218 10.2443 0.785605C8.41364 0.627472 6.69777 1.00599 5.14131 1.98908C3.03086 3.32203 1.71829 5.22963 1.34593 7.69848C0.899489 10.6587 1.81201 13.1923 4.0467 15.1931C5.7871 16.7514 7.87211 17.443 10.1912 17.2079C13.4629 16.8764 15.7699 15.1437 17.106 12.1392C17.5145 11.2205 17.6974 10.2429 17.7247 9.23746C17.7271 9.14964 17.73 9.06159 17.7389 8.97429C17.7569 8.79754 17.8511 8.68263 18.0273 8.64455C18.2027 8.6066 18.3359 8.67141 18.4281 8.82267C18.4488 8.85648 18.4632 8.89421 18.4805 8.93009V9.5278C18.4703 9.57834 18.4542 9.6284 18.4507 9.67938C18.3631 10.935 18.0313 12.1246 17.4234 13.2242C16.0228 15.758 13.8977 17.3121 11.049 17.859C10.7058 17.9249 10.3556 17.9546 10.0086 18.0011H8.95399Z" fill="black"/>
</g>
<path fill-rule="evenodd" clip-rule="evenodd" d="M13.9703 10.122V6.38825C13.9703 6.18275 13.8038 6.01616 13.5983 6.01616H5.36414C5.15863 6.01616 4.99205 6.18275 4.99205 6.38825V10.122C4.99205 10.3275 5.15863 10.4941 5.36414 10.4941H13.5983C13.8038 10.4941 13.9703 10.3275 13.9703 10.122M4.62014 5.25732H14.3452C14.5507 5.25732 14.7173 5.42391 14.7173 5.62941V10.8691C14.7173 11.0746 14.5507 11.2412 14.3452 11.2412H4.62014C4.41463 11.2412 4.24805 11.0746 4.24805 10.8691V5.62941C4.24805 5.42391 4.41463 5.25732 4.62014 5.25732" fill="black"/>
<path fill-rule="evenodd" clip-rule="evenodd" d="M9.44021 12.9174C7.85887 12.9174 6.27758 12.9179 4.69625 12.9161C4.60957 12.9161 4.51892 12.9103 4.43708 12.8848C4.27116 12.833 4.18143 12.6764 4.19957 12.4997C4.21639 12.3358 4.33525 12.2068 4.50131 12.1811C4.57025 12.1704 4.64131 12.1703 4.71139 12.1703C7.86231 12.1698 11.0132 12.1698 14.1641 12.1703C14.2343 12.1703 14.3053 12.1703 14.3743 12.1808C14.5471 12.2071 14.6687 12.3433 14.68 12.5148C14.6918 12.6911 14.5964 12.8415 14.4265 12.8891C14.3437 12.9123 14.2535 12.9163 14.1666 12.9164C12.5911 12.9179 11.0156 12.9174 9.44021 12.9174" fill="black"/>
<path fill-rule="evenodd" clip-rule="evenodd" d="M8.35448 8.22224C8.35201 8.84232 8.86172 9.35379 9.47907 9.35079C10.0879 9.3478 10.595 8.84166 10.6003 8.2318C10.6055 7.62057 10.085 7.1003 9.47105 7.10316C8.85934 7.10602 8.3569 7.60956 8.35448 8.22224M7.60207 8.20314C7.62707 7.14683 8.47387 6.33213 9.52098 6.357C10.5718 6.38196 11.3723 7.24016 11.3449 8.3124C11.3195 9.30893 10.4403 10.1241 9.42056 10.0966C8.40255 10.0693 7.57821 9.21093 7.60207 8.20314" fill="black"/>
</svg>
