<?xml version="1.0" encoding="UTF-8"?>
<svg width="23px" height="23px" viewBox="0 0 23 23" version="1.1" xmlns="http://www.w3.org/2000/svg" xmlns:xlink="http://www.w3.org/1999/xlink">
    <title>ic_home copy 6</title>
    <g id="Page-1" stroke="none" stroke-width="1" fill="none" fill-rule="evenodd">
        <g id="iPhone-8-Copy-3" transform="translate(-18.000000, -329.000000)">
            <g id="ic_sales" transform="translate(18.000000, 329.000000)">
                <g id="percentage">
                    <ellipse id="Oval" fill="#5E5896" cx="8.39322708" cy="9.52750307" rx="1" ry="1"></ellipse>
                    <ellipse id="Oval" fill="#5E5896" cx="14.6032271" cy="13.4219816" rx="1" ry="1"></ellipse>
                    <path d="M22.6628104,12.744681 L22.3082271,12.2696299 C21.9248938,11.7522474 21.9153104,11.0514294 22.2938521,10.5246401 L22.6388521,10.0448855 C23.1659354,9.31114315 22.9215604,8.29048875 22.1117688,7.86247239 L21.5846854,7.58496728 C21.0096854,7.28394479 20.6934354,6.65367894 20.8036438,6.01870961 L20.9042688,5.440182 C21.0576021,4.55592843 20.3819771,3.73752352 19.4667688,3.69989571 L18.8678104,3.67637832 C18.2161438,3.64815746 17.6507271,3.21543763 17.4686438,2.59928221 L17.3009354,2.03486503 C17.0469771,1.16942536 16.0790604,0.722595092 15.2357271,1.0800593 L14.6846854,1.31052965 C14.0857271,1.56451738 13.3861438,1.41400613 12.9501021,0.934251534 L12.5523938,0.496828221 C11.9438521,-0.17106544 10.8753104,-0.166361963 10.2715604,0.515642127 L9.87864375,0.957768916 C9.44739375,1.44222699 8.75260208,1.60214519 8.14885208,1.35756442 L7.59301875,1.13179755 C6.74489375,0.788443763 5.78656042,1.25408793 5.54218542,2.11952761 L5.38406042,2.68864826 C5.21156042,3.30950716 4.65572708,3.75163395 4.00406042,3.78455828 L3.40510208,3.81748262 C2.48989375,3.86922086 1.82864375,4.69703272 1.99635208,5.5812863 L2.10656042,6.15981391 C2.22635208,6.79007975 1.91968542,7.42504908 1.34947708,7.73547853 L0.827185417,8.02239059 C0.0269770833,8.45981391 -0.203022917,9.48517178 0.338435417,10.2095072 L0.69301875,10.6845583 C1.07635208,11.2019407 1.08593542,11.9027587 0.70739375,12.4295481 L0.36239375,12.9093027 C-0.164689583,13.643045 0.0796854167,14.6636994 0.889477083,15.0917157 L1.41656042,15.3692209 C1.99156042,15.6702434 2.30781042,16.3005092 2.19760208,16.9354785 L2.09697708,17.5140061 C1.94364375,18.3982597 2.61926875,19.2166646 3.53447708,19.2542924 L4.13343542,19.2778098 C4.78510208,19.3060307 5.35051875,19.7387505 5.53260208,20.3549059 L5.70031042,20.9193231 C5.95426875,21.7847628 6.92218542,22.231593 7.76551875,21.8741288 L8.31656042,21.6436585 C8.91551875,21.3896708 9.61510208,21.540182 10.0511438,22.0199366 L10.4488521,22.4573599 C11.0621854,23.1252536 12.1307271,23.1205501 12.7296854,22.438546 L13.1226021,21.9964192 C13.5538521,21.5119611 14.2486438,21.3520429 14.8523938,21.5966237 L15.4082271,21.8223906 C16.2563521,22.1657444 17.2146854,21.7001002 17.4590604,20.8346605 L17.6171854,20.2655399 C17.7896854,19.644681 18.3455188,19.2025542 18.9971854,19.1696299 L19.5961438,19.1367055 C20.5113521,19.0849673 21.1726021,18.2571554 21.0048938,17.3729018 L20.8946854,16.7943742 C20.7748938,16.1641084 21.0815604,15.5291391 21.6517688,15.2187096 L22.1740604,14.9317975 C22.9742688,14.4990777 23.2042688,13.4737198 22.6628104,12.744681 Z M6.03093542,9.52750307 C6.03093542,8.24815746 7.08510208,7.21339264 8.38843542,7.21339264 C9.69176875,7.21339264 10.7459354,8.24815746 10.7459354,9.52750307 C10.7459354,10.8068487 9.69176875,11.8416135 8.38843542,11.8416135 C7.08510208,11.8416135 6.03093542,10.8021452 6.03093542,9.52750307 Z M8.84364375,15.4962147 C8.64239375,15.736092 8.27822708,15.7690164 8.03385208,15.5714703 L8.03385208,15.5714703 C7.78947708,15.3739243 7.75593542,15.0164601 7.95718542,14.7765828 L14.1432271,7.46267689 C14.3444771,7.22279959 14.7086438,7.18987526 14.9530188,7.38742127 C15.1973938,7.58496728 15.2309354,7.94243149 15.0296854,8.18230879 L8.84364375,15.4962147 Z M14.6032271,15.736092 C13.2998938,15.736092 12.2457271,14.7013272 12.2457271,13.4219816 C12.2457271,12.142636 13.2998938,11.1078712 14.6032271,11.1078712 C15.9065604,11.1078712 16.9607271,12.142636 16.9607271,13.4219816 C16.9607271,14.7013272 15.9065604,15.736092 14.6032271,15.736092 Z" id="Shape" fill="#2D2866" fill-rule="nonzero"></path>
                </g>
            </g>
        </g>
    </g>
</svg>