<?xml version="1.0" encoding="UTF-8"?>
<svg width="23px" height="23px" viewBox="0 0 23 23" version="1.1" xmlns="http://www.w3.org/2000/svg" xmlns:xlink="http://www.w3.org/1999/xlink">
    <title>ic_home copy 5</title>
    <g id="Page-1" stroke="none" stroke-width="1" fill="none" fill-rule="evenodd">
        <g id="iPhone-8-Copy-3" transform="translate(-18.000000, -275.000000)" fill="#2D2866">
            <g id="ic_school-assec" transform="translate(18.000000, 274.000000)">
                <g id="pencil" transform="translate(0.000000, 1.000000)">
                    <path d="M19.7810384,11.0893694 L18.9674976,12.4270215 L16.2653229,10.8128195 L17.0797497,9.47516737 L19.7810384,11.0893694 Z M10.0653303,18.9794638 L10.0653303,11.1079698 L13.2202597,11.1079698 L13.2202597,13.798014 L10.0653303,18.9794638 Z M10.9703081,7.98379844 L12.3152819,7.98379844 L13.0162986,10.0666963 L10.2692915,10.0666963 L10.9703081,7.98379844 Z M11.642795,4.3389904 C11.3523586,4.3389904 11.1170325,4.10578306 11.1170325,3.81835365 C11.1170325,3.53074879 11.3523586,3.29754145 11.642795,3.29754145 C11.9332314,3.29754145 12.1685575,3.53074879 12.1685575,3.81835365 C12.1685575,4.10578306 11.9332314,4.3389904 11.642795,4.3389904 Z M11.642795,0 L14.1819425,3.3522899 L12.3695062,6.942525 L12.1685575,6.942525 L12.1685575,5.28462953 C12.9900724,4.99702467 13.4204995,4.10455471 13.1300632,3.29104885 C12.8396268,2.47771846 11.9383703,2.05148772 11.1170325,2.33909254 C10.2955176,2.62669741 9.86509051,3.51916741 10.1555269,4.33249776 C10.3143011,4.77732895 10.6678219,5.12722774 11.1170325,5.28462953 L11.1170325,6.942525 L10.9160838,6.942525 L9.10364751,3.3522899 L11.642795,0 Z M4.29860006,8.05732282 L4.1440787,8.15822142 L2.20742275,9.4214718 L2.02915615,7.94589567 C2.01940995,7.86570323 1.99088021,7.78884485 1.94604777,7.72146214 L1.36765587,6.85180402 L2.24587587,6.27905097 L2.82426777,7.14870909 C2.86910027,7.21591629 2.92934942,7.27206855 2.99987635,7.31260347 L4.29860006,8.05732282 Z M1.02529885,4.44304754 L1.66677521,5.40798904 L0.788732346,5.98074209 L0,4.79873702 L1.02529885,4.44304754 Z M3.83166914,9.60782709 L5.14616394,8.74817112 L9.01362814,14.5576488 L9.01362814,20.2369234 L2.51451627,10.468185 L3.83166914,9.60782709 Z M12.9936166,22.2368212 C12.5477728,22.9782065 11.5797106,23.2212405 10.8312034,22.7797434 C10.0826963,22.3384218 9.83726954,21.3796219 10.2829361,20.6384121 C10.2861258,20.6331478 10.2893154,20.6278835 10.2925051,20.6227947 L14.2629245,14.1021136 L14.2719619,14.1021136 L14.2719619,14.0880755 L15.7221945,11.7058159 L17.073016,12.513882 L18.425964,13.3189651 L12.9936166,22.2368212 Z M22.5152869,8.61656424 C22.2439884,9.06034255 21.8727473,9.43586079 21.4304476,9.71416545 L20.4965857,10.2999037 L17.4469152,8.48162335 L17.5335676,7.38823356 C17.6299663,6.19271687 18.3651832,5.13968649 19.4608319,4.62852546 L22.8261016,3.05959625 L22.8927301,4.51078118 C22.8401007,4.50499049 22.7869397,4.50727171 22.7350191,4.51762475 L21.4614582,4.8299717 C20.2763219,5.11669919 19.3585855,6.04549265 19.0952612,7.22521654 C19.0319996,7.50562687 19.210089,7.78393153 19.49326,7.84692735 C19.5311816,7.85552566 19.5698119,7.85991254 19.6084423,7.85991254 C19.8545778,7.85973708 20.0675763,7.69057839 20.1210917,7.45280866 C20.2988267,6.65948253 20.9158489,6.0349641 21.7129099,5.84176525 L22.9411066,5.54012231 L22.9963941,6.73774472 C23.0272275,7.3973583 22.8597703,8.05118115 22.5152869,8.61656424 L22.5152869,8.61656424 Z" id="Shape" fill-rule="nonzero"></path>
                </g>
            </g>
        </g>
    </g>
</svg>