<svg width="16" height="16" viewBox="0 0 16 16" fill="none" xmlns="http://www.w3.org/2000/svg">
<path fill-rule="evenodd" clip-rule="evenodd" d="M6.50912 11.8528C9.44964 11.8582 11.8497 9.46528 11.8523 6.52531C11.8549 3.59246 9.47156 1.19967 6.53698 1.1891C3.59671 1.17849 1.19252 3.56713 1.18465 6.5068C1.17678 9.44583 3.56865 11.8474 6.50912 11.8528ZM11.5097 10.7174C11.5684 10.7607 11.6297 10.7947 11.6773 10.8423C13.0404 12.2025 14.4011 13.5649 15.765 14.9243C15.9492 15.1079 16.0509 15.3101 15.9743 15.5719C15.8545 15.9817 15.3676 16.134 15.0359 15.866C14.9832 15.8236 14.937 15.7731 14.889 15.7252C13.5357 14.3726 12.1825 13.0201 10.8303 11.6666C10.787 11.6233 10.7536 11.5699 10.7119 11.5165C9.0778 12.8088 7.26214 13.3004 5.2418 12.9068C3.61952 12.5908 2.30797 11.7441 1.30802 10.4303C-0.657046 7.8483 -0.378296 4.1541 1.9442 1.88493C4.32123 -0.437559 7.98403 -0.641064 10.5713 1.42588C11.9928 2.56155 12.8121 4.04978 12.9989 5.86261C13.185 7.66834 12.6626 9.27229 11.5097 10.7174Z" fill="black"/>
</svg>
