<svg width="21" height="21" viewBox="0 0 21 21" fill="none" xmlns="http://www.w3.org/2000/svg">
<path fill-rule="evenodd" clip-rule="evenodd" d="M8.98813 14.9316C12.5968 14.9383 15.5422 12.0138 15.5455 8.42082C15.5486 4.83652 12.6237 1.91225 9.02232 1.89933C5.41396 1.88636 2.46348 4.80557 2.45383 8.39819C2.44417 11.99 5.37953 14.925 8.98813 14.9316M15.1249 13.5441C15.197 13.5969 15.2722 13.6385 15.3307 13.6967C17.0034 15.359 18.6734 17.024 20.3471 18.6853C20.5732 18.9097 20.698 19.1569 20.604 19.4768C20.4569 19.9776 19.8595 20.1638 19.4524 19.8362C19.3877 19.7844 19.331 19.7227 19.2721 19.6641C17.6113 18.0111 15.9506 16.3582 14.2911 14.7041C14.238 14.6511 14.1971 14.5859 14.1459 14.5206C12.1405 16.1 9.91225 16.7007 7.43285 16.2198C5.44196 15.8336 3.83238 14.7988 2.60522 13.1932C0.193659 10.0377 0.535748 5.52291 3.38596 2.74972C6.3031 -0.088635 10.7982 -0.337343 13.9733 2.18871C15.7179 3.57663 16.7233 5.39542 16.9526 7.61092C17.1809 9.81773 16.5398 11.7779 15.1249 13.5441" fill="white"/>
<path d="M15.5455 8.42082L15.8455 8.42109V8.42108L15.5455 8.42082ZM9.02232 1.89933L9.02124 2.19933H9.02125L9.02232 1.89933ZM2.45383 8.39819L2.75382 8.399L2.45383 8.39819ZM15.3307 13.6967L15.119 13.9093L15.1192 13.9095L15.3307 13.6967ZM20.3471 18.6853L20.5585 18.4724L20.5585 18.4724L20.3471 18.6853ZM20.604 19.4768L20.3161 19.3922L20.3161 19.3923L20.604 19.4768ZM19.4524 19.8362L19.6404 19.6025L19.6401 19.6022L19.4524 19.8362ZM19.2721 19.6641L19.0604 19.8767L19.0605 19.8768L19.2721 19.6641ZM14.2911 14.7041L14.0793 14.9165L14.0794 14.9166L14.2911 14.7041ZM14.1459 14.5206L14.382 14.3356L14.1965 14.0988L13.9603 14.2849L14.1459 14.5206ZM7.43285 16.2198L7.37572 16.5143H7.37572L7.43285 16.2198ZM2.60522 13.1932L2.36686 13.3754L2.36687 13.3754L2.60522 13.1932ZM3.38596 2.74972L3.59517 2.96474L3.59517 2.96473L3.38596 2.74972ZM13.9733 2.18871L13.7865 2.42348L13.7865 2.42348L13.9733 2.18871ZM16.9526 7.61092L17.251 7.58004V7.58004L16.9526 7.61092ZM8.98758 15.2316C12.7608 15.2386 15.842 12.1811 15.8455 8.42109L15.2455 8.42054C15.2423 11.8465 12.4328 14.638 8.98868 14.6316L8.98758 15.2316ZM15.8455 8.42108C15.8488 4.67009 12.7888 1.61284 9.0234 1.59934L9.02125 2.19933C12.4586 2.21166 15.2485 5.00295 15.2455 8.42055L15.8455 8.42108ZM9.0234 1.59934C5.25049 1.58577 2.16393 4.63773 2.15383 8.39738L2.75382 8.399C2.76303 4.9734 5.57743 2.18695 9.02124 2.19933L9.0234 1.59934ZM2.15383 8.39738C2.14372 12.1563 5.21451 15.2247 8.98758 15.2316L8.98868 14.6316C5.54454 14.6253 2.74462 11.8237 2.75382 8.399L2.15383 8.39738ZM14.9476 13.7861C14.9868 13.8148 15.0398 13.8496 15.0623 13.8651C15.093 13.8864 15.1089 13.8993 15.119 13.9093L15.5423 13.4841C15.4939 13.4359 15.4431 13.399 15.4036 13.3716C15.3558 13.3386 15.3352 13.3262 15.3022 13.3021L14.9476 13.7861ZM15.1192 13.9095C16.7913 15.5711 18.4622 17.2371 20.1358 18.8983L20.5585 18.4724C18.8846 16.811 17.2156 15.1469 15.5421 13.4839L15.1192 13.9095ZM20.1358 18.8982C20.2312 18.993 20.2868 19.0748 20.314 19.1487C20.3388 19.2161 20.3456 19.2919 20.3161 19.3922L20.8918 19.5614C20.9563 19.3417 20.9478 19.134 20.8772 18.9418C20.8089 18.756 20.6891 18.6021 20.5585 18.4724L20.1358 18.8982ZM20.3161 19.3923C20.2296 19.687 19.8819 19.7967 19.6404 19.6025L19.2643 20.0699C19.8371 20.5308 20.6843 20.2682 20.8918 19.5613L20.3161 19.3923ZM19.6401 19.6022C19.592 19.5637 19.5552 19.5226 19.4836 19.4514L19.0605 19.8768C19.1067 19.9228 19.1834 20.0051 19.2646 20.0702L19.6401 19.6022ZM19.4837 19.4515C17.823 17.7985 16.1623 16.1457 14.5029 14.4916L14.0794 14.9166C15.7389 16.5708 17.3997 18.2238 19.0604 19.8767L19.4837 19.4515ZM14.503 14.4916C14.4918 14.4806 14.4786 14.4647 14.4579 14.4372C14.442 14.4159 14.4095 14.3707 14.382 14.3356L13.9097 14.7056C13.9334 14.7359 13.947 14.7559 13.9777 14.7968C14.0036 14.8314 14.0373 14.8746 14.0793 14.9165L14.503 14.4916ZM13.9603 14.2849C12.0185 15.8142 9.8778 16.3885 7.48998 15.9253L7.37572 16.5143C9.9467 17.013 12.2625 16.3857 14.3315 14.7563L13.9603 14.2849ZM7.48998 15.9253C5.57451 15.5537 4.02821 14.561 2.84358 13.011L2.36687 13.3754C3.63656 15.0366 5.3094 16.1135 7.37572 16.5143L7.48998 15.9253ZM2.84359 13.011C0.524786 9.97688 0.853186 5.63262 3.59517 2.96474L3.17676 2.5347C0.218309 5.4132 -0.137469 10.0984 2.36686 13.3754L2.84359 13.011ZM3.59517 2.96473C6.40555 0.23026 10.7311 -0.00731543 13.7865 2.42348L14.1601 1.95394C10.8652 -0.66737 6.20065 -0.40753 3.17675 2.5347L3.59517 2.96473ZM13.7865 2.42348C15.4687 3.76178 16.4333 5.50742 16.6541 7.6418L17.251 7.58004C17.0133 5.28342 15.967 3.39149 14.1601 1.95394L13.7865 2.42348ZM16.6541 7.64179C16.8736 9.76303 16.2611 11.6461 14.8908 13.3565L15.359 13.7316C16.8186 11.9098 17.4882 9.87242 17.251 7.58004L16.6541 7.64179Z" fill="#1E3A3A"/>
</svg>
