<svg width="24" height="24" viewBox="0 0 24 24" fill="none" xmlns="http://www.w3.org/2000/svg">
<path fill-rule="evenodd" clip-rule="evenodd" d="M17.3363 6.35284C17.3363 6.71763 17.3292 7.05827 17.3377 7.39847C17.3581 8.2132 17.9619 8.876 18.7892 9.00155C19.5403 9.11558 20.3188 8.63709 20.5721 7.89627C20.745 7.39034 20.64 6.86906 20.6687 6.35284H17.3363ZM12.6701 6.35178C12.6701 6.70828 12.6649 7.04158 12.6712 7.37465C12.6869 8.21136 13.3017 8.89003 14.1412 9.00428C14.9314 9.11174 15.7445 8.59691 15.9231 7.79665C16.0267 7.33258 15.9984 6.83878 16.0299 6.35178H12.6701ZM11.3021 6.35807H8.00498C8.00498 6.71262 7.9983 7.05265 8.00626 7.3924C8.02613 8.2388 8.69455 8.94267 9.53472 9.00979C10.3812 9.07746 11.1675 8.50058 11.2913 7.65914C11.3532 7.23908 11.3021 6.80228 11.3021 6.35807ZM3.3422 6.35139C3.3422 6.73883 3.32445 7.1073 3.34582 7.47354C3.3929 8.28054 4.05988 8.94379 4.86704 9.00968C5.67804 9.0759 6.46128 8.53737 6.61081 7.74278C6.69546 7.29312 6.66808 6.82225 6.69167 6.35139H3.3422ZM13.995 19.6897C13.998 19.6409 14.0019 19.6073 14.0019 19.5736C14.0022 18.2871 14.0046 17.0006 14.0008 15.7141C13.9995 15.2957 13.712 15.0263 13.2785 15.0254C12.4387 15.0236 11.5989 15.0242 10.7591 15.0251C10.263 15.0256 10.0039 15.2861 10.0035 15.7852C10.0028 17.023 10.0033 18.2608 10.0033 19.4987V19.6897H13.995ZM20.2505 5.00035C19.8717 4.23949 19.5043 3.50873 19.144 2.77431C18.9962 2.47307 18.767 2.33433 18.4312 2.33455C14.1475 2.33739 9.86389 2.33761 5.58021 2.33411C5.23422 2.33383 5.00411 2.47952 4.85385 2.78733C4.51866 3.47367 4.17507 4.15584 3.83577 4.84019C3.81217 4.88777 3.79531 4.93869 3.77027 5.00035H20.2505ZM8.67029 19.6952V19.4516C8.67029 18.2276 8.66895 17.0036 8.67068 15.7795C8.67235 14.5527 9.52988 13.692 10.7519 13.6895C11.5779 13.6879 12.4039 13.6885 13.2299 13.6894C14.482 13.6907 15.3338 14.5431 15.3351 15.7972C15.3363 17.0212 15.3354 18.2452 15.3354 19.4692V19.6896H19.3224V10.3493C18.2595 10.4056 17.3682 10.0576 16.6687 9.24308C16.0406 9.9612 15.2738 10.3464 14.3381 10.3475C13.3959 10.3488 12.6252 9.95703 12.0021 9.24469C11.3761 9.95992 10.6098 10.346 9.67424 10.3476C8.7319 10.3493 7.96096 9.95814 7.34574 9.25499C6.3177 10.2049 5.80309 10.4184 4.68784 10.3614V19.6952H8.67029ZM20.6778 19.6996C20.8897 19.6996 21.0895 19.698 21.2893 19.6999C21.6979 19.7039 21.9958 19.9816 21.9997 20.3599C22.0036 20.7472 21.7033 21.0343 21.283 21.0344C18.77 21.0358 16.2569 21.0352 13.7439 21.0352C10.0993 21.0352 6.45471 21.0353 2.81012 21.0344C2.7134 21.0344 2.61361 21.0365 2.52062 21.0148C2.19284 20.9385 1.97613 20.6306 2.00802 20.3016C2.03991 19.9726 2.31048 19.7142 2.64873 19.7018C2.8695 19.6937 3.09077 19.7003 3.33819 19.7003V19.4646C3.33819 16.3276 3.33713 13.1906 3.34142 10.0536C3.34164 9.90755 3.30185 9.81678 3.18437 9.72474C2.42178 9.12727 2.028 8.33669 2.00746 7.36741C1.996 6.82509 1.9985 6.28222 2.0098 5.73995C2.01275 5.59927 2.04809 5.44773 2.10992 5.32162C2.63259 4.25568 3.15827 3.19124 3.69636 2.1332C4.07774 1.38336 4.70381 1.00288 5.54337 1.00221C9.84748 0.999091 14.1516 0.999369 18.4557 1.00198C19.3044 1.00243 19.9332 1.38648 20.3167 2.14528C20.8491 3.19864 21.3722 4.25679 21.8893 5.31773C21.9565 5.45574 21.995 5.62253 21.9953 5.77613C21.9964 6.43615 22.0182 7.10001 21.9573 7.75547C21.8811 8.57632 21.4573 9.22844 20.8141 9.74104C20.7445 9.79653 20.6737 9.90288 20.6735 9.9858C20.6666 13.1923 20.6679 16.3989 20.6683 19.6055C20.6683 19.626 20.6723 19.6465 20.6778 19.6996Z" fill="black"/>
<path d="M17.3363 6.35284V6.22784H17.2113V6.35284H17.3363ZM17.3377 7.39847L17.2127 7.40159L17.2127 7.40161L17.3377 7.39847ZM18.7892 9.00155L18.8079 8.87797L18.8079 8.87797L18.7892 9.00155ZM20.5721 7.89627L20.4538 7.85583V7.85583L20.5721 7.89627ZM20.6687 6.35284L20.7935 6.35977L20.8008 6.22784H20.6687V6.35284ZM12.6701 6.35178V6.22678H12.5451V6.35178H12.6701ZM12.6712 7.37465L12.7961 7.37229V7.37229L12.6712 7.37465ZM14.1412 9.00428L14.1244 9.12814L14.1244 9.12814L14.1412 9.00428ZM15.9231 7.79665L15.8011 7.76941L15.8011 7.76942L15.9231 7.79665ZM16.0299 6.35178L16.1546 6.35985L16.1632 6.22678H16.0299V6.35178ZM8.00498 6.35807V6.23307H7.87998V6.35807H8.00498ZM8.00626 7.3924L7.8813 7.39533V7.39533L8.00626 7.3924ZM9.53472 9.00979L9.54468 8.88519L9.54467 8.88518L9.53472 9.00979ZM11.2913 7.65914L11.415 7.67734L11.415 7.67734L11.2913 7.65914ZM3.3422 6.35139V6.22639H3.2172V6.35139H3.3422ZM3.34582 7.47354L3.4706 7.46626L3.4706 7.46626L3.34582 7.47354ZM4.86704 9.00968L4.87721 8.88509H4.87721L4.86704 9.00968ZM6.61081 7.74278L6.48797 7.71966L6.48797 7.71966L6.61081 7.74278ZM6.69167 6.35139L6.81651 6.35765L6.82309 6.22639H6.69167V6.35139ZM13.995 19.6897V19.8147H14.1124L14.1197 19.6976L13.995 19.6897ZM14.0019 19.5736L13.8769 19.5736V19.5736H14.0019ZM14.0008 15.7141L13.8758 15.7145V15.7145L14.0008 15.7141ZM13.2785 15.0254L13.2782 15.1504H13.2782L13.2785 15.0254ZM10.7591 15.0251L10.759 14.9001H10.759L10.7591 15.0251ZM10.0035 15.7852L9.87852 15.7851V15.7851L10.0035 15.7852ZM10.0033 19.6897H9.8783V19.8147H10.0033V19.6897ZM20.2505 5.00035V5.12535H20.4524L20.3624 4.94464L20.2505 5.00035ZM19.144 2.77431L19.2563 2.71925L19.2563 2.71924L19.144 2.77431ZM18.4312 2.33455L18.4313 2.45955H18.4313L18.4312 2.33455ZM5.58021 2.33411L5.58031 2.20911H5.58031L5.58021 2.33411ZM4.85385 2.78733L4.96617 2.84218L4.96618 2.84216L4.85385 2.78733ZM3.83577 4.84019L3.94775 4.89572L3.94776 4.89571L3.83577 4.84019ZM3.77027 5.00035L3.65445 4.95331L3.58458 5.12535H3.77027V5.00035ZM8.67029 19.6952V19.8202H8.79529V19.6952H8.67029ZM8.67068 15.7795L8.79568 15.7797V15.7797L8.67068 15.7795ZM10.7519 13.6895L10.7517 13.5645H10.7517L10.7519 13.6895ZM13.2299 13.6894L13.2298 13.8144H13.2298L13.2299 13.6894ZM15.3351 15.7972L15.4601 15.797V15.797L15.3351 15.7972ZM15.3354 19.6896H15.2104V19.8146H15.3354V19.6896ZM19.3224 19.6896V19.8146H19.4474V19.6896H19.3224ZM19.3224 10.3493H19.4474V10.2175L19.3158 10.2245L19.3224 10.3493ZM16.6687 9.24308L16.7635 9.16164L16.6696 9.05222L16.5746 9.16078L16.6687 9.24308ZM14.3381 10.3475L14.338 10.2225H14.338L14.3381 10.3475ZM12.0021 9.24469L12.0961 9.16239L12.0021 9.05487L11.908 9.16237L12.0021 9.24469ZM9.67424 10.3476L9.67403 10.2226H9.67401L9.67424 10.3476ZM7.34574 9.25499L7.43981 9.17268L7.35524 9.07602L7.26091 9.16318L7.34574 9.25499ZM4.68784 10.3614L4.69422 10.2365L4.56284 10.2298V10.3614H4.68784ZM4.68784 19.6952H4.56284V19.8202H4.68784V19.6952ZM21.2893 19.6999L21.2905 19.5749H21.2905L21.2893 19.6999ZM21.9997 20.3599L22.1247 20.3587V20.3587L21.9997 20.3599ZM21.283 21.0344L21.2829 20.9094H21.2829L21.283 21.0344ZM2.81012 21.0344L2.81015 20.9094H2.81012V21.0344ZM2.52062 21.0148L2.54903 20.8931L2.54898 20.8931L2.52062 21.0148ZM2.00802 20.3016L1.8836 20.2895L1.8836 20.2895L2.00802 20.3016ZM2.64873 19.7018L2.64416 19.5769H2.64415L2.64873 19.7018ZM3.33819 19.7003V19.8253H3.46319V19.7003H3.33819ZM3.34142 10.0536L3.21642 10.0534V10.0534L3.34142 10.0536ZM3.18437 9.72474L3.26147 9.62634L3.26146 9.62634L3.18437 9.72474ZM2.00746 7.36741L1.88249 7.37005L1.88249 7.37006L2.00746 7.36741ZM2.0098 5.73995L1.88483 5.73733L1.88483 5.73735L2.0098 5.73995ZM2.10992 5.32162L1.99768 5.26659L1.99768 5.26659L2.10992 5.32162ZM3.69636 2.1332L3.58494 2.07654L3.58494 2.07654L3.69636 2.1332ZM5.54337 1.00221L5.54328 0.877208L5.54327 0.877208L5.54337 1.00221ZM18.4557 1.00198L18.4556 1.12698H18.4556L18.4557 1.00198ZM20.3167 2.14528L20.4283 2.0889L20.4283 2.08889L20.3167 2.14528ZM21.8893 5.31773L22.0017 5.26299L22.0017 5.26296L21.8893 5.31773ZM21.9953 5.77613L22.1203 5.7759V5.7759L21.9953 5.77613ZM21.9573 7.75547L21.8329 7.74391L21.8329 7.74392L21.9573 7.75547ZM20.8141 9.74104L20.7362 9.64329L20.7361 9.64332L20.8141 9.74104ZM20.6735 9.9858L20.7985 9.98607V9.98605L20.6735 9.9858ZM20.6683 19.6055H20.7933V19.6055L20.6683 19.6055ZM17.2113 6.35284C17.2113 6.71405 17.2041 7.05943 17.2127 7.40159L17.4626 7.39534C17.4542 7.05711 17.4613 6.72121 17.4613 6.35284H17.2113ZM17.2127 7.40161C17.2348 8.27995 17.8863 8.99096 18.7704 9.12514L18.8079 8.87797C18.0375 8.76105 17.4815 8.14645 17.4626 7.39532L17.2127 7.40161ZM18.7704 9.12514C19.5832 9.24851 20.4181 8.733 20.6903 7.9367L20.4538 7.85583C20.2195 8.54119 19.4975 8.98265 18.8079 8.87797L18.7704 9.12514ZM20.6903 7.9367C20.7835 7.66414 20.8005 7.39094 20.7995 7.1279C20.7984 6.85708 20.7794 6.61404 20.7935 6.35977L20.5439 6.34591C20.5293 6.60786 20.5485 6.88357 20.5495 7.12892C20.5505 7.38206 20.5336 7.62247 20.4538 7.85583L20.6903 7.9367ZM20.6687 6.22784H17.3363V6.47784H20.6687V6.22784ZM12.5451 6.35178C12.5451 6.7056 12.5399 7.04245 12.5462 7.37701L12.7961 7.37229C12.7899 7.04071 12.7951 6.71096 12.7951 6.35178H12.5451ZM12.5462 7.377C12.5631 8.27695 13.2254 9.0058 14.1244 9.12814L14.1581 8.88042C13.378 8.77426 12.8107 8.14577 12.7961 7.37229L12.5462 7.377ZM14.1244 9.12814C14.9739 9.24367 15.8513 8.69234 16.0451 7.82387L15.8011 7.76942C15.6377 8.50149 14.8889 8.97981 14.1581 8.88042L14.1244 9.12814ZM16.0451 7.82389C16.0993 7.58089 16.1185 7.33262 16.1284 7.08787C16.1385 6.83821 16.1389 6.60245 16.1546 6.35985L15.9051 6.34371C15.8893 6.58812 15.8881 6.84275 15.8786 7.07776C15.8689 7.31767 15.8504 7.54833 15.8011 7.76941L16.0451 7.82389ZM16.0299 6.22678H12.6701V6.47678H16.0299V6.22678ZM11.3021 6.23307H8.00498V6.48307H11.3021V6.23307ZM7.87998 6.35807C7.87998 6.70925 7.87329 7.05374 7.8813 7.39533L8.13123 7.38947C8.12331 7.05156 8.12998 6.71599 8.12998 6.35807H7.87998ZM7.8813 7.39533C7.90267 8.3059 8.62089 9.06219 9.52477 9.13439L9.54467 8.88518C8.76822 8.82316 8.14959 8.1717 8.13123 7.38947L7.8813 7.39533ZM9.52476 9.13439C10.4313 9.20687 11.2808 8.58921 11.415 7.67734L11.1677 7.64093C11.0542 8.41195 10.331 8.94805 9.54468 8.88519L9.52476 9.13439ZM11.415 7.67734C11.4475 7.4568 11.45 7.23426 11.4449 7.01476C11.4397 6.79079 11.4271 6.57919 11.4271 6.35807H11.1771C11.1771 6.58115 11.19 6.81006 11.1949 7.02056C11.1999 7.23553 11.197 7.44142 11.1677 7.64093L11.415 7.67734ZM3.2172 6.35139C3.2172 6.73056 3.19939 7.10999 3.22103 7.48082L3.4706 7.46626C3.4495 7.10461 3.4672 6.74711 3.4672 6.35139H3.2172ZM3.22103 7.48082C3.27185 8.352 3.9896 9.06347 4.85687 9.13426L4.87721 8.88509C4.13015 8.82411 3.51394 8.20907 3.4706 7.46626L3.22103 7.48082ZM4.85687 9.13426C5.72453 9.20511 6.57101 8.63014 6.73365 7.7659L6.48797 7.71966C6.35154 8.44459 5.63156 8.94669 4.87721 8.88509L4.85687 9.13426ZM6.73365 7.7659C6.7778 7.5314 6.79234 7.29356 6.79908 7.05862C6.80595 6.81943 6.80476 6.59225 6.81651 6.35765L6.56683 6.34513C6.55499 6.58139 6.55569 6.82508 6.54919 7.05145C6.54256 7.28208 6.52847 7.5045 6.48797 7.71966L6.73365 7.7659ZM6.69167 6.22639H3.3422V6.47639H6.69167V6.22639ZM14.1197 19.6976C14.1223 19.6574 14.1269 19.6122 14.1269 19.5736H13.8769C13.8769 19.6023 13.8738 19.6244 13.8702 19.6819L14.1197 19.6976ZM14.1269 19.5736C14.1272 18.2874 14.1296 17.0005 14.1258 15.7138L13.8758 15.7145C13.8796 17.0007 13.8772 18.2868 13.8769 19.5736L14.1269 19.5736ZM14.1258 15.7138C14.1251 15.4749 14.0419 15.2687 13.8878 15.1225C13.7343 14.9769 13.5214 14.9009 13.2787 14.9004L13.2782 15.1504C13.4691 15.1508 13.6167 15.2099 13.7157 15.3039C13.8141 15.3972 13.8752 15.535 13.8758 15.7145L14.1258 15.7138ZM13.2787 14.9004C12.4388 14.8986 11.5988 14.8992 10.759 14.9001L10.7592 15.1501C11.5991 15.1492 12.4387 15.1486 13.2782 15.1504L13.2787 14.9004ZM10.759 14.9001C10.4901 14.9004 10.2645 14.9714 10.1068 15.1301C9.9491 15.2886 9.8787 15.5151 9.87852 15.7851L10.1285 15.7853C10.1287 15.5562 10.188 15.4029 10.2841 15.3063C10.38 15.2098 10.532 15.1503 10.7592 15.1501L10.759 14.9001ZM9.87852 15.7851C9.8778 17.023 9.8783 18.2609 9.8783 19.4987H10.1283C10.1283 18.2608 10.1278 17.023 10.1285 15.7853L9.87852 15.7851ZM9.8783 19.4987V19.6897H10.1283V19.4987H9.8783ZM10.0033 19.8147H13.995V19.5647H10.0033V19.8147ZM20.3624 4.94464C19.9833 4.18318 19.6163 3.45325 19.2563 2.71925L19.0318 2.82936C19.3923 3.56421 19.7601 4.29579 20.1386 5.05605L20.3624 4.94464ZM19.2563 2.71924C19.1743 2.55209 19.0655 2.42203 18.9235 2.33486C18.7817 2.2478 18.6165 2.20943 18.4311 2.20955L18.4313 2.45955C18.5817 2.45945 18.699 2.49034 18.7927 2.5479C18.8863 2.60535 18.966 2.69528 19.0318 2.82937L19.2563 2.71924ZM18.4311 2.20955C14.1475 2.21239 9.86392 2.21261 5.58031 2.20911L5.5801 2.45911C9.86386 2.46261 14.1476 2.46239 18.4313 2.45955L18.4311 2.20955ZM5.58031 2.20911C5.38942 2.20895 5.22103 2.24924 5.07729 2.33924C4.93359 2.42922 4.8244 2.56271 4.74152 2.73249L4.96618 2.84216C5.03356 2.70413 5.11455 2.61088 5.20997 2.55113C5.30535 2.4914 5.42502 2.45898 5.58011 2.45911L5.58031 2.20911ZM4.74153 2.73247C4.40653 3.41844 4.06358 4.09931 3.72378 4.78466L3.94776 4.89571C4.28656 4.21238 4.6308 3.52891 4.96617 2.84218L4.74153 2.73247ZM3.72378 4.78465C3.69761 4.83742 3.67527 4.90205 3.65445 4.95331L3.88608 5.04738C3.91535 4.97532 3.92673 4.93811 3.94775 4.89572L3.72378 4.78465ZM3.77027 5.12535H20.2505V4.87535H3.77027V5.12535ZM8.79529 19.6952V19.4516H8.54529V19.6952H8.79529ZM8.79529 19.4516C8.79529 18.2274 8.79395 17.0036 8.79568 15.7797L8.54568 15.7793C8.54395 17.0035 8.54529 18.2277 8.54529 19.4516H8.79529ZM8.79568 15.7797C8.79647 15.1961 9.00032 14.7069 9.34223 14.3636C9.68411 14.0204 10.1712 13.8157 10.7522 13.8145L10.7517 13.5645C10.1105 13.5659 9.5579 13.7928 9.16509 14.1872C8.77231 14.5816 8.54656 15.1361 8.54568 15.7794L8.79568 15.7797ZM10.7522 13.8145C11.5779 13.8129 12.4038 13.8135 13.2298 13.8144L13.23 13.5644C12.404 13.5635 11.5779 13.5629 10.7517 13.5645L10.7522 13.8145ZM13.2298 13.8144C13.8268 13.815 14.3197 14.018 14.6631 14.3618C15.0066 14.7057 15.2095 15.1992 15.2101 15.7973L15.4601 15.797C15.4595 15.141 15.2358 14.5813 14.84 14.1851C14.4442 13.7889 13.8851 13.5651 13.23 13.5644L13.2298 13.8144ZM15.2101 15.7973C15.2113 17.0212 15.2104 18.2451 15.2104 19.4692H15.4604C15.4604 18.2453 15.4613 17.0211 15.4601 15.797L15.2101 15.7973ZM15.2104 19.4692V19.6896H15.4604V19.4692H15.2104ZM15.3354 19.8146H19.3224V19.5646H15.3354V19.8146ZM19.4474 19.6896V10.3493H19.1974V19.6896H19.4474ZM19.3158 10.2245C18.2888 10.2789 17.436 9.94473 16.7635 9.16164L16.5739 9.32452C17.3004 10.1706 18.2302 10.5324 19.329 10.4741L19.3158 10.2245ZM16.5746 9.16078C15.9676 9.85485 15.2338 10.2214 14.338 10.2225L14.3383 10.4725C15.3138 10.4713 16.1137 10.0676 16.7628 9.32537L16.5746 9.16078ZM14.338 10.2225C13.436 10.2238 12.6984 9.8508 12.0961 9.16239L11.908 9.327C12.5521 10.0632 13.3559 10.4739 14.3383 10.4725L14.338 10.2225ZM11.908 9.16237C11.303 9.8536 10.5697 10.2211 9.67403 10.2226L9.67444 10.4726C10.6498 10.471 11.4492 10.0662 12.0961 9.32701L11.908 9.16237ZM9.67401 10.2226C8.77162 10.2242 8.03388 9.85165 7.43981 9.17268L7.25166 9.3373C7.88804 10.0646 8.69218 10.4743 9.67446 10.4726L9.67401 10.2226ZM7.26091 9.16318C6.74928 9.63592 6.37689 9.91418 6.00148 10.0704C5.62923 10.2252 5.24288 10.2646 4.69422 10.2365L4.68146 10.4862C5.24805 10.5152 5.67663 10.4763 6.09751 10.3012C6.51522 10.1274 6.91416 9.82396 7.43057 9.3468L7.26091 9.16318ZM4.56284 10.3614V19.6952H4.81284V10.3614H4.56284ZM4.68784 19.8202H8.67029V19.5702H4.68784V19.8202ZM20.6778 19.8246C20.8911 19.8246 21.0891 19.823 21.2881 19.8249L21.2905 19.5749C21.0899 19.573 20.8883 19.5746 20.6778 19.5746V19.8246ZM21.2881 19.8249C21.6372 19.8283 21.8716 20.0592 21.8747 20.3612L22.1247 20.3587C22.1201 19.904 21.7586 19.5795 21.2905 19.5749L21.2881 19.8249ZM21.8747 20.3612C21.8778 20.6712 21.6417 20.9093 21.2829 20.9094L21.283 21.1594C21.7648 21.1592 22.1293 20.8232 22.1247 20.3587L21.8747 20.3612ZM21.2829 20.9094C18.7699 20.9108 16.257 20.9102 13.7439 20.9102V21.1602C16.2569 21.1602 18.77 21.1608 21.2831 21.1594L21.2829 20.9094ZM13.7439 20.9102C10.0993 20.9102 6.45472 20.9103 2.81015 20.9094L2.81009 21.1594C6.4547 21.1603 10.0993 21.1602 13.7439 21.1602V20.9102ZM2.81012 20.9094C2.70764 20.9094 2.62475 20.9108 2.54903 20.8931L2.49221 21.1366C2.60247 21.1623 2.71915 21.1594 2.81012 21.1594V20.9094ZM2.54898 20.8931C2.28276 20.8311 2.10654 20.5808 2.13244 20.3136L1.8836 20.2895C1.84572 20.6803 2.10291 21.0459 2.49226 21.1366L2.54898 20.8931ZM2.13244 20.3136C2.15828 20.047 2.37763 19.8368 2.65331 19.8267L2.64415 19.5769C2.24334 19.5916 1.92153 19.8982 1.8836 20.2895L2.13244 20.3136ZM2.6533 19.8267C2.87116 19.8188 3.08573 19.8253 3.33819 19.8253V19.5753C3.09581 19.5753 2.86783 19.5687 2.64416 19.5769L2.6533 19.8267ZM3.46319 19.7003V19.4646H3.21319V19.7003H3.46319ZM3.46319 19.4646C3.46319 16.3275 3.46213 13.1906 3.46642 10.0538L3.21642 10.0534C3.21213 13.1905 3.21319 16.3276 3.21319 19.4646H3.46319ZM3.46642 10.0538C3.46655 9.96957 3.4552 9.89045 3.4202 9.81583C3.385 9.74078 3.33072 9.6806 3.26147 9.62634L3.10728 9.82313C3.1555 9.86092 3.17986 9.89215 3.19387 9.922C3.20807 9.95229 3.21651 9.99156 3.21642 10.0534L3.46642 10.0538ZM3.26146 9.62634C2.52851 9.05209 2.15218 8.29672 2.13243 7.36476L1.88249 7.37006C1.90382 8.37666 2.31506 9.20244 3.10728 9.82313L3.26146 9.62634ZM2.13243 7.36477C2.12102 6.82457 2.1235 6.28349 2.13477 5.74256L1.88483 5.73735C1.8735 6.28094 1.87098 6.82561 1.88249 7.37005L2.13243 7.36477ZM2.13477 5.74257C2.13736 5.6192 2.16871 5.48566 2.22215 5.37665L1.99768 5.26659C1.92747 5.4098 1.88814 5.57933 1.88483 5.73733L2.13477 5.74257ZM2.22215 5.37666C2.74475 4.31088 3.27011 3.24708 3.80778 2.18987L3.58494 2.07654C3.04643 3.1354 2.52044 4.20049 1.99768 5.26659L2.22215 5.37666ZM3.80778 2.18987C3.98958 1.83242 4.22665 1.56857 4.51323 1.39342C4.79986 1.21824 5.14299 1.12753 5.54347 1.12721L5.54327 0.877208C5.10419 0.877557 4.71451 0.977415 4.38286 1.18011C4.05117 1.38283 3.78452 1.68415 3.58494 2.07654L3.80778 2.18987ZM5.54346 1.12721C9.8475 1.12409 14.1516 1.12437 18.4556 1.12698L18.4558 0.876985C14.1516 0.874369 9.84745 0.874091 5.54328 0.877208L5.54346 1.12721ZM18.4556 1.12698C18.8607 1.1272 19.2067 1.21876 19.4953 1.3958C19.7838 1.57282 20.0222 1.83967 20.2052 2.20167L20.4283 2.08889C20.2277 1.69209 19.9599 1.38752 19.626 1.1827C19.2921 0.9779 18.8994 0.877218 18.4558 0.876985L18.4556 1.12698ZM20.2052 2.20166C20.7372 3.25438 21.26 4.31197 21.777 5.3725L22.0017 5.26296C21.4843 4.20162 20.961 3.14291 20.4283 2.0889L20.2052 2.20166ZM21.7769 5.37247C21.8359 5.49342 21.87 5.64156 21.8703 5.77635L22.1203 5.7759C22.12 5.6035 22.0772 5.41807 22.0017 5.26299L21.7769 5.37247ZM21.8703 5.77635C21.8715 6.44172 21.893 7.09618 21.8329 7.74391L22.0818 7.76703C22.1434 7.10384 22.1214 6.43058 22.1203 5.7759L21.8703 5.77635ZM21.8329 7.74392C21.7605 8.52389 21.3589 9.14706 20.7362 9.64329L20.892 9.8388C21.5557 9.30982 22.0018 8.62876 22.0818 7.76702L21.8329 7.74392ZM20.7361 9.64332C20.6886 9.68122 20.644 9.73332 20.6107 9.78865C20.5785 9.84212 20.5487 9.91223 20.5485 9.98555L20.7985 9.98605C20.7985 9.97645 20.8042 9.95192 20.8249 9.91761C20.8444 9.88516 20.87 9.85636 20.892 9.83877L20.7361 9.64332ZM20.5485 9.98553C20.5416 13.1922 20.5429 16.399 20.5433 19.6055L20.7933 19.6055C20.7929 16.3988 20.7916 13.1924 20.7985 9.98607L20.5485 9.98553ZM20.5433 19.6055C20.5433 19.6237 20.5452 19.6403 20.5469 19.655C20.5487 19.6707 20.5509 19.6871 20.5535 19.7125L20.8022 19.6867C20.7993 19.659 20.7967 19.6387 20.7952 19.6257C20.7935 19.6117 20.7933 19.6078 20.7933 19.6055H20.5433Z" fill="#F9F8F4"/>
</svg>
