<?xml version="1.0" encoding="UTF-8"?>
<svg width="43px" height="36px" viewBox="0 0 43 36" version="1.1" xmlns="http://www.w3.org/2000/svg" xmlns:xlink="http://www.w3.org/1999/xlink">
    <!-- Generator: Sketch 64 (93537) - https://sketch.com -->
    <title>shipping-truck</title>
    <desc>Created with Sketch.</desc>
    <defs>
        <polygon id="path-1" points="0.00499954044 0.0802531655 42.6627451 0.0802531655 42.6627451 35.9162791 0.00499954044 35.9162791"></polygon>
        <polygon id="path-3" points="0.00499954044 0.0802531655 42.6627451 0.0802531655 42.6627451 35.9162791 0.00499954044 35.9162791"></polygon>
    </defs>
    <g id="Page-1" stroke="none" stroke-width="1" fill="none" fill-rule="evenodd">
        <g id="shipping-truck" transform="translate(-661.000000, -24.000000)">
            <g id="free-delivery" transform="translate(661.000000, 24.000000)">
                <g id="Group">
                    <path d="M29.8817533,9.89682955 L4.23061112,9.89682955 C3.83714729,9.89682955 3.51809328,10.2122503 3.51809328,10.6012335 L3.51809328,25.3939626 L5.65573012,25.3939626 C6.44274112,25.3939626 7.0807658,26.0247216 7.0807658,26.8028528 C7.0807658,27.5808191 6.44274112,28.2116606 5.65573012,28.2116606 L3.51809328,28.2116606 L3.51809328,30.3248723 C3.51809328,30.7139378 3.83714729,31.0293586 4.23061112,31.0293586 L30.5942711,31.0293586 L30.5942711,10.6012335 C30.5942711,10.2121679 30.2752171,9.89682955 29.8817533,9.89682955" id="Fill-1" fill="#7E79AB" fill-rule="nonzero"></path>
                    <path d="M39.1446518,21.1674568 L30.5942711,21.1674568 L30.5942711,31.0293586 L41.9947232,31.0293586 L41.9947232,23.9851548 C41.9947232,22.4289749 40.7186738,21.1674568 39.1446518,21.1674568" id="Fill-2" fill="#7E79AB" fill-rule="nonzero"></path>
                    <path d="M38.3133949,23.2807509 C39.1004892,23.2807509 39.7384306,23.9114275 39.7384306,24.6895587 L39.7384306,31.0293586 L30.5942711,31.0293586 L30.5942711,23.2807509 L38.3133949,23.2807509 Z" id="Fill-3" fill-opacity="0.437415082" fill="#5E5896" fill-rule="nonzero"></path>
                    <path d="M30.5942711,12.7145275 L30.5942711,15.5321432 L38.432134,15.5321432 L38.432134,14.8277393 C38.432134,13.6606249 37.4750553,12.7145275 36.2944971,12.7145275 L30.5942711,12.7145275 Z" id="Fill-4" fill="#7E79AB" fill-rule="nonzero"></path>
                    <polygon id="Fill-5" fill="#B7E0ED" fill-rule="nonzero" points="37.7195328 15.5321432 30.5942711 15.5321432 30.5942711 21.1674568 39.1446518 21.1674568"></polygon>
                    <path d="M39.1446518,23.9851548 L41.9947232,23.9851548 L41.9947232,26.8028528 L40.5696875,26.8028528 C39.7825932,26.8028528 39.1446518,26.1720937 39.1446518,25.3939626 L39.1446518,23.9851548" id="Fill-6" fill="#F4F6F8" fill-rule="nonzero"></path>
                    <path d="M30.5942711,29.0077498 L30.5942711,31.0293586 L41.2329599,31.0293586 C40.8815755,28.2502129 38.4882955,26.0984489 35.5819793,26.0984489 C33.43451,26.0984489 31.5661818,27.2735537 30.5942711,29.0077498 Z" id="Fill-7" fill="#5E5896" fill-rule="nonzero"></path>
                    <path d="M39.7383472,31.0293586 L41.2329599,31.0293586 C41.0799739,29.8193259 40.5394403,28.7286573 39.7383472,27.8823182 L39.7383472,31.0293586 Z" id="Fill-8" fill="#5E5896" fill-rule="nonzero"></path>
                    <path d="M35.5819793,28.2114134 C37.5495484,28.2114134 39.1446518,29.7882699 39.1446518,31.733433 C39.1446518,33.6786784 37.5495484,35.2555349 35.5819793,35.2555349 C33.6144102,35.2555349 32.0193068,33.6786784 32.0193068,31.733433 C32.0193068,29.7882699 33.6144102,28.2114134 35.5819793,28.2114134" id="Fill-9" fill="#555761" fill-rule="nonzero"></path>
                    <path d="M38.2539837,17.6454373 L37.7195328,15.5321432 L30.5942711,15.5321432 L30.5942711,21.1674568 L32.7318246,21.1674568 L32.7318246,18.3498412 C32.7318246,17.9606932 33.0508786,17.6454373 33.4444258,17.6454373 L38.2539837,17.6454373 Z" id="Fill-10" fill="#A0CFE5" fill-rule="nonzero"></path>
                    <path d="M7.62263266,28.2116606 L3.51809328,28.2116606 L3.51809328,30.3248723 C3.51809328,30.7139378 3.83714729,31.0293586 4.23061112,31.0293586 L30.5942711,31.0293586 L30.5942711,28.2116606 L16.5143153,28.2116606 C15.4697447,26.9245233 13.8677253,26.0984489 12.068474,26.0984489 C10.2692227,26.0984489 8.66720331,26.9245233 7.62263266,28.2116606 Z" id="Fill-11" fill="#5E5896" fill-rule="nonzero"></path>
                    <g id="Group-15">
                        <g id="Fill-12-Clipped">
                            <mask id="mask-2" fill="white">
                                <use xlink:href="#path-1"></use>
                            </mask>
                            <g id="path-1"></g>
                            <path d="M12.068474,28.2114134 C14.0360431,28.2114134 15.6311465,29.7882699 15.6311465,31.733433 C15.6311465,33.6786784 14.0360431,35.2555349 12.068474,35.2555349 C10.1009049,35.2555349 8.50580148,33.6786784 8.50580148,31.733433 C8.50580148,29.7882699 10.1009049,28.2114134 12.068474,28.2114134" id="Fill-12" fill="#555761" fill-rule="nonzero" mask="url(#mask-2)"></path>
                        </g>
                        <g id="Fill-14-Clipped">
                            <mask id="mask-4" fill="white">
                                <use xlink:href="#path-3"></use>
                            </mask>
                            <g id="path-1"></g>
                            <path d="M40.5696875,26.1424381 C40.1522259,26.1424381 39.8125904,25.8066703 39.8125904,25.3939626 L39.8125904,24.6455695 L41.3267846,24.6455695 L41.3267846,26.1424381 L40.5696875,26.1424381 Z M35.5819793,34.5954497 C33.985876,34.5954497 32.6873287,33.3116074 32.6873287,31.7337625 C32.6873287,30.1558351 33.985876,28.8720753 35.5819793,28.8720753 C37.1780826,28.8720753 38.4766299,30.1558351 38.4766299,31.7337625 C38.4766299,33.3116074 37.1780826,34.5954497 35.5819793,34.5954497 Z M12.068474,34.5954497 C10.472454,34.5954497 9.17382341,33.3116074 9.17382341,31.7337625 C9.17382341,30.1558351 10.472454,28.8720753 12.068474,28.8720753 C13.6645773,28.8720753 14.9631246,30.1558351 14.9631246,31.7337625 C14.9631246,33.3116074 13.6645773,34.5954497 12.068474,34.5954497 Z M36.2944971,13.3748599 C37.1048393,13.3748599 37.764112,14.026625 37.764112,14.8277393 L37.764112,14.8718108 L31.262293,14.8718108 L31.262293,13.3748599 L36.2944971,13.3748599 Z M31.262293,16.1925579 L37.1979974,16.1925579 L38.2890638,20.5071245 L31.262293,20.5071245 L31.262293,16.1925579 Z M10.759011,4.21868001 C10.1654823,3.4493632 10.3158018,2.34609089 11.0940636,1.75932104 C11.4149507,1.51746279 11.7929993,1.40065251 12.1683815,1.40065251 C12.703499,1.40065251 13.2330336,1.63830954 13.5819182,2.0905581 C14.2281088,2.92824764 15.2400158,5.74742842 15.9082044,7.77883998 C15.4572458,7.51646992 14.9389601,7.2092045 14.407009,6.88225103 C11.7720012,5.26354717 10.9904064,4.51869627 10.759011,4.21868001 Z M20.5306961,2.09047572 L20.5306961,2.09047572 C21.1242249,1.32115891 22.2402057,1.17263356 23.0183841,1.75932104 C23.7966459,2.34609089 23.9468821,3.4493632 23.3534367,4.21868001 C23.1220413,4.51861389 22.3405298,5.26354717 19.7056053,6.88216866 C19.1736542,7.20903975 18.6553685,7.51630516 18.20441,7.77875761 C18.8725152,5.74726367 19.8845055,2.92824764 20.5306961,2.09047572 Z M38.5713712,16.1779772 C38.8734267,16.114547 39.1000726,15.8496233 39.1000726,15.5321432 L39.1000726,14.8277393 C39.1000726,13.2983318 37.8415216,12.0541128 36.2944971,12.0541128 L31.262293,12.0541128 L31.262293,10.6012335 C31.262293,9.84863913 30.6430166,9.23641485 29.8817533,9.23641485 L20.52478,9.23641485 L26.210924,6.98785808 C26.5534759,6.85243064 26.7200439,6.46806055 26.5830565,6.12940958 C26.4460691,5.79084099 26.0575215,5.62608741 25.714803,5.76151485 L21.0589809,7.60263604 C22.4777672,6.70275202 23.8813048,5.71233591 24.4157557,5.01971188 C25.4559934,3.67128626 25.192601,1.73757357 23.828643,0.709099381 C22.464685,-0.319374803 20.5086982,-0.0588170258 19.4683771,1.2896086 C18.7082803,2.27499972 17.7053725,5.04376591 17.0562655,6.9948601 C16.4071585,5.04384828 15.4042507,2.27499972 14.6441539,1.2896086 C13.6039995,-0.0588170258 11.6479293,-0.319210049 10.2839714,0.709099381 C8.9200134,1.73749119 8.65662095,3.67120388 9.69685866,5.01971188 C10.2312262,5.71241828 11.6347639,6.70275202 13.0535501,7.60263604 L8.3978114,5.76151485 C8.05509291,5.62584028 7.66646196,5.79075861 7.52947456,6.12940958 C7.39240382,6.46806055 7.55905517,6.85243064 7.90160702,6.98785808 L13.587751,9.23641485 L4.23061112,9.23641485 C3.46943109,9.23641485 2.85015468,9.84863913 2.85015468,10.6012335 L2.85015468,22.576347 C2.85015468,22.941029 3.14921052,23.2366793 3.51809328,23.2366793 C3.88705937,23.2366793 4.18611521,22.941029 4.18611521,22.576347 L4.18611521,10.6012335 C4.18611521,10.5769323 4.20603005,10.5572443 4.23061112,10.5572443 C10.7592284,10.5572443 15.6556914,10.5572443 18.92,10.5572443 C21.3559452,10.5572443 25.0098629,10.5572443 29.8817533,10.5572443 C29.9063343,10.5572443 29.9262492,10.5769323 29.9262492,10.6012335 L29.9262492,22.5765117 C29.9262492,22.9411937 30.2253883,23.2369264 30.5942711,23.2369264 C30.9631539,23.2369264 31.262293,22.9411937 31.262293,22.5765117 L31.262293,21.8278715 L39.1420687,21.8278715 C39.1427353,21.8278715 39.1434019,21.8280362 39.1440685,21.8280362 C40.1158125,21.8286952 40.9390702,22.4578891 41.2217109,23.3248224 L39.1446518,23.3248224 C38.7756857,23.3248224 38.4766299,23.6205551 38.4766299,23.9852371 L38.4766299,25.394045 C38.4766299,26.5350458 39.4155436,27.4632675 40.5696875,27.4632675 L41.3267846,27.4632675 L41.3267846,30.3690262 L39.5801118,30.3690262 C39.0063312,28.7311286 37.4313093,27.5513282 35.5819793,27.5513282 C33.732566,27.5513282 32.1575441,28.7311286 31.5838468,30.3690262 L31.262293,30.3690262 L31.262293,25.394045 C31.262293,25.0293629 30.9631539,24.7337126 30.5942711,24.7337126 C30.2253883,24.7337126 29.9262492,25.0293629 29.9262492,25.394045 L29.9262492,30.3690262 L16.0666065,30.3690262 C15.4928259,28.7311286 13.9178873,27.5513282 12.068474,27.5513282 C10.219144,27.5513282 8.64403877,28.7311286 8.07042483,30.3690262 L4.23061112,30.3690262 C4.20603005,30.3690262 4.18611521,30.3492558 4.18611521,30.3249547 L4.18611521,28.8721576 L7.0807658,28.8721576 C7.44964856,28.8721576 7.74878773,28.576425 7.74878773,28.2117429 C7.74878773,27.8470609 7.44964856,27.5513282 7.0807658,27.5513282 L0.668021929,27.5513282 C0.299055844,27.5513282 0,27.8470609 0,28.2117429 C0,28.576425 0.299055844,28.8721576 0.668021929,28.8721576 L2.85015468,28.8721576 L2.85015468,30.3249547 C2.85015468,31.077549 3.46943109,31.6897733 4.23061112,31.6897733 L7.83902943,31.6897733 C7.83877946,31.7045187 7.83786288,31.719017 7.83786288,31.7338448 C7.83786288,34.039983 9.73577175,35.9162791 12.068474,35.9162791 C14.4011762,35.9162791 16.2991684,34.039983 16.2991684,31.7338448 C16.2991684,31.719017 16.2981685,31.7045187 16.2980019,31.6897733 L31.3523681,31.6897733 C31.3522014,31.7045187 31.3512015,31.719017 31.3512015,31.7338448 C31.3512015,34.039983 33.2491104,35.9162791 35.581896,35.9162791 C37.9145982,35.9162791 39.8125071,34.039983 39.8125071,31.7338448 C39.8125071,31.719017 39.8115905,31.7045187 39.8113405,31.6897733 L41.9947232,31.6897733 C42.3636893,31.6897733 42.6627451,31.394123 42.6627451,31.0294409 L42.6627451,23.9852371 C42.6627451,22.2459337 41.3647811,20.8008801 39.6761863,20.5468301 L38.5713712,16.1779772 Z" id="Fill-14" stroke="#000000" stroke-width="0.5" fill="#FFFFFF" fill-rule="nonzero" mask="url(#mask-4)"></path>
                        </g>
                    </g>
                    <path d="M12.068474,30.3689439 C11.3072106,30.3689439 10.6879342,30.9811681 10.6879342,31.7337625 C10.6879342,32.4863568 11.3072106,33.0985811 12.068474,33.0985811 C12.8297374,33.0985811 13.4490138,32.4863568 13.4490138,31.7337625 C13.4490138,30.9811681 12.8297374,30.3689439 12.068474,30.3689439" id="Fill-16" fill="#0A0B09" fill-rule="nonzero"></path>
                    <path d="M35.5819793,30.3689439 C34.8207159,30.3689439 34.2014395,30.9811681 34.2014395,31.7337625 C34.2014395,32.4863568 34.8207159,33.0985811 35.5819793,33.0985811 C36.3432427,33.0985811 36.9625191,32.4863568 36.9625191,31.7337625 C36.9625191,30.9811681 36.3432427,30.3689439 35.5819793,30.3689439" id="Fill-17" fill="#0A0B09" fill-rule="nonzero"></path>
                    <path d="M17.1007614,28.2116606 C17.1007614,28.5763426 17.3998173,28.8720753 17.7687,28.8720753 L27.7441164,28.8720753 C28.1130825,28.8720753 28.4121384,28.5763426 28.4121384,28.2116606 C28.4121384,27.8469785 28.1130825,27.5512459 27.7441164,27.5512459 L17.7687,27.5512459 C17.3998173,27.5512459 17.1007614,27.8469785 17.1007614,28.2116606" id="Fill-18" fill="#0A0B09" fill-rule="nonzero"></path>
                    <path d="M2.09305761,26.0543773 L10.6434383,26.0543773 C11.0123211,26.0543773 11.3113769,25.758727 11.3113769,25.3939626 C11.3113769,25.0292805 11.0123211,24.7336303 10.6434383,24.7336303 L2.09305761,24.7336303 C1.72417485,24.7336303 1.42503568,25.0292805 1.42503568,25.3939626 C1.42503568,25.758727 1.72417485,26.0543773 2.09305761,26.0543773" id="Fill-19" fill="#0A0B09" fill-rule="nonzero"></path>
                    <path d="M10.6434383,16.1925579 C11.0123211,16.1925579 11.3113769,15.8969076 11.3113769,15.5321432 C11.3113769,15.1674611 11.0123211,14.8718108 10.6434383,14.8718108 L7.79328364,14.8718108 C7.42440088,14.8718108 7.12526171,15.1674611 7.12526171,15.5321432 L7.12526171,21.1674568 C7.12526171,21.5322212 7.42440088,21.8278715 7.79328364,21.8278715 C8.16224972,21.8278715 8.46130557,21.5322212 8.46130557,21.1674568 L8.46130557,19.0102559 L9.93092048,19.0102559 C10.2998032,19.0102559 10.5988591,18.7145232 10.5988591,18.3498412 C10.5988591,17.9850767 10.2998032,17.6894265 9.93092048,17.6894265 L8.46130557,17.6894265 L8.46130557,16.1925579 L10.6434383,16.1925579" id="Fill-20" fill="#0A0B09" fill-rule="nonzero"></path>
                    <path d="M13.4490138,16.1925579 L14.5623281,16.1925579 C15.1762717,16.1925579 15.6756424,16.6862419 15.6756424,17.2931941 C15.6756424,17.9001463 15.1762717,18.3938304 14.5623281,18.3938304 L13.4490138,18.3938304 L13.4490138,16.1925579 Z M17.0116863,17.2931941 C17.0116863,15.9579488 15.9129539,14.8718108 14.5623281,14.8718108 L12.7809918,14.8718108 C12.4121091,14.8718108 12.1130532,15.1674611 12.1130532,15.5321432 L12.1130532,21.1674568 C12.1130532,21.5322212 12.4121091,21.8278715 12.7809918,21.8278715 C13.1499579,21.8278715 13.4490138,21.5322212 13.4490138,21.1674568 L13.4490138,19.7146598 L14.5610782,19.7146598 L15.7877988,21.5337863 C15.9165369,21.7246534 16.1282675,21.8279539 16.3441643,21.8279539 C16.4715693,21.8279539 16.6002241,21.7920376 16.714047,21.7169099 C17.0211021,21.5146749 17.1040111,21.1046033 16.8993633,20.8012096 L15.9003718,19.3198278 C16.5688937,18.8869378 17.0116863,18.1404394 17.0116863,17.2931941 L17.0116863,17.2931941 Z" id="Fill-21" fill="#0A0B09" fill-rule="nonzero"></path>
                    <path d="M21.3313725,16.1925579 C21.7002553,16.1925579 21.9993945,15.8969076 21.9993945,15.5321432 C21.9993945,15.1674611 21.7002553,14.8718108 21.3313725,14.8718108 L18.4812179,14.8718108 C18.1123351,14.8718108 17.8132793,15.1674611 17.8132793,15.5321432 L17.8132793,21.1674568 C17.8132793,21.5322212 18.1123351,21.8278715 18.4812179,21.8278715 L21.3313725,21.8278715 C21.7002553,21.8278715 21.9993945,21.5322212 21.9993945,21.1674568 C21.9993945,20.8027747 21.7002553,20.5071245 21.3313725,20.5071245 L19.1492398,20.5071245 L19.1492398,19.0080317 C19.1640718,19.0090202 19.1787371,19.0102559 19.193819,19.0102559 L20.6188547,19.0102559 C20.9877375,19.0102559 21.2868766,18.7145232 21.2868766,18.3498412 C21.2868766,17.9850767 20.9877375,17.6894265 20.6188547,17.6894265 L19.193819,17.6894265 C19.1787371,17.6894265 19.1640718,17.6906621 19.1492398,17.6916506 L19.1492398,16.1925579 L21.3313725,16.1925579" id="Fill-22" fill="#0A0B09" fill-rule="nonzero"></path>
                    <path d="M26.3190807,16.1925579 C26.6879635,16.1925579 26.9871027,15.8969076 26.9871027,15.5321432 C26.9871027,15.1674611 26.6879635,14.8718108 26.3190807,14.8718108 L23.4689261,14.8718108 C23.1000433,14.8718108 22.8009875,15.1674611 22.8009875,15.5321432 L22.8009875,21.1674568 C22.8009875,21.5322212 23.1000433,21.8278715 23.4689261,21.8278715 L26.3190807,21.8278715 C26.6879635,21.8278715 26.9871027,21.5322212 26.9871027,21.1674568 C26.9871027,20.8027747 26.6879635,20.5071245 26.3190807,20.5071245 L24.136948,20.5071245 L24.136948,19.0102559 L24.8940451,19.0102559 C25.2629278,19.0102559 25.5619837,18.7145232 25.5619837,18.3498412 C25.5619837,17.9850767 25.2629278,17.6894265 24.8940451,17.6894265 L24.136948,17.6894265 L24.136948,16.1925579 L26.3190807,16.1925579" id="Fill-23" fill="#0A0B09" fill-rule="nonzero"></path>
                </g>
            </g>
        </g>
    </g>
</svg>