<svg width="20" height="20" viewBox="0 0 20 20" fill="none" xmlns="http://www.w3.org/2000/svg">
<path fill-rule="evenodd" clip-rule="evenodd" d="M6.62782 5.53676H13.3379C13.3379 5.17034 13.3569 4.82142 13.3345 4.47522C13.2499 3.17037 12.6242 2.19013 11.4574 1.61788C10.2803 1.04059 9.10392 1.13339 8.02559 1.89181C6.76256 2.78005 6.4757 4.07012 6.62782 5.53676ZM14.5801 6.80892C14.5801 6.92706 14.5802 7.02458 14.5801 7.1221C14.5798 7.51179 14.5884 7.90179 14.5765 8.29123C14.5648 8.67635 14.311 8.93063 13.9635 8.93191C13.6165 8.93302 13.369 8.68123 13.3458 8.29451C13.3369 8.14503 13.3432 7.99475 13.3431 7.84487C13.3429 7.49979 13.343 7.1548 13.343 6.81332H6.6014C6.6014 6.95104 6.60164 7.06911 6.60132 7.18709C6.60036 7.56686 6.61317 7.94727 6.59395 8.32608C6.57538 8.69434 6.31542 8.93358 5.97869 8.93175C5.64316 8.92983 5.39281 8.68299 5.36783 8.31921C5.35758 8.16997 5.36455 8.01953 5.36447 7.86965C5.36415 7.51474 5.36439 7.15975 5.36439 6.80964H2.29993V7.14848C2.29993 10.2164 2.32411 13.2846 2.2888 16.3521C2.27327 17.7037 3.299 18.7859 4.71486 18.7704C8.22005 18.7318 11.7262 18.7324 15.2313 18.77C16.6617 18.7853 17.6703 17.6938 17.6553 16.3502C17.6211 13.2826 17.6445 10.2145 17.6445 7.14656V6.80892H14.5801ZM5.34141 5.55586C5.36447 5.04004 5.36047 4.56028 5.41146 4.08634C5.64652 1.89885 7.5068 0.152195 9.70453 0.0376481C11.9692 -0.0803356 14.0106 1.46129 14.4615 3.6479C14.5375 4.01688 14.5512 4.40001 14.5769 4.77778C14.5936 5.0243 14.58 5.27289 14.58 5.55586H14.926C15.9849 5.55586 17.0439 5.55442 18.1027 5.55642C18.6494 5.55746 18.8695 5.77217 18.8698 6.319C18.8719 9.70727 18.8816 13.0956 18.8665 16.484C18.8576 18.5037 17.3443 19.9916 15.3192 19.9956C11.773 20.0025 8.22686 20 4.68068 19.9966C2.5831 19.9946 1.09447 18.5195 1.07557 16.4196C1.0642 15.1503 1.07341 13.8808 1.07333 12.6115C1.07333 10.5524 1.07309 8.49346 1.07357 6.43442C1.07365 5.73316 1.25443 5.55594 1.96592 5.55586C3.08364 5.5557 4.20136 5.55586 5.34141 5.55586Z" fill="white"/>
<path d="M13.3379 5.53676V5.76176H13.5629V5.53676H13.3379ZM13.3345 4.47522L13.5591 4.46069L13.5591 4.46066L13.3345 4.47522ZM11.4574 1.61788L11.3583 1.81989L11.3583 1.81989L11.4574 1.61788ZM8.02559 1.89181L8.15502 2.07586L8.15503 2.07585L8.02559 1.89181ZM14.5801 6.80892V6.58392H14.3551V6.80892H14.5801ZM14.5801 7.1221L14.8051 7.12229V7.12229L14.5801 7.1221ZM14.5765 8.29123L14.3516 8.28434L14.3516 8.2844L14.5765 8.29123ZM13.9635 8.93191L13.9642 9.1569H13.9643L13.9635 8.93191ZM13.3458 8.29451L13.1212 8.30798L13.1212 8.30799L13.3458 8.29451ZM13.3431 7.84487L13.5681 7.84475V7.84472L13.3431 7.84487ZM13.343 6.81332H13.568V6.58832H13.343V6.81332ZM6.6014 6.81332V6.58832H6.3764V6.81332H6.6014ZM6.60132 7.18709L6.37632 7.18648L6.37632 7.18652L6.60132 7.18709ZM6.59395 8.32608L6.36924 8.31468L6.36924 8.31475L6.59395 8.32608ZM5.97869 8.93175L5.9774 9.15674H5.97746L5.97869 8.93175ZM5.36783 8.31921L5.5923 8.30379V8.30379L5.36783 8.31921ZM5.36447 7.86965L5.58947 7.86953V7.86945L5.36447 7.86965ZM5.36439 6.80964H5.58939V6.58464H5.36439V6.80964ZM2.29993 6.80964V6.58464H2.07493V6.80964H2.29993ZM2.2888 16.3521L2.06382 16.3495L2.06382 16.3495L2.2888 16.3521ZM4.71486 18.7704L4.71239 18.5454H4.71238L4.71486 18.7704ZM15.2313 18.77L15.2337 18.545H15.2337L15.2313 18.77ZM17.6553 16.3502L17.8803 16.3477V16.3477L17.6553 16.3502ZM17.6445 6.80892H17.8695V6.58392H17.6445V6.80892ZM5.41146 4.08634L5.63517 4.11041L5.63518 4.11038L5.41146 4.08634ZM9.70453 0.0376481L9.69282 -0.187047L9.69281 -0.187047L9.70453 0.0376481ZM14.4615 3.6479L14.6818 3.60248L14.6818 3.60246L14.4615 3.6479ZM14.5769 4.77778L14.8014 4.76254L14.8014 4.76251L14.5769 4.77778ZM14.58 5.55586H14.355V5.78086H14.58V5.55586ZM18.1027 5.55642L18.1031 5.33142H18.1031L18.1027 5.55642ZM18.8698 6.319L18.6448 6.31913V6.31914L18.8698 6.319ZM18.8665 16.484L18.6415 16.483V16.483L18.8665 16.484ZM15.3192 19.9956L15.3197 20.2206H15.3197L15.3192 19.9956ZM4.68068 19.9966L4.68046 20.2216H4.68046L4.68068 19.9966ZM1.07557 16.4196L0.85058 16.4216L0.85058 16.4216L1.07557 16.4196ZM1.07333 12.6115H0.848329V12.6115L1.07333 12.6115ZM1.07357 6.43442L1.29857 6.43448V6.43445L1.07357 6.43442ZM1.96592 5.55586L1.96594 5.78086H1.96595L1.96592 5.55586ZM6.62782 5.76176H13.3379V5.31176H6.62782V5.76176ZM13.5629 5.53676C13.5629 5.18729 13.5821 4.81599 13.5591 4.46069L13.11 4.48976C13.1318 4.82685 13.1129 5.15339 13.1129 5.53676H13.5629ZM13.5591 4.46066C13.4695 3.07951 12.7993 2.02541 11.5564 1.41587L11.3583 1.81989C12.449 2.35485 13.0303 3.26123 13.11 4.48979L13.5591 4.46066ZM11.5564 1.41587C10.3054 0.802267 9.04139 0.90229 7.89615 1.70778L8.15503 2.07585C9.16644 1.3645 10.2553 1.27891 11.3583 1.81989L11.5564 1.41587ZM7.89615 1.70777C6.54087 2.66089 6.24731 4.04905 6.40402 5.55997L6.85162 5.51355C6.70409 4.09118 6.98425 2.89921 8.15502 2.07586L7.89615 1.70777ZM14.3551 6.80892C14.3551 6.92732 14.3552 7.02451 14.3551 7.12192L14.8051 7.12229C14.8052 7.02466 14.8051 6.92681 14.8051 6.80892H14.3551ZM14.3551 7.12192C14.3548 7.51867 14.3634 7.8992 14.3516 8.28434L14.8014 8.29812C14.8135 7.90437 14.8048 7.5049 14.8051 7.12229L14.3551 7.12192ZM14.3516 8.2844C14.3472 8.42858 14.2986 8.53257 14.2343 8.59897C14.1707 8.66464 14.0796 8.70648 13.9627 8.70691L13.9643 9.1569C14.1949 9.15606 14.4045 9.07011 14.5576 8.91205C14.7099 8.75472 14.7941 8.539 14.8014 8.29805L14.3516 8.2844ZM13.9628 8.70691C13.8467 8.70728 13.7577 8.66666 13.6945 8.60175C13.6299 8.53536 13.5793 8.42968 13.5704 8.28102L13.1212 8.30799C13.1355 8.54605 13.2203 8.75963 13.372 8.91555C13.5251 9.07294 13.7333 9.15765 13.9642 9.1569L13.9628 8.70691ZM13.5704 8.28103C13.562 8.14023 13.5682 8.00768 13.5681 7.84475L13.1181 7.84499C13.1182 7.98182 13.1117 8.14982 13.1212 8.30798L13.5704 8.28103ZM13.5681 7.84472C13.5679 7.49974 13.568 7.15494 13.568 6.81332H13.118C13.118 7.15466 13.1179 7.49985 13.1181 7.84503L13.5681 7.84472ZM13.343 6.58832H6.6014V7.03832H13.343V6.58832ZM6.3764 6.81332C6.3764 6.95166 6.37664 7.06889 6.37632 7.18648L6.82632 7.1877C6.82664 7.06932 6.8264 6.95043 6.8264 6.81332H6.3764ZM6.37632 7.18652C6.37533 7.57742 6.3881 7.94285 6.36924 8.31468L6.81866 8.33748C6.83823 7.95169 6.82538 7.5563 6.82632 7.18766L6.37632 7.18652ZM6.36924 8.31475C6.35651 8.56712 6.19206 8.70791 5.97992 8.70675L5.97746 9.15674C6.43878 9.15926 6.79425 8.82156 6.81867 8.33741L6.36924 8.31475ZM5.97998 8.70675C5.77445 8.70557 5.61008 8.56266 5.5923 8.30379L5.14336 8.33462C5.17554 8.80331 5.51187 9.15408 5.9774 9.15674L5.97998 8.70675ZM5.5923 8.30379C5.58274 8.16455 5.58956 8.03373 5.58947 7.86953L5.13947 7.86977C5.13954 8.00533 5.13243 8.17539 5.14336 8.33462L5.5923 8.30379ZM5.58947 7.86945C5.58915 7.51467 5.58939 7.15996 5.58939 6.80964H5.13939C5.13939 7.15954 5.13915 7.51481 5.13947 7.86986L5.58947 7.86945ZM5.36439 6.58464H2.29993V7.03464H5.36439V6.58464ZM2.07493 6.80964V7.14848H2.52493V6.80964H2.07493ZM2.07493 7.14848C2.07493 10.2188 2.0991 13.2837 2.06382 16.3495L2.51379 16.3547C2.54911 13.2855 2.52493 10.214 2.52493 7.14848H2.07493ZM2.06382 16.3495C2.04687 17.8244 3.17234 19.0123 4.71734 18.9953L4.71238 18.5454C3.42565 18.5595 2.49967 17.583 2.51379 16.3547L2.06382 16.3495ZM4.71733 18.9953C8.22085 18.9568 11.7254 18.9574 15.2289 18.9949L15.2337 18.545C11.727 18.5074 8.21925 18.5068 4.71239 18.5454L4.71733 18.9953ZM15.2289 18.9949C16.7903 19.0117 17.8966 17.8127 17.8803 16.3477L17.4303 16.3527C17.4439 17.5749 16.5332 18.5589 15.2337 18.545L15.2289 18.9949ZM17.8803 16.3477C17.8461 13.2817 17.8695 10.2168 17.8695 7.14656H17.4195C17.4195 10.2121 17.3961 13.2835 17.4303 16.3527L17.8803 16.3477ZM17.8695 7.14656V6.80892H17.4195V7.14656H17.8695ZM17.6445 6.58392H14.5801V7.03392H17.6445V6.58392ZM5.56619 5.56591C5.58998 5.03369 5.58512 4.57558 5.63517 4.11041L5.18776 4.06227C5.13581 4.54497 5.13896 5.0464 5.11664 5.54581L5.56619 5.56591ZM5.63518 4.11038C5.85832 2.03372 7.62789 0.371189 9.71624 0.262343L9.69281 -0.187047C7.38571 -0.0667995 5.43472 1.76397 5.18775 4.0623L5.63518 4.11038ZM9.71623 0.262343C11.8735 0.149953 13.8134 1.61915 14.2411 3.69334L14.6818 3.60246C14.2077 1.30342 12.0648 -0.310624 9.69282 -0.187047L9.71623 0.262343ZM14.2411 3.69332C14.3132 4.04303 14.326 4.40465 14.3524 4.79305L14.8014 4.76251C14.7764 4.39537 14.7619 3.99073 14.6818 3.60248L14.2411 3.69332ZM14.3524 4.79301C14.3685 5.02985 14.355 5.25613 14.355 5.55586H14.805C14.805 5.28965 14.8188 5.01874 14.8014 4.76254L14.3524 4.79301ZM14.58 5.78086H14.926V5.33086H14.58V5.78086ZM14.926 5.78086C15.9853 5.78086 17.0437 5.77942 18.1022 5.78142L18.1031 5.33142C17.044 5.32942 15.9845 5.33086 14.926 5.33086V5.78086ZM18.1022 5.78142C18.3543 5.7819 18.4723 5.83302 18.5328 5.89294C18.5928 5.95226 18.6447 6.06817 18.6448 6.31913L19.0948 6.31887C19.0946 6.023 19.0363 5.75813 18.8494 5.57314C18.6632 5.38874 18.3977 5.33198 18.1031 5.33142L18.1022 5.78142ZM18.6448 6.31914C18.6469 9.70809 18.6566 13.0954 18.6415 16.483L19.0915 16.485C19.1066 13.0959 19.0969 9.70646 19.0948 6.31886L18.6448 6.31914ZM18.6415 16.483C18.6332 18.3769 17.2222 19.7668 15.3188 19.7706L15.3197 20.2206C17.4664 20.2164 19.0821 18.6304 19.0915 16.485L18.6415 16.483ZM15.3188 19.7706C11.773 19.7775 8.22708 19.775 4.68089 19.7716L4.68046 20.2216C8.22664 20.225 11.7731 20.2275 15.3197 20.2206L15.3188 19.7706ZM4.68089 19.7716C3.6862 19.7707 2.84815 19.4213 2.25706 18.8351C1.66599 18.2488 1.30952 17.4134 1.30056 16.4175L0.85058 16.4216C0.860514 17.5257 1.25781 18.4778 1.94017 19.1546C2.62252 19.8314 3.57758 20.2206 4.68046 20.2216L4.68089 19.7716ZM1.30056 16.4175C1.2892 15.1495 1.29841 13.8831 1.29833 12.6114L0.848329 12.6115C0.848409 13.8786 0.8392 15.151 0.85058 16.4216L1.30056 16.4175ZM1.29833 12.6115C1.29833 10.5524 1.29809 8.49348 1.29857 6.43448L0.848569 6.43437C0.848089 8.49345 0.848329 10.5525 0.848329 12.6115H1.29833ZM1.29857 6.43445C1.29861 6.08334 1.34917 5.95318 1.41076 5.89259C1.47361 5.83075 1.60873 5.7809 1.96594 5.78086L1.96589 5.33086C1.61161 5.3309 1.3006 5.3697 1.09517 5.57181C0.888477 5.77516 0.848609 6.08424 0.848569 6.4344L1.29857 6.43445ZM1.96595 5.78086C3.08365 5.7807 4.20131 5.78086 5.34141 5.78086V5.33086C4.2014 5.33086 3.08362 5.3307 1.96589 5.33086L1.96595 5.78086Z" fill="#1E3A3A"/>
</svg>
