<svg width="20" height="20" viewBox="0 0 20 20" fill="none" xmlns="http://www.w3.org/2000/svg">
<path fill-rule="evenodd" clip-rule="evenodd" d="M7.3023 6.43635H12.6704C12.6704 6.14275 12.6856 5.86318 12.6677 5.58579C12.6 4.54027 12.0994 3.75485 11.1659 3.29633C10.2243 2.83377 9.28318 2.90813 8.42052 3.51582C7.4101 4.22752 7.18061 5.2612 7.3023 6.43635ZM13.6641 7.45567C13.6641 7.55034 13.6642 7.62848 13.6641 7.70661C13.6639 8.01885 13.6708 8.33134 13.6613 8.64338C13.6519 8.95196 13.4489 9.1557 13.1708 9.15673C12.8933 9.15762 12.6953 8.95587 12.6767 8.64601C12.6695 8.52624 12.6746 8.40583 12.6745 8.28574C12.6743 8.00924 12.6745 7.73281 12.6745 7.4592H7.28117C7.28117 7.56955 7.28136 7.66415 7.2811 7.75869C7.28033 8.06298 7.29058 8.36778 7.27521 8.67131C7.26035 8.96638 7.05239 9.15807 6.783 9.1566C6.51458 9.15506 6.3143 8.95728 6.29431 8.6658C6.28612 8.54622 6.29169 8.42568 6.29162 8.30559C6.29137 8.02122 6.29156 7.73678 6.29156 7.45625H3.83999V7.72775C3.83999 10.1859 3.85933 12.6443 3.83109 15.1022C3.81866 16.1852 4.63925 17.0523 5.77194 17.0398C8.57609 17.009 11.381 17.0094 14.1851 17.0395C15.3294 17.0518 16.1363 16.1772 16.1243 15.1006C16.0969 12.6427 16.1156 10.1844 16.1156 7.72621V7.45567H13.6641ZM6.27318 6.45166C6.29162 6.03835 6.28842 5.65394 6.32922 5.2742C6.51727 3.52146 8.00549 2.12194 9.76367 2.03016C11.5754 1.93563 13.2085 3.17086 13.5692 4.92289C13.6301 5.21854 13.641 5.52552 13.6616 5.82821C13.675 6.02574 13.6641 6.22493 13.6641 6.45166H13.9409C14.788 6.45166 15.6351 6.4505 16.4822 6.45211C16.9196 6.45294 17.0956 6.62497 17.0959 7.06312C17.0976 9.77799 17.1053 12.4929 17.0933 15.2079C17.0862 16.8262 15.8755 18.0184 14.2554 18.0216C11.4185 18.0271 8.58153 18.0251 5.74459 18.0224C4.06653 18.0208 2.87562 16.8388 2.86051 15.1562C2.85141 14.1392 2.85878 13.1221 2.85871 12.105C2.85871 10.4552 2.85852 8.80542 2.8589 7.15561C2.85897 6.59372 3.00359 6.45172 3.57278 6.45166C4.46696 6.45153 5.36113 6.45166 6.27318 6.45166Z" fill="#1E3A3A"/>
<path d="M12.6704 6.43635V6.66135H12.8954V6.43635H12.6704ZM12.6677 5.58579L12.8922 5.57127L12.8922 5.57125L12.6677 5.58579ZM11.1659 3.29633L11.0667 3.49828L11.0667 3.49828L11.1659 3.29633ZM8.42052 3.51582L8.55008 3.69977L8.55009 3.69977L8.42052 3.51582ZM13.6641 7.45567V7.23067H13.4391V7.45567H13.6641ZM13.6641 7.70661L13.8891 7.7068L13.6641 7.70661ZM13.6613 8.64338L13.4364 8.6365L13.4364 8.63657L13.6613 8.64338ZM13.1708 9.15673L13.1716 9.38173L13.1717 9.38172L13.1708 9.15673ZM12.6767 8.64601L12.4521 8.65946L12.4521 8.65947L12.6767 8.64601ZM12.6745 8.28574L12.8995 8.28562V8.28558L12.6745 8.28574ZM12.6745 7.4592H12.8995V7.2342H12.6745V7.4592ZM7.28117 7.4592V7.2342H7.05617V7.4592H7.28117ZM7.2811 7.75869L7.0561 7.75808V7.75812L7.2811 7.75869ZM7.27521 8.67131L7.0505 8.65993L7.0505 8.65999L7.27521 8.67131ZM6.783 9.1566L6.78171 9.38159L6.78177 9.3816L6.783 9.1566ZM6.29431 8.6658L6.51879 8.65041V8.65041L6.29431 8.6658ZM6.29162 8.30559L6.51662 8.30547L6.51662 8.30539L6.29162 8.30559ZM6.29156 7.45625H6.51656V7.23125H6.29156V7.45625ZM3.83999 7.45625V7.23125H3.61499V7.45625H3.83999ZM3.83109 15.1022L3.6061 15.0996V15.0996L3.83109 15.1022ZM5.77194 17.0398L5.76946 16.8148H5.76946L5.77194 17.0398ZM14.1851 17.0395L14.1875 16.8145H14.1875L14.1851 17.0395ZM16.1243 15.1006L16.3493 15.0981L16.1243 15.1006ZM16.1156 7.45567H16.3406V7.23067H16.1156V7.45567ZM6.32922 5.2742L6.55293 5.29823L6.55294 5.2982L6.32922 5.2742ZM9.76367 2.03016L9.75195 1.80547L9.75194 1.80547L9.76367 2.03016ZM13.5692 4.92289L13.7896 4.87754L13.7896 4.87752L13.5692 4.92289ZM13.6616 5.82821L13.8861 5.813L13.8861 5.81297L13.6616 5.82821ZM13.6641 6.45166H13.4391V6.67666H13.6641V6.45166ZM16.4822 6.45211L16.4826 6.22711H16.4826L16.4822 6.45211ZM17.0959 7.06312L16.8709 7.06326V7.06326L17.0959 7.06312ZM17.0933 15.2079L16.8683 15.2069V15.2069L17.0933 15.2079ZM14.2554 18.0216L14.2559 18.2466H14.2559L14.2554 18.0216ZM5.74459 18.0224L5.74437 18.2474H5.74438L5.74459 18.0224ZM2.86051 15.1562L2.63551 15.1582L2.63551 15.1583L2.86051 15.1562ZM2.85871 12.105H2.63371V12.105L2.85871 12.105ZM2.8589 7.15561L3.0839 7.15566V7.15563L2.8589 7.15561ZM3.57278 6.45166L3.57281 6.67666H3.57282L3.57278 6.45166ZM7.3023 6.66135H12.6704V6.21135H7.3023V6.66135ZM12.8954 6.43635C12.8954 6.15968 12.9107 5.85776 12.8922 5.57127L12.4431 5.60031C12.4605 5.8686 12.4454 6.12583 12.4454 6.43635H12.8954ZM12.8922 5.57125C12.8196 4.4496 12.2747 3.59027 11.2651 3.09438L11.0667 3.49828C11.9241 3.91943 12.3804 4.63094 12.4431 5.60033L12.8922 5.57125ZM11.2651 3.09438C10.2494 2.59541 9.22056 2.67703 8.29094 3.33188L8.55009 3.69977C9.3458 3.13924 10.1992 3.07214 11.0667 3.49828L11.2651 3.09438ZM8.29095 3.33187C7.18834 4.10851 6.95224 5.24024 7.0785 6.45953L7.52611 6.41317C7.40898 5.28215 7.63185 4.34654 8.55008 3.69977L8.29095 3.33187ZM13.4391 7.45567C13.4391 7.55059 13.4392 7.6284 13.4391 7.70643L13.8891 7.7068C13.8892 7.62855 13.8891 7.55008 13.8891 7.45567H13.4391ZM13.4391 7.70643C13.4389 8.02572 13.4458 8.32876 13.4364 8.6365L13.8861 8.65026C13.8958 8.33392 13.8889 8.01197 13.8891 7.7068L13.4391 7.70643ZM13.4364 8.63657C13.4331 8.74257 13.3978 8.81482 13.3551 8.85898C13.3131 8.90237 13.2521 8.93143 13.17 8.93173L13.1717 9.38172C13.3676 9.381 13.5471 9.30767 13.6785 9.1718C13.8092 9.03668 13.88 8.85277 13.8861 8.6502L13.4364 8.63657ZM13.1701 8.93173C13.0888 8.93199 13.0296 8.90391 12.988 8.86113C12.945 8.81685 12.9079 8.74287 12.9013 8.63254L12.4521 8.65947C12.4641 8.85901 12.5352 9.04083 12.6653 9.17468C12.7967 9.31002 12.9753 9.38236 13.1716 9.38173L13.1701 8.93173ZM12.9013 8.63256C12.8946 8.52145 12.8996 8.41873 12.8995 8.28562L12.4495 8.28586C12.4496 8.39292 12.4444 8.53102 12.4521 8.65946L12.9013 8.63256ZM12.8995 8.28558C12.8993 8.00919 12.8995 7.73295 12.8995 7.4592H12.4495C12.4495 7.73267 12.4493 8.00929 12.4495 8.28589L12.8995 8.28558ZM12.6745 7.2342H7.28117V7.6842H12.6745V7.2342ZM7.05617 7.4592C7.05617 7.57016 7.05636 7.66394 7.0561 7.75808L7.5061 7.7593C7.50636 7.66437 7.50617 7.56894 7.50617 7.4592H7.05617ZM7.0561 7.75812C7.05531 8.07352 7.06552 8.36337 7.0505 8.65993L7.49992 8.68269C7.51565 8.37219 7.50536 8.05244 7.5061 7.75925L7.0561 7.75812ZM7.0505 8.65999C7.04146 8.83948 6.92871 8.93239 6.78423 8.9316L6.78177 9.3816C7.17606 9.38375 7.47925 9.09327 7.49993 8.68262L7.0505 8.65999ZM6.78429 8.9316C6.64617 8.93081 6.5316 8.83728 6.51879 8.65041L6.06984 8.68119C6.097 9.07728 6.38298 9.37931 6.78171 9.38159L6.78429 8.9316ZM6.51879 8.65041C6.51127 8.54081 6.5167 8.43986 6.51662 8.30547L6.06662 8.30571C6.06668 8.4115 6.06096 8.55163 6.06984 8.68119L6.51879 8.65041ZM6.51662 8.30539C6.51637 8.02115 6.51656 7.73699 6.51656 7.45625H6.06656C6.06656 7.73657 6.06637 8.02129 6.06662 8.30579L6.51662 8.30539ZM6.29156 7.23125H3.83999V7.68125H6.29156V7.23125ZM3.61499 7.45625V7.72775H4.06499V7.45625H3.61499ZM3.61499 7.72775C3.61499 10.1883 3.63433 12.6434 3.6061 15.0996L4.05607 15.1048C4.08434 12.6452 4.06499 10.1835 4.06499 7.72775H3.61499ZM3.6061 15.0996C3.59227 16.3056 4.51226 17.2787 5.77442 17.2648L5.76946 16.8148C4.76624 16.8259 4.04506 16.0648 4.05607 15.1048L3.6061 15.0996ZM5.77442 17.2648C8.57689 17.234 11.3802 17.2344 14.1827 17.2645L14.1875 16.8145C11.3818 16.7844 8.57529 16.7839 5.76946 16.8148L5.77442 17.2648ZM14.1827 17.2645C15.4583 17.2782 16.3626 16.2958 16.3493 15.0981L15.8993 15.1031C15.9099 16.0587 15.2006 16.8254 14.1875 16.8145L14.1827 17.2645ZM16.3493 15.0981C16.3219 12.6419 16.3406 10.1867 16.3406 7.72621H15.8906C15.8906 10.1821 15.8719 12.6436 15.8993 15.1031L16.3493 15.0981ZM16.3406 7.72621V7.45567H15.8906V7.72621H16.3406ZM16.1156 7.23067H13.6641V7.68067H16.1156V7.23067ZM6.49795 6.46169C6.51713 6.03201 6.51308 5.66922 6.55293 5.29823L6.10551 5.25016C6.06377 5.63866 6.06612 6.0447 6.0484 6.44163L6.49795 6.46169ZM6.55294 5.2982C6.72912 3.65605 8.12686 2.34091 9.7754 2.25486L9.75194 1.80547C7.88411 1.90297 6.30541 3.38687 6.1055 5.2502L6.55294 5.2982ZM9.77539 2.25486C11.4795 2.16594 13.0112 3.32845 13.3488 4.96827L13.7896 4.87752C13.4058 3.01327 11.6713 1.70532 9.75195 1.80547L9.77539 2.25486ZM13.3488 4.96825C13.4057 5.24465 13.4158 5.53015 13.4371 5.84346L13.8861 5.81297C13.8662 5.52089 13.8544 5.19243 13.7896 4.87754L13.3488 4.96825ZM13.4371 5.84343C13.4498 6.03128 13.4391 6.20819 13.4391 6.45166H13.8891C13.8891 6.24166 13.9001 6.02019 13.8861 5.813L13.4371 5.84343ZM13.6641 6.67666H13.9409V6.22666H13.6641V6.67666ZM13.9409 6.67666C14.7884 6.67666 15.635 6.6755 16.4818 6.6771L16.4826 6.22711C15.6353 6.2255 14.7876 6.22666 13.9409 6.22666V6.67666ZM16.4818 6.6771C16.6791 6.67748 16.7587 6.71785 16.7945 6.7534C16.8299 6.78843 16.8708 6.86656 16.8709 7.06326L17.3209 7.06299C17.3208 6.82154 17.2735 6.59457 17.1114 6.43384C16.9498 6.27363 16.7227 6.22756 16.4826 6.22711L16.4818 6.6771ZM16.8709 7.06326C16.8726 9.7788 16.8803 12.4927 16.8683 15.2069L17.3183 15.2089C17.3303 12.4932 17.3226 9.77718 17.3209 7.06299L16.8709 7.06326ZM16.8683 15.2069C16.8617 16.6997 15.7531 17.7936 14.255 17.7966L14.2559 18.2466C15.9979 18.2431 17.3106 16.9526 17.3183 15.2088L16.8683 15.2069ZM14.255 17.7966C11.4184 17.8021 8.58175 17.8001 5.7448 17.7974L5.74438 18.2474C8.58132 18.2501 11.4186 18.2521 14.2559 18.2466L14.255 17.7966ZM5.7448 17.7974C4.95998 17.7966 4.30128 17.5208 3.83751 17.0601C3.37373 16.5993 3.09257 15.9415 3.0855 15.1542L2.63551 15.1583C2.64356 16.0536 2.9654 16.828 3.52037 17.3793C4.07535 17.9306 4.85114 18.2465 5.74437 18.2474L5.7448 17.7974ZM3.0855 15.1542C3.07641 14.1385 3.08378 13.1243 3.08371 12.105L2.63371 12.105C2.63378 13.1198 2.62641 14.14 2.63551 15.1582L3.0855 15.1542ZM3.08371 12.105C3.08371 10.4551 3.08352 8.80544 3.0839 7.15566L2.6339 7.15556C2.63352 8.80541 2.63371 10.4552 2.63371 12.105H3.08371ZM3.0839 7.15563C3.08394 6.87416 3.12546 6.78758 3.16034 6.75321C3.19636 6.71772 3.28679 6.67669 3.57281 6.67666L3.57276 6.22666C3.28959 6.22669 3.02311 6.25668 2.8445 6.43268C2.66475 6.6098 2.63394 6.87516 2.6339 7.15558L3.0839 7.15563ZM3.57282 6.67666C4.46697 6.67653 5.36109 6.67666 6.27318 6.67666V6.22666C5.36118 6.22666 4.46695 6.22653 3.57275 6.22666L3.57282 6.67666Z" fill="#1E3A3A"/>
</svg>
