<svg width="20" height="21" viewBox="0 0 20 21" fill="none" xmlns="http://www.w3.org/2000/svg">
<path fill-rule="evenodd" clip-rule="evenodd" d="M2.00664 8.43268L2.02106 8.47198H2.19737C3.96562 8.47198 5.73387 8.47198 7.50212 8.47202C7.55268 8.47202 7.6034 8.46979 7.65364 8.4736C7.85191 8.48871 7.98415 8.62155 7.9824 8.80131C7.9807 8.98107 7.84798 9.11011 7.64805 9.12396C7.59773 9.12744 7.54705 9.12522 7.49653 9.12522C5.72824 9.12526 3.95995 9.12526 2.19166 9.12526H1.98444C2.04772 9.1934 2.08296 9.23379 2.12072 9.27167C2.72425 9.87682 3.32826 10.4815 3.93151 11.0869C3.97417 11.1297 4.01817 11.1733 4.05082 11.2235C4.13302 11.3502 4.11414 11.5062 4.01039 11.6141C3.90655 11.722 3.74993 11.7484 3.62199 11.6716C3.57082 11.6409 3.52638 11.5972 3.48367 11.5546C2.64983 10.7221 1.81663 9.88894 0.983592 9.05566C0.817204 8.88927 0.820242 8.70461 0.98736 8.53797C1.62824 7.89871 2.26839 7.2588 2.90871 6.61898C3.11261 6.41523 3.31644 6.21137 3.51953 6.00686C3.61465 5.91104 3.72351 5.85676 3.86057 5.89431C4.10961 5.96258 4.18168 6.2529 3.99106 6.44922C3.68466 6.76495 3.37105 7.07362 3.05966 7.38444C2.7091 7.73431 2.35769 8.08329 2.00664 8.43268Z" fill="black"/>
<path d="M2.00664 8.43268L2.02106 8.47198H2.19737C3.96562 8.47198 5.73387 8.47198 7.50212 8.47202C7.55268 8.47202 7.6034 8.46979 7.65364 8.4736C7.85191 8.48871 7.98415 8.62155 7.9824 8.80131C7.9807 8.98107 7.84798 9.11011 7.64805 9.12396C7.59773 9.12744 7.54705 9.12522 7.49653 9.12522C5.72824 9.12526 3.95995 9.12526 2.19166 9.12526H1.98444C2.04772 9.1934 2.08296 9.23379 2.12072 9.27167C2.72425 9.87682 3.32826 10.4815 3.93151 11.0869C3.97417 11.1297 4.01817 11.1733 4.05082 11.2235C4.13302 11.3502 4.11414 11.5062 4.01039 11.6141C3.90655 11.722 3.74993 11.7484 3.62199 11.6716C3.57082 11.6409 3.52638 11.5972 3.48367 11.5546C2.64983 10.7221 1.81663 9.88894 0.983592 9.05566C0.817203 8.88927 0.820242 8.70461 0.98736 8.53797C1.62824 7.89871 2.26839 7.2588 2.90871 6.61898C3.11261 6.41523 3.31644 6.21137 3.51953 6.00686C3.61465 5.91104 3.72351 5.85676 3.86057 5.89431C4.10961 5.96258 4.18168 6.2529 3.99106 6.44922C3.68466 6.76495 3.37105 7.07362 3.05966 7.38444C2.7091 7.73431 2.35769 8.08329 2.00664 8.43268" stroke="black" stroke-width="0.05"/>
<mask id="mask0_125_50" style="mask-type:alpha" maskUnits="userSpaceOnUse" x="5" y="0" width="15" height="21">
<path fill-rule="evenodd" clip-rule="evenodd" d="M5.86133 0.0234375H19.1955V20.064H5.86133V0.0234375Z" fill="white"/>
</mask>
<g mask="url(#mask0_125_50)">
<rect x="13.5697" y="9.39827" width="0.416667" height="2.91667" rx="0.208333" fill="black" stroke="black" stroke-width="0.416667"/>
<path fill-rule="evenodd" clip-rule="evenodd" d="M11.6949 10.8874C11.6949 13.3523 11.7074 15.8174 11.6861 18.2822C11.6808 18.8876 12.1946 19.3997 12.8968 19.1554C14.4863 18.6022 16.0878 18.084 17.6842 17.5508C18.1661 17.3899 18.3649 17.1149 18.365 16.6046C18.3656 11.6682 18.3658 6.7318 18.3648 1.79541C18.3646 1.0834 17.8427 0.710192 17.1692 0.935283C15.5794 1.46672 13.9896 1.99811 12.3999 2.53002C11.8723 2.70658 11.695 2.95416 11.695 3.51216C11.6949 5.97058 11.6949 8.42899 11.6949 10.8874ZM12.2809 20.064C12.029 19.9504 11.7535 19.871 11.5302 19.716C11.1057 19.4215 10.8877 18.9889 10.8702 18.4677C10.8604 18.1754 10.8684 17.8825 10.8684 17.5589H10.6476C9.77527 17.5589 8.90298 17.56 8.0307 17.5586C6.76955 17.5566 5.87503 16.6706 5.86517 15.4122C5.8612 14.9034 5.86324 14.3947 5.86496 13.8859C5.866 13.5736 6.03103 13.3786 6.28456 13.3833C6.53872 13.3881 6.69377 13.5817 6.69435 13.8984C6.69518 14.4072 6.69268 14.916 6.69503 15.4247C6.69842 16.1572 7.20241 16.7067 7.92721 16.721C8.8772 16.7398 9.82788 16.7255 10.7783 16.7249C10.7968 16.7248 10.8153 16.7165 10.8648 16.7047V16.4649C10.8648 12.1601 10.8648 7.85528 10.8648 3.55052C10.8649 2.57224 11.2471 2.0385 12.168 1.72934C12.9627 1.4626 13.7574 1.19581 14.5521 0.928968C14.5817 0.919 14.6111 0.908092 14.6417 0.868272C14.5974 0.86394 14.5532 0.855747 14.5089 0.855747C12.3477 0.855121 10.1865 0.853607 8.02527 0.85606C7.21968 0.856999 6.69633 1.38802 6.69471 2.19575C6.69367 2.71759 6.69685 3.23937 6.69283 3.76116C6.69122 3.97331 6.58068 4.11996 6.39985 4.17569C6.22444 4.22976 6.03108 4.17016 5.93912 4.01281C5.89544 3.93813 5.86903 3.842 5.8682 3.75531C5.86282 3.18791 5.85515 2.62015 5.86981 2.05312C5.8957 1.04905 6.59425 0.245136 7.58333 0.0579866C7.61371 0.0522458 7.64194 0.03518 7.67117 0.0234375H17.7891C17.8611 0.047601 17.9327 0.0727561 18.005 0.0958236C18.5627 0.273892 18.9309 0.644068 19.1182 1.19758C19.1446 1.27566 19.1698 1.3542 19.1955 1.43254V16.9718C19.1855 16.9881 19.1701 17.0033 19.1664 17.021C19.0282 17.6871 18.6249 18.1138 17.9885 18.3277C17.386 18.5302 16.7823 18.7293 16.1795 18.9306C15.0492 19.3081 13.919 19.6861 12.7888 20.064H12.2809Z" fill="black"/>
</g>
</svg>
