<svg width="16" height="16" viewBox="0 0 16 16" fill="none" xmlns="http://www.w3.org/2000/svg">
<path fill-rule="evenodd" clip-rule="evenodd" d="M10.4322 0C10.6275 0.11078 10.6886 0.215181 10.6549 0.37644C10.6244 0.522712 10.5302 0.598939 10.3923 0.62097C10.3325 0.630518 10.2704 0.626448 10.2094 0.626448C8.14771 0.626644 3.41936 0.627152 1.35767 0.625744C1.16987 0.625587 0.992465 0.651061 0.840417 0.774754C0.701752 0.887569 0.619762 1.03087 0.615403 1.21533C0.614064 1.27262 0.613835 1.32991 0.613835 1.38719C0.613758 5.7827 0.619265 10.1782 0.606913 14.5737C0.605345 15.1336 0.980955 15.383 1.39542 15.3802C3.45194 15.3662 8.17524 15.3738 10.2318 15.3739C10.5205 15.3739 10.671 15.4842 10.6666 15.692C10.6623 15.8945 10.5154 15.9998 10.2363 15.9998C8.1593 15.9999 3.41569 16.0003 1.33871 15.9996C0.700758 15.9993 0.209926 15.6391 0.0461372 15.042C0.0109931 14.9139 0.00196811 14.7746 0.00189163 14.6405C-0.00028815 10.1981 -0.000441116 5.7557 0.000706134 1.31327C0.000897342 0.626448 0.384958 0.15852 1.04983 0.0212873C1.06937 0.0172568 1.08776 0.00723923 1.10669 0H10.4322Z" fill="white"/>
<path fill-rule="evenodd" clip-rule="evenodd" d="M7.28081 8.52896C7.34401 8.60193 7.38087 8.64643 7.41962 8.6889C8.08945 9.42375 8.75955 10.1583 9.42946 10.8931C9.63416 11.1176 9.66153 11.3024 9.51428 11.4594C9.36899 11.6143 9.1962 11.5823 8.99627 11.3622C8.12873 10.4073 7.26131 9.45222 6.39403 8.49698C6.16984 8.25002 6.16607 8.1092 6.37683 7.85117C7.25174 6.77998 8.12681 5.70892 9.00241 4.63841C9.03977 4.59268 9.07932 4.54712 9.12428 4.5113C9.24635 4.41405 9.39602 4.42462 9.50449 4.53194C9.60363 4.62999 9.63654 4.79869 9.5708 4.93232C9.5349 5.00537 9.48341 5.07051 9.43269 5.13303C8.72757 6.00152 8.02133 6.86885 7.31556 7.7367C7.29279 7.7647 7.27236 7.79512 7.23086 7.85168H7.41796C9.53363 7.85168 13.4271 7.85168 15.5428 7.85168C15.5887 7.85168 15.6348 7.84986 15.6807 7.85265C15.8741 7.86445 15.9981 7.9944 16 8.18547C16.0019 8.37794 15.8807 8.5122 15.6886 8.52748C15.6378 8.53149 15.5865 8.52891 15.5354 8.52891C13.4452 8.52896 9.57737 8.52896 7.48723 8.52896H7.28081Z" fill="white"/>
</svg>
