<?xml version="1.0" encoding="UTF-8"?>
<svg width="106px" height="106px" viewBox="0 0 106 106" version="1.1" xmlns="http://www.w3.org/2000/svg" xmlns:xlink="http://www.w3.org/1999/xlink">
    <title>Group 21</title>
    <g id="Page-1" stroke="none" stroke-width="1" fill="none" fill-rule="evenodd">
        <g id="Group-21">
            <path d="M53,3 C66.8071187,3 79.3071187,8.59644063 88.3553391,17.6446609 C97.4035594,26.6928813 103,39.1928813 103,53 C103,66.458372 97.028235,78.6561759 88.0492972,87.6351138 C78.6072839,97.0771271 65.81593,103 53,103 C40.18407,103 27.3927161,97.0771271 17.9507028,87.6351138 C8.97176496,78.6561759 3,66.458372 3,53 C3,39.1928813 8.59644063,26.6928813 17.6446609,17.6446609 C26.6928813,8.59644063 39.1928813,3 53,3 Z" id="Oval" stroke="#000000" stroke-width="6" fill="#FFE964"></path>
            <g id="Group-20" transform="translate(26.000000, 38.000000)" stroke="#000000" stroke-linecap="round" stroke-width="6">
                <path d="M0,5 C4.63983672,-1.66666667 9.05650338,-1.66666667 13.25,5" id="Path-4"></path>
                <path d="M39.75,5 C44.3898367,-1.66666667 48.8065034,-1.66666667 53,5" id="Path-4"></path>
            </g>
            <path d="M33,80 C46.6568779,66.6666667 59.6568779,66.6666667 72,80" id="Path-4" stroke="#000000" stroke-width="6" stroke-linecap="round" transform="translate(52.500000, 75.000000) scale(1, -1) translate(-52.500000, -75.000000) "></path>
            <path d="M13.25,63.3055556 C14.6033709,74.1018519 20.6782046,83.4259259 31.4745009,91.2777778" id="Path-5" stroke="#FFF29F" stroke-width="5" stroke-linecap="round" transform="translate(22.362250, 77.291667) rotate(-7.000000) translate(-22.362250, -77.291667) "></path>
        </g>
    </g>
</svg>