<?xml version="1.0" encoding="UTF-8"?>
<svg width="62px" height="52px" viewBox="0 0 62 52" version="1.1" xmlns="http://www.w3.org/2000/svg" xmlns:xlink="http://www.w3.org/1999/xlink">
    <!-- Generator: Sketch 64 (93537) - https://sketch.com -->
    <title>Group 16</title>
    <desc>Created with Sketch.</desc>
    <g id="Front-Stage" stroke="none" stroke-width="1" fill="none" fill-rule="evenodd">
        <g id="3_Cart-Copy-9" transform="translate(-511.000000, -940.000000)">
            <g id="Group-6" transform="translate(416.000000, 747.000000)">
                <g id="Group-15" transform="translate(72.000000, 134.000000)">
                    <g id="Group-14" transform="translate(0.000000, 38.000000)">
                        <g id="Group-16" transform="translate(23.000000, 22.000000)">
                            <g id="Group" transform="translate(11.000000, 8.000000)">
                                <path d="M41.7956224,23.7350932 C40.6405786,31.485084 34.806609,37.4682151 27.4928085,39.3657532 C25.0208816,40.0061857 22.381573,40.1811439 19.6968163,39.8009882 C14.3073503,39.0385169 9.45550049,36.0869109 6.38720719,31.6989214 C3.63039908,27.7602067 2.50085028,22.9909816 3.20363119,18.2703562 C3.952969,13.249494 6.66543761,8.810745 10.8400016,5.77706 C15.0134568,2.7422948 20.1490791,1.47114951 25.3057628,2.2012211 C26.0340393,2.30381999 26.7523392,2.44745826 27.4584456,2.63105629 C31.9710979,3.7909628 35.9594359,6.51145154 38.6153719,10.3065277 C41.3721803,14.2452424 42.499512,19.0133876 41.7956224,23.7350932 L41.7956224,23.7350932 Z" id="Path" fill="#FFE964"></path>
                                <g id="Group-20" transform="translate(11.000000, 16.000000)" stroke="#000000" stroke-linecap="round" stroke-width="3">
                                    <path d="M0,2 C1.92596996,-0.666666667 3.75930329,-0.666666667 5.5,2" id="Path-4"></path>
                                    <path d="M16.5,2 C18.42597,-0.666666667 20.2593033,-0.666666667 22,2" id="Path-4"></path>
                                </g>
                                <path d="M14,33 C19.6028217,27.6666667 24.936155,27.6666667 30,33" id="Path-4" stroke="#000000" stroke-width="3" stroke-linecap="round" transform="translate(22.000000, 31.000000) scale(1, -1) translate(-22.000000, -31.000000) "></path>
                                <path d="M5.60214618,22.4740504 C6.42947694,26.0439685 7.29691436,28.5697134 8.20445843,30.0512853 C9.6038642,32.3358248 11.6829102,34.2916904 13.9545665,35.943804" id="Path-5" stroke="#FFF29F" stroke-width="3" stroke-linecap="round" transform="translate(9.778356, 29.208927) rotate(-1.000000) translate(-9.778356, -29.208927) "></path>
                                <path d="M35.7596219,4.75056997 C34.8254126,4.01970316 33.460116,4.16829814 32.7127485,5.0818815 C31.9642555,5.99656578 32.1162053,7.33061784 33.0515403,8.06258556 C37.8801647,11.8401983 40.3890234,17.8522381 39.4784507,23.9952615 C38.1086521,33.2125488 29.2426673,39.9642609 19.4942482,38.5773751 C4.0516542,36.3825735 -1.11351074,16.8913244 11.4859353,7.69715188 C15.7776707,4.56455123 21.1094175,3.55740789 26.1721573,4.75717433 C27.337105,5.03234994 28.5088061,4.33450437 28.7901946,3.1963773 C29.0727086,2.05825052 28.3579821,0.911317838 27.1941596,0.636142224 C7.77498517,-3.96589703 -7.45037679,17.3635259 3.87719362,33.6121037 C7.91230284,39.400701 14.6892604,43 22.0436268,43 C32.8714518,43 42.2112945,35.0914486 43.7690606,24.6050512 C44.9171252,16.8748138 41.7126743,9.40764451 35.7596219,4.75056997 Z" id="Path" fill="#000000"></path>
                            </g>
                            <g id="Group-13">
                                <path d="M0.666666667,24.6666667 L1.33333333,24.6666667 L1.33333333,25.3333333 C1.33333333,25.7014667 1.6318,26 2,26 C2.3682,26 2.66666667,25.7014667 2.66666667,25.3333333 L2.66666667,24.6666667 L3.33333333,24.6666667 C3.70153333,24.6666667 4,24.3681333 4,24 C4,23.6318667 3.70153333,23.3333333 3.33333333,23.3333333 L2.66666667,23.3333333 L2.66666667,22.6666667 C2.66666667,22.2985333 2.3682,22 2,22 C1.6318,22 1.33333333,22.2985333 1.33333333,22.6666667 L1.33333333,23.3333333 L0.666666667,23.3333333 C0.298466667,23.3333333 0,23.6318667 0,24 C0,24.3682 0.298466667,24.6666667 0.666666667,24.6666667 Z" id="Path" fill="#000000"></path>
                                <path d="M14.6666667,7.66666667 L15.3333333,7.66666667 L15.3333333,8.33333333 C15.3333333,8.70146667 15.6318,9 16,9 C16.3682,9 16.6666667,8.70146667 16.6666667,8.33333333 L16.6666667,7.66666667 L17.3333333,7.66666667 C17.7015333,7.66666667 18,7.36813333 18,7 C18,6.63186667 17.7015333,6.33333333 17.3333333,6.33333333 L16.6666667,6.33333333 L16.6666667,5.66666667 C16.6666667,5.29853333 16.3682,5 16,5 C15.6318,5 15.3333333,5.29853333 15.3333333,5.66666667 L15.3333333,6.33333333 L14.6666667,6.33333333 C14.2984667,6.33333333 14,6.63186667 14,7 C14,7.3682 14.2984667,7.66666667 14.6666667,7.66666667 Z" id="Path-Copy" fill="#000000"></path>
                                <circle id="Oval" stroke="#000000" stroke-width="2" fill="#FD8292" cx="9.5" cy="4.5" r="2.5"></circle>
                                <circle id="Oval-Copy" stroke="#000000" stroke-width="2" fill="#7ED321" cx="53.5" cy="3.5" r="3.5"></circle>
                                <path d="M61,12 C61.5508,12 62,11.5508 62,11 C62,10.4492 61.5508,10 61,10 C60.4492,10 60,10.4492 60,11 C60,11.5508 60.4492,12 61,12 Z" id="Path-Copy-3" fill="#000000"></path>
                            </g>
                        </g>
                    </g>
                </g>
            </g>
        </g>
    </g>
</svg>