<svg width="24" height="17" viewBox="0 0 24 17" fill="none" xmlns="http://www.w3.org/2000/svg">
<path fill-rule="evenodd" clip-rule="evenodd" d="M6.10638 14.0419C6.10023 13.1018 5.33521 12.3429 4.4012 12.3491C3.46566 12.3552 2.70678 13.1233 2.71138 14.0588C2.71599 14.9959 3.49331 15.7686 4.41656 15.7533C5.35671 15.7394 6.11406 14.9729 6.10638 14.0419ZM19.1948 12.3491C18.2654 12.3444 17.4957 13.1064 17.485 14.0389C17.4758 14.9713 18.2638 15.764 19.1932 15.7548C20.1226 15.7456 20.8907 14.976 20.8923 14.0512C20.8923 13.1248 20.1242 12.3537 19.1948 12.3491ZM20.2901 6.63595C19.886 5.8786 19.5158 5.15966 19.121 4.45455C18.9597 4.17036 18.6786 4.00752 18.3468 3.99677C17.6924 3.97372 17.0379 3.97372 16.382 3.96604C16.1976 3.96297 16.0133 3.96604 15.8197 3.96604V6.63595H20.2901ZM15.8213 7.71743V12.8652C16.0409 12.8652 16.2453 12.8545 16.445 12.8698C16.617 12.8837 16.7061 12.8207 16.7921 12.6717C17.7738 10.9603 20.1257 10.7791 21.3577 12.3168C21.5682 12.8975 22.0321 12.9174 22.5421 12.8698C22.8432 12.8422 22.9277 12.7823 22.9277 12.4735C22.9292 11.2614 22.9262 10.0509 22.9308 8.84039C22.9323 8.633 22.8524 8.5055 22.662 8.42562C22.1811 8.2213 21.7064 8.00163 21.2256 7.80038C21.1073 7.75123 20.9706 7.72204 20.8431 7.72204C19.2501 7.71589 17.657 7.71743 16.064 7.71743H15.8213ZM14.7121 12.8652V9.82663H1.07534V10.0202C1.07534 10.8328 1.07534 11.6439 1.0738 12.4566C1.0738 12.6394 1.08609 12.8084 1.30577 12.8575C1.63912 12.9343 1.89259 12.8637 2.00166 12.6778C2.53779 11.7561 3.34583 11.2768 4.40427 11.2737C5.46425 11.2722 6.27536 11.753 6.80842 12.6717C6.89598 12.8222 6.98662 12.8698 7.1556 12.8698C9.59047 12.8637 12.0269 12.8652 14.4617 12.8652H14.7121ZM14.7183 8.72825C14.7229 8.66373 14.729 8.6115 14.729 8.55773C14.7306 6.46389 14.7336 4.3716 14.7275 2.27776C14.726 1.52195 14.259 1.07953 13.4755 1.07953C9.75791 1.07799 6.04032 1.07799 2.32119 1.08107C2.17372 1.08107 2.02163 1.09028 1.88184 1.12869C1.37182 1.27002 1.07534 1.7063 1.07534 2.30695C1.0738 4.38542 1.07534 6.46236 1.07534 8.54083C1.07534 8.60074 1.08148 8.66065 1.08609 8.72825H14.7183ZM0 1.98742C0.136721 1.63563 0.219676 1.24698 0.422454 0.938201C0.844907 0.289926 1.49011 0.00265778 2.26128 0.00265778C6.01728 0.00265778 9.77481 -0.0050232 13.5323 0.00573017C14.875 0.0103388 15.7844 0.945882 15.8028 2.28698C15.8044 2.4744 15.8028 2.66028 15.8028 2.87534C15.9042 2.87995 15.9949 2.88763 16.084 2.88763C16.8582 2.89685 17.6309 2.87534 18.4021 2.91682C19.1579 2.9583 19.7416 3.33927 20.1042 4.00137C20.5727 4.85703 20.9998 5.73267 21.4576 6.59447C21.5159 6.70661 21.6312 6.81261 21.7464 6.86638C22.198 7.07837 22.6604 7.26732 23.1167 7.46857C23.7081 7.72818 24.003 8.17675 24 8.82656C23.9969 10.0386 24.0015 11.2491 23.9984 12.4597C23.9969 13.3384 23.4531 13.8929 22.5744 13.9144C22.3808 13.9206 22.1873 13.916 21.9645 13.916C21.9584 14.9345 21.5728 15.7502 20.7448 16.3293C20.1917 16.7165 19.5681 16.8532 18.8998 16.801C17.5295 16.6965 16.6462 15.698 16.382 13.939H7.18478C7.18325 14.873 6.84221 15.6565 6.09869 16.2387C5.56871 16.6535 4.96037 16.8409 4.28598 16.8117C3.52096 16.7794 2.88037 16.4783 2.3642 15.9207C1.85265 15.3677 1.61915 14.7056 1.6299 13.9436C1.53466 13.939 1.45939 13.9344 1.38411 13.9313C0.697433 13.9006 0.251936 13.558 0.0430135 12.8975C0.0337963 12.8698 0.0138258 12.8437 0 12.8176V1.98742Z" fill="black"/>
<path fill-rule="evenodd" clip-rule="evenodd" d="M19.1947 12.3491C20.1241 12.3538 20.8922 13.1249 20.8922 14.0512C20.8906 14.976 20.1225 15.7457 19.1931 15.7549C18.2638 15.7641 17.4757 14.973 17.4864 14.039C17.4957 13.1065 18.2653 12.3445 19.1947 12.3491Z" fill="white"/>
<path fill-rule="evenodd" clip-rule="evenodd" d="M6.10595 14.042C6.11363 14.973 5.35629 15.7395 4.41613 15.7534C3.49288 15.7687 2.71557 14.996 2.71096 14.0589C2.70635 13.1234 3.46523 12.3553 4.40077 12.3492C5.33478 12.343 6.0998 13.1019 6.10595 14.042Z" fill="white"/>
</svg>
