<svg width="16" height="17" viewBox="0 0 16 17" fill="none" xmlns="http://www.w3.org/2000/svg">
<mask id="mask0_110_1305" style="mask-type:alpha" maskUnits="userSpaceOnUse" x="0" y="0" width="16" height="16">
<path fill-rule="evenodd" clip-rule="evenodd" d="M0.369629 0.363281H15.8389V15.8633H0.369629V0.363281Z" fill="white"/>
</mask>
<g mask="url(#mask0_110_1305)">
<path fill-rule="evenodd" clip-rule="evenodd" d="M0.369631 8.12072C0.372796 12.4013 3.84223 15.8708 8.11124 15.8634C12.3824 15.856 15.837 12.395 15.8391 8.12072C15.8412 3.82956 12.3739 0.355909 8.09647 0.363293C3.81902 0.370677 0.366467 3.83589 0.369631 8.12072Z" fill="black"/>
</g>
<mask id="mask1_110_1305" style="mask-type:alpha" maskUnits="userSpaceOnUse" x="0" y="0" width="16" height="16">
<path fill-rule="evenodd" clip-rule="evenodd" d="M0.369629 0.363281H15.8387V15.8633H0.369629V0.363281Z" fill="white"/>
</mask>
<g mask="url(#mask1_110_1305)">
<path fill-rule="evenodd" clip-rule="evenodd" d="M5.87445 10.2969C5.87761 10.3117 5.88183 10.3254 5.88605 10.3412C5.69512 10.4319 5.50841 10.5395 5.3101 10.6134C4.80482 10.799 4.2795 10.8212 3.74891 10.761C3.55904 10.7399 3.42612 10.8496 3.48309 10.9994C3.50524 11.0575 3.56536 11.1091 3.61811 11.1461C4.40714 11.703 5.29744 11.9572 6.24893 11.9868C7.95358 12.0395 9.41034 11.452 10.5496 10.1735C11.4557 9.15765 11.8333 7.92136 11.8798 6.57641C11.884 6.46565 11.9251 6.39603 11.9969 6.31692C12.2142 6.0743 12.4325 5.82852 12.6213 5.5648C12.7036 5.45088 12.7152 5.28737 12.7585 5.14813C12.7384 5.12914 12.7184 5.11016 12.6983 5.09117C12.48 5.17767 12.2616 5.26417 12.0243 5.3591C12.1371 5.19666 12.2447 5.05847 12.3334 4.90973C12.422 4.75994 12.5306 4.60804 12.4525 4.39918C12.3914 4.42977 12.3397 4.45403 12.2912 4.47935C11.9979 4.63231 11.6899 4.74096 11.3587 4.76205C11.2838 4.76627 11.1888 4.74412 11.1319 4.69771C9.95464 3.73779 8.24577 4.32112 7.90927 5.80847C7.85758 6.03632 7.85864 6.27578 7.83438 6.52261C7.78058 6.51839 7.71307 6.51734 7.64556 6.51101C6.89239 6.43717 6.2331 6.12599 5.63816 5.67978C5.2331 5.37598 4.85757 5.03315 4.46727 4.70931C4.28267 4.55636 4.20777 4.57007 4.10018 4.77471C3.7584 5.42134 3.78899 6.06269 4.1276 6.69983C4.15609 6.75363 4.18457 6.80532 4.22676 6.88126C4.17613 6.86966 4.15609 6.8665 4.1371 6.86122C3.93457 6.81164 3.87233 6.85595 3.87549 7.06692C3.87866 7.19878 3.8871 7.33169 3.90819 7.46144C3.98942 7.96988 4.24047 8.38022 4.65714 8.69879C4.48942 8.78212 4.4947 8.90343 4.54744 9.05005C4.75946 9.63972 5.15398 10.0427 5.74576 10.2494C5.78901 10.2642 5.8312 10.2811 5.87445 10.2969ZM0.369143 8.12072C0.365978 3.83589 3.81853 0.370677 8.09598 0.363293C12.3734 0.355909 15.8408 3.82956 15.8386 8.12072C15.8365 12.395 12.3819 15.8571 8.11181 15.8634C3.84174 15.8708 0.372307 12.4013 0.369143 8.12072Z" fill="white"/>
</g>
<path fill-rule="evenodd" clip-rule="evenodd" d="M11.9103 5.03525C11.904 5.02681 11.8987 5.01732 11.8924 5.00888C11.693 5.05318 11.4936 5.0996 11.2953 5.14285C11.1497 5.17344 11.0337 5.13335 10.9208 5.02998C10.5337 4.67449 10.0696 4.54263 9.55796 4.63968C8.64656 4.81162 8.09065 5.67977 8.27419 6.61754C8.31217 6.80847 8.24255 6.91395 8.04951 6.90024C7.70879 6.87809 7.36174 6.86438 7.03157 6.78526C6.05055 6.54897 5.24886 5.99095 4.52733 5.30318C4.47248 5.2515 4.41763 5.19875 4.35223 5.13546C4.18767 5.57323 4.17079 5.98462 4.38704 6.37281C4.51995 6.61121 4.70139 6.82218 4.85645 7.04687C4.91869 7.13547 5.01784 7.22092 4.94611 7.34328C4.87649 7.46459 4.74991 7.45404 4.63493 7.44349C4.55687 7.43716 4.47987 7.4129 4.40286 7.39708C4.36489 7.3897 4.32797 7.38548 4.28261 7.37704C4.35961 7.92345 4.63177 8.30531 5.11911 8.52683C5.23304 8.57958 5.35751 8.61755 5.46194 8.68612C5.53261 8.73148 5.63177 8.83274 5.61911 8.88443C5.60118 8.96143 5.50413 9.04371 5.42291 9.07325C5.29633 9.11755 5.15603 9.11861 5.00624 9.14076C5.15287 9.43823 5.36173 9.67241 5.66764 9.79161C5.87228 9.87072 6.09275 9.90975 6.30688 9.96777C6.54739 10.0321 6.58853 10.1756 6.41659 10.3549C6.12756 10.6608 5.7784 10.8792 5.37755 10.9963C5.08325 11.0828 4.77734 11.1313 4.47987 11.1967C4.4767 11.1893 4.47881 11.203 4.4862 11.2072C4.50413 11.2178 4.52312 11.2262 4.54316 11.2336C5.53683 11.6344 6.56321 11.7167 7.60225 11.4825C8.61702 11.2526 9.51471 10.7842 10.2172 9.99625C11.0801 9.02578 11.4672 7.86755 11.4957 6.58378C11.501 6.36543 11.5685 6.21036 11.7215 6.07323C11.8491 5.95825 11.9715 5.83905 12.116 5.70298C11.9409 5.72091 11.7995 5.75361 11.6603 5.74517C11.5843 5.7399 11.4736 5.68188 11.4514 5.6207C11.4303 5.56268 11.4852 5.45403 11.5369 5.39496C11.6508 5.26626 11.7848 5.15445 11.9103 5.03525ZM5.87439 10.2969C5.8322 10.2811 5.79 10.2642 5.74675 10.2484C5.15392 10.0427 4.76046 9.63971 4.54843 9.05004C4.49463 8.90342 4.48936 8.78211 4.65814 8.69877C4.24041 8.37915 3.98936 7.96987 3.90813 7.46143C3.88704 7.33168 3.8786 7.19877 3.87649 7.06691C3.87227 6.85594 3.9345 6.81163 4.13704 6.86121C4.15602 6.86543 4.17607 6.86965 4.2267 6.88125C4.18556 6.8053 4.15602 6.75256 4.1286 6.69982C3.78999 6.06268 3.75834 5.42133 4.10012 4.77365C4.20771 4.57006 4.28366 4.55634 4.46721 4.7093C4.85751 5.03314 5.23304 5.37597 5.6381 5.67871C6.23304 6.12597 6.89338 6.43716 7.6455 6.50994C7.71301 6.51627 7.78052 6.51838 7.83432 6.5226C7.85858 6.27576 7.85858 6.03631 7.91027 5.80846C8.24571 4.32111 9.95458 3.73777 11.1329 4.6977C11.1888 4.74411 11.2837 4.76626 11.3586 4.76204C11.6898 4.74095 11.9978 4.63229 12.2911 4.47934C12.3407 4.45402 12.3913 4.42871 12.4525 4.39812C12.5305 4.60803 12.4219 4.75993 12.3333 4.90972C12.2447 5.05846 12.1371 5.19559 12.0242 5.35909C12.2616 5.26416 12.4799 5.17766 12.6983 5.09116C12.7183 5.10909 12.7394 5.12808 12.7595 5.14707C12.7162 5.28736 12.7035 5.45087 12.6223 5.56373C12.4324 5.8285 12.2151 6.07323 11.9978 6.31585C11.9261 6.39602 11.8839 6.46458 11.8808 6.57534C11.8333 7.92134 11.4556 9.15764 10.5495 10.1735C9.41028 11.452 7.95457 12.0395 6.24886 11.9857C5.29738 11.9572 4.40708 11.703 3.6191 11.146C3.5653 11.1081 3.50623 11.0574 3.48408 10.9994C3.42712 10.8496 3.55897 10.7399 3.74885 10.761C4.27944 10.8201 4.80476 10.799 5.31004 10.6133C5.50941 10.5395 5.69506 10.4319 5.88705 10.3401C5.88283 10.3254 5.87861 10.3106 5.87439 10.2969Z" fill="black"/>
<path fill-rule="evenodd" clip-rule="evenodd" d="M11.9101 5.03488C11.7846 5.15408 11.6506 5.26589 11.5367 5.39459C11.485 5.45366 11.4301 5.56231 11.4512 5.62033C11.4734 5.68151 11.5841 5.73952 11.6601 5.7448C11.7993 5.75324 11.9407 5.72054 12.1158 5.7026C11.9713 5.83868 11.8489 5.95788 11.7213 6.07286C11.5683 6.20999 11.5008 6.36506 11.4955 6.58341C11.4671 7.86717 11.0799 9.02541 10.2171 9.99588C9.51452 10.7839 8.61683 11.2522 7.60206 11.4822C6.56302 11.7164 5.53664 11.6341 4.54297 11.2332C4.52293 11.2258 4.50394 11.2174 4.48601 11.2069C4.47862 11.2026 4.47651 11.1889 4.47968 11.1963C4.77715 11.1309 5.08306 11.0824 5.37736 10.9959C5.77821 10.8788 6.12737 10.6604 6.4164 10.3545C6.58834 10.1752 6.5472 10.0317 6.30669 9.9674C6.09256 9.90938 5.87209 9.87035 5.66745 9.79124C5.36154 9.67204 5.15268 9.43786 5.00605 9.14039C5.15584 9.11824 5.29614 9.11718 5.42272 9.07288C5.50394 9.04334 5.60099 8.96106 5.61892 8.88406C5.63158 8.83237 5.53242 8.7311 5.46175 8.68575C5.35732 8.61718 5.23285 8.5792 5.11892 8.52646C4.63158 8.30494 4.35942 7.92308 4.28242 7.37667C4.32778 7.3851 4.3647 7.38932 4.40267 7.39671C4.47968 7.41253 4.55668 7.43679 4.63474 7.44312C4.74972 7.45367 4.8763 7.46422 4.94592 7.34291C5.01765 7.22055 4.9185 7.1351 4.85626 7.04649C4.7012 6.82181 4.51976 6.61084 4.38685 6.37244C4.1706 5.98425 4.18748 5.57286 4.35204 5.13509C4.41744 5.19838 4.47229 5.25113 4.52714 5.30281C5.24867 5.99058 6.05036 6.5486 7.03138 6.78489C7.36155 6.864 7.7086 6.87772 8.04932 6.89987C8.24236 6.91358 8.31198 6.8081 8.274 6.61717C8.09046 5.6794 8.64637 4.81125 9.55777 4.63931C10.0694 4.54226 10.5335 4.67412 10.9206 5.0296C11.0335 5.13298 11.1495 5.17307 11.2951 5.14247C11.4934 5.09923 11.6928 5.05281 11.8922 5.00851C11.8985 5.01695 11.9038 5.02644 11.9101 5.03488Z" fill="white"/>
<path fill-rule="evenodd" clip-rule="evenodd" d="M7.9967 0.371768C3.77984 0.377694 0.374459 3.7951 0.376838 8.01851C0.379259 12.2393 3.79754 15.6595 8.00822 15.6541C12.2245 15.6488 15.6313 12.2299 15.6285 8.00691C15.6257 3.78496 12.2081 0.365883 7.9967 0.371768ZM7.50282 16.0259C7.21527 15.9861 6.92622 15.9548 6.64039 15.9051C4.82211 15.5886 3.29364 14.7363 2.05923 13.3681C0.892839 12.0753 0.226679 10.5504 0.0435491 8.81726C-0.384518 4.76588 2.38817 0.978499 6.37905 0.166394C6.70432 0.100204 7.03749 0.0730765 7.36689 0.0269603C7.41255 0.0205332 7.45754 0.00913978 7.50282 0H8.50248C8.54255 0.00876418 8.58224 0.0225365 8.62276 0.025583C9.81318 0.115687 10.9325 0.447223 11.9608 1.05458C14.109 2.3233 15.4217 4.18756 15.8797 6.64759C15.9329 6.93334 15.9605 7.22385 16 7.51215V8.51377C15.9912 8.55409 15.9773 8.59398 15.9742 8.63472C15.8794 9.87647 15.5248 11.0389 14.8762 12.1009C13.6102 14.1743 11.7827 15.4477 9.39543 15.9016C9.10053 15.9577 8.8003 15.9852 8.50248 16.0259H7.50282Z" fill="black"/>
</svg>
