<?xml version="1.0" encoding="UTF-8"?>
<svg width="12px" height="19px" viewBox="0 0 12 19" version="1.1" xmlns="http://www.w3.org/2000/svg" xmlns:xlink="http://www.w3.org/1999/xlink">
    <title>ic_home copy 4</title>
    <g id="Page-1" stroke="none" stroke-width="1" fill="none" fill-rule="evenodd">
        <g id="iPhone-8-Copy-3" transform="translate(-24.000000, -222.000000)">
            <g id="ic_wotwrbottle" transform="translate(18.000000, 220.000000)">
                <g id="baby-drinking-bottle-with-handle-on-both-sides" transform="translate(12.000000, 11.500000) rotate(-360.000000) translate(-12.000000, -11.500000) translate(6.000000, 2.000000)">
                    <path d="M0,15.4707535 C0,15.4707535 0,16.2605803 0,17.2352334 C0,18.2101732 1.0118219,19 2.25941751,19 L9.74058249,19 C10.9879365,19 12,18.2098291 12,17.2344879 L12,15.4690331 C12,15.4690331 12,7.55608441 12,7.55608441 L12,7 L0,7 L0,7.55470811 C0,7.56497305 0,9.4537791 0,11.6365409 C0,13.8193027 0,15.4707535 0,15.4707535 Z" id="Shape" fill="#2D2866" fill-rule="nonzero"></path>
                    <path d="M11.9993357,3.69613241 C11.9993357,3.19388541 11.6426591,2.78659847 11.2028223,2.78659847 L9.64947333,2.78659847 C9.03389515,2.78659847 8.42496012,1.78803517 8.28925874,1.15207172 C8.28925874,1.15207172 8.23448297,0.894017585 8.1664209,0.575760014 C8.09878159,0.257709327 7.68726881,0 7.24743207,0 L4.75178283,0 C4.31158374,0 3.90049371,0.258054135 3.83297517,0.575760014 C3.79673983,0.745612321 3.75500878,0.942083788 3.71013734,1.15207172 C3.57461714,1.78803517 2.96544054,2.78659847 2.34968118,2.78659847 L0.79639257,2.78659847 C0.35655583,2.78659847 0,3.19395437 0,3.69613241 L0,6 L12,6 L12,3.69613241 L11.9993357,3.69613241 Z" id="Path" fill="#5E5896"></path>
                </g>
            </g>
        </g>
    </g>
</svg>