<svg width="22" height="20" viewBox="0 0 22 20" fill="none" xmlns="http://www.w3.org/2000/svg">
<path fill-rule="evenodd" clip-rule="evenodd" d="M11.0008 18.6315C11.0506 18.5919 11.0867 18.5653 11.1206 18.5361C12.5847 17.2734 14.0536 16.0163 15.5107 14.7455C16.5665 13.8247 17.5858 12.865 18.4372 11.7444C19.1025 10.8688 19.6182 9.92199 19.7714 8.81298C19.9593 7.4526 19.7169 6.18445 18.9429 5.03478C17.5452 2.95887 14.3755 2.39299 12.4303 4.55253C12.1659 4.84604 11.9112 5.15844 11.7104 5.49672C11.359 6.08874 10.6262 6.09569 10.3048 5.48508C10.2717 5.422 10.2284 5.36411 10.1888 5.30456C9.84666 4.79094 9.43443 4.34157 8.94244 3.96893C7.1183 2.58731 4.4034 3.07401 3.11622 4.98232C1.88282 6.81087 1.87058 8.7364 2.88065 10.6727C3.40376 11.6756 4.13861 12.5276 4.95724 13.2947C6.073 14.3404 7.22106 15.3519 8.36731 16.3645C9.23057 17.1271 10.1127 17.8684 11.0008 18.6315ZM1.00424 7.55903C1.07016 7.16941 1.107 6.77201 1.20693 6.3912C1.73327 4.38478 2.90678 2.9184 4.91687 2.28401C7.06154 1.60709 8.93265 2.15291 10.4806 3.78562C10.6631 3.97808 10.8252 4.18972 11.0065 4.40396C11.1813 4.19711 11.3444 3.98846 11.5237 3.79482C12.3767 2.87377 13.3977 2.23532 14.6577 2.07442C16.6051 1.82573 18.269 2.42029 19.5496 3.91887C20.8302 5.41735 21.2037 7.18757 20.9093 9.10875C20.7228 10.3264 20.1645 11.3881 19.4367 12.3646C18.4813 13.6464 17.3183 14.7289 16.1184 15.7728C14.7037 17.0035 13.2814 18.2254 11.8601 19.4483C11.3136 19.9185 10.7267 19.9406 10.2018 19.4854C8.34749 17.8775 6.48875 16.2743 4.65708 14.6409C3.7279 13.8123 2.89342 12.888 2.21088 11.8374C1.5666 10.8458 1.13549 9.77739 1.03311 8.58935C1.0293 8.54497 1.01413 8.50156 1.00424 8.45772V7.55903Z" fill="#1E3A3A"/>
<path d="M11.1206 18.5361L11.0226 18.4225L11.0226 18.4225L11.1206 18.5361ZM15.5107 14.7455L15.6093 14.8586L15.6093 14.8586L15.5107 14.7455ZM18.4372 11.7444L18.3178 11.6536L18.3178 11.6536L18.4372 11.7444ZM19.7714 8.81298L19.92 8.83351V8.83351L19.7714 8.81298ZM18.9429 5.03478L19.0673 4.95101L19.0673 4.95101L18.9429 5.03478ZM12.4303 4.55253L12.5418 4.65292L12.5418 4.65292L12.4303 4.55253ZM11.7104 5.49672L11.8394 5.5733L11.8394 5.57328L11.7104 5.49672ZM10.3048 5.48508L10.1721 5.55491L10.1721 5.55494L10.3048 5.48508ZM10.1888 5.30456L10.0639 5.38771L10.0639 5.38774L10.1888 5.30456ZM8.94244 3.96893L8.85188 4.0885L8.94244 3.96893ZM3.11622 4.98232L3.24057 5.0662L3.24057 5.0662L3.11622 4.98232ZM2.88065 10.6727L3.01364 10.6033L3.01364 10.6033L2.88065 10.6727ZM4.95724 13.2947L5.05982 13.1852L5.05981 13.1852L4.95724 13.2947ZM8.36731 16.3645L8.268 16.4769L8.268 16.4769L8.36731 16.3645ZM1.00424 7.55903L0.856344 7.53401L0.854242 7.54643V7.55903H1.00424ZM1.20693 6.3912L1.35202 6.42927L1.35202 6.42926L1.20693 6.3912ZM4.91687 2.28401L4.96202 2.42705L4.96202 2.42705L4.91687 2.28401ZM10.4806 3.78562L10.3718 3.88882L10.3718 3.88883L10.4806 3.78562ZM11.0065 4.40396L10.8919 4.50085L11.0065 4.63626L11.121 4.50079L11.0065 4.40396ZM11.5237 3.79482L11.6337 3.89675L11.6338 3.89675L11.5237 3.79482ZM14.6577 2.07442L14.6767 2.22321L14.6767 2.22321L14.6577 2.07442ZM19.5496 3.91887L19.4356 4.01632L19.4356 4.01632L19.5496 3.91887ZM20.9093 9.10875L21.0576 9.13147V9.13147L20.9093 9.10875ZM19.4367 12.3646L19.557 12.4543L19.557 12.4543L19.4367 12.3646ZM16.1184 15.7728L16.2168 15.886L16.2168 15.886L16.1184 15.7728ZM11.8601 19.4483L11.7622 19.3346L11.7622 19.3346L11.8601 19.4483ZM10.2018 19.4854L10.3 19.3721V19.3721L10.2018 19.4854ZM4.65708 14.6409L4.75691 14.5289L4.75691 14.5289L4.65708 14.6409ZM2.21088 11.8374L2.08509 11.9192L2.08509 11.9192L2.21088 11.8374ZM1.03311 8.58935L0.883665 8.6022L0.883667 8.60223L1.03311 8.58935ZM1.00424 8.45772H0.854242V8.47442L0.857914 8.49071L1.00424 8.45772ZM11.0941 18.7489C11.1383 18.7139 11.1818 18.6813 11.2186 18.6497L11.0226 18.4225C10.9916 18.4493 10.9629 18.47 10.9075 18.5141L11.0941 18.7489ZM11.2185 18.6497C12.682 17.3875 14.1518 16.1297 15.6093 14.8586L15.4121 14.6325C13.9554 15.9029 12.4873 17.1593 11.0226 18.4225L11.2185 18.6497ZM15.6093 14.8586C16.6672 13.9359 17.6958 12.9682 18.5566 11.8351L18.3178 11.6536C17.4758 12.7619 16.4658 13.7135 15.4121 14.6325L15.6093 14.8586ZM18.5566 11.8351C19.2304 10.9483 19.7619 9.97756 19.92 8.83351L19.6228 8.79246C19.4744 9.86643 18.9745 10.7892 18.3178 11.6536L18.5566 11.8351ZM19.92 8.83351C20.1124 7.4406 19.8641 6.1345 19.0673 4.95101L18.8185 5.11855C19.5697 6.2344 19.8062 7.4646 19.6228 8.79246L19.92 8.83351ZM19.0673 4.95101C17.6221 2.8044 14.3374 2.21116 12.3189 4.45214L12.5418 4.65292C14.4136 2.57481 17.4684 3.11333 18.8185 5.11855L19.0673 4.95101ZM12.3189 4.45213C12.0517 4.74875 11.7895 5.06957 11.5814 5.42016L11.8394 5.57328C12.0329 5.2473 12.2802 4.94333 12.5418 4.65292L12.3189 4.45213ZM11.5815 5.42015C11.4296 5.67597 11.2049 5.79234 10.9967 5.79188C10.7901 5.79143 10.5749 5.67606 10.4376 5.41521L10.1721 5.55494C10.3562 5.9047 10.668 6.09116 10.996 6.09188C11.3224 6.0926 11.6398 5.90949 11.8394 5.5733L11.5815 5.42015ZM10.4376 5.41525C10.3996 5.343 10.3473 5.27191 10.3136 5.22138L10.0639 5.38774C10.1096 5.45631 10.1437 5.501 10.1721 5.55491L10.4376 5.41525ZM10.3136 5.2214C9.96292 4.69491 9.53939 4.2329 9.03301 3.84936L8.85188 4.0885C9.32947 4.45024 9.73039 4.88697 10.0639 5.38771L10.3136 5.2214ZM9.03301 3.84936C7.13811 2.41414 4.32566 2.92102 2.99186 4.89844L3.24057 5.0662C4.48114 3.227 7.09849 2.76047 8.85188 4.0885L9.03301 3.84936ZM2.99186 4.89844C1.72465 6.77711 1.71474 8.76198 2.74765 10.7421L3.01364 10.6033C2.02642 8.71082 2.04098 6.84462 3.24057 5.0662L2.99186 4.89844ZM2.74765 10.7421C3.28122 11.765 4.02873 12.6302 4.85468 13.4041L5.05981 13.1852C4.24849 12.425 3.52629 11.5861 3.01364 10.6033L2.74765 10.7421ZM4.85467 13.4041C5.97235 14.4516 7.12218 15.4647 8.268 16.4769L8.46662 16.2521C7.31995 15.2391 6.17365 14.2291 5.05982 13.1852L4.85467 13.4041ZM8.268 16.4769C9.13224 17.2404 10.0167 17.9836 10.903 18.7453L11.0985 18.5177C10.2088 17.7531 9.3289 17.0138 8.46662 16.2521L8.268 16.4769ZM1.15214 7.58405C1.22068 7.1789 1.25421 6.80201 1.35202 6.42927L1.06184 6.35313C0.959797 6.74202 0.91963 7.15993 0.856344 7.53401L1.15214 7.58405ZM1.35202 6.42926C1.86777 4.46321 3.00972 3.0432 4.96202 2.42705L4.87173 2.14096C2.80384 2.79359 1.59877 4.30635 1.06184 6.35314L1.35202 6.42926ZM4.96202 2.42705C6.01055 2.09611 6.98479 2.06606 7.88268 2.31332C8.78105 2.56072 9.61298 3.0885 10.3718 3.88882L10.5895 3.68242C9.80029 2.85003 8.92267 2.28855 7.96233 2.02409C7.0015 1.75949 5.96786 1.79499 4.87172 2.14096L4.96202 2.42705ZM10.3718 3.88883C10.5506 4.07744 10.7042 4.27894 10.8919 4.50085L11.121 4.30708C10.9462 4.10051 10.7756 3.87872 10.5895 3.68242L10.3718 3.88883ZM11.121 4.50079C11.301 4.28787 11.4573 4.08726 11.6337 3.89675L11.4137 3.69289C11.2314 3.88966 11.0616 4.10636 10.8919 4.30713L11.121 4.50079ZM11.6338 3.89675C12.4691 2.99476 13.4598 2.37861 14.6767 2.22321L14.6387 1.92563C13.3356 2.09203 12.2843 2.75278 11.4136 3.6929L11.6338 3.89675ZM14.6767 2.22321C16.5767 1.98058 18.1896 2.55826 19.4356 4.01632L19.6637 3.82142C18.3484 2.28232 16.6335 1.67089 14.6387 1.92563L14.6767 2.22321ZM19.4356 4.01632C20.6832 5.47624 21.05 7.20043 20.7611 9.08603L21.0576 9.13147C21.3575 7.1747 20.9772 5.35847 19.6637 3.82142L19.4356 4.01632ZM20.7611 9.08603C20.5794 10.2713 20.0353 11.3104 19.3164 12.275L19.557 12.4543C20.2936 11.4659 20.8661 10.3814 21.0576 9.13147L20.7611 9.08603ZM19.3164 12.275C18.3711 13.5432 17.2183 14.6171 16.0199 15.6597L16.2168 15.886C17.4183 14.8407 18.5915 13.7495 19.557 12.4543L19.3164 12.275ZM16.0199 15.6597C14.6057 16.89 13.1837 18.1116 11.7622 19.3346L11.9579 19.562C13.3791 18.3393 14.8018 17.117 16.2168 15.886L16.0199 15.6597ZM11.7622 19.3346C11.5079 19.5535 11.2565 19.6577 11.0189 19.6639C10.7827 19.6702 10.54 19.5802 10.3 19.3721L10.1035 19.5987C10.3885 19.8459 10.7017 19.9724 11.0268 19.9638C11.3505 19.9553 11.6658 19.8134 11.9579 19.562L11.7622 19.3346ZM10.3 19.3721C8.44531 17.7637 6.5876 16.1615 4.75691 14.5289L4.55724 14.7528C6.38991 16.3871 8.24967 17.9912 10.1035 19.5987L10.3 19.3721ZM4.75691 14.5289C3.83575 13.7075 3.01064 12.7931 2.33666 11.7557L2.08509 11.9192C2.77619 12.9829 3.62006 13.9171 4.55724 14.7528L4.75691 14.5289ZM2.33666 11.7557C1.70277 10.78 1.28238 9.73496 1.18256 8.57648L0.883667 8.60223C0.988585 9.81982 1.43043 10.9115 2.08509 11.9192L2.33666 11.7557ZM1.18256 8.5765C1.17962 8.54225 1.17255 8.51111 1.16642 8.48673C1.15907 8.45752 1.15516 8.4451 1.15057 8.42473L0.857914 8.49071C0.863206 8.51418 0.871826 8.54538 0.875487 8.55993C0.880364 8.57932 0.882793 8.59207 0.883665 8.6022L1.18256 8.5765ZM1.15424 8.45772V7.55903H0.854242V8.45772H1.15424Z" fill="white"/>
</svg>
