<svg width="64" height="48" viewBox="0 0 64 48" fill="none" xmlns="http://www.w3.org/2000/svg">
<mask id="mask0_117_49284" style="mask-type:alpha" maskUnits="userSpaceOnUse" x="0" y="0" width="64" height="48">
<path fill-rule="evenodd" clip-rule="evenodd" d="M0 0H63.9995V47.595H0V0Z" fill="white"/>
</mask>
<g mask="url(#mask0_117_49284)">
<path fill-rule="evenodd" clip-rule="evenodd" d="M20.0087 44.9194C19.4467 45.6634 18.9797 46.3734 18.4127 46.9944C18.1547 47.2784 17.7037 47.5524 17.3387 47.5544C11.9107 47.5894 6.91567 47.5804 1.48667 47.5734C0.720671 47.5724 0.0106712 46.9374 0.00867117 46.1764C-0.00032883 43.4024 -0.00032883 40.9864 0.00867117 38.2144C0.0116712 37.4314 0.258671 37.2184 1.11867 37.1694C4.11767 36.9984 6.62867 35.1294 7.60367 32.3414C8.56967 29.5734 7.77767 26.5314 5.56967 24.5724C4.28667 23.4374 2.77367 22.8674 1.07067 22.7714C0.240671 22.7234 0.00967117 22.4924 0.00867117 21.6804C0.00167117 18.9504 0.0136712 16.2244 -0.00032883 13.4954C-0.00432883 12.8074 0.312671 12.4674 0.961671 12.2894C14.3827 8.65936 27.8007 5.01936 41.2187 1.37936C43.2727 0.820358 43.5137 0.708358 45.5657 0.151358C46.6197 -0.134642 48.7127 -0.290642 48.7847 2.34036C48.7877 5.91636 48.7847 7.91036 48.7847 11.4864V12.3224C49.0777 12.3404 49.3397 12.3664 49.6037 12.3664C53.9547 12.3694 56.3077 12.3674 60.6587 12.3694C61.8217 12.3694 63.9997 12.3114 63.9987 14.7344C63.9997 17.3254 63.9997 18.9154 63.9987 21.5064C63.9977 22.5234 63.8237 22.7064 62.8307 22.7754C59.2307 23.0274 56.3157 25.7824 56.0447 29.1904C55.7447 32.9604 57.9737 36.1134 61.5647 36.9754C62.0717 37.0974 62.6037 37.1344 63.1257 37.1734C63.6847 37.2144 63.9877 37.5114 63.9887 38.0434C64.0027 40.9314 64.0017 41.8174 63.9897 44.7064C63.9997 47.1184 62.3637 47.5944 61.1217 47.5714C60.9397 47.5814 60.7557 47.5774 60.5717 47.5774C47.4027 47.5784 36.2317 47.5714 23.0607 47.5954C22.2847 47.5964 21.7637 47.3714 21.3517 46.7204C20.9637 46.1074 20.4877 45.5534 20.0087 44.9194Z" fill="black"/>
</g>
<path fill-rule="evenodd" clip-rule="evenodd" d="M47.1385 12.3696H46.2615C38.5235 12.3696 30.7855 12.3786 23.0475 12.3556C22.3145 12.3536 21.7885 12.5286 21.3845 13.1766C21.1135 13.6096 20.7935 14.0156 20.4635 14.4326C20.2305 14.7266 19.7815 14.7246 19.5485 14.4306C19.2255 14.0156 18.9175 13.6236 18.6555 13.2016C18.2395 12.5336 17.6925 12.3466 16.9315 12.3546C13.9795 12.3906 11.0265 12.3696 8.07354 12.3696H7.40454L7.37854 12.2216C20.3665 8.69556 32.5635 5.38556 45.6175 1.84256C46.6225 1.62756 47.1385 2.02056 47.1385 3.32356V12.3696Z" fill="white"/>
<path fill-rule="evenodd" clip-rule="evenodd" d="M44.1025 24.3295C43.9095 24.6325 43.8025 24.8895 43.6205 25.0705C39.9845 28.7235 36.3395 32.3645 32.6975 36.0115C32.3015 36.4055 31.8615 36.5345 31.4415 36.0945C31.0485 35.6805 31.1875 35.2615 31.5605 34.8885C35.2195 31.2255 38.8725 27.5585 42.5525 23.9195C42.7605 23.7135 43.2085 23.6395 43.5175 23.6855C43.7265 23.7195 43.8845 24.0745 44.1025 24.3295Z" fill="black"/>
<path fill-rule="evenodd" clip-rule="evenodd" d="M41.6005 35.5541C42.5085 35.5481 43.1985 34.8391 43.1795 33.9281C43.1625 33.0611 42.4545 32.3701 41.5885 32.3751C40.7125 32.3791 39.9685 33.1431 39.9955 34.0121C40.0205 34.8781 40.7325 35.5591 41.6005 35.5541ZM44.7885 33.9411C44.7925 35.7351 43.3545 37.1821 41.5785 37.1731C39.8295 37.1651 38.4155 35.7301 38.4175 33.9671C38.4185 32.2021 39.8105 30.7961 41.5865 30.7701C43.3125 30.7441 44.7835 32.2001 44.7885 33.9411Z" fill="black"/>
<path fill-rule="evenodd" clip-rule="evenodd" d="M35.1816 25.9984C35.1956 25.1134 34.5356 24.4124 33.6626 24.3854C32.7576 24.3584 32.0256 25.0464 32.0066 25.9434C31.9876 26.8294 32.7156 27.5654 33.6056 27.5614C34.4836 27.5574 35.1686 26.8784 35.1816 25.9984ZM33.5756 22.7674C35.3086 22.7484 36.7746 24.1864 36.8006 25.9274C36.8266 27.6874 35.3606 29.1714 33.5916 29.1784C31.8726 29.1854 30.3906 27.7004 30.3996 25.9804C30.4086 24.2274 31.8346 22.7864 33.5756 22.7674Z" fill="black"/>
<path fill-rule="evenodd" clip-rule="evenodd" d="M19.2157 39.5708C19.2157 39.3198 19.2087 39.0678 19.2177 38.8168C19.2357 38.3398 19.4677 38.0318 19.9597 38.0008C20.4547 37.9678 20.7527 38.2488 20.7857 38.7218C20.8257 39.2918 20.8267 39.8678 20.7837 40.4338C20.7477 40.9088 20.4127 41.2558 19.9597 41.1328C19.6677 41.0538 19.3997 40.6848 19.2407 40.3828C19.1277 40.1688 19.2187 39.8448 19.2187 39.5708H19.2157Z" fill="black"/>
<path fill-rule="evenodd" clip-rule="evenodd" d="M19.2186 20.3656C19.2186 20.0926 19.1286 19.7686 19.2406 19.5536C19.4006 19.2526 19.6706 18.8826 19.9626 18.8056C20.4126 18.6896 20.7496 19.0336 20.7836 19.5106C20.8256 20.0776 20.8256 20.6526 20.7846 21.2206C20.7516 21.6966 20.4516 21.9696 19.9566 21.9396C19.5006 21.9136 19.2556 21.6366 19.2216 21.1886C19.2016 20.9166 19.2186 20.6396 19.2186 20.3656Z" fill="black"/>
<path fill-rule="evenodd" clip-rule="evenodd" d="M20.8261 26.7818C20.8101 27.0728 20.8871 27.4398 20.7521 27.6978C20.6071 27.9748 20.2421 28.3448 20.0141 28.3188C19.7281 28.2858 19.3211 27.9268 19.2581 27.6408C19.1361 27.0968 19.1991 26.5068 19.2251 25.9348C19.2471 25.4878 19.5141 25.2198 19.9711 25.1978C20.4301 25.1758 20.7111 25.4188 20.7801 25.8628C20.8251 26.1558 20.8111 26.4568 20.8261 26.7818Z" fill="black"/>
<path fill-rule="evenodd" clip-rule="evenodd" d="M19.2255 33.1449C19.2255 32.8479 19.1285 32.5009 19.2505 32.2669C19.3955 31.9859 19.7205 31.6289 19.9785 31.6209C20.2355 31.6109 20.6885 31.9579 20.7345 32.2079C20.8465 32.8269 20.8475 33.4909 20.7435 34.1099C20.7005 34.3589 20.2855 34.6649 19.9965 34.7219C19.5675 34.8069 19.2755 34.4869 19.2275 34.0379C19.1975 33.7439 19.2215 33.4439 19.2215 33.1459C19.2225 33.1459 19.2245 33.1459 19.2255 33.1449Z" fill="black"/>
<path fill-rule="evenodd" clip-rule="evenodd" d="M41.6015 35.5552C40.7315 35.5602 40.0215 34.8772 39.9955 34.0122C39.9685 33.1442 40.7125 32.3792 41.5885 32.3742C42.4545 32.3692 43.1625 33.0622 43.1795 33.9282C43.1975 34.8392 42.5095 35.5482 41.6015 35.5552Z" fill="white"/>
<path fill-rule="evenodd" clip-rule="evenodd" d="M35.1815 25.9985C35.1685 26.8795 34.4835 27.5585 33.6065 27.5605C32.7145 27.5645 31.9885 26.8285 32.0055 25.9425C32.0255 25.0475 32.7565 24.3575 33.6635 24.3865C34.5355 24.4115 35.1965 25.1125 35.1815 25.9985Z" fill="white"/>
<path fill-rule="evenodd" clip-rule="evenodd" d="M61.496 21.3412L61.497 21.3362H61.52C61.607 21.3192 61.697 21.3082 61.784 21.2902C62.036 21.2192 62.361 21.0292 62.361 20.5292V15.6422C62.422 14.4502 61.647 13.9452 60.795 13.9592C48.359 13.9592 35.924 13.9622 23.488 13.9482C23.033 13.9472 22.616 14.1812 22.357 14.5562C21.858 15.2802 21.315 15.9782 20.774 16.6742C20.352 17.2152 19.667 17.2162 19.246 16.6752C18.697 15.9712 18.15 15.2632 17.642 14.5282C17.356 14.1132 17.043 13.9432 16.517 13.9452C13.053 13.9622 4.86002 13.9602 2.38902 13.9592C1.68102 14.0332 1.67102 14.7712 1.67102 14.7712V20.6792C1.67102 20.6792 1.72202 21.1552 2.37002 21.3072C2.38202 21.3102 2.38302 21.3142 2.39202 21.3182C6.71202 22.1802 9.36002 25.6902 9.58802 29.4172C9.71902 31.5562 9.14402 33.5022 7.86402 35.2202C6.51302 37.0282 4.73702 38.1202 2.61602 38.5832C2.58202 38.5952 2.53802 38.6052 2.47902 38.6122C1.77602 38.7072 1.68702 39.3762 1.68002 39.6452V44.9102C1.70902 45.2022 1.86202 45.9832 2.70302 45.9842C7.44902 45.9842 12.152 45.9872 16.85 45.9692C17.054 45.9682 17.313 45.8012 17.449 45.6322C18.058 44.8682 18.621 44.0702 19.221 43.3002C19.658 42.7372 20.365 42.7372 20.799 43.3012C21.332 43.9922 21.871 44.6832 22.367 45.4032C22.619 45.7692 23.025 45.9942 23.47 45.9942C35.964 45.9812 48.458 45.9842 60.952 45.9842H60.955H61.19C61.589 45.9642 62.55 45.7412 62.348 44.0232V39.2262C62.348 38.7452 61.718 38.6662 61.718 38.6662L61.72 38.6552C56.609 37.5792 54.541 33.5112 54.41 30.4302C54.321 28.3642 54.86 26.4832 56.077 24.8152C57.452 22.9292 59.287 21.8052 61.496 21.3412ZM19.241 19.5552C19.4 19.2522 19.671 18.8822 19.963 18.8072C20.413 18.6912 20.75 19.0332 20.785 19.5092C20.826 20.0762 20.826 20.6532 20.786 21.2222C20.752 21.6962 20.453 21.9712 19.957 21.9412C19.501 21.9122 19.255 21.6372 19.223 21.1892C19.203 20.9152 19.219 20.6412 19.219 20.3652C19.22 20.0922 19.129 19.7702 19.241 19.5552ZM20.785 40.4352C20.748 40.9082 20.413 41.2542 19.96 41.1332C19.668 41.0552 19.399 40.6862 19.241 40.3842C19.129 40.1672 19.219 39.8472 19.219 39.5712H19.216C19.216 39.3202 19.209 39.0692 19.218 38.8182C19.235 38.3392 19.469 38.0302 19.96 37.9992C20.455 37.9692 20.753 38.2482 20.786 38.7232C20.827 39.2902 20.828 39.8662 20.785 40.4352ZM20.743 34.1102C20.7 34.3592 20.285 34.6642 19.995 34.7222C19.567 34.8082 19.275 34.4862 19.227 34.0362C19.197 33.7422 19.222 33.4442 19.222 33.1472C19.223 33.1472 19.224 33.1472 19.225 33.1462C19.225 32.8492 19.13 32.5012 19.251 32.2682C19.395 31.9862 19.721 31.6292 19.978 31.6192C20.235 31.6112 20.688 31.9572 20.734 32.2072C20.847 32.8242 20.848 33.4892 20.743 34.1102ZM20.752 27.6962C20.607 27.9762 20.242 28.3462 20.014 28.3202C19.727 28.2842 19.321 27.9262 19.258 27.6422C19.136 27.0972 19.199 26.5062 19.225 25.9362C19.247 25.4872 19.515 25.2202 19.971 25.1962C20.43 25.1752 20.711 25.4172 20.78 25.8632C20.825 26.1542 20.81 26.4552 20.826 26.7792C20.809 27.0712 20.887 27.4412 20.752 27.6962ZM33.576 22.7672C35.308 22.7482 36.774 24.1852 36.8 25.9282C36.832 28.0762 34.639 29.8172 32.384 28.9512C31.505 28.6142 30.809 27.8622 30.542 26.9602C29.901 24.8002 31.517 22.7882 33.576 22.7672ZM31.441 36.0942C31.048 35.6802 31.186 35.2612 31.559 34.8882C35.22 31.2272 38.872 27.5592 42.552 23.9182C42.76 23.7122 43.209 23.6392 43.517 23.6872C43.725 23.7202 43.884 24.0742 44.101 24.3292C43.91 24.6322 43.802 24.8892 43.62 25.0702C39.984 28.7232 36.34 32.3652 32.697 36.0112C32.302 36.4052 31.861 36.5342 31.441 36.0942ZM41.578 37.1742C39.83 37.1642 38.416 35.7322 38.418 33.9682C38.419 32.2012 39.81 30.7972 41.587 30.7712C43.312 30.7432 44.783 32.1992 44.788 33.9422C44.793 35.7352 43.354 37.1832 41.578 37.1742Z" fill="#F9F8F4"/>
</svg>
