<svg width="65" height="66" viewBox="0 0 65 66" fill="none" xmlns="http://www.w3.org/2000/svg">
<path fill-rule="evenodd" clip-rule="evenodd" d="M23.0892 10.2656C22.6119 10.4845 22.1272 10.7067 21.6365 10.9414C21.6787 10.4223 21.7178 9.92455 21.7558 9.44147L21.7558 9.44126L21.7559 9.44081L21.7559 9.44028L21.756 9.43959L21.7561 9.43859L21.7561 9.43852L21.7561 9.43838L21.7561 9.4381C21.8395 8.37697 21.9174 7.38681 22.0096 6.39797C22.1232 5.18042 23.057 4.23374 24.2724 4.05765C25.4213 3.89108 26.6117 4.56654 27.0724 5.64623C27.5382 6.73821 27.2699 8.10953 26.2343 8.70628C25.2348 9.28196 24.1812 9.76502 23.0892 10.2656ZM17.7389 10.4589C18.0241 10.8726 18.3156 11.2952 18.6203 11.7272C18.0858 11.7754 17.5683 11.8285 17.0624 11.8803L17.0623 11.8803C15.9274 11.9967 14.851 12.107 13.7721 12.1426C12.5594 12.1825 11.5473 11.2659 11.2944 10.1253C11.028 8.9244 11.5924 7.7283 12.6802 7.18828C13.7602 6.65224 15.0826 6.84545 15.8243 7.79507C16.4858 8.64188 17.0967 9.52767 17.7388 10.4587L17.7388 10.4588L17.7388 10.4589L17.7389 10.4589ZM39 13.0199L4.65204 22.1556L4.01918 19.8379L3.55838 18.1502L23.6507 12.8049L37.9058 9.01244L39 13.0199ZM0.999939 16.6893L3.16216 24.7007L41.5642 14.4938L39.396 6.46941L28.5968 9.34057C28.6319 9.26508 28.6606 9.20222 28.6855 9.14756L28.6855 9.1475L28.6856 9.1474L28.6856 9.1473L28.6857 9.1472C28.729 9.05238 28.761 8.98219 28.7957 8.91333C29.7239 7.07135 29.5038 5.07473 28.2074 3.58475C26.9579 2.1489 24.997 1.61165 23.1627 2.2027C21.274 2.81121 20.0755 4.38215 19.9016 6.46871C19.8464 7.12955 19.7869 7.78998 19.723 8.49795L19.7229 8.49833C19.6931 8.8289 19.6624 9.16983 19.6307 9.526C19.3987 9.19371 19.1799 8.87471 18.968 8.56604L18.968 8.56599L18.9679 8.56581C18.5209 7.91437 18.1054 7.3089 17.6654 6.72143C16.2683 4.85557 13.7707 4.29151 11.7021 5.34422C9.6441 6.3914 8.6458 8.77911 9.36067 10.9629C9.76107 12.1856 10.579 13.0764 11.8189 13.7963L0.999939 16.6893ZM51.2364 65.5454H14.0752V44.9003H51.2364V65.5454ZM49.1791 63.4725H36.8452V46.9622H49.1791V63.4725ZM34.6868 63.4706H30.6246V46.9726H34.6868V63.4706ZM28.4775 63.473H16.1441V46.9738H28.4775V63.473ZM56.6546 20.7014V22.7148C51.4045 22.5695 46.8043 24.1991 43.0661 27.9094C39.3406 31.6068 37.6881 36.1465 37.8365 41.3775H35.8454C34.8799 30.7503 44.2475 20.016 56.6546 20.7014ZM23.1947 38.267H25.2609C25.7572 30.3383 18.9916 25.1782 12.7816 25.9204V27.9247C15.7547 27.7664 18.335 28.5844 20.4342 30.6694C22.5454 32.766 23.3451 35.3574 23.1947 38.267ZM62.9177 34.1851V36.2164C62.7085 36.2164 62.5021 36.2166 62.2976 36.2169C61.8651 36.2174 61.441 36.2179 61.017 36.216C56.4833 36.1958 53.1994 38.1969 51.1608 42.2143C51.0923 42.3491 51.0182 42.4809 50.942 42.6115C50.929 42.6341 50.9093 42.6529 50.8784 42.6824C50.866 42.6943 50.8517 42.708 50.8353 42.7243L50.813 42.7469C50.7227 42.7041 50.6309 42.6609 50.538 42.6172L50.5378 42.6172L50.5376 42.6171L50.5375 42.617L50.5373 42.6169L50.5371 42.6168C50.3293 42.5192 50.1166 42.4192 49.9059 42.3152C49.7084 42.2176 49.513 42.1157 49.319 42.0147L49.3187 42.0145L49.3178 42.014L49.3175 42.0139L49.3172 42.0137L49.3169 42.0136C49.2291 41.9678 49.1416 41.9222 49.0543 41.8772C50.85 37.5218 55.1969 33.4734 62.9177 34.1851ZM2.30015 35.2714V37.3111C7.19808 36.8465 11.0269 38.4129 13.4118 42.8358L15.1673 41.7826C12.5562 36.6969 7.50488 34.6274 2.30015 35.2714ZM48.2952 15.4469C48.2894 14.8863 47.8085 14.4182 47.2444 14.4239C46.6782 14.4298 46.2081 14.9053 46.214 15.4664C46.22 16.0272 46.7009 16.4958 47.2641 16.4901C47.828 16.4842 48.301 16.0058 48.2952 15.4469ZM47.2591 18.5695C45.5293 18.5718 44.1055 17.1477 44.1184 15.4287C44.1313 13.7386 45.5445 12.3467 47.2497 12.3446C48.9817 12.3424 50.4041 13.764 50.3907 15.4841C50.3776 17.1726 48.9618 18.5675 47.2591 18.5695ZM55.6344 27.9205C56.1994 27.9269 56.6709 28.4048 56.6643 28.9642C56.6576 29.5239 56.175 29.993 55.6123 29.9865C55.0477 29.9801 54.5768 29.5021 54.5831 28.9421C54.5896 28.3802 55.0693 27.9139 55.6344 27.9205ZM52.4875 28.9043C52.4646 30.6252 53.8785 32.0583 55.607 32.0661C57.3113 32.0739 58.7367 30.6882 58.7597 29.0014C58.7832 27.2805 57.3697 25.8486 55.6396 25.841C53.9331 25.8336 52.5101 27.2165 52.4875 28.9043ZM16.8939 36.2157C17.4559 36.2285 17.9445 35.7642 17.9574 35.2047C17.9703 34.646 17.5037 34.1623 16.939 34.1495C16.3746 34.1367 15.889 34.5984 15.8762 35.1599C15.8635 35.7193 16.3295 36.2027 16.8939 36.2157ZM16.9213 38.2953C15.1915 38.2974 13.7675 36.8733 13.7806 35.1543C13.7935 33.4644 15.2067 32.0725 16.9119 32.0702C18.6439 32.068 20.0663 33.4897 20.0529 35.2097C20.0398 36.8982 18.624 38.2931 16.9213 38.2953ZM45.1771 36.226C45.7419 36.2347 46.2118 36.7147 46.2029 37.2737C46.194 37.8333 45.7093 38.3008 45.1469 38.2922C44.5823 38.2833 44.1132 37.8035 44.1218 37.2436C44.1305 36.682 44.6123 36.2172 45.1771 36.226ZM48.2984 37.2917C48.3146 35.5713 46.8948 34.1471 45.1631 34.1465C43.4573 34.1462 42.0416 35.5353 42.0263 37.2251C42.0104 38.9444 43.4318 40.3711 45.161 40.3716C46.8641 40.3723 48.2825 38.9799 48.2984 37.2917Z" fill="black"/>
<path d="M21.6365 10.9414L21.2378 10.909L21.1815 11.6026L21.8092 11.3023L21.6365 10.9414ZM23.0892 10.2656L22.9225 9.90203L23.0892 10.2656ZM21.7558 9.44147L21.3571 9.40936L21.3571 9.41012L21.7558 9.44147ZM21.7558 9.44126L22.1546 9.47337L22.1547 9.47155L21.7558 9.44126ZM21.7559 9.44081L21.357 9.4103L21.357 9.41052L21.7559 9.44081ZM21.7559 9.44028L22.1548 9.4708L22.1548 9.47008L21.7559 9.44028ZM21.756 9.43959L21.3572 9.40783L21.3571 9.4098L21.756 9.43959ZM21.7561 9.43859L21.3574 9.40537L21.3573 9.40683L21.7561 9.43859ZM21.7561 9.43852L22.1547 9.47174L22.1548 9.47074L21.7561 9.43852ZM21.7561 9.43838L21.3574 9.4055L21.3574 9.40616L21.7561 9.43838ZM21.7561 9.4381L22.1547 9.47098L22.1549 9.46946L21.7561 9.4381ZM22.0096 6.39797L21.6113 6.36079L21.6113 6.36084L22.0096 6.39797ZM24.2724 4.05765L24.3297 4.45352L24.3298 4.45351L24.2724 4.05765ZM27.0724 5.64623L27.4403 5.48929L27.4403 5.48924L27.0724 5.64623ZM26.2343 8.70628L26.4339 9.0529L26.434 9.05286L26.2343 8.70628ZM18.6203 11.7272L18.6562 12.1256L19.3469 12.0634L18.9472 11.4967L18.6203 11.7272ZM17.7389 10.4589L17.406 10.6808L17.4096 10.686L17.7389 10.4589ZM17.0624 11.8803L17.0216 11.4824L17.0182 11.4828L17.0624 11.8803ZM17.0623 11.8803L17.1031 12.2782L17.1065 12.2779L17.0623 11.8803ZM13.7721 12.1426L13.7589 11.7428H13.7589L13.7721 12.1426ZM11.2944 10.1253L11.6849 10.0387L11.6849 10.0387L11.2944 10.1253ZM12.6802 7.18828L12.5023 6.82998L12.5023 6.83L12.6802 7.18828ZM15.8243 7.79507L15.5091 8.04129L15.5091 8.04131L15.8243 7.79507ZM17.7388 10.4587L17.4094 10.6859L17.4153 10.694L17.7388 10.4587ZM17.7388 10.4588L18.0643 10.2263L18.0623 10.2235L17.7388 10.4588ZM17.7388 10.4589L18.0718 10.2369L18.0643 10.2264L17.7388 10.4589ZM4.65204 22.1556L4.26616 22.2609L4.37084 22.6443L4.75485 22.5421L4.65204 22.1556ZM39 13.0199L39.1028 13.4064L39.4919 13.3029L39.3859 12.9145L39 13.0199ZM4.01918 19.8379L3.6333 19.9433L3.63331 19.9433L4.01918 19.8379ZM3.55838 18.1502L3.45554 17.7637L3.06645 17.8672L3.1725 18.2556L3.55838 18.1502ZM23.6507 12.8049L23.7536 13.1914V13.1914L23.6507 12.8049ZM37.9058 9.01244L38.2917 8.90709L38.187 8.52372L37.803 8.62589L37.9058 9.01244ZM3.16216 24.7007L2.77597 24.8049L2.8798 25.1896L3.26491 25.0873L3.16216 24.7007ZM0.999939 16.6893L0.89661 16.3029L0.509286 16.4064L0.613757 16.7935L0.999939 16.6893ZM41.5642 14.4938L41.6669 14.8803L42.0551 14.7772L41.9503 14.3894L41.5642 14.4938ZM39.396 6.46941L39.7822 6.36507L39.6783 5.98047L39.2933 6.08284L39.396 6.46941ZM28.5968 9.34057L28.2341 9.17201L27.8741 9.94661L28.6996 9.72714L28.5968 9.34057ZM28.6855 9.14756L29.0495 9.31367L29.0527 9.30632L28.6855 9.14756ZM28.6855 9.1475L28.3208 8.98312L28.3184 8.98874L28.6855 9.1475ZM28.6856 9.1474L28.3218 8.9811L28.3209 8.98304L28.6856 9.1474ZM28.6856 9.1473L29.0495 9.31363L29.052 9.30789L28.6856 9.1473ZM28.6857 9.1472L28.3218 8.98108L28.3193 8.98661L28.6857 9.1472ZM28.7957 8.91333L28.4385 8.73332L28.4385 8.73333L28.7957 8.91333ZM28.2074 3.58475L28.5092 3.32219L28.5091 3.32216L28.2074 3.58475ZM23.1627 2.2027L23.2853 2.58343L23.2853 2.58342L23.1627 2.2027ZM19.9016 6.46871L20.3002 6.50197L20.3002 6.50195L19.9016 6.46871ZM19.723 8.49795L19.3246 8.462L19.3246 8.4624L19.723 8.49795ZM19.7229 8.49833L20.1213 8.53428L20.1214 8.53388L19.7229 8.49833ZM19.6307 9.526L19.3027 9.75494L19.9317 10.6562L20.0291 9.56144L19.6307 9.526ZM18.968 8.56604L18.6323 8.78379L18.6382 8.79236L18.968 8.56604ZM18.968 8.56599L19.3037 8.34821L19.2968 8.33817L18.968 8.56599ZM18.9679 8.56581L18.6381 8.79213L18.6391 8.79363L18.9679 8.56581ZM17.6654 6.72143L17.3453 6.96118L17.3453 6.9612L17.6654 6.72143ZM11.7021 5.34422L11.8835 5.70072L11.8835 5.70071L11.7021 5.34422ZM9.36067 10.9629L8.98052 11.0873L8.98053 11.0874L9.36067 10.9629ZM11.8189 13.7963L11.9222 14.1828L12.8526 13.934L12.0197 13.4504L11.8189 13.7963ZM14.0752 65.5454H13.6752V65.9454H14.0752V65.5454ZM51.2364 65.5454V65.9454H51.6364V65.5454H51.2364ZM14.0752 44.9003V44.5003H13.6752V44.9003H14.0752ZM51.2364 44.9003H51.6364V44.5003H51.2364V44.9003ZM36.8452 63.4725H36.4452V63.8725H36.8452V63.4725ZM49.1791 63.4725V63.8725H49.5791V63.4725H49.1791ZM36.8452 46.9622V46.5622H36.4452V46.9622H36.8452ZM49.1791 46.9622H49.5791V46.5622H49.1791V46.9622ZM30.6246 63.4706H30.2246V63.8706H30.6246V63.4706ZM34.6868 63.4706V63.8706H35.0868V63.4706H34.6868ZM30.6246 46.9726V46.5726H30.2246V46.9726H30.6246ZM34.6868 46.9726H35.0868V46.5726H34.6868V46.9726ZM16.1441 63.473H15.7441V63.873H16.1441V63.473ZM28.4775 63.473V63.873H28.8775V63.473H28.4775ZM16.1441 46.9738V46.5738H15.7441V46.9738H16.1441ZM28.4775 46.9738H28.8775V46.5738H28.4775V46.9738ZM56.6546 22.7148L56.6435 23.1147L57.0546 23.1261V22.7148H56.6546ZM56.6546 20.7014H57.0546V20.3229L56.6767 20.3021L56.6546 20.7014ZM43.0661 27.9094L43.3479 28.1933L43.3479 28.1933L43.0661 27.9094ZM37.8365 41.3775V41.7775H38.248L38.2363 41.3662L37.8365 41.3775ZM35.8454 41.3775L35.4471 41.4137L35.4801 41.7775H35.8454V41.3775ZM25.2609 38.267V38.667H25.6366L25.6601 38.292L25.2609 38.267ZM23.1947 38.267L22.7952 38.2464L22.7735 38.667H23.1947V38.267ZM12.7816 25.9204L12.7341 25.5232L12.3816 25.5654V25.9204H12.7816ZM12.7816 27.9247H12.3816V28.3465L12.8029 28.3241L12.7816 27.9247ZM20.4342 30.6694L20.1524 30.9532L20.1524 30.9532L20.4342 30.6694ZM62.9177 36.2164V36.6164H63.3177V36.2164H62.9177ZM62.9177 34.1851H63.3177V33.8203L62.9544 33.7868L62.9177 34.1851ZM62.2976 36.2169L62.2971 35.8168H62.2971L62.2976 36.2169ZM61.017 36.216L61.0152 36.616H61.0152L61.017 36.216ZM51.1608 42.2143L51.5173 42.3956L51.5175 42.3954L51.1608 42.2143ZM50.942 42.6115L50.5965 42.4099L50.5956 42.4115L50.942 42.6115ZM50.8784 42.6824L51.1549 42.9715L51.1549 42.9715L50.8784 42.6824ZM50.8353 42.7243L50.5528 42.4411L50.5505 42.4434L50.8353 42.7243ZM50.813 42.7469L50.6414 43.1083L50.8982 43.2302L51.0978 43.0278L50.813 42.7469ZM50.538 42.6172L50.7081 42.2552L50.7071 42.2548L50.538 42.6172ZM50.5371 42.6168L50.367 42.9789L50.368 42.9793L50.5371 42.6168ZM49.9059 42.3152L49.7286 42.6738L49.7288 42.6739L49.9059 42.3152ZM49.319 42.0147L49.5039 41.6599L49.5032 41.6596L49.319 42.0147ZM49.3187 42.0145L49.5028 41.6594L49.5027 41.6593L49.3187 42.0145ZM49.3178 42.014L49.1332 42.3689L49.1338 42.3692L49.3178 42.014ZM49.3175 42.0139L49.502 41.6589L49.4964 41.6561L49.3175 42.0139ZM49.3169 42.0136L49.132 42.3683L49.138 42.3713L49.3169 42.0136ZM49.0543 41.8772L48.6845 41.7248L48.5445 42.0644L48.871 42.2328L49.0543 41.8772ZM2.30015 37.3111H1.90015V37.7508L2.33792 37.7093L2.30015 37.3111ZM2.30015 35.2714L2.25103 34.8744L1.90015 34.9178V35.2714H2.30015ZM13.4118 42.8358L13.0597 43.0257L13.2584 43.3943L13.6175 43.1788L13.4118 42.8358ZM15.1673 41.7826L15.3731 42.1256L15.6941 41.933L15.5231 41.5999L15.1673 41.7826ZM47.2444 14.4239L47.2404 14.0239L47.2403 14.0239L47.2444 14.4239ZM48.2952 15.4469L47.8952 15.451V15.451L48.2952 15.4469ZM46.214 15.4664L45.8141 15.4706V15.4707L46.214 15.4664ZM47.2641 16.4901L47.2682 16.8901L47.2683 16.8901L47.2641 16.4901ZM44.1184 15.4287L43.7184 15.4257V15.4257L44.1184 15.4287ZM47.2591 18.5695L47.2586 18.1695H47.2585L47.2591 18.5695ZM47.2497 12.3446L47.2501 12.7446H47.2502L47.2497 12.3446ZM50.3907 15.4841L49.9907 15.4809V15.481L50.3907 15.4841ZM56.6643 28.9642L56.2643 28.9595V28.9595L56.6643 28.9642ZM55.6344 27.9205L55.6297 28.3205L55.6299 28.3205L55.6344 27.9205ZM55.6123 29.9865L55.6169 29.5865L55.6168 29.5865L55.6123 29.9865ZM54.5831 28.9421L54.1831 28.9375V28.9376L54.5831 28.9421ZM55.607 32.0661L55.6089 31.6661H55.6088L55.607 32.0661ZM52.4875 28.9043L52.0875 28.899V28.899L52.4875 28.9043ZM58.7597 29.0014L58.3598 28.9959V28.9959L58.7597 29.0014ZM55.6396 25.841L55.6414 25.441H55.6414L55.6396 25.841ZM17.9574 35.2047L17.5575 35.1954L17.5575 35.1955L17.9574 35.2047ZM16.8939 36.2157L16.8847 36.6156H16.8848L16.8939 36.2157ZM16.939 34.1495L16.93 34.5494H16.93L16.939 34.1495ZM15.8762 35.1599L16.2761 35.169L16.2761 35.1689L15.8762 35.1599ZM13.7806 35.1543L13.3806 35.1513V35.1513L13.7806 35.1543ZM16.9213 38.2953L16.9217 38.6953H16.9218L16.9213 38.2953ZM16.9119 32.0702L16.9113 31.6702H16.9113L16.9119 32.0702ZM20.0529 35.2097L19.6529 35.2066V35.2066L20.0529 35.2097ZM46.2029 37.2737L45.803 37.2673V37.2673L46.2029 37.2737ZM45.1771 36.226L45.1708 36.626H45.1709L45.1771 36.226ZM45.1469 38.2922L45.1407 38.6921H45.1408L45.1469 38.2922ZM44.1218 37.2436L43.7218 37.2374V37.2375L44.1218 37.2436ZM45.1631 34.1465L45.1632 33.7465H45.1632L45.1631 34.1465ZM48.2984 37.2917L47.8984 37.2879V37.2879L48.2984 37.2917ZM42.0263 37.2251L42.4263 37.2288V37.2287L42.0263 37.2251ZM45.161 40.3716L45.1612 39.9716H45.1611L45.161 40.3716ZM21.8092 11.3023C22.2964 11.0691 22.7781 10.8483 23.2559 10.6292L22.9225 9.90203C22.4456 10.1207 21.958 10.3442 21.4639 10.5806L21.8092 11.3023ZM21.3571 9.41012C21.3191 9.89326 21.28 10.3906 21.2378 10.909L22.0352 10.9738C22.0774 10.4541 22.1166 9.95584 22.1546 9.47283L21.3571 9.41012ZM21.3571 9.40915L21.3571 9.40936L22.1545 9.47358L22.1546 9.47337L21.3571 9.40915ZM21.357 9.41052L21.357 9.41097L22.1547 9.47155L22.1547 9.4711L21.357 9.41052ZM21.3571 9.40977L21.357 9.4103L22.1547 9.47132L22.1548 9.4708L21.3571 9.40977ZM21.3571 9.4098L21.357 9.41049L22.1548 9.47008L22.1549 9.46939L21.3571 9.4098ZM21.3573 9.40683L21.3572 9.40783L22.1547 9.47136L22.1548 9.47035L21.3573 9.40683ZM21.3574 9.4053L21.3574 9.40537L22.1547 9.47181L22.1547 9.47174L21.3574 9.4053ZM21.3574 9.40616L21.3574 9.4063L22.1548 9.47074L22.1548 9.4706L21.3574 9.40616ZM21.3574 9.40522L21.3574 9.4055L22.1547 9.47126L22.1547 9.47098L21.3574 9.40522ZM21.6113 6.36084C21.5188 7.35307 21.4407 8.34614 21.3573 9.40674L22.1549 9.46946C22.2383 8.40779 22.316 7.42056 22.4078 6.43509L21.6113 6.36084ZM24.215 3.66179C22.8246 3.86324 21.7428 4.9516 21.6113 6.36079L22.4078 6.43515C22.5036 5.40923 23.2895 4.60424 24.3297 4.45352L24.215 3.66179ZM27.4403 5.48924C26.9095 4.24538 25.5463 3.46877 24.215 3.66179L24.3298 4.45351C25.2963 4.31339 26.3138 4.88769 26.7045 5.80322L27.4403 5.48924ZM26.434 9.05286C27.6909 8.32859 27.9629 6.71432 27.4403 5.48929L26.7045 5.80317C27.1135 6.76209 26.8489 7.89047 26.0346 8.35971L26.434 9.05286ZM23.2559 10.6292C24.3448 10.13 25.4156 9.63942 26.4339 9.0529L26.0347 8.35967C25.054 8.9245 24.0175 9.40001 22.9225 9.90203L23.2559 10.6292ZM18.9472 11.4967C18.6439 11.0666 18.3536 10.6457 18.0682 10.2318L17.4096 10.686C17.6947 11.0994 17.9873 11.5237 18.2935 11.9578L18.9472 11.4967ZM17.1032 12.2782C17.6094 12.2263 18.1245 12.1735 18.6562 12.1256L18.5845 11.3289C18.0471 11.3773 17.5271 11.4306 17.0216 11.4824L17.1032 12.2782ZM17.1065 12.2779L17.1066 12.2779L17.0182 11.4828L17.0182 11.4828L17.1065 12.2779ZM13.7853 12.5423C14.8804 12.5063 15.9707 12.3943 17.1031 12.2782L17.0215 11.4824C15.8841 11.599 14.8216 11.7078 13.7589 11.7428L13.7853 12.5423ZM10.9038 10.2119C11.1924 11.5133 12.3536 12.5895 13.7853 12.5423L13.7589 11.7428C12.7651 11.7755 11.9022 11.0186 11.6849 10.0387L10.9038 10.2119ZM12.5023 6.83C11.2468 7.4533 10.5984 8.83477 10.9038 10.212L11.6849 10.0387C11.4576 9.01403 11.938 8.0033 12.858 7.54656L12.5023 6.83ZM16.1395 7.54884C15.2619 6.42517 13.7232 6.22406 12.5023 6.82998L12.858 7.54658C13.7973 7.08041 14.9033 7.26573 15.5091 8.04129L16.1395 7.54884ZM18.0681 10.2317C17.4272 9.30236 16.8096 8.40662 16.1395 7.54883L15.5091 8.04131C16.162 8.87715 16.7662 9.75299 17.4095 10.6858L18.0681 10.2317ZM18.0623 10.2235L18.0623 10.2235L17.4153 10.694L17.4153 10.6941L18.0623 10.2235ZM18.0643 10.2264L18.0643 10.2263L17.4133 10.6913L17.4133 10.6913L18.0643 10.2264ZM18.0717 10.237L18.0717 10.237L17.406 10.6807L17.406 10.6808L18.0717 10.237ZM4.75485 22.5421L39.1028 13.4064L38.8972 12.6333L4.54922 21.769L4.75485 22.5421ZM3.63331 19.9433L4.26616 22.2609L5.03791 22.0502L4.40505 19.7325L3.63331 19.9433ZM3.1725 18.2556L3.6333 19.9433L4.40505 19.7325L3.94425 18.0449L3.1725 18.2556ZM23.5479 12.4183L3.45554 17.7637L3.66122 18.5368L23.7536 13.1914L23.5479 12.4183ZM37.803 8.62589L23.5479 12.4183L23.7536 13.1914L38.0087 9.399L37.803 8.62589ZM39.3859 12.9145L38.2917 8.90709L37.5199 9.1178L38.6141 13.1252L39.3859 12.9145ZM3.54834 24.5965L1.38612 16.5851L0.613757 16.7935L2.77597 24.8049L3.54834 24.5965ZM41.4614 14.1072L3.05941 24.3141L3.26491 25.0873L41.6669 14.8803L41.4614 14.1072ZM39.0099 6.57374L41.178 14.5981L41.9503 14.3894L39.7822 6.36507L39.0099 6.57374ZM28.6996 9.72714L39.4988 6.85598L39.2933 6.08284L28.494 8.954L28.6996 9.72714ZM28.3216 8.98147C28.2967 9.03613 28.2685 9.09788 28.2341 9.17201L28.9596 9.50913C28.9953 9.43227 29.0245 9.36832 29.0494 9.31364L28.3216 8.98147ZM28.3184 8.98874L28.3184 8.98879L29.0527 9.30632L29.0527 9.30627L28.3184 8.98874ZM28.3209 8.98304L28.3209 8.98314L29.0502 9.31186L29.0503 9.31176L28.3209 8.98304ZM28.3218 8.981L28.3218 8.9811L29.0494 9.31371L29.0494 9.31361L28.3218 8.981ZM28.3193 8.98661L28.3193 8.98671L29.052 9.30789L29.052 9.30779L28.3193 8.98661ZM28.4385 8.73333C28.3997 8.81041 28.3643 8.88803 28.3218 8.9811L29.0496 9.31329C29.0936 9.21673 29.1224 9.15398 29.1529 9.09333L28.4385 8.73333ZM27.9056 3.84731C29.0892 5.20767 29.2979 7.02791 28.4385 8.73332L29.1529 9.09334C30.15 7.11479 29.9183 4.94179 28.5092 3.32219L27.9056 3.84731ZM23.2853 2.58342C24.9698 2.04067 26.7629 2.53421 27.9056 3.84733L28.5091 3.32216C27.1528 1.7636 25.0242 1.18263 23.04 1.82197L23.2853 2.58342ZM20.3002 6.50195C20.4617 4.56416 21.5616 3.13879 23.2853 2.58343L23.04 1.82197C20.9863 2.48363 19.6893 4.20014 19.503 6.43548L20.3002 6.50195ZM20.1214 8.53389C20.1852 7.82617 20.2449 7.16438 20.3002 6.50197L19.503 6.43546C19.448 7.09472 19.3885 7.7538 19.3246 8.462L20.1214 8.53389ZM20.1214 8.53388L20.1214 8.53349L19.3246 8.4624L19.3245 8.46279L20.1214 8.53388ZM20.0291 9.56144C20.0608 9.20556 20.0915 8.86487 20.1213 8.53428L19.3246 8.46239C19.2947 8.79292 19.264 9.1341 19.2323 9.49056L20.0291 9.56144ZM18.6382 8.79236C18.8499 9.10087 19.0697 9.42114 19.3027 9.75494L19.9587 9.29706C19.7278 8.96627 19.5098 8.64856 19.2979 8.33972L18.6382 8.79236ZM18.6324 8.78367L18.6325 8.78372L19.3036 8.34837L19.3036 8.34831L18.6324 8.78367ZM18.6391 8.79363L18.6392 8.79381L19.2968 8.33817L19.2967 8.33799L18.6391 8.79363ZM17.3453 6.9612C17.7794 7.5409 18.1902 8.13942 18.6381 8.79213L19.2977 8.33949C18.8515 7.68931 18.4314 7.0769 17.9856 6.48166L17.3453 6.9612ZM11.8835 5.70071C13.7807 4.73523 16.066 5.25276 17.3453 6.96118L17.9856 6.48167C16.4706 4.45839 13.7607 3.84779 11.5207 4.98773L11.8835 5.70071ZM9.74082 10.8384C9.08801 8.84426 9.99916 6.65954 11.8835 5.70072L11.5207 4.98772C9.28905 6.12325 8.20358 8.71395 8.98052 11.0873L9.74082 10.8384ZM12.0197 13.4504C10.8435 12.7675 10.1038 11.9469 9.7408 10.8384L8.98053 11.0874C9.41836 12.4244 10.3144 13.3854 11.618 14.1423L12.0197 13.4504ZM1.10327 17.0757L11.9222 14.1828L11.7155 13.4099L0.89661 16.3029L1.10327 17.0757ZM14.0752 65.9454H51.2364V65.1454H14.0752V65.9454ZM13.6752 44.9003V65.5454H14.4752V44.9003H13.6752ZM51.2364 44.5003H14.0752V45.3003H51.2364V44.5003ZM51.6364 65.5454V44.9003H50.8364V65.5454H51.6364ZM36.8452 63.8725H49.1791V63.0725H36.8452V63.8725ZM36.4452 46.9622V63.4725H37.2452V46.9622H36.4452ZM49.1791 46.5622H36.8452V47.3622H49.1791V46.5622ZM49.5791 63.4725V46.9622H48.7791V63.4725H49.5791ZM30.6246 63.8706H34.6868V63.0706H30.6246V63.8706ZM30.2246 46.9726V63.4706H31.0246V46.9726H30.2246ZM34.6868 46.5726H30.6246V47.3726H34.6868V46.5726ZM35.0868 63.4706V46.9726H34.2868V63.4706H35.0868ZM16.1441 63.873H28.4775V63.073H16.1441V63.873ZM15.7441 46.9738V63.473H16.5441V46.9738H15.7441ZM28.4775 46.5738H16.1441V47.3738H28.4775V46.5738ZM28.8775 63.473V46.9738H28.0775V63.473H28.8775ZM57.0546 22.7148V20.7014H56.2546V22.7148H57.0546ZM43.3479 28.1933C47.0012 24.5673 51.4922 22.9721 56.6435 23.1147L56.6657 22.315C51.3169 22.167 46.6075 23.8309 42.7844 27.6255L43.3479 28.1933ZM38.2363 41.3662C38.0908 36.2366 39.7071 31.8067 43.3479 28.1933L42.7844 27.6255C38.9742 31.407 37.2854 36.0564 37.4366 41.3889L38.2363 41.3662ZM35.8454 41.7775H37.8365V40.9775H35.8454V41.7775ZM56.6767 20.3021C44.024 19.603 34.4596 30.5453 35.4471 41.4137L36.2438 41.3413C35.3002 30.9552 44.471 20.4289 56.6325 21.1008L56.6767 20.3021ZM25.2609 37.867H23.1947V38.667H25.2609V37.867ZM12.8291 26.3176C18.8069 25.6031 25.3414 30.5784 24.8617 38.242L25.6601 38.292C26.173 30.0983 19.1763 24.7533 12.7341 25.5232L12.8291 26.3176ZM13.1816 27.9247V25.9204H12.3816V27.9247H13.1816ZM20.7161 30.3856C18.5249 28.2093 15.8286 27.3619 12.7603 27.5252L12.8029 28.3241C15.6808 28.1709 18.145 28.9595 20.1524 30.9532L20.7161 30.3856ZM23.5942 38.2877C23.7495 35.2841 22.9209 32.5752 20.7161 30.3856L20.1524 30.9532C22.1699 32.9568 22.9408 35.4308 22.7952 38.2464L23.5942 38.2877ZM63.3177 36.2164V34.1851H62.5177V36.2164H63.3177ZM62.2981 36.6169C62.5026 36.6166 62.7088 36.6164 62.9177 36.6164V35.8164C62.7082 35.8164 62.5016 35.8166 62.2971 35.8168L62.2981 36.6169ZM61.0152 36.616C61.4406 36.6179 61.8657 36.6174 62.2981 36.6169L62.2971 35.8168C61.8644 35.8174 61.4415 35.8179 61.0187 35.816L61.0152 36.616ZM51.5175 42.3954C52.509 40.4414 53.7925 38.9977 55.3612 38.0427C56.9301 37.0876 58.809 36.6062 61.0152 36.616L61.0187 35.816C58.6913 35.8056 56.6614 36.3146 54.9452 37.3594C53.2289 38.4042 51.8512 39.9699 50.8041 42.0333L51.5175 42.3954ZM51.2875 42.813C51.3657 42.6791 51.444 42.5399 51.5173 42.3956L50.8042 42.0331C50.7406 42.1582 50.6707 42.2827 50.5965 42.4099L51.2875 42.813ZM51.1549 42.9715C51.1719 42.9552 51.2406 42.8942 51.2884 42.8115L50.5956 42.4115C50.6091 42.3882 50.6219 42.3742 50.6236 42.3723C50.6243 42.3716 50.6235 42.3726 50.6194 42.3765C50.6152 42.3807 50.6101 42.3855 50.602 42.3933L51.1549 42.9715ZM51.1177 43.0076C51.1309 42.9945 51.1424 42.9834 51.1549 42.9715L50.602 42.3933C50.5895 42.4052 50.5725 42.4215 50.5528 42.4411L51.1177 43.0076ZM51.0978 43.0278L51.1201 43.0052L50.5505 42.4434L50.5282 42.466L51.0978 43.0278ZM50.3679 42.9793C50.4609 43.023 50.552 43.0658 50.6414 43.1083L50.9846 42.3856C50.8935 42.3423 50.8008 42.2988 50.7081 42.2552L50.3679 42.9793ZM50.3687 42.9796L50.3688 42.9797L50.7071 42.2548L50.707 42.2547L50.3687 42.9796ZM50.3685 42.9795L50.3687 42.9796L50.707 42.2547L50.7068 42.2546L50.3685 42.9795ZM50.3683 42.9795L50.3685 42.9795L50.7068 42.2546L50.7066 42.2545L50.3683 42.9795ZM50.3681 42.9794L50.3683 42.9795L50.7066 42.2545L50.7064 42.2544L50.3681 42.9794ZM50.368 42.9793L50.3681 42.9794L50.7064 42.2544L50.7063 42.2544L50.368 42.9793ZM49.7288 42.6739C49.9436 42.7799 50.1598 42.8815 50.367 42.9789L50.7073 42.2548C50.4989 42.1569 50.2896 42.0585 50.0829 41.9565L49.7288 42.6739ZM49.1342 42.3694C49.3275 42.4701 49.5266 42.5739 49.7286 42.6738L50.0831 41.9566C49.8901 41.8612 49.6985 41.7613 49.5039 41.6599L49.1342 42.3694ZM49.1346 42.3696L49.1349 42.3698L49.5032 41.6596L49.5028 41.6594L49.1346 42.3696ZM49.1338 42.3692L49.1347 42.3697L49.5027 41.6593L49.5018 41.6588L49.1338 42.3692ZM49.1329 42.3687L49.1332 42.3689L49.5023 41.6591L49.502 41.659L49.1329 42.3687ZM49.1383 42.3715L49.1386 42.3716L49.4964 41.6561L49.4961 41.6559L49.1383 42.3715ZM49.138 42.3713L49.1383 42.3715L49.4961 41.6559L49.4958 41.6558L49.138 42.3713ZM48.871 42.2328C48.9574 42.2773 49.0441 42.3225 49.132 42.3683L49.5018 41.6588C49.4141 41.6132 49.3258 41.5672 49.2376 41.5217L48.871 42.2328ZM62.9544 33.7868C59.014 33.4236 55.9061 34.274 53.5473 35.7948C51.1923 37.3131 49.6085 39.4836 48.6845 41.7248L49.4241 42.0297C50.2958 39.9154 51.7832 37.884 53.9808 36.4672C56.1746 35.0528 59.1006 34.2349 62.881 34.5835L62.9544 33.7868ZM2.70015 37.3111V35.2714H1.90015V37.3111H2.70015ZM13.7638 42.646C12.5364 40.3696 10.924 38.8068 8.96988 37.8793C7.0202 36.9539 4.76182 36.6758 2.26237 36.9129L2.33792 37.7093C4.73641 37.4818 6.84142 37.7546 8.62686 38.602C10.4079 39.4473 11.9023 40.8792 13.0597 43.0257L13.7638 42.646ZM14.9615 41.4396L13.206 42.4928L13.6175 43.1788L15.3731 42.1256L14.9615 41.4396ZM2.34926 35.6684C7.41404 35.0417 12.2886 37.0514 14.8115 41.9653L15.5231 41.5999C12.8238 36.3423 7.59572 34.2131 2.25103 34.8744L2.34926 35.6684ZM47.2485 14.8239C47.5942 14.8204 47.8918 15.1137 47.8952 15.451L48.6952 15.4428C48.6871 14.6588 48.0229 14.016 47.2404 14.0239L47.2485 14.8239ZM46.614 15.4622C46.6105 15.1255 46.8998 14.8275 47.2486 14.8239L47.2403 14.0239C46.4567 14.0321 45.8058 14.6851 45.8141 15.4706L46.614 15.4622ZM47.2601 16.0901C46.9158 16.0936 46.6176 15.8003 46.614 15.4622L45.8141 15.4707C45.8223 16.2541 46.486 16.898 47.2682 16.8901L47.2601 16.0901ZM47.8952 15.451C47.8987 15.7856 47.6064 16.0865 47.2599 16.0901L47.2683 16.8901C48.0497 16.8819 48.7032 16.2259 48.6952 15.4428L47.8952 15.451ZM43.7184 15.4257C43.7038 17.3693 45.3099 18.9721 47.2596 18.9695L47.2585 18.1695C45.7488 18.1715 44.5072 16.9261 44.5184 15.4317L43.7184 15.4257ZM47.2492 11.9446C45.3278 11.947 43.733 13.5127 43.7184 15.4257L44.5184 15.4318C44.5296 13.9645 45.7612 12.7464 47.2501 12.7446L47.2492 11.9446ZM50.7906 15.4872C50.8058 13.5422 49.2008 11.9421 47.2491 11.9446L47.2502 12.7446C48.7625 12.7427 50.0023 13.9859 49.9907 15.4809L50.7906 15.4872ZM47.2596 18.9695C49.1787 18.9672 50.7758 17.3983 50.7906 15.4872L49.9907 15.481C49.9793 16.9469 48.7449 18.1677 47.2586 18.1695L47.2596 18.9695ZM57.0642 28.9689C57.0735 28.1849 56.4212 27.5294 55.6389 27.5205L55.6299 28.3205C55.9775 28.3244 56.2683 28.6247 56.2643 28.9595L57.0642 28.9689ZM55.6076 30.3864C56.3892 30.3956 57.055 29.7515 57.0642 28.9689L56.2643 28.9595C56.2603 29.2964 55.9607 29.5905 55.6169 29.5865L55.6076 30.3864ZM54.1831 28.9376C54.1743 29.7215 54.8252 30.3776 55.6077 30.3864L55.6168 29.5865C55.2701 29.5826 54.9793 29.2828 54.9831 28.9465L54.1831 28.9376ZM55.639 27.5205C54.8551 27.5114 54.1921 28.1527 54.1831 28.9375L54.9831 28.9466C54.987 28.6078 55.2835 28.3164 55.6297 28.3205L55.639 27.5205ZM55.6088 31.6661C54.101 31.6593 52.8676 30.4067 52.8874 28.9097L52.0875 28.899C52.0617 30.8438 53.6561 32.4573 55.6052 32.4661L55.6088 31.6661ZM58.3598 28.9959C58.3398 30.4595 57.0974 31.6729 55.6089 31.6661L55.6052 32.4661C57.5252 32.4749 59.1336 30.9169 59.1597 29.0068L58.3598 28.9959ZM55.6379 26.241C57.1476 26.2476 58.3802 27.4993 58.3598 28.9959L59.1597 29.0069C59.1863 27.0616 57.5919 25.4496 55.6414 25.441L55.6379 26.241ZM52.8874 28.9097C52.9071 27.4454 54.1468 26.2345 55.6379 26.241L55.6414 25.441C53.7194 25.4326 52.1132 26.9876 52.0875 28.899L52.8874 28.9097ZM17.5575 35.1955C17.5497 35.5324 17.246 35.8236 16.903 35.8158L16.8848 36.6156C17.6657 36.6334 18.3393 35.9961 18.3573 35.2139L17.5575 35.1955ZM16.93 34.5494C17.2775 34.5573 17.5652 34.8615 17.5575 35.1954L18.3573 35.2139C18.3754 34.4305 17.7298 33.7674 16.9481 33.7496L16.93 34.5494ZM16.2761 35.1689C16.2838 34.8303 16.5844 34.5416 16.93 34.5494L16.9481 33.7496C16.1648 33.7319 15.4941 34.3665 15.4763 35.1508L16.2761 35.1689ZM16.9031 35.8158C16.5561 35.8078 16.2685 35.5042 16.2761 35.169L15.4763 35.1508C15.4585 35.9343 16.1028 36.5976 16.8847 36.6156L16.9031 35.8158ZM13.3806 35.1513C13.3658 37.095 14.9721 38.6977 16.9217 38.6953L16.9208 37.8953C15.4109 37.8972 14.1692 36.6517 14.1806 35.1574L13.3806 35.1513ZM16.9113 31.6702C14.99 31.6728 13.3952 33.2385 13.3806 35.1513L14.1806 35.1574C14.1918 33.6903 15.4234 32.4722 16.9124 32.4702L16.9113 31.6702ZM20.4528 35.2128C20.468 33.2678 18.863 31.6677 16.9113 31.6702L16.9124 32.4702C18.4247 32.4683 19.6645 33.7115 19.6529 35.2066L20.4528 35.2128ZM16.9218 38.6953C18.8409 38.6928 20.438 37.124 20.4528 35.2128L19.6529 35.2066C19.6415 36.6725 18.4071 37.8934 16.9207 37.8953L16.9218 38.6953ZM46.6029 37.2801C46.6153 36.4962 45.9651 35.838 45.1832 35.8261L45.1709 36.626C45.5186 36.6313 45.8083 36.9331 45.803 37.2673L46.6029 37.2801ZM45.1408 38.6921C45.9221 38.7041 46.5904 38.0623 46.6029 37.2801L45.803 37.2673C45.7976 37.6043 45.4965 37.8975 45.1531 37.8922L45.1408 38.6921ZM43.7218 37.2375C43.7098 38.0214 44.3583 38.6799 45.1407 38.6921L45.1532 37.8922C44.8062 37.8868 44.5166 37.5857 44.5217 37.2497L43.7218 37.2375ZM45.1833 35.8261C44.3996 35.8138 43.734 36.4529 43.7218 37.2374L44.5217 37.2498C44.527 36.911 44.825 36.6206 45.1708 36.626L45.1833 35.8261ZM45.163 34.5465C46.6748 34.547 47.9125 35.7924 47.8984 37.2879L48.6984 37.2955C48.7167 35.3503 47.1147 33.7471 45.1632 33.7465L45.163 34.5465ZM42.4263 37.2287C42.4396 35.762 43.6731 34.5462 45.163 34.5465L45.1632 33.7465C43.2414 33.7461 41.6437 35.3086 41.6263 37.2215L42.4263 37.2287ZM45.1611 39.9716C43.6521 39.9712 42.4125 38.7236 42.4263 37.2288L41.6263 37.2214C41.6084 39.1652 43.2116 40.771 45.1609 40.7716L45.1611 39.9716ZM47.8984 37.2879C47.8846 38.7534 46.648 39.9722 45.1612 39.9716L45.1609 40.7716C47.0802 40.7724 48.6804 39.2064 48.6984 37.2954L47.8984 37.2879Z" fill="#F9F8F4"/>
<path fill-rule="evenodd" clip-rule="evenodd" d="M59.7515 4.54485C60.0112 5.0629 60.3745 5.24192 60.8917 5.33308C62.217 5.56694 63.5371 5.83038 64.9999 6.10886C64.7179 6.41502 64.5108 6.64386 64.2994 6.86856C63.5413 7.67426 62.8004 8.49726 62.0139 9.2746C61.6789 9.60567 61.6128 9.93345 61.6757 10.3726C61.871 11.7376 62.031 13.1073 62.2215 14.6075C60.9173 14.0006 59.7108 13.4764 58.5421 12.8795C57.9621 12.5834 57.4831 12.5834 56.9028 12.88C55.7305 13.4796 54.5201 14.0054 53.2123 14.6143C53.3962 13.1447 53.5394 11.7946 53.7463 10.4543C53.8266 9.93328 53.7212 9.56848 53.3445 9.19002C52.3829 8.22431 51.4666 7.21415 50.4438 6.12772C51.5969 5.89991 52.6401 5.5941 53.7011 5.51038C54.9271 5.41351 55.6508 4.86986 56.1262 3.76007C56.5397 2.79437 57.1329 1.90425 57.7153 0.857422C58.4446 2.16405 59.1434 3.33196 59.7515 4.54485Z" fill="#070706"/>
<path fill-rule="evenodd" clip-rule="evenodd" d="M29.1807 28.4723C29.2866 27.8285 29.1798 27.3375 28.6737 26.8639C27.8895 26.1296 27.1858 25.3106 26.3782 24.4537C27.6577 24.2072 28.831 24.0117 29.9858 23.7386C30.2937 23.6658 30.6392 23.4125 30.8046 23.1437C31.4225 22.1383 31.9729 21.0919 32.6086 19.9536C33.2415 21.0854 33.8377 22.1037 34.3816 23.1489C34.5869 23.5435 34.8566 23.7005 35.2796 23.7716C36.4326 23.9655 37.5778 24.2046 38.8447 24.4486C37.9672 25.3808 37.1345 26.2235 36.36 27.1159C36.1514 27.3563 36.002 27.7569 36.0267 28.0681C36.1211 29.2471 36.2982 30.4196 36.4587 31.7123C35.2992 31.1738 34.2336 30.7021 33.1917 30.1837C32.7796 29.9786 32.4444 29.9838 32.0344 30.1873C30.9897 30.7063 29.922 31.1792 28.7541 31.7213C28.9028 30.5615 29.0093 29.5117 29.1807 28.4723Z" fill="#070706"/>
</svg>
