<svg width="64" height="66" viewBox="0 0 64 66" fill="none" xmlns="http://www.w3.org/2000/svg">
<path fill-rule="evenodd" clip-rule="evenodd" d="M41.4547 8.04101C42.0293 6.9352 41.6146 5.56739 40.5291 4.98786C39.4586 4.4165 38.0649 4.85298 37.4837 5.94167C36.8812 7.07042 37.3067 8.47199 38.4249 9.04193C39.5158 9.59803 40.8799 9.14732 41.4547 8.04101ZM12.4288 62.5515L39.4727 11.6892C38.7374 11.4698 37.9735 11.3618 37.3363 11.0185C36.6809 10.6655 36.1491 10.0828 35.5745 9.60995L8.52781 60.4773L12.4288 62.5515ZM28.768 36.7018C23.9041 45.8499 19.0402 54.998 14.1759 64.1458C13.5093 65.3996 13.0996 65.532 11.8855 64.8869C10.1481 63.9637 8.40949 63.0429 6.67462 62.1147C5.77677 61.6342 5.6078 61.0979 6.08445 60.201C15.8779 41.7779 25.6704 23.3545 35.4732 4.93637C36.6915 2.64725 39.3946 1.79967 41.595 2.96277C43.8251 4.1412 44.6278 6.85865 43.3896 9.19287C38.5237 18.3668 33.643 27.5327 28.768 36.7018Z" fill="black"/>
<path d="M40.5291 4.98786L40.7646 4.54678L40.7645 4.54675L40.5291 4.98786ZM37.4837 5.94167L37.0426 5.7062L37.0426 5.70622L37.4837 5.94167ZM38.4249 9.04193L38.652 8.59647L38.6519 8.59646L38.4249 9.04193ZM12.4288 62.5515L12.194 62.9929L12.6355 63.2277L12.8702 62.7862L12.4288 62.5515ZM39.4727 11.6892L39.9142 11.9239L40.2009 11.3846L39.6157 11.21L39.4727 11.6892ZM37.3363 11.0185L37.5735 10.5783L37.5734 10.5783L37.3363 11.0185ZM35.5745 9.60995L35.8922 9.22386L35.42 8.83537L35.133 9.37522L35.5745 9.60995ZM8.52781 60.4773L8.08634 60.2426L7.8516 60.684L8.29307 60.9188L8.52781 60.4773ZM14.1759 64.1458L13.7345 63.9111L13.7345 63.9111L14.1759 64.1458ZM11.8855 64.8869L12.1201 64.4453L12.1201 64.4453L11.8855 64.8869ZM6.67462 62.1147L6.43872 62.5555L6.43873 62.5555L6.67462 62.1147ZM6.08445 60.201L5.64296 59.9664L5.64294 59.9664L6.08445 60.201ZM35.4732 4.93637L35.9146 5.17129L35.9146 5.17126L35.4732 4.93637ZM41.595 2.96277L41.3614 3.40482L41.3614 3.40485L41.595 2.96277ZM43.3896 9.19287L42.9479 8.95857L42.9479 8.95858L43.3896 9.19287ZM41.8984 8.27155C42.5966 6.92782 42.0969 5.25808 40.7646 4.54678L40.2936 5.42893C41.1323 5.87671 41.462 6.94258 41.0111 7.81047L41.8984 8.27155ZM40.7645 4.54675C39.4434 3.84165 37.7501 4.38097 37.0426 5.7062L37.9248 6.17714C38.3797 5.32499 39.4737 4.99134 40.2937 5.42896L40.7645 4.54675ZM37.0426 5.70622C36.3128 7.07356 36.822 8.78615 38.1978 9.4874L38.6519 8.59646C37.7914 8.15783 37.4497 7.06728 37.9248 6.17712L37.0426 5.70622ZM38.1978 9.48739C39.5409 10.172 41.2009 9.61401 41.8984 8.27155L41.0111 7.81047C40.5589 8.68063 39.4907 9.02403 38.652 8.59647L38.1978 9.48739ZM12.8702 62.7862L39.9142 11.9239L39.0313 11.4544L11.9873 62.3167L12.8702 62.7862ZM39.6157 11.21C39.2457 11.0997 38.8227 11.0048 38.4974 10.9174C38.1466 10.8233 37.8407 10.7223 37.5735 10.5783L37.0992 11.4587C37.4692 11.658 37.8638 11.7827 38.2381 11.8832C38.6378 11.9905 38.9644 12.0593 39.3298 12.1683L39.6157 11.21ZM37.5734 10.5783C37.2944 10.428 37.0305 10.2226 36.7529 9.98161C36.4958 9.75838 36.1805 9.46116 35.8922 9.22386L35.2568 9.99605C35.5431 10.2316 35.7811 10.4622 36.0973 10.7368C36.3932 10.9936 36.7228 11.256 37.0992 11.4587L37.5734 10.5783ZM35.133 9.37522L8.08634 60.2426L8.96928 60.712L36.0159 9.84469L35.133 9.37522ZM8.29307 60.9188L12.194 62.9929L12.6635 62.11L8.76255 60.0358L8.29307 60.9188ZM28.3265 36.4671C23.4626 45.6152 18.5987 54.7632 13.7345 63.9111L14.6174 64.3806C19.4816 55.2327 24.3455 46.0846 29.2094 36.9366L28.3265 36.4671ZM13.7345 63.9111C13.5731 64.2145 13.4423 64.4207 13.3258 64.5583C13.2125 64.6923 13.1342 64.7359 13.0821 64.7527C12.9679 64.7896 12.7407 64.7751 12.1201 64.4453L11.6509 65.3284C12.2444 65.6438 12.8291 65.8856 13.3899 65.7042C13.6754 65.6118 13.9003 65.4276 14.0893 65.2042C14.275 64.9846 14.4454 64.7041 14.6174 64.3806L13.7345 63.9111ZM12.1201 64.4453C10.3819 63.5217 8.64453 62.6016 6.91051 61.6738L6.43873 62.5555C8.17446 63.4842 9.91433 64.4057 11.6509 65.3284L12.1201 64.4453ZM6.91051 61.6738C6.50168 61.455 6.37803 61.2833 6.3417 61.166C6.30587 61.0504 6.31001 60.842 6.52597 60.4357L5.64294 59.9664C5.38224 60.4569 5.23254 60.9652 5.3865 61.462C5.53995 61.9572 5.94971 62.2938 6.43872 62.5555L6.91051 61.6738ZM6.52595 60.4357C16.3194 42.0126 26.1118 23.5893 35.9146 5.17129L35.0319 4.70145C25.2289 23.1197 15.4364 41.5433 5.64296 59.9664L6.52595 60.4357ZM35.9146 5.17126C37.0086 3.11568 39.4142 2.37561 41.3614 3.40482L41.8287 2.52072C39.3749 1.22374 36.3743 2.17882 35.0319 4.70147L35.9146 5.17126ZM41.3614 3.40485C43.3339 4.44713 44.0637 6.85516 42.9479 8.95857L43.8313 9.42717C45.1919 6.86215 44.3164 3.83527 41.8286 2.5207L41.3614 3.40485ZM42.9479 8.95858C38.0821 18.1322 33.2017 27.2977 28.3265 36.4671L29.2094 36.9366C34.0843 27.7678 38.9652 18.6014 43.8313 9.42716L42.9479 8.95858Z" fill="#F9F8F4"/>
<circle cx="39" cy="46.9536" r="17" fill="#212121"/>
<path d="M32.2663 44.8148C32.2663 44.8498 32.2523 44.8813 32.2243 44.9093C32.2033 44.9303 32.1753 44.9408 32.1403 44.9408H28.7068C28.6718 44.9408 28.6543 44.9583 28.6543 44.9933V46.6208C28.6543 46.6558 28.6718 46.6733 28.7068 46.6733H30.9643C30.9993 46.6733 31.0273 46.6873 31.0483 46.7153C31.0763 46.7363 31.0903 46.7643 31.0903 46.7993V47.8178C31.0903 47.8528 31.0763 47.8843 31.0483 47.9123C31.0273 47.9333 30.9993 47.9438 30.9643 47.9438H28.7068C28.6718 47.9438 28.6543 47.9613 28.6543 47.9963V50.8943C28.6543 50.9293 28.6403 50.9608 28.6123 50.9888C28.5913 51.0098 28.5633 51.0203 28.5283 51.0203H27.2998C27.2648 51.0203 27.2333 51.0098 27.2053 50.9888C27.1843 50.9608 27.1738 50.9293 27.1738 50.8943V43.7963C27.1738 43.7613 27.1843 43.7333 27.2053 43.7123C27.2333 43.6843 27.2648 43.6703 27.2998 43.6703H32.1403C32.1753 43.6703 32.2033 43.6843 32.2243 43.7123C32.2523 43.7333 32.2663 43.7613 32.2663 43.7963V44.8148ZM37.0813 51.0203C37.0113 51.0203 36.9623 50.9888 36.9343 50.9258L35.6218 48.0173C35.6078 47.9893 35.5868 47.9753 35.5588 47.9753H34.5823C34.5473 47.9753 34.5298 47.9928 34.5298 48.0278V50.8943C34.5298 50.9293 34.5158 50.9608 34.4878 50.9888C34.4668 51.0098 34.4388 51.0203 34.4038 51.0203H33.1753C33.1403 51.0203 33.1088 51.0098 33.0808 50.9888C33.0598 50.9608 33.0493 50.9293 33.0493 50.8943V43.7963C33.0493 43.7613 33.0598 43.7333 33.0808 43.7123C33.1088 43.6843 33.1403 43.6703 33.1753 43.6703H36.1783C36.6263 43.6703 37.0183 43.7613 37.3543 43.9433C37.6973 44.1253 37.9598 44.3843 38.1418 44.7203C38.3308 45.0563 38.4253 45.4448 38.4253 45.8858C38.4253 46.3618 38.3063 46.7713 38.0683 47.1143C37.8303 47.4503 37.4978 47.6883 37.0708 47.8283C37.0358 47.8423 37.0253 47.8668 37.0393 47.9018L38.4673 50.8733C38.4813 50.9013 38.4883 50.9223 38.4883 50.9363C38.4883 50.9923 38.4498 51.0203 38.3728 51.0203H37.0813ZM34.5823 44.9408C34.5473 44.9408 34.5298 44.9583 34.5298 44.9933V46.7888C34.5298 46.8238 34.5473 46.8413 34.5823 46.8413H35.9578C36.2518 46.8413 36.4898 46.7538 36.6718 46.5788C36.8608 46.4038 36.9553 46.1763 36.9553 45.8963C36.9553 45.6163 36.8608 45.3888 36.6718 45.2138C36.4898 45.0318 36.2518 44.9408 35.9578 44.9408H34.5823ZM44.602 44.8148C44.602 44.8498 44.588 44.8813 44.56 44.9093C44.539 44.9303 44.511 44.9408 44.476 44.9408H41.032C40.997 44.9408 40.9795 44.9583 40.9795 44.9933V46.6208C40.9795 46.6558 40.997 46.6733 41.032 46.6733H43.2895C43.3245 46.6733 43.3525 46.6873 43.3735 46.7153C43.4015 46.7363 43.4155 46.7643 43.4155 46.7993V47.8178C43.4155 47.8528 43.4015 47.8843 43.3735 47.9123C43.3525 47.9333 43.3245 47.9438 43.2895 47.9438H41.032C40.997 47.9438 40.9795 47.9613 40.9795 47.9963V49.6973C40.9795 49.7323 40.997 49.7498 41.032 49.7498H44.476C44.511 49.7498 44.539 49.7638 44.56 49.7918C44.588 49.8128 44.602 49.8408 44.602 49.8758V50.8943C44.602 50.9293 44.588 50.9608 44.56 50.9888C44.539 51.0098 44.511 51.0203 44.476 51.0203H39.625C39.59 51.0203 39.5585 51.0098 39.5305 50.9888C39.5095 50.9608 39.499 50.9293 39.499 50.8943V43.7963C39.499 43.7613 39.5095 43.7333 39.5305 43.7123C39.5585 43.6843 39.59 43.6703 39.625 43.6703H44.476C44.511 43.6703 44.539 43.6843 44.56 43.7123C44.588 43.7333 44.602 43.7613 44.602 43.7963V44.8148ZM50.7339 44.8148C50.7339 44.8498 50.7199 44.8813 50.6919 44.9093C50.6709 44.9303 50.6429 44.9408 50.6079 44.9408H47.1639C47.1289 44.9408 47.1114 44.9583 47.1114 44.9933V46.6208C47.1114 46.6558 47.1289 46.6733 47.1639 46.6733H49.4214C49.4564 46.6733 49.4844 46.6873 49.5054 46.7153C49.5334 46.7363 49.5474 46.7643 49.5474 46.7993V47.8178C49.5474 47.8528 49.5334 47.8843 49.5054 47.9123C49.4844 47.9333 49.4564 47.9438 49.4214 47.9438H47.1639C47.1289 47.9438 47.1114 47.9613 47.1114 47.9963V49.6973C47.1114 49.7323 47.1289 49.7498 47.1639 49.7498H50.6079C50.6429 49.7498 50.6709 49.7638 50.6919 49.7918C50.7199 49.8128 50.7339 49.8408 50.7339 49.8758V50.8943C50.7339 50.9293 50.7199 50.9608 50.6919 50.9888C50.6709 51.0098 50.6429 51.0203 50.6079 51.0203H45.7569C45.7219 51.0203 45.6904 51.0098 45.6624 50.9888C45.6414 50.9608 45.6309 50.9293 45.6309 50.8943V43.7963C45.6309 43.7613 45.6414 43.7333 45.6624 43.7123C45.6904 43.6843 45.7219 43.6703 45.7569 43.6703H50.6079C50.6429 43.6703 50.6709 43.6843 50.6919 43.7123C50.7199 43.7333 50.7339 43.7613 50.7339 43.7963V44.8148Z" fill="white"/>
</svg>
