<svg width="64" height="65" viewBox="0 0 64 65" fill="none" xmlns="http://www.w3.org/2000/svg">
<path fill-rule="evenodd" clip-rule="evenodd" d="M14.5135 17.8481C14.511 10.9512 20.1662 5.31119 27.0446 5.35022C33.9253 5.3894 39.5285 11.0247 39.4996 17.8766C39.4705 24.7597 33.8524 30.3524 26.9863 30.3332C20.0887 30.314 14.516 24.7356 14.5135 17.8481ZM39.7191 34.7111C39.8114 34.0897 39.5028 33.6255 38.9608 33.3901C37.4436 32.7311 35.9079 32.115 34.3783 31.4853C34.1931 31.409 33.9997 31.3529 33.7555 31.2687C42.7102 26.6507 44.4237 15.3677 38.5691 8.31735C32.9828 1.58996 22.9064 0.957645 16.5748 7.09866C13.5375 10.0446 11.9621 13.6874 12.0227 17.9012C12.109 23.8965 15.0195 28.2776 20.2263 31.2568C19.3487 31.5688 18.5304 31.8135 17.7487 32.1444C9.45121 35.6573 4.33226 41.8112 2.46027 50.6338C2.24324 51.6567 2.1505 52.706 1.99994 53.743V59.3676C2.07566 59.5016 2.14272 59.6414 2.22842 59.7688C2.54949 60.2461 3.01143 60.4137 3.55364 60.2809C4.07296 60.1538 4.39521 59.8002 4.46036 59.2574C4.49279 58.9872 4.48252 58.7121 4.49191 58.4392C4.56088 56.4511 4.50864 54.4498 4.72391 52.4778C5.19539 48.1583 6.9092 44.3215 9.68438 40.9882C12.4985 37.6081 16.011 35.2149 20.2191 33.8951C23.4693 32.8758 26.7922 32.6109 30.1705 33.0817C32.825 33.4515 35.3245 34.2872 37.6972 35.5289C37.9921 35.6833 38.3698 35.7839 38.695 35.7543C39.2836 35.7006 39.6333 35.2902 39.7191 34.7111Z" fill="black"/>
<path d="M14.5135 17.8481L14.0135 17.8483L14.5135 17.8481ZM27.0446 5.35022L27.0474 4.85023H27.0474L27.0446 5.35022ZM39.4996 17.8766L39.9996 17.8787V17.8787L39.4996 17.8766ZM26.9863 30.3332L26.9877 29.8332H26.9877L26.9863 30.3332ZM39.7191 34.7111L39.2245 34.6377L39.2245 34.6378L39.7191 34.7111ZM38.9608 33.3901L38.7615 33.8487L38.7616 33.8488L38.9608 33.3901ZM34.3783 31.4853L34.1878 31.9476L34.188 31.9476L34.3783 31.4853ZM33.7555 31.2687L33.5263 30.8243L32.4873 31.3601L33.5925 31.7414L33.7555 31.2687ZM38.5691 8.31735L38.1844 8.63677V8.63677L38.5691 8.31735ZM16.5748 7.09866L16.2267 6.73974L16.2267 6.73975L16.5748 7.09866ZM12.0227 17.9012L11.5228 17.9084V17.9084L12.0227 17.9012ZM20.2263 31.2568L20.3938 31.7279L21.4194 31.3634L20.4746 30.8228L20.2263 31.2568ZM17.7487 32.1444L17.5538 31.684L17.5538 31.684L17.7487 32.1444ZM2.46027 50.6338L1.97116 50.53L1.97116 50.53L2.46027 50.6338ZM1.99994 53.743L1.50513 53.6711L1.49994 53.7069V53.743H1.99994ZM1.99994 59.3676H1.49994V59.4991L1.56465 59.6136L1.99994 59.3676ZM2.22842 59.7688L2.6433 59.4897L2.64326 59.4897L2.22842 59.7688ZM3.55364 60.2809L3.4348 59.7952L3.4347 59.7953L3.55364 60.2809ZM4.46036 59.2574L3.96393 59.1978L3.96393 59.1978L4.46036 59.2574ZM4.49191 58.4392L3.99221 58.4218L3.99221 58.422L4.49191 58.4392ZM4.72391 52.4778L5.22096 52.532L5.22096 52.532L4.72391 52.4778ZM9.68438 40.9882L9.30012 40.6682L9.30012 40.6682L9.68438 40.9882ZM20.2191 33.8951L20.0695 33.418L20.0695 33.418L20.2191 33.8951ZM30.1705 33.0817L30.1015 33.5769L30.1015 33.5769L30.1705 33.0817ZM37.6972 35.5289L37.929 35.0859L37.929 35.0859L37.6972 35.5289ZM38.695 35.7543L38.7404 36.2522L38.7404 36.2522L38.695 35.7543ZM15.0135 17.8479C15.0111 11.2271 20.4419 5.81276 27.0417 5.85022L27.0474 4.85023C19.8904 4.80962 14.0109 10.6753 14.0135 17.8483L15.0135 17.8479ZM27.0417 5.85022C33.6486 5.88784 39.0273 11.3005 38.9996 17.8745L39.9996 17.8787C40.0297 10.749 34.202 4.89097 27.0474 4.85023L27.0417 5.85022ZM38.9996 17.8745C38.9717 24.4829 33.5767 29.8517 26.9877 29.8332L26.9849 30.8332C34.128 30.8532 39.9694 25.0365 39.9996 17.8787L38.9996 17.8745ZM26.9877 29.8332C20.3649 29.8148 15.0159 24.4592 15.0135 17.8479L14.0135 17.8483C14.0161 25.012 19.8124 30.8132 26.9849 30.8332L26.9877 29.8332ZM40.2137 34.7846C40.2751 34.3712 40.2054 33.9812 40.007 33.6493C39.8108 33.321 39.509 33.0831 39.1599 32.9315L38.7616 33.8488C38.9546 33.9326 39.0781 34.0444 39.1486 34.1624C39.217 34.2768 39.2554 34.4296 39.2245 34.6377L40.2137 34.7846ZM39.16 32.9315C37.6369 32.27 36.0927 31.6503 34.5686 31.0229L34.188 31.9476C35.7231 32.5796 37.2503 33.1923 38.7615 33.8487L39.16 32.9315ZM34.5688 31.023C34.3665 30.9396 34.1309 30.8693 33.9186 30.796L33.5925 31.7414C33.8685 31.8366 34.0197 31.8783 34.1878 31.9476L34.5688 31.023ZM33.9847 31.7131C43.235 26.9426 45.004 15.2839 38.9538 7.99792L38.1844 8.63677C43.8434 15.4516 42.1853 26.3588 33.5263 30.8243L33.9847 31.7131ZM38.9538 7.99793C33.1837 1.04929 22.7701 0.393306 16.2267 6.73974L16.9229 7.45757C23.0427 1.52198 32.7818 2.13062 38.1844 8.63677L38.9538 7.99793ZM16.2267 6.73975C13.0948 9.77755 11.4601 13.551 11.5228 17.9084L12.5227 17.894C12.4641 13.8237 13.9803 10.3118 16.9229 7.45756L16.2267 6.73975ZM11.5228 17.9084C11.6119 24.1007 14.6362 28.6344 19.978 31.6908L20.4746 30.8228C15.4028 27.9209 12.6061 23.6923 12.5227 17.894L11.5228 17.9084ZM20.0589 30.7857C19.2142 31.0859 18.3524 31.3459 17.5538 31.684L17.9437 32.6049C18.7084 32.2812 19.4831 32.0516 20.3938 31.7279L20.0589 30.7857ZM17.5538 31.684C9.1072 35.26 3.87736 41.5462 1.97116 50.53L2.94938 50.7376C4.78716 42.0762 9.79522 36.0546 17.9437 32.6049L17.5538 31.684ZM1.97116 50.53C1.74994 51.5727 1.65008 52.6727 1.50513 53.6711L2.49475 53.8148C2.65092 52.7392 2.73654 51.7408 2.94938 50.7376L1.97116 50.53ZM1.49994 53.743V59.3676H2.49994V53.743H1.49994ZM1.56465 59.6136C1.61723 59.7067 1.71439 59.9005 1.81357 60.0479L2.64326 59.4897C2.57105 59.3824 2.53408 59.2965 2.43523 59.1216L1.56465 59.6136ZM1.81353 60.0478C2.0222 60.3581 2.2955 60.5936 2.63036 60.721C2.9645 60.8481 3.32106 60.8527 3.67259 60.7666L3.4347 59.7953C3.24401 59.842 3.09849 59.8292 2.98585 59.7863C2.87392 59.7438 2.75571 59.6569 2.6433 59.4897L1.81353 60.0478ZM3.67249 60.7666C4.01461 60.6829 4.31936 60.5168 4.55037 60.258C4.78169 59.9987 4.91386 59.6747 4.9568 59.317L3.96393 59.1978C3.94171 59.3829 3.88018 59.5071 3.80426 59.5921C3.72804 59.6776 3.612 59.7519 3.4348 59.7952L3.67249 60.7666ZM4.9568 59.317C4.9924 59.0204 4.98395 58.6793 4.99162 58.4564L3.99221 58.422C3.9811 58.7449 3.99318 58.9541 3.96393 59.1978L4.9568 59.317ZM4.99161 58.4565C5.06204 56.4263 5.00823 54.4809 5.22096 52.532L4.22686 52.4235C4.00906 54.4188 4.05972 56.4759 3.99221 58.4218L4.99161 58.4565ZM5.22096 52.532C5.68109 48.3165 7.35218 44.5709 10.0686 41.3081L9.30012 40.6682C6.46621 44.0722 4.7097 48 4.22686 52.4235L5.22096 52.532ZM10.0686 41.3081C12.8229 37.9998 16.2548 35.6624 20.3688 34.3722L20.0695 33.418C15.7672 34.7673 12.174 37.2163 9.30012 40.6682L10.0686 41.3081ZM20.3688 34.3722C23.5472 33.3754 26.7953 33.1162 30.1015 33.5769L30.2395 32.5865C26.789 32.1057 23.3914 32.3762 20.0695 33.418L20.3688 34.3722ZM30.1015 33.5769C32.6951 33.9382 35.1398 34.7548 37.4653 35.9719L37.929 35.0859C35.5092 33.8195 32.9549 32.9648 30.2394 32.5865L30.1015 33.5769ZM37.4653 35.9719C37.8212 36.1582 38.2954 36.2928 38.7404 36.2522L38.6496 35.2564C38.4443 35.2751 38.163 35.2084 37.929 35.0859L37.4653 35.9719ZM38.7404 36.2522C39.1474 36.2151 39.4978 36.0494 39.759 35.7731C40.0153 35.5019 40.1591 35.1526 40.2137 34.7844L39.2245 34.6378C39.1933 34.8487 39.1193 34.9941 39.0322 35.0863C38.9499 35.1734 38.8312 35.2398 38.6496 35.2564L38.7404 36.2522Z" fill="#F9F8F4"/>
<path fill-rule="evenodd" clip-rule="evenodd" d="M34.499 46.5554C34.5245 54.1289 40.5839 60.2434 48.1697 60.3401C55.6068 60.4347 61.8755 54.3291 61.9981 46.778C62.1213 39.2019 56.0546 32.9937 48.3592 32.867C41.1465 32.7483 34.6007 38.5241 34.499 46.5554Z" fill="black"/>
<path fill-rule="evenodd" clip-rule="evenodd" d="M49.0071 38.7085H47.3191V45.3201H40.4152V47.0081H47.3191V54.2043H49.0071V47.0081H55.911V45.3201H49.0071V38.7085Z" fill="white" stroke="black" stroke-width="0.8"/>
</svg>
