<svg width="64" height="65" viewBox="0 0 64 65" fill="none" xmlns="http://www.w3.org/2000/svg">
<path fill-rule="evenodd" clip-rule="evenodd" d="M10.453 28.3547V23.4765C9.39785 24.321 8.42618 25.0986 7.38706 25.9302C8.44509 26.7668 9.42048 27.538 10.453 28.3547ZM54.5382 28.3659C55.5857 27.5365 56.5667 26.7595 57.6131 25.9307C56.5851 25.1053 55.615 24.3261 54.5382 23.4615V28.3659ZM58.1069 56.998V27.8815C51.9673 32.7429 45.8727 37.5687 39.7195 42.4409C45.8584 47.3009 51.918 52.0984 58.1069 56.998ZM7.04288 56.8824C13.1152 52.0752 19.1791 47.2745 25.2848 42.4408C19.1234 37.5618 13.0281 32.7353 6.86055 27.8516C6.61706 31.541 6.76086 56.3098 7.04288 56.8824ZM56.2451 57.9974C56.2703 57.9616 56.2954 57.9258 56.3206 57.8902C56.2464 57.8425 56.1675 57.8006 56.0986 57.7462C48.7323 51.9142 41.368 46.0795 33.9993 40.2505C33.0236 39.4788 31.9436 39.5067 30.9504 40.2929C24.4679 45.4248 17.985 50.5567 11.5039 55.6905C10.571 56.4292 9.64592 57.178 8.62327 57.9974H56.2451ZM38.44 41.109C43.0997 37.4232 47.7611 33.7393 52.4091 30.0387C52.5671 29.9129 52.6647 29.6177 52.6649 29.4013C52.678 22.2409 52.6766 15.0804 52.6748 7.9198C52.6747 6.9977 52.3662 6.68818 51.4538 6.68803C38.8154 6.68717 26.177 6.68717 13.5386 6.68818C12.6477 6.68818 12.326 6.99827 12.3257 7.87254C12.3233 15.051 12.3265 22.2295 12.3174 29.408C12.317 29.7292 12.4221 29.926 12.6714 30.1216C14.8252 31.812 16.9679 33.5167 19.1145 35.2164C21.6535 37.2271 24.1931 39.2369 26.7597 41.2684C27.7346 40.498 28.7024 39.7359 29.6675 38.9703C31.5464 37.4803 33.4403 37.479 35.3385 38.972C36.2946 39.7241 37.2472 40.4805 38.229 41.2568C38.3233 41.1911 38.3841 41.1533 38.44 41.109ZM5 26.6641C5.29477 25.4108 6.10201 24.5537 7.1112 23.8155C8.11967 23.0779 9.06656 22.2568 10.0632 21.5021C10.381 21.2615 10.5032 21.0148 10.5016 20.6132C10.486 16.504 10.492 12.3946 10.492 8.28533C10.492 6.27482 10.9297 5.60579 12.7344 4.85742H52.2656C54.071 5.60694 54.508 6.27496 54.5082 8.28561C54.5082 12.359 54.514 16.4326 54.4997 20.5062C54.4981 20.9515 54.5955 21.2539 54.9798 21.5363C55.9721 22.2658 56.8971 23.0871 57.8915 23.8134C58.9019 24.5513 59.7011 25.4147 60 26.6641V56.7422C59.7574 57.287 59.5762 57.871 59.2585 58.3678C58.7142 59.2188 57.8315 59.6069 56.8848 59.8574H8.11523C6.98172 59.5778 6.04042 59.019 5.46779 57.9655C5.27615 57.613 5.15397 57.2227 5 56.8496C5 46.7878 5 36.7259 5 26.6641Z" fill="black"/>
<path d="M10.453 28.3547L10.2979 28.5508L10.703 28.8712V28.3547H10.453ZM10.453 23.4765H10.703V22.9562L10.2968 23.2813L10.453 23.4765ZM7.38706 25.9302L7.23085 25.735L6.98548 25.9313L7.232 26.1263L7.38706 25.9302ZM54.5382 28.3659H54.2882V28.8828L54.6934 28.5619L54.5382 28.3659ZM57.6131 25.9307L57.7683 26.1267L58.0141 25.9321L57.7696 25.7358L57.6131 25.9307ZM54.5382 23.4615L54.6948 23.2665L54.2882 22.9401V23.4615H54.5382ZM58.1069 56.998L57.9518 57.194L58.3569 57.5148V56.998H58.1069ZM58.1069 27.8815H58.3569V27.3647L57.9518 27.6855L58.1069 27.8815ZM39.7195 42.4409L39.5643 42.2449L39.3167 42.4409L39.5643 42.6369L39.7195 42.4409ZM7.04288 56.8824L6.8186 56.9929L6.95536 57.2705L7.19805 57.0784L7.04288 56.8824ZM25.2848 42.4408L25.44 42.6368L25.6876 42.4408L25.44 42.2448L25.2848 42.4408ZM6.86055 27.8516L7.01574 27.6556L6.64245 27.36L6.61109 27.8351L6.86055 27.8516ZM56.2451 57.9974V58.2474H56.3748L56.4495 58.1414L56.2451 57.9974ZM56.3206 57.8902L56.5247 58.0345L56.6755 57.8211L56.4558 57.6799L56.3206 57.8902ZM56.0986 57.7462L55.9434 57.9422L55.9436 57.9424L56.0986 57.7462ZM33.9993 40.2505L34.1544 40.0544L34.1544 40.0544L33.9993 40.2505ZM30.9504 40.2929L30.7952 40.0969L30.7952 40.0969L30.9504 40.2929ZM11.5039 55.6905L11.6591 55.8864L11.6591 55.8864L11.5039 55.6905ZM8.62327 57.9974L8.46694 57.8023L7.91145 58.2474H8.62327V57.9974ZM38.44 41.109L38.2849 40.9129L38.2847 40.9131L38.44 41.109ZM52.4091 30.0387L52.2534 29.8431L52.2534 29.8431L52.4091 30.0387ZM52.6649 29.4013L52.4149 29.4009V29.401L52.6649 29.4013ZM52.6748 7.9198L52.4248 7.91984V7.91986L52.6748 7.9198ZM51.4538 6.68803L51.4538 6.43803H51.4538L51.4538 6.68803ZM13.5386 6.68818V6.93818H13.5386L13.5386 6.68818ZM12.3257 7.87254L12.5757 7.87262V7.87262L12.3257 7.87254ZM12.3174 29.408L12.5674 29.4084V29.4084L12.3174 29.408ZM12.6714 30.1216L12.517 30.3183L12.517 30.3183L12.6714 30.1216ZM19.1145 35.2164L19.2697 35.0204L19.2697 35.0204L19.1145 35.2164ZM26.7597 41.2684L26.6045 41.4644L26.7595 41.5872L26.9147 41.4646L26.7597 41.2684ZM29.6675 38.9703L29.5122 38.7744L29.5121 38.7745L29.6675 38.9703ZM35.3385 38.972L35.4931 38.7755L35.4931 38.7755L35.3385 38.972ZM38.229 41.2568L38.074 41.4529L38.2197 41.5681L38.3721 41.4619L38.229 41.2568ZM5 26.6641L4.75664 26.6068L4.75 26.6351V26.6641H5ZM7.1112 23.8155L6.96361 23.6137L6.9636 23.6137L7.1112 23.8155ZM10.0632 21.5021L9.91225 21.3028L9.91223 21.3028L10.0632 21.5021ZM10.5016 20.6132L10.2516 20.6142V20.6142L10.5016 20.6132ZM12.7344 4.85742V4.60742H12.6846L12.6386 4.62649L12.7344 4.85742ZM52.2656 4.85742L52.3615 4.62653L52.3155 4.60742H52.2656V4.85742ZM54.5082 8.28561H54.7582V8.28559L54.5082 8.28561ZM54.4997 20.5062L54.7497 20.5071V20.5071L54.4997 20.5062ZM54.9798 21.5363L55.1279 21.3349L55.1279 21.3349L54.9798 21.5363ZM57.8915 23.8134L57.7441 24.0153L57.7441 24.0153L57.8915 23.8134ZM60 26.6641H60.25V26.6346L60.2431 26.6059L60 26.6641ZM60 56.7422L60.2284 56.8439L60.25 56.7953V56.7422H60ZM59.2585 58.3678L59.4691 58.5025L59.4691 58.5025L59.2585 58.3678ZM56.8848 59.8574V60.1074H56.9173L56.9487 60.0991L56.8848 59.8574ZM8.11523 59.8574L8.05537 60.1001L8.08486 60.1074H8.11523V59.8574ZM5.46779 57.9655L5.68743 57.8461L5.68742 57.8461L5.46779 57.9655ZM5 56.8496H4.75V56.8992L4.7689 56.945L5 56.8496ZM10.703 28.3547V23.4765H10.203V28.3547H10.703ZM10.2968 23.2813C9.24164 24.1258 8.26998 24.9034 7.23085 25.735L7.54326 26.1253C8.58239 25.2938 9.55406 24.5162 10.6092 23.6717L10.2968 23.2813ZM7.232 26.1263C8.29003 26.9629 9.26541 27.7341 10.2979 28.5508L10.6081 28.1587C9.57556 27.342 8.60015 26.5707 7.54212 25.7341L7.232 26.1263ZM54.6934 28.5619C55.7409 27.7325 56.7219 26.9554 57.7683 26.1267L57.4579 25.7347C56.4114 26.5635 55.4305 27.3405 54.383 28.1699L54.6934 28.5619ZM57.7696 25.7358C56.7416 24.9103 55.7716 24.1313 54.6948 23.2665L54.3817 23.6564C55.4584 24.521 56.4286 25.3003 57.4566 26.1257L57.7696 25.7358ZM54.2882 23.4615V28.3659H54.7882V23.4615H54.2882ZM58.3569 56.998V27.8815H57.8569V56.998H58.3569ZM57.9518 27.6855C51.8121 32.5469 45.7175 37.3727 39.5643 42.2449L39.8747 42.6369C46.0279 37.7647 52.1225 32.9388 58.2621 28.0775L57.9518 27.6855ZM39.5643 42.6369C45.7032 47.497 51.7628 52.2944 57.9518 57.194L58.2621 56.802C52.0732 51.9024 46.0136 47.1049 39.8746 42.2449L39.5643 42.6369ZM7.19805 57.0784C13.2704 52.2712 19.3343 47.4705 25.44 42.6368L25.1297 42.2447C19.0239 47.0784 12.96 51.8792 6.8877 56.6864L7.19805 57.0784ZM25.44 42.2448C19.2786 37.3658 13.1833 32.5393 7.01574 27.6556L6.70535 28.0476C12.8729 32.9313 18.9682 37.7578 25.1296 42.6367L25.44 42.2448ZM6.61109 27.8351C6.4886 29.6912 6.46391 36.8171 6.50465 43.5373C6.52504 46.9004 6.56185 50.1668 6.61122 52.6286C6.6359 53.8593 6.66374 54.8903 6.6943 55.6322C6.70956 56.0028 6.72559 56.3035 6.74242 56.5218C6.75081 56.6305 6.75962 56.7219 6.76906 56.7924C6.77376 56.8275 6.77902 56.8605 6.78513 56.8896C6.79004 56.9129 6.79944 56.954 6.8186 56.9929L7.26715 56.772C7.2775 56.793 7.27816 56.8044 7.27439 56.7865C7.27183 56.7743 7.26848 56.7547 7.26464 56.7261C7.25701 56.669 7.24904 56.5883 7.24094 56.4833C7.2248 56.274 7.20906 55.9803 7.19387 55.6116C7.16354 54.875 7.13578 53.8481 7.11112 52.6186C7.06182 50.1599 7.02502 46.8961 7.00464 43.5343C6.96385 36.8046 6.98901 29.7014 7.11 27.868L6.61109 27.8351ZM56.4495 58.1414C56.4753 58.1047 56.4996 58.07 56.5247 58.0345L56.1164 57.7459C56.0911 57.7817 56.0653 57.8186 56.0407 57.8535L56.4495 58.1414ZM56.4558 57.6799C56.3567 57.6162 56.3106 57.5951 56.2536 57.5501L55.9436 57.9424C56.0243 58.0062 56.1361 58.0687 56.1854 58.1005L56.4558 57.6799ZM56.2538 57.5502C48.8876 51.7183 41.5232 45.8835 34.1544 40.0544L33.8442 40.4466C41.2129 46.2755 48.577 52.1101 55.9434 57.9422L56.2538 57.5502ZM34.1544 40.0544C33.6291 39.6389 33.0602 39.4276 32.4772 39.4375C31.8952 39.4474 31.3254 39.6772 30.7952 40.0969L31.1056 40.4889C31.5686 40.1224 32.0353 39.9451 32.4857 39.9374C32.9348 39.9298 33.3939 40.0904 33.8442 40.4466L34.1544 40.0544ZM30.7952 40.0969C24.3127 45.2288 17.8298 50.3607 11.3487 55.4945L11.6591 55.8864C18.1402 50.7527 24.623 45.6208 31.1056 40.4889L30.7952 40.0969ZM11.3487 55.4945C10.4151 56.2338 9.48828 56.984 8.46694 57.8023L8.77959 58.1925C9.80357 57.3721 10.7269 56.6247 11.6591 55.8864L11.3487 55.4945ZM8.62327 58.2474H56.2451V57.7474H8.62327V58.2474ZM38.5951 41.3051C43.2546 37.6193 47.9164 33.9352 52.5649 30.2343L52.2534 29.8431C47.6057 33.5434 42.9447 37.227 38.2849 40.9129L38.5951 41.3051ZM52.5648 30.2343C52.6931 30.1321 52.7778 29.9803 52.83 29.8426C52.8836 29.701 52.9148 29.5433 52.9149 29.4016L52.4149 29.401C52.4148 29.4758 52.3971 29.5738 52.3624 29.6654C52.3262 29.7609 52.2831 29.8195 52.2534 29.8431L52.5648 30.2343ZM52.9149 29.4018C52.928 22.241 52.9266 15.0803 52.9248 7.91974L52.4248 7.91986C52.4266 15.0805 52.428 22.2407 52.4149 29.4009L52.9149 29.4018ZM52.9248 7.91977C52.9248 7.44456 52.8484 7.04863 52.5839 6.78208C52.3188 6.51497 51.9248 6.43811 51.4538 6.43803L51.4538 6.93803C51.8952 6.9381 52.1116 7.01608 52.229 7.13428C52.3468 7.25305 52.4248 7.47294 52.4248 7.91984L52.9248 7.91977ZM51.4538 6.43803C38.8154 6.43717 26.177 6.43717 13.5386 6.43818L13.5386 6.93818C26.177 6.93717 38.8154 6.93717 51.4538 6.93803L51.4538 6.43803ZM13.5386 6.43818C13.0764 6.43818 12.6882 6.51591 12.4238 6.7734C12.1576 7.03263 12.0759 7.416 12.0757 7.87246L12.5757 7.87262C12.5759 7.45481 12.6552 7.246 12.7726 7.13161C12.8919 7.01549 13.1099 6.93818 13.5386 6.93818V6.43818ZM12.0757 7.87245C12.0733 15.0512 12.0765 22.2294 12.0674 29.4077L12.5674 29.4084C12.5765 22.2297 12.5733 15.0509 12.5757 7.87262L12.0757 7.87245ZM12.0674 29.4077C12.0672 29.5964 12.0981 29.767 12.1776 29.9244C12.2565 30.081 12.3739 30.206 12.517 30.3183L12.8257 29.925C12.7195 29.8416 12.6598 29.7703 12.624 29.6993C12.5887 29.6292 12.5673 29.5408 12.5674 29.4084L12.0674 29.4077ZM12.517 30.3183C14.6703 32.0082 16.8121 33.7122 18.9593 35.4124L19.2697 35.0204C17.1237 33.3212 14.9801 31.6158 12.8257 29.9249L12.517 30.3183ZM18.9593 35.4124C21.4984 37.4231 24.038 39.4329 26.6045 41.4644L26.9148 41.0724C24.3483 39.0408 21.8087 37.0311 19.2697 35.0204L18.9593 35.4124ZM26.9147 41.4646C27.8892 40.6945 28.8576 39.9319 29.8229 39.1662L29.5121 38.7745C28.5473 39.5398 27.5801 40.3015 26.6047 41.0723L26.9147 41.4646ZM29.8228 39.1662C30.7301 38.4467 31.6202 38.1025 32.4957 38.1025C33.3715 38.1026 34.2666 38.447 35.184 39.1685L35.4931 38.7755C34.5122 38.004 33.5113 37.6026 32.4958 37.6025C31.4801 37.6025 30.4837 38.0039 29.5122 38.7744L29.8228 39.1662ZM35.1839 39.1685C36.1397 39.9204 37.0916 40.6762 38.074 41.4529L38.3841 41.0607C37.4028 40.2849 36.4494 39.5279 35.4931 38.7755L35.1839 39.1685ZM38.3721 41.4619C38.4521 41.4061 38.5319 41.3552 38.5953 41.305L38.2847 40.9131C38.2364 40.9514 38.1945 40.9761 38.086 41.0518L38.3721 41.4619ZM5.24336 26.7213C5.51854 25.5513 6.27165 24.7394 7.2588 24.0173L6.9636 23.6137C5.93236 24.3681 5.07099 25.2703 4.75664 26.6068L5.24336 26.7213ZM7.25879 24.0173C7.7681 23.6448 8.26088 23.2519 8.74828 22.86C9.23695 22.4671 9.71939 22.076 10.2141 21.7014L9.91223 21.3028C9.41032 21.6829 8.92102 22.0796 8.43499 22.4704C7.94767 22.8621 7.46277 23.2486 6.96361 23.6137L7.25879 24.0173ZM10.2141 21.7014C10.3936 21.5655 10.5341 21.4155 10.6263 21.2287C10.7185 21.042 10.7525 20.8387 10.7516 20.6122L10.2516 20.6142C10.2523 20.7893 10.2259 20.9102 10.178 21.0073C10.13 21.1044 10.0505 21.1981 9.91225 21.3028L10.2141 21.7014ZM10.7516 20.6123C10.736 16.5036 10.742 12.3951 10.742 8.28533H10.242C10.242 12.3941 10.236 16.5043 10.2516 20.6142L10.7516 20.6123ZM10.742 8.28533C10.742 7.28898 10.8528 6.68254 11.1456 6.23493C11.4375 5.78882 11.9378 5.45839 12.8301 5.08835L12.6386 4.62649C11.7263 5.00483 11.1054 5.38309 10.7272 5.96121C10.35 6.53784 10.242 7.27117 10.242 8.28533H10.742ZM12.7344 5.10742H52.2656V4.60742H12.7344V5.10742ZM52.1698 5.08832C53.0625 5.45895 53.5629 5.78941 53.8547 6.23545C54.1474 6.68295 54.2581 7.28916 54.2582 8.28563L54.7582 8.28559C54.7581 7.27142 54.6502 6.53828 54.2731 5.96174C53.895 5.38372 53.2741 5.00541 52.3615 4.62653L52.1698 5.08832ZM54.2582 8.28561C54.2582 12.3595 54.264 16.4323 54.2497 20.5053L54.7497 20.5071C54.764 16.4329 54.7582 12.3586 54.7582 8.28561H54.2582ZM54.2497 20.5053C54.2489 20.7444 54.2741 20.9704 54.3657 21.1817C54.459 21.3969 54.6117 21.576 54.8318 21.7378L55.1279 21.3349C54.9636 21.2141 54.8756 21.1008 54.8245 20.9829C54.7717 20.8612 54.749 20.7133 54.7497 20.5071L54.2497 20.5053ZM54.8317 21.7377C55.3225 22.0985 55.7973 22.4825 56.2778 22.8705C56.7567 23.2573 57.2412 23.648 57.7441 24.0153L58.039 23.6115C57.5474 23.2525 57.0722 22.8693 56.5919 22.4815C56.1132 22.095 55.6294 21.7036 55.1279 21.3349L54.8317 21.7377ZM57.7441 24.0153C58.7308 24.7359 59.4774 25.5543 59.7569 26.7222L60.2431 26.6059C59.9247 25.275 59.073 24.3667 58.039 23.6115L57.7441 24.0153ZM59.75 26.6641V56.7422H60.25V26.6641H59.75ZM59.7716 56.6405C59.6496 56.9144 59.5365 57.2138 59.4267 57.4767C59.3132 57.7485 59.195 58.003 59.0479 58.2332L59.4691 58.5025C59.6396 58.2358 59.7709 57.9499 59.8881 57.6693C60.009 57.3798 60.1077 57.1148 60.2284 56.8439L59.7716 56.6405ZM59.0479 58.2331C58.5552 59.0035 57.7491 59.3701 56.8208 59.6157L56.9487 60.0991C57.9139 59.8437 58.8733 59.434 59.4691 58.5025L59.0479 58.2331ZM56.8848 59.6074H8.11523V60.1074H56.8848V59.6074ZM8.1751 59.6147C7.08788 59.3465 6.21705 58.8204 5.68743 57.8461L5.24814 58.0849C5.86378 59.2175 6.87556 59.8091 8.05537 60.1001L8.1751 59.6147ZM5.68742 57.8461C5.50379 57.5083 5.39683 57.1559 5.2311 56.7542L4.7689 56.945C4.91111 57.2896 5.0485 57.7177 5.24815 58.0849L5.68742 57.8461ZM5.25 56.8496C5.25 56.83 5.25 56.8103 5.25 56.7907C5.25 56.771 5.25 56.7514 5.25 56.7317C5.25 56.712 5.25 56.6924 5.25 56.6727C5.25 56.6531 5.25 56.6334 5.25 56.6138C5.25 56.5941 5.25 56.5745 5.25 56.5548C5.25 56.5352 5.25 56.5155 5.25 56.4959C5.25 56.4762 5.25 56.4566 5.25 56.4369C5.25 56.4173 5.25 56.3976 5.25 56.378C5.25 56.3583 5.25 56.3387 5.25 56.319C5.25 56.2994 5.25 56.2797 5.25 56.26C5.25 56.2404 5.25 56.2207 5.25 56.2011C5.25 56.1814 5.25 56.1618 5.25 56.1421C5.25 56.1225 5.25 56.1028 5.25 56.0832C5.25 56.0635 5.25 56.0439 5.25 56.0242C5.25 56.0046 5.25 55.9849 5.25 55.9653C5.25 55.9456 5.25 55.926 5.25 55.9063C5.25 55.8867 5.25 55.867 5.25 55.8474C5.25 55.8277 5.25 55.8081 5.25 55.7884C5.25 55.7687 5.25 55.7491 5.25 55.7294C5.25 55.7098 5.25 55.6901 5.25 55.6705C5.25 55.6508 5.25 55.6312 5.25 55.6115C5.25 55.5919 5.25 55.5722 5.25 55.5526C5.25 55.5329 5.25 55.5133 5.25 55.4936C5.25 55.474 5.25 55.4543 5.25 55.4347C5.25 55.415 5.25 55.3954 5.25 55.3757C5.25 55.3561 5.25 55.3364 5.25 55.3167C5.25 55.2971 5.25 55.2774 5.25 55.2578C5.25 55.2381 5.25 55.2185 5.25 55.1988C5.25 55.1792 5.25 55.1595 5.25 55.1399C5.25 55.1202 5.25 55.1006 5.25 55.0809C5.25 55.0613 5.25 55.0416 5.25 55.022C5.25 55.0023 5.25 54.9827 5.25 54.963C5.25 54.9434 5.25 54.9237 5.25 54.9041C5.25 54.8844 5.25 54.8648 5.25 54.8451C5.25 54.8254 5.25 54.8058 5.25 54.7861C5.25 54.7665 5.25 54.7468 5.25 54.7272C5.25 54.7075 5.25 54.6879 5.25 54.6682C5.25 54.6486 5.25 54.6289 5.25 54.6093C5.25 54.5896 5.25 54.57 5.25 54.5503C5.25 54.5307 5.25 54.511 5.25 54.4914C5.25 54.4717 5.25 54.4521 5.25 54.4324C5.25 54.4128 5.25 54.3931 5.25 54.3735C5.25 54.3538 5.25 54.3341 5.25 54.3145C5.25 54.2948 5.25 54.2752 5.25 54.2555C5.25 54.2359 5.25 54.2162 5.25 54.1966C5.25 54.1769 5.25 54.1573 5.25 54.1376C5.25 54.118 5.25 54.0983 5.25 54.0787C5.25 54.059 5.25 54.0394 5.25 54.0197C5.25 54.0001 5.25 53.9804 5.25 53.9608C5.25 53.9411 5.25 53.9215 5.25 53.9018C5.25 53.8821 5.25 53.8625 5.25 53.8428C5.25 53.8232 5.25 53.8035 5.25 53.7839C5.25 53.7642 5.25 53.7446 5.25 53.7249C5.25 53.7053 5.25 53.6856 5.25 53.666C5.25 53.6463 5.25 53.6267 5.25 53.607C5.25 53.5874 5.25 53.5677 5.25 53.5481C5.25 53.5284 5.25 53.5088 5.25 53.4891C5.25 53.4695 5.25 53.4498 5.25 53.4302C5.25 53.4105 5.25 53.3909 5.25 53.3712C5.25 53.3515 5.25 53.3319 5.25 53.3122C5.25 53.2926 5.25 53.2729 5.25 53.2533C5.25 53.2336 5.25 53.214 5.25 53.1943C5.25 53.1747 5.25 53.155 5.25 53.1354C5.25 53.1157 5.25 53.0961 5.25 53.0764C5.25 53.0568 5.25 53.0371 5.25 53.0175C5.25 52.9978 5.25 52.9782 5.25 52.9585C5.25 52.9389 5.25 52.9192 5.25 52.8995C5.25 52.8799 5.25 52.8602 5.25 52.8406C5.25 52.8209 5.25 52.8013 5.25 52.7816C5.25 52.762 5.25 52.7423 5.25 52.7227C5.25 52.703 5.25 52.6834 5.25 52.6637C5.25 52.6441 5.25 52.6244 5.25 52.6048C5.25 52.5851 5.25 52.5655 5.25 52.5458C5.25 52.5262 5.25 52.5065 5.25 52.4869C5.25 52.4672 5.25 52.4476 5.25 52.4279C5.25 52.4082 5.25 52.3886 5.25 52.3689C5.25 52.3493 5.25 52.3296 5.25 52.31C5.25 52.2903 5.25 52.2707 5.25 52.251C5.25 52.2314 5.25 52.2117 5.25 52.1921C5.25 52.1724 5.25 52.1528 5.25 52.1331C5.25 52.1135 5.25 52.0938 5.25 52.0742C5.25 52.0545 5.25 52.0349 5.25 52.0152C5.25 51.9956 5.25 51.9759 5.25 51.9562C5.25 51.9366 5.25 51.9169 5.25 51.8973C5.25 51.8776 5.25 51.858 5.25 51.8383C5.25 51.8187 5.25 51.799 5.25 51.7794C5.25 51.7597 5.25 51.7401 5.25 51.7204C5.25 51.7008 5.25 51.6811 5.25 51.6615C5.25 51.6418 5.25 51.6222 5.25 51.6025C5.25 51.5829 5.25 51.5632 5.25 51.5436C5.25 51.5239 5.25 51.5043 5.25 51.4846C5.25 51.4649 5.25 51.4453 5.25 51.4256C5.25 51.406 5.25 51.3863 5.25 51.3667C5.25 51.347 5.25 51.3274 5.25 51.3077C5.25 51.2881 5.25 51.2684 5.25 51.2488C5.25 51.2291 5.25 51.2095 5.25 51.1898C5.25 51.1702 5.25 51.1505 5.25 51.1309C5.25 51.1112 5.25 51.0916 5.25 51.0719C5.25 51.0523 5.25 51.0326 5.25 51.013C5.25 50.9933 5.25 50.9736 5.25 50.954C5.25 50.9343 5.25 50.9147 5.25 50.895C5.25 50.8754 5.25 50.8557 5.25 50.8361C5.25 50.8164 5.25 50.7968 5.25 50.7771C5.25 50.7575 5.25 50.7378 5.25 50.7182C5.25 50.6985 5.25 50.6789 5.25 50.6592C5.25 50.6396 5.25 50.6199 5.25 50.6003C5.25 50.5806 5.25 50.561 5.25 50.5413C5.25 50.5216 5.25 50.502 5.25 50.4823C5.25 50.4627 5.25 50.443 5.25 50.4234C5.25 50.4037 5.25 50.3841 5.25 50.3644C5.25 50.3448 5.25 50.3251 5.25 50.3055C5.25 50.2858 5.25 50.2662 5.25 50.2465C5.25 50.2269 5.25 50.2072 5.25 50.1876C5.25 50.1679 5.25 50.1483 5.25 50.1286C5.25 50.109 5.25 50.0893 5.25 50.0697C5.25 50.05 5.25 50.0303 5.25 50.0107C5.25 49.991 5.25 49.9714 5.25 49.9517C5.25 49.9321 5.25 49.9124 5.25 49.8928C5.25 49.8731 5.25 49.8535 5.25 49.8338C5.25 49.8142 5.25 49.7945 5.25 49.7749C5.25 49.7552 5.25 49.7356 5.25 49.7159C5.25 49.6963 5.25 49.6766 5.25 49.657C5.25 49.6373 5.25 49.6177 5.25 49.598C5.25 49.5784 5.25 49.5587 5.25 49.539C5.25 49.5194 5.25 49.4997 5.25 49.4801C5.25 49.4604 5.25 49.4408 5.25 49.4211C5.25 49.4015 5.25 49.3818 5.25 49.3622C5.25 49.3425 5.25 49.3229 5.25 49.3032C5.25 49.2836 5.25 49.2639 5.25 49.2443C5.25 49.2246 5.25 49.205 5.25 49.1853C5.25 49.1657 5.25 49.146 5.25 49.1264C5.25 49.1067 5.25 49.0871 5.25 49.0674C5.25 49.0477 5.25 49.0281 5.25 49.0084C5.25 48.9888 5.25 48.9691 5.25 48.9495C5.25 48.9298 5.25 48.9102 5.25 48.8905C5.25 48.8709 5.25 48.8512 5.25 48.8316C5.25 48.8119 5.25 48.7923 5.25 48.7726C5.25 48.753 5.25 48.7333 5.25 48.7137C5.25 48.694 5.25 48.6744 5.25 48.6547C5.25 48.6351 5.25 48.6154 5.25 48.5957C5.25 48.5761 5.25 48.5564 5.25 48.5368C5.25 48.5171 5.25 48.4975 5.25 48.4778C5.25 48.4582 5.25 48.4385 5.25 48.4189C5.25 48.3992 5.25 48.3796 5.25 48.3599C5.25 48.3403 5.25 48.3206 5.25 48.301C5.25 48.2813 5.25 48.2617 5.25 48.242C5.25 48.2224 5.25 48.2027 5.25 48.1831C5.25 48.1634 5.25 48.1438 5.25 48.1241C5.25 48.1044 5.25 48.0848 5.25 48.0651C5.25 48.0455 5.25 48.0258 5.25 48.0062C5.25 47.9865 5.25 47.9669 5.25 47.9472C5.25 47.9276 5.25 47.9079 5.25 47.8883C5.25 47.8686 5.25 47.849 5.25 47.8293C5.25 47.8097 5.25 47.79 5.25 47.7704C5.25 47.7507 5.25 47.7311 5.25 47.7114C5.25 47.6918 5.25 47.6721 5.25 47.6525C5.25 47.6328 5.25 47.6131 5.25 47.5935C5.25 47.5738 5.25 47.5542 5.25 47.5345C5.25 47.5149 5.25 47.4952 5.25 47.4756C5.25 47.4559 5.25 47.4363 5.25 47.4166C5.25 47.397 5.25 47.3773 5.25 47.3577C5.25 47.338 5.25 47.3184 5.25 47.2987C5.25 47.2791 5.25 47.2594 5.25 47.2398C5.25 47.2201 5.25 47.2005 5.25 47.1808C5.25 47.1611 5.25 47.1415 5.25 47.1218C5.25 47.1022 5.25 47.0825 5.25 47.0629C5.25 47.0432 5.25 47.0236 5.25 47.0039C5.25 46.9843 5.25 46.9646 5.25 46.945C5.25 46.9253 5.25 46.9057 5.25 46.886C5.25 46.8664 5.25 46.8467 5.25 46.8271C5.25 46.8074 5.25 46.7878 5.25 46.7681C5.25 46.7485 5.25 46.7288 5.25 46.7092C5.25 46.6895 5.25 46.6698 5.25 46.6502C5.25 46.6305 5.25 46.6109 5.25 46.5912C5.25 46.5716 5.25 46.5519 5.25 46.5323C5.25 46.5126 5.25 46.493 5.25 46.4733C5.25 46.4537 5.25 46.434 5.25 46.4144C5.25 46.3947 5.25 46.3751 5.25 46.3554C5.25 46.3358 5.25 46.3161 5.25 46.2965C5.25 46.2768 5.25 46.2572 5.25 46.2375C5.25 46.2178 5.25 46.1982 5.25 46.1785C5.25 46.1589 5.25 46.1392 5.25 46.1196C5.25 46.0999 5.25 46.0803 5.25 46.0606C5.25 46.041 5.25 46.0213 5.25 46.0017C5.25 45.982 5.25 45.9624 5.25 45.9427C5.25 45.9231 5.25 45.9034 5.25 45.8838C5.25 45.8641 5.25 45.8445 5.25 45.8248C5.25 45.8052 5.25 45.7855 5.25 45.7659C5.25 45.7462 5.25 45.7266 5.25 45.7069C5.25 45.6872 5.25 45.6676 5.25 45.6479C5.25 45.6283 5.25 45.6086 5.25 45.589C5.25 45.5693 5.25 45.5497 5.25 45.53C5.25 45.5104 5.25 45.4907 5.25 45.4711C5.25 45.4514 5.25 45.4318 5.25 45.4121C5.25 45.3925 5.25 45.3728 5.25 45.3532C5.25 45.3335 5.25 45.3139 5.25 45.2942C5.25 45.2746 5.25 45.2549 5.25 45.2352C5.25 45.2156 5.25 45.1959 5.25 45.1763C5.25 45.1566 5.25 45.137 5.25 45.1173C5.25 45.0977 5.25 45.078 5.25 45.0584C5.25 45.0387 5.25 45.0191 5.25 44.9994C5.25 44.9798 5.25 44.9601 5.25 44.9405C5.25 44.9208 5.25 44.9012 5.25 44.8815C5.25 44.8619 5.25 44.8422 5.25 44.8226C5.25 44.8029 5.25 44.7833 5.25 44.7636C5.25 44.7439 5.25 44.7243 5.25 44.7046C5.25 44.685 5.25 44.6653 5.25 44.6457C5.25 44.626 5.25 44.6064 5.25 44.5867C5.25 44.5671 5.25 44.5474 5.25 44.5278C5.25 44.5081 5.25 44.4885 5.25 44.4688C5.25 44.4492 5.25 44.4295 5.25 44.4099C5.25 44.3902 5.25 44.3706 5.25 44.3509C5.25 44.3313 5.25 44.3116 5.25 44.292C5.25 44.2723 5.25 44.2526 5.25 44.233C5.25 44.2133 5.25 44.1937 5.25 44.174C5.25 44.1544 5.25 44.1347 5.25 44.1151C5.25 44.0954 5.25 44.0758 5.25 44.0561C5.25 44.0365 5.25 44.0168 5.25 43.9972C5.25 43.9775 5.25 43.9579 5.25 43.9382C5.25 43.9186 5.25 43.8989 5.25 43.8793C5.25 43.8596 5.25 43.84 5.25 43.8203C5.25 43.8006 5.25 43.781 5.25 43.7613C5.25 43.7417 5.25 43.722 5.25 43.7024C5.25 43.6827 5.25 43.6631 5.25 43.6434C5.25 43.6238 5.25 43.6041 5.25 43.5845C5.25 43.5648 5.25 43.5452 5.25 43.5255C5.25 43.5059 5.25 43.4862 5.25 43.4666C5.25 43.4469 5.25 43.4273 5.25 43.4076C5.25 43.388 5.25 43.3683 5.25 43.3487C5.25 43.329 5.25 43.3093 5.25 43.2897C5.25 43.27 5.25 43.2504 5.25 43.2307C5.25 43.2111 5.25 43.1914 5.25 43.1718C5.25 43.1521 5.25 43.1325 5.25 43.1128C5.25 43.0932 5.25 43.0735 5.25 43.0539C5.25 43.0342 5.25 43.0146 5.25 42.9949C5.25 42.9753 5.25 42.9556 5.25 42.936C5.25 42.9163 5.25 42.8967 5.25 42.877C5.25 42.8573 5.25 42.8377 5.25 42.818C5.25 42.7984 5.25 42.7787 5.25 42.7591C5.25 42.7394 5.25 42.7198 5.25 42.7001C5.25 42.6805 5.25 42.6608 5.25 42.6412C5.25 42.6215 5.25 42.6019 5.25 42.5822C5.25 42.5626 5.25 42.5429 5.25 42.5233C5.25 42.5036 5.25 42.484 5.25 42.4643C5.25 42.4447 5.25 42.425 5.25 42.4054C5.25 42.3857 5.25 42.3661 5.25 42.3464C5.25 42.3267 5.25 42.3071 5.25 42.2874C5.25 42.2678 5.25 42.2481 5.25 42.2285C5.25 42.2088 5.25 42.1892 5.25 42.1695C5.25 42.1499 5.25 42.1302 5.25 42.1106C5.25 42.0909 5.25 42.0713 5.25 42.0516C5.25 42.032 5.25 42.0123 5.25 41.9927C5.25 41.973 5.25 41.9534 5.25 41.9337C5.25 41.9141 5.25 41.8944 5.25 41.8747C5.25 41.8551 5.25 41.8354 5.25 41.8158C5.25 41.7961 5.25 41.7765 5.25 41.7568C5.25 41.7372 5.25 41.7175 5.25 41.6979C5.25 41.6782 5.25 41.6586 5.25 41.6389C5.25 41.6193 5.25 41.5996 5.25 41.58C5.25 41.5603 5.25 41.5407 5.25 41.521C5.25 41.5014 5.25 41.4817 5.25 41.4621C5.25 41.4424 5.25 41.4228 5.25 41.4031C5.25 41.3834 5.25 41.3638 5.25 41.3441C5.25 41.3245 5.25 41.3048 5.25 41.2852C5.25 41.2655 5.25 41.2459 5.25 41.2262C5.25 41.2066 5.25 41.1869 5.25 41.1673C5.25 41.1476 5.25 41.128 5.25 41.1083C5.25 41.0887 5.25 41.069 5.25 41.0494C5.25 41.0297 5.25 41.0101 5.25 40.9904C5.25 40.9708 5.25 40.9511 5.25 40.9314C5.25 40.9118 5.25 40.8921 5.25 40.8725C5.25 40.8528 5.25 40.8332 5.25 40.8135C5.25 40.7939 5.25 40.7742 5.25 40.7546C5.25 40.7349 5.25 40.7153 5.25 40.6956C5.25 40.676 5.25 40.6563 5.25 40.6367C5.25 40.617 5.25 40.5974 5.25 40.5777C5.25 40.5581 5.25 40.5384 5.25 40.5188C5.25 40.4991 5.25 40.4795 5.25 40.4598C5.25 40.4401 5.25 40.4205 5.25 40.4008C5.25 40.3812 5.25 40.3615 5.25 40.3419C5.25 40.3222 5.25 40.3026 5.25 40.2829C5.25 40.2633 5.25 40.2436 5.25 40.224C5.25 40.2043 5.25 40.1847 5.25 40.165C5.25 40.1454 5.25 40.1257 5.25 40.1061C5.25 40.0864 5.25 40.0668 5.25 40.0471C5.25 40.0275 5.25 40.0078 5.25 39.9882C5.25 39.9685 5.25 39.9488 5.25 39.9292C5.25 39.9095 5.25 39.8899 5.25 39.8702C5.25 39.8506 5.25 39.8309 5.25 39.8113C5.25 39.7916 5.25 39.772 5.25 39.7523C5.25 39.7327 5.25 39.713 5.25 39.6934C5.25 39.6737 5.25 39.6541 5.25 39.6344C5.25 39.6148 5.25 39.5951 5.25 39.5755C5.25 39.5558 5.25 39.5362 5.25 39.5165C5.25 39.4968 5.25 39.4772 5.25 39.4575C5.25 39.4379 5.25 39.4182 5.25 39.3986C5.25 39.3789 5.25 39.3593 5.25 39.3396C5.25 39.32 5.25 39.3003 5.25 39.2807C5.25 39.261 5.25 39.2414 5.25 39.2217C5.25 39.2021 5.25 39.1824 5.25 39.1628C5.25 39.1431 5.25 39.1235 5.25 39.1038C5.25 39.0842 5.25 39.0645 5.25 39.0449C5.25 39.0252 5.25 39.0056 5.25 38.9859C5.25 38.9662 5.25 38.9466 5.25 38.9269C5.25 38.9073 5.25 38.8876 5.25 38.868C5.25 38.8483 5.25 38.8287 5.25 38.809C5.25 38.7894 5.25 38.7697 5.25 38.7501C5.25 38.7304 5.25 38.7108 5.25 38.6911C5.25 38.6715 5.25 38.6518 5.25 38.6322C5.25 38.6125 5.25 38.5929 5.25 38.5732C5.25 38.5536 5.25 38.5339 5.25 38.5142C5.25 38.4946 5.25 38.4749 5.25 38.4553C5.25 38.4356 5.25 38.416 5.25 38.3963C5.25 38.3767 5.25 38.357 5.25 38.3374C5.25 38.3177 5.25 38.2981 5.25 38.2784C5.25 38.2588 5.25 38.2391 5.25 38.2195C5.25 38.1998 5.25 38.1802 5.25 38.1605C5.25 38.1409 5.25 38.1212 5.25 38.1016C5.25 38.0819 5.25 38.0623 5.25 38.0426C5.25 38.0229 5.25 38.0033 5.25 37.9836C5.25 37.964 5.25 37.9443 5.25 37.9247C5.25 37.905 5.25 37.8854 5.25 37.8657C5.25 37.8461 5.25 37.8264 5.25 37.8068C5.25 37.7871 5.25 37.7675 5.25 37.7478C5.25 37.7282 5.25 37.7085 5.25 37.6889C5.25 37.6692 5.25 37.6496 5.25 37.6299C5.25 37.6103 5.25 37.5906 5.25 37.5709C5.25 37.5513 5.25 37.5316 5.25 37.512C5.25 37.4923 5.25 37.4727 5.25 37.453C5.25 37.4334 5.25 37.4137 5.25 37.3941C5.25 37.3744 5.25 37.3548 5.25 37.3351C5.25 37.3155 5.25 37.2958 5.25 37.2762C5.25 37.2565 5.25 37.2369 5.25 37.2172C5.25 37.1976 5.25 37.1779 5.25 37.1583C5.25 37.1386 5.25 37.119 5.25 37.0993C5.25 37.0796 5.25 37.06 5.25 37.0403C5.25 37.0207 5.25 37.001 5.25 36.9814C5.25 36.9617 5.25 36.9421 5.25 36.9224C5.25 36.9028 5.25 36.8831 5.25 36.8635C5.25 36.8438 5.25 36.8242 5.25 36.8045C5.25 36.7849 5.25 36.7652 5.25 36.7456C5.25 36.7259 5.25 36.7063 5.25 36.6866C5.25 36.667 5.25 36.6473 5.25 36.6277C5.25 36.608 5.25 36.5883 5.25 36.5687C5.25 36.549 5.25 36.5294 5.25 36.5097C5.25 36.4901 5.25 36.4704 5.25 36.4508C5.25 36.4311 5.25 36.4115 5.25 36.3918C5.25 36.3722 5.25 36.3525 5.25 36.3329C5.25 36.3132 5.25 36.2936 5.25 36.2739C5.25 36.2543 5.25 36.2346 5.25 36.215C5.25 36.1953 5.25 36.1757 5.25 36.156C5.25 36.1364 5.25 36.1167 5.25 36.097C5.25 36.0774 5.25 36.0577 5.25 36.0381C5.25 36.0184 5.25 35.9988 5.25 35.9791C5.25 35.9595 5.25 35.9398 5.25 35.9202C5.25 35.9005 5.25 35.8809 5.25 35.8612C5.25 35.8416 5.25 35.8219 5.25 35.8023C5.25 35.7826 5.25 35.763 5.25 35.7433C5.25 35.7237 5.25 35.704 5.25 35.6844C5.25 35.6647 5.25 35.645 5.25 35.6254C5.25 35.6057 5.25 35.5861 5.25 35.5664C5.25 35.5468 5.25 35.5271 5.25 35.5075C5.25 35.4878 5.25 35.4682 5.25 35.4485C5.25 35.4289 5.25 35.4092 5.25 35.3896C5.25 35.3699 5.25 35.3503 5.25 35.3306C5.25 35.311 5.25 35.2913 5.25 35.2717C5.25 35.252 5.25 35.2324 5.25 35.2127C5.25 35.1931 5.25 35.1734 5.25 35.1537C5.25 35.1341 5.25 35.1144 5.25 35.0948C5.25 35.0751 5.25 35.0555 5.25 35.0358C5.25 35.0162 5.25 34.9965 5.25 34.9769C5.25 34.9572 5.25 34.9376 5.25 34.9179C5.25 34.8983 5.25 34.8786 5.25 34.859C5.25 34.8393 5.25 34.8197 5.25 34.8C5.25 34.7804 5.25 34.7607 5.25 34.7411C5.25 34.7214 5.25 34.7017 5.25 34.6821C5.25 34.6624 5.25 34.6428 5.25 34.6231C5.25 34.6035 5.25 34.5838 5.25 34.5642C5.25 34.5445 5.25 34.5249 5.25 34.5052C5.25 34.4856 5.25 34.4659 5.25 34.4463C5.25 34.4266 5.25 34.407 5.25 34.3873C5.25 34.3677 5.25 34.348 5.25 34.3284C5.25 34.3087 5.25 34.2891 5.25 34.2694C5.25 34.2498 5.25 34.2301 5.25 34.2104C5.25 34.1908 5.25 34.1711 5.25 34.1515C5.25 34.1318 5.25 34.1122 5.25 34.0925C5.25 34.0729 5.25 34.0532 5.25 34.0336C5.25 34.0139 5.25 33.9943 5.25 33.9746C5.25 33.955 5.25 33.9353 5.25 33.9157C5.25 33.896 5.25 33.8764 5.25 33.8567C5.25 33.8371 5.25 33.8174 5.25 33.7978C5.25 33.7781 5.25 33.7585 5.25 33.7388C5.25 33.7191 5.25 33.6995 5.25 33.6798C5.25 33.6602 5.25 33.6405 5.25 33.6209C5.25 33.6012 5.25 33.5816 5.25 33.5619C5.25 33.5423 5.25 33.5226 5.25 33.503C5.25 33.4833 5.25 33.4637 5.25 33.444C5.25 33.4244 5.25 33.4047 5.25 33.3851C5.25 33.3654 5.25 33.3458 5.25 33.3261C5.25 33.3065 5.25 33.2868 5.25 33.2672C5.25 33.2475 5.25 33.2278 5.25 33.2082C5.25 33.1885 5.25 33.1689 5.25 33.1492C5.25 33.1296 5.25 33.1099 5.25 33.0903C5.25 33.0706 5.25 33.051 5.25 33.0313C5.25 33.0117 5.25 32.992 5.25 32.9724C5.25 32.9527 5.25 32.9331 5.25 32.9134C5.25 32.8938 5.25 32.8741 5.25 32.8545C5.25 32.8348 5.25 32.8152 5.25 32.7955C5.25 32.7759 5.25 32.7562 5.25 32.7365C5.25 32.7169 5.25 32.6972 5.25 32.6776C5.25 32.6579 5.25 32.6383 5.25 32.6186C5.25 32.599 5.25 32.5793 5.25 32.5597C5.25 32.54 5.25 32.5204 5.25 32.5007C5.25 32.4811 5.25 32.4614 5.25 32.4418C5.25 32.4221 5.25 32.4025 5.25 32.3828C5.25 32.3632 5.25 32.3435 5.25 32.3239C5.25 32.3042 5.25 32.2845 5.25 32.2649C5.25 32.2452 5.25 32.2256 5.25 32.2059C5.25 32.1863 5.25 32.1666 5.25 32.147C5.25 32.1273 5.25 32.1077 5.25 32.088C5.25 32.0684 5.25 32.0487 5.25 32.0291C5.25 32.0094 5.25 31.9898 5.25 31.9701C5.25 31.9505 5.25 31.9308 5.25 31.9112C5.25 31.8915 5.25 31.8719 5.25 31.8522C5.25 31.8326 5.25 31.8129 5.25 31.7932C5.25 31.7736 5.25 31.7539 5.25 31.7343C5.25 31.7146 5.25 31.695 5.25 31.6753C5.25 31.6557 5.25 31.636 5.25 31.6164C5.25 31.5967 5.25 31.5771 5.25 31.5574C5.25 31.5378 5.25 31.5181 5.25 31.4985C5.25 31.4788 5.25 31.4592 5.25 31.4395C5.25 31.4199 5.25 31.4002 5.25 31.3806C5.25 31.3609 5.25 31.3412 5.25 31.3216C5.25 31.3019 5.25 31.2823 5.25 31.2626C5.25 31.243 5.25 31.2233 5.25 31.2037C5.25 31.184 5.25 31.1644 5.25 31.1447C5.25 31.1251 5.25 31.1054 5.25 31.0858C5.25 31.0661 5.25 31.0465 5.25 31.0268C5.25 31.0072 5.25 30.9875 5.25 30.9679C5.25 30.9482 5.25 30.9286 5.25 30.9089C5.25 30.8893 5.25 30.8696 5.25 30.8499C5.25 30.8303 5.25 30.8106 5.25 30.791C5.25 30.7713 5.25 30.7517 5.25 30.732C5.25 30.7124 5.25 30.6927 5.25 30.6731C5.25 30.6534 5.25 30.6338 5.25 30.6141C5.25 30.5945 5.25 30.5748 5.25 30.5552C5.25 30.5355 5.25 30.5159 5.25 30.4962C5.25 30.4766 5.25 30.4569 5.25 30.4373C5.25 30.4176 5.25 30.398 5.25 30.3783C5.25 30.3586 5.25 30.339 5.25 30.3193C5.25 30.2997 5.25 30.28 5.25 30.2604C5.25 30.2407 5.25 30.2211 5.25 30.2014C5.25 30.1818 5.25 30.1621 5.25 30.1425C5.25 30.1228 5.25 30.1032 5.25 30.0835C5.25 30.0639 5.25 30.0442 5.25 30.0246C5.25 30.0049 5.25 29.9853 5.25 29.9656C5.25 29.946 5.25 29.9263 5.25 29.9067C5.25 29.887 5.25 29.8673 5.25 29.8477C5.25 29.828 5.25 29.8084 5.25 29.7887C5.25 29.7691 5.25 29.7494 5.25 29.7298C5.25 29.7101 5.25 29.6905 5.25 29.6708C5.25 29.6512 5.25 29.6315 5.25 29.6119C5.25 29.5922 5.25 29.5726 5.25 29.5529C5.25 29.5333 5.25 29.5136 5.25 29.494C5.25 29.4743 5.25 29.4547 5.25 29.435C5.25 29.4153 5.25 29.3957 5.25 29.376C5.25 29.3564 5.25 29.3367 5.25 29.3171C5.25 29.2974 5.25 29.2778 5.25 29.2581C5.25 29.2385 5.25 29.2188 5.25 29.1992C5.25 29.1795 5.25 29.1599 5.25 29.1402C5.25 29.1206 5.25 29.1009 5.25 29.0813C5.25 29.0616 5.25 29.042 5.25 29.0223C5.25 29.0027 5.25 28.983 5.25 28.9634C5.25 28.9437 5.25 28.924 5.25 28.9044C5.25 28.8847 5.25 28.8651 5.25 28.8454C5.25 28.8258 5.25 28.8061 5.25 28.7865C5.25 28.7668 5.25 28.7472 5.25 28.7275C5.25 28.7079 5.25 28.6882 5.25 28.6686C5.25 28.6489 5.25 28.6293 5.25 28.6096C5.25 28.59 5.25 28.5703 5.25 28.5507C5.25 28.531 5.25 28.5114 5.25 28.4917C5.25 28.4721 5.25 28.4524 5.25 28.4327C5.25 28.4131 5.25 28.3934 5.25 28.3738C5.25 28.3541 5.25 28.3345 5.25 28.3148C5.25 28.2952 5.25 28.2755 5.25 28.2559C5.25 28.2362 5.25 28.2166 5.25 28.1969C5.25 28.1773 5.25 28.1576 5.25 28.138C5.25 28.1183 5.25 28.0987 5.25 28.079C5.25 28.0594 5.25 28.0397 5.25 28.0201C5.25 28.0004 5.25 27.9807 5.25 27.9611C5.25 27.9414 5.25 27.9218 5.25 27.9021C5.25 27.8825 5.25 27.8628 5.25 27.8432C5.25 27.8235 5.25 27.8039 5.25 27.7842C5.25 27.7646 5.25 27.7449 5.25 27.7253C5.25 27.7056 5.25 27.686 5.25 27.6663C5.25 27.6467 5.25 27.627 5.25 27.6074C5.25 27.5877 5.25 27.5681 5.25 27.5484C5.25 27.5288 5.25 27.5091 5.25 27.4894C5.25 27.4698 5.25 27.4501 5.25 27.4305C5.25 27.4108 5.25 27.3912 5.25 27.3715C5.25 27.3519 5.25 27.3322 5.25 27.3126C5.25 27.2929 5.25 27.2733 5.25 27.2536C5.25 27.234 5.25 27.2143 5.25 27.1947C5.25 27.175 5.25 27.1554 5.25 27.1357C5.25 27.1161 5.25 27.0964 5.25 27.0768C5.25 27.0571 5.25 27.0375 5.25 27.0178C5.25 26.9981 5.25 26.9785 5.25 26.9588C5.25 26.9392 5.25 26.9195 5.25 26.8999C5.25 26.8802 5.25 26.8606 5.25 26.8409C5.25 26.8213 5.25 26.8016 5.25 26.782C5.25 26.7623 5.25 26.7427 5.25 26.723C5.25 26.7034 5.25 26.6837 5.25 26.6641H4.75C4.75 26.6837 4.75 26.7034 4.75 26.723C4.75 26.7427 4.75 26.7623 4.75 26.782C4.75 26.8016 4.75 26.8213 4.75 26.8409C4.75 26.8606 4.75 26.8802 4.75 26.8999C4.75 26.9195 4.75 26.9392 4.75 26.9588C4.75 26.9785 4.75 26.9981 4.75 27.0178C4.75 27.0375 4.75 27.0571 4.75 27.0768C4.75 27.0964 4.75 27.1161 4.75 27.1357C4.75 27.1554 4.75 27.175 4.75 27.1947C4.75 27.2143 4.75 27.234 4.75 27.2536C4.75 27.2733 4.75 27.2929 4.75 27.3126C4.75 27.3322 4.75 27.3519 4.75 27.3715C4.75 27.3912 4.75 27.4108 4.75 27.4305C4.75 27.4501 4.75 27.4698 4.75 27.4894C4.75 27.5091 4.75 27.5288 4.75 27.5484C4.75 27.5681 4.75 27.5877 4.75 27.6074C4.75 27.627 4.75 27.6467 4.75 27.6663C4.75 27.686 4.75 27.7056 4.75 27.7253C4.75 27.7449 4.75 27.7646 4.75 27.7842C4.75 27.8039 4.75 27.8235 4.75 27.8432C4.75 27.8628 4.75 27.8825 4.75 27.9021C4.75 27.9218 4.75 27.9414 4.75 27.9611C4.75 27.9807 4.75 28.0004 4.75 28.0201C4.75 28.0397 4.75 28.0594 4.75 28.079C4.75 28.0987 4.75 28.1183 4.75 28.138C4.75 28.1576 4.75 28.1773 4.75 28.1969C4.75 28.2166 4.75 28.2362 4.75 28.2559C4.75 28.2755 4.75 28.2952 4.75 28.3148C4.75 28.3345 4.75 28.3541 4.75 28.3738C4.75 28.3934 4.75 28.4131 4.75 28.4327C4.75 28.4524 4.75 28.4721 4.75 28.4917C4.75 28.5114 4.75 28.531 4.75 28.5507C4.75 28.5703 4.75 28.59 4.75 28.6096C4.75 28.6293 4.75 28.6489 4.75 28.6686C4.75 28.6882 4.75 28.7079 4.75 28.7275C4.75 28.7472 4.75 28.7668 4.75 28.7865C4.75 28.8061 4.75 28.8258 4.75 28.8454C4.75 28.8651 4.75 28.8847 4.75 28.9044C4.75 28.924 4.75 28.9437 4.75 28.9634C4.75 28.983 4.75 29.0027 4.75 29.0223C4.75 29.042 4.75 29.0616 4.75 29.0813C4.75 29.1009 4.75 29.1206 4.75 29.1402C4.75 29.1599 4.75 29.1795 4.75 29.1992C4.75 29.2188 4.75 29.2385 4.75 29.2581C4.75 29.2778 4.75 29.2974 4.75 29.3171C4.75 29.3367 4.75 29.3564 4.75 29.376C4.75 29.3957 4.75 29.4153 4.75 29.435C4.75 29.4547 4.75 29.4743 4.75 29.494C4.75 29.5136 4.75 29.5333 4.75 29.5529C4.75 29.5726 4.75 29.5922 4.75 29.6119C4.75 29.6315 4.75 29.6512 4.75 29.6708C4.75 29.6905 4.75 29.7101 4.75 29.7298C4.75 29.7494 4.75 29.7691 4.75 29.7887C4.75 29.8084 4.75 29.828 4.75 29.8477C4.75 29.8673 4.75 29.887 4.75 29.9067C4.75 29.9263 4.75 29.946 4.75 29.9656C4.75 29.9853 4.75 30.0049 4.75 30.0246C4.75 30.0442 4.75 30.0639 4.75 30.0835C4.75 30.1032 4.75 30.1228 4.75 30.1425C4.75 30.1621 4.75 30.1818 4.75 30.2014C4.75 30.2211 4.75 30.2407 4.75 30.2604C4.75 30.28 4.75 30.2997 4.75 30.3193C4.75 30.339 4.75 30.3586 4.75 30.3783C4.75 30.398 4.75 30.4176 4.75 30.4373C4.75 30.4569 4.75 30.4766 4.75 30.4962C4.75 30.5159 4.75 30.5355 4.75 30.5552C4.75 30.5748 4.75 30.5945 4.75 30.6141C4.75 30.6338 4.75 30.6534 4.75 30.6731C4.75 30.6927 4.75 30.7124 4.75 30.732C4.75 30.7517 4.75 30.7713 4.75 30.791C4.75 30.8106 4.75 30.8303 4.75 30.8499C4.75 30.8696 4.75 30.8893 4.75 30.9089C4.75 30.9286 4.75 30.9482 4.75 30.9679C4.75 30.9875 4.75 31.0072 4.75 31.0268C4.75 31.0465 4.75 31.0661 4.75 31.0858C4.75 31.1054 4.75 31.1251 4.75 31.1447C4.75 31.1644 4.75 31.184 4.75 31.2037C4.75 31.2233 4.75 31.243 4.75 31.2626C4.75 31.2823 4.75 31.3019 4.75 31.3216C4.75 31.3412 4.75 31.3609 4.75 31.3806C4.75 31.4002 4.75 31.4199 4.75 31.4395C4.75 31.4592 4.75 31.4788 4.75 31.4985C4.75 31.5181 4.75 31.5378 4.75 31.5574C4.75 31.5771 4.75 31.5967 4.75 31.6164C4.75 31.636 4.75 31.6557 4.75 31.6753C4.75 31.695 4.75 31.7146 4.75 31.7343C4.75 31.7539 4.75 31.7736 4.75 31.7932C4.75 31.8129 4.75 31.8326 4.75 31.8522C4.75 31.8719 4.75 31.8915 4.75 31.9112C4.75 31.9308 4.75 31.9505 4.75 31.9701C4.75 31.9898 4.75 32.0094 4.75 32.0291C4.75 32.0487 4.75 32.0684 4.75 32.088C4.75 32.1077 4.75 32.1273 4.75 32.147C4.75 32.1666 4.75 32.1863 4.75 32.2059C4.75 32.2256 4.75 32.2452 4.75 32.2649C4.75 32.2845 4.75 32.3042 4.75 32.3239C4.75 32.3435 4.75 32.3632 4.75 32.3828C4.75 32.4025 4.75 32.4221 4.75 32.4418C4.75 32.4614 4.75 32.4811 4.75 32.5007C4.75 32.5204 4.75 32.54 4.75 32.5597C4.75 32.5793 4.75 32.599 4.75 32.6186C4.75 32.6383 4.75 32.6579 4.75 32.6776C4.75 32.6972 4.75 32.7169 4.75 32.7365C4.75 32.7562 4.75 32.7759 4.75 32.7955C4.75 32.8152 4.75 32.8348 4.75 32.8545C4.75 32.8741 4.75 32.8938 4.75 32.9134C4.75 32.9331 4.75 32.9527 4.75 32.9724C4.75 32.992 4.75 33.0117 4.75 33.0313C4.75 33.051 4.75 33.0706 4.75 33.0903C4.75 33.1099 4.75 33.1296 4.75 33.1492C4.75 33.1689 4.75 33.1885 4.75 33.2082C4.75 33.2278 4.75 33.2475 4.75 33.2672C4.75 33.2868 4.75 33.3065 4.75 33.3261C4.75 33.3458 4.75 33.3654 4.75 33.3851C4.75 33.4047 4.75 33.4244 4.75 33.444C4.75 33.4637 4.75 33.4833 4.75 33.503C4.75 33.5226 4.75 33.5423 4.75 33.5619C4.75 33.5816 4.75 33.6012 4.75 33.6209C4.75 33.6405 4.75 33.6602 4.75 33.6798C4.75 33.6995 4.75 33.7191 4.75 33.7388C4.75 33.7585 4.75 33.7781 4.75 33.7978C4.75 33.8174 4.75 33.8371 4.75 33.8567C4.75 33.8764 4.75 33.896 4.75 33.9157C4.75 33.9353 4.75 33.955 4.75 33.9746C4.75 33.9943 4.75 34.0139 4.75 34.0336C4.75 34.0532 4.75 34.0729 4.75 34.0925C4.75 34.1122 4.75 34.1318 4.75 34.1515C4.75 34.1711 4.75 34.1908 4.75 34.2104C4.75 34.2301 4.75 34.2498 4.75 34.2694C4.75 34.2891 4.75 34.3087 4.75 34.3284C4.75 34.348 4.75 34.3677 4.75 34.3873C4.75 34.407 4.75 34.4266 4.75 34.4463C4.75 34.4659 4.75 34.4856 4.75 34.5052C4.75 34.5249 4.75 34.5445 4.75 34.5642C4.75 34.5838 4.75 34.6035 4.75 34.6231C4.75 34.6428 4.75 34.6624 4.75 34.6821C4.75 34.7017 4.75 34.7214 4.75 34.7411C4.75 34.7607 4.75 34.7804 4.75 34.8C4.75 34.8197 4.75 34.8393 4.75 34.859C4.75 34.8786 4.75 34.8983 4.75 34.9179C4.75 34.9376 4.75 34.9572 4.75 34.9769C4.75 34.9965 4.75 35.0162 4.75 35.0358C4.75 35.0555 4.75 35.0751 4.75 35.0948C4.75 35.1144 4.75 35.1341 4.75 35.1537C4.75 35.1734 4.75 35.1931 4.75 35.2127C4.75 35.2324 4.75 35.252 4.75 35.2717C4.75 35.2913 4.75 35.311 4.75 35.3306C4.75 35.3503 4.75 35.3699 4.75 35.3896C4.75 35.4092 4.75 35.4289 4.75 35.4485C4.75 35.4682 4.75 35.4878 4.75 35.5075C4.75 35.5271 4.75 35.5468 4.75 35.5664C4.75 35.5861 4.75 35.6057 4.75 35.6254C4.75 35.645 4.75 35.6647 4.75 35.6844C4.75 35.704 4.75 35.7237 4.75 35.7433C4.75 35.763 4.75 35.7826 4.75 35.8023C4.75 35.8219 4.75 35.8416 4.75 35.8612C4.75 35.8809 4.75 35.9005 4.75 35.9202C4.75 35.9398 4.75 35.9595 4.75 35.9791C4.75 35.9988 4.75 36.0184 4.75 36.0381C4.75 36.0577 4.75 36.0774 4.75 36.097C4.75 36.1167 4.75 36.1364 4.75 36.156C4.75 36.1757 4.75 36.1953 4.75 36.215C4.75 36.2346 4.75 36.2543 4.75 36.2739C4.75 36.2936 4.75 36.3132 4.75 36.3329C4.75 36.3525 4.75 36.3722 4.75 36.3918C4.75 36.4115 4.75 36.4311 4.75 36.4508C4.75 36.4704 4.75 36.4901 4.75 36.5097C4.75 36.5294 4.75 36.549 4.75 36.5687C4.75 36.5883 4.75 36.608 4.75 36.6277C4.75 36.6473 4.75 36.667 4.75 36.6866C4.75 36.7063 4.75 36.7259 4.75 36.7456C4.75 36.7652 4.75 36.7849 4.75 36.8045C4.75 36.8242 4.75 36.8438 4.75 36.8635C4.75 36.8831 4.75 36.9028 4.75 36.9224C4.75 36.9421 4.75 36.9617 4.75 36.9814C4.75 37.001 4.75 37.0207 4.75 37.0403C4.75 37.06 4.75 37.0796 4.75 37.0993C4.75 37.119 4.75 37.1386 4.75 37.1583C4.75 37.1779 4.75 37.1976 4.75 37.2172C4.75 37.2369 4.75 37.2565 4.75 37.2762C4.75 37.2958 4.75 37.3155 4.75 37.3351C4.75 37.3548 4.75 37.3744 4.75 37.3941C4.75 37.4137 4.75 37.4334 4.75 37.453C4.75 37.4727 4.75 37.4923 4.75 37.512C4.75 37.5316 4.75 37.5513 4.75 37.5709C4.75 37.5906 4.75 37.6103 4.75 37.6299C4.75 37.6496 4.75 37.6692 4.75 37.6889C4.75 37.7085 4.75 37.7282 4.75 37.7478C4.75 37.7675 4.75 37.7871 4.75 37.8068C4.75 37.8264 4.75 37.8461 4.75 37.8657C4.75 37.8854 4.75 37.905 4.75 37.9247C4.75 37.9443 4.75 37.964 4.75 37.9836C4.75 38.0033 4.75 38.0229 4.75 38.0426C4.75 38.0623 4.75 38.0819 4.75 38.1016C4.75 38.1212 4.75 38.1409 4.75 38.1605C4.75 38.1802 4.75 38.1998 4.75 38.2195C4.75 38.2391 4.75 38.2588 4.75 38.2784C4.75 38.2981 4.75 38.3177 4.75 38.3374C4.75 38.357 4.75 38.3767 4.75 38.3963C4.75 38.416 4.75 38.4356 4.75 38.4553C4.75 38.4749 4.75 38.4946 4.75 38.5142C4.75 38.5339 4.75 38.5536 4.75 38.5732C4.75 38.5929 4.75 38.6125 4.75 38.6322C4.75 38.6518 4.75 38.6715 4.75 38.6911C4.75 38.7108 4.75 38.7304 4.75 38.7501C4.75 38.7697 4.75 38.7894 4.75 38.809C4.75 38.8287 4.75 38.8483 4.75 38.868C4.75 38.8876 4.75 38.9073 4.75 38.9269C4.75 38.9466 4.75 38.9662 4.75 38.9859C4.75 39.0056 4.75 39.0252 4.75 39.0449C4.75 39.0645 4.75 39.0842 4.75 39.1038C4.75 39.1235 4.75 39.1431 4.75 39.1628C4.75 39.1824 4.75 39.2021 4.75 39.2217C4.75 39.2414 4.75 39.261 4.75 39.2807C4.75 39.3003 4.75 39.32 4.75 39.3396C4.75 39.3593 4.75 39.3789 4.75 39.3986C4.75 39.4182 4.75 39.4379 4.75 39.4575C4.75 39.4772 4.75 39.4968 4.75 39.5165C4.75 39.5362 4.75 39.5558 4.75 39.5755C4.75 39.5951 4.75 39.6148 4.75 39.6344C4.75 39.6541 4.75 39.6737 4.75 39.6934C4.75 39.713 4.75 39.7327 4.75 39.7523C4.75 39.772 4.75 39.7916 4.75 39.8113C4.75 39.8309 4.75 39.8506 4.75 39.8702C4.75 39.8899 4.75 39.9095 4.75 39.9292C4.75 39.9488 4.75 39.9685 4.75 39.9882C4.75 40.0078 4.75 40.0275 4.75 40.0471C4.75 40.0668 4.75 40.0864 4.75 40.1061C4.75 40.1257 4.75 40.1454 4.75 40.165C4.75 40.1847 4.75 40.2043 4.75 40.224C4.75 40.2436 4.75 40.2633 4.75 40.2829C4.75 40.3026 4.75 40.3222 4.75 40.3419C4.75 40.3615 4.75 40.3812 4.75 40.4008C4.75 40.4205 4.75 40.4401 4.75 40.4598C4.75 40.4795 4.75 40.4991 4.75 40.5188C4.75 40.5384 4.75 40.5581 4.75 40.5777C4.75 40.5974 4.75 40.617 4.75 40.6367C4.75 40.6563 4.75 40.676 4.75 40.6956C4.75 40.7153 4.75 40.7349 4.75 40.7546C4.75 40.7742 4.75 40.7939 4.75 40.8135C4.75 40.8332 4.75 40.8528 4.75 40.8725C4.75 40.8921 4.75 40.9118 4.75 40.9314C4.75 40.9511 4.75 40.9708 4.75 40.9904C4.75 41.0101 4.75 41.0297 4.75 41.0494C4.75 41.069 4.75 41.0887 4.75 41.1083C4.75 41.128 4.75 41.1476 4.75 41.1673C4.75 41.1869 4.75 41.2066 4.75 41.2262C4.75 41.2459 4.75 41.2655 4.75 41.2852C4.75 41.3048 4.75 41.3245 4.75 41.3441C4.75 41.3638 4.75 41.3834 4.75 41.4031C4.75 41.4228 4.75 41.4424 4.75 41.4621C4.75 41.4817 4.75 41.5014 4.75 41.521C4.75 41.5407 4.75 41.5603 4.75 41.58C4.75 41.5996 4.75 41.6193 4.75 41.6389C4.75 41.6586 4.75 41.6782 4.75 41.6979C4.75 41.7175 4.75 41.7372 4.75 41.7568C4.75 41.7765 4.75 41.7961 4.75 41.8158C4.75 41.8354 4.75 41.8551 4.75 41.8747C4.75 41.8944 4.75 41.9141 4.75 41.9337C4.75 41.9534 4.75 41.973 4.75 41.9927C4.75 42.0123 4.75 42.032 4.75 42.0516C4.75 42.0713 4.75 42.0909 4.75 42.1106C4.75 42.1302 4.75 42.1499 4.75 42.1695C4.75 42.1892 4.75 42.2088 4.75 42.2285C4.75 42.2481 4.75 42.2678 4.75 42.2874C4.75 42.3071 4.75 42.3267 4.75 42.3464C4.75 42.3661 4.75 42.3857 4.75 42.4054C4.75 42.425 4.75 42.4447 4.75 42.4643C4.75 42.484 4.75 42.5036 4.75 42.5233C4.75 42.5429 4.75 42.5626 4.75 42.5822C4.75 42.6019 4.75 42.6215 4.75 42.6412C4.75 42.6608 4.75 42.6805 4.75 42.7001C4.75 42.7198 4.75 42.7394 4.75 42.7591C4.75 42.7787 4.75 42.7984 4.75 42.818C4.75 42.8377 4.75 42.8573 4.75 42.877C4.75 42.8967 4.75 42.9163 4.75 42.936C4.75 42.9556 4.75 42.9753 4.75 42.9949C4.75 43.0146 4.75 43.0342 4.75 43.0539C4.75 43.0735 4.75 43.0932 4.75 43.1128C4.75 43.1325 4.75 43.1521 4.75 43.1718C4.75 43.1914 4.75 43.2111 4.75 43.2307C4.75 43.2504 4.75 43.27 4.75 43.2897C4.75 43.3093 4.75 43.329 4.75 43.3487C4.75 43.3683 4.75 43.388 4.75 43.4076C4.75 43.4273 4.75 43.4469 4.75 43.4666C4.75 43.4862 4.75 43.5059 4.75 43.5255C4.75 43.5452 4.75 43.5648 4.75 43.5845C4.75 43.6041 4.75 43.6238 4.75 43.6434C4.75 43.6631 4.75 43.6827 4.75 43.7024C4.75 43.722 4.75 43.7417 4.75 43.7613C4.75 43.781 4.75 43.8006 4.75 43.8203C4.75 43.84 4.75 43.8596 4.75 43.8793C4.75 43.8989 4.75 43.9186 4.75 43.9382C4.75 43.9579 4.75 43.9775 4.75 43.9972C4.75 44.0168 4.75 44.0365 4.75 44.0561C4.75 44.0758 4.75 44.0954 4.75 44.1151C4.75 44.1347 4.75 44.1544 4.75 44.174C4.75 44.1937 4.75 44.2133 4.75 44.233C4.75 44.2526 4.75 44.2723 4.75 44.292C4.75 44.3116 4.75 44.3313 4.75 44.3509C4.75 44.3706 4.75 44.3902 4.75 44.4099C4.75 44.4295 4.75 44.4492 4.75 44.4688C4.75 44.4885 4.75 44.5081 4.75 44.5278C4.75 44.5474 4.75 44.5671 4.75 44.5867C4.75 44.6064 4.75 44.626 4.75 44.6457C4.75 44.6653 4.75 44.685 4.75 44.7046C4.75 44.7243 4.75 44.7439 4.75 44.7636C4.75 44.7833 4.75 44.8029 4.75 44.8226C4.75 44.8422 4.75 44.8619 4.75 44.8815C4.75 44.9012 4.75 44.9208 4.75 44.9405C4.75 44.9601 4.75 44.9798 4.75 44.9994C4.75 45.0191 4.75 45.0387 4.75 45.0584C4.75 45.078 4.75 45.0977 4.75 45.1173C4.75 45.137 4.75 45.1566 4.75 45.1763C4.75 45.1959 4.75 45.2156 4.75 45.2352C4.75 45.2549 4.75 45.2746 4.75 45.2942C4.75 45.3139 4.75 45.3335 4.75 45.3532C4.75 45.3728 4.75 45.3925 4.75 45.4121C4.75 45.4318 4.75 45.4514 4.75 45.4711C4.75 45.4907 4.75 45.5104 4.75 45.53C4.75 45.5497 4.75 45.5693 4.75 45.589C4.75 45.6086 4.75 45.6283 4.75 45.6479C4.75 45.6676 4.75 45.6872 4.75 45.7069C4.75 45.7266 4.75 45.7462 4.75 45.7659C4.75 45.7855 4.75 45.8052 4.75 45.8248C4.75 45.8445 4.75 45.8641 4.75 45.8838C4.75 45.9034 4.75 45.9231 4.75 45.9427C4.75 45.9624 4.75 45.982 4.75 46.0017C4.75 46.0213 4.75 46.041 4.75 46.0606C4.75 46.0803 4.75 46.0999 4.75 46.1196C4.75 46.1392 4.75 46.1589 4.75 46.1785C4.75 46.1982 4.75 46.2178 4.75 46.2375C4.75 46.2572 4.75 46.2768 4.75 46.2965C4.75 46.3161 4.75 46.3358 4.75 46.3554C4.75 46.3751 4.75 46.3947 4.75 46.4144C4.75 46.434 4.75 46.4537 4.75 46.4733C4.75 46.493 4.75 46.5126 4.75 46.5323C4.75 46.5519 4.75 46.5716 4.75 46.5912C4.75 46.6109 4.75 46.6305 4.75 46.6502C4.75 46.6698 4.75 46.6895 4.75 46.7092C4.75 46.7288 4.75 46.7485 4.75 46.7681C4.75 46.7878 4.75 46.8074 4.75 46.8271C4.75 46.8467 4.75 46.8664 4.75 46.886C4.75 46.9057 4.75 46.9253 4.75 46.945C4.75 46.9646 4.75 46.9843 4.75 47.0039C4.75 47.0236 4.75 47.0432 4.75 47.0629C4.75 47.0825 4.75 47.1022 4.75 47.1218C4.75 47.1415 4.75 47.1611 4.75 47.1808C4.75 47.2005 4.75 47.2201 4.75 47.2398C4.75 47.2594 4.75 47.2791 4.75 47.2987C4.75 47.3184 4.75 47.338 4.75 47.3577C4.75 47.3773 4.75 47.397 4.75 47.4166C4.75 47.4363 4.75 47.4559 4.75 47.4756C4.75 47.4952 4.75 47.5149 4.75 47.5345C4.75 47.5542 4.75 47.5738 4.75 47.5935C4.75 47.6131 4.75 47.6328 4.75 47.6525C4.75 47.6721 4.75 47.6918 4.75 47.7114C4.75 47.7311 4.75 47.7507 4.75 47.7704C4.75 47.79 4.75 47.8097 4.75 47.8293C4.75 47.849 4.75 47.8686 4.75 47.8883C4.75 47.9079 4.75 47.9276 4.75 47.9472C4.75 47.9669 4.75 47.9865 4.75 48.0062C4.75 48.0258 4.75 48.0455 4.75 48.0651C4.75 48.0848 4.75 48.1044 4.75 48.1241C4.75 48.1438 4.75 48.1634 4.75 48.1831C4.75 48.2027 4.75 48.2224 4.75 48.242C4.75 48.2617 4.75 48.2813 4.75 48.301C4.75 48.3206 4.75 48.3403 4.75 48.3599C4.75 48.3796 4.75 48.3992 4.75 48.4189C4.75 48.4385 4.75 48.4582 4.75 48.4778C4.75 48.4975 4.75 48.5171 4.75 48.5368C4.75 48.5564 4.75 48.5761 4.75 48.5957C4.75 48.6154 4.75 48.6351 4.75 48.6547C4.75 48.6744 4.75 48.694 4.75 48.7137C4.75 48.7333 4.75 48.753 4.75 48.7726C4.75 48.7923 4.75 48.8119 4.75 48.8316C4.75 48.8512 4.75 48.8709 4.75 48.8905C4.75 48.9102 4.75 48.9298 4.75 48.9495C4.75 48.9691 4.75 48.9888 4.75 49.0084C4.75 49.0281 4.75 49.0477 4.75 49.0674C4.75 49.0871 4.75 49.1067 4.75 49.1264C4.75 49.146 4.75 49.1657 4.75 49.1853C4.75 49.205 4.75 49.2246 4.75 49.2443C4.75 49.2639 4.75 49.2836 4.75 49.3032C4.75 49.3229 4.75 49.3425 4.75 49.3622C4.75 49.3818 4.75 49.4015 4.75 49.4211C4.75 49.4408 4.75 49.4604 4.75 49.4801C4.75 49.4997 4.75 49.5194 4.75 49.539C4.75 49.5587 4.75 49.5784 4.75 49.598C4.75 49.6177 4.75 49.6373 4.75 49.657C4.75 49.6766 4.75 49.6963 4.75 49.7159C4.75 49.7356 4.75 49.7552 4.75 49.7749C4.75 49.7945 4.75 49.8142 4.75 49.8338C4.75 49.8535 4.75 49.8731 4.75 49.8928C4.75 49.9124 4.75 49.9321 4.75 49.9517C4.75 49.9714 4.75 49.991 4.75 50.0107C4.75 50.0303 4.75 50.05 4.75 50.0697C4.75 50.0893 4.75 50.109 4.75 50.1286C4.75 50.1483 4.75 50.1679 4.75 50.1876C4.75 50.2072 4.75 50.2269 4.75 50.2465C4.75 50.2662 4.75 50.2858 4.75 50.3055C4.75 50.3251 4.75 50.3448 4.75 50.3644C4.75 50.3841 4.75 50.4037 4.75 50.4234C4.75 50.443 4.75 50.4627 4.75 50.4823C4.75 50.502 4.75 50.5216 4.75 50.5413C4.75 50.561 4.75 50.5806 4.75 50.6003C4.75 50.6199 4.75 50.6396 4.75 50.6592C4.75 50.6789 4.75 50.6985 4.75 50.7182C4.75 50.7378 4.75 50.7575 4.75 50.7771C4.75 50.7968 4.75 50.8164 4.75 50.8361C4.75 50.8557 4.75 50.8754 4.75 50.895C4.75 50.9147 4.75 50.9343 4.75 50.954C4.75 50.9736 4.75 50.9933 4.75 51.013C4.75 51.0326 4.75 51.0523 4.75 51.0719C4.75 51.0916 4.75 51.1112 4.75 51.1309C4.75 51.1505 4.75 51.1702 4.75 51.1898C4.75 51.2095 4.75 51.2291 4.75 51.2488C4.75 51.2684 4.75 51.2881 4.75 51.3077C4.75 51.3274 4.75 51.347 4.75 51.3667C4.75 51.3863 4.75 51.406 4.75 51.4256C4.75 51.4453 4.75 51.4649 4.75 51.4846C4.75 51.5043 4.75 51.5239 4.75 51.5436C4.75 51.5632 4.75 51.5829 4.75 51.6025C4.75 51.6222 4.75 51.6418 4.75 51.6615C4.75 51.6811 4.75 51.7008 4.75 51.7204C4.75 51.7401 4.75 51.7597 4.75 51.7794C4.75 51.799 4.75 51.8187 4.75 51.8383C4.75 51.858 4.75 51.8776 4.75 51.8973C4.75 51.9169 4.75 51.9366 4.75 51.9562C4.75 51.9759 4.75 51.9956 4.75 52.0152C4.75 52.0349 4.75 52.0545 4.75 52.0742C4.75 52.0938 4.75 52.1135 4.75 52.1331C4.75 52.1528 4.75 52.1724 4.75 52.1921C4.75 52.2117 4.75 52.2314 4.75 52.251C4.75 52.2707 4.75 52.2903 4.75 52.31C4.75 52.3296 4.75 52.3493 4.75 52.3689C4.75 52.3886 4.75 52.4082 4.75 52.4279C4.75 52.4476 4.75 52.4672 4.75 52.4869C4.75 52.5065 4.75 52.5262 4.75 52.5458C4.75 52.5655 4.75 52.5851 4.75 52.6048C4.75 52.6244 4.75 52.6441 4.75 52.6637C4.75 52.6834 4.75 52.703 4.75 52.7227C4.75 52.7423 4.75 52.762 4.75 52.7816C4.75 52.8013 4.75 52.8209 4.75 52.8406C4.75 52.8602 4.75 52.8799 4.75 52.8995C4.75 52.9192 4.75 52.9389 4.75 52.9585C4.75 52.9782 4.75 52.9978 4.75 53.0175C4.75 53.0371 4.75 53.0568 4.75 53.0764C4.75 53.0961 4.75 53.1157 4.75 53.1354C4.75 53.155 4.75 53.1747 4.75 53.1943C4.75 53.214 4.75 53.2336 4.75 53.2533C4.75 53.2729 4.75 53.2926 4.75 53.3122C4.75 53.3319 4.75 53.3515 4.75 53.3712C4.75 53.3909 4.75 53.4105 4.75 53.4302C4.75 53.4498 4.75 53.4695 4.75 53.4891C4.75 53.5088 4.75 53.5284 4.75 53.5481C4.75 53.5677 4.75 53.5874 4.75 53.607C4.75 53.6267 4.75 53.6463 4.75 53.666C4.75 53.6856 4.75 53.7053 4.75 53.7249C4.75 53.7446 4.75 53.7642 4.75 53.7839C4.75 53.8035 4.75 53.8232 4.75 53.8428C4.75 53.8625 4.75 53.8821 4.75 53.9018C4.75 53.9215 4.75 53.9411 4.75 53.9608C4.75 53.9804 4.75 54.0001 4.75 54.0197C4.75 54.0394 4.75 54.059 4.75 54.0787C4.75 54.0983 4.75 54.118 4.75 54.1376C4.75 54.1573 4.75 54.1769 4.75 54.1966C4.75 54.2162 4.75 54.2359 4.75 54.2555C4.75 54.2752 4.75 54.2948 4.75 54.3145C4.75 54.3341 4.75 54.3538 4.75 54.3735C4.75 54.3931 4.75 54.4128 4.75 54.4324C4.75 54.4521 4.75 54.4717 4.75 54.4914C4.75 54.511 4.75 54.5307 4.75 54.5503C4.75 54.57 4.75 54.5896 4.75 54.6093C4.75 54.6289 4.75 54.6486 4.75 54.6682C4.75 54.6879 4.75 54.7075 4.75 54.7272C4.75 54.7468 4.75 54.7665 4.75 54.7861C4.75 54.8058 4.75 54.8254 4.75 54.8451C4.75 54.8648 4.75 54.8844 4.75 54.9041C4.75 54.9237 4.75 54.9434 4.75 54.963C4.75 54.9827 4.75 55.0023 4.75 55.022C4.75 55.0416 4.75 55.0613 4.75 55.0809C4.75 55.1006 4.75 55.1202 4.75 55.1399C4.75 55.1595 4.75 55.1792 4.75 55.1988C4.75 55.2185 4.75 55.2381 4.75 55.2578C4.75 55.2774 4.75 55.2971 4.75 55.3167C4.75 55.3364 4.75 55.3561 4.75 55.3757C4.75 55.3954 4.75 55.415 4.75 55.4347C4.75 55.4543 4.75 55.474 4.75 55.4936C4.75 55.5133 4.75 55.5329 4.75 55.5526C4.75 55.5722 4.75 55.5919 4.75 55.6115C4.75 55.6312 4.75 55.6508 4.75 55.6705C4.75 55.6901 4.75 55.7098 4.75 55.7294C4.75 55.7491 4.75 55.7687 4.75 55.7884C4.75 55.8081 4.75 55.8277 4.75 55.8474C4.75 55.867 4.75 55.8867 4.75 55.9063C4.75 55.926 4.75 55.9456 4.75 55.9653C4.75 55.9849 4.75 56.0046 4.75 56.0242C4.75 56.0439 4.75 56.0635 4.75 56.0832C4.75 56.1028 4.75 56.1225 4.75 56.1421C4.75 56.1618 4.75 56.1814 4.75 56.2011C4.75 56.2207 4.75 56.2404 4.75 56.26C4.75 56.2797 4.75 56.2994 4.75 56.319C4.75 56.3387 4.75 56.3583 4.75 56.378C4.75 56.3976 4.75 56.4173 4.75 56.4369C4.75 56.4566 4.75 56.4762 4.75 56.4959C4.75 56.5155 4.75 56.5352 4.75 56.5548C4.75 56.5745 4.75 56.5941 4.75 56.6138C4.75 56.6334 4.75 56.6531 4.75 56.6727C4.75 56.6924 4.75 56.712 4.75 56.7317C4.75 56.7514 4.75 56.771 4.75 56.7907C4.75 56.8103 4.75 56.83 4.75 56.8496H5.25Z" fill="#EBEBEB"/>
<path fill-rule="evenodd" clip-rule="evenodd" d="M33.6956 14.862C35.8343 13.2513 38.724 13.6089 40.321 15.7576C41.9723 17.9793 42.0455 20.4276 41.0235 22.9255C40.3491 24.5745 39.1865 25.9037 37.9581 27.1591C36.4073 28.7441 34.816 30.29 33.233 31.8434C32.7321 32.3348 32.2685 32.338 31.7784 31.852C30.0005 30.0891 28.2021 28.3453 26.4717 26.5365C25.1416 25.1463 23.9914 23.6087 23.5468 21.6782C23.1362 19.895 23.2694 18.15 24.1579 16.5243C25.8355 13.4551 29.5865 12.9668 32.021 15.4801C32.1697 15.6335 32.311 15.794 32.4693 15.9659C32.9021 15.573 33.2717 15.1814 33.6956 14.862Z" fill="black"/>
</svg>
