<svg width="64" height="49" viewBox="0 0 64 49" fill="none" xmlns="http://www.w3.org/2000/svg">
<g clip-path="url(#clip0_117_49363)">
<circle cx="31.8337" cy="24" r="23.1" fill="#F9F8F4" stroke="black" stroke-width="1.8"/>
<mask id="mask0_117_49363" style="mask-type:alpha" maskUnits="userSpaceOnUse" x="9" y="2" width="45" height="44">
<circle cx="31.8337" cy="24" r="22" fill="white"/>
</mask>
<g mask="url(#mask0_117_49363)">
<path fill-rule="evenodd" clip-rule="evenodd" d="M31.4809 83.6769C32.0549 83.6769 32.5199 83.2119 32.5199 82.6379V36.7159C32.5199 36.1419 32.0549 35.6769 31.4809 35.6769H27.4099C26.8359 35.6769 26.3709 36.1419 26.3709 36.7159V82.6379C26.3709 83.2119 26.8359 83.6769 27.4099 83.6769H31.4809Z" fill="white"/>
<path fill-rule="evenodd" clip-rule="evenodd" d="M27.3919 26.0729C26.9519 26.7649 27.4449 27.6769 28.2639 27.6769H32.3809C32.7359 27.6769 33.0649 27.4979 33.2549 27.1989C36.1479 22.6569 39.1389 17.9619 42.1599 13.2189C42.4869 12.7059 42.3019 12.0199 41.7629 11.7369C40.4519 11.0499 39.1739 10.3789 37.8359 9.67688C34.3569 15.1399 30.9309 20.5159 27.3919 26.0729Z" fill="white"/>
<path fill-rule="evenodd" clip-rule="evenodd" d="M32.0169 32.6699C32.9389 32.6559 33.5389 32.2379 33.5199 31.6549C33.4999 31.0919 32.9229 30.6939 32.0389 30.6869C30.3009 30.6729 28.5609 30.6739 26.8229 30.6869C25.8959 30.6939 25.3019 31.1139 25.3219 31.6999C25.3399 32.2619 25.9169 32.6539 26.7999 32.6689C27.6549 32.6849 28.5109 32.6719 29.3659 32.6729C30.2499 32.6729 31.1339 32.6839 32.0169 32.6699Z" fill="white"/>
<path fill-rule="evenodd" clip-rule="evenodd" d="M27.426 84.6114H30.652C31.226 84.6114 31.691 84.1464 31.691 83.5724V36.9494C31.691 36.3754 31.226 35.9104 30.652 35.9104H27.426C26.852 35.9104 26.387 36.3754 26.387 36.9494V83.5724C26.387 84.1464 26.852 84.6114 27.426 84.6114Z" stroke="black" stroke-width="1.5"/>
<path fill-rule="evenodd" clip-rule="evenodd" d="M37.8475 9.0633C38.8115 9.6253 39.7535 10.1763 40.7145 10.7373C41.2075 11.0243 41.3795 11.6593 41.0965 12.1543C38.2165 17.1843 35.3665 22.1633 32.6095 26.9793C32.4235 27.3023 32.0815 27.4983 31.7085 27.4983H27.8715C27.0735 27.4983 26.5775 26.6293 26.9735 25.9373C30.1755 20.3453 33.2765 14.9293 36.4165 9.4433C36.7025 8.9423 37.3495 8.7723 37.8475 9.0633Z" stroke="black" stroke-width="1.5"/>
<path fill-rule="evenodd" clip-rule="evenodd" d="M28.9924 32.8868C28.1484 32.8868 27.3044 32.9038 26.4594 32.8818C25.5884 32.8608 25.0184 32.3248 25.0004 31.5558C24.9814 30.7528 25.5674 30.1788 26.4824 30.1688C28.1984 30.1518 29.9154 30.1518 31.6314 30.1698C32.5034 30.1798 33.0734 30.7248 33.0924 31.4928C33.1114 32.2908 32.5184 32.8628 31.6094 32.8828C30.7374 32.9018 29.8644 32.8868 28.9924 32.8868Z" stroke="black" stroke-width="1.5"/>
</g>
<rect x="40" y="26" width="24" height="12" fill="black"/>
<path d="M47.368 30.104C47.368 30.1307 47.3573 30.1547 47.336 30.176C47.32 30.192 47.2987 30.2 47.272 30.2H44.552C44.5253 30.2 44.512 30.2133 44.512 30.24V31.736C44.512 31.7627 44.5253 31.776 44.552 31.776H46.384C46.4107 31.776 46.432 31.7867 46.448 31.808C46.4693 31.824 46.48 31.8453 46.48 31.872V32.48C46.48 32.5067 46.4693 32.5307 46.448 32.552C46.432 32.568 46.4107 32.576 46.384 32.576H44.552C44.5253 32.576 44.512 32.5893 44.512 32.616V34.904C44.512 34.9307 44.5013 34.9547 44.48 34.976C44.464 34.992 44.4427 35 44.416 35H43.68C43.6533 35 43.6293 34.992 43.608 34.976C43.592 34.9547 43.584 34.9307 43.584 34.904V29.496C43.584 29.4693 43.592 29.448 43.608 29.432C43.6293 29.4107 43.6533 29.4 43.68 29.4H47.272C47.2987 29.4 47.32 29.4107 47.336 29.432C47.3573 29.448 47.368 29.4693 47.368 29.496V30.104ZM51.2358 35C51.1825 35 51.1451 34.976 51.1238 34.928L50.0678 32.624C50.0571 32.6027 50.0411 32.592 50.0198 32.592H49.0598C49.0331 32.592 49.0198 32.6053 49.0198 32.632V34.904C49.0198 34.9307 49.0091 34.9547 48.9878 34.976C48.9718 34.992 48.9505 35 48.9238 35H48.1878C48.1611 35 48.1371 34.992 48.1158 34.976C48.0998 34.9547 48.0918 34.9307 48.0918 34.904V29.496C48.0918 29.4693 48.0998 29.448 48.1158 29.432C48.1371 29.4107 48.1611 29.4 48.1878 29.4H50.3878C50.7131 29.4 51.0011 29.4693 51.2518 29.608C51.5025 29.7413 51.6971 29.9333 51.8358 30.184C51.9745 30.4293 52.0438 30.712 52.0438 31.032C52.0438 31.4 51.9478 31.7147 51.7558 31.976C51.5691 32.232 51.3078 32.4107 50.9718 32.512C50.9611 32.512 50.9531 32.5173 50.9478 32.528C50.9425 32.5387 50.9425 32.5493 50.9478 32.56L52.0758 34.888C52.0865 34.9093 52.0918 34.9253 52.0918 34.936C52.0918 34.9787 52.0625 35 52.0038 35H51.2358ZM49.0598 30.2C49.0331 30.2 49.0198 30.2133 49.0198 30.24V31.832C49.0198 31.8587 49.0331 31.872 49.0598 31.872H50.2598C50.5158 31.872 50.7211 31.7973 50.8758 31.648C51.0358 31.4933 51.1158 31.2907 51.1158 31.04C51.1158 30.7893 51.0358 30.5867 50.8758 30.432C50.7211 30.2773 50.5158 30.2 50.2598 30.2H49.0598ZM56.7901 30.104C56.7901 30.1307 56.7794 30.1547 56.7581 30.176C56.7421 30.192 56.7207 30.2 56.6941 30.2H53.9661C53.9394 30.2 53.9261 30.2133 53.9261 30.24V31.736C53.9261 31.7627 53.9394 31.776 53.9661 31.776H55.7981C55.8247 31.776 55.8461 31.7867 55.8621 31.808C55.8834 31.824 55.8941 31.8453 55.8941 31.872V32.48C55.8941 32.5067 55.8834 32.5307 55.8621 32.552C55.8461 32.568 55.8247 32.576 55.7981 32.576H53.9661C53.9394 32.576 53.9261 32.5893 53.9261 32.616V34.16C53.9261 34.1867 53.9394 34.2 53.9661 34.2H56.6941C56.7207 34.2 56.7421 34.2107 56.7581 34.232C56.7794 34.248 56.7901 34.2693 56.7901 34.296V34.904C56.7901 34.9307 56.7794 34.9547 56.7581 34.976C56.7421 34.992 56.7207 35 56.6941 35H53.0941C53.0674 35 53.0434 34.992 53.0221 34.976C53.0061 34.9547 52.9981 34.9307 52.9981 34.904V29.496C52.9981 29.4693 53.0061 29.448 53.0221 29.432C53.0434 29.4107 53.0674 29.4 53.0941 29.4H56.6941C56.7207 29.4 56.7421 29.4107 56.7581 29.432C56.7794 29.448 56.7901 29.4693 56.7901 29.496V30.104ZM61.5244 30.104C61.5244 30.1307 61.5138 30.1547 61.4924 30.176C61.4764 30.192 61.4551 30.2 61.4284 30.2H58.7004C58.6738 30.2 58.6604 30.2133 58.6604 30.24V31.736C58.6604 31.7627 58.6738 31.776 58.7004 31.776H60.5324C60.5591 31.776 60.5804 31.7867 60.5964 31.808C60.6178 31.824 60.6284 31.8453 60.6284 31.872V32.48C60.6284 32.5067 60.6178 32.5307 60.5964 32.552C60.5804 32.568 60.5591 32.576 60.5324 32.576H58.7004C58.6738 32.576 58.6604 32.5893 58.6604 32.616V34.16C58.6604 34.1867 58.6738 34.2 58.7004 34.2H61.4284C61.4551 34.2 61.4764 34.2107 61.4924 34.232C61.5138 34.248 61.5244 34.2693 61.5244 34.296V34.904C61.5244 34.9307 61.5138 34.9547 61.4924 34.976C61.4764 34.992 61.4551 35 61.4284 35H57.8284C57.8018 35 57.7778 34.992 57.7564 34.976C57.7404 34.9547 57.7324 34.9307 57.7324 34.904V29.496C57.7324 29.4693 57.7404 29.448 57.7564 29.432C57.7778 29.4107 57.8018 29.4 57.8284 29.4H61.4284C61.4551 29.4 61.4764 29.4107 61.4924 29.432C61.5138 29.448 61.5244 29.4693 61.5244 29.496V30.104Z" fill="white"/>
</g>
<defs>
<clipPath id="clip0_117_49363">
<rect width="64" height="48.1426" fill="white"/>
</clipPath>
</defs>
</svg>
