<svg width="64" height="48" viewBox="0 0 64 48" fill="none" xmlns="http://www.w3.org/2000/svg">
<rect x="1.1651" y="5.07947" width="62" height="38" fill="#F9F8F4"/>
<path fill-rule="evenodd" clip-rule="evenodd" d="M16.1539 31.6983C14.7599 31.6953 15.5019 31.6963 14.1089 31.6963H10.9719C10.4489 31.6963 9.92489 31.6953 9.40089 31.6953C8.86489 31.6953 8.32889 31.6963 7.79389 31.6963C6.71489 31.6983 5.83889 32.5743 5.83689 33.6523C5.83489 34.8163 5.83489 35.9803 5.83689 37.1443C5.83889 38.2193 6.71289 39.0923 7.78689 39.0933C10.9509 39.0943 14.1169 39.0943 17.2799 39.0933C18.3609 39.0923 19.2369 38.2143 19.2379 37.1343C19.2409 35.6403 19.2399 35.1443 19.2369 33.6503C19.2349 32.9133 18.8709 31.8543 17.7029 31.6953L16.1539 31.6983ZM8.57989 37.3513H16.4829C17.0379 37.3513 17.4879 36.9013 17.4879 36.3463V34.4133C17.4879 33.8583 17.0379 33.4083 16.4829 33.4083H8.57989C8.02489 33.4083 7.57489 33.8583 7.57489 34.4133V36.3463C7.57489 36.9013 8.02489 37.3513 8.57989 37.3513Z" fill="black"/>
<path fill-rule="evenodd" clip-rule="evenodd" d="M11.869 17.086C12.104 17.23 12.321 17.499 12.421 17.776C12.582 18.223 12.808 18.413 13.175 18.416H13.183C13.547 18.416 13.779 18.224 13.933 17.791C13.973 17.679 14.128 17.299 14.43 17.121C15.56 16.457 16.127 15.286 15.873 14.14C15.592 12.868 14.62 12.044 13.274 11.934C12.429 11.863 11.928 11.391 11.936 10.667C11.943 10.024 12.473 9.47299 13.116 9.43899C13.789 9.40599 14.291 9.85399 14.428 10.65C14.52 11.19 14.848 11.481 15.279 11.422C15.727 11.357 15.979 10.976 15.92 10.449C15.813 9.50599 15.351 8.78899 14.544 8.32099C14.255 8.15399 13.956 7.98199 13.882 7.48199C13.83 7.14399 13.577 6.94599 13.186 6.94299H13.177C12.792 6.94299 12.539 7.13599 12.482 7.47399C12.399 7.96299 12.125 8.15199 11.828 8.31799C10.845 8.86899 10.292 9.96999 10.452 11.056C10.62 12.187 11.452 13.085 12.571 13.348C12.71 13.379 12.853 13.393 12.996 13.404C13.117 13.415 13.238 13.427 13.357 13.447C14.049 13.565 14.514 14.184 14.416 14.852C14.367 15.189 14.175 15.498 13.891 15.7C13.622 15.894 13.306 15.965 12.999 15.908C12.366 15.788 12.002 15.36 11.918 14.636C11.866 14.186 11.553 13.919 11.127 13.937C10.704 13.969 10.444 14.309 10.431 14.844C10.508 15.796 10.992 16.55 11.869 17.086Z" fill="black"/>
<mask id="mask0_117_49324" style="mask-type:alpha" maskUnits="userSpaceOnUse" x="0" y="4" width="64" height="40">
<path fill-rule="evenodd" clip-rule="evenodd" d="M0 4H63.601V43.5998H0V4Z" fill="white"/>
</mask>
<g mask="url(#mask0_117_49324)">
<rect x="42" y="5" width="6" height="38" fill="white"/>
<rect x="1" y="21" width="62" height="6" fill="white"/>
<path fill-rule="evenodd" clip-rule="evenodd" d="M42.9009 21C42.9009 20.6168 38.3133 17.9491 38.3133 17.9491L34.5981 18.4161L34.0923 19.4746V28.4942L35.2288 29.627H38.4966L42.9009 27H48.8852L53.2879 29.627H57.0029L57.7972 28.0182V18.5452L55.793 17.9491H53.2879L48.5488 21C48.5488 21 42.9009 21.3832 42.9009 21Z" fill="white"/>
<path fill-rule="evenodd" clip-rule="evenodd" d="M3.526 4C0.132 4 0 7.303 0 7.303V40.094C0 43.413 3.268 43.6 3.268 43.6H60.55C63.132 43.303 63.601 41.273 63.601 40.02V7.191C63.601 7.191 63.096 4 59.997 4C42.642 4.01 27.642 4.01 10.288 4.01L3.526 4ZM49.631 6.146C49.631 5.876 49.849 5.658 50.118 5.658H59.369C60.797 5.658 61.955 6.815 61.955 8.243V19.159C61.955 19.602 61.597 19.96 61.154 19.96H58.657L58.648 19.871C58.559 19.039 58.308 18.379 57.902 17.908C57.519 17.463 56.992 17.188 56.337 17.091C55.4 16.955 54.425 16.985 53.483 17.014L53.309 17.019C53.083 17.026 52.859 17.032 52.634 17.036C52.504 17.039 52.348 17.155 52.209 17.257L52.178 17.281C51.612 17.69 51.127 18.052 50.621 18.431L49.631 19.17V6.146ZM1.625 8.143C1.625 6.764 2.743 5.646 4.121 5.646H41.259C41.649 5.646 41.965 5.962 41.965 6.352V19.163L41.806 19.046C41.536 18.848 41.279 18.653 41.028 18.461L40.991 18.432C40.678 18.194 40.358 17.951 40.032 17.718C39.399 17.265 38.641 17.008 37.862 16.994C37.515 16.988 37.167 16.993 36.827 16.997C36.602 17.001 36.377 17.004 36.152 17.004C35.2 17.004 34.483 17.229 33.958 17.69C33.461 18.126 33.147 18.762 32.995 19.637L32.944 19.967H3.283C1.625 20.262 1.625 19.225 1.625 18.309V8.143ZM1.627 22.349C1.627 21.954 1.946 21.635 2.34 21.635H32.44C32.733 21.635 32.97 21.873 32.97 22.166V25.412C32.97 25.712 32.728 25.954 32.429 25.954H2.357C1.954 25.954 1.627 25.627 1.627 25.225V22.349ZM41.965 40.892C41.965 41.474 41.493 41.945 40.911 41.945H4.154C2.761 41.945 1.632 40.815 1.632 39.423V28.397C1.632 27.973 1.976 27.628 2.401 27.628H32.914L32.956 27.835C33.031 28.205 33.067 28.374 33.111 28.537C33.265 29.104 33.601 29.62 34.058 29.987C34.519 30.358 35.069 30.565 35.652 30.586C36.714 30.621 37.74 30.619 38.698 30.58C39.004 30.566 39.326 30.374 39.491 30.261C39.987 29.921 40.466 29.56 40.973 29.178L41.965 28.436V40.892ZM39.276 24.383C39.454 24.505 39.73 24.578 40.092 24.595L40.287 24.6H41.915L41.929 24.683C42.02 25.233 42.087 25.765 41.922 26.225C41.785 26.608 41.506 26.896 41.069 27.106C40.917 27.179 40.78 27.293 40.636 27.412L40.616 27.428C38.845 28.766 38.478 29.031 37.091 29.031C36.764 29.031 36.379 29.016 35.906 28.997C35.481 28.979 35.156 28.856 34.938 28.63C34.717 28.404 34.606 28.077 34.605 27.657C34.596 25.288 34.596 22.775 34.604 19.974C34.605 19.535 34.714 19.213 34.939 18.99C35.155 18.775 35.486 18.648 35.978 18.59C37.842 18.377 39.319 18.851 40.483 20.052C41.182 20.467 41.612 20.862 41.836 21.293C42.055 21.714 42.086 22.17 41.935 22.725L41.851 23.001H40.254C39.805 23.001 39.486 23.069 39.282 23.209C39.101 23.332 39.01 23.521 39.005 23.787C39.001 24.059 39.089 24.255 39.276 24.383ZM47.957 41.082C47.957 41.562 47.568 41.951 47.088 41.951H44.415C43.983 41.951 43.633 41.601 43.633 41.169V28.678C43.633 28.678 43.454 27.479 45.097 27.599C45.596 27.584 44.808 27.6 45.097 27.599H46.919C47.492 27.599 47.957 28.063 47.957 28.637V41.082ZM47.966 24.291C47.966 25.207 47.224 25.949 46.308 25.949H45.303C44.388 25.949 43.646 25.207 43.646 24.292V23.287C43.646 22.371 44.389 21.629 45.304 21.629H46.308C47.224 21.629 47.966 22.371 47.966 23.287V24.291ZM47.967 18.863C47.967 19.464 47.481 19.951 46.879 19.951H44.731C44.131 19.951 43.645 19.465 43.645 18.865V6.159C43.645 5.871 43.878 5.638 44.166 5.638H47.385C47.706 5.638 47.967 5.898 47.967 6.22V18.863ZM52.361 23.24C52.198 23.092 51.962 23.011 51.677 23.003L51.356 22.998L49.706 23.002L49.69 22.921C49.586 22.431 49.503 21.866 49.674 21.39C49.812 21.002 50.096 20.708 50.54 20.492C50.751 20.39 50.96 20.234 51.13 20.051C52.246 18.852 53.68 18.385 55.658 18.593C56.125 18.643 56.444 18.767 56.662 18.986C56.886 19.21 56.995 19.525 56.996 19.952C57.005 22.32 57.005 24.833 56.997 27.632C56.995 28.078 56.885 28.406 56.659 28.636C56.433 28.866 56.106 28.984 55.658 28.997C55.224 29.01 54.864 29.02 54.557 29.02C53.121 29.02 52.807 28.796 51.183 27.582C50.24 27.002 49.879 26.673 49.702 26.24C49.535 25.827 49.53 25.338 49.687 24.749L49.701 24.693L49.757 24.677C50.045 24.599 50.233 24.593 50.418 24.601C50.83 24.6 51.246 24.604 51.663 24.597C51.95 24.591 52.189 24.512 52.354 24.369C52.509 24.232 52.593 24.038 52.595 23.806C52.597 23.576 52.517 23.38 52.361 23.24ZM61.95 39.374C61.95 40.793 60.8 41.943 59.381 41.943H50.649C50.095 41.943 49.645 41.493 49.645 40.939V28.437L49.804 28.555C50.087 28.765 50.359 28.97 50.621 29.172L50.666 29.206C51.164 29.585 51.635 29.943 52.127 30.27C52.386 30.442 52.733 30.559 53.055 30.582C53.568 30.616 54.092 30.611 54.602 30.603H54.637C54.854 30.6 55.071 30.597 55.288 30.597C56.339 30.596 57.073 30.39 57.6 29.95C58.1 29.533 58.422 28.902 58.616 27.965L58.68 27.626H61.433C61.719 27.626 61.95 27.857 61.95 28.143V39.374ZM61.965 25.418C61.965 25.723 61.718 25.969 61.414 25.969H59.235C58.91 25.969 58.647 25.705 58.647 25.38V22.074C58.647 21.836 58.841 21.642 59.079 21.642H61.401C61.712 21.642 61.965 21.895 61.965 22.206V25.418Z" fill="black"/>
</g>
</svg>
